#N canvas 827 239 734 565 12;
#X obj 20 840 dac~;
#X obj 20 793 *~;
#X obj 167 840 line~;
#X obj 170 756 hsl 128 17 0 1 0 0 empty empty empty -2 -8 0 10 #191919 #e1e1e1 #e1e1e1 0 1;
#X obj -44 52 adc~;
#X obj 81 141 line~;
#X obj 73 308 env~;
#X obj 73 398 sel 1;
#X obj 73 356 > 70;
#X msg 81 108 \$1 20;
#X obj 84 52 hsl 128 17 0 1 0 0 empty empty empty -2 -8 0 10 #191919 #e1e1e1 #e1e1e1 0 1;
#X obj 70 210 *~;
#X obj 81 178 *~ 3;
#X obj 70 248 *~;
#X msg 146 620 0;
#X msg 116 620 1;
#X obj 116 670 s daisyled @hv_param;
#X obj 144 598 del 50;
#X obj 73 459 timer;
#X obj 116 509 sel 1;
#X obj 116 557 t b b b b;
#X obj 126 423 bng 25 250 50 0 empty empty empty 17 7 0 10 #191919 #e1e1e1 #e1e1e1;
#X obj 20 741 catch~ out;
#X obj 268 398 send~ recorder;
#X obj 12 606 s recbang;
#X obj 377 -198 r mpr121_driver_ch10 @hv_param;
#X obj 377 -171 change;
#N canvas 733 172 450 300 modpad_disabler 0;
#X obj 43 138 s modtoggle;
#X obj 78 46 loadbang;
#X msg 46 108 1;
#X obj 43 46 tgl 25 0 empty empty empty 17 7 0 10 #191919 #e1e1e1 #e1e1e1 0 1;
#X obj 43 78 sel 0 1;
#X msg 78 108 0;
#X obj 43 16 inlet;
#X connect 1 0 2 0;
#X connect 2 0 0 0;
#X connect 3 0 4 0;
#X connect 4 0 2 0;
#X connect 4 1 5 0;
#X connect 5 0 0 0;
#X connect 6 0 3 0;
#X restore 485 -75 pd modpad_disabler;
#X obj 81 82 r knob0 @hv_param;
#X text 81 26 recording level;
#X obj 499 -55 s recordingswitch;
#X obj 377 -106 tgl 25 0 empty empty empty 17 7 0 10 #191919 #ffffff #ffffff 0 1;
#X obj 447 -106 tgl 25 0 empty empty empty 17 7 0 10 #191919 #ffffff #ffffff 0 1;
#X obj 407 -106 sel 1;
#X obj 189 155 r recordingswitch;
#X msg 65 1099 0;
#X msg 23 1099 1;
#X obj 20 1065 del 5;
#X msg 127 1099 1;
#X msg 186 1099 0;
#X msg 245 1099 1;
#X msg 303 1099 0;
#X obj 23 1168 s daisyled @hv_param;
#X text 20 904 long led sequence;
#X obj 63 1065 del 300;
#X obj 124 1065 del 400;
#X obj 184 1065 del 500;
#X obj 242 1065 del 600;
#X obj 301 1065 del 700;
#X obj 20 928 r ledswitchrecon;
#X obj 20 982 bng 25 250 50 0 empty empty empty 17 7 0 10 #191919 #e1e1e1 #e1e1e1;
#X obj 167 928 del 1000;
#X obj 167 988 spigot;
#X obj 221 982 r ledswitchreconloop;
#X obj 221 1013 sel 0;
#X obj 167 955 metro 900;
#X obj 514 -35 s ledswitchreconloop;
#X obj 189 187 sel 1;
#X msg 167 814 \$1 20;
#X obj 167 788 r faderleft @hv_param;
#X obj 116 459 > 1000;
#N canvas 0 0 450 250 (subpatch) 0;
#X array sample2 96000 float 2;
#X coords 0 1 96000 -1 337 141 1;
#X restore 1496 443 graph;
#X msg 1694 252 start;
#X msg 1741 252 stop;
#X obj 1694 191 t b b;
#X obj 1496 300 line~;
#X msg 1377 191 48000 1000;
#X obj 1496 158 tgl 25 0 empty empty empty 17 7 0 10 #191919 #e1e1e1 #e1e1e1 0 1;
#X obj 1496 407 throw~ out;
#X obj 1496 17 tgl 25 0 empty empty empty 17 7 0 10 #191919 #ffffff #ffffff 0 1;
#X obj 1496 -13 change;
#X obj 1549 126 r modtoggle;
#X obj 1496 126 spigot;
#X obj 1770 62 r recordingswitch;
#X obj 1805 252 r~ recorder;
#X obj 1805 283 *~;
#X obj 1816 225 sig~;
#X obj 1819 158 sel 1;
#X msg 1822 191 1;
#X msg 1844 191 0;
#X obj 1819 128 spigot;
#X obj 1630 327 line~;
#X obj 1496 356 *~;
#X obj 1577 271 del 20;
#X msg 1534 271 1 50;
#X msg 1630 271 0 50;
#X obj 1496 191 sel 1 0;
#X obj 1584 231 del 60;
#X msg 1638 231 0 0;
#X obj 1729 128 > 1;
#X obj 1694 62 r recbang;
#X msg 1697 97 1;
#X obj 1694 128 +;
#X obj 1770 128 sel 1;
#X obj 1496 327 tabread4~ sample2;
#X obj 1694 382 tabwrite~ sample2;
#X obj 485 -106 t f f f;
#X obj 1805 407 throw~ out;
#X obj 1332 62 hsl 128 17 0 1 0 0 empty empty empty -2 -8 0 10 #191919 #e1e1e1 #e1e1e1 0 1;
#X msg 1329 110 \$1 20;
#X obj 1329 139 line;
#X obj 1300 283 pack f f;
#X obj 1329 164 * 5000;
#X text 1377 213 1000 is 1:1 speed;
#X obj 1329 84 r knob2 @hv_param;
#X obj 1028 654 loadbang;
#X obj 914 951 sel 0 1 2 3 4 5 6 7;
#X obj 914 1003 bng 25 250 50 0 empty empty empty 17 7 0 10 #191919 #e1e1e1 #e1e1e1;
#X obj 945 1003 bng 25 250 50 0 empty empty empty 17 7 0 10 #191919 #e1e1e1 #e1e1e1;
#X obj 976 1003 bng 25 250 50 0 empty empty empty 17 7 0 10 #191919 #e1e1e1 #e1e1e1;
#X obj 1007 1003 bng 25 250 50 0 empty empty empty 17 7 0 10 #191919 #e1e1e1 #e1e1e1;
#X obj 1170 974 bng 25 250 50 0 empty empty empty 17 7 0 10 #191919 #e1e1e1 #e1e1e1;
#X obj 1201 974 bng 25 250 50 0 empty empty empty 17 7 0 10 #191919 #e1e1e1 #e1e1e1;
#X obj 1232 974 bng 25 250 50 0 empty empty empty 17 7 0 10 #191919 #e1e1e1 #e1e1e1;
#X obj 1263 974 bng 25 250 50 0 empty empty empty 17 7 0 10 #191919 #e1e1e1 #e1e1e1;
#X msg 917 1063 1;
#X msg 947 1084 0;
#X msg 1010 1063 1;
#X msg 1040 1084 0;
#X obj 1078 752 i;
#X obj 1128 752 + 1;
#X obj 1078 810 sel 0;
#X obj 1078 781 % 8;
#X text 1118 781 <- Number of Steps;
#X obj 1078 841 bng 25 250 50 0 empty empty empty 17 7 0 10 #191919 #e1e1e1 #e1e1e1;
#X obj 1028 915 random 7;
#X msg 1118 915 seed \$1;
#X obj 1118 886 int;
#X msg 1103 1063 1;
#X msg 1133 1084 0;
#X msg 1195 1063 1;
#X msg 1225 1084 0;
#X obj 1266 669 hsl 128 17 0 1 0 0 empty empty empty -2 -8 0 10 #191919 #e1e1e1 #e1e1e1 0 1;
#X msg 1263 723 \$1 20;
#X obj 1263 700 r knob5 @hv_param;
#X obj 1263 772 * 1000;
#X obj 1263 749 line;
#X obj 821 804 tgl 25 0 empty empty empty 17 7 0 10 #191919 #ffffff #ffffff 0 1;
#X obj 891 804 tgl 25 0 empty empty empty 17 7 0 10 #191919 #ffffff #ffffff 0 1;
#X obj 851 804 sel 1;
#X obj 821 772 change;
#X text 821 710 internal sequencer on / off;
#X obj 1194 830 hsl 128 17 0 1 0 0 empty empty empty -2 -8 0 10 #191919 #e1e1e1 #e1e1e1 0 1;
#X msg 1191 888 \$1 20;
#X obj 1191 914 * 2000;
#X obj 1191 862 r faderright @hv_param;
#X obj 821 741 r mpr121_driver_ch11 @hv_param;
#X msg 681 926 0;
#X msg 639 926 1;
#X obj 636 892 del 5;
#X obj 639 995 s daisyled @hv_param;
#X obj 1028 711 metro 200;
#X msg 1030 680 0;
#X obj 679 892 del 20;
#X obj 1263 798 + 50;
#X obj 1497 231 t b b;
#X obj 1540 231 t b b;
#X obj 1847 333 line~;
#X obj 1835 360 *~;
#X msg 1847 306 1 10;
#X msg 1886 306 0 100;
#X obj 1597 300 sig~ 1;
#X obj -58 141 *~ 0.5;
#X obj -58 109 +~;
#X obj 268 304 clip~ -0.95 0.95;
#X obj 189 242 line~;
#X msg 189 216 1 5;
#X msg 214 216 0 5;
#N canvas 0 0 450 250 (subpatch) 0;
#X array sample1 96000 float 2;
#X coords 0 1 96000 -1 337 141 1;
#X restore 827 443 graph;
#X msg 1025 252 start;
#X msg 1072 252 stop;
#X obj 1025 191 t b b;
#X obj 827 300 line~;
#X msg 708 191 48000 1000;
#X obj 827 158 tgl 25 0 empty empty empty 17 7 0 10 #191919 #e1e1e1 #e1e1e1 0 1;
#X obj 827 407 throw~ out;
#X obj 827 17 tgl 25 0 empty empty empty 17 7 0 10 #191919 #ffffff #ffffff 0 1;
#X obj 827 -13 change;
#X obj 880 126 r modtoggle;
#X obj 827 126 spigot;
#X obj 1101 62 r recordingswitch;
#X obj 1136 252 r~ recorder;
#X obj 1136 283 *~;
#X obj 1147 225 sig~;
#X obj 1150 158 sel 1;
#X msg 1153 191 1;
#X msg 1175 191 0;
#X obj 1150 128 spigot;
#X obj 961 327 line~;
#X obj 827 356 *~;
#X obj 908 271 del 20;
#X msg 865 271 1 50;
#X msg 961 271 0 50;
#X obj 827 191 sel 1 0;
#X obj 915 231 del 60;
#X msg 969 231 0 0;
#X obj 1060 128 > 1;
#X obj 1025 62 r recbang;
#X msg 1028 97 1;
#X obj 1025 128 +;
#X obj 1101 128 sel 1;
#X obj 827 -43 r mpr121_driver_ch4 @hv_param;
#X obj 1136 407 throw~ out;
#X obj 663 62 hsl 128 17 0 1 0 0 empty empty empty -2 -8 0 10 #191919 #e1e1e1 #e1e1e1 0 1;
#X msg 660 110 \$1 20;
#X obj 660 139 line;
#X obj 631 283 pack f f;
#X obj 660 164 * 5000;
#X text 708 213 1000 is 1:1 speed;
#X obj 1044 2 r pad4;
#X obj 828 231 t b b;
#X obj 871 231 t b b;
#X obj 1178 333 line~;
#X obj 1166 360 *~;
#X msg 1178 306 1 10;
#X msg 1217 306 0 100;
#X obj 925 300 sig~ 1;
#X obj 1496 -43 r mpr121_driver_ch6 @hv_param;
#X obj 827 327 tabread4~ sample1;
#X obj 1025 382 tabwrite~ sample1;
#X obj 1713 2 r pad6;
#X obj 660 84 r knob1 @hv_param;
#N canvas 0 0 450 250 (subpatch) 0;
#X array sample3 96000 float 2;
#X coords 0 1 96000 -1 337 141 1;
#X restore 2195 443 graph;
#X msg 2393 252 start;
#X msg 2440 252 stop;
#X obj 2393 191 t b b;
#X obj 2195 300 line~;
#X msg 2076 191 48000 1000;
#X obj 2195 158 tgl 25 0 empty empty empty 17 7 0 10 #191919 #e1e1e1 #e1e1e1 0 1;
#X obj 2195 407 throw~ out;
#X obj 2195 17 tgl 25 0 empty empty empty 17 7 0 10 #191919 #ffffff #ffffff 0 1;
#X obj 2195 -13 change;
#X obj 2248 126 r modtoggle;
#X obj 2195 126 spigot;
#X obj 2469 62 r recordingswitch;
#X obj 2504 252 r~ recorder;
#X obj 2504 283 *~;
#X obj 2515 225 sig~;
#X obj 2518 158 sel 1;
#X msg 2521 191 1;
#X msg 2543 191 0;
#X obj 2518 128 spigot;
#X obj 2329 327 line~;
#X obj 2195 356 *~;
#X obj 2276 271 del 20;
#X msg 2233 271 1 50;
#X msg 2329 271 0 50;
#X obj 2195 191 sel 1 0;
#X obj 2283 231 del 60;
#X msg 2337 231 0 0;
#X obj 2428 128 > 1;
#X obj 2393 62 r recbang;
#X msg 2396 97 1;
#X obj 2393 128 +;
#X obj 2469 128 sel 1;
#X obj 2504 407 throw~ out;
#X obj 2031 62 hsl 128 17 0 1 0 0 empty empty empty -2 -8 0 10 #191919 #e1e1e1 #e1e1e1 0 1;
#X msg 2028 110 \$1 20;
#X obj 2028 139 line;
#X obj 1999 283 pack f f;
#X obj 2028 164 * 5000;
#X text 2076 213 1000 is 1:1 speed;
#X obj 2196 231 t b b;
#X obj 2239 231 t b b;
#X obj 2546 333 line~;
#X obj 2534 360 *~;
#X msg 2546 306 1 10;
#X msg 2585 306 0 100;
#X obj 2296 300 sig~ 1;
#X obj 2195 327 tabread4~ sample3;
#X obj 2393 382 tabwrite~ sample3;
#X obj 2412 2 r pad8;
#N canvas 0 0 450 250 (subpatch) 0;
#X array sample4 96000 float 2;
#X coords 0 1 96000 -1 337 141 1;
#X restore 2907 443 graph;
#X msg 3105 252 start;
#X msg 3152 252 stop;
#X obj 3105 191 t b b;
#X obj 2907 300 line~;
#X msg 2788 191 48000 1000;
#X obj 2907 158 tgl 25 0 empty empty empty 17 7 0 10 #191919 #e1e1e1 #e1e1e1 0 1;
#X obj 2907 407 throw~ out;
#X obj 2907 17 tgl 25 0 empty empty empty 17 7 0 10 #191919 #ffffff #ffffff 0 1;
#X obj 2907 -13 change;
#X obj 2960 126 r modtoggle;
#X obj 2907 126 spigot;
#X obj 3181 62 r recordingswitch;
#X obj 3216 252 r~ recorder;
#X obj 3216 283 *~;
#X obj 3227 225 sig~;
#X obj 3230 158 sel 1;
#X msg 3233 191 1;
#X msg 3255 191 0;
#X obj 3230 128 spigot;
#X obj 3041 327 line~;
#X obj 2907 356 *~;
#X obj 2988 271 del 20;
#X msg 2945 271 1 50;
#X msg 3041 271 0 50;
#X obj 2907 191 sel 1 0;
#X obj 2995 231 del 60;
#X msg 3049 231 0 0;
#X obj 3140 128 > 1;
#X obj 3105 62 r recbang;
#X msg 3108 97 1;
#X obj 3105 128 +;
#X obj 3181 128 sel 1;
#X obj 3216 407 throw~ out;
#X obj 2743 62 hsl 128 17 0 1 0 0 empty empty empty -2 -8 0 10 #191919 #e1e1e1 #e1e1e1 0 1;
#X msg 2740 110 \$1 20;
#X obj 2740 139 line;
#X obj 2711 283 pack f f;
#X obj 2740 164 * 5000;
#X text 2788 213 1000 is 1:1 speed;
#X obj 2908 231 t b b;
#X obj 2951 231 t b b;
#X obj 3258 333 line~;
#X obj 3246 360 *~;
#X msg 3258 306 1 10;
#X msg 3297 306 0 100;
#X obj 3008 300 sig~ 1;
#X obj 3124 2 r pad9;
#X obj 3105 382 tabwrite~ sample4;
#X obj 2907 327 tabread4~ sample4;
#X obj 2907 -43 r mpr121_driver_ch9 @hv_param;
#X obj 2195 -43 r mpr121_driver_ch8 @hv_param;
#X obj 914 1125 s pad4;
#X obj 1007 1125 s pad6;
#X obj 1100 1125 s pad8;
#X obj 1192 1125 s pad9;
#X obj 321 840 line~;
#X obj 319 751 loadbang;
#X msg 359 805 1 20;
#X obj 106 741 *~;
#X msg 319 806 0 0;
#X obj 357 776 del 100;
#X obj 2028 84 r knob3 @hv_param;
#X obj 2740 84 r knob4 @hv_param;
#X obj 1501 988 f;
#X obj 1580 988 f;
#X obj 1501 951 spigot;
#X obj 1580 951 spigot;
#X obj 1580 1014 + 1;
#X obj 1501 1014 - 1;
#X msg 1716 924 1;
#X obj 1713 870 sel 1;
#X msg 1745 924 0;
#X obj 1625 1058 f;
#X obj 1700 1130 s ledswitch;
#X obj 1549 1104 loadbang;
#X obj 1700 1092 del 50;
#X obj 1590 872 sel 1;
#X obj 1501 872 sel 1;
#X obj 1652 872 bng 25 250 50 0 empty empty empty 17 7 0 10 #191919 #ffffff #ffffff;
#X obj 1566 872 bng 25 250 50 0 empty empty empty 17 7 0 10 #191919 #ffffff #ffffff;
#X obj 1700 1047 sel 1 6;
#X msg 1628 881 1;
#X msg 1536 872 1;
#X msg 631 234 96000;
#X msg 1300 234 96000;
#X msg 1999 234 96000;
#X msg 2711 234 96000;
#X obj 1217 283 del 1888;
#X obj 1741 225 del 1999;
#X obj 1886 283 del 1888;
#X obj 1072 225 del 1999;
#X obj 2440 225 del 1999;
#X obj 2585 283 del 1888;
#X obj 3152 225 del 1999;
#X obj 3297 283 del 1888;
#X obj 945 1063 del \$1;
#X obj 1038 1063 del \$1;
#X obj 1131 1063 del \$1;
#X obj 1223 1063 del \$1;
#X obj 1501 822 tgl 25 0 empty empty empty 17 7 0 10 #191919 #ffffff #ffffff 0 1;
#X obj 1501 797 change;
#X obj 1501 766 r mpr121_driver_ch7 @hv_param;
#X obj 1713 822 tgl 25 0 empty empty empty 17 7 0 10 #191919 #ffffff #ffffff 0 1;
#X obj 1713 797 change;
#X obj 1713 766 r mpr121_driver_ch3 @hv_param;
#X obj 1782 926 tgl 25 0 empty empty empty 17 7 0 10 #191919 #ffffff #ffffff 0 1;
#X obj 1782 901 change;
#X obj 1782 870 r mpr121_driver_ch11 @hv_param;
#X obj 1625 1175 s deltime;
#X obj 1333 1058 r deltime;
#X msg 1549 1130 100;
#X obj 1625 988 clip 1 20;
#X obj 1625 1104 * 100;
#X connect 1 0 0 0;
#X connect 1 0 0 1;
#X connect 2 0 331 0;
#X connect 3 0 58 0;
#X connect 4 0 163 0;
#X connect 4 1 163 1;
#X connect 5 0 12 0;
#X connect 6 0 8 0;
#X connect 7 0 21 0;
#X connect 8 0 7 0;
#X connect 9 0 5 0;
#X connect 10 0 9 0;
#X connect 11 0 13 0;
#X connect 12 0 11 1;
#X connect 13 0 6 0;
#X connect 13 0 164 0;
#X connect 14 0 16 0;
#X connect 15 0 16 0;
#X connect 17 0 14 0;
#X connect 18 0 60 0;
#X connect 19 0 20 0;
#X connect 20 0 24 0;
#X connect 20 1 18 0;
#X connect 20 2 15 0;
#X connect 20 3 17 0;
#X connect 21 0 18 1;
#X connect 22 0 1 0;
#X connect 25 0 26 0;
#X connect 26 0 31 0;
#X connect 28 0 9 0;
#X connect 31 0 33 0;
#X connect 32 0 96 0;
#X connect 33 0 32 0;
#X connect 34 0 57 0;
#X connect 35 0 42 0;
#X connect 36 0 42 0;
#X connect 37 0 36 0;
#X connect 38 0 42 0;
#X connect 39 0 42 0;
#X connect 40 0 42 0;
#X connect 41 0 42 0;
#X connect 44 0 35 0;
#X connect 45 0 38 0;
#X connect 46 0 39 0;
#X connect 47 0 40 0;
#X connect 48 0 41 0;
#X connect 49 0 50 0;
#X connect 50 0 37 0;
#X connect 50 0 44 0;
#X connect 50 0 45 0;
#X connect 50 0 46 0;
#X connect 50 0 47 0;
#X connect 50 0 48 0;
#X connect 50 0 51 0;
#X connect 51 0 55 0;
#X connect 52 0 50 0;
#X connect 53 0 52 1;
#X connect 53 0 54 0;
#X connect 54 0 46 0;
#X connect 54 0 55 0;
#X connect 55 0 52 0;
#X connect 57 0 166 0;
#X connect 57 1 167 0;
#X connect 58 0 2 0;
#X connect 59 0 58 0;
#X connect 60 0 19 0;
#X connect 62 0 95 0;
#X connect 62 0 159 0;
#X connect 63 0 95 0;
#X connect 64 0 62 0;
#X connect 64 1 361 0;
#X connect 64 1 362 0;
#X connect 65 0 94 0;
#X connect 67 0 86 0;
#X connect 69 0 80 0;
#X connect 69 0 92 1;
#X connect 69 0 72 0;
#X connect 70 0 69 0;
#X connect 71 0 72 1;
#X connect 72 0 67 0;
#X connect 73 0 80 1;
#X connect 74 0 75 0;
#X connect 75 0 97 0;
#X connect 75 0 158 0;
#X connect 76 0 75 1;
#X connect 77 0 78 0;
#X connect 77 1 79 0;
#X connect 78 0 76 0;
#X connect 79 0 76 0;
#X connect 80 0 77 0;
#X connect 81 0 82 1;
#X connect 82 0 68 0;
#X connect 83 0 85 0;
#X connect 84 0 81 0;
#X connect 85 0 81 0;
#X connect 86 0 155 0;
#X connect 86 0 84 0 32.................e....XB...vG....l....zC....;
#X connect 86 1 156 0;
#X connect 87 0 88 0;
#X connect 88 0 65 0;
#X connect 89 0 93 0;
#X connect 90 0 91 0;
#X connect 91 0 92 0;
#X connect 92 0 89 0;
#X connect 93 0 64 0;
#X connect 94 0 82 0;
#X connect 96 0 27 0;
#X connect 96 1 30 0;
#X connect 96 2 56 0;
#X connect 98 0 99 0;
#X connect 99 0 100 0;
#X connect 100 0 102 0;
#X connect 101 0 65 0;
#X connect 102 0 101 1;
#X connect 104 0 99 0;
#X connect 105 0 152 0;
#X connect 106 0 107 0;
#X connect 106 1 108 0;
#X connect 106 2 109 0;
#X connect 106 3 110 0;
#X connect 106 4 111 0;
#X connect 106 4 107 0;
#X connect 106 5 112 0;
#X connect 106 5 108 0;
#X connect 106 6 113 0;
#X connect 106 6 109 0;
#X connect 106 7 114 0;
#X connect 106 7 110 0;
#X connect 107 0 115 0;
#X connect 107 0 368 0;
#X connect 108 0 117 0;
#X connect 108 0 369 0;
#X connect 109 0 128 0;
#X connect 109 0 370 0;
#X connect 110 0 130 0;
#X connect 110 0 371 0;
#X connect 115 0 324 0;
#X connect 116 0 324 0;
#X connect 117 0 325 0;
#X connect 118 0 325 0;
#X connect 119 0 120 0;
#X connect 119 0 122 0;
#X connect 120 0 119 1;
#X connect 121 0 124 0;
#X connect 122 0 121 0;
#X connect 124 0 127 0;
#X connect 125 0 106 0;
#X connect 126 0 125 0;
#X connect 127 0 126 0;
#X connect 128 0 326 0;
#X connect 129 0 326 0;
#X connect 130 0 327 0;
#X connect 131 0 327 0;
#X connect 132 0 133 0;
#X connect 133 0 136 0;
#X connect 134 0 133 0;
#X connect 135 0 154 0;
#X connect 136 0 135 0;
#X connect 137 0 139 0;
#X connect 138 0 151 0;
#X connect 139 0 138 0;
#X connect 140 0 137 0;
#X connect 142 0 143 0;
#X connect 143 0 144 0;
#X connect 144 0 127 1;
#X connect 145 0 143 0;
#X connect 146 0 140 0;
#X connect 147 0 150 0;
#X connect 148 0 150 0;
#X connect 149 0 148 0;
#X connect 151 0 119 0;
#X connect 151 0 125 0;
#X connect 151 0 149 0;
#X connect 151 0 153 0;
#X connect 152 0 151 0;
#X connect 153 0 147 0;
#X connect 154 0 151 1;
#X connect 155 0 357 0;
#X connect 155 1 101 0;
#X connect 156 0 83 0;
#X connect 156 1 87 0;
#X connect 157 0 158 1;
#X connect 158 0 95 0;
#X connect 159 0 157 0;
#X connect 160 0 157 0;
#X connect 161 0 94 1;
#X connect 162 0 11 0;
#X connect 163 0 162 0;
#X connect 164 0 23 0;
#X connect 165 0 13 1;
#X connect 166 0 165 0;
#X connect 167 0 165 0;
#X connect 169 0 214 0;
#X connect 169 0 219 0;
#X connect 170 0 219 0;
#X connect 171 0 169 0;
#X connect 171 1 360 0;
#X connect 171 1 363 0;
#X connect 172 0 218 0;
#X connect 174 0 193 0;
#X connect 176 0 187 0;
#X connect 176 0 199 1;
#X connect 176 0 179 0;
#X connect 177 0 176 0;
#X connect 178 0 179 1;
#X connect 179 0 174 0;
#X connect 180 0 187 1;
#X connect 181 0 182 0;
#X connect 182 0 202 0;
#X connect 182 0 213 0;
#X connect 183 0 182 1;
#X connect 184 0 185 0;
#X connect 184 1 186 0;
#X connect 185 0 183 0;
#X connect 186 0 183 0;
#X connect 187 0 184 0;
#X connect 188 0 189 1;
#X connect 189 0 175 0;
#X connect 190 0 192 0;
#X connect 191 0 188 0;
#X connect 192 0 188 0;
#X connect 193 0 210 0;
#X connect 193 0 191 0 32.................e....XB...vG....l....zC....;
#X connect 193 1 211 0;
#X connect 194 0 195 0;
#X connect 195 0 172 0;
#X connect 196 0 200 0;
#X connect 197 0 198 0;
#X connect 198 0 199 0;
#X connect 199 0 196 0;
#X connect 200 0 171 0;
#X connect 201 0 177 0;
#X connect 203 0 204 0;
#X connect 204 0 205 0;
#X connect 205 0 207 0;
#X connect 206 0 172 0;
#X connect 207 0 206 1;
#X connect 209 0 193 0;
#X connect 210 0 356 0;
#X connect 210 1 206 0;
#X connect 211 0 190 0;
#X connect 211 1 194 0;
#X connect 212 0 213 1;
#X connect 213 0 219 0;
#X connect 214 0 212 0;
#X connect 215 0 212 0;
#X connect 216 0 218 1;
#X connect 217 0 70 0;
#X connect 218 0 189 0;
#X connect 220 0 86 0;
#X connect 221 0 204 0;
#X connect 223 0 266 0;
#X connect 223 0 270 0;
#X connect 224 0 270 0;
#X connect 225 0 223 0;
#X connect 225 1 364 0;
#X connect 225 1 365 0;
#X connect 226 0 269 0;
#X connect 228 0 247 0;
#X connect 230 0 241 0;
#X connect 230 0 253 1;
#X connect 230 0 233 0;
#X connect 231 0 230 0;
#X connect 232 0 233 1;
#X connect 233 0 228 0;
#X connect 234 0 241 1;
#X connect 235 0 236 0;
#X connect 236 0 255 0;
#X connect 236 0 265 0;
#X connect 237 0 236 1;
#X connect 238 0 239 0;
#X connect 238 1 240 0;
#X connect 239 0 237 0;
#X connect 240 0 237 0;
#X connect 241 0 238 0;
#X connect 242 0 243 1;
#X connect 243 0 229 0;
#X connect 244 0 246 0;
#X connect 245 0 242 0;
#X connect 246 0 242 0;
#X connect 247 0 262 0;
#X connect 247 0 245 0 32.................e....XB...vG....l....zC....;
#X connect 247 1 263 0;
#X connect 248 0 249 0;
#X connect 249 0 226 0;
#X connect 250 0 254 0;
#X connect 251 0 252 0;
#X connect 252 0 253 0;
#X connect 253 0 250 0;
#X connect 254 0 225 0;
#X connect 256 0 257 0;
#X connect 257 0 258 0;
#X connect 258 0 260 0;
#X connect 259 0 226 0;
#X connect 260 0 259 1;
#X connect 262 0 358 0;
#X connect 262 1 259 0;
#X connect 263 0 244 0;
#X connect 263 1 248 0;
#X connect 264 0 265 1;
#X connect 265 0 270 0;
#X connect 266 0 264 0;
#X connect 267 0 264 0;
#X connect 268 0 269 1;
#X connect 269 0 243 0;
#X connect 271 0 247 0;
#X connect 273 0 316 0;
#X connect 273 0 320 0;
#X connect 274 0 320 0;
#X connect 275 0 273 0;
#X connect 275 1 366 0;
#X connect 275 1 367 0;
#X connect 276 0 321 0;
#X connect 278 0 297 0;
#X connect 280 0 291 0;
#X connect 280 0 303 1;
#X connect 280 0 283 0;
#X connect 281 0 280 0;
#X connect 282 0 283 1;
#X connect 283 0 278 0;
#X connect 284 0 291 1;
#X connect 285 0 286 0;
#X connect 286 0 305 0;
#X connect 286 0 315 0;
#X connect 287 0 286 1;
#X connect 288 0 289 0;
#X connect 288 1 290 0;
#X connect 289 0 287 0;
#X connect 290 0 287 0;
#X connect 291 0 288 0;
#X connect 292 0 293 1;
#X connect 293 0 279 0;
#X connect 294 0 296 0;
#X connect 295 0 292 0;
#X connect 296 0 292 0;
#X connect 297 0 312 0;
#X connect 297 0 295 0 32.................e....XB...vG....l....zC....;
#X connect 297 1 313 0;
#X connect 298 0 299 0;
#X connect 299 0 276 0;
#X connect 300 0 304 0;
#X connect 301 0 302 0;
#X connect 302 0 303 0;
#X connect 303 0 300 0;
#X connect 304 0 275 0;
#X connect 306 0 307 0;
#X connect 307 0 308 0;
#X connect 308 0 310 0;
#X connect 309 0 276 0;
#X connect 310 0 309 1;
#X connect 312 0 359 0;
#X connect 312 1 309 0;
#X connect 313 0 294 0;
#X connect 313 1 298 0;
#X connect 314 0 315 1;
#X connect 315 0 320 0;
#X connect 316 0 314 0;
#X connect 317 0 314 0;
#X connect 318 0 321 1;
#X connect 319 0 297 0;
#X connect 321 0 293 0;
#X connect 322 0 281 0;
#X connect 323 0 231 0;
#X connect 328 0 331 1;
#X connect 329 0 332 0;
#X connect 329 0 333 0;
#X connect 330 0 328 0;
#X connect 331 0 1 1;
#X connect 332 0 328 0;
#X connect 333 0 330 0;
#X connect 334 0 257 0;
#X connect 335 0 307 0;
#X connect 336 0 341 0;
#X connect 337 0 340 0;
#X connect 338 0 336 0;
#X connect 339 0 337 0;
#X connect 340 0 384 0;
#X connect 341 0 384 0;
#X connect 342 0 339 1;
#X connect 342 0 338 1;
#X connect 343 0 342 0;
#X connect 343 1 344 0;
#X connect 344 0 339 1;
#X connect 344 0 338 1;
#X connect 345 0 353 0;
#X connect 345 0 385 0;
#X connect 347 0 383 0;
#X connect 348 0 346 0;
#X connect 349 0 339 0;
#X connect 350 0 338 0;
#X connect 351 0 354 0;
#X connect 352 0 355 0;
#X connect 353 0 348 0;
#X connect 353 1 348 0;
#X connect 354 0 349 0;
#X connect 355 0 350 0;
#X connect 356 0 206 0;
#X connect 357 0 101 0;
#X connect 358 0 259 0;
#X connect 359 0 309 0;
#X connect 360 0 215 0;
#X connect 361 0 63 0;
#X connect 362 0 160 0;
#X connect 363 0 170 0;
#X connect 364 0 224 0;
#X connect 365 0 267 0;
#X connect 366 0 274 0;
#X connect 367 0 317 0;
#X connect 368 0 116 0;
#X connect 369 0 118 0;
#X connect 370 0 129 0;
#X connect 371 0 131 0;
#X connect 372 0 350 0;
#X connect 373 0 372 0;
#X connect 374 0 373 0;
#X connect 375 0 349 0;
#X connect 376 0 375 0;
#X connect 377 0 376 0;
#X connect 378 0 343 0;
#X connect 379 0 378 0;
#X connect 380 0 379 0;
#X connect 382 0 371 1;
#X connect 382 0 370 1;
#X connect 382 0 369 1;
#X connect 382 0 368 1;
#X connect 383 0 381 0;
#X connect 384 0 336 1;
#X connect 384 0 337 1;
#X connect 384 0 345 0;
#X connect 385 0 381 0;
