#N canvas 827 239 734 565 12;
#X obj 20 840 dac~;
#X obj 20 793 *~;
#X obj 167 840 line~;
#X obj 170 756 hsl 128 17 0 1 0 0 empty empty empty -2 -8 0 10 #191919 #e1e1e1 #e1e1e1 0 1;
#X obj -44 52 adc~;
#X obj 81 141 line~;
#X obj 73 308 env~;
#X obj 73 398 sel 1;
#X msg 81 108 \$1 20;
#X obj 84 52 hsl 128 17 0 1 0 0 empty empty empty -2 -8 0 10 #191919 #e1e1e1 #e1e1e1 0 1;
#X obj 70 210 *~;
#X obj 70 248 *~;
#X msg 146 620 0;
#X msg 116 620 1;
#X obj 116 670 s daisyled @hv_param;
#X obj 144 598 del 50;
#X obj 73 459 timer;
#X obj 116 509 sel 1;
#X obj 116 557 t b b b b;
#X obj 126 423 bng 25 250 50 0 empty empty empty 17 7 0 10 #191919 #e1e1e1 #e1e1e1;
#X obj 20 741 catch~ out;
#X obj 268 398 send~ recorder;
#X obj 12 606 s recbang;
#X obj 377 -198 r mpr121_driver_ch10 @hv_param;
#X obj 377 -171 change;
#N canvas 733 172 450 300 modpad_disabler 0;
#X obj 43 138 s modtoggle;
#X obj 78 46 loadbang;
#X msg 46 108 1;
#X obj 43 46 tgl 25 0 empty empty empty 17 7 0 10 #191919 #e1e1e1 #e1e1e1 0 1;
#X obj 43 78 sel 0 1;
#X msg 78 108 0;
#X obj 43 16 inlet;
#X connect 1 0 2 0;
#X connect 2 0 0 0;
#X connect 3 0 4 0;
#X connect 4 0 2 0;
#X connect 4 1 5 0;
#X connect 5 0 0 0;
#X connect 6 0 3 0;
#X restore 485 -75 pd modpad_disabler;
#X obj 81 82 r knob0 @hv_param;
#X text 81 26 recording level;
#X obj 499 -55 s recordingswitch;
#X obj 377 -106 tgl 25 0 empty empty empty 17 7 0 10 #191919 #ffffff #ffffff 0 1;
#X obj 447 -106 tgl 25 0 empty empty empty 17 7 0 10 #191919 #ffffff #ffffff 0 1;
#X obj 407 -106 sel 1;
#X obj 189 155 r recordingswitch;
#X msg 65 1099 0;
#X msg 23 1099 1;
#X obj 20 1065 del 5;
#X msg 127 1099 1;
#X msg 186 1099 0;
#X msg 245 1099 1;
#X msg 303 1099 0;
#X obj 23 1168 s daisyled @hv_param;
#X text 20 904 long led sequence;
#X obj 63 1065 del 300;
#X obj 124 1065 del 400;
#X obj 184 1065 del 500;
#X obj 242 1065 del 600;
#X obj 301 1065 del 700;
#X obj 20 928 r ledswitchrecon;
#X obj 20 982 bng 25 250 50 0 empty empty empty 17 7 0 10 #191919 #e1e1e1 #e1e1e1;
#X obj 167 928 del 1000;
#X obj 167 988 spigot;
#X obj 221 982 r ledswitchreconloop;
#X obj 221 1013 sel 0;
#X obj 167 955 metro 900;
#X obj 514 -35 s ledswitchreconloop;
#X obj 189 187 sel 1;
#X msg 167 814 \$1 20;
#X obj 167 788 r faderleft @hv_param;
#X obj 116 459 > 1000;
#N canvas 0 0 450 250 (subpatch) 0;
#X array sample2 96000 float 2;
#X coords 0 1 96000 -1 337 141 1;
#X restore 1496 443 graph;
#X msg 1694 252 start;
#X msg 1741 252 stop;
#X obj 1694 191 t b b;
#X obj 1496 300 line~;
#X msg 1377 191 48000 1000;
#X obj 1496 158 tgl 25 0 empty empty empty 17 7 0 10 #191919 #e1e1e1 #e1e1e1 0 1;
#X obj 1496 407 throw~ out;
#X obj 1496 17 tgl 25 0 empty empty empty 17 7 0 10 #191919 #ffffff #ffffff 0 1;
#X obj 1496 -13 change;
#X obj 1549 126 r modtoggle;
#X obj 1496 126 spigot;
#X obj 1770 62 r recordingswitch;
#X obj 1805 252 r~ recorder;
#X obj 1805 283 *~;
#X obj 1816 225 sig~;
#X obj 1819 158 sel 1;
#X msg 1822 191 1;
#X msg 1844 191 0;
#X obj 1819 128 spigot;
#X obj 1630 327 line~;
#X obj 1496 356 *~;
#X obj 1577 271 del 20;
#X msg 1534 271 1 50;
#X msg 1630 271 0 50;
#X obj 1496 191 sel 1 0;
#X obj 1584 231 del 60;
#X msg 1638 231 0 0;
#X obj 1729 128 > 1;
#X obj 1694 62 r recbang;
#X msg 1697 97 1;
#X obj 1694 128 +;
#X obj 1770 128 sel 1;
#X obj 1496 327 tabread4~ sample2;
#X obj 1694 382 tabwrite~ sample2;
#X obj 485 -106 t f f f;
#X obj 1805 407 throw~ out;
#X obj 1332 62 hsl 128 17 0 1 0 0 empty empty empty -2 -8 0 10 #191919 #e1e1e1 #e1e1e1 0 1;
#X msg 1329 110 \$1 20;
#X obj 1329 139 line;
#X obj 1300 283 pack f f;
#X obj 1329 164 * 5000;
#X text 1377 213 1000 is 1:1 speed;
#X obj 1329 84 r knob2 @hv_param;
#X obj 1028 654 loadbang;
#X obj 1028 1042 bng 25 250 50 0 empty empty empty 17 7 0 10 #191919 #e1e1e1 #e1e1e1;
#X obj 1059 1042 bng 25 250 50 0 empty empty empty 17 7 0 10 #191919 #e1e1e1 #e1e1e1;
#X obj 1090 1042 bng 25 250 50 0 empty empty empty 17 7 0 10 #191919 #e1e1e1 #e1e1e1;
#X obj 1124 1042 bng 25 250 50 0 empty empty empty 17 7 0 10 #191919 #e1e1e1 #e1e1e1;
#X msg 790 1100 1;
#X msg 820 1121 0;
#X msg 883 1100 1;
#X msg 913 1121 0;
#X obj 1118 760 i;
#X obj 1168 760 + 1;
#X obj 1118 818 sel 0;
#X obj 1118 849 bng 25 250 50 0 empty empty empty 17 7 0 10 #191919 #e1e1e1 #e1e1e1;
#X msg 1118 915 seed \$1;
#X obj 1118 886 int;
#X msg 976 1100 1;
#X msg 1006 1121 0;
#X msg 1068 1100 1;
#X msg 1098 1121 0;
#X obj 1298 594 hsl 128 17 0 1 0 0 empty empty empty -2 -8 0 10 #191919 #e1e1e1 #e1e1e1 0 1;
#X msg 1295 648 \$1 20;
#X obj 1295 625 r knob5 @hv_param;
#X obj 1295 697 * 1000;
#X obj 1295 674 line;
#X obj 771 703 tgl 25 0 empty empty empty 17 7 0 10 #191919 #ffffff #ffffff 0 1;
#X obj 841 703 tgl 25 0 empty empty empty 17 7 0 10 #191919 #ffffff #ffffff 0 1;
#X obj 801 703 sel 1;
#X obj 771 671 change;
#X text 771 609 internal sequencer on / off;
#X obj 1266 830 hsl 128 17 0 1 0 0 empty empty empty -2 -8 0 10 #191919 #e1e1e1 #e1e1e1 0 1;
#X msg 1263 888 \$1 20;
#X obj 1263 914 * 2000;
#X obj 1263 862 r faderright @hv_param;
#X obj 771 640 r mpr121_driver_ch11 @hv_param;
#X msg 681 926 0;
#X msg 639 926 1;
#X obj 636 892 del 5;
#X obj 639 995 s daisyled @hv_param;
#X obj 1028 711 metro 200;
#X msg 1030 680 0;
#X obj 679 892 del 20;
#X obj 1497 231 t b b;
#X obj 1540 231 t b b;
#X obj 1847 333 line~;
#X obj 1835 360 *~;
#X msg 1847 306 1 10;
#X msg 1886 306 0 100;
#X obj 1597 300 sig~ 1;
#X obj -58 141 *~ 0.5;
#X obj -58 109 +~;
#X obj 268 304 clip~ -0.95 0.95;
#X obj 189 242 line~;
#X msg 189 216 1 5;
#X msg 214 216 0 5;
#N canvas 0 0 450 250 (subpatch) 0;
#X array sample1 96000 float 2;
#X coords 0 1 96000 -1 337 141 1;
#X restore 827 443 graph;
#X msg 1025 252 start;
#X msg 1072 252 stop;
#X obj 1025 191 t b b;
#X obj 827 300 line~;
#X msg 708 191 48000 1000;
#X obj 827 158 tgl 25 0 empty empty empty 17 7 0 10 #191919 #e1e1e1 #e1e1e1 0 1;
#X obj 827 407 throw~ out;
#X obj 827 17 tgl 25 0 empty empty empty 17 7 0 10 #191919 #ffffff #ffffff 0 1;
#X obj 827 -13 change;
#X obj 880 126 r modtoggle;
#X obj 827 126 spigot;
#X obj 1101 62 r recordingswitch;
#X obj 1136 252 r~ recorder;
#X obj 1136 283 *~;
#X obj 1147 225 sig~;
#X obj 1150 158 sel 1;
#X msg 1153 191 1;
#X msg 1175 191 0;
#X obj 1150 128 spigot;
#X obj 961 327 line~;
#X obj 867 360 *~;
#X obj 908 271 del 20;
#X msg 865 271 1 50;
#X msg 961 271 0 50;
#X obj 827 191 sel 1 0;
#X obj 915 231 del 60;
#X msg 969 231 0 0;
#X obj 1060 128 > 1;
#X obj 1025 62 r recbang;
#X msg 1028 97 1;
#X obj 1025 128 +;
#X obj 1101 128 sel 1;
#X obj 827 -43 r mpr121_driver_ch4 @hv_param;
#X obj 1136 407 throw~ out;
#X obj 663 62 hsl 128 17 0 1 0 0 empty empty empty -2 -8 0 10 #191919 #e1e1e1 #e1e1e1 0 1;
#X msg 660 110 \$1 20;
#X obj 660 139 line;
#X obj 631 283 pack f f;
#X obj 660 164 * 5000;
#X text 708 213 1000 is 1:1 speed;
#X obj 1044 2 r pad4;
#X obj 828 231 t b b;
#X obj 871 231 t b b;
#X obj 1178 333 line~;
#X obj 1166 360 *~;
#X msg 1178 306 1 10;
#X msg 1217 306 0 100;
#X obj 925 300 sig~ 1;
#X obj 1496 -43 r mpr121_driver_ch6 @hv_param;
#X obj 827 327 tabread4~ sample1;
#X obj 1025 382 tabwrite~ sample1;
#X obj 1713 2 r pad6;
#X obj 660 84 r knob1 @hv_param;
#N canvas 0 0 450 250 (subpatch) 0;
#X array sample3 96000 float 2;
#X coords 0 1 96000 -1 337 141 1;
#X restore 2195 443 graph;
#X msg 2393 252 start;
#X msg 2440 252 stop;
#X obj 2393 191 t b b;
#X obj 2195 300 line~;
#X msg 2076 191 48000 1000;
#X obj 2195 158 tgl 25 0 empty empty empty 17 7 0 10 #191919 #e1e1e1 #e1e1e1 0 1;
#X obj 2195 407 throw~ out;
#X obj 2195 17 tgl 25 0 empty empty empty 17 7 0 10 #191919 #ffffff #ffffff 0 1;
#X obj 2195 -13 change;
#X obj 2248 126 r modtoggle;
#X obj 2195 126 spigot;
#X obj 2469 62 r recordingswitch;
#X obj 2504 252 r~ recorder;
#X obj 2504 283 *~;
#X obj 2515 225 sig~;
#X obj 2518 158 sel 1;
#X msg 2521 191 1;
#X msg 2543 191 0;
#X obj 2518 128 spigot;
#X obj 2329 327 line~;
#X obj 2195 356 *~;
#X obj 2276 271 del 20;
#X msg 2233 271 1 50;
#X msg 2329 271 0 50;
#X obj 2195 191 sel 1 0;
#X obj 2283 231 del 60;
#X msg 2337 231 0 0;
#X obj 2428 128 > 1;
#X obj 2393 62 r recbang;
#X msg 2396 97 1;
#X obj 2393 128 +;
#X obj 2469 128 sel 1;
#X obj 2504 407 throw~ out;
#X obj 2031 62 hsl 128 17 0 1 0 0 empty empty empty -2 -8 0 10 #191919 #e1e1e1 #e1e1e1 0 1;
#X msg 2028 110 \$1 20;
#X obj 2028 139 line;
#X obj 1999 283 pack f f;
#X obj 2028 164 * 5000;
#X text 2076 213 1000 is 1:1 speed;
#X obj 2196 231 t b b;
#X obj 2239 231 t b b;
#X obj 2546 333 line~;
#X obj 2534 360 *~;
#X msg 2546 306 1 10;
#X msg 2585 306 0 100;
#X obj 2296 300 sig~ 1;
#X obj 2195 327 tabread4~ sample3;
#X obj 2393 382 tabwrite~ sample3;
#X obj 2412 2 r pad8;
#N canvas 0 0 450 250 (subpatch) 0;
#X array sample4 96000 float 2;
#X coords 0 1 96000 -1 337 141 1;
#X restore 2907 443 graph;
#X msg 3105 252 start;
#X msg 3152 252 stop;
#X obj 3105 191 t b b;
#X obj 2907 300 line~;
#X msg 2788 191 48000 1000;
#X obj 2907 158 tgl 25 0 empty empty empty 17 7 0 10 #191919 #e1e1e1 #e1e1e1 0 1;
#X obj 2907 407 throw~ out;
#X obj 2907 17 tgl 25 0 empty empty empty 17 7 0 10 #191919 #ffffff #ffffff 0 1;
#X obj 2907 -13 change;
#X obj 2960 126 r modtoggle;
#X obj 2907 126 spigot;
#X obj 3181 62 r recordingswitch;
#X obj 3216 252 r~ recorder;
#X obj 3216 283 *~;
#X obj 3227 225 sig~;
#X obj 3230 158 sel 1;
#X msg 3233 191 1;
#X msg 3255 191 0;
#X obj 3230 128 spigot;
#X obj 3041 327 line~;
#X obj 2907 356 *~;
#X obj 2988 271 del 20;
#X msg 2945 271 1 50;
#X msg 3041 271 0 50;
#X obj 2907 191 sel 1 0;
#X obj 2995 231 del 60;
#X msg 3049 231 0 0;
#X obj 3140 128 > 1;
#X obj 3105 62 r recbang;
#X msg 3108 97 1;
#X obj 3105 128 +;
#X obj 3181 128 sel 1;
#X obj 3216 407 throw~ out;
#X obj 2743 62 hsl 128 17 0 1 0 0 empty empty empty -2 -8 0 10 #191919 #e1e1e1 #e1e1e1 0 1;
#X msg 2740 110 \$1 20;
#X obj 2740 139 line;
#X obj 2711 283 pack f f;
#X obj 2740 164 * 5000;
#X text 2788 213 1000 is 1:1 speed;
#X obj 2908 231 t b b;
#X obj 2951 231 t b b;
#X obj 3258 333 line~;
#X obj 3246 360 *~;
#X msg 3258 306 1 10;
#X msg 3297 306 0 100;
#X obj 3008 300 sig~ 1;
#X obj 3124 2 r pad9;
#X obj 3105 382 tabwrite~ sample4;
#X obj 2907 327 tabread4~ sample4;
#X obj 2907 -43 r mpr121_driver_ch9 @hv_param;
#X obj 2195 -43 r mpr121_driver_ch8 @hv_param;
#X obj 787 1162 s pad4;
#X obj 880 1162 s pad6;
#X obj 973 1162 s pad8;
#X obj 1065 1162 s pad9;
#X obj 321 840 line~;
#X obj 319 751 loadbang;
#X msg 359 805 1 20;
#X obj 106 741 *~;
#X msg 319 806 0 0;
#X obj 357 776 del 100;
#X obj 2028 84 r knob3 @hv_param;
#X obj 2740 84 r knob4 @hv_param;
#X obj -106 1469 f;
#X obj -27 1469 f;
#X obj -106 1432 spigot;
#X obj -27 1432 spigot;
#X obj -27 1495 + 1;
#X obj -106 1495 - 1;
#X msg 109 1405 1;
#X obj 106 1351 sel 1;
#X msg 138 1405 0;
#X obj 18 1539 f;
#X obj 93 1611 s ledswitch;
#X obj -58 1585 loadbang;
#X obj 93 1573 del 50;
#X obj -17 1353 sel 1;
#X obj -106 1353 sel 1;
#X obj 45 1353 bng 25 250 50 0 empty empty empty 17 7 0 10 #191919 #ffffff #ffffff;
#X obj -41 1353 bng 25 250 50 0 empty empty empty 17 7 0 10 #191919 #ffffff #ffffff;
#X obj 93 1528 sel 1 6;
#X msg 21 1362 1;
#X msg -71 1353 1;
#X msg 631 234 96000;
#X msg 1300 234 96000;
#X msg 1999 234 96000;
#X msg 2711 234 96000;
#X obj 1217 283 del 1888;
#X obj 1741 225 del 1999;
#X obj 1886 283 del 1888;
#X obj 1072 225 del 1999;
#X obj 2440 225 del 1999;
#X obj 2585 283 del 1888;
#X obj 3152 225 del 1999;
#X obj 3297 283 del 1888;
#X obj 818 1100 del \$1;
#X obj 911 1100 del \$1;
#X obj 1004 1100 del \$1;
#X obj 1096 1100 del \$1;
#X obj -106 1303 tgl 25 0 empty empty empty 17 7 0 10 #191919 #ffffff #ffffff 0 1;
#X obj -106 1278 change;
#X obj -106 1247 r mpr121_driver_ch7 @hv_param;
#X obj 106 1303 tgl 25 0 empty empty empty 17 7 0 10 #191919 #ffffff #ffffff 0 1;
#X obj 106 1278 change;
#X obj 106 1247 r mpr121_driver_ch3 @hv_param;
#X obj 175 1407 tgl 25 0 empty empty empty 17 7 0 10 #191919 #ffffff #ffffff 0 1;
#X obj 175 1382 change;
#X obj 175 1351 r mpr121_driver_ch11 @hv_param;
#X obj 18 1656 s deltime;
#X obj 934 1017 r deltime;
#X msg -58 1611 100;
#X obj 18 1469 clip 1 20;
#X obj 18 1585 * 100;
#X obj 439 1392 change;
#X obj 649 1392 change;
#X obj 575 1349 ==;
#X obj 575 1392 change;
#X obj 575 1312 t b f;
#X obj 439 1264 r toggle1left_press @hv_param;
#X obj 649 1264 r toggle1right_press @hv_param;
#X text 585 1232 seq step length toggle;
#X obj 873 1527 s probably;
#X obj 873 1392 change;
#X obj 1083 1392 change;
#X obj 1009 1349 ==;
#X obj 1009 1392 change;
#X obj 1009 1312 t b f;
#X obj 873 1264 r toggle2down_press @hv_param;
#X obj 1083 1264 r toggle2up_press @hv_param;
#X obj 441 1527 s seqlength;
#X text 944 1231 stepsequencer chance;
#X obj 439 1432 sel 1;
#X obj 575 1432 sel 1;
#X obj 649 1432 sel 1;
#X obj 873 1436 sel 1;
#X obj 1009 1436 sel 1;
#X obj 1083 1436 sel 1;
#X obj 1128 654 r seqlength;
#X msg 577 1487 8;
#X obj 1028 959 sel 0 1 2 3 4 5 6 7 8 9 10 11 12 13 14 15;
#X obj 807 1791 f;
#X obj 886 1791 f;
#X obj 807 1754 spigot;
#X obj 886 1754 spigot;
#X obj 886 1817 + 1;
#X obj 807 1817 - 1;
#X msg 1022 1727 1;
#X obj 1019 1698 sel 1;
#X msg 1051 1727 0;
#X obj 1061 1692 tgl 25 0 empty empty empty 17 7 0 10 #191919 #ffffff #ffffff 0 1;
#X obj 931 1861 f;
#X obj 1006 1933 s ledswitch;
#X obj 931 1933 s seqtime;
#X obj 855 1907 loadbang;
#X msg 855 1933 1;
#X obj 1006 1895 del 50;
#X obj 896 1700 sel 1;
#X obj 807 1700 sel 1;
#X obj 958 1700 bng 25 250 50 0 empty empty empty 17 7 0 10 #191919 #ffffff #ffffff;
#X obj 872 1700 bng 25 250 50 0 empty empty empty 17 7 0 10 #191919 #ffffff #ffffff;
#X obj 1684 1357 midirealtimein;
#X floatatom 1684 1383 5 0 0 0 - - - 0;
#X obj 1684 1410 select 248 250 252;
#X obj 1717 1440 bng 25 250 50 0 empty empty empty 17 7 0 10 #191919 #ffffff #ffffff;
#X obj 1751 1471 bng 25 250 50 0 empty empty empty 17 7 0 10 #191919 #ffffff #ffffff;
#X text 1744 1438 play;
#X text 1776 1476 stop;
#X obj 1684 1553 bng 25 250 50 0 empty empty empty 17 7 0 10 #191919 #ffffff #ffffff;
#X msg 1720 1504 1;
#X msg 1754 1504 0;
#X text 1707 1535 tempo pulse;
#X obj 1734 1553 tgl 25 0 empty empty empty 17 7 0 10 #191919 #e1e1e1 #e1e1e1 0 1;
#X obj 2019 1439 + 1;
#X obj 2098 1533 + 1;
#X floatatom 2098 1562 5 0 0 0 - - - 0;
#X obj 1974 1439 i;
#X obj 2143 1533 + 1;
#X floatatom 2143 1562 5 0 0 0 - - - 0;
#X obj 2192 1533 + 1;
#X floatatom 2192 1562 5 0 0 0 - - - 0;
#X obj 1908 1644 spigot;
#X obj 1950 1683 spigot;
#X obj 1995 1720 spigot;
#X obj 2044 1757 spigot;
#X obj 2093 1792 spigot;
#X obj 1685 1592 spigot;
#X obj 1685 1644 r seqtime;
#X obj 2056 1533 + 1;
#X obj 2056 1507 % 24;
#X obj 2098 1507 % 48;
#X obj 2143 1507 % 96;
#X obj 2192 1507 % 192;
#X obj 2056 1592 sel 24;
#X obj 2098 1592 sel 48;
#X obj 2143 1592 sel 96;
#X obj 2192 1592 sel 192;
#X msg 1877 1644 1;
#X msg 1849 1644 0;
#X msg 1877 1683 1;
#X msg 1849 1683 0;
#X msg 1877 1720 1;
#X msg 1849 1720 0;
#X msg 1877 1757 1;
#X msg 1849 1757 0;
#X msg 1877 1792 1;
#X msg 1849 1792 0;
#X floatatom 2056 1562 5 0 0 0 - - - 0;
#X obj 2011 1533 + 1;
#X floatatom 2011 1562 5 0 0 0 - - - 0;
#X obj 2011 1507 % 12;
#X obj 2011 1592 sel 12;
#X obj 1006 1850 sel 1 6;
#X obj 931 1791 clip 1 6;
#X obj 1959 1533 + 1;
#X floatatom 1959 1562 5 0 0 0 - - - 0;
#X obj 1959 1507 % 6;
#X obj 1959 1592 sel 6;
#X obj 2158 1824 spigot;
#X msg 1877 1824 1;
#X msg 1849 1824 0;
#X obj 1776 1504 s setzero;
#X msg 931 1700 1;
#X msg 842 1700 1;
#X obj 1974 1357 r gate_in_trig @hv_param;
#X obj 1908 1533 + 1;
#X floatatom 1908 1562 5 0 0 0 - - - 0;
#X obj 1908 1507 % 1;
#X obj 1908 1592 sel 1;
#X obj 2192 1857 spigot;
#X msg 1877 1857 1;
#X msg 1849 1857 0;
#X obj 1685 1683 sel 6 5 4 3 2 1 0;
#X obj 807 1661 tgl 25 0 empty empty empty 17 7 0 10 #191919 #ffffff #ffffff 0 1;
#X obj 807 1636 change;
#X obj 1022 1661 tgl 25 0 empty empty empty 17 7 0 10 #191919 #ffffff #ffffff 0 1;
#X obj 1022 1636 change;
#X obj 1237 1661 tgl 25 0 empty empty empty 17 7 0 10 #191919 #ffffff #ffffff 0 1;
#X obj 1237 1636 change;
#X obj 1237 1605 r mpr121_driver_ch11 @hv_param;
#X text 1237 1583 seqpadpressed;
#X text 1022 1583 seqtemp_down;
#X text 807 1583 seqtemp_up;
#X obj 807 1605 r mpr121_driver_ch8 @hv_param;
#X obj 1022 1605 r mpr121_driver_ch9 @hv_param;
#X obj 1908 1891 s clock_devided;
#X obj 913 798 r clock_devided;
#X obj 1028 798 bng 25 250 50 0 empty empty empty 17 7 0 10 #191919 #e1e1e1 #e1e1e1;
#X obj 1154 680 r setzero;
#X obj 1118 789 % \$1;
#X obj 1295 723 change;
#X obj 1295 756 moses 50;
#X obj 1377 731 r seqtime;
#X obj 1328 798 /;
#X obj 1377 757 t f b;
#X obj 1456 952 s gate_out @hv_param;
#X msg 1488 888 0;
#X msg 1449 888 1;
#X obj 1486 858 del 10;
#X obj 946 870 r probably;
#X obj -106 982 bng 25 250 50 0 empty empty empty 17 7 0 10 #191919 #e1e1e1 #e1e1e1;
#X text -106 904 short led toggle;
#X obj -106 928 r ledswitch;
#X obj 81 178 *~ 3;
#X obj 73 356 > 40;
#X obj 1028 915 random 1;
#X msg 441 1487 4;
#X msg 651 1487 16;
#X msg 876 1480 2;
#X msg 1011 1480 18;
#X msg 1085 1480 42;
#X obj 1092 -245 phasor~ 0.5;
#X obj 1092 -158 tabread4~ sample1;
#X obj 1092 -217 *~ 96000;
#X connect 1 0 0 0;
#X connect 1 0 0 1;
#X connect 2 0 320 0;
#X connect 3 0 56 0;
#X connect 4 0 152 0;
#X connect 4 1 152 1;
#X connect 5 0 524 0;
#X connect 6 0 525 0;
#X connect 7 0 19 0;
#X connect 8 0 5 0;
#X connect 9 0 8 0;
#X connect 10 0 11 0;
#X connect 11 0 6 0;
#X connect 11 0 153 0;
#X connect 12 0 14 0;
#X connect 13 0 14 0;
#X connect 15 0 12 0;
#X connect 16 0 58 0;
#X connect 17 0 18 0;
#X connect 18 0 22 0;
#X connect 18 1 16 0;
#X connect 18 2 13 0;
#X connect 18 3 15 0;
#X connect 19 0 16 1;
#X connect 20 0 1 0;
#X connect 23 0 24 0;
#X connect 24 0 29 0;
#X connect 26 0 8 0;
#X connect 29 0 31 0;
#X connect 30 0 94 0;
#X connect 31 0 30 0;
#X connect 32 0 55 0;
#X connect 33 0 40 0;
#X connect 34 0 40 0;
#X connect 35 0 34 0;
#X connect 36 0 40 0;
#X connect 37 0 40 0;
#X connect 38 0 40 0;
#X connect 39 0 40 0;
#X connect 42 0 33 0;
#X connect 43 0 36 0;
#X connect 44 0 37 0;
#X connect 45 0 38 0;
#X connect 46 0 39 0;
#X connect 47 0 48 0;
#X connect 48 0 35 0;
#X connect 48 0 42 0;
#X connect 48 0 43 0;
#X connect 48 0 44 0;
#X connect 48 0 45 0;
#X connect 48 0 46 0;
#X connect 48 0 49 0;
#X connect 49 0 53 0;
#X connect 50 0 48 0;
#X connect 51 0 50 1;
#X connect 51 0 52 0;
#X connect 52 0 44 0;
#X connect 52 0 53 0;
#X connect 53 0 50 0;
#X connect 55 0 155 0;
#X connect 55 1 156 0;
#X connect 56 0 2 0;
#X connect 57 0 56 0;
#X connect 58 0 17 0;
#X connect 60 0 93 0;
#X connect 60 0 148 0;
#X connect 61 0 93 0;
#X connect 62 0 60 0;
#X connect 62 1 350 0;
#X connect 62 1 351 0;
#X connect 63 0 92 0;
#X connect 65 0 84 0;
#X connect 67 0 78 0;
#X connect 67 0 90 1;
#X connect 67 0 70 0;
#X connect 68 0 67 0;
#X connect 69 0 70 1;
#X connect 70 0 65 0;
#X connect 71 0 78 1;
#X connect 72 0 73 0;
#X connect 73 0 95 0;
#X connect 73 0 147 0;
#X connect 74 0 73 1;
#X connect 75 0 76 0;
#X connect 75 1 77 0;
#X connect 76 0 74 0;
#X connect 77 0 74 0;
#X connect 78 0 75 0;
#X connect 79 0 80 1;
#X connect 80 0 66 0;
#X connect 81 0 83 0;
#X connect 82 0 79 0;
#X connect 83 0 79 0;
#X connect 84 0 144 0;
#X connect 84 0 82 0 32.................e....XB...vG....l....zC....;
#X connect 84 1 145 0;
#X connect 85 0 86 0;
#X connect 86 0 63 0;
#X connect 87 0 91 0;
#X connect 88 0 89 0;
#X connect 89 0 90 0;
#X connect 90 0 87 0;
#X connect 91 0 62 0;
#X connect 92 0 80 0;
#X connect 94 0 25 0;
#X connect 94 1 28 0;
#X connect 94 2 54 0;
#X connect 96 0 97 0;
#X connect 97 0 98 0;
#X connect 98 0 100 0;
#X connect 99 0 63 0;
#X connect 100 0 99 1;
#X connect 102 0 97 0;
#X connect 103 0 142 0;
#X connect 104 0 108 0;
#X connect 104 0 357 0;
#X connect 105 0 110 0;
#X connect 105 0 358 0;
#X connect 106 0 118 0;
#X connect 106 0 359 0;
#X connect 107 0 120 0;
#X connect 107 0 360 0;
#X connect 108 0 313 0;
#X connect 109 0 313 0;
#X connect 110 0 314 0;
#X connect 111 0 314 0;
#X connect 112 0 113 0;
#X connect 112 0 510 0;
#X connect 113 0 112 1;
#X connect 114 0 115 0;
#X connect 115 0 117 0;
#X connect 116 0 526 0;
#X connect 117 0 116 0;
#X connect 118 0 315 0;
#X connect 119 0 315 0;
#X connect 120 0 316 0;
#X connect 121 0 316 0;
#X connect 122 0 123 0;
#X connect 123 0 126 0;
#X connect 124 0 123 0;
#X connect 125 0 511 0;
#X connect 126 0 125 0;
#X connect 127 0 129 0;
#X connect 128 0 141 0;
#X connect 129 0 128 0;
#X connect 130 0 127 0;
#X connect 132 0 133 0;
#X connect 133 0 134 0;
#X connect 134 0 117 1;
#X connect 135 0 133 0;
#X connect 136 0 130 0;
#X connect 137 0 140 0;
#X connect 138 0 140 0;
#X connect 139 0 138 0;
#X connect 141 0 112 0;
#X connect 141 0 139 0;
#X connect 141 0 143 0;
#X connect 141 0 508 0;
#X connect 142 0 141 0;
#X connect 143 0 137 0;
#X connect 144 0 346 0;
#X connect 144 1 99 0;
#X connect 145 0 81 0;
#X connect 145 1 85 0;
#X connect 146 0 147 1;
#X connect 147 0 93 0;
#X connect 148 0 146 0;
#X connect 149 0 146 0;
#X connect 150 0 92 1;
#X connect 151 0 10 0;
#X connect 152 0 151 0;
#X connect 153 0 21 0;
#X connect 154 0 11 1;
#X connect 155 0 154 0;
#X connect 156 0 154 0;
#X connect 158 0 203 0;
#X connect 158 0 208 0;
#X connect 159 0 208 0;
#X connect 160 0 158 0;
#X connect 160 1 349 0;
#X connect 160 1 352 0;
#X connect 161 0 207 0;
#X connect 163 0 182 0;
#X connect 165 0 176 0;
#X connect 165 0 188 1;
#X connect 165 0 168 0;
#X connect 166 0 165 0;
#X connect 167 0 168 1;
#X connect 168 0 163 0;
#X connect 169 0 176 1;
#X connect 170 0 171 0;
#X connect 171 0 191 0;
#X connect 171 0 202 0;
#X connect 172 0 171 1;
#X connect 173 0 174 0;
#X connect 173 1 175 0;
#X connect 174 0 172 0;
#X connect 175 0 172 0;
#X connect 176 0 173 0;
#X connect 177 0 178 1;
#X connect 178 0 164 0;
#X connect 179 0 181 0;
#X connect 180 0 177 0;
#X connect 181 0 177 0;
#X connect 182 0 199 0;
#X connect 182 0 180 0 32.................e....XB...vG....l....zC....;
#X connect 182 1 200 0;
#X connect 183 0 184 0;
#X connect 184 0 161 0;
#X connect 185 0 189 0;
#X connect 186 0 187 0;
#X connect 187 0 188 0;
#X connect 188 0 185 0;
#X connect 189 0 160 0;
#X connect 190 0 166 0;
#X connect 192 0 193 0;
#X connect 193 0 194 0;
#X connect 194 0 196 0;
#X connect 195 0 161 0;
#X connect 196 0 195 1;
#X connect 198 0 182 0;
#X connect 199 0 345 0;
#X connect 199 1 195 0;
#X connect 200 0 179 0;
#X connect 200 1 183 0;
#X connect 201 0 202 1;
#X connect 202 0 208 0;
#X connect 203 0 201 0;
#X connect 204 0 201 0;
#X connect 205 0 207 1;
#X connect 206 0 68 0;
#X connect 207 0 178 0;
#X connect 209 0 84 0;
#X connect 210 0 193 0;
#X connect 212 0 255 0;
#X connect 212 0 259 0;
#X connect 213 0 259 0;
#X connect 214 0 212 0;
#X connect 214 1 353 0;
#X connect 214 1 354 0;
#X connect 215 0 258 0;
#X connect 217 0 236 0;
#X connect 219 0 230 0;
#X connect 219 0 242 1;
#X connect 219 0 222 0;
#X connect 220 0 219 0;
#X connect 221 0 222 1;
#X connect 222 0 217 0;
#X connect 223 0 230 1;
#X connect 224 0 225 0;
#X connect 225 0 244 0;
#X connect 225 0 254 0;
#X connect 226 0 225 1;
#X connect 227 0 228 0;
#X connect 227 1 229 0;
#X connect 228 0 226 0;
#X connect 229 0 226 0;
#X connect 230 0 227 0;
#X connect 231 0 232 1;
#X connect 232 0 218 0;
#X connect 233 0 235 0;
#X connect 234 0 231 0;
#X connect 235 0 231 0;
#X connect 236 0 251 0;
#X connect 236 0 234 0 32.................e....XB...vG....l....zC....;
#X connect 236 1 252 0;
#X connect 237 0 238 0;
#X connect 238 0 215 0;
#X connect 239 0 243 0;
#X connect 240 0 241 0;
#X connect 241 0 242 0;
#X connect 242 0 239 0;
#X connect 243 0 214 0;
#X connect 245 0 246 0;
#X connect 246 0 247 0;
#X connect 247 0 249 0;
#X connect 248 0 215 0;
#X connect 249 0 248 1;
#X connect 251 0 347 0;
#X connect 251 1 248 0;
#X connect 252 0 233 0;
#X connect 252 1 237 0;
#X connect 253 0 254 1;
#X connect 254 0 259 0;
#X connect 255 0 253 0;
#X connect 256 0 253 0;
#X connect 257 0 258 1;
#X connect 258 0 232 0;
#X connect 260 0 236 0;
#X connect 262 0 305 0;
#X connect 262 0 309 0;
#X connect 263 0 309 0;
#X connect 264 0 262 0;
#X connect 264 1 355 0;
#X connect 264 1 356 0;
#X connect 265 0 310 0;
#X connect 267 0 286 0;
#X connect 269 0 280 0;
#X connect 269 0 292 1;
#X connect 269 0 272 0;
#X connect 270 0 269 0;
#X connect 271 0 272 1;
#X connect 272 0 267 0;
#X connect 273 0 280 1;
#X connect 274 0 275 0;
#X connect 275 0 294 0;
#X connect 275 0 304 0;
#X connect 276 0 275 1;
#X connect 277 0 278 0;
#X connect 277 1 279 0;
#X connect 278 0 276 0;
#X connect 279 0 276 0;
#X connect 280 0 277 0;
#X connect 281 0 282 1;
#X connect 282 0 268 0;
#X connect 283 0 285 0;
#X connect 284 0 281 0;
#X connect 285 0 281 0;
#X connect 286 0 301 0;
#X connect 286 0 284 0 32.................e....XB...vG....l....zC....;
#X connect 286 1 302 0;
#X connect 287 0 288 0;
#X connect 288 0 265 0;
#X connect 289 0 293 0;
#X connect 290 0 291 0;
#X connect 291 0 292 0;
#X connect 292 0 289 0;
#X connect 293 0 264 0;
#X connect 295 0 296 0;
#X connect 296 0 297 0;
#X connect 297 0 299 0;
#X connect 298 0 265 0;
#X connect 299 0 298 1;
#X connect 301 0 348 0;
#X connect 301 1 298 0;
#X connect 302 0 283 0;
#X connect 302 1 287 0;
#X connect 303 0 304 1;
#X connect 304 0 309 0;
#X connect 305 0 303 0;
#X connect 306 0 303 0;
#X connect 307 0 310 1;
#X connect 308 0 286 0;
#X connect 310 0 282 0;
#X connect 311 0 270 0;
#X connect 312 0 220 0;
#X connect 317 0 320 1;
#X connect 318 0 321 0;
#X connect 318 0 322 0;
#X connect 319 0 317 0;
#X connect 320 0 1 1;
#X connect 321 0 317 0;
#X connect 322 0 319 0;
#X connect 323 0 246 0;
#X connect 324 0 296 0;
#X connect 325 0 330 0;
#X connect 326 0 329 0;
#X connect 327 0 325 0;
#X connect 328 0 326 0;
#X connect 329 0 373 0;
#X connect 330 0 373 0;
#X connect 331 0 328 1;
#X connect 331 0 327 1;
#X connect 332 0 331 0;
#X connect 332 1 333 0;
#X connect 333 0 328 1;
#X connect 333 0 327 1;
#X connect 334 0 342 0;
#X connect 334 0 374 0;
#X connect 336 0 372 0;
#X connect 337 0 335 0;
#X connect 338 0 328 0;
#X connect 339 0 327 0;
#X connect 340 0 343 0;
#X connect 341 0 344 0;
#X connect 342 0 337 0;
#X connect 342 1 337 0;
#X connect 343 0 338 0;
#X connect 344 0 339 0;
#X connect 345 0 195 0;
#X connect 346 0 99 0;
#X connect 347 0 248 0;
#X connect 348 0 298 0;
#X connect 349 0 204 0;
#X connect 350 0 61 0;
#X connect 351 0 149 0;
#X connect 352 0 159 0;
#X connect 353 0 213 0;
#X connect 354 0 256 0;
#X connect 355 0 263 0;
#X connect 356 0 306 0;
#X connect 357 0 109 0;
#X connect 358 0 111 0;
#X connect 359 0 119 0;
#X connect 360 0 121 0;
#X connect 361 0 339 0;
#X connect 362 0 361 0;
#X connect 363 0 362 0;
#X connect 364 0 338 0;
#X connect 365 0 364 0;
#X connect 366 0 365 0;
#X connect 367 0 332 0;
#X connect 368 0 367 0;
#X connect 369 0 368 0;
#X connect 371 0 360 1;
#X connect 371 0 359 1;
#X connect 371 0 358 1;
#X connect 371 0 357 1;
#X connect 372 0 370 0;
#X connect 373 0 325 1;
#X connect 373 0 326 1;
#X connect 373 0 334 0;
#X connect 374 0 370 0;
#X connect 375 0 393 0;
#X connect 376 0 395 0;
#X connect 377 0 378 0;
#X connect 378 0 394 0;
#X connect 379 0 377 0;
#X connect 379 1 377 1;
#X connect 380 0 377 0;
#X connect 380 0 375 0;
#X connect 381 0 379 0;
#X connect 381 0 376 0;
#X connect 384 0 396 0;
#X connect 385 0 398 0;
#X connect 386 0 387 0;
#X connect 387 0 397 0;
#X connect 388 0 386 0;
#X connect 388 1 386 1;
#X connect 389 0 386 0;
#X connect 389 0 384 0;
#X connect 390 0 388 0;
#X connect 390 0 385 0;
#X connect 393 0 527 0;
#X connect 394 0 400 0;
#X connect 395 0 528 0;
#X connect 396 0 529 0;
#X connect 397 0 530 0;
#X connect 398 0 531 0;
#X connect 399 0 510 1;
#X connect 400 0 391 0;
#X connect 401 0 104 0;
#X connect 401 1 105 0;
#X connect 401 2 106 0;
#X connect 401 3 107 0;
#X connect 401 4 104 0;
#X connect 401 5 105 0;
#X connect 401 6 106 0;
#X connect 401 7 107 0;
#X connect 401 8 104 0;
#X connect 401 9 105 0;
#X connect 401 10 106 0;
#X connect 401 11 107 0;
#X connect 401 12 104 0;
#X connect 401 13 105 0;
#X connect 401 14 106 0;
#X connect 401 15 107 0;
#X connect 402 0 407 0;
#X connect 403 0 406 0;
#X connect 404 0 402 0;
#X connect 405 0 403 0;
#X connect 406 0 474 0;
#X connect 407 0 474 0;
#X connect 408 0 405 1;
#X connect 408 0 404 1;
#X connect 409 0 408 0;
#X connect 409 1 410 0;
#X connect 410 0 405 1;
#X connect 410 0 404 1;
#X connect 411 0 409 0;
#X connect 412 0 414 0;
#X connect 412 0 473 0;
#X connect 415 0 416 0;
#X connect 416 0 414 0;
#X connect 417 0 413 0;
#X connect 418 0 405 0;
#X connect 419 0 404 0;
#X connect 420 0 483 0;
#X connect 421 0 484 0;
#X connect 422 0 423 0;
#X connect 423 0 424 0;
#X connect 424 0 429 0;
#X connect 424 1 425 0;
#X connect 424 2 426 0;
#X connect 425 0 430 0;
#X connect 426 0 431 0;
#X connect 429 0 447 0;
#X connect 430 0 433 0;
#X connect 431 0 433 0;
#X connect 431 0 437 0;
#X connect 431 0 482 0;
#X connect 433 0 447 1;
#X connect 434 0 437 1;
#X connect 435 0 436 0;
#X connect 436 0 455 0;
#X connect 437 0 434 0;
#X connect 437 0 451 0;
#X connect 437 0 452 0;
#X connect 437 0 453 0;
#X connect 437 0 450 0;
#X connect 437 0 471 0;
#X connect 437 0 477 0;
#X connect 437 0 488 0;
#X connect 438 0 439 0;
#X connect 439 0 456 0;
#X connect 440 0 441 0;
#X connect 441 0 457 0;
#X connect 442 0 506 0;
#X connect 443 0 506 0;
#X connect 444 0 506 0;
#X connect 445 0 506 0;
#X connect 446 0 506 0;
#X connect 447 0 437 0;
#X connect 448 0 493 0;
#X connect 449 0 468 0;
#X connect 450 0 449 0;
#X connect 451 0 435 0;
#X connect 452 0 438 0;
#X connect 453 0 440 0;
#X connect 454 0 445 0;
#X connect 455 0 446 0;
#X connect 456 0 479 0;
#X connect 457 0 490 0;
#X connect 458 0 442 1;
#X connect 459 0 443 1;
#X connect 459 0 444 1;
#X connect 459 0 445 1;
#X connect 459 0 446 1;
#X connect 460 0 443 1;
#X connect 461 0 442 1;
#X connect 461 0 446 1;
#X connect 461 0 444 1;
#X connect 461 0 445 1;
#X connect 461 0 479 1;
#X connect 461 0 490 1;
#X connect 462 0 444 1;
#X connect 463 0 443 1;
#X connect 463 0 445 1;
#X connect 463 0 446 1;
#X connect 463 0 442 1;
#X connect 463 0 479 1;
#X connect 463 0 490 1;
#X connect 464 0 445 1;
#X connect 465 0 446 1;
#X connect 465 0 444 1;
#X connect 465 0 443 1;
#X connect 465 0 442 1;
#X connect 465 0 479 1;
#X connect 465 0 490 1;
#X connect 466 0 446 1;
#X connect 467 0 445 1;
#X connect 467 0 444 1;
#X connect 467 0 443 1;
#X connect 467 0 442 1;
#X connect 467 0 479 1;
#X connect 467 0 490 1;
#X connect 468 0 454 0;
#X connect 469 0 470 0;
#X connect 470 0 472 0;
#X connect 471 0 469 0;
#X connect 472 0 444 0;
#X connect 473 0 417 0;
#X connect 473 1 417 0;
#X connect 474 0 402 1;
#X connect 474 0 403 1;
#X connect 474 0 412 0;
#X connect 475 0 476 0;
#X connect 476 0 478 0;
#X connect 477 0 475 0;
#X connect 478 0 443 0;
#X connect 479 0 506 0;
#X connect 480 0 479 1;
#X connect 481 0 446 1;
#X connect 481 0 445 1;
#X connect 481 0 444 1;
#X connect 481 0 443 1;
#X connect 481 0 442 1;
#X connect 481 0 490 1;
#X connect 483 0 418 0;
#X connect 484 0 419 0;
#X connect 485 0 437 0;
#X connect 486 0 487 0;
#X connect 487 0 489 0;
#X connect 488 0 486 0;
#X connect 489 0 442 0;
#X connect 490 0 506 0;
#X connect 491 0 490 1;
#X connect 492 0 479 1;
#X connect 492 0 446 1;
#X connect 492 0 445 1;
#X connect 492 0 444 1;
#X connect 492 0 443 1;
#X connect 492 0 442 1;
#X connect 493 0 458 0;
#X connect 493 0 459 0;
#X connect 493 1 460 0;
#X connect 493 1 461 0;
#X connect 493 2 462 0;
#X connect 493 2 463 0;
#X connect 493 3 464 0;
#X connect 493 3 465 0;
#X connect 493 4 466 0;
#X connect 493 4 467 0;
#X connect 493 5 480 0;
#X connect 493 5 481 0;
#X connect 493 6 491 0;
#X connect 493 6 492 0;
#X connect 494 0 419 0;
#X connect 495 0 494 0;
#X connect 496 0 418 0;
#X connect 497 0 496 0;
#X connect 498 0 409 0;
#X connect 499 0 498 0;
#X connect 500 0 499 0;
#X connect 504 0 495 0;
#X connect 505 0 497 0;
#X connect 507 0 508 0;
#X connect 508 0 519 0;
#X connect 508 0 518 0;
#X connect 508 0 526 0;
#X connect 509 0 112 0;
#X connect 510 0 114 0;
#X connect 511 0 512 0;
#X connect 512 1 514 0;
#X connect 513 0 515 0;
#X connect 514 0 141 1;
#X connect 515 0 514 1;
#X connect 515 1 514 0;
#X connect 517 0 516 0;
#X connect 518 0 516 0;
#X connect 519 0 517 0;
#X connect 520 0 526 1;
#X connect 521 0 35 0;
#X connect 521 0 42 0;
#X connect 523 0 521 0;
#X connect 524 0 10 1;
#X connect 525 0 7 0;
#X connect 526 0 401 0;
#X connect 527 0 391 0;
#X connect 528 0 391 0;
#X connect 529 0 383 0;
#X connect 530 0 383 0;
#X connect 531 0 383 0;
#X connect 532 0 534 0;
#X connect 533 0 164 0;
#X connect 534 0 533 0;
