#N canvas 827 239 734 565 12;
#X obj 995 1148 cnv 15 518 648 empty empty Volume\ out 20 12 0 14 #626262 #ffffff 0;
#X obj 267 23 cnv 15 894 222 empty empty knobs 20 12 0 14 #626262 #ffffff 0;
#X obj 1008 1733 dac~;
#X obj 1372 1222 hsl 128 17 0 1 0 0 empty empty empty -2 -8 0 10 #191919 #e1e1e1 #e1e1e1 0 1;
#X obj 1463 1293 line~;
#X msg 1352 1255 \$1 10;
#X obj 1352 1347 *~;
#X obj 1286 1293 line~;
#X obj 1174 1347 *~;
#X obj 1036 1222 hsl 128 17 0 1 0 0 empty empty empty -2 -8 0 10 #191919 #e1e1e1 #e1e1e1 0 1;
#X obj 1113 1293 line~;
#X msg 1011 1255 \$1 10;
#X obj 1011 1347 *~;
#X obj 1013 1433 clip~ -0.95 0.95;
#X obj 1352 1433 clip~ -0.95 0.95;
#X obj 1013 1380 *~ 0.5;
#X obj 1174 1380 *~ 0.5;
#X obj 1013 1408 +~;
#X obj 1013 1483 +~;
#X obj 1088 1509 hsl 128 17 0 1 0 0 empty empty empty -2 -8 0 10 #191919 #e1e1e1 #e1e1e1 0 1;
#X obj 1085 1564 line~;
#X msg 1085 1536 \$1 10;
#X obj 1085 1482 r knob5 @hv_param;
#X obj 87 1153 cnv 15 429 464 empty empty NOTE\ FREQUENCIES\ -\ F-MINOR 20 12 0 14 #626262 #ffffff 0;
#X msg 97 1377 \$1 20, f 9;
#X msg 307 1378 \$1 20, f 9;
#X obj 97 1342 change;
#X obj 307 1342 change;
#X obj 233 1299 ==;
#X obj 233 1342 change;
#X obj 233 1262 t b f;
#X msg 233 1378 \$1 20, f 9;
#X obj 97 1413 line~;
#X obj 233 1413 line~;
#X obj 307 1413 line~;
#X obj 233 1453 *~ 2;
#X obj 97 1214 r toggle2down_press @hv_param;
#X obj 307 1214 r toggle2up_press @hv_param;
#X text 109 1180 Octave switcher by division:, f 37;
#X obj 325 1462 random 1000;
#X obj 325 1491 * 0.001;
#X obj 424 1444 bng 25 250 50 0 empty empty empty 17 7 0 10 #191919 #ffffff #ffffff;
#X obj 383 1491 random 2;
#X obj 325 1517 +;
#X obj 145 1479 *~;
#X obj 1008 1691 clip~ -0.5 0.5;
#X obj 1008 1649 hv.lop~;
#X obj 1008 1616 hv.lop~;
#X obj 267 269 cnv 15 897 866 empty empty TOUCHPADS\ NOTES 20 12 0 14 #626262 #ffffff 0;
#X obj 283 648 r mpr121_driver_ch3 @hv_param;
#X obj 498 648 r mpr121_driver_ch4 @hv_param;
#X obj 722 648 r mpr121_driver_ch5 @hv_param;
#X obj 939 648 r mpr121_driver_ch6 @hv_param;
#X obj 283 893 r mpr121_driver_ch7 @hv_param;
#X obj 500 893 r mpr121_driver_ch8 @hv_param;
#X obj 724 893 r mpr121_driver_ch9 @hv_param;
#X obj 294 331 notein;
#X text 294 296 midi input, f 19;
#X obj 294 508 route 1 2 3 4 5 6 7 8;
#X text 370 330 touchpad notes input, f 19;
#X obj 294 374 pack f f;
#X obj 1011 1293 catch~ \$0-osc1;
#X obj 1174 1293 catch~ \$0-osc2;
#X obj 1352 1293 catch~ \$0-osc3;
#X obj 370 374 r touchnote;
#X obj 203 1577 s~ pitchmult;
#X obj 1085 1591 *~ 3000;
#X obj 534 1152 cnv 15 447 542 empty empty osc\ carrier\ modulator\ halving 20 12 0 14 #626262 #ffffff 0;
#X msg 564 1377 \$1 20, f 9;
#X msg 774 1378 \$1 20, f 9;
#X obj 564 1342 change;
#X obj 774 1342 change;
#X obj 700 1299 ==;
#X obj 700 1342 change;
#X obj 700 1262 t b f;
#X msg 700 1378 \$1 20, f 9;
#X obj 564 1413 line~;
#X obj 700 1413 line~;
#X obj 774 1413 line~;
#X obj 792 1462 random 1000;
#X obj 792 1491 * 0.001;
#X obj 891 1444 bng 25 250 50 0 empty empty empty 17 7 0 10 #191919 #ffffff #ffffff;
#X obj 850 1491 random 2;
#X obj 792 1517 +;
#X obj 612 1479 *~;
#X text 576 1180 switcher by division:, f 37;
#X obj 700 1453 *~ 0.5;
#X obj 543 1516 hv.osc~ saw;
#X obj 576 1577 hv.osc~ sine;
#X obj 543 1624 *~;
#X obj 576 1546 *~ 1.33;
#X obj 564 1214 r toggle1left_press @hv_param;
#X obj 774 1214 r toggle1right_press @hv_param;
#X obj 700 1667 s~ carmult;
#X obj 498 717 change;
#X obj 498 741 sel 0 1;
#X obj 498 865 s touchnote;
#X msg 555 799 99;
#X msg 533 799 0;
#X msg 498 799 55;
#X obj 1177 269 cnv 15 394 584 empty empty latching\ double\ function\ faders 20 12 0 14 #626262 #ffffff 0;
#X obj 1354 428 i;
#X obj 1401 428 + 1;
#X obj 1354 460 % 2;
#X obj 1194 302 r faderleft @hv_param;
#X obj 1195 496 latch 0, f 9;
#X obj 1275 496 latch 1, f 8;
#X obj 1195 528 s faderleftlatch0;
#X obj 1354 331 change;
#X obj 1354 359 sel 1;
#X obj 1354 386 tgl 25 0 empty empty empty 17 7 0 10 #191919 #e1e1e1 #e1e1e1 0 1;
#X obj 1358 705 i;
#X obj 1405 705 + 1;
#X obj 1358 737 % 2;
#X obj 1358 608 change;
#X obj 1358 636 sel 1;
#X obj 1358 663 tgl 25 0 empty empty empty 17 7 0 10 #191919 #e1e1e1 #e1e1e1 0 1;
#X obj 1198 579 r faderright @hv_param;
#X obj 1199 811 s faderrightlatch0;
#X obj 1320 811 s faderrightlatch1;
#X obj 1199 773 latch 0, f 9;
#X obj 1279 773 latch 1, f 8;
#X obj 1313 528 s faderleftlatch1;
#X obj 1011 1182 r faderleftlatch0;
#X obj 1352 1182 r faderrightlatch0;
#X obj 1354 300 r mpr121_driver_ch0 @hv_param;
#X obj 1358 577 r mpr121_driver_ch2 @hv_param;
#X obj 294 407 unpack f f;
#X obj 294 468 pack f f f;
#X obj 603 360 r faderleftlatch1;
#X obj 775 360 r faderrightlatch1;
#X obj 1217 1182 loadbang;
#X msg 1217 1214 0.5;
#X obj 498 828 pack f f;
#X obj 283 748 sel 0 1;
#X obj 283 865 s touchnote;
#X msg 340 806 99;
#X msg 318 806 0;
#X obj 283 835 pack f f;
#X msg 283 806 53;
#X obj 283 719 change;
#X obj 722 719 change;
#X obj 722 743 sel 0 1;
#X obj 722 860 s touchnote;
#X msg 779 801 99;
#X msg 757 801 0;
#X obj 722 830 pack f f;
#X msg 722 801 56;
#X obj 939 719 change;
#X obj 939 743 sel 0 1;
#X obj 939 860 s touchnote;
#X msg 996 801 99;
#X msg 974 801 0;
#X obj 939 830 pack f f;
#X msg 939 801 58;
#X obj 283 988 sel 0 1;
#X obj 283 1105 s touchnote;
#X msg 340 1046 99;
#X msg 318 1046 0;
#X obj 283 1075 pack f f;
#X obj 283 959 change;
#X msg 283 1046 60;
#X obj 500 988 sel 0 1;
#X obj 500 1105 s touchnote;
#X msg 557 1046 99;
#X msg 535 1046 0;
#X obj 500 1075 pack f f;
#X obj 500 959 change;
#X msg 500 1046 61;
#X obj 724 988 sel 0 1;
#X obj 724 1105 s touchnote;
#X msg 781 1046 99;
#X msg 759 1046 0;
#X obj 724 1075 pack f f;
#X obj 724 959 change;
#X msg 724 1046 63;
#X obj 603 418 line~;
#X msg 603 393 \$1 10;
#X obj 603 448 *~ 3000;
#X obj 603 491 snapshot~;
#X obj 603 526 change;
#X msg 673 526 5;
#X obj 775 418 line~;
#X msg 775 393 \$1 10;
#X obj 775 448 *~ 3000;
#X obj 775 491 snapshot~;
#X obj 693 429 metro 10;
#X obj 693 401 loadbang, f 9;
#X obj 775 526 change;
#X text 608 337 attack;
#X text 775 337 decay;
#X msg 845 526 200;
#X obj 603 585 s attack;
#X obj 775 585 s decay;
#X obj 1237 1562 adc~ 1;
#X obj 498 679 tgl 25 0 empty empty empty 17 7 0 10 #191919 #ffffff #ffffff 0 1;
#X obj 336 775 t b b;
#X obj 283 775 t b b;
#X obj 498 768 t b b;
#X obj 551 768 t b b;
#X obj 283 679 tgl 25 0 empty empty empty 17 7 0 10 #191919 #ffffff #ffffff 0 1;
#X obj 722 679 tgl 25 0 empty empty empty 17 7 0 10 #191919 #ffffff #ffffff 0 1;
#X obj 722 768 t b b;
#X obj 775 768 t b b;
#X obj 939 768 t b b;
#X obj 992 768 t b b;
#X obj 336 1016 t b b;
#X obj 283 1016 t b b;
#X obj 553 1016 t b b;
#X obj 500 1016 t b b;
#X obj 777 1016 t b b;
#X obj 724 1016 t b b;
#X obj 939 679 tgl 25 0 empty empty empty 17 7 0 10 #191919 #ffffff #ffffff 0 1;
#X obj 283 923 tgl 25 0 empty empty empty 17 7 0 10 #191919 #ffffff #ffffff 0 1;
#X obj 500 923 tgl 25 0 empty empty empty 17 7 0 10 #191919 #ffffff #ffffff 0 1;
#X obj 724 923 tgl 25 0 empty empty empty 17 7 0 10 #191919 #ffffff #ffffff 0 1;
#X obj 294 441 poly 2 1;
#N canvas 733 172 450 300 simplesynth 1;
#X obj 28 115 clip~ -0.95 0.95;
#X obj 17 -82 sig~;
#X obj 28 163 *~;
#X obj 28 210 throw~ \$0-osc1;
#X obj 17 -146 mtof;
#X obj 63 -277 sel 0;
#X obj 63 -310 moses 0.01;
#X obj 116 -146 line~;
#X obj 116 -277 / 127;
#X obj 116 -218 pack;
#X msg 116 -185 \$1 \$2;
#X obj 184 -220 pack;
#X msg 184 -187 \$1 \$2;
#X msg 65 -244 0;
#X obj 131 -244 r attack;
#X obj 199 -246 r decay;
#X obj 17 -375 inlet;
#X obj 17 -341 unpack f f;
#X obj 17 53 osc~;
#X obj 40 -45 r~ pitchmult;
#X obj 171 -45 r~ carmult;
#X obj 17 -6 *~;
#X obj 139 -1 *~;
#X connect 0 0 2 0;
#X connect 1 0 21 0;
#X connect 2 0 3 0;
#X connect 4 0 1 0;
#X connect 5 0 13 0;
#X connect 6 0 5 0;
#X connect 6 1 8 0;
#X connect 7 0 2 1;
#X connect 8 0 9 0;
#X connect 9 0 10 0;
#X connect 10 0 7 0;
#X connect 11 0 12 0;
#X connect 12 0 7 0;
#X connect 13 0 11 0;
#X connect 14 0 9 1;
#X connect 15 0 11 1;
#X connect 16 0 17 0;
#X connect 17 0 4 0;
#X connect 17 1 6 0;
#X connect 18 0 0 0;
#X connect 19 0 21 1;
#X connect 20 0 22 1;
#X connect 21 0 22 0;
#X connect 22 0 18 0;
#X restore 294 535 pd simplesynth;
#X connect 3 0 5 0;
#X connect 4 0 6 1;
#X connect 5 0 4 0;
#X connect 6 0 14 0;
#X connect 7 0 8 1;
#X connect 8 0 16 0;
#X connect 9 0 11 0;
#X connect 10 0 12 1;
#X connect 11 0 10 0;
#X connect 11 0 7 0;
#X connect 12 0 15 0;
#X connect 13 0 18 0;
#X connect 14 0 18 1;
#X connect 15 0 17 0;
#X connect 16 0 17 1;
#X connect 17 0 13 0;
#X connect 18 0 47 0;
#X connect 19 0 21 0;
#X connect 20 0 66 0;
#X connect 21 0 20 0;
#X connect 22 0 21 0;
#X connect 24 0 32 0;
#X connect 24 0 41 0;
#X connect 25 0 34 0;
#X connect 26 0 24 0;
#X connect 27 0 25 0;
#X connect 28 0 29 0;
#X connect 29 0 31 0;
#X connect 30 0 28 0;
#X connect 30 1 28 1;
#X connect 31 0 33 0;
#X connect 32 0 44 0;
#X connect 33 0 35 0;
#X connect 34 0 65 0;
#X connect 35 0 65 0;
#X connect 36 0 28 0;
#X connect 36 0 26 0;
#X connect 37 0 30 0;
#X connect 37 0 27 0;
#X connect 39 0 40 0;
#X connect 40 0 43 0;
#X connect 41 0 39 0;
#X connect 41 0 42 0;
#X connect 42 0 43 1;
#X connect 43 0 44 1;
#X connect 44 0 65 0;
#X connect 45 0 2 0;
#X connect 45 0 2 1;
#X connect 46 0 45 0;
#X connect 47 0 46 0;
#X connect 49 0 200 0;
#X connect 50 0 195 0;
#X connect 51 0 201 0;
#X connect 52 0 212 0;
#X connect 53 0 213 0;
#X connect 54 0 214 0;
#X connect 55 0 215 0;
#X connect 56 0 60 0;
#X connect 56 1 60 1;
#X connect 58 0 217 0;
#X connect 60 0 127 0;
#X connect 61 0 12 0;
#X connect 62 0 8 0;
#X connect 63 0 6 0;
#X connect 64 0 127 0;
#X connect 66 0 46 1;
#X connect 66 0 47 1;
#X connect 68 0 76 0;
#X connect 68 0 81 0;
#X connect 69 0 78 0;
#X connect 70 0 68 0;
#X connect 71 0 69 0;
#X connect 72 0 73 0;
#X connect 73 0 75 0;
#X connect 74 0 72 0;
#X connect 74 1 72 1;
#X connect 75 0 77 0;
#X connect 76 0 84 0;
#X connect 77 0 86 0;
#X connect 78 0 93 0;
#X connect 79 0 80 0;
#X connect 80 0 83 0;
#X connect 81 0 79 0;
#X connect 81 0 82 0;
#X connect 82 0 83 1;
#X connect 83 0 84 1;
#X connect 84 0 87 0;
#X connect 84 0 90 0;
#X connect 86 0 93 0;
#X connect 87 0 89 0;
#X connect 88 0 89 1;
#X connect 89 0 93 0;
#X connect 90 0 88 0;
#X connect 91 0 72 0;
#X connect 91 0 70 0;
#X connect 92 0 74 0;
#X connect 92 0 71 0;
#X connect 94 0 95 0;
#X connect 95 0 198 0;
#X connect 95 1 199 0;
#X connect 97 0 133 1;
#X connect 98 0 133 1;
#X connect 99 0 133 0;
#X connect 101 0 103 0;
#X connect 101 0 102 0;
#X connect 102 0 101 1;
#X connect 103 0 105 1;
#X connect 103 0 106 1;
#X connect 104 0 105 0;
#X connect 104 0 106 0;
#X connect 105 0 107 0;
#X connect 106 0 122 0;
#X connect 108 0 109 0;
#X connect 109 0 110 0;
#X connect 110 0 101 0;
#X connect 111 0 113 0;
#X connect 111 0 112 0;
#X connect 112 0 111 1;
#X connect 113 0 120 1;
#X connect 113 0 121 1;
#X connect 114 0 115 0;
#X connect 115 0 116 0;
#X connect 116 0 111 0;
#X connect 117 0 120 0;
#X connect 117 0 121 0;
#X connect 120 0 118 0;
#X connect 121 0 119 0;
#X connect 123 0 11 0;
#X connect 124 0 5 0;
#X connect 125 0 108 0;
#X connect 126 0 114 0;
#X connect 127 0 216 0;
#X connect 127 1 216 1;
#X connect 128 0 58 0;
#X connect 129 0 177 0;
#X connect 130 0 183 0;
#X connect 131 0 132 0;
#X connect 132 0 11 0;
#X connect 132 0 5 0;
#X connect 133 0 96 0;
#X connect 134 0 197 0;
#X connect 134 1 196 0;
#X connect 136 0 138 1;
#X connect 137 0 138 1;
#X connect 138 0 135 0;
#X connect 139 0 138 0;
#X connect 140 0 134 0;
#X connect 141 0 142 0;
#X connect 142 0 202 0;
#X connect 142 1 203 0;
#X connect 144 0 146 1;
#X connect 145 0 146 1;
#X connect 146 0 143 0;
#X connect 147 0 146 0;
#X connect 148 0 149 0;
#X connect 149 0 204 0;
#X connect 149 1 205 0;
#X connect 151 0 153 1;
#X connect 152 0 153 1;
#X connect 153 0 150 0;
#X connect 154 0 153 0;
#X connect 155 0 207 0;
#X connect 155 1 206 0;
#X connect 157 0 159 1;
#X connect 158 0 159 1;
#X connect 159 0 156 0;
#X connect 160 0 155 0;
#X connect 161 0 159 0;
#X connect 162 0 209 0;
#X connect 162 1 208 0;
#X connect 164 0 166 1;
#X connect 165 0 166 1;
#X connect 166 0 163 0;
#X connect 167 0 162 0;
#X connect 168 0 166 0;
#X connect 169 0 211 0;
#X connect 169 1 210 0;
#X connect 171 0 173 1;
#X connect 172 0 173 1;
#X connect 173 0 170 0;
#X connect 174 0 169 0;
#X connect 175 0 173 0;
#X connect 176 0 178 0;
#X connect 177 0 176 0;
#X connect 178 0 179 0;
#X connect 179 0 180 0;
#X connect 180 0 192 0;
#X connect 181 0 192 0;
#X connect 182 0 184 0;
#X connect 183 0 182 0;
#X connect 184 0 185 0;
#X connect 185 0 188 0;
#X connect 186 0 185 0;
#X connect 186 0 179 0;
#X connect 187 0 186 0;
#X connect 187 0 191 0;
#X connect 187 0 181 0;
#X connect 188 0 193 0;
#X connect 191 0 193 0;
#X connect 194 0 47 0;
#X connect 195 0 94 0;
#X connect 196 0 139 0;
#X connect 196 1 136 0;
#X connect 197 0 139 0;
#X connect 197 1 137 0;
#X connect 198 0 99 0;
#X connect 198 1 98 0;
#X connect 199 0 99 0;
#X connect 199 1 97 0;
#X connect 200 0 140 0;
#X connect 201 0 141 0;
#X connect 202 0 147 0;
#X connect 202 1 145 0;
#X connect 203 0 147 0;
#X connect 203 1 144 0;
#X connect 204 0 154 0;
#X connect 204 1 152 0;
#X connect 205 0 154 0;
#X connect 205 1 151 0;
#X connect 206 0 161 0;
#X connect 206 1 157 0;
#X connect 207 0 161 0;
#X connect 207 1 158 0;
#X connect 208 0 168 0;
#X connect 208 1 164 0;
#X connect 209 0 168 0;
#X connect 209 1 165 0;
#X connect 210 0 175 0;
#X connect 210 1 171 0;
#X connect 211 0 175 0;
#X connect 211 1 172 0;
#X connect 212 0 148 0;
#X connect 213 0 160 0;
#X connect 214 0 167 0;
#X connect 215 0 174 0;
#X connect 216 0 128 0;
#X connect 216 1 128 1;
#X connect 216 2 128 2;
