#N canvas 827 239 527 327 12;
#X obj 30 456 cnv 15 969 665 empty empty NOTE\ FREQUENCIES\ -\ F-MINOR 20 12 0 14 #626262 #ffffff 0;
#X obj 1981 23 cnv 15 550 708 empty empty latching\ double\ function\ faders 20 12 0 14 #626262 #ffffff 0;
#X obj 1978 742 cnv 15 553 773 empty empty End\ of\ Chain\ /\ Volume 20 12 0 14 #626262 #ffffff 0;
#X obj 1007 742 cnv 15 957 773 empty empty FX\ block\ -\ AUX\ input 20 12 0 14 #626262 #ffffff 0;
#X obj 1009 23 cnv 15 955 708 empty empty HV.OSC\ 2x\ SQUARE\ 1\ SAW\ -\ Slightly\ detuned 20 12 0 14 #626262 #ffffff 0;
#X obj 1028 953 *~;
#X obj 1388 224 hsl 128 17 0 1 0 0 empty empty empty -2 -8 0 10 #191919 #e1e1e1 #e1e1e1 0 1;
#X obj 1359 178 line~;
#X obj 1431 452 snapshot~;
#X obj 1431 392 loadbang;
#X obj 1503 386 bng 25 250 50 0 empty empty empty 17 7 0 10 #191919 #e1e1e1 #e1e1e1;
#X obj 1359 364 *~;
#X msg 1359 150 \$1 200;
#X obj 1377 95 hsl 128 17 0 1 0 0 empty empty empty -2 -8 0 10 #191919 #e1e1e1 #e1e1e1 0 1;
#X msg 1370 276 \$1 200;
#X obj 1370 304 line~;
#X obj 1431 421 metro 20;
#X obj 1359 391 +~ 1;
#X obj 1359 425 *~ 0.5;
#X obj 1431 487 f;
#X obj 1359 333 hv.osc~ sine;
#X obj 1354 587 hv.osc~ square;
#X obj 1062 230 hsl 128 17 0 1 0 0 empty empty empty -2 -8 0 10 #191919 #e1e1e1 #e1e1e1 0 1;
#X obj 1033 178 line~;
#X obj 1105 458 snapshot~;
#X obj 1105 398 loadbang;
#X obj 1177 392 bng 25 250 50 0 empty empty empty 17 7 0 10 #191919 #e1e1e1 #e1e1e1;
#X obj 1033 370 *~;
#X msg 1033 150 \$1 200;
#X obj 1051 95 hsl 128 17 0 1 0 0 empty empty empty -2 -8 0 10 #191919 #e1e1e1 #e1e1e1 0 1;
#X msg 1044 282 \$1 200;
#X obj 1044 310 line~;
#X obj 1105 427 metro 20;
#X obj 1033 397 +~ 1;
#X obj 1033 431 *~ 0.5;
#X obj 1105 493 f;
#X obj 1033 339 hv.osc~ sine;
#X obj 1028 587 hv.osc~ square;
#X obj 30 23 cnv 15 969 423 empty empty TOUCHPADS\ NOTES 20 12 0 14 #626262 #ffffff 0;
#X msg 157 540 174.61;
#X msg 216 540 196;
#X msg 265 540 207.65;
#X msg 334 540 233.08;
#X msg 405 540 261.63;
#X msg 475 540 277.18;
#X msg 540 540 311.18;
#X msg 607 540 349.23;
#X text 244 604 174.61 \, 196 \, 207.65 \, 233.08 \, 261.63 \, 277.18 \, 311.13 \, 349.23 } // F minor F3 \, G3 \, G#3 \, A#3 \, C4 \, C#4 \, D#4 \, F4;
#X obj 101 89 change;
#X obj 101 184 line~;
#X obj 101 126 sel 0 1;
#X msg 101 154 0 500;
#X msg 152 154 1 10;
#X obj 101 63 r mpr121_driver_ch3 @hv_param;
#X obj 313 89 change;
#X obj 313 184 line~;
#X obj 313 126 sel 0 1;
#X msg 313 154 0 500;
#X msg 364 154 1 10;
#X obj 313 63 r mpr121_driver_ch4 @hv_param;
#X obj 531 89 change;
#X obj 531 184 line~;
#X obj 531 126 sel 0 1;
#X msg 531 154 0 500;
#X msg 582 154 1 10;
#X obj 531 63 r mpr121_driver_ch5 @hv_param;
#X obj 746 89 change;
#X obj 746 184 line~;
#X obj 746 126 sel 0 1;
#X msg 746 154 0 500;
#X msg 797 154 1 10;
#X obj 746 63 r mpr121_driver_ch6 @hv_param;
#X obj 101 279 change;
#X obj 101 374 line~;
#X obj 101 316 sel 0 1;
#X msg 101 344 0 500;
#X msg 152 344 1 10;
#X obj 313 279 change;
#X obj 313 374 line~;
#X obj 313 316 sel 0 1;
#X msg 313 344 0 500;
#X msg 364 344 1 10;
#X obj 531 279 change;
#X obj 531 374 line~;
#X obj 531 316 sel 0 1;
#X msg 531 344 0 500;
#X msg 582 344 1 10;
#X obj 101 253 r mpr121_driver_ch7 @hv_param;
#X obj 313 253 r mpr121_driver_ch8 @hv_param;
#X obj 531 253 r mpr121_driver_ch9 @hv_param;
#X obj 707 543 clip~ 0 1;
#X obj 707 594 s~ vol;
#X obj 1028 697 throw~ \$0-mix;
#X obj 1354 697 throw~ \$0-mix;
#X obj 1028 807 catch~ \$0-mix;
#X obj 1028 641 *~;
#X obj 1354 641 *~;
#X obj 1515 552 hsl 128 17 0 1 0 0 empty empty empty -2 -8 0 10 #191919 #e1e1e1 #e1e1e1 0 1;
#X msg 1497 602 \$1 200;
#X obj 1497 628 line~;
#X obj 1175 552 hsl 128 17 0 1 0 0 empty empty empty -2 -8 0 10 #191919 #e1e1e1 #e1e1e1 0 1;
#X msg 1157 602 \$1 200;
#X obj 1157 628 line~;
#X obj 1157 574 r knob0 @hv_param;
#X obj 1044 253 r knob1 @hv_param;
#X obj 1033 121 r knob2 @hv_param;
#X obj 1497 574 r knob5 @hv_param;
#X obj 1370 247 r knob3 @hv_param;
#X obj 1359 121 r knob4 @hv_param;
#X obj 1039 903 r~ vol;
#X obj 1665 691 throw~ \$0-mix;
#X obj 1665 635 *~;
#X obj 1665 581 hv.osc~ saw;
#X obj 1809 266 hsl 128 17 0 1 0 0 empty empty empty -2 -8 0 10 #191919 #e1e1e1 #e1e1e1 0 1;
#X msg 1791 345 \$1 200;
#X obj 1791 371 line~;
#X obj 1665 552 +~;
#X obj 1354 558 -~;
#X obj 1676 337 +~ 1;
#X obj 1676 371 *~ 0.5;
#X obj 1676 300 hv.osc~ sine;
#X obj 1676 410 *~;
#X obj 1028 843 clip~ -0.85 0.85;
#X obj 1676 262 *~ 20;
#X obj 157 593 f;
#X msg 588 876 \$1 20, f 9;
#X msg 798 876 \$1 20, f 9;
#X obj 588 843 change;
#X obj 798 840 change;
#X obj 724 797 ==;
#X obj 724 840 change;
#X obj 724 760 t b f;
#X msg 724 876 \$1 20, f 9;
#X obj 673 1087 s~ pitchfreq;
#X obj 157 619 sig~;
#X obj 588 911 line~;
#X obj 724 911 line~;
#X obj 798 911 line~;
#X obj 1028 520 r~ pitchfreq;
#X obj 1354 520 r~ pitchfreq;
#X obj 1665 520 r~ pitchfreq;
#X obj 1676 231 r~ pitchfreq;
#X obj 673 1053 /~;
#X obj 588 951 *~ 3;
#X obj 724 951 *~ 2;
#X obj 588 712 r toggle2down_press @hv_param;
#X obj 798 712 r toggle2up_press @hv_param;
#X text 1157 524 OSC1 Vol, f 19;
#X text 1033 63 Phase reset osc1 freq, f 24;
#X text 1053 200 Phase reset osc1 amount, f 24;
#X text 1028 779 catch mix from osc 1 \, 2 \, 3, f 29;
#X text 1044 875 Vol trigger from notes and sequencer, f 33;
#X text 1503 524 OSC2 Vol, f 19;
#X text 1380 200 Phase reset osc2 amount, f 24;
#X text 1359 63 Phase reset osc2 freq, f 24;
#X text 1676 200 detuning following pitch;
#X text 1791 241 detuning amount;
#X obj 1399 764 adc~;
#X obj 1439 1068 *~;
#X obj 1399 1068 *~;
#X obj 1439 1125 clip~ -0.95 0.95;
#X obj 1399 1099 clip~ -0.95 0.95;
#X obj 1479 898 sel 1;
#X obj 1705 898 sel 1;
#X obj 1479 870 change;
#X obj 1705 867 change;
#X obj 1595 843 ==;
#X obj 1595 867 change;
#X obj 1595 814 t b f;
#X obj 1479 783 r toggle1left_press @hv_param;
#X obj 1705 783 r toggle1right_press @hv_param;
#X obj 1595 898 sel 1;
#X msg 1479 929 0 200;
#X text 1711 761 mayhem ADC, f 29;
#X text 1479 761 ADC vol off, f 12;
#X text 1595 761 amp ADC 200, f 29;
#X obj 1479 963 line;
#X obj 1595 963 line;
#X obj 1705 963 line;
#X obj 1479 1008 f;
#X obj 1479 1032 sig~;
#X text 600 678 Octave switcher by division:, f 37;
#X obj 2224 992 hv.comb~;
#X msg 2174 864 feedfwd 0.73;
#X msg 2174 887 feedback 0.89;
#X msg 2174 911 indelay 46;
#X msg 2174 933 outdelay 41;
#X msg 2174 957 slide 952;
#X obj 2147 992 hv.comb~;
#X obj 1324 1232 *~;
#X obj 1362 1232 *~;
#X obj 2397 900 line~;
#X obj 2386 1053 *~;
#X obj 2428 1053 *~;
#X obj 2366 953 *~ -1;
#X obj 2366 980 +~ 1;
#X obj 2125 1053 *~;
#X obj 2166 1053 *~;
#X text 2467 1049 inlet wet;
#X text 2066 1049 inlet dry;
#X obj 2125 1103 +~;
#X obj 2166 1103 +~;
#X obj 1216 1232 *~;
#X obj 1261 1232 *~;
#X obj 2123 1452 dac~;
#X msg 2275 864 feedfwd 0.73;
#X msg 2275 887 feedback 0.89;
#X msg 2275 911 indelay 46;
#X msg 2275 933 outdelay 41;
#X msg 2275 957 slide 952;
#X obj 1028 986 *~ 0.5;
#X obj 2228 247 i;
#X obj 2275 247 + 1;
#X obj 2228 279 % 2;
#X obj 2068 121 r faderleft @hv_param;
#X obj 2069 315 latch 0, f 9;
#X obj 2149 315 latch 1, f 8;
#X obj 2069 347 s faderleftlatch0;
#X obj 2228 119 r mpr121_driver_ch10 @hv_param;
#X obj 2228 150 change;
#X obj 2228 178 sel 1;
#X obj 2228 205 tgl 25 0 empty empty empty 17 7 0 10 #191919 #e1e1e1 #e1e1e1 0 1;
#X obj 2232 524 i;
#X obj 2279 524 + 1;
#X obj 2232 556 % 2;
#X obj 2232 427 change;
#X obj 2232 455 sel 1;
#X obj 2232 482 tgl 25 0 empty empty empty 17 7 0 10 #191919 #e1e1e1 #e1e1e1 0 1;
#X obj 2072 398 r faderright @hv_param;
#X obj 2232 396 r mpr121_driver_ch11 @hv_param;
#X obj 2073 630 s faderrightlatch0;
#X obj 2194 630 s faderrightlatch1;
#X obj 1733 631 +~;
#X obj 1733 658 /~ 2;
#X text 1791 623 vol osc3 = average from osc1 + osc2 / 2, f 24;
#X obj 1814 289 r faderrightlatch0;
#X obj 2073 592 latch 0, f 9;
#X obj 2153 592 latch 1, f 8;
#X obj 2299 1364 line~;
#X obj 2123 1391 *~;
#X obj 2166 1391 *~;
#X msg 2397 874 \$1 100;
#X msg 2299 1336 \$1 100;
#X obj 1227 1383 +~;
#X obj 1268 1383 +~;
#X obj 1317 1383 +~;
#X obj 1358 1383 +~;
#X obj 1317 1441 throw~ \$0-mix-comb-l;
#X obj 1358 1414 throw~ \$0-mix-comb-r;
#X obj 2147 772 catch~ \$0-mix-comb-l;
#X obj 2224 798 catch~ \$0-mix-comb-r;
#X obj 1268 1467 throw~ \$0-mix-dry-r;
#X obj 1227 1490 throw~ \$0-mix-dry-l;
#X obj 2007 798 catch~ \$0-mix-dry-l;
#X obj 2005 769 catch~ \$0-mix-dry-r;
#X obj 2019 1128 catch~ \$0-bypass-l;
#X obj 1040 1299 throw~ \$0-bypass-l;
#X obj 1085 1277 throw~ \$0-bypass-r;
#X obj 2152 1128 catch~ \$0-bypass-r;
#X obj 1040 1232 *~;
#X obj 1085 1232 *~;
#X obj 1399 1270 *~;
#X obj 1439 1270 *~;
#X obj 1399 1324 throw~ \$0-bypass-l;
#X obj 1439 1301 throw~ \$0-bypass-r;
#X obj 2299 1307 r faderleftlatch1;
#X obj 2125 1189 +~;
#X obj 2166 1189 +~;
#X obj 2397 843 r faderrightlatch1;
#X obj 2187 347 s faderleftlatch1;
#X obj 2124 1280 hv.lop~;
#X obj 2189 1280 hv.lop~;
#X obj 2296 1149 r faderleftlatch0;
#X msg 2296 1175 \$1 20;
#X obj 2296 1196 line~;
#X obj 2296 1257 mtof~;
#X obj 2296 1227 *~ 127;
#X msg 2413 1336 0.5;
#X obj 2413 1307 loadbang;
#X obj 2413 1149 loadbang;
#X obj 1862 345 loadbang;
#X obj 2419 772 loadbang;
#X msg 2419 798 0.5;
#X obj 1172 1066 line~;
#X obj 1256 1122 *~ -1;
#X obj 1256 1149 +~ 1;
#X msg 1172 1040 \$1 100;
#X obj 1172 952 change;
#X obj 1172 980 sel 1;
#X obj 1172 1007 tgl 25 0 empty empty empty 17 7 0 10 #191919 #e1e1e1 #e1e1e1 0 1;
#X obj 1172 921 r mpr121_driver_ch0 @hv_param;
#X obj 1678 1100 line~;
#X obj 1678 1135 *~ -1;
#X obj 1678 1162 +~ 1;
#X msg 1678 1074 \$1 100;
#X obj 1738 1101 change;
#X obj 1738 1129 sel 1;
#X obj 1738 1156 tgl 25 0 empty empty empty 17 7 0 10 #191919 #e1e1e1 #e1e1e1 0 1;
#X text 1172 902 osc FX bypass - dry / wet;
#X text 1738 1041 adc FX bypass - dry / wet;
#X obj 1738 1070 r mpr121_driver_ch2 @hv_param;
#X msg 1862 371 0.5;
#X msg 2413 1175 1;
#X obj 2317 150 loadbang;
#X msg 2320 178 1;
#X obj 2320 427 loadbang;
#X msg 2323 455 1;
#X obj 1253 952 loadbang;
#X msg 1256 982 1;
#X obj 1813 1101 loadbang;
#X msg 1816 1131 1;
#X obj 39 658 cnv 15 542 414 empty empty 3.275V\ CV\ pitch\ -\ OMX-27 20 12 0 14 #7c7c7c #ffffff 0;
#X obj 420 943 line~;
#X obj 420 839 sel 0 1;
#X msg 420 875 1 10;
#X obj 46 863 sig~ 2;
#X obj 46 886 pow~;
#X text 91 885 CV to Freq;
#X msg 67 745 \$1 10;
#X obj 67 771 line~;
#X obj 67 711 r cv_1 @hv_param;
#X obj 67 821 *~ 3.275;
#X obj 46 929 *~ 261.63;
#X obj 420 711 r gate_in_1 @hv_param;
#X obj 211 1032 +~;
#X text 420 677 CV Gate;
#X text 67 677 CV pitch;
#X text 211 677 Touchpads / CV pitch switch;
#X obj 420 742 change;
#X obj 211 856 line~;
#X obj 255 986 *~;
#X obj 211 891 *~ -1;
#X obj 211 918 +~ 1;
#X obj 211 986 *~;
#X msg 211 830 \$1 100;
#X obj 211 742 change;
#X obj 211 770 sel 1;
#X obj 211 797 tgl 25 0 empty empty empty 17 7 0 10 #191919 #e1e1e1 #e1e1e1 0 1;
#X obj 211 711 r mpr121_driver_ch1 @hv_param;
#X text 124 985 inlet CV Pitch;
#X text 296 985 inlet touch pitch;
#X text 83 954 lower OMX-27 pitch range;
#X msg 1595 929 1 200;
#X msg 1705 929 3 200;
#X msg 468 875 0 200;
#X obj 2147 798 *~ 0.5;
#X obj 2224 824 *~ 0.5;
#X obj 46 970 /~ 2;
#X connect 5 0 210 0;
#X connect 6 0 14 0;
#X connect 7 0 20 0;
#X connect 8 0 19 0;
#X connect 9 0 16 0;
#X connect 10 0 16 0;
#X connect 11 0 17 0;
#X connect 12 0 7 0;
#X connect 13 0 12 0;
#X connect 14 0 15 0;
#X connect 15 0 11 1;
#X connect 16 0 8 0;
#X connect 17 0 18 0;
#X connect 18 0 8 0;
#X connect 19 0 21 1;
#X connect 20 0 11 0;
#X connect 21 0 96 0;
#X connect 22 0 30 0;
#X connect 23 0 36 0;
#X connect 24 0 35 0;
#X connect 25 0 32 0;
#X connect 26 0 32 0;
#X connect 27 0 33 0;
#X connect 28 0 23 0;
#X connect 29 0 28 0;
#X connect 30 0 31 0;
#X connect 31 0 27 1;
#X connect 32 0 24 0;
#X connect 33 0 34 0;
#X connect 34 0 24 0;
#X connect 35 0 37 1;
#X connect 36 0 27 0;
#X connect 37 0 95 0;
#X connect 39 0 124 0;
#X connect 40 0 124 0;
#X connect 41 0 124 0;
#X connect 42 0 124 0;
#X connect 43 0 124 0;
#X connect 44 0 124 0;
#X connect 45 0 124 0;
#X connect 46 0 124 0;
#X connect 48 0 50 0;
#X connect 49 0 90 0;
#X connect 50 0 51 0;
#X connect 50 1 52 0;
#X connect 50 1 39 0;
#X connect 51 0 49 0;
#X connect 52 0 49 0;
#X connect 53 0 48 0;
#X connect 54 0 56 0;
#X connect 55 0 90 0;
#X connect 56 0 57 0;
#X connect 56 1 58 0;
#X connect 56 1 40 0;
#X connect 57 0 55 0;
#X connect 58 0 55 0;
#X connect 59 0 54 0;
#X connect 60 0 62 0;
#X connect 61 0 90 0;
#X connect 62 0 63 0;
#X connect 62 1 64 0;
#X connect 62 1 41 0;
#X connect 63 0 61 0;
#X connect 64 0 61 0;
#X connect 65 0 60 0;
#X connect 66 0 68 0;
#X connect 67 0 90 0;
#X connect 68 0 69 0;
#X connect 68 1 70 0;
#X connect 68 1 42 0;
#X connect 69 0 67 0;
#X connect 70 0 67 0;
#X connect 71 0 66 0;
#X connect 72 0 74 0;
#X connect 73 0 90 0;
#X connect 74 0 75 0;
#X connect 74 1 76 0;
#X connect 74 1 43 0;
#X connect 75 0 73 0;
#X connect 76 0 73 0;
#X connect 77 0 79 0;
#X connect 78 0 90 0;
#X connect 79 0 80 0;
#X connect 79 1 81 0;
#X connect 79 1 44 0;
#X connect 80 0 78 0;
#X connect 81 0 78 0;
#X connect 82 0 84 0;
#X connect 83 0 90 0;
#X connect 84 0 85 0;
#X connect 84 1 86 0;
#X connect 84 1 45 0;
#X connect 85 0 83 0;
#X connect 86 0 83 0;
#X connect 87 0 72 0;
#X connect 88 0 77 0;
#X connect 89 0 82 0;
#X connect 90 0 91 0;
#X connect 94 0 122 0;
#X connect 95 0 92 0;
#X connect 96 0 93 0;
#X connect 97 0 98 0;
#X connect 98 0 99 0;
#X connect 99 0 96 1;
#X connect 99 0 232 1;
#X connect 100 0 101 0;
#X connect 101 0 102 0;
#X connect 102 0 95 1;
#X connect 102 0 232 0;
#X connect 103 0 101 0;
#X connect 104 0 30 0;
#X connect 105 0 28 0;
#X connect 106 0 98 0;
#X connect 107 0 14 0;
#X connect 108 0 12 0;
#X connect 109 0 5 1;
#X connect 111 0 110 0;
#X connect 112 0 111 0;
#X connect 113 0 114 0;
#X connect 114 0 115 0;
#X connect 115 0 121 1;
#X connect 116 0 112 0;
#X connect 117 0 21 0;
#X connect 118 0 119 0;
#X connect 119 0 121 0;
#X connect 120 0 118 0;
#X connect 121 0 117 1;
#X connect 121 0 116 1;
#X connect 122 0 5 0;
#X connect 123 0 120 0;
#X connect 124 0 134 0;
#X connect 125 0 135 0;
#X connect 126 0 137 0;
#X connect 127 0 125 0;
#X connect 128 0 126 0;
#X connect 129 0 130 0;
#X connect 130 0 132 0;
#X connect 131 0 129 0;
#X connect 131 1 129 1;
#X connect 132 0 136 0;
#X connect 134 0 330 0;
#X connect 135 0 143 0;
#X connect 136 0 144 0;
#X connect 137 0 142 1;
#X connect 138 0 37 0;
#X connect 139 0 117 0;
#X connect 140 0 116 0;
#X connect 141 0 123 0;
#X connect 142 0 133 0;
#X connect 143 0 142 1;
#X connect 144 0 142 1;
#X connect 145 0 127 0;
#X connect 145 0 129 0;
#X connect 146 0 131 0;
#X connect 146 0 128 0;
#X connect 157 0 159 0;
#X connect 157 1 158 0;
#X connect 158 0 160 0;
#X connect 159 0 161 0;
#X connect 160 0 190 0;
#X connect 160 0 262 0;
#X connect 161 0 189 0;
#X connect 161 0 261 0;
#X connect 162 0 172 0;
#X connect 163 0 343 0;
#X connect 164 0 162 0;
#X connect 165 0 163 0;
#X connect 166 0 167 0;
#X connect 167 0 171 0;
#X connect 168 0 166 0;
#X connect 168 1 166 1;
#X connect 169 0 164 0;
#X connect 169 0 166 0;
#X connect 170 0 168 0;
#X connect 170 0 165 0;
#X connect 171 0 342 0;
#X connect 172 0 176 0;
#X connect 176 0 179 0;
#X connect 177 0 179 0;
#X connect 178 0 179 0;
#X connect 179 0 180 0;
#X connect 180 0 159 1;
#X connect 180 0 158 1;
#X connect 182 0 193 0;
#X connect 183 0 188 1;
#X connect 184 0 188 1;
#X connect 185 0 188 1;
#X connect 186 0 188 1;
#X connect 187 0 188 1;
#X connect 188 0 192 0;
#X connect 189 0 243 1;
#X connect 189 0 245 1;
#X connect 190 0 246 1;
#X connect 190 0 244 1;
#X connect 191 0 194 0;
#X connect 191 0 192 1;
#X connect 191 0 193 1;
#X connect 192 0 200 1;
#X connect 193 0 201 1;
#X connect 194 0 195 0;
#X connect 195 0 197 1;
#X connect 195 0 196 1;
#X connect 196 0 200 0;
#X connect 197 0 201 0;
#X connect 200 0 266 1;
#X connect 201 0 267 1;
#X connect 202 0 243 0;
#X connect 202 0 245 0;
#X connect 203 0 244 0;
#X connect 203 0 246 0;
#X connect 205 0 182 1;
#X connect 206 0 182 1;
#X connect 207 0 182 1;
#X connect 208 0 182 1;
#X connect 209 0 182 1;
#X connect 210 0 202 0;
#X connect 210 0 203 0;
#X connect 210 0 259 0;
#X connect 210 0 260 0;
#X connect 211 0 213 0;
#X connect 211 0 212 0;
#X connect 212 0 211 1;
#X connect 213 0 215 1;
#X connect 213 0 216 1;
#X connect 214 0 215 0;
#X connect 214 0 216 0;
#X connect 215 0 217 0;
#X connect 216 0 269 0;
#X connect 218 0 219 0;
#X connect 219 0 220 0;
#X connect 220 0 221 0;
#X connect 221 0 211 0;
#X connect 222 0 224 0;
#X connect 222 0 223 0;
#X connect 223 0 222 1;
#X connect 224 0 236 1;
#X connect 224 0 237 1;
#X connect 225 0 226 0;
#X connect 226 0 227 0;
#X connect 227 0 222 0;
#X connect 228 0 236 0;
#X connect 228 0 237 0;
#X connect 229 0 225 0;
#X connect 232 0 233 0;
#X connect 233 0 111 1;
#X connect 235 0 114 0;
#X connect 236 0 230 0;
#X connect 237 0 231 0;
#X connect 238 0 240 1;
#X connect 238 0 239 1;
#X connect 239 0 204 0;
#X connect 240 0 204 1;
#X connect 241 0 191 0;
#X connect 242 0 238 0;
#X connect 243 0 252 0;
#X connect 244 0 251 0;
#X connect 245 0 247 0;
#X connect 246 0 248 0;
#X connect 249 0 345 0;
#X connect 250 0 346 0;
#X connect 253 0 196 0;
#X connect 254 0 197 0;
#X connect 255 0 266 0;
#X connect 258 0 267 0;
#X connect 259 0 256 0;
#X connect 260 0 257 0;
#X connect 261 0 263 0;
#X connect 262 0 264 0;
#X connect 265 0 242 0;
#X connect 266 0 270 0;
#X connect 267 0 271 0;
#X connect 268 0 241 0;
#X connect 270 0 239 0;
#X connect 271 0 240 0;
#X connect 272 0 273 0;
#X connect 273 0 274 0;
#X connect 274 0 276 0;
#X connect 275 0 271 1;
#X connect 275 0 270 1;
#X connect 276 0 275 0;
#X connect 277 0 242 0;
#X connect 278 0 277 0;
#X connect 279 0 302 0;
#X connect 280 0 301 0;
#X connect 281 0 282 0;
#X connect 283 0 284 0;
#X connect 283 0 260 1;
#X connect 283 0 259 1;
#X connect 284 0 285 0;
#X connect 285 0 203 1;
#X connect 285 0 202 1;
#X connect 286 0 283 0;
#X connect 287 0 288 0;
#X connect 288 0 289 0;
#X connect 289 0 286 0;
#X connect 290 0 287 0;
#X connect 291 0 292 0;
#X connect 291 0 262 1;
#X connect 291 0 261 1;
#X connect 292 0 293 0;
#X connect 293 0 190 1;
#X connect 293 0 189 1;
#X connect 294 0 291 0;
#X connect 295 0 296 0;
#X connect 296 0 297 0;
#X connect 297 0 294 0;
#X connect 300 0 295 0;
#X connect 302 0 273 0;
#X connect 303 0 304 0;
#X connect 304 0 220 0;
#X connect 305 0 306 0;
#X connect 306 0 225 0;
#X connect 307 0 308 0;
#X connect 308 0 288 0;
#X connect 309 0 310 0;
#X connect 310 0 296 0;
#X connect 312 0 90 0;
#X connect 313 0 314 0;
#X connect 313 1 344 0;
#X connect 314 0 312 0;
#X connect 315 0 316 0;
#X connect 316 0 322 0;
#X connect 318 0 319 0;
#X connect 319 0 321 0;
#X connect 320 0 318 0;
#X connect 321 0 316 1;
#X connect 322 0 347 0;
#X connect 323 0 328 0;
#X connect 324 0 142 0;
#X connect 328 0 313 0;
#X connect 329 0 331 0;
#X connect 329 0 333 1;
#X connect 330 0 324 1;
#X connect 331 0 332 0;
#X connect 332 0 330 1;
#X connect 333 0 324 0;
#X connect 334 0 329 0;
#X connect 335 0 336 0;
#X connect 336 0 337 0;
#X connect 337 0 334 0;
#X connect 338 0 335 0;
#X connect 342 0 177 0;
#X connect 343 0 178 0;
#X connect 344 0 312 0;
#X connect 345 0 188 0;
#X connect 346 0 182 0;
#X connect 347 0 333 0;
