#N canvas 827 239 734 565 12;
#X obj 333 1039 dac~;
#X obj 673 446 snapshot~;
#X obj 683 260 bng 25 250 50 0 empty empty empty 17 7 0 10 #191919 #ffffff #ffffff;
#X msg 673 480 \$1;
#X obj 682 299 metro 1;
#X obj 766 446 snapshot~;
#X obj 855 446 snapshot~;
#X obj 947 446 snapshot~;
#X obj 947 245 osc~;
#X obj 947 273 +~ 1;
#X obj 947 311 /~ 2;
#X obj 1110 245 osc~;
#X obj 1110 273 +~ 1;
#X obj 1110 311 /~ 2;
#X obj 279 32 cnv 15 981 147 empty empty knobs 20 12 0 14 #626262 #ffffff 0;
#X obj 631 148 line~;
#X obj 790 83 hsl 128 17 0 1 0 0 empty empty empty -2 -8 0 10 #191919 #e1e1e1 #e1e1e1 0 1;
#X obj 787 148 line~;
#X obj 950 88 hsl 128 17 0 1 0 0 empty empty empty -2 -8 0 10 #191919 #e1e1e1 #e1e1e1 0 1;
#X obj 947 148 line~;
#X obj 634 83 hsl 128 17 0 1 0 0 empty empty empty -2 -8 0 10 #191919 #e1e1e1 #e1e1e1 0 1;
#X obj 631 59 r knob2 @hv_param;
#X obj 792 59 r knob3 @hv_param;
#X obj 947 59 r knob4 @hv_param;
#X obj 1113 88 hsl 128 17 0 1 0 0 empty empty empty -2 -8 0 10 #191919 #e1e1e1 #e1e1e1 0 1;
#X obj 1110 148 line~;
#X obj 1110 59 r knob5 @hv_param;
#X msg 631 116 \$1 20;
#X msg 787 116 \$1 20;
#X msg 947 116 \$1 20;
#X msg 1110 116 \$1 20;
#X obj 336 331 hsl 128 17 0 1 0 0 empty empty empty -2 -8 0 10 #191919 #e1e1e1 #e1e1e1 0 1;
#X obj 333 425 line~;
#X msg 333 393 \$1 20;
#X obj 333 302 r faderleft @hv_param;
#X obj 333 460 *~ 110;
#X obj 722 260 loadbang, f 11;
#X obj 442 909 hsl 128 17 0 1 0 0 empty empty empty -2 -8 0 10 #191919 #e1e1e1 #e1e1e1 0 1;
#X obj 439 970 line~;
#X msg 439 938 \$1 20;
#X obj 439 879 r faderright @hv_param;
#X obj 333 992 *~;
#X obj 673 370 +~;
#X obj 673 401 /~ 2;
#X obj 766 362 +~;
#X obj 766 393 /~ 2;
#X obj 855 362 +~;
#X obj 855 393 /~ 2;
#X obj 947 362 +~;
#X obj 947 393 /~ 2;
#N canvas 0 0 450 250 (subpatch) 0;
#X array wavy2 10 float 5;
#A 0 0.287468 0.583768 0.553439 0.175449 0.287468 0.583768 0.553439 0.175449 0.287468 0.583768;
#X coords 0 1 9 0 200 140 1;
#X restore 673 626 graph;
#X msg 766 480 \$1;
#X msg 855 480 \$1;
#X msg 947 480 \$1;
#X obj 673 521 pack f f f f;
#X msg 673 552 \; wavy2 \$1 \$2 \$3 \$4 \$1 \$2 \$3 \$4 \$1 \$2 \$3;
#X text 673 588 set array at 10 values;
#X obj 631 182 *~ 2;
#X obj 631 214 -~ 1;
#X obj 787 182 *~ 2;
#X obj 787 214 -~ 1;
#X obj 947 202 *~ 2;
#X obj 1110 202 *~;
#X obj 334 718 hv.filter~ lowpass;
#X obj 499 640 hsl 121 19 0 1 0 0 empty empty empty -2 -8 0 10 #191919 #e1e1e1 #e1e1e1 0 1;
#X msg 473 673 \$1 20;
#X obj 473 702 line;
#X obj 333 851 *~;
#X obj 155 663 hsl 121 19 0 1 0 0 empty empty empty -2 -8 0 10 #191919 #e1e1e1 #e1e1e1 0 1;
#X msg 129 696 \$1 20;
#X obj 129 725 line~;
#X obj 333 495 hv.osc~ saw;
#X obj 333 956 *~ 2;
#X obj 333 879 hip~ 20;
#X obj 333 915 clip~ -0.7 0.7;
#X obj 473 743 loadbang;
#X msg 434 792 1;
#X msg 425 693 0.5;
#X obj 543 743 bng 19 250 50 0 empty empty empty 17 7 0 10 #191919 #ffffff #ffffff;
#X obj 383 792 * 200;
#X obj 333 536 +~ 1;
#X obj 334 593 tabread4~ wavy2;
#X text 181 561 half of the array amount;
#X obj 334 562 *~ 5;
#X obj 379 646 * 2000;
#X text 129 615 gain / drive;
#X obj 129 751 *~ 100;
#X obj 129 780 +~ 2;
#X obj 334 817 hv.filter~ highpass;
#X obj 379 669 + 4000;
#X obj 379 693 - 2000;
#X obj 129 637 r knob0 @hv_param;
#X obj 473 614 r knob1 @hv_param;
#X obj 539 309 *~ -2;
#X obj 539 339 +~ 1;
#X obj 599 307 *~ -2;
#X obj 599 339 +~ 1;
#X obj 1466 32 cnv 15 446 386 empty empty NOTE\ FREQUENCIES\ -\ F-MINOR 20 12 0 14 #626262 #ffffff 0;
#X msg 1498 352 \$1 20, f 9;
#X msg 1708 353 \$1 20, f 9;
#X obj 1498 217 change;
#X obj 1708 217 change;
#X obj 1634 174 ==;
#X obj 1634 217 change;
#X obj 1634 137 t b f;
#X msg 1634 353 \$1 20, f 9;
#X obj 1498 388 line~;
#X obj 1634 388 line~;
#X obj 1708 388 line~;
#X obj 1498 89 r toggle2down_press @hv_param;
#X obj 1708 89 r toggle2up_press @hv_param;
#X obj 1498 533 s~ lforate;
#X obj 1228 195 r~ lforate;
#X obj 1498 428 *~ 1;
#X obj 1498 262 sel 1;
#X msg 1531 304 0;
#X msg 1501 304 1;
#X obj 1635 263 sel 1;
#X msg 1667 304 0;
#X msg 1638 304 1;
#X obj 1713 265 sel 1;
#X msg 1745 306 0;
#X msg 1716 306 1;
#X obj 1634 428 *~ 100;
#X obj 1708 428 *~ 440;
#X connect 1 0 3 0;
#X connect 2 0 4 0;
#X connect 3 0 54 0;
#X connect 4 0 5 0;
#X connect 4 0 1 0;
#X connect 4 0 6 0;
#X connect 4 0 7 0;
#X connect 5 0 51 0;
#X connect 6 0 52 0;
#X connect 7 0 53 0;
#X connect 8 0 9 0;
#X connect 9 0 10 0;
#X connect 10 0 42 1;
#X connect 10 0 46 1;
#X connect 11 0 12 0;
#X connect 12 0 13 0;
#X connect 13 0 44 1;
#X connect 13 0 48 1;
#X connect 15 0 57 0;
#X connect 15 0 93 0;
#X connect 16 0 28 0;
#X connect 17 0 59 0;
#X connect 18 0 29 0;
#X connect 19 0 61 0;
#X connect 20 0 27 0;
#X connect 21 0 27 0;
#X connect 22 0 28 0;
#X connect 23 0 29 0;
#X connect 24 0 30 0;
#X connect 25 0 62 0;
#X connect 26 0 30 0;
#X connect 27 0 15 0;
#X connect 28 0 17 0;
#X connect 29 0 19 0;
#X connect 30 0 25 0;
#X connect 31 0 33 0;
#X connect 32 0 35 0;
#X connect 33 0 32 0;
#X connect 34 0 33 0;
#X connect 35 0 71 0;
#X connect 36 0 4 0;
#X connect 37 0 39 0;
#X connect 38 0 41 1;
#X connect 39 0 38 0;
#X connect 40 0 39 0;
#X connect 41 0 0 0;
#X connect 41 0 0 1;
#X connect 42 0 43 0;
#X connect 43 0 1 0;
#X connect 44 0 45 0;
#X connect 45 0 5 0;
#X connect 46 0 47 0;
#X connect 47 0 6 0;
#X connect 48 0 49 0;
#X connect 49 0 7 0;
#X connect 51 0 54 1;
#X connect 52 0 54 2;
#X connect 53 0 54 3;
#X connect 54 0 55 0;
#X connect 57 0 58 0;
#X connect 58 0 46 0;
#X connect 59 0 60 0;
#X connect 60 0 48 0;
#X connect 60 0 95 0;
#X connect 61 0 8 0;
#X connect 62 0 11 0;
#X connect 63 0 88 0;
#X connect 64 0 65 0;
#X connect 65 0 66 0;
#X connect 66 0 84 0;
#X connect 66 0 79 0;
#X connect 67 0 73 0;
#X connect 68 0 69 0;
#X connect 69 0 70 0;
#X connect 70 0 86 0;
#X connect 71 0 80 0;
#X connect 72 0 41 0;
#X connect 73 0 74 0;
#X connect 74 0 72 0;
#X connect 75 0 77 0;
#X connect 75 0 76 0;
#X connect 76 0 88 2;
#X connect 77 0 63 2;
#X connect 78 0 77 0;
#X connect 78 0 76 0;
#X connect 79 0 88 1;
#X connect 80 0 83 0;
#X connect 81 0 63 0;
#X connect 83 0 81 0;
#X connect 84 0 89 0;
#X connect 86 0 87 0;
#X connect 87 0 67 1;
#X connect 88 0 67 0;
#X connect 89 0 90 0;
#X connect 90 0 63 1;
#X connect 91 0 69 0;
#X connect 92 0 65 0;
#X connect 93 0 94 0;
#X connect 94 0 42 0;
#X connect 95 0 96 0;
#X connect 96 0 44 0;
#X connect 98 0 106 0;
#X connect 99 0 108 0;
#X connect 100 0 114 0;
#X connect 101 0 120 0;
#X connect 102 0 103 0;
#X connect 103 0 117 0;
#X connect 104 0 102 0;
#X connect 104 1 102 1;
#X connect 105 0 107 0;
#X connect 106 0 113 0;
#X connect 107 0 123 0;
#X connect 108 0 124 0;
#X connect 109 0 102 0;
#X connect 109 0 100 0;
#X connect 110 0 104 0;
#X connect 110 0 101 0;
#X connect 112 0 62 1;
#X connect 113 0 111 0;
#X connect 114 0 116 0;
#X connect 114 1 115 0;
#X connect 115 0 98 0;
#X connect 116 0 98 0;
#X connect 117 0 119 0;
#X connect 117 1 118 0;
#X connect 118 0 105 0;
#X connect 119 0 105 0;
#X connect 120 0 122 0;
#X connect 120 1 121 0;
#X connect 121 0 99 0;
#X connect 122 0 99 0;
#X connect 123 0 111 0;
#X connect 124 0 111 0;
