#N canvas 827 239 734 565 12;
#X obj 332 567 +~ 1;
#X obj 333 751 dac~;
#X obj 673 446 snapshot~;
#X obj 683 260 bng 25 250 50 0 empty empty empty 17 7 0 10 #191919 #ffffff #ffffff;
#X msg 673 480 \$1;
#X obj 682 299 metro 1;
#X obj 766 446 snapshot~;
#X obj 855 446 snapshot~;
#X obj 947 446 snapshot~;
#X obj 332 530 hv.osc~ sine;
#X obj 947 197 osc~;
#X obj 947 225 +~ 1;
#X obj 947 263 /~ 2;
#X obj 1110 197 osc~;
#X obj 1110 225 +~ 1;
#X obj 1110 263 /~ 2;
#X obj 279 32 cnv 15 981 147 empty empty knobs 20 12 0 14 #626262 #ffffff 0;
#X obj 631 148 line~;
#X obj 297 89 hsl 128 17 0 1 0 0 empty empty empty -2 -8 0 10 #191919 #e1e1e1 #e1e1e1 0 1;
#X obj 294 148 line~;
#X obj 456 89 hsl 128 17 0 1 0 0 empty empty empty -2 -8 0 10 #191919 #e1e1e1 #e1e1e1 0 1;
#X obj 453 148 line~;
#X obj 790 83 hsl 128 17 0 1 0 0 empty empty empty -2 -8 0 10 #191919 #e1e1e1 #e1e1e1 0 1;
#X obj 787 148 line~;
#X obj 950 88 hsl 128 17 0 1 0 0 empty empty empty -2 -8 0 10 #191919 #e1e1e1 #e1e1e1 0 1;
#X obj 947 148 line~;
#X obj 294 59 r knob0 @hv_param;
#X obj 453 59 r knob1 @hv_param;
#X obj 634 83 hsl 128 17 0 1 0 0 empty empty empty -2 -8 0 10 #191919 #e1e1e1 #e1e1e1 0 1;
#X obj 631 59 r knob2 @hv_param;
#X obj 792 59 r knob3 @hv_param;
#X obj 947 59 r knob4 @hv_param;
#X obj 1113 88 hsl 128 17 0 1 0 0 empty empty empty -2 -8 0 10 #191919 #e1e1e1 #e1e1e1 0 1;
#X obj 1110 148 line~;
#X obj 1110 59 r knob5 @hv_param;
#X msg 294 116 \$1 20;
#X msg 453 116 \$1 20;
#X msg 631 116 \$1 20;
#X msg 787 116 \$1 20;
#X msg 947 116 \$1 20;
#X msg 1110 116 \$1 20;
#X obj 335 358 hsl 128 17 0 1 0 0 empty empty empty -2 -8 0 10 #191919 #e1e1e1 #e1e1e1 0 1;
#X obj 332 452 line~;
#X msg 332 420 \$1 20;
#X obj 332 329 r faderleft @hv_param;
#X obj 332 487 *~ 110;
#X obj 722 260 loadbang, f 11;
#X obj 476 690 hsl 128 17 0 1 0 0 empty empty empty -2 -8 0 10 #191919 #e1e1e1 #e1e1e1 0 1;
#X obj 473 751 line~;
#X msg 473 719 \$1 20;
#X obj 473 660 r faderright @hv_param;
#X obj 333 704 *~;
#X obj 673 370 +~;
#X obj 673 401 /~ 2;
#X obj 766 362 +~;
#X obj 766 393 /~ 2;
#X obj 855 362 +~;
#X obj 855 393 /~ 2;
#X obj 947 362 +~;
#X obj 947 393 /~ 2;
#N canvas 0 0 450 250 (subpatch) 0;
#X array wavy2 10 float 3;
#A 0 0.0112576 0.52724 0.49821 0.511122 0.0112576 0.52724 0.49821 0.511122 0.0112576 0.52724;
#X coords 0 1 10 0 200 140 1;
#X restore 678 659 graph;
#X obj 333 624 tabread4~ wavy2;
#X msg 766 480 \$1;
#X msg 855 480 \$1;
#X msg 947 480 \$1;
#X obj 673 521 pack f f f f;
#X msg 673 578 \; wavy2 sinesum 4096 \$1 \$2 \$3 \$4;
#X msg 929 578 \; wavy2 \$1 \$2 \$3 \$4 \$1 \$2 \$3 \$4 \$1 \$2 \$3;
#X obj 333 593 *~ 5;
#X text 929 614 set array at 10 values;
#X text 673 614 set array at 4096 values;
#X text 373 592 half of the array amount;
#X connect 0 0 68 0;
#X connect 2 0 4 0;
#X connect 3 0 5 0;
#X connect 4 0 65 0;
#X connect 5 0 6 0;
#X connect 5 0 2 0;
#X connect 5 0 7 0;
#X connect 5 0 8 0;
#X connect 6 0 62 0;
#X connect 7 0 63 0;
#X connect 8 0 64 0;
#X connect 9 0 0 0;
#X connect 10 0 11 0;
#X connect 11 0 12 0;
#X connect 12 0 52 1;
#X connect 12 0 56 1;
#X connect 13 0 14 0;
#X connect 14 0 15 0;
#X connect 15 0 54 1;
#X connect 15 0 58 1;
#X connect 17 0 56 0;
#X connect 18 0 35 0;
#X connect 19 0 52 0;
#X connect 20 0 36 0;
#X connect 21 0 54 0;
#X connect 22 0 38 0;
#X connect 23 0 58 0;
#X connect 24 0 39 0;
#X connect 25 0 10 0;
#X connect 26 0 35 0;
#X connect 27 0 36 0;
#X connect 28 0 37 0;
#X connect 29 0 37 0;
#X connect 30 0 38 0;
#X connect 31 0 39 0;
#X connect 32 0 40 0;
#X connect 33 0 13 0;
#X connect 34 0 40 0;
#X connect 35 0 19 0;
#X connect 36 0 21 0;
#X connect 37 0 17 0;
#X connect 38 0 23 0;
#X connect 39 0 25 0;
#X connect 40 0 33 0;
#X connect 41 0 43 0;
#X connect 42 0 45 0;
#X connect 43 0 42 0;
#X connect 44 0 43 0;
#X connect 45 0 9 0;
#X connect 46 0 5 0;
#X connect 47 0 49 0;
#X connect 48 0 51 1;
#X connect 49 0 48 0;
#X connect 50 0 49 0;
#X connect 51 0 1 0;
#X connect 51 0 1 1;
#X connect 52 0 53 0;
#X connect 53 0 2 0;
#X connect 54 0 55 0;
#X connect 55 0 6 0;
#X connect 56 0 57 0;
#X connect 57 0 7 0;
#X connect 58 0 59 0;
#X connect 59 0 8 0;
#X connect 61 0 51 0;
#X connect 62 0 65 1;
#X connect 63 0 65 2;
#X connect 64 0 65 3;
#X connect 65 0 67 0;
#X connect 68 0 61 0;
