#N canvas 827 239 734 565 12;
#X obj 670 398 +~ 1;
#X obj 671 582 dac~;
#X obj 661 361 hv.osc~ sine;
#X obj 664 189 hsl 128 17 0 1 0 0 empty empty empty -2 -8 0 10 #191919 #e1e1e1 #e1e1e1 0 1;
#X obj 661 283 line~;
#X msg 661 251 \$1 20;
#X obj 633 160 r faderleft @hv_param;
#X obj 805 521 hsl 128 17 0 1 0 0 empty empty empty -2 -8 0 10 #191919 #e1e1e1 #e1e1e1 0 1;
#X obj 802 582 line~;
#X msg 802 550 \$1 20;
#X obj 802 491 r faderright @hv_param;
#X obj 671 535 *~;
#N canvas 0 0 450 250 (subpatch) 0;
#X array waves 11 float 1;
#A 0 0 0.482843 -2.12303e-17 0.0828427 -4.89859e-17 -0.0828427 -6.36909e-17 -0.482843 -4.89859e-16 0.482843 -1.33907e-16;
#X coords 0 1 10 -1 200 140 1;
#X restore 917 304 graph;
#X obj 917 160 loadbang;
#X obj 661 318 *~ 440;
#X obj 671 424 *~ 5;
#X msg 917 236 \; waves sinesum 10 0.2 0.2 0.2 0.2;
#X obj 671 455 tabread4~ waves;
#X connect 0 0 15 0;
#X connect 2 0 0 0;
#X connect 3 0 5 0;
#X connect 4 0 14 0;
#X connect 5 0 4 0;
#X connect 6 0 5 0;
#X connect 7 0 9 0;
#X connect 8 0 11 1;
#X connect 9 0 8 0;
#X connect 10 0 9 0;
#X connect 11 0 1 0;
#X connect 11 0 1 1;
#X connect 13 0 16 0;
#X connect 14 0 2 0;
#X connect 15 0 17 0;
#X connect 17 0 11 0;
