#N canvas 827 239 734 565 12;
#X obj 382 989 dac~;
#X obj 713 517 snapshot~;
#X obj 1083 519 bng 25 250 50 0 empty empty empty 17 7 0 10 #191919 #ffffff #ffffff;
#X obj 806 517 snapshot~;
#X obj 895 517 snapshot~;
#X obj 987 517 snapshot~;
#X obj 987 316 osc~;
#X obj 987 344 +~ 1;
#X obj 987 382 /~ 2;
#X obj 1150 344 +~ 1;
#X obj 1150 382 /~ 2;
#X obj 319 103 cnv 15 981 147 empty empty knobs 20 12 0 14 #626262 #ffffff 0;
#X obj 671 219 line~;
#X obj 849 154 hsl 128 17 0 1 0 0 empty empty empty -2 -8 0 10 #191919 #e1e1e1 #e1e1e1 0 1;
#X obj 827 219 line~;
#X obj 1005 154 hsl 128 17 0 1 0 0 empty empty empty -2 -8 0 10 #191919 #e1e1e1 #e1e1e1 0 1;
#X obj 987 219 line~;
#X obj 692 154 hsl 105 17 0 1 0 0 empty empty empty -2 -8 0 10 #191919 #e1e1e1 #e1e1e1 0 1;
#X obj 671 130 r knob2 @hv_param;
#X obj 832 130 r knob3 @hv_param;
#X obj 987 130 r knob4 @hv_param;
#X obj 1170 154 hsl 128 17 0 1 0 0 empty empty empty -2 -8 0 10 #191919 #e1e1e1 #e1e1e1 0 1;
#X obj 1150 219 line~;
#X obj 1150 130 r knob5 @hv_param;
#X msg 671 187 \$1 20;
#X msg 827 187 \$1 20;
#X msg 987 187 \$1 20;
#X msg 1150 187 \$1 20;
#X obj 392 284 line~;
#X msg 392 250 \$1 20;
#X obj 392 186 r faderleft @hv_param;
#X obj 392 327 *~ 110;
#X obj 1122 519 loadbang, f 11;
#X obj 519 798 hsl 116 17 0 1 0 0 empty empty empty -2 -8 0 10 #191919 #e1e1e1 #e1e1e1 0 1;
#X obj 488 864 line~;
#X msg 488 832 \$1 20;
#X obj 488 773 r faderright @hv_param;
#X obj 382 886 *~;
#X obj 713 461 +~;
#X obj 713 492 /~ 2;
#X obj 806 453 +~;
#X obj 806 484 /~ 2;
#X obj 895 453 +~;
#X obj 895 484 /~ 2;
#X obj 987 453 +~;
#X obj 987 484 /~ 2;
#N canvas 0 0 450 250 (subpatch) 0;
#X array wavy3 10 float 3;
#A 0 0.314286 0.328571 0.367857 0.639286 0.664286 0.460714 0.271429 0.421429 0.553571 0.570115;
#X coords 0 1 10 0 200 140 1;
#X restore 768 890 graph;
#X msg 806 551 \$1;
#X msg 895 551 \$1;
#X msg 987 551 \$1;
#X text 830 857 set array at 10 values;
#X obj 671 253 *~ 2;
#X obj 671 285 -~ 1;
#X obj 827 253 *~ 2;
#X obj 827 285 -~ 1;
#X obj 987 273 *~ 2;
#X obj 1150 273 *~;
#X obj 383 612 hv.filter~ lowpass;
#X obj 548 531 hsl 121 19 0 1 0 0 empty empty empty -2 -8 0 10 #191919 #e1e1e1 #e1e1e1 0 1;
#X msg 522 567 \$1 20;
#X obj 522 596 line;
#X obj 382 745 *~;
#X obj 200 556 hsl 121 19 0 1 0 0 empty empty empty -2 -8 0 10 #191919 #e1e1e1 #e1e1e1 0 1;
#X msg 178 587 \$1 20;
#X obj 178 619 line~;
#X obj 382 389 hv.osc~ saw;
#X obj 382 850 *~ 2;
#X obj 382 773 hip~ 20;
#X obj 382 809 clip~ -0.7 0.7;
#X obj 535 648 loadbang;
#X msg 483 686 1;
#X msg 474 587 0.5;
#X obj 598 648 bng 19 250 50 0 empty empty empty 17 7 0 10 #191919 #ffffff #ffffff;
#X obj 432 686 * 200;
#X obj 382 415 +~ 1;
#X text 231 445 half of the array amount;
#X obj 382 446 *~ 5;
#X obj 428 540 * 2000;
#X text 178 509 gain / drive;
#X obj 178 676 +~ 2;
#X obj 383 711 hv.filter~ highpass;
#X obj 428 563 + 4000;
#X obj 428 587 - 2000;
#X obj 178 531 r knob0 @hv_param;
#X obj 522 508 r knob1 @hv_param;
#X obj 617 333 *~ -2;
#X obj 617 363 +~ 1;
#X obj 724 395 *~ -2;
#X obj 724 427 +~ 1;
#X obj 1506 103 cnv 15 442 531 empty empty NOTE\ FREQUENCIES\ -\ F-MINOR 20 12 0 14 #626262 #ffffff 0;
#X msg 1538 423 \$1 20, f 9;
#X msg 1758 416 \$1 20, f 9;
#X obj 1538 288 change;
#X obj 1748 288 change;
#X obj 1674 245 ==;
#X obj 1674 288 change;
#X obj 1674 208 t b f;
#X obj 1538 459 line~;
#X obj 1674 459 line~;
#X obj 1758 459 line~;
#X obj 1538 160 r toggle2down_press @hv_param;
#X obj 1748 160 r toggle2up_press @hv_param;
#X obj 1538 499 *~ 1;
#X obj 1538 333 sel 1;
#X msg 1571 375 0;
#X msg 1541 375 1;
#X obj 1675 334 sel 1;
#X msg 1707 375 0;
#X msg 1678 375 1;
#X obj 1753 336 sel 1;
#X msg 1795 375 0;
#X msg 1756 375 1;
#X obj 1674 499 *~ 100;
#X obj 1758 499 *~ 440;
#X msg 713 551 \$1;
#X obj 420 213 hsl 105 17 0 1 0 0 empty empty empty -2 -8 0 10 #191919 #e1e1e1 #e1e1e1 0 1;
#X obj 1273 319 r~ lforate;
#X obj 1538 604 s~ lforate;
#X obj 1150 310 phasor~;
#X msg 1674 423 \$1 2000, f 9;
#X obj 474 415 delread4~ del2ms 2;
#X obj 783 396 +~;
#X obj 783 427 /~ 2;
#X obj 1073 316 +~;
#X obj 1073 347 /~ 2;
#X obj 164 961 *~;
#X obj 164 989 delwrite~ del2ms 1;
#X obj 178 648 *~ 100;
#X obj 382 474 tabread4~ wavy3;
#X msg 711 651 0;
#X msg 1540 661 1;
#X msg 1640 661 2;
#X msg 1740 661 3;
#X msg 1440 711 4;
#X msg 1540 711 5;
#X msg 1640 711 6;
#X msg 1740 711 7;
#X msg 1440 761 8;
#X msg 1540 761 9;
#X obj 709 716 send write0;
#X obj 1561 829 send write1;
#X obj 1661 829 send write2;
#X obj 1761 829 send write3;
#X obj 1461 879 send write4;
#X obj 1561 879 send write5;
#X obj 1661 879 send write6;
#X obj 1761 879 send write7;
#X obj 1461 929 send write8;
#X obj 1561 929 send write9;
#X obj 709 762 receive write0;
#X obj 1167 773 receive write1;
#X obj 1167 828 receive write2;
#X obj 1167 882 receive write3;
#X obj 1167 937 receive write4;
#X obj 1311 719 receive write5;
#X obj 1311 773 receive write6;
#X obj 1311 828 receive write7;
#X obj 987 762 receive write8;
#X obj 1311 964 receive write9;
#X obj 709 812 tabwrite~ wavy3;
#X obj 1167 798 tabwrite~ wavy3;
#X obj 1167 854 tabwrite~ wavy3;
#X obj 1167 910 tabwrite~ wavy3;
#X obj 1167 966 tabwrite~ wavy3;
#X obj 1311 746 tabwrite~ wavy3;
#X obj 1311 798 tabwrite~ wavy3;
#X obj 1311 854 tabwrite~ wavy3;
#X obj 987 812 tabwrite~ wavy3;
#X obj 1311 993 tabwrite~ wavy3;
#X obj 709 677 pack f f;
#X obj 987 677 pack f f;
#X obj 987 712 send write8;
#X msg 989 651 7;
#X obj 1082 558 metro 1;
#X obj 175 868 +~ 1;
#X obj 175 893 *~ 0.5;
#X obj 175 747 hv.drunk 100 7;
#X obj 175 840 osc~;
#X obj 175 779 sig~;
#X obj 247 810 metro 1;
#X obj 247 778 loadbang;
#X obj 319 778 bng 25 250 50 0 empty empty empty 17 7 0 10 #191919 #ffffff #ffffff;
#X obj 175 813 /~ 1000;
#X obj 164 927 *~ 0.05;
#X connect 1 0 114 0;
#X connect 2 0 173 0;
#X connect 3 0 47 0;
#X connect 4 0 48 0;
#X connect 5 0 49 0;
#X connect 6 0 7 0;
#X connect 7 0 8 0;
#X connect 8 0 42 1;
#X connect 8 0 121 1;
#X connect 8 0 123 0;
#X connect 9 0 10 0;
#X connect 10 0 123 1;
#X connect 12 0 51 0;
#X connect 13 0 25 0;
#X connect 14 0 53 0;
#X connect 15 0 26 0;
#X connect 16 0 55 0;
#X connect 17 0 24 0;
#X connect 18 0 24 0;
#X connect 19 0 25 0;
#X connect 20 0 26 0;
#X connect 21 0 27 0;
#X connect 22 0 56 0;
#X connect 23 0 27 0;
#X connect 24 0 12 0;
#X connect 25 0 14 0;
#X connect 26 0 16 0;
#X connect 27 0 22 0;
#X connect 28 0 31 0;
#X connect 29 0 28 0;
#X connect 30 0 29 0;
#X connect 31 0 65 0;
#X connect 32 0 173 0;
#X connect 33 0 35 0;
#X connect 34 0 37 1;
#X connect 35 0 34 0;
#X connect 36 0 35 0;
#X connect 37 0 0 0;
#X connect 37 0 0 1;
#X connect 38 0 39 0;
#X connect 39 0 1 0;
#X connect 40 0 41 0;
#X connect 41 0 3 0;
#X connect 42 0 43 0;
#X connect 43 0 4 0;
#X connect 44 0 45 0;
#X connect 45 0 5 0;
#X connect 47 0 170 1;
#X connect 51 0 52 0;
#X connect 52 0 38 0;
#X connect 52 0 85 0;
#X connect 53 0 54 0;
#X connect 54 0 42 0;
#X connect 54 0 87 0;
#X connect 54 0 40 1;
#X connect 54 0 44 0;
#X connect 55 0 6 0;
#X connect 56 0 118 0;
#X connect 57 0 80 0;
#X connect 58 0 59 0;
#X connect 59 0 60 0;
#X connect 60 0 77 0;
#X connect 60 0 73 0;
#X connect 61 0 67 0;
#X connect 62 0 63 0;
#X connect 63 0 64 0;
#X connect 64 0 127 0;
#X connect 65 0 74 0;
#X connect 66 0 37 0;
#X connect 67 0 68 0;
#X connect 67 0 183 0;
#X connect 68 0 66 0;
#X connect 69 0 71 0;
#X connect 69 0 70 0;
#X connect 70 0 80 2;
#X connect 71 0 57 2;
#X connect 72 0 71 0;
#X connect 72 0 70 0;
#X connect 73 0 80 1;
#X connect 74 0 76 0;
#X connect 76 0 128 0;
#X connect 77 0 81 0;
#X connect 79 0 61 1;
#X connect 80 0 61 0;
#X connect 81 0 82 0;
#X connect 82 0 57 1;
#X connect 83 0 63 0;
#X connect 84 0 59 0;
#X connect 85 0 86 0;
#X connect 86 0 121 0;
#X connect 87 0 88 0;
#X connect 88 0 38 1;
#X connect 90 0 97 0;
#X connect 91 0 99 0;
#X connect 92 0 103 0;
#X connect 93 0 109 0;
#X connect 94 0 95 0;
#X connect 95 0 106 0;
#X connect 96 0 94 0;
#X connect 96 1 94 1;
#X connect 97 0 102 0;
#X connect 98 0 112 0;
#X connect 99 0 113 0;
#X connect 100 0 94 0;
#X connect 100 0 92 0;
#X connect 101 0 96 0;
#X connect 101 0 93 0;
#X connect 102 0 117 0;
#X connect 103 0 105 0;
#X connect 103 1 104 0;
#X connect 104 0 90 0;
#X connect 105 0 90 0;
#X connect 106 0 108 0;
#X connect 106 1 107 0;
#X connect 107 0 119 0;
#X connect 108 0 119 0;
#X connect 109 0 111 0;
#X connect 109 1 110 0;
#X connect 110 0 91 0;
#X connect 111 0 91 0;
#X connect 112 0 117 0;
#X connect 113 0 117 0;
#X connect 114 0 169 1;
#X connect 115 0 29 0;
#X connect 116 0 56 1;
#X connect 118 0 9 0;
#X connect 119 0 98 0;
#X connect 120 0 128 0;
#X connect 121 0 122 0;
#X connect 122 0 40 0;
#X connect 123 0 124 0;
#X connect 124 0 44 1;
#X connect 125 0 126 0;
#X connect 127 0 79 0;
#X connect 128 0 57 0;
#X connect 129 0 169 0;
#X connect 149 0 159 0;
#X connect 150 0 160 0;
#X connect 151 0 161 0;
#X connect 152 0 162 0;
#X connect 153 0 163 0;
#X connect 154 0 164 0;
#X connect 155 0 165 0;
#X connect 156 0 166 0;
#X connect 157 0 167 0;
#X connect 158 0 168 0;
#X connect 169 0 139 0;
#X connect 170 0 171 0;
#X connect 172 0 170 0;
#X connect 173 0 4 0;
#X connect 173 0 1 0;
#X connect 173 0 3 0;
#X connect 173 0 5 0;
#X connect 173 0 129 0;
#X connect 173 0 172 0;
#X connect 174 0 175 0;
#X connect 175 0 125 1;
#X connect 176 0 178 0;
#X connect 177 0 174 0;
#X connect 178 0 182 0;
#X connect 179 0 176 0;
#X connect 180 0 179 0;
#X connect 181 0 179 0;
#X connect 182 0 177 0;
#X connect 183 0 125 0;
#X coords 40 72 2048 0 126 158 1 0 0;
