#N canvas 827 239 527 327 12;
#X obj 1362 807 cnv 15 518 648 empty empty Volume\ out 20 12 0 14 #626262 #ffffff 0;
#X obj 634 -218 cnv 15 894 222 empty empty knobs 20 12 0 14 #626262 #ffffff 0;
#X obj 1375 1392 dac~;
#X obj 986 -68 line~;
#X msg 986 -100 \$1 10;
#X obj 652 -161 hsl 128 17 0 1 0 0 empty empty empty -2 -8 0 10 #191919 #e1e1e1 #e1e1e1 0 1;
#X obj 649 -68 line~;
#X msg 649 -100 \$1 10;
#X obj 811 -161 hsl 128 17 0 1 0 0 empty empty empty -2 -8 0 10 #191919 #e1e1e1 #e1e1e1 0 1;
#X obj 808 -68 line~;
#X msg 808 -100 \$1 10;
#X obj 1145 -167 hsl 128 17 0 1 0 0 empty empty empty -2 -8 0 10 #191919 #e1e1e1 #e1e1e1 0 1;
#X obj 1142 -68 line~;
#X msg 1142 -100 \$1 10;
#X obj 1305 -162 hsl 128 17 0 1 0 0 empty empty empty -2 -8 0 10 #191919 #e1e1e1 #e1e1e1 0 1;
#X obj 1302 -102 line~;
#X msg 1302 -127 \$1 10;
#X obj 1722 889 hsl 128 17 0 1 0 0 empty empty empty -2 -8 0 10 #191919 #e1e1e1 #e1e1e1 0 1;
#X obj 1830 952 line~;
#X msg 1719 914 \$1 10;
#X obj 1719 1006 *~;
#X obj 1653 952 line~;
#X obj 1541 1006 *~;
#X obj 1403 881 hsl 128 17 0 1 0 0 empty empty empty -2 -8 0 10 #191919 #e1e1e1 #e1e1e1 0 1;
#X obj 1480 952 line~;
#X msg 1378 914 \$1 10;
#X obj 1378 1006 *~;
#X obj 649 -128 * 440;
#X obj 1378 848 r faderleft @hv_param;
#X obj 1719 854 r faderright @hv_param;
#X obj 649 -191 r knob0 @hv_param;
#X obj 808 -191 r knob1 @hv_param;
#X obj 989 -167 hsl 128 17 0 1 0 0 empty empty empty -2 -8 0 10 #191919 #e1e1e1 #e1e1e1 0 1;
#X obj 986 -191 r knob2 @hv_param;
#X obj 1147 -191 r knob3 @hv_param;
#X obj 1302 -191 r knob4 @hv_param;
#X obj 1380 1092 clip~ -0.95 0.95;
#X obj 1719 1092 clip~ -0.95 0.95;
#X obj 1380 1039 *~ 0.5;
#X obj 1541 1039 *~ 0.5;
#X obj 1380 1067 +~;
#X obj 1380 1142 +~;
#X obj 1455 1168 hsl 128 17 0 1 0 0 empty empty empty -2 -8 0 10 #191919 #e1e1e1 #e1e1e1 0 1;
#X obj 1452 1223 line~;
#X msg 1452 1195 \$1 10;
#X obj 1452 1141 r knob5 @hv_param;
#X obj 454 812 cnv 15 429 464 empty empty NOTE\ FREQUENCIES\ -\ F-MINOR 20 12 0 14 #626262 #ffffff 0;
#X msg 464 1036 \$1 20, f 9;
#X msg 674 1037 \$1 20, f 9;
#X obj 464 1001 change;
#X obj 674 1001 change;
#X obj 600 958 ==;
#X obj 600 1001 change;
#X obj 600 921 t b f;
#X msg 600 1037 \$1 20, f 9;
#X obj 464 1072 line~;
#X obj 600 1072 line~;
#X obj 674 1072 line~;
#X obj 600 1112 *~ 2;
#X obj 464 873 r toggle2down_press @hv_param;
#X obj 674 873 r toggle2up_press @hv_param;
#X text 476 839 Octave switcher by division:, f 37;
#X obj 692 1121 random 1000;
#X obj 692 1150 * 0.001;
#X obj 791 1103 bng 25 250 50 0 empty empty empty 17 7 0 10 #191919 #ffffff #ffffff;
#X obj 750 1150 random 2;
#X obj 692 1176 +;
#X obj 512 1138 *~;
#X obj 1375 1350 clip~ -0.5 0.5;
#X obj 1375 1308 hv.lop~;
#X obj 1375 1275 hv.lop~;
#X obj 634 22 cnv 15 897 761 empty empty TOUCHPADS\ NOTES 20 12 0 14 #626262 #ffffff 0;
#X obj 648 375 change;
#X obj 648 399 sel 0 1;
#X obj 648 343 r mpr121_driver_ch3 @hv_param;
#X obj 865 350 r mpr121_driver_ch4 @hv_param;
#X obj 1089 350 r mpr121_driver_ch5 @hv_param;
#X obj 1305 350 r mpr121_driver_ch6 @hv_param;
#X obj 650 569 r mpr121_driver_ch7 @hv_param;
#X obj 867 569 r mpr121_driver_ch8 @hv_param;
#X obj 1091 569 r mpr121_driver_ch9 @hv_param;
#X msg 648 441 53;
#X obj 648 516 s touchnote;
#X msg 705 441 99;
#X msg 683 441 0;
#X obj 709 82 notein;
#X text 709 45 midi input, f 19;
#X obj 709 245 route 1 2 3 4 5 6 7 8;
#X text 785 81 touchpad notes input, f 19;
#X obj 709 112 pack f f;
#X obj 1049 -134 loadbang;
#X msg 1014 -134 0.5;
#X obj 649 -32 s~ pitcher;
#X obj 808 -32 s~ carry;
#X obj 986 -32 s~ indy;
#X obj 1142 -32 s~ modspeed;
#X obj 1302 -32 s~ modamount;
#N canvas 733 172 450 300 dronevoice 0;
#X obj 370 233 +~;
#X obj 370 131 phasor~ 400;
#X obj 474 131 osc~ 50;
#X obj 474 204 *~;
#X obj 59 99 loadbang;
#X msg 59 131 0.5;
#X text 379 95 carrier;
#X text 466 95 modulator;
#X obj 370 266 cos~;
#X obj 220 395 *~;
#X obj 370 41 *~;
#X obj 59 570 hv.osc~ sine;
#X obj 59 486 +~;
#X obj 59 619 *~ 0.5;
#X obj 219 619 *~ 0.5;
#X obj 379 -11 *~ 5;
#X obj 409 350 osc~ 50;
#X obj 478 387 *~;
#X obj 69 404 *~ 3;
#X obj 59 525 *~ 2.02;
#X obj 639 24 hv.osc~ sine;
#X obj 639 -5 *~ 5;
#X obj 639 48 *~ -1;
#X obj 639 78 +~ 1;
#X obj 639 111 *~ 0.5;
#X obj 557 204 +~;
#X obj 634 197 *~;
#X obj 409 525 +~;
#X obj 219 570 hv.osc~ sine;
#X obj 409 570 hv.osc~ sine;
#X obj 409 321 *~ 0.5;
#X obj 478 423 *~ -1;
#X obj 478 453 +~ 1;
#X obj 478 486 *~ 0.5;
#X obj 409 647 clip~ -0.95 0.95;
#X obj 219 647 clip~ -0.95 0.95;
#X obj 59 651 clip~ -0.95 0.95;
#X obj 409 486 *~ 0.24;
#X obj 379 -41 r~ carry;
#X obj 557 -41 r~ indy;
#X obj 639 -39 r~ modspeed;
#X obj 744 -39 r~ modamount;
#X obj 59 -221 inlet;
#X obj 59 -41 sig~;
#X obj 59 -82 mtof;
#X obj 137 -41 /~ 127;
#X obj 59 27 *~;
#X obj 59 699 *~;
#X obj 219 699 *~;
#X obj 409 699 *~;
#X obj 59 746 throw~ \$0-osc1;
#X obj 219 746 throw~ \$0-osc2;
#X obj 409 746 throw~ \$0-osc3;
#X obj 137 -96 *~ 110;
#X obj 259 -261 r~ pitchmult;
#X obj 220 71 +~;
#X obj -61 58 r~ drift;
#X obj -61 235 *~;
#X obj -41 172 *~ -1;
#X obj -41 199 +~ 1;
#X obj -33 99 /~ 2.2;
#X obj 293 -96 r~ pitcher;
#X obj 259 -4 +~;
#X msg 79 -156 \$1 20, f 9;
#X obj 79 -129 line~;
#X msg -115 -180 1, f 4;
#X msg -199 -180 1, f 4;
#X obj -186 -104 +;
#X obj -186 -61 sel 2;
#X msg -186 2 1, f 4;
#X msg -234 -180 0, f 4;
#X obj -234 -275 r dronevel;
#X obj 59 -184 unpack f f f f;
#X obj -186 140 line~;
#X msg -186 110 \$1 10;
#X msg -148 -180 0, f 4;
#X obj -234 -212 sel 0 1;
#X obj -148 -212 sel 0 5;
#X obj 420 41 r~ carmult;
#X obj 409 188 *~;
#X obj 517 321 *~;
#X obj 639 150 *~;
#X msg -148 2 0, f 6;
#X floatatom -234 -149 5 0 0 0 - - - 0;
#X floatatom -148 -149 5 0 0 0 - - - 0;
#X floatatom -185 67 3 0 0 0 - - - 16;
#X connect 0 0 8 0;
#X connect 1 0 79 0;
#X connect 2 0 3 0;
#X connect 3 0 0 1;
#X connect 4 0 5 0;
#X connect 5 0 16 1;
#X connect 5 0 29 1;
#X connect 5 0 28 1;
#X connect 5 0 11 1;
#X connect 8 0 18 0;
#X connect 8 0 9 1;
#X connect 9 0 37 0;
#X connect 9 0 28 0;
#X connect 9 0 12 0;
#X connect 10 0 1 0;
#X connect 11 0 13 0;
#X connect 12 0 19 0;
#X connect 13 0 36 0;
#X connect 14 0 35 0;
#X connect 15 0 10 1;
#X connect 16 0 17 0;
#X connect 17 0 31 0;
#X connect 18 0 12 1;
#X connect 19 0 11 0;
#X connect 20 0 22 0;
#X connect 21 0 20 0;
#X connect 22 0 23 0;
#X connect 23 0 24 0;
#X connect 24 0 81 0;
#X connect 25 0 3 1;
#X connect 25 0 80 0;
#X connect 26 0 25 1;
#X connect 27 0 29 0;
#X connect 28 0 14 0;
#X connect 29 0 34 0;
#X connect 30 0 16 0;
#X connect 31 0 32 0;
#X connect 32 0 33 0;
#X connect 33 0 27 1;
#X connect 34 0 49 0;
#X connect 35 0 48 0;
#X connect 36 0 47 0;
#X connect 37 0 27 0;
#X connect 38 0 15 0;
#X connect 39 0 25 0;
#X connect 40 0 21 0;
#X connect 41 0 26 1;
#X connect 42 0 72 0;
#X connect 43 0 46 0;
#X connect 44 0 43 0;
#X connect 45 0 47 1;
#X connect 45 0 48 1;
#X connect 45 0 49 1;
#X connect 46 0 60 0;
#X connect 46 0 62 0;
#X connect 47 0 50 0;
#X connect 48 0 51 0;
#X connect 49 0 52 0;
#X connect 53 0 45 0;
#X connect 54 0 46 1;
#X connect 55 0 9 0;
#X connect 55 0 30 0;
#X connect 55 0 2 0;
#X connect 55 0 10 0;
#X connect 56 0 57 0;
#X connect 57 0 55 1;
#X connect 58 0 59 0;
#X connect 59 0 57 1;
#X connect 60 0 58 0;
#X connect 61 0 62 1;
#X connect 62 0 55 0;
#X connect 63 0 64 0;
#X connect 64 0 45 0;
#X connect 65 0 84 0;
#X connect 66 0 83 0;
#X connect 67 0 68 0;
#X connect 68 0 69 0;
#X connect 68 1 82 0;
#X connect 69 0 85 0;
#X connect 70 0 83 0;
#X connect 71 0 76 0;
#X connect 72 0 44 0;
#X connect 72 1 63 0;
#X connect 72 2 77 0;
#X connect 73 0 53 0;
#X connect 74 0 73 0;
#X connect 75 0 84 0;
#X connect 76 0 70 0;
#X connect 76 1 66 0;
#X connect 77 0 75 0;
#X connect 77 1 65 0;
#X connect 78 0 79 1;
#X connect 78 0 80 1;
#X connect 78 0 81 1;
#X connect 79 0 0 0;
#X connect 80 0 17 1;
#X connect 81 0 26 0;
#X connect 82 0 85 0;
#X connect 83 0 67 0;
#X connect 84 0 67 1;
#X connect 85 0 74 0;
#X restore 709 272 pd dronevoice;
#X obj 907 184 change;
#X obj 907 212 sel 1;
#X obj 907 239 tgl 25 0 empty empty empty 17 7 0 10 #191919 #e1e1e1 #e1e1e1 0 1;
#X text 907 119 volume drone on/off;
#X obj 907 153 r mpr121_driver_ch10 @hv_param;
#X obj 1378 952 catch~ \$0-osc1;
#X obj 1541 952 catch~ \$0-osc2;
#X obj 1719 952 catch~ \$0-osc3;
#X obj 785 109 r touchnote;
#X obj 570 1236 s~ pitchmult;
#X obj 1452 1250 *~ 3000;
#X obj 1259 224 line~;
#X obj 1259 110 change;
#X obj 1259 138 sel 1;
#X obj 1259 165 tgl 25 0 empty empty empty 17 7 0 10 #191919 #e1e1e1 #e1e1e1 0 1;
#X obj 1259 79 r mpr121_driver_ch1 @hv_param;
#X obj 1259 263 s~ drift;
#X text 1259 45 pitchdrift on/off;
#X obj 901 811 cnv 15 447 542 empty empty osc\ carrier\ modulator\ halving 20 12 0 14 #626262 #ffffff 0;
#X msg 931 1036 \$1 20, f 9;
#X msg 1141 1037 \$1 20, f 9;
#X obj 931 1001 change;
#X obj 1141 1001 change;
#X obj 1067 958 ==;
#X obj 1067 1001 change;
#X obj 1067 921 t b f;
#X msg 1067 1037 \$1 20, f 9;
#X obj 931 1072 line~;
#X obj 1067 1072 line~;
#X obj 1141 1072 line~;
#X obj 1159 1121 random 1000;
#X obj 1159 1150 * 0.001;
#X obj 1258 1103 bng 25 250 50 0 empty empty empty 17 7 0 10 #191919 #ffffff #ffffff;
#X obj 1217 1150 random 2;
#X obj 1159 1176 +;
#X obj 979 1138 *~;
#X text 943 839 switcher by division:, f 37;
#X obj 1067 1112 *~ 0.5;
#X obj 910 1175 hv.osc~ saw;
#X obj 943 1236 hv.osc~ sine;
#X obj 910 1283 *~;
#X obj 943 1205 *~ 1.33;
#X obj 931 873 r toggle1left_press @hv_param;
#X obj 1141 873 r toggle1right_press @hv_param;
#X msg 1259 198 \$1 1500;
#X obj 907 299 s dronevel;
#X obj 709 219 pack f f f f;
#X obj 648 494 pack f f f;
#X obj 709 158 unpack f f f f;
#X msg 772 441 5;
#X msg 744 441 0;
#X obj 1067 1326 s~ carmult;
#X obj 865 376 change;
#X obj 865 400 sel 0 1;
#X obj 865 517 s touchnote;
#X msg 922 442 99;
#X msg 900 442 0;
#X obj 865 495 pack f f f;
#X msg 989 442 5;
#X msg 961 442 0;
#X msg 865 442 55;
#X obj 1089 377 change;
#X obj 1089 401 sel 0 1;
#X obj 1089 518 s touchnote;
#X msg 1146 443 99;
#X msg 1124 443 0;
#X obj 1089 496 pack f f f;
#X msg 1213 443 5;
#X msg 1185 443 0;
#X msg 1089 443 56;
#X obj 1305 378 change;
#X obj 1305 402 sel 0 1;
#X obj 1305 519 s touchnote;
#X msg 1362 444 99;
#X msg 1340 444 0;
#X obj 1305 497 pack f f f;
#X msg 1429 444 5;
#X msg 1401 444 0;
#X obj 1091 598 change;
#X obj 1091 622 sel 0 1;
#X obj 1091 739 s touchnote;
#X msg 1148 664 99;
#X msg 1126 664 0;
#X obj 1091 717 pack f f f;
#X msg 1215 664 5;
#X msg 1187 664 0;
#X obj 867 598 change;
#X obj 867 622 sel 0 1;
#X obj 867 739 s touchnote;
#X msg 924 664 99;
#X msg 902 664 0;
#X obj 867 717 pack f f f;
#X msg 991 664 5;
#X msg 963 664 0;
#X obj 650 598 change;
#X obj 650 622 sel 0 1;
#X obj 650 739 s touchnote;
#X msg 707 664 99;
#X msg 685 664 0;
#X obj 650 717 pack f f f;
#X msg 774 664 5;
#X msg 746 664 0;
#X msg 650 664 60;
#X msg 867 664 61;
#X msg 1091 664 63;
#X msg 1305 444 58;
#X obj 709 192 poly 2 1;
#N canvas 733 172 450 300 dronevoice 1;
#X obj 370 233 +~;
#X obj 370 131 phasor~ 400;
#X obj 474 131 osc~ 50;
#X obj 474 204 *~;
#X obj 59 99 loadbang;
#X msg 59 131 0.5;
#X text 379 95 carrier;
#X text 466 95 modulator;
#X obj 370 266 cos~;
#X obj 220 395 *~;
#X obj 370 41 *~;
#X obj 59 570 hv.osc~ sine;
#X obj 59 486 +~;
#X obj 59 619 *~ 0.5;
#X obj 219 619 *~ 0.5;
#X obj 379 -11 *~ 5;
#X obj 409 350 osc~ 50;
#X obj 478 387 *~;
#X obj 69 404 *~ 3;
#X obj 59 525 *~ 2.02;
#X obj 639 24 hv.osc~ sine;
#X obj 639 -5 *~ 5;
#X obj 639 48 *~ -1;
#X obj 639 78 +~ 1;
#X obj 639 111 *~ 0.5;
#X obj 557 204 +~;
#X obj 634 197 *~;
#X obj 409 525 +~;
#X obj 219 570 hv.osc~ sine;
#X obj 409 570 hv.osc~ sine;
#X obj 409 321 *~ 0.5;
#X obj 478 423 *~ -1;
#X obj 478 453 +~ 1;
#X obj 478 486 *~ 0.5;
#X obj 409 647 clip~ -0.95 0.95;
#X obj 219 647 clip~ -0.95 0.95;
#X obj 59 651 clip~ -0.95 0.95;
#X obj 409 486 *~ 0.24;
#X obj 379 -41 r~ carry;
#X obj 557 -41 r~ indy;
#X obj 639 -39 r~ modspeed;
#X obj 744 -39 r~ modamount;
#X obj 59 -221 inlet;
#X obj 59 -41 sig~;
#X obj 59 -82 mtof;
#X obj 137 -41 /~ 127;
#X obj 59 27 *~;
#X obj 59 699 *~;
#X obj 219 699 *~;
#X obj 409 699 *~;
#X obj 59 746 throw~ \$0-osc1;
#X obj 219 746 throw~ \$0-osc2;
#X obj 409 746 throw~ \$0-osc3;
#X obj 137 -96 *~ 110;
#X obj 259 -261 r~ pitchmult;
#X obj 220 71 +~;
#X obj -61 58 r~ drift;
#X obj -61 235 *~;
#X obj -41 172 *~ -1;
#X obj -41 199 +~ 1;
#X obj -33 99 /~ 2.2;
#X obj 293 -96 r~ pitcher;
#X obj 259 -4 +~;
#X msg 79 -156 \$1 20, f 9;
#X obj 79 -129 line~;
#X msg -115 -180 1, f 4;
#X msg -199 -180 1, f 4;
#X obj -186 -104 +;
#X obj -186 -61 sel 2;
#X msg -186 2 1, f 4;
#X msg -234 -180 0, f 4;
#X obj -234 -275 r dronevel;
#X obj 59 -184 unpack f f f f;
#X obj -186 140 line~;
#X msg -186 110 \$1 10;
#X msg -148 -180 0, f 4;
#X obj -234 -212 sel 0 1;
#X obj -148 -212 sel 0 5;
#X obj 420 41 r~ carmult;
#X obj 409 188 *~;
#X obj 517 321 *~;
#X obj 639 150 *~;
#X msg -148 2 0, f 6;
#X floatatom -234 -149 5 0 0 0 - - - 0;
#X floatatom -148 -149 5 0 0 0 - - - 0;
#X floatatom -185 67 3 0 0 0 - - - 16;
#X connect 0 0 8 0;
#X connect 1 0 79 0;
#X connect 2 0 3 0;
#X connect 3 0 0 1;
#X connect 4 0 5 0;
#X connect 5 0 16 1;
#X connect 5 0 29 1;
#X connect 5 0 28 1;
#X connect 5 0 11 1;
#X connect 8 0 18 0;
#X connect 8 0 9 1;
#X connect 9 0 37 0;
#X connect 9 0 28 0;
#X connect 9 0 12 0;
#X connect 10 0 1 0;
#X connect 11 0 13 0;
#X connect 12 0 19 0;
#X connect 13 0 36 0;
#X connect 14 0 35 0;
#X connect 15 0 10 1;
#X connect 16 0 17 0;
#X connect 17 0 31 0;
#X connect 18 0 12 1;
#X connect 19 0 11 0;
#X connect 20 0 22 0;
#X connect 21 0 20 0;
#X connect 22 0 23 0;
#X connect 23 0 24 0;
#X connect 24 0 81 0;
#X connect 25 0 3 1;
#X connect 25 0 80 0;
#X connect 26 0 25 1;
#X connect 27 0 29 0;
#X connect 28 0 14 0;
#X connect 29 0 34 0;
#X connect 30 0 16 0;
#X connect 31 0 32 0;
#X connect 32 0 33 0;
#X connect 33 0 27 1;
#X connect 34 0 49 0;
#X connect 35 0 48 0;
#X connect 36 0 47 0;
#X connect 37 0 27 0;
#X connect 38 0 15 0;
#X connect 39 0 25 0;
#X connect 40 0 21 0;
#X connect 41 0 26 1;
#X connect 42 0 72 0;
#X connect 43 0 46 0;
#X connect 44 0 43 0;
#X connect 45 0 47 1;
#X connect 45 0 48 1;
#X connect 45 0 49 1;
#X connect 46 0 60 0;
#X connect 46 0 62 0;
#X connect 47 0 50 0;
#X connect 48 0 51 0;
#X connect 49 0 52 0;
#X connect 53 0 45 0;
#X connect 54 0 46 1;
#X connect 55 0 9 0;
#X connect 55 0 30 0;
#X connect 55 0 2 0;
#X connect 55 0 10 0;
#X connect 56 0 57 0;
#X connect 57 0 55 1;
#X connect 58 0 59 0;
#X connect 59 0 57 1;
#X connect 60 0 58 0;
#X connect 61 0 62 1;
#X connect 62 0 55 0;
#X connect 63 0 64 0;
#X connect 64 0 45 0;
#X connect 65 0 84 0;
#X connect 66 0 83 0;
#X connect 67 0 68 0;
#X connect 68 0 69 0;
#X connect 68 1 82 0;
#X connect 69 0 85 0;
#X connect 70 0 83 0;
#X connect 71 0 76 0;
#X connect 72 0 44 0;
#X connect 72 1 63 0;
#X connect 72 2 77 0;
#X connect 73 0 53 0;
#X connect 74 0 73 0;
#X connect 75 0 84 0;
#X connect 76 0 70 0;
#X connect 76 1 66 0;
#X connect 77 0 75 0;
#X connect 77 1 65 0;
#X connect 78 0 79 1;
#X connect 78 0 80 1;
#X connect 78 0 81 1;
#X connect 79 0 0 0;
#X connect 80 0 17 1;
#X connect 81 0 26 0;
#X connect 82 0 85 0;
#X connect 83 0 67 0;
#X connect 84 0 67 1;
#X connect 85 0 74 0;
#X restore 726 299 pd dronevoice;
#X connect 3 0 94 0;
#X connect 4 0 3 0;
#X connect 5 0 27 0;
#X connect 6 0 92 0;
#X connect 7 0 6 0;
#X connect 8 0 10 0;
#X connect 9 0 93 0;
#X connect 10 0 9 0;
#X connect 11 0 13 0;
#X connect 12 0 95 0;
#X connect 13 0 12 0;
#X connect 14 0 16 0;
#X connect 15 0 96 0;
#X connect 16 0 15 0;
#X connect 17 0 19 0;
#X connect 18 0 20 1;
#X connect 19 0 18 0;
#X connect 20 0 37 0;
#X connect 21 0 22 1;
#X connect 22 0 39 0;
#X connect 23 0 25 0;
#X connect 24 0 26 1;
#X connect 25 0 24 0;
#X connect 25 0 21 0;
#X connect 26 0 38 0;
#X connect 27 0 7 0;
#X connect 28 0 25 0;
#X connect 29 0 19 0;
#X connect 30 0 27 0;
#X connect 31 0 10 0;
#X connect 32 0 4 0;
#X connect 33 0 4 0;
#X connect 34 0 13 0;
#X connect 35 0 16 0;
#X connect 36 0 41 0;
#X connect 37 0 41 1;
#X connect 38 0 40 0;
#X connect 39 0 40 1;
#X connect 40 0 36 0;
#X connect 41 0 70 0;
#X connect 42 0 44 0;
#X connect 43 0 108 0;
#X connect 44 0 43 0;
#X connect 45 0 44 0;
#X connect 47 0 55 0;
#X connect 47 0 64 0;
#X connect 48 0 57 0;
#X connect 49 0 47 0;
#X connect 50 0 48 0;
#X connect 51 0 52 0;
#X connect 52 0 54 0;
#X connect 53 0 51 0;
#X connect 53 1 51 1;
#X connect 54 0 56 0;
#X connect 55 0 67 0;
#X connect 56 0 58 0;
#X connect 57 0 107 0;
#X connect 58 0 107 0;
#X connect 59 0 51 0;
#X connect 59 0 49 0;
#X connect 60 0 53 0;
#X connect 60 0 50 0;
#X connect 62 0 63 0;
#X connect 63 0 66 0;
#X connect 64 0 62 0;
#X connect 64 0 65 0;
#X connect 65 0 66 1;
#X connect 66 0 67 1;
#X connect 67 0 107 0;
#X connect 68 0 2 0;
#X connect 68 0 2 1;
#X connect 69 0 68 0;
#X connect 70 0 69 0;
#X connect 72 0 73 0;
#X connect 73 0 81 0;
#X connect 73 0 84 0;
#X connect 73 0 148 0;
#X connect 73 1 81 0;
#X connect 73 1 83 0;
#X connect 73 1 147 0;
#X connect 74 0 72 0;
#X connect 75 0 150 0;
#X connect 76 0 159 0;
#X connect 77 0 168 0;
#X connect 78 0 192 0;
#X connect 79 0 184 0;
#X connect 80 0 176 0;
#X connect 81 0 145 0;
#X connect 83 0 145 1;
#X connect 84 0 145 1;
#X connect 85 0 89 0;
#X connect 85 1 89 1;
#X connect 87 0 97 0;
#X connect 87 1 205 0;
#X connect 89 0 146 0;
#X connect 90 0 91 0;
#X connect 91 0 4 0;
#X connect 98 0 99 0;
#X connect 99 0 100 0;
#X connect 100 0 143 0;
#X connect 102 0 98 0;
#X connect 103 0 26 0;
#X connect 104 0 22 0;
#X connect 105 0 20 0;
#X connect 106 0 146 0;
#X connect 108 0 69 1;
#X connect 108 0 70 1;
#X connect 109 0 114 0;
#X connect 110 0 111 0;
#X connect 111 0 112 0;
#X connect 112 0 142 0;
#X connect 113 0 110 0;
#X connect 117 0 125 0;
#X connect 117 0 130 0;
#X connect 118 0 127 0;
#X connect 119 0 117 0;
#X connect 120 0 118 0;
#X connect 121 0 122 0;
#X connect 122 0 124 0;
#X connect 123 0 121 0;
#X connect 123 1 121 1;
#X connect 124 0 126 0;
#X connect 125 0 133 0;
#X connect 126 0 135 0;
#X connect 127 0 149 0;
#X connect 128 0 129 0;
#X connect 129 0 132 0;
#X connect 130 0 128 0;
#X connect 130 0 131 0;
#X connect 131 0 132 1;
#X connect 132 0 133 1;
#X connect 133 0 136 0;
#X connect 133 0 139 0;
#X connect 135 0 149 0;
#X connect 136 0 138 0;
#X connect 137 0 138 1;
#X connect 138 0 149 0;
#X connect 139 0 137 0;
#X connect 140 0 121 0;
#X connect 140 0 119 0;
#X connect 141 0 123 0;
#X connect 141 0 120 0;
#X connect 142 0 109 0;
#X connect 144 0 87 0;
#X connect 145 0 82 0;
#X connect 146 0 204 0;
#X connect 146 1 204 1;
#X connect 146 2 144 3;
#X connect 147 0 145 2;
#X connect 148 0 145 2;
#X connect 150 0 151 0;
#X connect 151 0 158 0;
#X connect 151 0 154 0;
#X connect 151 0 157 0;
#X connect 151 1 158 0;
#X connect 151 1 153 0;
#X connect 151 1 156 0;
#X connect 153 0 155 1;
#X connect 154 0 155 1;
#X connect 155 0 152 0;
#X connect 156 0 155 2;
#X connect 157 0 155 2;
#X connect 158 0 155 0;
#X connect 159 0 160 0;
#X connect 160 0 167 0;
#X connect 160 0 163 0;
#X connect 160 0 166 0;
#X connect 160 1 167 0;
#X connect 160 1 162 0;
#X connect 160 1 165 0;
#X connect 162 0 164 1;
#X connect 163 0 164 1;
#X connect 164 0 161 0;
#X connect 165 0 164 2;
#X connect 166 0 164 2;
#X connect 167 0 164 0;
#X connect 168 0 169 0;
#X connect 169 0 203 0;
#X connect 169 0 172 0;
#X connect 169 0 175 0;
#X connect 169 1 203 0;
#X connect 169 1 171 0;
#X connect 169 1 174 0;
#X connect 171 0 173 1;
#X connect 172 0 173 1;
#X connect 173 0 170 0;
#X connect 174 0 173 2;
#X connect 175 0 173 2;
#X connect 176 0 177 0;
#X connect 177 0 202 0;
#X connect 177 0 180 0;
#X connect 177 0 183 0;
#X connect 177 1 202 0;
#X connect 177 1 179 0;
#X connect 177 1 182 0;
#X connect 179 0 181 1;
#X connect 180 0 181 1;
#X connect 181 0 178 0;
#X connect 182 0 181 2;
#X connect 183 0 181 2;
#X connect 184 0 185 0;
#X connect 185 0 201 0;
#X connect 185 0 188 0;
#X connect 185 0 191 0;
#X connect 185 1 201 0;
#X connect 185 1 187 0;
#X connect 185 1 190 0;
#X connect 187 0 189 1;
#X connect 188 0 189 1;
#X connect 189 0 186 0;
#X connect 190 0 189 2;
#X connect 191 0 189 2;
#X connect 192 0 193 0;
#X connect 193 0 200 0;
#X connect 193 0 196 0;
#X connect 193 0 199 0;
#X connect 193 1 200 0;
#X connect 193 1 195 0;
#X connect 193 1 198 0;
#X connect 195 0 197 1;
#X connect 196 0 197 1;
#X connect 197 0 194 0;
#X connect 198 0 197 2;
#X connect 199 0 197 2;
#X connect 200 0 197 0;
#X connect 201 0 189 0;
#X connect 202 0 181 0;
#X connect 203 0 173 0;
#X connect 204 0 144 0;
#X connect 204 1 144 1;
#X connect 204 2 144 2;
