#N canvas 827 239 527 327 12;
#X obj 104 90 inlet;
#X obj 104 649 outlet;
#X obj 157 90 inlet;
#X obj 220 64 loadbang;
#X obj 220 90 f \$1;
#X obj 104 608 spigot;
#X obj 140 371 moses;
#X obj 127 498 >=;
#X obj 165 303 f;
#X obj 184 498 <=;
#X msg 240 524 0;
#X obj 176 608 spigot;
#X obj 127 524 sel 0;
#X obj 184 524 sel 0;
#X obj 157 159 t f f;
#X obj 168 249 sel 1;
#X obj 104 210 spigot;
#X obj 157 133 ==;
#X obj 282 649 outlet;
#X obj 165 335 t f f f b f;
#X obj 176 649 s \$0-current;
#X obj 223 249 r \$0-current;
#X obj 104 555 t f f;
#X obj 104 249 t f f;
#X obj 181 412 - 0.001;
#X obj 197 456 + 0.001;
#X connect 0 0 16 0;
#X connect 2 0 17 0;
#X connect 3 0 4 0;
#X connect 4 0 17 1;
#X connect 5 0 1 0;
#X connect 5 0 20 0;
#X connect 5 0 18 0;
#X connect 6 0 7 0;
#X connect 6 1 9 0;
#X connect 7 0 12 0;
#X connect 8 0 19 0;
#X connect 9 0 13 0;
#X connect 10 0 5 1;
#X connect 10 0 11 1;
#X connect 11 0 1 0;
#X connect 11 0 20 0;
#X connect 11 0 18 0;
#X connect 12 1 5 1;
#X connect 13 1 11 1;
#X connect 14 0 16 1;
#X connect 14 1 15 0;
#X connect 15 0 8 0;
#X connect 16 0 23 0;
#X connect 17 0 14 0;
#X connect 19 0 6 1;
#X connect 19 1 24 0;
#X connect 19 2 25 0;
#X connect 19 3 10 0;
#X connect 19 4 18 0;
#X connect 21 0 8 1;
#X connect 22 0 5 0;
#X connect 22 1 11 0;
#X connect 23 0 22 0;
#X connect 23 1 6 0;
#X connect 24 0 7 1;
#X connect 25 0 9 1;
