#N canvas 827 239 527 327 12;
#X obj 289 361 cnv 15 885 340 empty empty Synthvoices 20 12 0 14 #626262 #ffffff 0;
#X obj 1197 711 cnv 15 518 648 empty empty Volume\ out 20 12 0 14 #626262 #ffffff 0;
#X obj 289 113 cnv 15 982 232 empty empty knobs 20 12 0 14 #626262 #ffffff 0;
#X obj 1210 1296 dac~;
#X obj 641 263 line~;
#X msg 641 231 \$1 10;
#X obj 307 170 hsl 128 17 0 1 0 0 empty empty empty -2 -8 0 10 #191919 #e1e1e1 #e1e1e1 0 1;
#X obj 304 263 line~;
#X msg 304 231 \$1 10;
#X obj 466 170 hsl 128 17 0 1 0 0 empty empty empty -2 -8 0 10 #191919 #e1e1e1 #e1e1e1 0 1;
#X obj 463 263 line~;
#X msg 463 231 \$1 10;
#X obj 800 164 hsl 128 17 0 1 0 0 empty empty empty -2 -8 0 10 #191919 #e1e1e1 #e1e1e1 0 1;
#X obj 797 263 line~;
#X msg 797 231 \$1 10;
#X obj 960 169 hsl 128 17 0 1 0 0 empty empty empty -2 -8 0 10 #191919 #e1e1e1 #e1e1e1 0 1;
#X obj 957 263 line~;
#X msg 957 231 \$1 10;
#X obj 1554 910 *~;
#X obj 1376 910 *~;
#X obj 1238 785 hsl 128 17 0 1 0 0 empty empty empty -2 -8 0 10 #191919 #e1e1e1 #e1e1e1 0 1;
#X obj 1334 818 line~;
#X msg 1213 818 \$1 10;
#X obj 1213 910 *~;
#X obj 304 203 * 440;
#X obj 304 140 r knob0 @hv_param;
#X obj 463 140 r knob1 @hv_param;
#X obj 644 164 hsl 128 17 0 1 0 0 empty empty empty -2 -8 0 10 #191919 #e1e1e1 #e1e1e1 0 1;
#X obj 641 140 r knob2 @hv_param;
#X obj 802 140 r knob3 @hv_param;
#X obj 957 140 r knob4 @hv_param;
#X obj 1215 996 clip~ -0.95 0.95;
#X obj 1554 996 clip~ -0.95 0.95;
#X obj 1215 971 +~;
#X obj 1215 1046 +~;
#X obj 1290 1072 hsl 128 17 0 1 0 0 empty empty empty -2 -8 0 10 #191919 #e1e1e1 #e1e1e1 0 1;
#X obj 1287 1127 line~;
#X msg 1287 1099 \$1 10;
#X obj -178 113 cnv 15 446 386 empty empty NOTE\ FREQUENCIES\ -\ F-MINOR 20 12 0 14 #626262 #ffffff 0;
#X msg -146 333 \$1 20, f 9;
#X msg 64 334 \$1 20, f 9;
#X obj -146 298 change;
#X obj 64 298 change;
#X obj -10 255 ==;
#X obj -10 298 change;
#X obj -10 218 t b f;
#X msg -10 334 \$1 20, f 9;
#X obj -146 369 line~;
#X obj -10 369 line~;
#X obj 64 369 line~;
#X obj -146 170 r toggle2down_press @hv_param;
#X obj 64 170 r toggle2up_press @hv_param;
#X text -134 136 Octave switcher by division:, f 37;
#X obj 1210 1212 hv.lop~;
#X obj 1210 1179 hv.lop~;
#X obj 289 711 cnv 15 885 514 empty empty TOUCHPADS\ NOTES 20 12 0 14 #626262 #ffffff 0;
#X obj 305 738 r mpr121_driver_ch3 @hv_param;
#X obj 520 738 r mpr121_driver_ch4 @hv_param;
#X obj 744 738 r mpr121_driver_ch5 @hv_param;
#X obj 961 738 r mpr121_driver_ch6 @hv_param;
#X obj 305 983 r mpr121_driver_ch7 @hv_param;
#X obj 522 983 r mpr121_driver_ch8 @hv_param;
#X obj 746 983 r mpr121_driver_ch9 @hv_param;
#X obj 305 385 notein;
#X text 381 384 touchpad notes input, f 19;
#X obj 305 428 pack f f;
#X obj 1213 856 catch~ \$0-osc1;
#X obj 1376 856 catch~ \$0-osc2;
#X obj 1554 856 catch~ \$0-osc3;
#X obj 381 428 r touchnote;
#X obj 1287 1154 *~ 3000;
#X obj 925 586 line~;
#X obj 925 472 change;
#X obj 925 500 sel 1;
#X obj 925 527 tgl 25 0 empty empty empty 17 7 0 10 #191919 #e1e1e1 #e1e1e1 0 1;
#X obj 925 441 r mpr121_driver_ch1 @hv_param;
#X obj 925 652 s~ drift;
#X text 925 407 pitchdrift on/off;
#X obj -178 517 cnv 15 446 495 empty empty osc\ carrier\ modulator\ halving 20 12 0 14 #626262 #ffffff 0;
#X msg -149 742 \$1 20, f 9;
#X msg 61 743 \$1 20, f 9;
#X obj -149 707 change;
#X obj 61 707 change;
#X obj -13 664 ==;
#X obj -13 707 change;
#X obj -13 627 t b f;
#X msg -13 743 \$1 20, f 9;
#X obj -149 778 line~;
#X obj -13 786 line~;
#X obj 61 778 line~;
#X obj 79 827 random 1000;
#X obj 79 856 * 0.001;
#X obj 178 809 bng 25 250 50 0 empty empty empty 17 7 0 10 #191919 #ffffff #ffffff;
#X obj 137 856 random 2;
#X obj 79 882 +;
#X obj -149 818 *~;
#X text -137 545 switcher by division:, f 37;
#X obj -149 858 hv.osc~ saw;
#X obj -116 919 hv.osc~ sine;
#X obj -149 956 *~;
#X obj -116 888 *~ 1.33;
#X obj -149 579 r toggle1left_press @hv_param;
#X obj 61 579 r toggle1right_press @hv_param;
#X msg 925 560 \$1 1500;
#X obj 520 831 sel 0 1;
#X obj 520 955 s touchnote;
#X msg 577 889 99;
#X msg 555 889 0;
#X msg 520 889 55;
#X obj 1284 114 cnv 15 401 561 empty empty latching\ double\ function\ faders 20 12 0 14 #626262 #ffffff 0;
#X obj 1301 147 r faderleft @hv_param;
#X obj 1302 341 latch 0, f 9;
#X obj 1382 341 latch 1, f 8;
#X obj 1302 373 s faderleftlatch0;
#X obj 1305 404 r faderright @hv_param;
#X obj 1306 636 s faderrightlatch0;
#X obj 1427 636 s faderrightlatch1;
#X obj 1306 598 latch 0, f 9;
#X obj 1386 598 latch 1, f 8;
#X obj 1420 373 s faderleftlatch1;
#X obj 1213 745 r faderleftlatch0;
#X obj 1461 147 r mpr121_driver_ch0 @hv_param;
#X obj 1465 402 r mpr121_driver_ch2 @hv_param;
#X obj 305 461 unpack f f;
#X obj 305 522 pack f f f;
#X obj 593 427 r faderleftlatch1;
#X obj 765 427 r faderrightlatch1;
#X obj 1419 723 loadbang;
#X msg 1419 777 0.5;
#X obj 520 918 pack f f;
#X obj 305 831 sel 0 1;
#X obj 305 955 s touchnote;
#X msg 362 889 99;
#X msg 340 889 0;
#X obj 305 918 pack f f;
#X msg 305 889 53;
#X obj 744 833 sel 0 1;
#X obj 744 950 s touchnote;
#X msg 801 891 99;
#X msg 779 891 0;
#X obj 744 920 pack f f;
#X msg 744 891 56;
#X obj 961 833 sel 0 1;
#X obj 961 950 s touchnote;
#X msg 1018 891 99;
#X msg 996 891 0;
#X obj 961 920 pack f f;
#X msg 961 891 58;
#X obj 305 1078 sel 0 1;
#X obj 305 1195 s touchnote;
#X msg 362 1136 99;
#X msg 340 1136 0;
#X obj 305 1165 pack f f;
#X obj 305 1013 change;
#X msg 305 1136 60;
#X obj 522 1078 sel 0 1;
#X obj 522 1195 s touchnote;
#X msg 579 1136 99;
#X msg 557 1136 0;
#X obj 522 1165 pack f f;
#X obj 522 1013 change;
#X msg 522 1136 61;
#X obj 746 1078 sel 0 1;
#X obj 746 1195 s touchnote;
#X msg 803 1136 99;
#X msg 781 1136 0;
#X obj 746 1165 pack f f;
#X obj 746 1013 change;
#X msg 746 1136 63;
#X obj 593 485 line~;
#X msg 593 460 \$1 10;
#X obj 593 515 *~ 3000;
#X obj 593 558 snapshot~;
#X obj 593 593 change;
#X msg 663 593 5;
#X obj 765 485 line~;
#X msg 765 460 \$1 10;
#X obj 765 515 *~ 3000;
#X obj 765 558 snapshot~;
#X obj 683 496 metro 10;
#X obj 692 460 loadbang, f 9;
#X obj 765 593 change;
#X text 598 404 attack;
#X text 765 404 decay;
#X msg 835 593 200;
#X obj 593 652 s attack;
#X obj 765 652 s decay;
#X obj 358 858 t b b;
#X obj 305 858 t b b;
#X obj 520 858 t b b;
#X obj 573 858 t b b;
#X obj 744 858 t b b;
#X obj 797 858 t b b;
#X obj 961 858 t b b;
#X obj 1014 858 t b b;
#X obj 358 1106 t b b;
#X obj 305 1106 t b b;
#X obj 575 1106 t b b;
#X obj 522 1106 t b b;
#X obj 799 1106 t b b;
#X obj 746 1106 t b b;
#N canvas 733 172 450 300 3oscsynth 0;
#X obj 741 661 clip~ -0.95 0.95;
#X obj 539 663 clip~ -0.95 0.95;
#X obj 539 265 sig~;
#X obj 539 320 *~;
#X obj 539 711 *~;
#X obj 741 713 *~;
#X obj 539 1206 throw~ \$0-osc1;
#X obj 741 1208 throw~ \$0-osc2;
#X obj 539 458 +~;
#X obj 461 293 r~ drift;
#X obj 461 429 *~;
#X obj 481 366 *~ -1;
#X obj 481 393 +~ 1;
#X obj 539 236 mtof;
#X obj 585 123 sel 0;
#X obj 585 90 moses 0.01;
#X obj 638 236 line~;
#X obj 638 123 / 127;
#X obj 638 175 pack;
#X msg 638 208 \$1 \$2;
#X obj 706 173 pack;
#X msg 706 206 \$1 \$2;
#X msg 587 149 0;
#X obj 653 149 r attack;
#X obj 721 147 r decay;
#X obj 539 25 inlet;
#X obj 539 59 unpack f f;
#X obj 972 438 *~;
#X obj 539 583 hv.osc~ saw;
#X obj 539 547 *~ 0.5;
#X obj 1161 371 *~ 10;
#X obj 1161 438 *~;
#X obj 550 293 r~ pitchswitch;
#X obj 817 295 r~ knob0;
#X obj 890 295 r~ knob1;
#X obj 993 295 r~ knob2;
#X obj 1062 295 r~ knob3;
#X obj 1161 295 r~ knob4;
#X obj 741 585 hv.osc~ saw;
#X obj 797 194 r~ leftswitch;
#X obj 797 344 *~;
#X obj 797 438 *~;
#X obj 539 507 +~;
#X obj 972 371 *~ 4;
#X obj 1280 295 r~ knob5;
#X obj 972 340 *~;
#X obj 741 547 +~;
#X obj 1161 340 *~;
#X obj 931 547 +~;
#X obj 797 466 *~ 10;
#X obj 539 631 *~ 0.2;
#X obj 741 633 *~ 0.2;
#X obj 797 407 hv.osc~ saw;
#X obj 972 407 hv.osc~ saw;
#X obj 1161 407 hv.osc~ saw;
#X obj 342 346 hv.drunk;
#X obj 481 340 /~;
#X obj 342 199 loadbang;
#X obj 382 230 bng 25 250 50 0 empty empty empty 17 7 0 10 #191919 #ffffff #ffffff;
#X msg 361 293 20;
#X msg 382 314 3;
#X obj 342 429 line~;
#X obj 342 265 metro 50;
#X obj 797 236 *~ 0.01;
#X msg 342 400 \$1 \$2;
#X obj 342 375 pack;
#X obj 451 166 snapshot~;
#X obj 451 236 *;
#X obj 451 199 * 100;
#X obj 539 1150 *~;
#X obj 741 1150 *~;
#X obj 394 583 phasor~;
#X obj 461 494 *~ 0.01;
#X obj 394 711 *~;
#X obj 14 524 line~;
#X obj 14 559 *~ -1;
#X obj 14 586 +~ 1;
#X msg 14 498 \$1 100;
#X obj 14 403 change;
#X obj 14 431 sel 1;
#X obj 14 458 tgl 25 0 empty empty empty 17 7 0 10 #191919 #e1e1e1 #e1e1e1 0 1;
#X obj 84 403 loadbang;
#X msg 87 433 1;
#X obj 84 472 sig~;
#X obj 441 711 *~;
#X obj 14 372 r mpr121_driver_ch10 @hv_param;
#X text 14 343 drift vol;
#X obj 308 559 / 127;
#X obj 394 556 *~ 0.08;
#X obj 288 494 hsl 128 17 0 127 0 0 empty empty empty -2 -8 0 10 #191919 #ffffff #ffffff 0 1;
#X obj 27 734 / 127;
#X obj -11 659 hsl 128 21 0 127 0 0 empty empty empty -2 -8 0 10 #191919 #ffffff #ffffff 0 1;
#X obj 62 830 line~;
#X obj 62 865 *~ -1;
#X obj 62 892 +~ 1;
#X msg 62 804 \$1 100;
#X obj 256 784 *~;
#X obj 308 784 *~;
#X obj 27 693 ctlin 4;
#X obj 308 518 ctlin 9;
#X obj 972 466 *~ 13;
#X obj 1161 466 *~ 15;
#X text 1299 318 Pulse-width control (0..1);
#X obj 1282 417 snapshot~;
#X obj 1298 371 loadbang;
#X obj 1298 393 metro 2;
#X obj 87 698 loadbang;
#X msg 87 724 0.5;
#X obj 364 518 loadbang;
#X msg 364 544 0.05;
#X text 1099 937 Pulse-width control (0..1);
#X obj 1043 939 osc~;
#X obj 1043 975 *~ 10000;
#X obj 931 1061 *~;
#X obj 1043 1007 clip~ -1 1;
#X obj 931 1007 +~;
#X obj 1094 750 *~;
#X obj 1104 585 line~;
#X obj 1094 875 snapshot~;
#X obj 1001 585 loadbang;
#X obj 1069 585 bng 25 250 50 0 empty empty empty 17 7 0 10 #191919 #ffffff #ffffff;
#X obj 1094 724 hv.osc~ sine;
#X obj 931 585 *~ 1;
#X obj 1094 777 *~ -1;
#X obj 1094 805 +~ 1;
#X obj 1094 833 *~ 0.5;
#X obj 931 1110 *~ 0.2;
#X obj 1001 624 metro 1;
#X obj 1094 689 phasor~;
#X obj 1001 659 hv.drunk 100 15;
#X obj 1001 691 / 100;
#X obj 1001 716 sig~;
#X obj 990 756 *~;
#X obj 931 939 hv.osc~ square;
#X obj 931 1217 throw~ \$0-osc3;
#X obj 931 1150 clip~ -0.95 0.95;
#X connect 0 0 5 0;
#X connect 1 0 4 0;
#X connect 2 0 3 0;
#X connect 3 0 8 0;
#X connect 3 0 56 0;
#X connect 4 0 69 0;
#X connect 5 0 70 0;
#X connect 8 0 46 0;
#X connect 8 0 48 0;
#X connect 8 0 42 0;
#X connect 9 0 10 0;
#X connect 10 0 72 0;
#X connect 10 0 88 0;
#X connect 11 0 12 0;
#X connect 12 0 10 1;
#X connect 13 0 2 0;
#X connect 14 0 22 0;
#X connect 15 0 14 0;
#X connect 15 1 17 0;
#X connect 16 0 4 1;
#X connect 16 0 5 1;
#X connect 16 0 113 1;
#X connect 17 0 18 0;
#X connect 17 0 67 1;
#X connect 18 0 19 0;
#X connect 19 0 16 0;
#X connect 20 0 21 0;
#X connect 21 0 16 0;
#X connect 22 0 20 0;
#X connect 23 0 18 1;
#X connect 24 0 20 1;
#X connect 25 0 26 0;
#X connect 26 0 13 0;
#X connect 26 1 15 0;
#X connect 27 0 100 0;
#X connect 28 0 50 0;
#X connect 29 0 28 0;
#X connect 30 0 54 0;
#X connect 31 0 101 0;
#X connect 32 0 3 1;
#X connect 33 0 40 1;
#X connect 34 0 41 1;
#X connect 35 0 45 1;
#X connect 36 0 27 1;
#X connect 36 0 31 1;
#X connect 37 0 47 1;
#X connect 38 0 51 0;
#X connect 39 0 63 0;
#X connect 39 0 66 0;
#X connect 40 0 52 0;
#X connect 41 0 49 0;
#X connect 42 0 29 0;
#X connect 43 0 53 0;
#X connect 44 0 103 0;
#X connect 45 0 43 0;
#X connect 46 0 38 0;
#X connect 47 0 30 0;
#X connect 48 0 122 0;
#X connect 49 0 42 1;
#X connect 50 0 1 0;
#X connect 51 0 0 0;
#X connect 52 0 41 0;
#X connect 53 0 27 0;
#X connect 54 0 31 0;
#X connect 55 0 65 0;
#X connect 56 0 11 0;
#X connect 57 0 62 0;
#X connect 57 0 59 0;
#X connect 57 0 60 0;
#X connect 58 0 62 0;
#X connect 59 0 55 1;
#X connect 60 0 55 2;
#X connect 61 0 56 1;
#X connect 62 0 55 0;
#X connect 62 0 66 0;
#X connect 63 0 40 0;
#X connect 63 0 45 0;
#X connect 63 0 47 0;
#X connect 64 0 61 0;
#X connect 65 0 64 0;
#X connect 66 0 68 0;
#X connect 67 0 65 1;
#X connect 68 0 67 0;
#X connect 69 0 6 0;
#X connect 70 0 7 0;
#X connect 71 0 96 0;
#X connect 72 0 8 1;
#X connect 73 0 69 1;
#X connect 73 0 70 1;
#X connect 74 0 75 0;
#X connect 74 0 73 1;
#X connect 75 0 76 0;
#X connect 76 0 84 1;
#X connect 77 0 74 0;
#X connect 78 0 79 0;
#X connect 79 0 80 0;
#X connect 80 0 77 0;
#X connect 81 0 82 0;
#X connect 82 0 79 0;
#X connect 82 0 83 0;
#X connect 83 0 84 0;
#X connect 83 0 97 0;
#X connect 84 0 69 1;
#X connect 84 0 70 1;
#X connect 85 0 78 0;
#X connect 87 0 88 1;
#X connect 88 0 71 0;
#X connect 89 0 87 0;
#X connect 90 0 95 0;
#X connect 91 0 90 0;
#X connect 92 0 93 0;
#X connect 92 0 96 1;
#X connect 93 0 94 0;
#X connect 94 0 97 1;
#X connect 95 0 92 0;
#X connect 96 0 73 0;
#X connect 97 0 73 0;
#X connect 98 0 90 0;
#X connect 99 0 87 0;
#X connect 100 0 46 1;
#X connect 101 0 48 1;
#X connect 104 0 105 0;
#X connect 105 0 103 0;
#X connect 106 0 107 0;
#X connect 107 0 95 0;
#X connect 108 0 109 0;
#X connect 109 0 88 1;
#X connect 111 0 112 0;
#X connect 112 0 114 0;
#X connect 113 0 126 0;
#X connect 114 0 115 1;
#X connect 115 0 113 0;
#X connect 116 0 123 0;
#X connect 117 0 116 1;
#X connect 118 0 133 1;
#X connect 119 0 127 0;
#X connect 120 0 127 0;
#X connect 121 0 116 0;
#X connect 122 0 111 0;
#X connect 122 0 132 0;
#X connect 122 0 133 0;
#X connect 123 0 124 0;
#X connect 124 0 125 0;
#X connect 125 0 118 0;
#X connect 126 0 135 0;
#X connect 127 0 118 0;
#X connect 127 0 129 0;
#X connect 128 0 121 0;
#X connect 129 0 130 0;
#X connect 130 0 131 0;
#X connect 131 0 132 1;
#X connect 132 0 128 0;
#X connect 133 0 115 0;
#X connect 135 0 134 0;
#X restore 305 572 pd 3oscsynth;
#X obj 304 299 s~ knob0;
#X obj 463 299 s~ knob1;
#X obj 641 299 s~ knob2;
#X obj 797 299 s~ knob3;
#X obj 957 299 s~ knob4;
#X obj -13 980 s~ leftswitch;
#X obj -146 465 s~ pitchswitch;
#X obj 305 545 route 1 2 3 4 5 6;
#X obj 1287 1039 r faderrightlatch0;
#X obj 1123 169 hsl 128 17 0 1 0 0 empty empty empty -2 -8 0 10 #191919 #e1e1e1 #e1e1e1 0 1;
#X obj 1120 263 line~;
#X msg 1120 231 \$1 10;
#X obj 1120 140 r knob5 @hv_param;
#X obj 1120 299 s~ knob5;
#X obj 305 794 tgl 25 0 empty empty empty 17 7 0 10 #191919 #ffffff #ffffff 0 1;
#X obj 305 769 change;
#X obj 520 800 tgl 25 0 empty empty empty 17 7 0 10 #191919 #ffffff #ffffff 0 1;
#X obj 520 769 change;
#X obj 744 800 tgl 25 0 empty empty empty 17 7 0 10 #191919 #ffffff #ffffff 0 1;
#X obj 744 769 change;
#X obj 961 800 tgl 25 0 empty empty empty 17 7 0 10 #191919 #ffffff #ffffff 0 1;
#X obj 961 769 change;
#X obj 746 1043 tgl 25 0 empty empty empty 17 7 0 10 #191919 #ffffff #ffffff 0 1;
#X obj 522 1043 tgl 25 0 empty empty empty 17 7 0 10 #191919 #ffffff #ffffff 0 1;
#X obj 305 1043 tgl 25 0 empty empty empty 17 7 0 10 #191919 #ffffff #ffffff 0 1;
#X obj 1475 1039 loadbang;
#X msg 1475 1093 0.5;
#X obj 1475 1067 del 20;
#X obj 1419 751 del 100;
#X obj -146 409 *~ 0.5;
#X obj -10 409 *~ 1;
#X obj 64 409 *~ 2;
#X obj -13 818 +~ 0.02;
#X obj -149 980 *~ 0.1;
#X obj 305 495 poly 6 1;
#X obj 1463 251 i;
#X obj 1510 251 + 1;
#X obj 1463 283 % 2;
#X obj 1463 181 change;
#X obj 1463 209 tgl 25 0 empty empty empty 17 7 0 10 #191919 #e1e1e1 #e1e1e1 0 1;
#X obj 1537 181 loadbang;
#X msg 1540 209 1;
#X obj 1463 312 f;
#X obj 1465 505 i;
#X obj 1512 505 + 1;
#X obj 1465 537 % 2;
#X obj 1465 435 change;
#X obj 1465 463 tgl 25 0 empty empty empty 17 7 0 10 #191919 #e1e1e1 #e1e1e1 0 1;
#X obj 1539 435 loadbang;
#X msg 1542 463 1;
#X obj 1465 566 f;
#X obj 1365 1212 hv.lop~;
#X obj 1365 1179 hv.lop~;
#X obj 1521 1141 adc~;
#X obj 1210 1254 clip~ -0.95 0.95;
#X obj 1365 1254 clip~ -0.95 0.95;
#X obj 1521 1204 *~;
#X obj 1566 1204 *~;
#X obj 1215 943 *~ 0.2;
#X obj 1376 943 *~ 0.2;
#X obj 1554 943 *~ 0.2;
#N canvas 733 172 450 300 3oscsynth 0;
#X obj 741 661 clip~ -0.95 0.95;
#X obj 539 663 clip~ -0.95 0.95;
#X obj 539 265 sig~;
#X obj 539 320 *~;
#X obj 539 711 *~;
#X obj 741 713 *~;
#X obj 539 1206 throw~ \$0-osc1;
#X obj 741 1208 throw~ \$0-osc2;
#X obj 539 458 +~;
#X obj 461 293 r~ drift;
#X obj 461 429 *~;
#X obj 481 366 *~ -1;
#X obj 481 393 +~ 1;
#X obj 539 236 mtof;
#X obj 585 123 sel 0;
#X obj 585 90 moses 0.01;
#X obj 638 236 line~;
#X obj 638 123 / 127;
#X obj 638 175 pack;
#X msg 638 208 \$1 \$2;
#X obj 706 173 pack;
#X msg 706 206 \$1 \$2;
#X msg 587 149 0;
#X obj 653 149 r attack;
#X obj 721 147 r decay;
#X obj 539 25 inlet;
#X obj 539 59 unpack f f;
#X obj 972 438 *~;
#X obj 539 583 hv.osc~ saw;
#X obj 539 547 *~ 0.5;
#X obj 1161 371 *~ 10;
#X obj 1161 438 *~;
#X obj 550 293 r~ pitchswitch;
#X obj 817 295 r~ knob0;
#X obj 890 295 r~ knob1;
#X obj 993 295 r~ knob2;
#X obj 1062 295 r~ knob3;
#X obj 1161 295 r~ knob4;
#X obj 741 585 hv.osc~ saw;
#X obj 797 194 r~ leftswitch;
#X obj 797 344 *~;
#X obj 797 438 *~;
#X obj 539 507 +~;
#X obj 972 371 *~ 4;
#X obj 1280 295 r~ knob5;
#X obj 972 340 *~;
#X obj 741 547 +~;
#X obj 1161 340 *~;
#X obj 931 547 +~;
#X obj 797 466 *~ 10;
#X obj 539 631 *~ 0.2;
#X obj 741 633 *~ 0.2;
#X obj 797 407 hv.osc~ saw;
#X obj 972 407 hv.osc~ saw;
#X obj 1161 407 hv.osc~ saw;
#X obj 342 346 hv.drunk;
#X obj 481 340 /~;
#X obj 342 199 loadbang;
#X obj 382 230 bng 25 250 50 0 empty empty empty 17 7 0 10 #191919 #ffffff #ffffff;
#X msg 361 293 20;
#X msg 382 314 3;
#X obj 342 429 line~;
#X obj 342 265 metro 50;
#X obj 797 236 *~ 0.01;
#X msg 342 400 \$1 \$2;
#X obj 342 375 pack;
#X obj 451 166 snapshot~;
#X obj 451 236 *;
#X obj 451 199 * 100;
#X obj 539 1150 *~;
#X obj 741 1150 *~;
#X obj 394 583 phasor~;
#X obj 461 494 *~ 0.01;
#X obj 394 711 *~;
#X obj 14 524 line~;
#X obj 14 559 *~ -1;
#X obj 14 586 +~ 1;
#X msg 14 498 \$1 100;
#X obj 14 403 change;
#X obj 14 431 sel 1;
#X obj 14 458 tgl 25 0 empty empty empty 17 7 0 10 #191919 #e1e1e1 #e1e1e1 0 1;
#X obj 84 403 loadbang;
#X msg 87 433 1;
#X obj 84 472 sig~;
#X obj 441 711 *~;
#X obj 14 372 r mpr121_driver_ch10 @hv_param;
#X text 14 343 drift vol;
#X obj 308 559 / 127;
#X obj 394 556 *~ 0.08;
#X obj 288 494 hsl 128 17 0 127 0 0 empty empty empty -2 -8 0 10 #191919 #ffffff #ffffff 0 1;
#X obj 27 734 / 127;
#X obj -11 659 hsl 128 21 0 127 0 0 empty empty empty -2 -8 0 10 #191919 #ffffff #ffffff 0 1;
#X obj 62 830 line~;
#X obj 62 865 *~ -1;
#X obj 62 892 +~ 1;
#X msg 62 804 \$1 100;
#X obj 256 784 *~;
#X obj 308 784 *~;
#X obj 27 693 ctlin 4;
#X obj 308 518 ctlin 9;
#X obj 972 466 *~ 13;
#X obj 1161 466 *~ 15;
#X text 1299 318 Pulse-width control (0..1);
#X obj 1282 417 snapshot~;
#X obj 1298 371 loadbang;
#X obj 1298 393 metro 2;
#X obj 87 698 loadbang;
#X msg 87 724 0.5;
#X obj 364 518 loadbang;
#X msg 364 544 0.05;
#X text 1099 937 Pulse-width control (0..1);
#X obj 1043 939 osc~;
#X obj 1043 975 *~ 10000;
#X obj 931 1061 *~;
#X obj 1043 1007 clip~ -1 1;
#X obj 931 1007 +~;
#X obj 1094 750 *~;
#X obj 1104 585 line~;
#X obj 1094 875 snapshot~;
#X obj 1001 585 loadbang;
#X obj 1069 585 bng 25 250 50 0 empty empty empty 17 7 0 10 #191919 #ffffff #ffffff;
#X obj 1094 724 hv.osc~ sine;
#X obj 931 585 *~ 1;
#X obj 1094 777 *~ -1;
#X obj 1094 805 +~ 1;
#X obj 1094 833 *~ 0.5;
#X obj 931 1110 *~ 0.2;
#X obj 1001 624 metro 1;
#X obj 1094 689 phasor~;
#X obj 1001 659 hv.drunk 100 15;
#X obj 1001 691 / 100;
#X obj 1001 716 sig~;
#X obj 990 756 *~;
#X obj 931 939 hv.osc~ square;
#X obj 931 1217 throw~ \$0-osc3;
#X obj 931 1150 clip~ -0.95 0.95;
#X connect 0 0 5 0;
#X connect 1 0 4 0;
#X connect 2 0 3 0;
#X connect 3 0 8 0;
#X connect 3 0 56 0;
#X connect 4 0 69 0;
#X connect 5 0 70 0;
#X connect 8 0 46 0;
#X connect 8 0 48 0;
#X connect 8 0 42 0;
#X connect 9 0 10 0;
#X connect 10 0 72 0;
#X connect 10 0 88 0;
#X connect 11 0 12 0;
#X connect 12 0 10 1;
#X connect 13 0 2 0;
#X connect 14 0 22 0;
#X connect 15 0 14 0;
#X connect 15 1 17 0;
#X connect 16 0 4 1;
#X connect 16 0 5 1;
#X connect 16 0 113 1;
#X connect 17 0 18 0;
#X connect 17 0 67 1;
#X connect 18 0 19 0;
#X connect 19 0 16 0;
#X connect 20 0 21 0;
#X connect 21 0 16 0;
#X connect 22 0 20 0;
#X connect 23 0 18 1;
#X connect 24 0 20 1;
#X connect 25 0 26 0;
#X connect 26 0 13 0;
#X connect 26 1 15 0;
#X connect 27 0 100 0;
#X connect 28 0 50 0;
#X connect 29 0 28 0;
#X connect 30 0 54 0;
#X connect 31 0 101 0;
#X connect 32 0 3 1;
#X connect 33 0 40 1;
#X connect 34 0 41 1;
#X connect 35 0 45 1;
#X connect 36 0 27 1;
#X connect 36 0 31 1;
#X connect 37 0 47 1;
#X connect 38 0 51 0;
#X connect 39 0 63 0;
#X connect 39 0 66 0;
#X connect 40 0 52 0;
#X connect 41 0 49 0;
#X connect 42 0 29 0;
#X connect 43 0 53 0;
#X connect 44 0 103 0;
#X connect 45 0 43 0;
#X connect 46 0 38 0;
#X connect 47 0 30 0;
#X connect 48 0 122 0;
#X connect 49 0 42 1;
#X connect 50 0 1 0;
#X connect 51 0 0 0;
#X connect 52 0 41 0;
#X connect 53 0 27 0;
#X connect 54 0 31 0;
#X connect 55 0 65 0;
#X connect 56 0 11 0;
#X connect 57 0 62 0;
#X connect 57 0 59 0;
#X connect 57 0 60 0;
#X connect 58 0 62 0;
#X connect 59 0 55 1;
#X connect 60 0 55 2;
#X connect 61 0 56 1;
#X connect 62 0 55 0;
#X connect 62 0 66 0;
#X connect 63 0 40 0;
#X connect 63 0 45 0;
#X connect 63 0 47 0;
#X connect 64 0 61 0;
#X connect 65 0 64 0;
#X connect 66 0 68 0;
#X connect 67 0 65 1;
#X connect 68 0 67 0;
#X connect 69 0 6 0;
#X connect 70 0 7 0;
#X connect 71 0 96 0;
#X connect 72 0 8 1;
#X connect 73 0 69 1;
#X connect 73 0 70 1;
#X connect 74 0 75 0;
#X connect 74 0 73 1;
#X connect 75 0 76 0;
#X connect 76 0 84 1;
#X connect 77 0 74 0;
#X connect 78 0 79 0;
#X connect 79 0 80 0;
#X connect 80 0 77 0;
#X connect 81 0 82 0;
#X connect 82 0 79 0;
#X connect 82 0 83 0;
#X connect 83 0 84 0;
#X connect 83 0 97 0;
#X connect 84 0 69 1;
#X connect 84 0 70 1;
#X connect 85 0 78 0;
#X connect 87 0 88 1;
#X connect 88 0 71 0;
#X connect 89 0 87 0;
#X connect 90 0 95 0;
#X connect 91 0 90 0;
#X connect 92 0 93 0;
#X connect 92 0 96 1;
#X connect 93 0 94 0;
#X connect 94 0 97 1;
#X connect 95 0 92 0;
#X connect 96 0 73 0;
#X connect 97 0 73 0;
#X connect 98 0 90 0;
#X connect 99 0 87 0;
#X connect 100 0 46 1;
#X connect 101 0 48 1;
#X connect 104 0 105 0;
#X connect 105 0 103 0;
#X connect 106 0 107 0;
#X connect 107 0 95 0;
#X connect 108 0 109 0;
#X connect 109 0 88 1;
#X connect 111 0 112 0;
#X connect 112 0 114 0;
#X connect 113 0 126 0;
#X connect 114 0 115 1;
#X connect 115 0 113 0;
#X connect 116 0 123 0;
#X connect 117 0 116 1;
#X connect 118 0 133 1;
#X connect 119 0 127 0;
#X connect 120 0 127 0;
#X connect 121 0 116 0;
#X connect 122 0 111 0;
#X connect 122 0 132 0;
#X connect 122 0 133 0;
#X connect 123 0 124 0;
#X connect 124 0 125 0;
#X connect 125 0 118 0;
#X connect 126 0 135 0;
#X connect 127 0 118 0;
#X connect 127 0 129 0;
#X connect 128 0 121 0;
#X connect 129 0 130 0;
#X connect 130 0 131 0;
#X connect 131 0 132 1;
#X connect 132 0 128 0;
#X connect 133 0 115 0;
#X connect 135 0 134 0;
#X restore 325 592 pd 3oscsynth;
#N canvas 733 172 450 300 3oscsynth 0;
#X obj 741 661 clip~ -0.95 0.95;
#X obj 539 663 clip~ -0.95 0.95;
#X obj 539 265 sig~;
#X obj 539 320 *~;
#X obj 539 711 *~;
#X obj 741 713 *~;
#X obj 539 1206 throw~ \$0-osc1;
#X obj 741 1208 throw~ \$0-osc2;
#X obj 539 458 +~;
#X obj 461 293 r~ drift;
#X obj 461 429 *~;
#X obj 481 366 *~ -1;
#X obj 481 393 +~ 1;
#X obj 539 236 mtof;
#X obj 585 123 sel 0;
#X obj 585 90 moses 0.01;
#X obj 638 236 line~;
#X obj 638 123 / 127;
#X obj 638 175 pack;
#X msg 638 208 \$1 \$2;
#X obj 706 173 pack;
#X msg 706 206 \$1 \$2;
#X msg 587 149 0;
#X obj 653 149 r attack;
#X obj 721 147 r decay;
#X obj 539 25 inlet;
#X obj 539 59 unpack f f;
#X obj 972 438 *~;
#X obj 539 583 hv.osc~ saw;
#X obj 539 547 *~ 0.5;
#X obj 1161 371 *~ 10;
#X obj 1161 438 *~;
#X obj 550 293 r~ pitchswitch;
#X obj 817 295 r~ knob0;
#X obj 890 295 r~ knob1;
#X obj 993 295 r~ knob2;
#X obj 1062 295 r~ knob3;
#X obj 1161 295 r~ knob4;
#X obj 741 585 hv.osc~ saw;
#X obj 797 194 r~ leftswitch;
#X obj 797 344 *~;
#X obj 797 438 *~;
#X obj 539 507 +~;
#X obj 972 371 *~ 4;
#X obj 1280 295 r~ knob5;
#X obj 972 340 *~;
#X obj 741 547 +~;
#X obj 1161 340 *~;
#X obj 931 547 +~;
#X obj 797 466 *~ 10;
#X obj 539 631 *~ 0.2;
#X obj 741 633 *~ 0.2;
#X obj 797 407 hv.osc~ saw;
#X obj 972 407 hv.osc~ saw;
#X obj 1161 407 hv.osc~ saw;
#X obj 342 346 hv.drunk;
#X obj 481 340 /~;
#X obj 342 199 loadbang;
#X obj 382 230 bng 25 250 50 0 empty empty empty 17 7 0 10 #191919 #ffffff #ffffff;
#X msg 361 293 20;
#X msg 382 314 3;
#X obj 342 429 line~;
#X obj 342 265 metro 50;
#X obj 797 236 *~ 0.01;
#X msg 342 400 \$1 \$2;
#X obj 342 375 pack;
#X obj 451 166 snapshot~;
#X obj 451 236 *;
#X obj 451 199 * 100;
#X obj 539 1150 *~;
#X obj 741 1150 *~;
#X obj 394 583 phasor~;
#X obj 461 494 *~ 0.01;
#X obj 394 711 *~;
#X obj 14 524 line~;
#X obj 14 559 *~ -1;
#X obj 14 586 +~ 1;
#X msg 14 498 \$1 100;
#X obj 14 403 change;
#X obj 14 431 sel 1;
#X obj 14 458 tgl 25 0 empty empty empty 17 7 0 10 #191919 #e1e1e1 #e1e1e1 0 1;
#X obj 84 403 loadbang;
#X msg 87 433 1;
#X obj 84 472 sig~;
#X obj 441 711 *~;
#X obj 14 372 r mpr121_driver_ch10 @hv_param;
#X text 14 343 drift vol;
#X obj 308 559 / 127;
#X obj 394 556 *~ 0.08;
#X obj 288 494 hsl 128 17 0 127 0 0 empty empty empty -2 -8 0 10 #191919 #ffffff #ffffff 0 1;
#X obj 27 734 / 127;
#X obj -11 659 hsl 128 21 0 127 0 0 empty empty empty -2 -8 0 10 #191919 #ffffff #ffffff 0 1;
#X obj 62 830 line~;
#X obj 62 865 *~ -1;
#X obj 62 892 +~ 1;
#X msg 62 804 \$1 100;
#X obj 256 784 *~;
#X obj 308 784 *~;
#X obj 27 693 ctlin 4;
#X obj 308 518 ctlin 9;
#X obj 972 466 *~ 13;
#X obj 1161 466 *~ 15;
#X text 1299 318 Pulse-width control (0..1);
#X obj 1282 417 snapshot~;
#X obj 1298 371 loadbang;
#X obj 1298 393 metro 2;
#X obj 87 698 loadbang;
#X msg 87 724 0.5;
#X obj 364 518 loadbang;
#X msg 364 544 0.05;
#X text 1099 937 Pulse-width control (0..1);
#X obj 1043 939 osc~;
#X obj 1043 975 *~ 10000;
#X obj 931 1061 *~;
#X obj 1043 1007 clip~ -1 1;
#X obj 931 1007 +~;
#X obj 1094 750 *~;
#X obj 1104 585 line~;
#X obj 1094 875 snapshot~;
#X obj 1001 585 loadbang;
#X obj 1069 585 bng 25 250 50 0 empty empty empty 17 7 0 10 #191919 #ffffff #ffffff;
#X obj 1094 724 hv.osc~ sine;
#X obj 931 585 *~ 1;
#X obj 1094 777 *~ -1;
#X obj 1094 805 +~ 1;
#X obj 1094 833 *~ 0.5;
#X obj 931 1110 *~ 0.2;
#X obj 1001 624 metro 1;
#X obj 1094 689 phasor~;
#X obj 1001 659 hv.drunk 100 15;
#X obj 1001 691 / 100;
#X obj 1001 716 sig~;
#X obj 990 756 *~;
#X obj 931 939 hv.osc~ square;
#X obj 931 1217 throw~ \$0-osc3;
#X obj 931 1150 clip~ -0.95 0.95;
#X connect 0 0 5 0;
#X connect 1 0 4 0;
#X connect 2 0 3 0;
#X connect 3 0 8 0;
#X connect 3 0 56 0;
#X connect 4 0 69 0;
#X connect 5 0 70 0;
#X connect 8 0 46 0;
#X connect 8 0 48 0;
#X connect 8 0 42 0;
#X connect 9 0 10 0;
#X connect 10 0 72 0;
#X connect 10 0 88 0;
#X connect 11 0 12 0;
#X connect 12 0 10 1;
#X connect 13 0 2 0;
#X connect 14 0 22 0;
#X connect 15 0 14 0;
#X connect 15 1 17 0;
#X connect 16 0 4 1;
#X connect 16 0 5 1;
#X connect 16 0 113 1;
#X connect 17 0 18 0;
#X connect 17 0 67 1;
#X connect 18 0 19 0;
#X connect 19 0 16 0;
#X connect 20 0 21 0;
#X connect 21 0 16 0;
#X connect 22 0 20 0;
#X connect 23 0 18 1;
#X connect 24 0 20 1;
#X connect 25 0 26 0;
#X connect 26 0 13 0;
#X connect 26 1 15 0;
#X connect 27 0 100 0;
#X connect 28 0 50 0;
#X connect 29 0 28 0;
#X connect 30 0 54 0;
#X connect 31 0 101 0;
#X connect 32 0 3 1;
#X connect 33 0 40 1;
#X connect 34 0 41 1;
#X connect 35 0 45 1;
#X connect 36 0 27 1;
#X connect 36 0 31 1;
#X connect 37 0 47 1;
#X connect 38 0 51 0;
#X connect 39 0 63 0;
#X connect 39 0 66 0;
#X connect 40 0 52 0;
#X connect 41 0 49 0;
#X connect 42 0 29 0;
#X connect 43 0 53 0;
#X connect 44 0 103 0;
#X connect 45 0 43 0;
#X connect 46 0 38 0;
#X connect 47 0 30 0;
#X connect 48 0 122 0;
#X connect 49 0 42 1;
#X connect 50 0 1 0;
#X connect 51 0 0 0;
#X connect 52 0 41 0;
#X connect 53 0 27 0;
#X connect 54 0 31 0;
#X connect 55 0 65 0;
#X connect 56 0 11 0;
#X connect 57 0 62 0;
#X connect 57 0 59 0;
#X connect 57 0 60 0;
#X connect 58 0 62 0;
#X connect 59 0 55 1;
#X connect 60 0 55 2;
#X connect 61 0 56 1;
#X connect 62 0 55 0;
#X connect 62 0 66 0;
#X connect 63 0 40 0;
#X connect 63 0 45 0;
#X connect 63 0 47 0;
#X connect 64 0 61 0;
#X connect 65 0 64 0;
#X connect 66 0 68 0;
#X connect 67 0 65 1;
#X connect 68 0 67 0;
#X connect 69 0 6 0;
#X connect 70 0 7 0;
#X connect 71 0 96 0;
#X connect 72 0 8 1;
#X connect 73 0 69 1;
#X connect 73 0 70 1;
#X connect 74 0 75 0;
#X connect 74 0 73 1;
#X connect 75 0 76 0;
#X connect 76 0 84 1;
#X connect 77 0 74 0;
#X connect 78 0 79 0;
#X connect 79 0 80 0;
#X connect 80 0 77 0;
#X connect 81 0 82 0;
#X connect 82 0 79 0;
#X connect 82 0 83 0;
#X connect 83 0 84 0;
#X connect 83 0 97 0;
#X connect 84 0 69 1;
#X connect 84 0 70 1;
#X connect 85 0 78 0;
#X connect 87 0 88 1;
#X connect 88 0 71 0;
#X connect 89 0 87 0;
#X connect 90 0 95 0;
#X connect 91 0 90 0;
#X connect 92 0 93 0;
#X connect 92 0 96 1;
#X connect 93 0 94 0;
#X connect 94 0 97 1;
#X connect 95 0 92 0;
#X connect 96 0 73 0;
#X connect 97 0 73 0;
#X connect 98 0 90 0;
#X connect 99 0 87 0;
#X connect 100 0 46 1;
#X connect 101 0 48 1;
#X connect 104 0 105 0;
#X connect 105 0 103 0;
#X connect 106 0 107 0;
#X connect 107 0 95 0;
#X connect 108 0 109 0;
#X connect 109 0 88 1;
#X connect 111 0 112 0;
#X connect 112 0 114 0;
#X connect 113 0 126 0;
#X connect 114 0 115 1;
#X connect 115 0 113 0;
#X connect 116 0 123 0;
#X connect 117 0 116 1;
#X connect 118 0 133 1;
#X connect 119 0 127 0;
#X connect 120 0 127 0;
#X connect 121 0 116 0;
#X connect 122 0 111 0;
#X connect 122 0 132 0;
#X connect 122 0 133 0;
#X connect 123 0 124 0;
#X connect 124 0 125 0;
#X connect 125 0 118 0;
#X connect 126 0 135 0;
#X connect 127 0 118 0;
#X connect 127 0 129 0;
#X connect 128 0 121 0;
#X connect 129 0 130 0;
#X connect 130 0 131 0;
#X connect 131 0 132 1;
#X connect 132 0 128 0;
#X connect 133 0 115 0;
#X connect 135 0 134 0;
#X restore 345 612 pd 3oscsynth;
#N canvas 733 172 450 300 3oscsynth 0;
#X obj 741 661 clip~ -0.95 0.95;
#X obj 539 663 clip~ -0.95 0.95;
#X obj 539 265 sig~;
#X obj 539 320 *~;
#X obj 539 711 *~;
#X obj 741 713 *~;
#X obj 539 1206 throw~ \$0-osc1;
#X obj 741 1208 throw~ \$0-osc2;
#X obj 539 458 +~;
#X obj 461 293 r~ drift;
#X obj 461 429 *~;
#X obj 481 366 *~ -1;
#X obj 481 393 +~ 1;
#X obj 539 236 mtof;
#X obj 585 123 sel 0;
#X obj 585 90 moses 0.01;
#X obj 638 236 line~;
#X obj 638 123 / 127;
#X obj 638 175 pack;
#X msg 638 208 \$1 \$2;
#X obj 706 173 pack;
#X msg 706 206 \$1 \$2;
#X msg 587 149 0;
#X obj 653 149 r attack;
#X obj 721 147 r decay;
#X obj 539 25 inlet;
#X obj 539 59 unpack f f;
#X obj 972 438 *~;
#X obj 539 583 hv.osc~ saw;
#X obj 539 547 *~ 0.5;
#X obj 1161 371 *~ 10;
#X obj 1161 438 *~;
#X obj 550 293 r~ pitchswitch;
#X obj 817 295 r~ knob0;
#X obj 890 295 r~ knob1;
#X obj 993 295 r~ knob2;
#X obj 1062 295 r~ knob3;
#X obj 1161 295 r~ knob4;
#X obj 741 585 hv.osc~ saw;
#X obj 797 194 r~ leftswitch;
#X obj 797 344 *~;
#X obj 797 438 *~;
#X obj 539 507 +~;
#X obj 972 371 *~ 4;
#X obj 1280 295 r~ knob5;
#X obj 972 340 *~;
#X obj 741 547 +~;
#X obj 1161 340 *~;
#X obj 931 547 +~;
#X obj 797 466 *~ 10;
#X obj 539 631 *~ 0.2;
#X obj 741 633 *~ 0.2;
#X obj 797 407 hv.osc~ saw;
#X obj 972 407 hv.osc~ saw;
#X obj 1161 407 hv.osc~ saw;
#X obj 342 346 hv.drunk;
#X obj 481 340 /~;
#X obj 342 199 loadbang;
#X obj 382 230 bng 25 250 50 0 empty empty empty 17 7 0 10 #191919 #ffffff #ffffff;
#X msg 361 293 20;
#X msg 382 314 3;
#X obj 342 429 line~;
#X obj 342 265 metro 50;
#X obj 797 236 *~ 0.01;
#X msg 342 400 \$1 \$2;
#X obj 342 375 pack;
#X obj 451 166 snapshot~;
#X obj 451 236 *;
#X obj 451 199 * 100;
#X obj 539 1150 *~;
#X obj 741 1150 *~;
#X obj 394 583 phasor~;
#X obj 461 494 *~ 0.01;
#X obj 394 711 *~;
#X obj 14 524 line~;
#X obj 14 559 *~ -1;
#X obj 14 586 +~ 1;
#X msg 14 498 \$1 100;
#X obj 14 403 change;
#X obj 14 431 sel 1;
#X obj 14 458 tgl 25 0 empty empty empty 17 7 0 10 #191919 #e1e1e1 #e1e1e1 0 1;
#X obj 84 403 loadbang;
#X msg 87 433 1;
#X obj 84 472 sig~;
#X obj 441 711 *~;
#X obj 14 372 r mpr121_driver_ch10 @hv_param;
#X text 14 343 drift vol;
#X obj 308 559 / 127;
#X obj 394 556 *~ 0.08;
#X obj 288 494 hsl 128 17 0 127 0 0 empty empty empty -2 -8 0 10 #191919 #ffffff #ffffff 0 1;
#X obj 27 734 / 127;
#X obj -11 659 hsl 128 21 0 127 0 0 empty empty empty -2 -8 0 10 #191919 #ffffff #ffffff 0 1;
#X obj 62 830 line~;
#X obj 62 865 *~ -1;
#X obj 62 892 +~ 1;
#X msg 62 804 \$1 100;
#X obj 256 784 *~;
#X obj 308 784 *~;
#X obj 27 693 ctlin 4;
#X obj 308 518 ctlin 9;
#X obj 972 466 *~ 13;
#X obj 1161 466 *~ 15;
#X text 1299 318 Pulse-width control (0..1);
#X obj 1282 417 snapshot~;
#X obj 1298 371 loadbang;
#X obj 1298 393 metro 2;
#X obj 87 698 loadbang;
#X msg 87 724 0.5;
#X obj 364 518 loadbang;
#X msg 364 544 0.05;
#X text 1099 937 Pulse-width control (0..1);
#X obj 1043 939 osc~;
#X obj 1043 975 *~ 10000;
#X obj 931 1061 *~;
#X obj 1043 1007 clip~ -1 1;
#X obj 931 1007 +~;
#X obj 1094 750 *~;
#X obj 1104 585 line~;
#X obj 1094 875 snapshot~;
#X obj 1001 585 loadbang;
#X obj 1069 585 bng 25 250 50 0 empty empty empty 17 7 0 10 #191919 #ffffff #ffffff;
#X obj 1094 724 hv.osc~ sine;
#X obj 931 585 *~ 1;
#X obj 1094 777 *~ -1;
#X obj 1094 805 +~ 1;
#X obj 1094 833 *~ 0.5;
#X obj 931 1110 *~ 0.2;
#X obj 1001 624 metro 1;
#X obj 1094 689 phasor~;
#X obj 1001 659 hv.drunk 100 15;
#X obj 1001 691 / 100;
#X obj 1001 716 sig~;
#X obj 990 756 *~;
#X obj 931 939 hv.osc~ square;
#X obj 931 1217 throw~ \$0-osc3;
#X obj 931 1150 clip~ -0.95 0.95;
#X connect 0 0 5 0;
#X connect 1 0 4 0;
#X connect 2 0 3 0;
#X connect 3 0 8 0;
#X connect 3 0 56 0;
#X connect 4 0 69 0;
#X connect 5 0 70 0;
#X connect 8 0 46 0;
#X connect 8 0 48 0;
#X connect 8 0 42 0;
#X connect 9 0 10 0;
#X connect 10 0 72 0;
#X connect 10 0 88 0;
#X connect 11 0 12 0;
#X connect 12 0 10 1;
#X connect 13 0 2 0;
#X connect 14 0 22 0;
#X connect 15 0 14 0;
#X connect 15 1 17 0;
#X connect 16 0 4 1;
#X connect 16 0 5 1;
#X connect 16 0 113 1;
#X connect 17 0 18 0;
#X connect 17 0 67 1;
#X connect 18 0 19 0;
#X connect 19 0 16 0;
#X connect 20 0 21 0;
#X connect 21 0 16 0;
#X connect 22 0 20 0;
#X connect 23 0 18 1;
#X connect 24 0 20 1;
#X connect 25 0 26 0;
#X connect 26 0 13 0;
#X connect 26 1 15 0;
#X connect 27 0 100 0;
#X connect 28 0 50 0;
#X connect 29 0 28 0;
#X connect 30 0 54 0;
#X connect 31 0 101 0;
#X connect 32 0 3 1;
#X connect 33 0 40 1;
#X connect 34 0 41 1;
#X connect 35 0 45 1;
#X connect 36 0 27 1;
#X connect 36 0 31 1;
#X connect 37 0 47 1;
#X connect 38 0 51 0;
#X connect 39 0 63 0;
#X connect 39 0 66 0;
#X connect 40 0 52 0;
#X connect 41 0 49 0;
#X connect 42 0 29 0;
#X connect 43 0 53 0;
#X connect 44 0 103 0;
#X connect 45 0 43 0;
#X connect 46 0 38 0;
#X connect 47 0 30 0;
#X connect 48 0 122 0;
#X connect 49 0 42 1;
#X connect 50 0 1 0;
#X connect 51 0 0 0;
#X connect 52 0 41 0;
#X connect 53 0 27 0;
#X connect 54 0 31 0;
#X connect 55 0 65 0;
#X connect 56 0 11 0;
#X connect 57 0 62 0;
#X connect 57 0 59 0;
#X connect 57 0 60 0;
#X connect 58 0 62 0;
#X connect 59 0 55 1;
#X connect 60 0 55 2;
#X connect 61 0 56 1;
#X connect 62 0 55 0;
#X connect 62 0 66 0;
#X connect 63 0 40 0;
#X connect 63 0 45 0;
#X connect 63 0 47 0;
#X connect 64 0 61 0;
#X connect 65 0 64 0;
#X connect 66 0 68 0;
#X connect 67 0 65 1;
#X connect 68 0 67 0;
#X connect 69 0 6 0;
#X connect 70 0 7 0;
#X connect 71 0 96 0;
#X connect 72 0 8 1;
#X connect 73 0 69 1;
#X connect 73 0 70 1;
#X connect 74 0 75 0;
#X connect 74 0 73 1;
#X connect 75 0 76 0;
#X connect 76 0 84 1;
#X connect 77 0 74 0;
#X connect 78 0 79 0;
#X connect 79 0 80 0;
#X connect 80 0 77 0;
#X connect 81 0 82 0;
#X connect 82 0 79 0;
#X connect 82 0 83 0;
#X connect 83 0 84 0;
#X connect 83 0 97 0;
#X connect 84 0 69 1;
#X connect 84 0 70 1;
#X connect 85 0 78 0;
#X connect 87 0 88 1;
#X connect 88 0 71 0;
#X connect 89 0 87 0;
#X connect 90 0 95 0;
#X connect 91 0 90 0;
#X connect 92 0 93 0;
#X connect 92 0 96 1;
#X connect 93 0 94 0;
#X connect 94 0 97 1;
#X connect 95 0 92 0;
#X connect 96 0 73 0;
#X connect 97 0 73 0;
#X connect 98 0 90 0;
#X connect 99 0 87 0;
#X connect 100 0 46 1;
#X connect 101 0 48 1;
#X connect 104 0 105 0;
#X connect 105 0 103 0;
#X connect 106 0 107 0;
#X connect 107 0 95 0;
#X connect 108 0 109 0;
#X connect 109 0 88 1;
#X connect 111 0 112 0;
#X connect 112 0 114 0;
#X connect 113 0 126 0;
#X connect 114 0 115 1;
#X connect 115 0 113 0;
#X connect 116 0 123 0;
#X connect 117 0 116 1;
#X connect 118 0 133 1;
#X connect 119 0 127 0;
#X connect 120 0 127 0;
#X connect 121 0 116 0;
#X connect 122 0 111 0;
#X connect 122 0 132 0;
#X connect 122 0 133 0;
#X connect 123 0 124 0;
#X connect 124 0 125 0;
#X connect 125 0 118 0;
#X connect 126 0 135 0;
#X connect 127 0 118 0;
#X connect 127 0 129 0;
#X connect 128 0 121 0;
#X connect 129 0 130 0;
#X connect 130 0 131 0;
#X connect 131 0 132 1;
#X connect 132 0 128 0;
#X connect 133 0 115 0;
#X connect 135 0 134 0;
#X restore 365 632 pd 3oscsynth;
#N canvas 733 172 450 300 3oscsynth 0;
#X obj 741 661 clip~ -0.95 0.95;
#X obj 539 663 clip~ -0.95 0.95;
#X obj 539 265 sig~;
#X obj 539 320 *~;
#X obj 539 711 *~;
#X obj 741 713 *~;
#X obj 539 1206 throw~ \$0-osc1;
#X obj 741 1208 throw~ \$0-osc2;
#X obj 539 458 +~;
#X obj 461 293 r~ drift;
#X obj 461 429 *~;
#X obj 481 366 *~ -1;
#X obj 481 393 +~ 1;
#X obj 539 236 mtof;
#X obj 585 123 sel 0;
#X obj 585 90 moses 0.01;
#X obj 638 236 line~;
#X obj 638 123 / 127;
#X obj 638 175 pack;
#X msg 638 208 \$1 \$2;
#X obj 706 173 pack;
#X msg 706 206 \$1 \$2;
#X msg 587 149 0;
#X obj 653 149 r attack;
#X obj 721 147 r decay;
#X obj 539 25 inlet;
#X obj 539 59 unpack f f;
#X obj 972 438 *~;
#X obj 539 583 hv.osc~ saw;
#X obj 539 547 *~ 0.5;
#X obj 1161 371 *~ 10;
#X obj 1161 438 *~;
#X obj 550 293 r~ pitchswitch;
#X obj 817 295 r~ knob0;
#X obj 890 295 r~ knob1;
#X obj 993 295 r~ knob2;
#X obj 1062 295 r~ knob3;
#X obj 1161 295 r~ knob4;
#X obj 741 585 hv.osc~ saw;
#X obj 797 194 r~ leftswitch;
#X obj 797 344 *~;
#X obj 797 438 *~;
#X obj 539 507 +~;
#X obj 972 371 *~ 4;
#X obj 1280 295 r~ knob5;
#X obj 972 340 *~;
#X obj 741 547 +~;
#X obj 1161 340 *~;
#X obj 931 547 +~;
#X obj 797 466 *~ 10;
#X obj 539 631 *~ 0.2;
#X obj 741 633 *~ 0.2;
#X obj 797 407 hv.osc~ saw;
#X obj 972 407 hv.osc~ saw;
#X obj 1161 407 hv.osc~ saw;
#X obj 342 346 hv.drunk;
#X obj 481 340 /~;
#X obj 342 199 loadbang;
#X obj 382 230 bng 25 250 50 0 empty empty empty 17 7 0 10 #191919 #ffffff #ffffff;
#X msg 361 293 20;
#X msg 382 314 3;
#X obj 342 429 line~;
#X obj 342 265 metro 50;
#X obj 797 236 *~ 0.01;
#X msg 342 400 \$1 \$2;
#X obj 342 375 pack;
#X obj 451 166 snapshot~;
#X obj 451 236 *;
#X obj 451 199 * 100;
#X obj 539 1150 *~;
#X obj 741 1150 *~;
#X obj 394 583 phasor~;
#X obj 461 494 *~ 0.01;
#X obj 394 711 *~;
#X obj 14 524 line~;
#X obj 14 559 *~ -1;
#X obj 14 586 +~ 1;
#X msg 14 498 \$1 100;
#X obj 14 403 change;
#X obj 14 431 sel 1;
#X obj 14 458 tgl 25 0 empty empty empty 17 7 0 10 #191919 #e1e1e1 #e1e1e1 0 1;
#X obj 84 403 loadbang;
#X msg 87 433 1;
#X obj 84 472 sig~;
#X obj 441 711 *~;
#X obj 14 372 r mpr121_driver_ch10 @hv_param;
#X text 14 343 drift vol;
#X obj 308 559 / 127;
#X obj 394 556 *~ 0.08;
#X obj 288 494 hsl 128 17 0 127 0 0 empty empty empty -2 -8 0 10 #191919 #ffffff #ffffff 0 1;
#X obj 27 734 / 127;
#X obj -11 659 hsl 128 21 0 127 0 0 empty empty empty -2 -8 0 10 #191919 #ffffff #ffffff 0 1;
#X obj 62 830 line~;
#X obj 62 865 *~ -1;
#X obj 62 892 +~ 1;
#X msg 62 804 \$1 100;
#X obj 256 784 *~;
#X obj 308 784 *~;
#X obj 27 693 ctlin 4;
#X obj 308 518 ctlin 9;
#X obj 972 466 *~ 13;
#X obj 1161 466 *~ 15;
#X text 1299 318 Pulse-width control (0..1);
#X obj 1282 417 snapshot~;
#X obj 1298 371 loadbang;
#X obj 1298 393 metro 2;
#X obj 87 698 loadbang;
#X msg 87 724 0.5;
#X obj 364 518 loadbang;
#X msg 364 544 0.05;
#X text 1099 937 Pulse-width control (0..1);
#X obj 1043 939 osc~;
#X obj 1043 975 *~ 10000;
#X obj 931 1061 *~;
#X obj 1043 1007 clip~ -1 1;
#X obj 931 1007 +~;
#X obj 1094 750 *~;
#X obj 1104 585 line~;
#X obj 1094 875 snapshot~;
#X obj 1001 585 loadbang;
#X obj 1069 585 bng 25 250 50 0 empty empty empty 17 7 0 10 #191919 #ffffff #ffffff;
#X obj 1094 724 hv.osc~ sine;
#X obj 931 585 *~ 1;
#X obj 1094 777 *~ -1;
#X obj 1094 805 +~ 1;
#X obj 1094 833 *~ 0.5;
#X obj 931 1110 *~ 0.2;
#X obj 1001 624 metro 1;
#X obj 1094 689 phasor~;
#X obj 1001 659 hv.drunk 100 15;
#X obj 1001 691 / 100;
#X obj 1001 716 sig~;
#X obj 990 756 *~;
#X obj 931 939 hv.osc~ square;
#X obj 931 1217 throw~ \$0-osc3;
#X obj 931 1150 clip~ -0.95 0.95;
#X connect 0 0 5 0;
#X connect 1 0 4 0;
#X connect 2 0 3 0;
#X connect 3 0 8 0;
#X connect 3 0 56 0;
#X connect 4 0 69 0;
#X connect 5 0 70 0;
#X connect 8 0 46 0;
#X connect 8 0 48 0;
#X connect 8 0 42 0;
#X connect 9 0 10 0;
#X connect 10 0 72 0;
#X connect 10 0 88 0;
#X connect 11 0 12 0;
#X connect 12 0 10 1;
#X connect 13 0 2 0;
#X connect 14 0 22 0;
#X connect 15 0 14 0;
#X connect 15 1 17 0;
#X connect 16 0 4 1;
#X connect 16 0 5 1;
#X connect 16 0 113 1;
#X connect 17 0 18 0;
#X connect 17 0 67 1;
#X connect 18 0 19 0;
#X connect 19 0 16 0;
#X connect 20 0 21 0;
#X connect 21 0 16 0;
#X connect 22 0 20 0;
#X connect 23 0 18 1;
#X connect 24 0 20 1;
#X connect 25 0 26 0;
#X connect 26 0 13 0;
#X connect 26 1 15 0;
#X connect 27 0 100 0;
#X connect 28 0 50 0;
#X connect 29 0 28 0;
#X connect 30 0 54 0;
#X connect 31 0 101 0;
#X connect 32 0 3 1;
#X connect 33 0 40 1;
#X connect 34 0 41 1;
#X connect 35 0 45 1;
#X connect 36 0 27 1;
#X connect 36 0 31 1;
#X connect 37 0 47 1;
#X connect 38 0 51 0;
#X connect 39 0 63 0;
#X connect 39 0 66 0;
#X connect 40 0 52 0;
#X connect 41 0 49 0;
#X connect 42 0 29 0;
#X connect 43 0 53 0;
#X connect 44 0 103 0;
#X connect 45 0 43 0;
#X connect 46 0 38 0;
#X connect 47 0 30 0;
#X connect 48 0 122 0;
#X connect 49 0 42 1;
#X connect 50 0 1 0;
#X connect 51 0 0 0;
#X connect 52 0 41 0;
#X connect 53 0 27 0;
#X connect 54 0 31 0;
#X connect 55 0 65 0;
#X connect 56 0 11 0;
#X connect 57 0 62 0;
#X connect 57 0 59 0;
#X connect 57 0 60 0;
#X connect 58 0 62 0;
#X connect 59 0 55 1;
#X connect 60 0 55 2;
#X connect 61 0 56 1;
#X connect 62 0 55 0;
#X connect 62 0 66 0;
#X connect 63 0 40 0;
#X connect 63 0 45 0;
#X connect 63 0 47 0;
#X connect 64 0 61 0;
#X connect 65 0 64 0;
#X connect 66 0 68 0;
#X connect 67 0 65 1;
#X connect 68 0 67 0;
#X connect 69 0 6 0;
#X connect 70 0 7 0;
#X connect 71 0 96 0;
#X connect 72 0 8 1;
#X connect 73 0 69 1;
#X connect 73 0 70 1;
#X connect 74 0 75 0;
#X connect 74 0 73 1;
#X connect 75 0 76 0;
#X connect 76 0 84 1;
#X connect 77 0 74 0;
#X connect 78 0 79 0;
#X connect 79 0 80 0;
#X connect 80 0 77 0;
#X connect 81 0 82 0;
#X connect 82 0 79 0;
#X connect 82 0 83 0;
#X connect 83 0 84 0;
#X connect 83 0 97 0;
#X connect 84 0 69 1;
#X connect 84 0 70 1;
#X connect 85 0 78 0;
#X connect 87 0 88 1;
#X connect 88 0 71 0;
#X connect 89 0 87 0;
#X connect 90 0 95 0;
#X connect 91 0 90 0;
#X connect 92 0 93 0;
#X connect 92 0 96 1;
#X connect 93 0 94 0;
#X connect 94 0 97 1;
#X connect 95 0 92 0;
#X connect 96 0 73 0;
#X connect 97 0 73 0;
#X connect 98 0 90 0;
#X connect 99 0 87 0;
#X connect 100 0 46 1;
#X connect 101 0 48 1;
#X connect 104 0 105 0;
#X connect 105 0 103 0;
#X connect 106 0 107 0;
#X connect 107 0 95 0;
#X connect 108 0 109 0;
#X connect 109 0 88 1;
#X connect 111 0 112 0;
#X connect 112 0 114 0;
#X connect 113 0 126 0;
#X connect 114 0 115 1;
#X connect 115 0 113 0;
#X connect 116 0 123 0;
#X connect 117 0 116 1;
#X connect 118 0 133 1;
#X connect 119 0 127 0;
#X connect 120 0 127 0;
#X connect 121 0 116 0;
#X connect 122 0 111 0;
#X connect 122 0 132 0;
#X connect 122 0 133 0;
#X connect 123 0 124 0;
#X connect 124 0 125 0;
#X connect 125 0 118 0;
#X connect 126 0 135 0;
#X connect 127 0 118 0;
#X connect 127 0 129 0;
#X connect 128 0 121 0;
#X connect 129 0 130 0;
#X connect 130 0 131 0;
#X connect 131 0 132 1;
#X connect 132 0 128 0;
#X connect 133 0 115 0;
#X connect 135 0 134 0;
#X restore 385 652 pd 3oscsynth;
#N canvas 733 172 450 300 3oscsynth 0;
#X obj 741 661 clip~ -0.95 0.95;
#X obj 539 663 clip~ -0.95 0.95;
#X obj 539 265 sig~;
#X obj 539 320 *~;
#X obj 539 711 *~;
#X obj 741 713 *~;
#X obj 539 1206 throw~ \$0-osc1;
#X obj 741 1208 throw~ \$0-osc2;
#X obj 539 458 +~;
#X obj 461 293 r~ drift;
#X obj 461 429 *~;
#X obj 481 366 *~ -1;
#X obj 481 393 +~ 1;
#X obj 539 236 mtof;
#X obj 585 123 sel 0;
#X obj 585 90 moses 0.01;
#X obj 638 236 line~;
#X obj 638 123 / 127;
#X obj 638 175 pack;
#X msg 638 208 \$1 \$2;
#X obj 706 173 pack;
#X msg 706 206 \$1 \$2;
#X msg 587 149 0;
#X obj 653 149 r attack;
#X obj 721 147 r decay;
#X obj 539 25 inlet;
#X obj 539 59 unpack f f;
#X obj 972 438 *~;
#X obj 539 583 hv.osc~ saw;
#X obj 539 547 *~ 0.5;
#X obj 1161 371 *~ 10;
#X obj 1161 438 *~;
#X obj 550 293 r~ pitchswitch;
#X obj 817 295 r~ knob0;
#X obj 890 295 r~ knob1;
#X obj 993 295 r~ knob2;
#X obj 1062 295 r~ knob3;
#X obj 1161 295 r~ knob4;
#X obj 741 585 hv.osc~ saw;
#X obj 797 194 r~ leftswitch;
#X obj 797 344 *~;
#X obj 797 438 *~;
#X obj 539 507 +~;
#X obj 972 371 *~ 4;
#X obj 1280 295 r~ knob5;
#X obj 972 340 *~;
#X obj 741 547 +~;
#X obj 1161 340 *~;
#X obj 931 547 +~;
#X obj 797 466 *~ 10;
#X obj 539 631 *~ 0.2;
#X obj 741 633 *~ 0.2;
#X obj 797 407 hv.osc~ saw;
#X obj 972 407 hv.osc~ saw;
#X obj 1161 407 hv.osc~ saw;
#X obj 342 346 hv.drunk;
#X obj 481 340 /~;
#X obj 342 199 loadbang;
#X obj 382 230 bng 25 250 50 0 empty empty empty 17 7 0 10 #191919 #ffffff #ffffff;
#X msg 361 293 20;
#X msg 382 314 3;
#X obj 342 429 line~;
#X obj 342 265 metro 50;
#X obj 797 236 *~ 0.01;
#X msg 342 400 \$1 \$2;
#X obj 342 375 pack;
#X obj 451 166 snapshot~;
#X obj 451 236 *;
#X obj 451 199 * 100;
#X obj 539 1150 *~;
#X obj 741 1150 *~;
#X obj 394 583 phasor~;
#X obj 461 494 *~ 0.01;
#X obj 394 711 *~;
#X obj 14 524 line~;
#X obj 14 559 *~ -1;
#X obj 14 586 +~ 1;
#X msg 14 498 \$1 100;
#X obj 14 403 change;
#X obj 14 431 sel 1;
#X obj 14 458 tgl 25 0 empty empty empty 17 7 0 10 #191919 #e1e1e1 #e1e1e1 0 1;
#X obj 84 403 loadbang;
#X msg 87 433 1;
#X obj 84 472 sig~;
#X obj 441 711 *~;
#X obj 14 372 r mpr121_driver_ch10 @hv_param;
#X text 14 343 drift vol;
#X obj 308 559 / 127;
#X obj 394 556 *~ 0.08;
#X obj 288 494 hsl 128 17 0 127 0 0 empty empty empty -2 -8 0 10 #191919 #ffffff #ffffff 0 1;
#X obj 27 734 / 127;
#X obj -11 659 hsl 128 21 0 127 0 0 empty empty empty -2 -8 0 10 #191919 #ffffff #ffffff 0 1;
#X obj 62 830 line~;
#X obj 62 865 *~ -1;
#X obj 62 892 +~ 1;
#X msg 62 804 \$1 100;
#X obj 256 784 *~;
#X obj 308 784 *~;
#X obj 27 693 ctlin 4;
#X obj 308 518 ctlin 9;
#X obj 972 466 *~ 13;
#X obj 1161 466 *~ 15;
#X text 1299 318 Pulse-width control (0..1);
#X obj 1282 417 snapshot~;
#X obj 1298 371 loadbang;
#X obj 1298 393 metro 2;
#X obj 87 698 loadbang;
#X msg 87 724 0.5;
#X obj 364 518 loadbang;
#X msg 364 544 0.05;
#X text 1099 937 Pulse-width control (0..1);
#X obj 1043 939 osc~;
#X obj 1043 975 *~ 10000;
#X obj 931 1061 *~;
#X obj 1043 1007 clip~ -1 1;
#X obj 931 1007 +~;
#X obj 1094 750 *~;
#X obj 1104 585 line~;
#X obj 1094 875 snapshot~;
#X obj 1001 585 loadbang;
#X obj 1069 585 bng 25 250 50 0 empty empty empty 17 7 0 10 #191919 #ffffff #ffffff;
#X obj 1094 724 hv.osc~ sine;
#X obj 931 585 *~ 1;
#X obj 1094 777 *~ -1;
#X obj 1094 805 +~ 1;
#X obj 1094 833 *~ 0.5;
#X obj 931 1110 *~ 0.2;
#X obj 1001 624 metro 1;
#X obj 1094 689 phasor~;
#X obj 1001 659 hv.drunk 100 15;
#X obj 1001 691 / 100;
#X obj 1001 716 sig~;
#X obj 990 756 *~;
#X obj 931 939 hv.osc~ square;
#X obj 931 1217 throw~ \$0-osc3;
#X obj 931 1150 clip~ -0.95 0.95;
#X connect 0 0 5 0;
#X connect 1 0 4 0;
#X connect 2 0 3 0;
#X connect 3 0 8 0;
#X connect 3 0 56 0;
#X connect 4 0 69 0;
#X connect 5 0 70 0;
#X connect 8 0 46 0;
#X connect 8 0 48 0;
#X connect 8 0 42 0;
#X connect 9 0 10 0;
#X connect 10 0 72 0;
#X connect 10 0 88 0;
#X connect 11 0 12 0;
#X connect 12 0 10 1;
#X connect 13 0 2 0;
#X connect 14 0 22 0;
#X connect 15 0 14 0;
#X connect 15 1 17 0;
#X connect 16 0 4 1;
#X connect 16 0 5 1;
#X connect 16 0 113 1;
#X connect 17 0 18 0;
#X connect 17 0 67 1;
#X connect 18 0 19 0;
#X connect 19 0 16 0;
#X connect 20 0 21 0;
#X connect 21 0 16 0;
#X connect 22 0 20 0;
#X connect 23 0 18 1;
#X connect 24 0 20 1;
#X connect 25 0 26 0;
#X connect 26 0 13 0;
#X connect 26 1 15 0;
#X connect 27 0 100 0;
#X connect 28 0 50 0;
#X connect 29 0 28 0;
#X connect 30 0 54 0;
#X connect 31 0 101 0;
#X connect 32 0 3 1;
#X connect 33 0 40 1;
#X connect 34 0 41 1;
#X connect 35 0 45 1;
#X connect 36 0 27 1;
#X connect 36 0 31 1;
#X connect 37 0 47 1;
#X connect 38 0 51 0;
#X connect 39 0 63 0;
#X connect 39 0 66 0;
#X connect 40 0 52 0;
#X connect 41 0 49 0;
#X connect 42 0 29 0;
#X connect 43 0 53 0;
#X connect 44 0 103 0;
#X connect 45 0 43 0;
#X connect 46 0 38 0;
#X connect 47 0 30 0;
#X connect 48 0 122 0;
#X connect 49 0 42 1;
#X connect 50 0 1 0;
#X connect 51 0 0 0;
#X connect 52 0 41 0;
#X connect 53 0 27 0;
#X connect 54 0 31 0;
#X connect 55 0 65 0;
#X connect 56 0 11 0;
#X connect 57 0 62 0;
#X connect 57 0 59 0;
#X connect 57 0 60 0;
#X connect 58 0 62 0;
#X connect 59 0 55 1;
#X connect 60 0 55 2;
#X connect 61 0 56 1;
#X connect 62 0 55 0;
#X connect 62 0 66 0;
#X connect 63 0 40 0;
#X connect 63 0 45 0;
#X connect 63 0 47 0;
#X connect 64 0 61 0;
#X connect 65 0 64 0;
#X connect 66 0 68 0;
#X connect 67 0 65 1;
#X connect 68 0 67 0;
#X connect 69 0 6 0;
#X connect 70 0 7 0;
#X connect 71 0 96 0;
#X connect 72 0 8 1;
#X connect 73 0 69 1;
#X connect 73 0 70 1;
#X connect 74 0 75 0;
#X connect 74 0 73 1;
#X connect 75 0 76 0;
#X connect 76 0 84 1;
#X connect 77 0 74 0;
#X connect 78 0 79 0;
#X connect 79 0 80 0;
#X connect 80 0 77 0;
#X connect 81 0 82 0;
#X connect 82 0 79 0;
#X connect 82 0 83 0;
#X connect 83 0 84 0;
#X connect 83 0 97 0;
#X connect 84 0 69 1;
#X connect 84 0 70 1;
#X connect 85 0 78 0;
#X connect 87 0 88 1;
#X connect 88 0 71 0;
#X connect 89 0 87 0;
#X connect 90 0 95 0;
#X connect 91 0 90 0;
#X connect 92 0 93 0;
#X connect 92 0 96 1;
#X connect 93 0 94 0;
#X connect 94 0 97 1;
#X connect 95 0 92 0;
#X connect 96 0 73 0;
#X connect 97 0 73 0;
#X connect 98 0 90 0;
#X connect 99 0 87 0;
#X connect 100 0 46 1;
#X connect 101 0 48 1;
#X connect 104 0 105 0;
#X connect 105 0 103 0;
#X connect 106 0 107 0;
#X connect 107 0 95 0;
#X connect 108 0 109 0;
#X connect 109 0 88 1;
#X connect 111 0 112 0;
#X connect 112 0 114 0;
#X connect 113 0 126 0;
#X connect 114 0 115 1;
#X connect 115 0 113 0;
#X connect 116 0 123 0;
#X connect 117 0 116 1;
#X connect 118 0 133 1;
#X connect 119 0 127 0;
#X connect 120 0 127 0;
#X connect 121 0 116 0;
#X connect 122 0 111 0;
#X connect 122 0 132 0;
#X connect 122 0 133 0;
#X connect 123 0 124 0;
#X connect 124 0 125 0;
#X connect 125 0 118 0;
#X connect 126 0 135 0;
#X connect 127 0 118 0;
#X connect 127 0 129 0;
#X connect 128 0 121 0;
#X connect 129 0 130 0;
#X connect 130 0 131 0;
#X connect 131 0 132 1;
#X connect 132 0 128 0;
#X connect 133 0 115 0;
#X connect 135 0 134 0;
#X restore 405 672 pd 3oscsynth;
#X connect 4 0 204 0;
#X connect 5 0 4 0;
#X connect 6 0 24 0;
#X connect 7 0 202 0;
#X connect 8 0 7 0;
#X connect 9 0 11 0;
#X connect 10 0 203 0;
#X connect 11 0 10 0;
#X connect 12 0 14 0;
#X connect 13 0 205 0;
#X connect 14 0 13 0;
#X connect 15 0 17 0;
#X connect 16 0 206 0;
#X connect 17 0 16 0;
#X connect 18 0 262 0;
#X connect 19 0 261 0;
#X connect 20 0 22 0;
#X connect 21 0 23 1;
#X connect 21 0 258 1;
#X connect 21 0 259 1;
#X connect 21 0 19 1;
#X connect 21 0 18 1;
#X connect 22 0 21 0;
#X connect 23 0 260 0;
#X connect 24 0 8 0;
#X connect 25 0 24 0;
#X connect 26 0 11 0;
#X connect 27 0 5 0;
#X connect 28 0 5 0;
#X connect 29 0 14 0;
#X connect 30 0 17 0;
#X connect 31 0 34 0;
#X connect 32 0 34 1;
#X connect 33 0 31 0;
#X connect 34 0 54 0;
#X connect 35 0 37 0;
#X connect 36 0 70 0;
#X connect 37 0 36 0;
#X connect 39 0 47 0;
#X connect 40 0 49 0;
#X connect 41 0 39 0;
#X connect 42 0 40 0;
#X connect 43 0 44 0;
#X connect 44 0 46 0;
#X connect 45 0 43 0;
#X connect 45 1 43 1;
#X connect 46 0 48 0;
#X connect 47 0 231 0;
#X connect 48 0 232 0;
#X connect 49 0 233 0;
#X connect 50 0 43 0;
#X connect 50 0 41 0;
#X connect 51 0 45 0;
#X connect 51 0 42 0;
#X connect 53 0 256 0;
#X connect 54 0 53 0;
#X connect 56 0 217 0;
#X connect 57 0 219 0;
#X connect 58 0 221 0;
#X connect 59 0 223 0;
#X connect 60 0 153 0;
#X connect 61 0 160 0;
#X connect 62 0 167 0;
#X connect 63 0 65 0;
#X connect 63 1 65 1;
#X connect 65 0 123 0;
#X connect 66 0 23 0;
#X connect 67 0 19 0;
#X connect 68 0 18 0;
#X connect 69 0 123 0;
#X connect 70 0 53 1;
#X connect 70 0 54 1;
#X connect 70 0 254 1;
#X connect 70 0 253 1;
#X connect 71 0 76 0;
#X connect 72 0 73 0;
#X connect 73 0 74 0;
#X connect 74 0 103 0;
#X connect 75 0 72 0;
#X connect 79 0 87 0;
#X connect 79 0 92 0;
#X connect 80 0 89 0;
#X connect 81 0 79 0;
#X connect 82 0 80 0;
#X connect 83 0 84 0;
#X connect 84 0 86 0;
#X connect 85 0 83 0;
#X connect 85 1 83 1;
#X connect 86 0 88 0;
#X connect 87 0 95 0;
#X connect 88 0 234 0;
#X connect 89 0 207 0;
#X connect 90 0 91 0;
#X connect 91 0 94 0;
#X connect 92 0 90 0;
#X connect 92 0 93 0;
#X connect 93 0 94 1;
#X connect 94 0 95 1;
#X connect 95 0 97 0;
#X connect 95 0 100 0;
#X connect 97 0 99 0;
#X connect 98 0 99 1;
#X connect 99 0 235 0;
#X connect 100 0 98 0;
#X connect 101 0 83 0;
#X connect 101 0 81 0;
#X connect 102 0 85 0;
#X connect 102 0 82 0;
#X connect 103 0 71 0;
#X connect 104 0 189 0;
#X connect 104 1 190 0;
#X connect 106 0 129 1;
#X connect 107 0 129 1;
#X connect 108 0 129 0;
#X connect 110 0 111 0;
#X connect 110 0 112 0;
#X connect 111 0 113 0;
#X connect 112 0 119 0;
#X connect 114 0 117 0;
#X connect 114 0 118 0;
#X connect 117 0 115 0;
#X connect 118 0 116 0;
#X connect 120 0 22 0;
#X connect 121 0 240 0;
#X connect 122 0 248 0;
#X connect 123 0 236 0;
#X connect 123 1 236 1;
#X connect 124 0 209 0;
#X connect 125 0 170 0;
#X connect 126 0 176 0;
#X connect 127 0 230 0;
#X connect 128 0 22 0;
#X connect 129 0 105 0;
#X connect 130 0 188 0;
#X connect 130 1 187 0;
#X connect 132 0 134 1;
#X connect 133 0 134 1;
#X connect 134 0 131 0;
#X connect 135 0 134 0;
#X connect 136 0 191 0;
#X connect 136 1 192 0;
#X connect 138 0 140 1;
#X connect 139 0 140 1;
#X connect 140 0 137 0;
#X connect 141 0 140 0;
#X connect 142 0 193 0;
#X connect 142 1 194 0;
#X connect 144 0 146 1;
#X connect 145 0 146 1;
#X connect 146 0 143 0;
#X connect 147 0 146 0;
#X connect 148 0 196 0;
#X connect 148 1 195 0;
#X connect 150 0 152 1;
#X connect 151 0 152 1;
#X connect 152 0 149 0;
#X connect 153 0 226 0;
#X connect 154 0 152 0;
#X connect 155 0 198 0;
#X connect 155 1 197 0;
#X connect 157 0 159 1;
#X connect 158 0 159 1;
#X connect 159 0 156 0;
#X connect 160 0 225 0;
#X connect 161 0 159 0;
#X connect 162 0 200 0;
#X connect 162 1 199 0;
#X connect 164 0 166 1;
#X connect 165 0 166 1;
#X connect 166 0 163 0;
#X connect 167 0 224 0;
#X connect 168 0 166 0;
#X connect 169 0 171 0;
#X connect 170 0 169 0;
#X connect 171 0 172 0;
#X connect 172 0 173 0;
#X connect 173 0 185 0;
#X connect 174 0 185 0;
#X connect 175 0 177 0;
#X connect 176 0 175 0;
#X connect 177 0 178 0;
#X connect 178 0 181 0;
#X connect 179 0 178 0;
#X connect 179 0 172 0;
#X connect 180 0 179 0;
#X connect 180 0 184 0;
#X connect 180 0 174 0;
#X connect 181 0 186 0;
#X connect 184 0 186 0;
#X connect 187 0 135 0;
#X connect 187 1 132 0;
#X connect 188 0 135 0;
#X connect 188 1 133 0;
#X connect 189 0 108 0;
#X connect 189 1 107 0;
#X connect 190 0 108 0;
#X connect 190 1 106 0;
#X connect 191 0 141 0;
#X connect 191 1 139 0;
#X connect 192 0 141 0;
#X connect 192 1 138 0;
#X connect 193 0 147 0;
#X connect 193 1 145 0;
#X connect 194 0 147 0;
#X connect 194 1 144 0;
#X connect 195 0 154 0;
#X connect 195 1 150 0;
#X connect 196 0 154 0;
#X connect 196 1 151 0;
#X connect 197 0 161 0;
#X connect 197 1 157 0;
#X connect 198 0 161 0;
#X connect 198 1 158 0;
#X connect 199 0 168 0;
#X connect 199 1 164 0;
#X connect 200 0 168 0;
#X connect 200 1 165 0;
#X connect 209 0 201 0;
#X connect 209 1 263 0;
#X connect 209 2 264 0;
#X connect 209 3 265 0;
#X connect 209 4 266 0;
#X connect 209 5 267 0;
#X connect 210 0 35 0;
#X connect 211 0 213 0;
#X connect 212 0 215 0;
#X connect 213 0 212 0;
#X connect 214 0 213 0;
#X connect 216 0 130 0;
#X connect 217 0 216 0;
#X connect 218 0 104 0;
#X connect 219 0 218 0;
#X connect 220 0 136 0;
#X connect 221 0 220 0;
#X connect 222 0 142 0;
#X connect 223 0 222 0;
#X connect 224 0 162 0;
#X connect 225 0 155 0;
#X connect 226 0 148 0;
#X connect 227 0 229 0;
#X connect 228 0 37 0;
#X connect 229 0 228 0;
#X connect 230 0 128 0;
#X connect 231 0 208 0;
#X connect 232 0 208 0;
#X connect 233 0 208 0;
#X connect 234 0 207 0;
#X connect 235 0 207 0;
#X connect 236 0 124 0;
#X connect 236 1 124 1;
#X connect 236 2 124 2;
#X connect 237 0 239 0;
#X connect 237 0 238 0;
#X connect 238 0 237 1;
#X connect 239 0 244 0;
#X connect 240 0 241 0;
#X connect 241 0 237 0;
#X connect 242 0 243 0;
#X connect 243 0 244 0;
#X connect 244 0 112 1;
#X connect 244 0 111 1;
#X connect 245 0 247 0;
#X connect 245 0 246 0;
#X connect 246 0 245 1;
#X connect 247 0 252 0;
#X connect 248 0 249 0;
#X connect 249 0 245 0;
#X connect 250 0 251 0;
#X connect 251 0 252 0;
#X connect 252 0 118 1;
#X connect 252 0 117 1;
#X connect 253 0 257 0;
#X connect 254 0 253 0;
#X connect 255 0 258 0;
#X connect 255 1 259 0;
#X connect 256 0 3 0;
#X connect 256 0 3 1;
#X connect 258 0 54 0;
#X connect 259 0 254 0;
#X connect 260 0 33 0;
#X connect 261 0 33 1;
#X connect 262 0 32 0;
