#N canvas 827 239 734 565 12;
#X obj -67 483 hv.vline~;
#X msg 846 -51 1 1000;
#X msg 934 67 stop;
#X msg 903 -4 0;
#X text 911 -54 ramp up;
#X text 938 -26 ramp down;
#X text 925 18 ramp up \, jump down \, ramp up again;
#X text 941 -5 jump down;
#X text 977 66 "stop" message freezes vline~ at its current value;
#X obj 886 197 env~;
#X obj 886 219 dbtorms;
#X floatatom 886 241 5 0 0 0 - - - 0;
#X msg 919 39 1 1000 \, 0 0 1000 \, 1 1000 1000;
#X obj 846 112 hv.vline~;
#X obj -154 528 *~;
#X obj 534 406 dac~;
#X obj -154 405 sig~;
#X obj -154 460 hv.osc~ saw;
#X obj -154 368 mtof;
#X obj -67 347 moses 0.01;
#X obj -127 307 / 127;
#X msg -67 439 0 500;
#X obj -154 489 *~ 0.1;
#X obj -154 568 throw~ \$0-mix;
#X obj 539 343 catch~ \$0-mix;
#X obj 539 87 pack f f f;
#X obj -154 272 unpack f f f;
#X obj 539 205 route 1 2 3 4;
#X obj 539 116 unpack f f f;
#X obj 103 2 notein;
#X obj 103 220 route 1 2 3 4 5 6 7 8;
#X text 179 56 touchpad notes input, f 19;
#X obj 103 87 pack f f;
#X obj 179 84 r touchnote;
#X obj 103 194 pack f f f f;
#X obj 103 133 unpack f f f f;
#X obj 539 56 notein;
#X obj 539 174 pack f f f;
#X obj 539 144 poly 1;
#X msg 59 439 stop;
#X obj 379 59 tgl 25 0 empty empty empty 17 7 0 10 #191919 #ffffff #ffffff 0 1;
#X obj 379 109 sel 0 1;
#X obj 393 133 s hold;
#X obj 379 159 s release;
#X obj 59 347 r hold;
#X obj 17 307 r release;
#X msg -14 439 \$1 2000;
#X obj -67 405 spigot;
#X text 379 -28 touchpad latch function // This should overide the release of note off message 0, f 19;
#X obj 439 109 loadbang;
#X msg -42 374 0;
#X msg 20 374 1;
#X obj 239 481 hv.vline~;
#X obj 128 520 *~;
#X obj 128 397 sig~;
#X obj 128 431 hv.osc~ saw;
#X obj 128 360 mtof;
#X obj 239 325 moses 0.01;
#X obj 155 299 / 127;
#X msg 239 431 0 500;
#X obj 128 481 *~ 0.1;
#X obj 128 560 throw~ \$0-mix;
#X obj 128 264 unpack f f f;
#X msg 394 431 stop;
#X obj 394 325 r hold;
#X obj 326 325 r release;
#X msg 292 431 \$1 2000;
#X obj 239 397 spigot;
#X msg 417 360 0;
#X msg 368 360 1;
#X obj 103 167 poly 2;
#X obj 166 2 polytouchin;
#X connect 0 0 14 1;
#X connect 1 0 13 0;
#X connect 2 0 13 0;
#X connect 3 0 13 0;
#X connect 9 0 10 0;
#X connect 10 0 11 0;
#X connect 12 0 13 0;
#X connect 13 0 9 0;
#X connect 14 0 23 0;
#X connect 16 0 17 0;
#X connect 17 0 22 0;
#X connect 18 0 16 0;
#X connect 19 0 47 0;
#X connect 19 1 46 0;
#X connect 20 0 19 0;
#X connect 21 0 0 0;
#X connect 22 0 14 0;
#X connect 24 0 15 0;
#X connect 24 0 15 1;
#X connect 25 0 28 0;
#X connect 26 0 18 0;
#X connect 26 1 20 0;
#X connect 28 0 38 0;
#X connect 28 1 38 1;
#X connect 29 0 32 0;
#X connect 29 1 32 1;
#X connect 30 0 26 0;
#X connect 30 1 62 0;
#X connect 32 0 35 0;
#X connect 33 0 35 0;
#X connect 34 0 30 0;
#X connect 35 0 70 0;
#X connect 35 1 70 1;
#X connect 35 2 34 3;
#X connect 36 0 25 0;
#X connect 36 1 25 1;
#X connect 37 0 27 0;
#X connect 38 0 37 0;
#X connect 38 1 37 1;
#X connect 38 2 37 2;
#X connect 39 0 0 0;
#X connect 40 0 41 0;
#X connect 41 0 43 0;
#X connect 41 1 42 0;
#X connect 44 0 50 0;
#X connect 44 0 39 0;
#X connect 45 0 21 0;
#X connect 45 0 51 0;
#X connect 46 0 0 0;
#X connect 47 0 21 0;
#X connect 49 0 43 0;
#X connect 50 0 47 1;
#X connect 51 0 47 1;
#X connect 52 0 53 1;
#X connect 53 0 61 0;
#X connect 54 0 55 0;
#X connect 55 0 60 0;
#X connect 56 0 54 0;
#X connect 57 0 67 0;
#X connect 57 1 66 0;
#X connect 58 0 57 0;
#X connect 59 0 52 0;
#X connect 60 0 53 0;
#X connect 62 0 56 0;
#X connect 62 1 58 0;
#X connect 63 0 52 0;
#X connect 64 0 68 0;
#X connect 64 0 63 0;
#X connect 65 0 59 0;
#X connect 65 0 69 0;
#X connect 66 0 52 0;
#X connect 67 0 59 0;
#X connect 68 0 67 1;
#X connect 69 0 67 1;
#X connect 70 0 34 0;
#X connect 70 1 34 1;
#X connect 70 2 34 2;
#X connect 71 0 32 1;
#X connect 71 1 32 0;
