#N canvas 827 239 734 565 12;
#X obj 1264 361 cnv 15 957 700 empty empty OSC\ 3X 20 12 0 14 #626262 #ffffff 0;
#X obj 247 1193 cnv 15 969 656 empty empty octave\ CV\ switches 20 12 0 14 #626262 #ffffff 0;
#X obj 1462 572 line~;
#X obj 1465 489 hsl 128 17 0 1 0 0 empty empty empty -2 -8 0 10 #191919 #e1e1e1 #e1e1e1 0 1;
#X obj 1610 577 line~;
#X obj 1613 491 hsl 128 17 0 1 0 0 empty empty empty -2 -8 0 10 #191919 #e1e1e1 #e1e1e1 0 1;
#X obj 247 741 cnv 15 969 423 empty empty TOUCHPADS\ NOTES 20 12 0 14 #626262 #ffffff 0;
#X text 461 1322 174.61 \, 196 \, 207.65 \, 233.08 \, 261.63 \, 277.18 \, 311.13 \, 349.23 } // F minor F3 \, G3 \, G#3 \, A#3 \, C4 \, C#4 \, D#4 \, F4;
#X msg 805 1594 \$1 20, f 9;
#X msg 1015 1594 \$1 20, f 9;
#X obj 805 1561 change;
#X obj 1015 1558 change;
#X obj 941 1515 ==;
#X obj 941 1558 change;
#X obj 941 1478 t b f;
#X msg 941 1594 \$1 20, f 9;
#X obj 890 1814 s~ pitchfreq;
#X obj 805 1629 line~;
#X obj 941 1629 line~;
#X obj 1015 1629 line~;
#X obj 805 1669 *~ 3;
#X obj 941 1669 *~ 2;
#X obj 805 1430 r toggle2down_press @hv_param;
#X obj 1015 1430 r toggle2up_press @hv_param;
#X text 817 1396 Octave switcher by division:, f 37;
#X obj 256 1376 cnv 15 542 414 empty empty 3.275V\ CV\ pitch\ -\ OMX-27 20 12 0 14 #7c7c7c #ffffff 0;
#X msg 1079 1497 1, f 9;
#X obj 2238 361 cnv 15 550 708 empty empty latching\ double\ function\ faders 20 12 0 14 #626262 #ffffff 0;
#X obj 2235 1080 cnv 15 553 773 empty empty End\ of\ Chain\ /\ Volume 20 12 0 14 #626262 #ffffff 0;
#X obj 1264 1080 cnv 15 957 773 empty empty FX\ block\ -\ AUX\ input 20 12 0 14 #626262 #ffffff 0;
#X obj 1285 1145 catch~ \$0-mix;
#X obj 1285 1181 clip~ -0.85 0.85;
#X text 1285 1117 catch mix from osc 1 \, 2 \, 3, f 29;
#X obj 1656 1102 adc~;
#X obj 1696 1406 *~;
#X obj 1656 1406 *~;
#X obj 1696 1463 clip~ -0.95 0.95;
#X obj 1656 1437 clip~ -0.95 0.95;
#X obj 1736 1236 sel 1;
#X obj 1962 1236 sel 1;
#X obj 1736 1208 change;
#X obj 1962 1205 change;
#X obj 1852 1181 ==;
#X obj 1852 1205 change;
#X obj 1852 1152 t b f;
#X obj 1736 1121 r toggle1left_press @hv_param;
#X obj 1962 1121 r toggle1right_press @hv_param;
#X obj 1852 1236 sel 1;
#X msg 1736 1267 0 200;
#X text 1968 1099 mayhem ADC, f 29;
#X text 1736 1099 ADC vol off, f 12;
#X text 1852 1099 amp ADC 200, f 29;
#X obj 1736 1301 line;
#X obj 1852 1301 line;
#X obj 1962 1301 line;
#X obj 1736 1346 f;
#X obj 1736 1370 sig~;
#X obj 2481 1330 hv.comb~;
#X msg 2431 1202 feedfwd 0.73;
#X msg 2431 1225 feedback 0.89;
#X msg 2431 1249 indelay 46;
#X msg 2431 1271 outdelay 41;
#X msg 2431 1295 slide 952;
#X obj 2404 1330 hv.comb~;
#X obj 1581 1570 *~;
#X obj 1619 1570 *~;
#X obj 2654 1238 line~;
#X obj 2643 1391 *~;
#X obj 2685 1391 *~;
#X obj 2623 1291 *~ -1;
#X obj 2623 1318 +~ 1;
#X obj 2382 1391 *~;
#X obj 2423 1391 *~;
#X text 2724 1387 inlet wet;
#X text 2323 1387 inlet dry;
#X obj 2382 1441 +~;
#X obj 2423 1441 +~;
#X obj 1473 1570 *~;
#X obj 1518 1570 *~;
#X msg 2532 1202 feedfwd 0.73;
#X msg 2532 1225 feedback 0.89;
#X msg 2532 1249 indelay 46;
#X msg 2532 1271 outdelay 41;
#X msg 2532 1295 slide 952;
#X obj 1285 1324 *~ 0.5;
#X obj 2485 585 i;
#X obj 2532 585 + 1;
#X obj 2485 617 % 2;
#X obj 2325 459 r faderleft @hv_param;
#X obj 2326 653 latch 0, f 9;
#X obj 2326 685 s faderleftlatch0;
#X obj 2485 457 r mpr121_driver_ch10 @hv_param;
#X obj 2485 488 change;
#X obj 2485 516 sel 1;
#X obj 2485 543 tgl 25 0 empty empty empty 17 7 0 10 #191919 #e1e1e1 #e1e1e1 0 1;
#X obj 2489 862 i;
#X obj 2536 862 + 1;
#X obj 2489 894 % 2;
#X obj 2489 765 change;
#X obj 2489 793 sel 1;
#X obj 2489 820 tgl 25 0 empty empty empty 17 7 0 10 #191919 #e1e1e1 #e1e1e1 0 1;
#X obj 2329 736 r faderright @hv_param;
#X obj 2489 734 r mpr121_driver_ch11 @hv_param;
#X obj 2330 968 s faderrightlatch0;
#X obj 2451 968 s faderrightlatch1;
#X obj 2556 1702 line~;
#X obj 2380 1729 *~;
#X obj 2423 1729 *~;
#X msg 2654 1212 \$1 100;
#X msg 2556 1674 \$1 100;
#X obj 1484 1721 +~;
#X obj 1525 1721 +~;
#X obj 1574 1721 +~;
#X obj 1615 1721 +~;
#X obj 1574 1779 throw~ \$0-mix-comb-l;
#X obj 1615 1752 throw~ \$0-mix-comb-r;
#X obj 2404 1110 catch~ \$0-mix-comb-l;
#X obj 2481 1136 catch~ \$0-mix-comb-r;
#X obj 1525 1805 throw~ \$0-mix-dry-r;
#X obj 1484 1828 throw~ \$0-mix-dry-l;
#X obj 2264 1136 catch~ \$0-mix-dry-l;
#X obj 2262 1107 catch~ \$0-mix-dry-r;
#X obj 2276 1466 catch~ \$0-bypass-l;
#X obj 1297 1637 throw~ \$0-bypass-l;
#X obj 1342 1615 throw~ \$0-bypass-r;
#X obj 2409 1466 catch~ \$0-bypass-r;
#X obj 1297 1570 *~;
#X obj 1342 1570 *~;
#X obj 1656 1608 *~;
#X obj 1696 1608 *~;
#X obj 1656 1662 throw~ \$0-bypass-l;
#X obj 1696 1639 throw~ \$0-bypass-r;
#X obj 2556 1645 r faderleftlatch1;
#X obj 2382 1527 +~;
#X obj 2423 1527 +~;
#X obj 2654 1181 r faderrightlatch1;
#X obj 2444 685 s faderleftlatch1;
#X obj 2381 1618 hv.lop~;
#X obj 2446 1618 hv.lop~;
#X obj 2553 1487 r faderleftlatch0;
#X msg 2553 1513 \$1 20;
#X obj 2553 1534 line~;
#X obj 2553 1595 mtof~;
#X obj 2553 1565 *~ 127;
#X msg 2670 1674 0.5;
#X obj 2670 1645 loadbang;
#X obj 2670 1487 loadbang;
#X obj 2676 1110 loadbang;
#X msg 2676 1136 0.5;
#X obj 1429 1404 line~;
#X obj 1513 1460 *~ -1;
#X obj 1513 1487 +~ 1;
#X msg 1429 1378 \$1 100;
#X obj 1429 1290 change;
#X obj 1429 1318 sel 1;
#X obj 1429 1345 tgl 25 0 empty empty empty 17 7 0 10 #191919 #e1e1e1 #e1e1e1 0 1;
#X obj 1429 1259 r mpr121_driver_ch0 @hv_param;
#X obj 1935 1438 line~;
#X obj 1935 1473 *~ -1;
#X obj 1935 1500 +~ 1;
#X msg 1935 1412 \$1 100;
#X obj 1995 1439 change;
#X obj 1995 1467 sel 1;
#X obj 1995 1494 tgl 25 0 empty empty empty 17 7 0 10 #191919 #e1e1e1 #e1e1e1 0 1;
#X text 1429 1240 osc FX bypass - dry / wet;
#X text 1995 1379 adc FX bypass - dry / wet;
#X obj 1995 1408 r mpr121_driver_ch2 @hv_param;
#X msg 2670 1513 1;
#X obj 2574 488 loadbang;
#X msg 2577 516 1;
#X obj 2577 765 loadbang;
#X msg 2580 793 1;
#X obj 1510 1290 loadbang;
#X msg 1513 1320 1;
#X obj 2070 1439 loadbang;
#X msg 2073 1469 1;
#X msg 1852 1267 1 200;
#X msg 1962 1267 3 200;
#X obj 2404 1136 *~ 0.5;
#X obj 2481 1162 *~ 0.5;
#X obj 1762 573 line~;
#X obj 1765 483 hsl 128 17 0 1 0 0 empty empty empty -2 -8 0 10 #191919 #e1e1e1 #e1e1e1 0 1;
#X obj 1908 577 line~;
#X obj 1911 491 hsl 128 17 0 1 0 0 empty empty empty -2 -8 0 10 #191919 #e1e1e1 #e1e1e1 0 1;
#X obj 2062 573 line~;
#X obj 2065 488 hsl 128 17 0 1 0 0 empty empty empty -2 -8 0 10 #191919 #e1e1e1 #e1e1e1 0 1;
#X obj 1319 573 line~;
#X obj 1325 489 hsl 128 17 0 1 0 0 empty empty empty -2 -8 0 10 #191919 #e1e1e1 #e1e1e1 0 1;
#X obj 1462 516 r knob1 @hv_param;
#X obj 1610 520 r knob2 @hv_param;
#X obj 2406 653 latch 1, f 8;
#X obj 2330 930 latch 0, f 9;
#X obj 2410 930 latch 1, f 8;
#X obj 1319 517 r knob0 @hv_param;
#X obj 1762 517 r knob3 @hv_param;
#X obj 1908 520 r knob4 @hv_param;
#X obj 2062 517 r knob5 @hv_param;
#X obj 2380 1795 dac~;
#X obj 1428 688 notein;
#X text 1319 464 osc1 vol, f 19;
#X text 1462 464 osc1 drift, f 19;
#X text 1610 464 osc2 vol, f 19;
#X text 1762 464 osc2 drift, f 19;
#X text 1908 464 osc3 vol, f 19;
#X text 2062 464 osc3 drift, f 19;
#X msg 1319 546 \$1 20;
#X msg 1462 545 \$1 200;
#X msg 1610 549 \$1 20;
#X msg 1762 546 \$1 200;
#X msg 1908 549 \$1 20;
#X msg 2062 546 \$1 200;
#X obj 1462 605 send~ drift1;
#X obj 1319 605 send~ vol1;
#X obj 1610 605 send~ vol2;
#X obj 1762 605 send~ drift2;
#X obj 1908 605 send~ vol3;
#X obj 2062 605 send~ drift3;
#X obj 1490 688 polytouchin;
#X obj 1428 803 pack f f f;
#X obj 285 823 change;
#X obj 285 852 sel 0 1;
#X obj 285 791 r mpr121_driver_ch3 @hv_param;
#X msg 316 882 99;
#X msg 287 882 0;
#X obj 346 817 tgl 25 0 empty empty empty 17 7 0 10 #191919 #ffffff #ffffff 0 1;
#X obj 360 915 s note;
#X obj 287 915 s vel;
#N canvas 0 50 450 300 3oscsynth 0;
#X obj 335 141 inlet;
#X obj 335 592 throw~ \$0-mix;
#X obj 335 393 +~;
#X obj 335 427 hv.osc~ saw;
#X obj 393 314 r~ drift1;
#X obj 393 349 *~ 5;
#X obj 400 455 r~ vol1;
#X obj 335 515 *~;
#X obj 508 592 throw~ \$0-mix;
#X obj 508 393 +~;
#X obj 508 427 hv.osc~ saw;
#X obj 537 349 *~ 5;
#X obj 508 515 *~;
#X obj 537 314 r~ drift2;
#X obj 573 455 r~ vol2;
#X obj 699 592 throw~ \$0-mix;
#X obj 699 380 +~;
#X obj 699 414 hv.osc~ saw;
#X obj 728 336 *~ 5;
#X obj 699 502 *~;
#X obj 728 301 r~ drift3;
#X obj 745 439 r~ vol3;
#X obj 335 339 *~ 0.5;
#X obj 335 178 unpack f f f;
#X obj 335 247 sig~;
#X obj 335 215 mtof;
#X obj 347 484 *~;
#X obj 413 210 / 127;
#X obj 413 247 sig~;
#X obj 533 484 *~;
#X obj 724 470 *~;
#X obj 234 247 r~ pitchfreq;
#X text 234 224 octave switch;
#X connect 0 0 23 0;
#X connect 2 0 3 0;
#X connect 3 0 7 0;
#X connect 4 0 5 0;
#X connect 5 0 2 1;
#X connect 6 0 26 1;
#X connect 7 0 1 0;
#X connect 9 0 10 0;
#X connect 10 0 12 0;
#X connect 11 0 9 1;
#X connect 12 0 8 0;
#X connect 13 0 11 0;
#X connect 14 0 29 1;
#X connect 16 0 17 0;
#X connect 17 0 19 0;
#X connect 18 0 16 1;
#X connect 19 0 15 0;
#X connect 20 0 18 0;
#X connect 21 0 30 1;
#X connect 22 0 2 0;
#X connect 23 0 25 0;
#X connect 23 1 27 0;
#X connect 24 0 22 0;
#X connect 24 0 9 0;
#X connect 24 0 16 0;
#X connect 25 0 24 0;
#X connect 26 0 7 1;
#X connect 27 0 28 0;
#X connect 28 0 26 0;
#X connect 28 0 29 0;
#X connect 28 0 30 0;
#X connect 29 0 12 1;
#X connect 30 0 19 1;
#X restore 1428 875 pd 3oscsynth;
#X msg 360 882 174.61;
#X obj 502 823 change;
#X obj 502 852 sel 0 1;
#X msg 533 882 99;
#X msg 504 882 0;
#X obj 563 817 tgl 25 0 empty empty empty 17 7 0 10 #191919 #ffffff #ffffff 0 1;
#X obj 577 915 s note;
#X obj 504 915 s vel;
#X msg 577 882 196;
#X obj 502 791 r mpr121_driver_ch4 @hv_param;
#X obj 726 823 change;
#X obj 726 852 sel 0 1;
#X msg 757 882 99;
#X msg 728 882 0;
#X obj 787 817 tgl 25 0 empty empty empty 17 7 0 10 #191919 #ffffff #ffffff 0 1;
#X obj 801 915 s note;
#X obj 728 915 s vel;
#X obj 726 791 r mpr121_driver_ch5 @hv_param;
#X msg 801 882 207.65;
#X obj 942 823 change;
#X obj 942 852 sel 0 1;
#X msg 973 882 99;
#X msg 944 882 0;
#X obj 1003 817 tgl 25 0 empty empty empty 17 7 0 10 #191919 #ffffff #ffffff 0 1;
#X obj 1017 915 s note;
#X obj 944 915 s vel;
#X obj 942 791 r mpr121_driver_ch6 @hv_param;
#X msg 1017 882 233.08;
#X obj 285 996 change;
#X obj 285 1025 sel 0 1;
#X msg 316 1055 99;
#X msg 287 1055 0;
#X obj 346 990 tgl 25 0 empty empty empty 17 7 0 10 #191919 #ffffff #ffffff 0 1;
#X obj 360 1088 s note;
#X obj 287 1088 s vel;
#X obj 502 996 change;
#X obj 502 1025 sel 0 1;
#X msg 533 1055 99;
#X msg 504 1055 0;
#X obj 563 990 tgl 25 0 empty empty empty 17 7 0 10 #191919 #ffffff #ffffff 0 1;
#X obj 577 1088 s note;
#X obj 504 1088 s vel;
#X obj 726 996 change;
#X obj 726 1025 sel 0 1;
#X msg 757 1055 99;
#X msg 728 1055 0;
#X obj 787 990 tgl 25 0 empty empty empty 17 7 0 10 #191919 #ffffff #ffffff 0 1;
#X obj 801 1088 s note;
#X obj 728 1088 s vel;
#X msg 360 1055 261.63;
#X obj 285 964 r mpr121_driver_ch7 @hv_param;
#X obj 502 964 r mpr121_driver_ch8 @hv_param;
#X obj 726 964 r mpr121_driver_ch9 @hv_param;
#X msg 577 1055 277.18;
#X msg 801 1055 311.18;
#X text 1434 664 midi input, f 19;
#X obj 1079 1472 loadbang;
#X obj 1428 776 poly 4 1;
#X obj 1428 836 route 1 2 3 4;
#X obj 1116 1539 tgl 25 0 empty empty empty 17 7 0 10 #191919 #ffffff #ffffff 0 1;
#X obj 1720 688 r note;
#X obj 1785 716 r vel;
#X obj 1720 716 ftom;
#X obj 1720 825 pack f f f;
#X obj 1720 858 route 1 2 3 4;
#N canvas 0 50 450 300 3oscsynth 0;
#X obj 335 141 inlet;
#X obj 335 592 throw~ \$0-mix;
#X obj 335 393 +~;
#X obj 335 427 hv.osc~ saw;
#X obj 393 314 r~ drift1;
#X obj 393 349 *~ 5;
#X obj 400 455 r~ vol1;
#X obj 335 515 *~;
#X obj 508 592 throw~ \$0-mix;
#X obj 508 393 +~;
#X obj 508 427 hv.osc~ saw;
#X obj 537 349 *~ 5;
#X obj 508 515 *~;
#X obj 537 314 r~ drift2;
#X obj 573 455 r~ vol2;
#X obj 699 592 throw~ \$0-mix;
#X obj 699 380 +~;
#X obj 699 414 hv.osc~ saw;
#X obj 728 336 *~ 5;
#X obj 699 502 *~;
#X obj 728 301 r~ drift3;
#X obj 745 439 r~ vol3;
#X obj 335 339 *~ 0.5;
#X obj 335 178 unpack f f f;
#X obj 335 247 sig~;
#X obj 335 215 mtof;
#X obj 347 484 *~;
#X obj 413 210 / 127;
#X obj 413 247 sig~;
#X obj 533 484 *~;
#X obj 724 470 *~;
#X obj 234 247 r~ pitchfreq;
#X text 234 224 octave switch;
#X connect 0 0 23 0;
#X connect 2 0 3 0;
#X connect 3 0 7 0;
#X connect 4 0 5 0;
#X connect 5 0 2 1;
#X connect 6 0 26 1;
#X connect 7 0 1 0;
#X connect 9 0 10 0;
#X connect 10 0 12 0;
#X connect 11 0 9 1;
#X connect 12 0 8 0;
#X connect 13 0 11 0;
#X connect 14 0 29 1;
#X connect 16 0 17 0;
#X connect 17 0 19 0;
#X connect 18 0 16 1;
#X connect 19 0 15 0;
#X connect 20 0 18 0;
#X connect 21 0 30 1;
#X connect 22 0 2 0;
#X connect 23 0 25 0;
#X connect 23 1 27 0;
#X connect 24 0 22 0;
#X connect 24 0 9 0;
#X connect 24 0 16 0;
#X connect 25 0 24 0;
#X connect 26 0 7 1;
#X connect 27 0 28 0;
#X connect 28 0 26 0;
#X connect 28 0 29 0;
#X connect 28 0 30 0;
#X connect 29 0 12 1;
#X connect 30 0 19 1;
#X restore 1448 895 pd 3oscsynth;
#N canvas 0 50 450 300 3oscsynth 0;
#X obj 335 141 inlet;
#X obj 335 592 throw~ \$0-mix;
#X obj 335 393 +~;
#X obj 335 427 hv.osc~ saw;
#X obj 393 314 r~ drift1;
#X obj 393 349 *~ 5;
#X obj 400 455 r~ vol1;
#X obj 335 515 *~;
#X obj 508 592 throw~ \$0-mix;
#X obj 508 393 +~;
#X obj 508 427 hv.osc~ saw;
#X obj 537 349 *~ 5;
#X obj 508 515 *~;
#X obj 537 314 r~ drift2;
#X obj 573 455 r~ vol2;
#X obj 699 592 throw~ \$0-mix;
#X obj 699 380 +~;
#X obj 699 414 hv.osc~ saw;
#X obj 728 336 *~ 5;
#X obj 699 502 *~;
#X obj 728 301 r~ drift3;
#X obj 745 439 r~ vol3;
#X obj 335 339 *~ 0.5;
#X obj 335 178 unpack f f f;
#X obj 335 247 sig~;
#X obj 335 215 mtof;
#X obj 347 484 *~;
#X obj 413 210 / 127;
#X obj 413 247 sig~;
#X obj 533 484 *~;
#X obj 724 470 *~;
#X obj 234 247 r~ pitchfreq;
#X text 234 224 octave switch;
#X connect 0 0 23 0;
#X connect 2 0 3 0;
#X connect 3 0 7 0;
#X connect 4 0 5 0;
#X connect 5 0 2 1;
#X connect 6 0 26 1;
#X connect 7 0 1 0;
#X connect 9 0 10 0;
#X connect 10 0 12 0;
#X connect 11 0 9 1;
#X connect 12 0 8 0;
#X connect 13 0 11 0;
#X connect 14 0 29 1;
#X connect 16 0 17 0;
#X connect 17 0 19 0;
#X connect 18 0 16 1;
#X connect 19 0 15 0;
#X connect 20 0 18 0;
#X connect 21 0 30 1;
#X connect 22 0 2 0;
#X connect 23 0 25 0;
#X connect 23 1 27 0;
#X connect 24 0 22 0;
#X connect 24 0 9 0;
#X connect 24 0 16 0;
#X connect 25 0 24 0;
#X connect 26 0 7 1;
#X connect 27 0 28 0;
#X connect 28 0 26 0;
#X connect 28 0 29 0;
#X connect 28 0 30 0;
#X connect 29 0 12 1;
#X connect 30 0 19 1;
#X restore 1468 915 pd 3oscsynth;
#N canvas 0 50 450 300 3oscsynth 0;
#X obj 335 141 inlet;
#X obj 335 592 throw~ \$0-mix;
#X obj 335 393 +~;
#X obj 335 427 hv.osc~ saw;
#X obj 393 314 r~ drift1;
#X obj 393 349 *~ 5;
#X obj 400 455 r~ vol1;
#X obj 335 515 *~;
#X obj 508 592 throw~ \$0-mix;
#X obj 508 393 +~;
#X obj 508 427 hv.osc~ saw;
#X obj 537 349 *~ 5;
#X obj 508 515 *~;
#X obj 537 314 r~ drift2;
#X obj 573 455 r~ vol2;
#X obj 699 592 throw~ \$0-mix;
#X obj 699 380 +~;
#X obj 699 414 hv.osc~ saw;
#X obj 728 336 *~ 5;
#X obj 699 502 *~;
#X obj 728 301 r~ drift3;
#X obj 745 439 r~ vol3;
#X obj 335 339 *~ 0.5;
#X obj 335 178 unpack f f f;
#X obj 335 247 sig~;
#X obj 335 215 mtof;
#X obj 347 484 *~;
#X obj 413 210 / 127;
#X obj 413 247 sig~;
#X obj 533 484 *~;
#X obj 724 470 *~;
#X obj 234 247 r~ pitchfreq;
#X text 234 224 octave switch;
#X connect 0 0 23 0;
#X connect 2 0 3 0;
#X connect 3 0 7 0;
#X connect 4 0 5 0;
#X connect 5 0 2 1;
#X connect 6 0 26 1;
#X connect 7 0 1 0;
#X connect 9 0 10 0;
#X connect 10 0 12 0;
#X connect 11 0 9 1;
#X connect 12 0 8 0;
#X connect 13 0 11 0;
#X connect 14 0 29 1;
#X connect 16 0 17 0;
#X connect 17 0 19 0;
#X connect 18 0 16 1;
#X connect 19 0 15 0;
#X connect 20 0 18 0;
#X connect 21 0 30 1;
#X connect 22 0 2 0;
#X connect 23 0 25 0;
#X connect 23 1 27 0;
#X connect 24 0 22 0;
#X connect 24 0 9 0;
#X connect 24 0 16 0;
#X connect 25 0 24 0;
#X connect 26 0 7 1;
#X connect 27 0 28 0;
#X connect 28 0 26 0;
#X connect 28 0 29 0;
#X connect 28 0 30 0;
#X connect 29 0 12 1;
#X connect 30 0 19 1;
#X restore 1488 935 pd 3oscsynth;
#X msg 1851 716 100;
#X obj 1632 764 makenote;
#X msg 1926 687 stop;
#X msg 1918 660 clear;
#X obj 1871 798 makenote 100 2500;
#N canvas 0 50 450 300 3oscsynth 0;
#X obj 335 141 inlet;
#X obj 335 592 throw~ \$0-mix;
#X obj 335 393 +~;
#X obj 335 427 hv.osc~ saw;
#X obj 393 314 r~ drift1;
#X obj 393 349 *~ 5;
#X obj 400 455 r~ vol1;
#X obj 335 515 *~;
#X obj 508 592 throw~ \$0-mix;
#X obj 508 393 +~;
#X obj 508 427 hv.osc~ saw;
#X obj 537 349 *~ 5;
#X obj 508 515 *~;
#X obj 537 314 r~ drift2;
#X obj 573 455 r~ vol2;
#X obj 699 592 throw~ \$0-mix;
#X obj 699 380 +~;
#X obj 699 414 hv.osc~ saw;
#X obj 728 336 *~ 5;
#X obj 699 502 *~;
#X obj 728 301 r~ drift3;
#X obj 745 439 r~ vol3;
#X obj 335 339 *~ 0.5;
#X obj 335 178 unpack f f f;
#X obj 335 247 sig~;
#X obj 335 215 mtof;
#X obj 347 484 *~;
#X obj 413 210 / 127;
#X obj 413 247 sig~;
#X obj 533 484 *~;
#X obj 724 470 *~;
#X obj 234 247 r~ pitchfreq;
#X text 234 224 octave switch;
#X connect 0 0 23 0;
#X connect 2 0 3 0;
#X connect 3 0 7 0;
#X connect 4 0 5 0;
#X connect 5 0 2 1;
#X connect 6 0 26 1;
#X connect 7 0 1 0;
#X connect 9 0 10 0;
#X connect 10 0 12 0;
#X connect 11 0 9 1;
#X connect 12 0 8 0;
#X connect 13 0 11 0;
#X connect 14 0 29 1;
#X connect 16 0 17 0;
#X connect 17 0 19 0;
#X connect 18 0 16 1;
#X connect 19 0 15 0;
#X connect 20 0 18 0;
#X connect 21 0 30 1;
#X connect 22 0 2 0;
#X connect 23 0 25 0;
#X connect 23 1 27 0;
#X connect 24 0 22 0;
#X connect 24 0 9 0;
#X connect 24 0 16 0;
#X connect 25 0 24 0;
#X connect 26 0 7 1;
#X connect 27 0 28 0;
#X connect 28 0 26 0;
#X connect 28 0 29 0;
#X connect 28 0 30 0;
#X connect 29 0 12 1;
#X connect 30 0 19 1;
#X restore 1720 884 pd 3oscsynth;
#N canvas 0 50 450 300 3oscsynth 0;
#X obj 335 141 inlet;
#X obj 335 592 throw~ \$0-mix;
#X obj 335 393 +~;
#X obj 335 427 hv.osc~ saw;
#X obj 393 314 r~ drift1;
#X obj 393 349 *~ 5;
#X obj 400 455 r~ vol1;
#X obj 335 515 *~;
#X obj 508 592 throw~ \$0-mix;
#X obj 508 393 +~;
#X obj 508 427 hv.osc~ saw;
#X obj 537 349 *~ 5;
#X obj 508 515 *~;
#X obj 537 314 r~ drift2;
#X obj 573 455 r~ vol2;
#X obj 699 592 throw~ \$0-mix;
#X obj 699 380 +~;
#X obj 699 414 hv.osc~ saw;
#X obj 728 336 *~ 5;
#X obj 699 502 *~;
#X obj 728 301 r~ drift3;
#X obj 745 439 r~ vol3;
#X obj 335 339 *~ 0.5;
#X obj 335 178 unpack f f f;
#X obj 335 247 sig~;
#X obj 335 215 mtof;
#X obj 347 484 *~;
#X obj 413 210 / 127;
#X obj 413 247 sig~;
#X obj 533 484 *~;
#X obj 724 470 *~;
#X obj 234 247 r~ pitchfreq;
#X text 234 224 octave switch;
#X connect 0 0 23 0;
#X connect 2 0 3 0;
#X connect 3 0 7 0;
#X connect 4 0 5 0;
#X connect 5 0 2 1;
#X connect 6 0 26 1;
#X connect 7 0 1 0;
#X connect 9 0 10 0;
#X connect 10 0 12 0;
#X connect 11 0 9 1;
#X connect 12 0 8 0;
#X connect 13 0 11 0;
#X connect 14 0 29 1;
#X connect 16 0 17 0;
#X connect 17 0 19 0;
#X connect 18 0 16 1;
#X connect 19 0 15 0;
#X connect 20 0 18 0;
#X connect 21 0 30 1;
#X connect 22 0 2 0;
#X connect 23 0 25 0;
#X connect 23 1 27 0;
#X connect 24 0 22 0;
#X connect 24 0 9 0;
#X connect 24 0 16 0;
#X connect 25 0 24 0;
#X connect 26 0 7 1;
#X connect 27 0 28 0;
#X connect 28 0 26 0;
#X connect 28 0 29 0;
#X connect 28 0 30 0;
#X connect 29 0 12 1;
#X connect 30 0 19 1;
#X restore 1740 893 pd 3oscsynth;
#N canvas 0 50 450 300 3oscsynth 0;
#X obj 335 141 inlet;
#X obj 335 592 throw~ \$0-mix;
#X obj 335 393 +~;
#X obj 335 427 hv.osc~ saw;
#X obj 393 314 r~ drift1;
#X obj 393 349 *~ 5;
#X obj 400 455 r~ vol1;
#X obj 335 515 *~;
#X obj 508 592 throw~ \$0-mix;
#X obj 508 393 +~;
#X obj 508 427 hv.osc~ saw;
#X obj 537 349 *~ 5;
#X obj 508 515 *~;
#X obj 537 314 r~ drift2;
#X obj 573 455 r~ vol2;
#X obj 699 592 throw~ \$0-mix;
#X obj 699 380 +~;
#X obj 699 414 hv.osc~ saw;
#X obj 728 336 *~ 5;
#X obj 699 502 *~;
#X obj 728 301 r~ drift3;
#X obj 745 439 r~ vol3;
#X obj 335 339 *~ 0.5;
#X obj 335 178 unpack f f f;
#X obj 335 247 sig~;
#X obj 335 215 mtof;
#X obj 347 484 *~;
#X obj 413 210 / 127;
#X obj 413 247 sig~;
#X obj 533 484 *~;
#X obj 724 470 *~;
#X obj 234 247 r~ pitchfreq;
#X text 234 224 octave switch;
#X connect 0 0 23 0;
#X connect 2 0 3 0;
#X connect 3 0 7 0;
#X connect 4 0 5 0;
#X connect 5 0 2 1;
#X connect 6 0 26 1;
#X connect 7 0 1 0;
#X connect 9 0 10 0;
#X connect 10 0 12 0;
#X connect 11 0 9 1;
#X connect 12 0 8 0;
#X connect 13 0 11 0;
#X connect 14 0 29 1;
#X connect 16 0 17 0;
#X connect 17 0 19 0;
#X connect 18 0 16 1;
#X connect 19 0 15 0;
#X connect 20 0 18 0;
#X connect 21 0 30 1;
#X connect 22 0 2 0;
#X connect 23 0 25 0;
#X connect 23 1 27 0;
#X connect 24 0 22 0;
#X connect 24 0 9 0;
#X connect 24 0 16 0;
#X connect 25 0 24 0;
#X connect 26 0 7 1;
#X connect 27 0 28 0;
#X connect 28 0 26 0;
#X connect 28 0 29 0;
#X connect 28 0 30 0;
#X connect 29 0 12 1;
#X connect 30 0 19 1;
#X restore 1760 902 pd 3oscsynth;
#N canvas 0 50 450 300 3oscsynth 0;
#X obj 335 141 inlet;
#X obj 335 592 throw~ \$0-mix;
#X obj 335 393 +~;
#X obj 335 427 hv.osc~ saw;
#X obj 393 314 r~ drift1;
#X obj 393 349 *~ 5;
#X obj 400 455 r~ vol1;
#X obj 335 515 *~;
#X obj 508 592 throw~ \$0-mix;
#X obj 508 393 +~;
#X obj 508 427 hv.osc~ saw;
#X obj 537 349 *~ 5;
#X obj 508 515 *~;
#X obj 537 314 r~ drift2;
#X obj 573 455 r~ vol2;
#X obj 699 592 throw~ \$0-mix;
#X obj 699 380 +~;
#X obj 699 414 hv.osc~ saw;
#X obj 728 336 *~ 5;
#X obj 699 502 *~;
#X obj 728 301 r~ drift3;
#X obj 745 439 r~ vol3;
#X obj 335 339 *~ 0.5;
#X obj 335 178 unpack f f f;
#X obj 335 247 sig~;
#X obj 335 215 mtof;
#X obj 347 484 *~;
#X obj 413 210 / 127;
#X obj 413 247 sig~;
#X obj 533 484 *~;
#X obj 724 470 *~;
#X obj 234 247 r~ pitchfreq;
#X text 234 224 octave switch;
#X connect 0 0 23 0;
#X connect 2 0 3 0;
#X connect 3 0 7 0;
#X connect 4 0 5 0;
#X connect 5 0 2 1;
#X connect 6 0 26 1;
#X connect 7 0 1 0;
#X connect 9 0 10 0;
#X connect 10 0 12 0;
#X connect 11 0 9 1;
#X connect 12 0 8 0;
#X connect 13 0 11 0;
#X connect 14 0 29 1;
#X connect 16 0 17 0;
#X connect 17 0 19 0;
#X connect 18 0 16 1;
#X connect 19 0 15 0;
#X connect 20 0 18 0;
#X connect 21 0 30 1;
#X connect 22 0 2 0;
#X connect 23 0 25 0;
#X connect 23 1 27 0;
#X connect 24 0 22 0;
#X connect 24 0 9 0;
#X connect 24 0 16 0;
#X connect 25 0 24 0;
#X connect 26 0 7 1;
#X connect 27 0 28 0;
#X connect 28 0 26 0;
#X connect 28 0 29 0;
#X connect 28 0 30 0;
#X connect 29 0 12 1;
#X connect 30 0 19 1;
#X restore 1780 911 pd 3oscsynth;
#X obj 1720 798 poly 4 4;
#X obj 278 1584 sig~ 2;
#X obj 278 1607 pow~;
#X text 323 1606 CV to Freq;
#X msg 299 1466 \$1 10;
#X obj 299 1492 line~;
#X obj 299 1432 r cv_1 @hv_param;
#X obj 299 1542 *~ 3.275;
#X obj 278 1650 *~ 261.63;
#X obj 652 1432 r gate_in_1 @hv_param;
#X obj 443 1753 +~;
#X text 675 1398 CV Gate;
#X text 299 1398 CV pitch;
#X obj 652 1463 change;
#X obj 443 1577 line~;
#X obj 487 1707 *~;
#X obj 443 1612 *~ -1;
#X obj 443 1639 +~ 1;
#X obj 443 1707 *~;
#X msg 443 1551 \$1 100;
#X obj 443 1463 change;
#X obj 443 1491 sel 1;
#X obj 443 1518 tgl 25 0 empty empty empty 17 7 0 10 #191919 #e1e1e1 #e1e1e1 0 1;
#X obj 443 1432 r mpr121_driver_ch1 @hv_param;
#X text 356 1706 inlet CV Pitch;
#X text 528 1706 inlet touch pitch;
#X text 315 1675 lower OMX-27 pitch range;
#X obj 278 1691 /~ 2;
#X text 443 1398 Touchpads - midi / CV pitch switch;
#X obj 652 1500 change;
#X obj 652 1529 sel 0 1;
#X msg 683 1559 99;
#X msg 654 1559 0;
#X obj 713 1494 tgl 25 0 empty empty empty 17 7 0 10 #191919 #ffffff #ffffff 0 1;
#X obj 654 1592 s vel;
#X obj 443 1786 ftom~;
#X obj 443 1849 s note;
#X obj 443 1820 snapshot~;
#X obj -17 1479 r note;
#X obj 21 1507 r vel;
#X obj -17 1507 ftom;
#X obj -17 1535 stripnote;
#X obj -17 1616 pack f f f;
#N canvas 0 50 450 300 3oscsynth 0;
#X obj 335 141 inlet;
#X obj 335 592 throw~ \$0-mix;
#X obj 335 393 +~;
#X obj 335 427 hv.osc~ saw;
#X obj 393 314 r~ drift1;
#X obj 393 349 *~ 5;
#X obj 400 455 r~ vol1;
#X obj 335 515 *~;
#X obj 508 592 throw~ \$0-mix;
#X obj 508 393 +~;
#X obj 508 427 hv.osc~ saw;
#X obj 537 349 *~ 5;
#X obj 508 515 *~;
#X obj 537 314 r~ drift2;
#X obj 573 455 r~ vol2;
#X obj 699 592 throw~ \$0-mix;
#X obj 699 380 +~;
#X obj 699 414 hv.osc~ saw;
#X obj 728 336 *~ 5;
#X obj 699 502 *~;
#X obj 728 301 r~ drift3;
#X obj 745 439 r~ vol3;
#X obj 335 339 *~ 0.5;
#X obj 335 178 unpack f f f;
#X obj 335 247 sig~;
#X obj 335 215 mtof;
#X obj 347 484 *~;
#X obj 413 210 / 127;
#X obj 413 247 sig~;
#X obj 533 484 *~;
#X obj 724 470 *~;
#X obj 234 247 r~ pitchfreq;
#X obj 335 288 *~;
#X text 234 224 octave switch;
#X connect 0 0 23 0;
#X connect 2 0 3 0;
#X connect 3 0 7 0;
#X connect 4 0 5 0;
#X connect 5 0 2 1;
#X connect 6 0 26 1;
#X connect 7 0 1 0;
#X connect 9 0 10 0;
#X connect 10 0 12 0;
#X connect 11 0 9 1;
#X connect 12 0 8 0;
#X connect 13 0 11 0;
#X connect 14 0 29 1;
#X connect 16 0 17 0;
#X connect 17 0 19 0;
#X connect 18 0 16 1;
#X connect 19 0 15 0;
#X connect 20 0 18 0;
#X connect 21 0 30 1;
#X connect 22 0 2 0;
#X connect 23 0 25 0;
#X connect 23 1 27 0;
#X connect 24 0 32 0;
#X connect 25 0 24 0;
#X connect 26 0 7 1;
#X connect 27 0 28 0;
#X connect 28 0 26 0;
#X connect 28 0 29 0;
#X connect 28 0 30 0;
#X connect 29 0 12 1;
#X connect 30 0 19 1;
#X connect 31 0 32 1;
#X connect 32 0 9 0;
#X connect 32 0 22 0;
#X connect 32 0 16 0;
#X restore -17 1688 pd 3oscsynth;
#N canvas 0 50 450 300 3oscsynth 0;
#X obj 335 141 inlet;
#X obj 335 592 throw~ \$0-mix;
#X obj 335 393 +~;
#X obj 335 427 hv.osc~ saw;
#X obj 393 314 r~ drift1;
#X obj 393 349 *~ 5;
#X obj 400 455 r~ vol1;
#X obj 335 515 *~;
#X obj 508 592 throw~ \$0-mix;
#X obj 508 393 +~;
#X obj 508 427 hv.osc~ saw;
#X obj 537 349 *~ 5;
#X obj 508 515 *~;
#X obj 537 314 r~ drift2;
#X obj 573 455 r~ vol2;
#X obj 699 592 throw~ \$0-mix;
#X obj 699 380 +~;
#X obj 699 414 hv.osc~ saw;
#X obj 728 336 *~ 5;
#X obj 699 502 *~;
#X obj 728 301 r~ drift3;
#X obj 745 439 r~ vol3;
#X obj 335 339 *~ 0.5;
#X obj 335 178 unpack f f f;
#X obj 335 247 sig~;
#X obj 335 215 mtof;
#X obj 347 484 *~;
#X obj 413 210 / 127;
#X obj 413 247 sig~;
#X obj 533 484 *~;
#X obj 724 470 *~;
#X obj 234 247 r~ pitchfreq;
#X obj 335 288 *~;
#X text 234 224 octave switch;
#X connect 0 0 23 0;
#X connect 2 0 3 0;
#X connect 3 0 7 0;
#X connect 4 0 5 0;
#X connect 5 0 2 1;
#X connect 6 0 26 1;
#X connect 7 0 1 0;
#X connect 9 0 10 0;
#X connect 10 0 12 0;
#X connect 11 0 9 1;
#X connect 12 0 8 0;
#X connect 13 0 11 0;
#X connect 14 0 29 1;
#X connect 16 0 17 0;
#X connect 17 0 19 0;
#X connect 18 0 16 1;
#X connect 19 0 15 0;
#X connect 20 0 18 0;
#X connect 21 0 30 1;
#X connect 22 0 2 0;
#X connect 23 0 25 0;
#X connect 23 1 27 0;
#X connect 24 0 32 0;
#X connect 25 0 24 0;
#X connect 26 0 7 1;
#X connect 27 0 28 0;
#X connect 28 0 26 0;
#X connect 28 0 29 0;
#X connect 28 0 30 0;
#X connect 29 0 12 1;
#X connect 30 0 19 1;
#X connect 31 0 32 1;
#X connect 32 0 9 0;
#X connect 32 0 22 0;
#X connect 32 0 16 0;
#X restore 3 1708 pd 3oscsynth;
#N canvas 0 50 450 300 3oscsynth 0;
#X obj 335 141 inlet;
#X obj 335 592 throw~ \$0-mix;
#X obj 335 393 +~;
#X obj 335 427 hv.osc~ saw;
#X obj 393 314 r~ drift1;
#X obj 393 349 *~ 5;
#X obj 400 455 r~ vol1;
#X obj 335 515 *~;
#X obj 508 592 throw~ \$0-mix;
#X obj 508 393 +~;
#X obj 508 427 hv.osc~ saw;
#X obj 537 349 *~ 5;
#X obj 508 515 *~;
#X obj 537 314 r~ drift2;
#X obj 573 455 r~ vol2;
#X obj 699 592 throw~ \$0-mix;
#X obj 699 380 +~;
#X obj 699 414 hv.osc~ saw;
#X obj 728 336 *~ 5;
#X obj 699 502 *~;
#X obj 728 301 r~ drift3;
#X obj 745 439 r~ vol3;
#X obj 335 339 *~ 0.5;
#X obj 335 178 unpack f f f;
#X obj 335 247 sig~;
#X obj 335 215 mtof;
#X obj 347 484 *~;
#X obj 413 210 / 127;
#X obj 413 247 sig~;
#X obj 533 484 *~;
#X obj 724 470 *~;
#X obj 234 247 r~ pitchfreq;
#X obj 335 288 *~;
#X text 234 224 octave switch;
#X connect 0 0 23 0;
#X connect 2 0 3 0;
#X connect 3 0 7 0;
#X connect 4 0 5 0;
#X connect 5 0 2 1;
#X connect 6 0 26 1;
#X connect 7 0 1 0;
#X connect 9 0 10 0;
#X connect 10 0 12 0;
#X connect 11 0 9 1;
#X connect 12 0 8 0;
#X connect 13 0 11 0;
#X connect 14 0 29 1;
#X connect 16 0 17 0;
#X connect 17 0 19 0;
#X connect 18 0 16 1;
#X connect 19 0 15 0;
#X connect 20 0 18 0;
#X connect 21 0 30 1;
#X connect 22 0 2 0;
#X connect 23 0 25 0;
#X connect 23 1 27 0;
#X connect 24 0 32 0;
#X connect 25 0 24 0;
#X connect 26 0 7 1;
#X connect 27 0 28 0;
#X connect 28 0 26 0;
#X connect 28 0 29 0;
#X connect 28 0 30 0;
#X connect 29 0 12 1;
#X connect 30 0 19 1;
#X connect 31 0 32 1;
#X connect 32 0 9 0;
#X connect 32 0 22 0;
#X connect 32 0 16 0;
#X restore 23 1728 pd 3oscsynth;
#N canvas 0 50 450 300 3oscsynth 0;
#X obj 335 141 inlet;
#X obj 335 592 throw~ \$0-mix;
#X obj 335 393 +~;
#X obj 335 427 hv.osc~ saw;
#X obj 393 314 r~ drift1;
#X obj 393 349 *~ 5;
#X obj 400 455 r~ vol1;
#X obj 335 515 *~;
#X obj 508 592 throw~ \$0-mix;
#X obj 508 393 +~;
#X obj 508 427 hv.osc~ saw;
#X obj 537 349 *~ 5;
#X obj 508 515 *~;
#X obj 537 314 r~ drift2;
#X obj 573 455 r~ vol2;
#X obj 699 592 throw~ \$0-mix;
#X obj 699 380 +~;
#X obj 699 414 hv.osc~ saw;
#X obj 728 336 *~ 5;
#X obj 699 502 *~;
#X obj 728 301 r~ drift3;
#X obj 745 439 r~ vol3;
#X obj 335 339 *~ 0.5;
#X obj 335 178 unpack f f f;
#X obj 335 247 sig~;
#X obj 335 215 mtof;
#X obj 347 484 *~;
#X obj 413 210 / 127;
#X obj 413 247 sig~;
#X obj 533 484 *~;
#X obj 724 470 *~;
#X obj 234 247 r~ pitchfreq;
#X obj 335 288 *~;
#X text 234 224 octave switch;
#X connect 0 0 23 0;
#X connect 2 0 3 0;
#X connect 3 0 7 0;
#X connect 4 0 5 0;
#X connect 5 0 2 1;
#X connect 6 0 26 1;
#X connect 7 0 1 0;
#X connect 9 0 10 0;
#X connect 10 0 12 0;
#X connect 11 0 9 1;
#X connect 12 0 8 0;
#X connect 13 0 11 0;
#X connect 14 0 29 1;
#X connect 16 0 17 0;
#X connect 17 0 19 0;
#X connect 18 0 16 1;
#X connect 19 0 15 0;
#X connect 20 0 18 0;
#X connect 21 0 30 1;
#X connect 22 0 2 0;
#X connect 23 0 25 0;
#X connect 23 1 27 0;
#X connect 24 0 32 0;
#X connect 25 0 24 0;
#X connect 26 0 7 1;
#X connect 27 0 28 0;
#X connect 28 0 26 0;
#X connect 28 0 29 0;
#X connect 28 0 30 0;
#X connect 29 0 12 1;
#X connect 30 0 19 1;
#X connect 31 0 32 1;
#X connect 32 0 9 0;
#X connect 32 0 22 0;
#X connect 32 0 16 0;
#X restore 43 1748 pd 3oscsynth;
#X obj -17 1589 poly 4 1;
#X obj -17 1649 route 1 2 3 4;
#X connect 2 0 211 0;
#X connect 3 0 206 0;
#X connect 4 0 213 0;
#X connect 5 0 207 0;
#X connect 8 0 17 0;
#X connect 9 0 19 0;
#X connect 10 0 8 0;
#X connect 11 0 9 0;
#X connect 12 0 13 0;
#X connect 13 0 15 0;
#X connect 14 0 12 0;
#X connect 14 1 12 1;
#X connect 15 0 18 0;
#X connect 17 0 20 0;
#X connect 18 0 21 0;
#X connect 19 0 16 0;
#X connect 20 0 16 0;
#X connect 21 0 16 0;
#X connect 22 0 10 0;
#X connect 22 0 12 0;
#X connect 23 0 14 0;
#X connect 23 0 11 0;
#X connect 30 0 31 0;
#X connect 31 0 84 0;
#X connect 33 0 35 0;
#X connect 33 1 34 0;
#X connect 34 0 36 0;
#X connect 35 0 37 0;
#X connect 36 0 65 0;
#X connect 36 0 129 0;
#X connect 37 0 64 0;
#X connect 37 0 128 0;
#X connect 38 0 48 0;
#X connect 39 0 177 0;
#X connect 40 0 38 0;
#X connect 41 0 39 0;
#X connect 42 0 43 0;
#X connect 43 0 47 0;
#X connect 44 0 42 0;
#X connect 44 1 42 1;
#X connect 45 0 40 0;
#X connect 45 0 42 0;
#X connect 46 0 44 0;
#X connect 46 0 41 0;
#X connect 47 0 176 0;
#X connect 48 0 52 0;
#X connect 52 0 55 0;
#X connect 53 0 55 0;
#X connect 54 0 55 0;
#X connect 55 0 56 0;
#X connect 56 0 35 1;
#X connect 56 0 34 1;
#X connect 57 0 68 0;
#X connect 58 0 63 1;
#X connect 59 0 63 1;
#X connect 60 0 63 1;
#X connect 61 0 63 1;
#X connect 62 0 63 1;
#X connect 63 0 67 0;
#X connect 64 0 110 1;
#X connect 64 0 112 1;
#X connect 65 0 113 1;
#X connect 65 0 111 1;
#X connect 66 0 69 0;
#X connect 66 0 67 1;
#X connect 66 0 68 1;
#X connect 67 0 75 1;
#X connect 68 0 76 1;
#X connect 69 0 70 0;
#X connect 70 0 72 1;
#X connect 70 0 71 1;
#X connect 71 0 75 0;
#X connect 72 0 76 0;
#X connect 75 0 133 1;
#X connect 76 0 134 1;
#X connect 77 0 110 0;
#X connect 77 0 112 0;
#X connect 78 0 111 0;
#X connect 78 0 113 0;
#X connect 79 0 57 1;
#X connect 80 0 57 1;
#X connect 81 0 57 1;
#X connect 82 0 57 1;
#X connect 83 0 57 1;
#X connect 84 0 77 0;
#X connect 84 0 78 0;
#X connect 84 0 126 0;
#X connect 84 0 127 0;
#X connect 85 0 87 0;
#X connect 85 0 86 0;
#X connect 86 0 85 1;
#X connect 87 0 89 1;
#X connect 87 0 190 1;
#X connect 88 0 89 0;
#X connect 88 0 190 0;
#X connect 89 0 90 0;
#X connect 91 0 92 0;
#X connect 92 0 93 0;
#X connect 93 0 94 0;
#X connect 94 0 85 0;
#X connect 95 0 97 0;
#X connect 95 0 96 0;
#X connect 96 0 95 1;
#X connect 97 0 191 1;
#X connect 97 0 192 1;
#X connect 98 0 99 0;
#X connect 99 0 100 0;
#X connect 100 0 95 0;
#X connect 101 0 191 0;
#X connect 101 0 192 0;
#X connect 102 0 98 0;
#X connect 105 0 107 1;
#X connect 105 0 106 1;
#X connect 106 0 197 0;
#X connect 107 0 197 1;
#X connect 108 0 66 0;
#X connect 109 0 105 0;
#X connect 110 0 119 0;
#X connect 111 0 118 0;
#X connect 112 0 114 0;
#X connect 113 0 115 0;
#X connect 116 0 178 0;
#X connect 117 0 179 0;
#X connect 120 0 71 0;
#X connect 121 0 72 0;
#X connect 122 0 133 0;
#X connect 125 0 134 0;
#X connect 126 0 123 0;
#X connect 127 0 124 0;
#X connect 128 0 130 0;
#X connect 129 0 131 0;
#X connect 132 0 109 0;
#X connect 133 0 137 0;
#X connect 134 0 138 0;
#X connect 135 0 108 0;
#X connect 137 0 106 0;
#X connect 138 0 107 0;
#X connect 139 0 140 0;
#X connect 140 0 141 0;
#X connect 141 0 143 0;
#X connect 142 0 138 1;
#X connect 142 0 137 1;
#X connect 143 0 142 0;
#X connect 144 0 109 0;
#X connect 145 0 144 0;
#X connect 146 0 167 0;
#X connect 147 0 148 0;
#X connect 149 0 150 0;
#X connect 149 0 127 1;
#X connect 149 0 126 1;
#X connect 150 0 151 0;
#X connect 151 0 78 1;
#X connect 151 0 77 1;
#X connect 152 0 149 0;
#X connect 153 0 154 0;
#X connect 154 0 155 0;
#X connect 155 0 152 0;
#X connect 156 0 153 0;
#X connect 157 0 158 0;
#X connect 157 0 129 1;
#X connect 157 0 128 1;
#X connect 158 0 159 0;
#X connect 159 0 65 1;
#X connect 159 0 64 1;
#X connect 160 0 157 0;
#X connect 161 0 162 0;
#X connect 162 0 163 0;
#X connect 163 0 160 0;
#X connect 166 0 161 0;
#X connect 167 0 140 0;
#X connect 168 0 169 0;
#X connect 169 0 93 0;
#X connect 170 0 171 0;
#X connect 171 0 98 0;
#X connect 172 0 173 0;
#X connect 173 0 154 0;
#X connect 174 0 175 0;
#X connect 175 0 162 0;
#X connect 176 0 53 0;
#X connect 177 0 54 0;
#X connect 178 0 63 0;
#X connect 179 0 57 0;
#X connect 180 0 214 0;
#X connect 181 0 208 0;
#X connect 182 0 215 0;
#X connect 183 0 209 0;
#X connect 184 0 216 0;
#X connect 185 0 210 0;
#X connect 186 0 212 0;
#X connect 187 0 205 0;
#X connect 188 0 206 0;
#X connect 189 0 207 0;
#X connect 190 0 136 0;
#X connect 191 0 103 0;
#X connect 192 0 104 0;
#X connect 193 0 205 0;
#X connect 194 0 208 0;
#X connect 195 0 209 0;
#X connect 196 0 210 0;
#X connect 198 0 285 0;
#X connect 198 1 285 1;
#X connect 205 0 186 0;
#X connect 206 0 2 0;
#X connect 207 0 4 0;
#X connect 208 0 180 0;
#X connect 209 0 182 0;
#X connect 210 0 184 0;
#X connect 218 0 286 0;
#X connect 219 0 220 0;
#X connect 220 0 223 0;
#X connect 220 1 222 0;
#X connect 220 1 228 0;
#X connect 221 0 219 0;
#X connect 222 0 226 0;
#X connect 223 0 226 0;
#X connect 224 0 219 0;
#X connect 228 0 225 0;
#X connect 229 0 230 0;
#X connect 230 0 232 0;
#X connect 230 1 231 0;
#X connect 230 1 236 0;
#X connect 231 0 235 0;
#X connect 232 0 235 0;
#X connect 233 0 229 0;
#X connect 236 0 234 0;
#X connect 237 0 229 0;
#X connect 238 0 239 0;
#X connect 239 0 241 0;
#X connect 239 1 240 0;
#X connect 239 1 246 0;
#X connect 240 0 244 0;
#X connect 241 0 244 0;
#X connect 242 0 238 0;
#X connect 245 0 238 0;
#X connect 246 0 243 0;
#X connect 247 0 248 0;
#X connect 248 0 250 0;
#X connect 248 1 249 0;
#X connect 248 1 255 0;
#X connect 249 0 253 0;
#X connect 250 0 253 0;
#X connect 251 0 247 0;
#X connect 254 0 247 0;
#X connect 255 0 252 0;
#X connect 256 0 257 0;
#X connect 257 0 259 0;
#X connect 257 1 258 0;
#X connect 257 1 277 0;
#X connect 258 0 262 0;
#X connect 259 0 262 0;
#X connect 260 0 256 0;
#X connect 263 0 264 0;
#X connect 264 0 266 0;
#X connect 264 1 265 0;
#X connect 264 1 281 0;
#X connect 265 0 269 0;
#X connect 266 0 269 0;
#X connect 267 0 263 0;
#X connect 270 0 271 0;
#X connect 271 0 273 0;
#X connect 271 1 272 0;
#X connect 271 1 282 0;
#X connect 272 0 276 0;
#X connect 273 0 276 0;
#X connect 274 0 270 0;
#X connect 277 0 261 0;
#X connect 278 0 256 0;
#X connect 279 0 263 0;
#X connect 280 0 270 0;
#X connect 281 0 268 0;
#X connect 282 0 275 0;
#X connect 284 0 26 0;
#X connect 285 0 218 0;
#X connect 285 1 218 1;
#X connect 285 2 218 2;
#X connect 286 0 227 0;
#X connect 286 1 293 0;
#X connect 286 2 294 0;
#X connect 286 3 295 0;
#X connect 287 0 11 0;
#X connect 288 0 290 0;
#X connect 289 0 300 1;
#X connect 290 0 300 0;
#X connect 291 0 292 0;
#X connect 292 0 301 0;
#X connect 292 1 302 0;
#X connect 292 2 303 0;
#X connect 292 3 304 0;
#X connect 298 0 300 0;
#X connect 299 0 300 0;
#X connect 300 0 305 0;
#X connect 300 1 305 1;
#X connect 305 0 291 0;
#X connect 305 1 291 1;
#X connect 305 2 291 2;
#X connect 306 0 307 0;
#X connect 307 0 313 0;
#X connect 309 0 310 0;
#X connect 310 0 312 0;
#X connect 311 0 309 0;
#X connect 312 0 307 1;
#X connect 313 0 332 0;
#X connect 314 0 318 0;
#X connect 315 0 340 0;
#X connect 318 0 334 0;
#X connect 319 0 321 0;
#X connect 319 0 323 1;
#X connect 320 0 315 1;
#X connect 321 0 322 0;
#X connect 322 0 320 1;
#X connect 323 0 315 0;
#X connect 324 0 319 0;
#X connect 325 0 326 0;
#X connect 326 0 327 0;
#X connect 327 0 324 0;
#X connect 328 0 325 0;
#X connect 332 0 323 0;
#X connect 334 0 335 0;
#X connect 335 0 337 0;
#X connect 335 1 336 0;
#X connect 335 1 342 0;
#X connect 336 0 339 0;
#X connect 337 0 339 0;
#X connect 338 0 334 0;
#X connect 340 0 342 0;
#X connect 342 0 341 0;
#X connect 343 0 345 0;
#X connect 344 0 346 1;
#X connect 345 0 346 0;
#X connect 346 0 352 0;
#X connect 346 1 352 1;
#X connect 347 0 353 0;
#X connect 352 0 347 0;
#X connect 352 1 347 1;
#X connect 352 2 347 2;
#X connect 353 0 348 0;
#X connect 353 1 349 0;
#X connect 353 2 350 0;
#X connect 353 3 351 0;
