#N canvas 827 239 734 565 12;
#X obj 1543 110 cnv 15 957 655 empty empty OSC\ 3X 20 12 0 14 #626262 #ffffff 0;
#X obj 1706 260 line~;
#X obj 1709 177 hsl 128 17 0 1 0 0 empty empty empty -2 -8 0 10 #191919 #e1e1e1 #e1e1e1 0 1;
#X obj 1854 265 line~;
#X obj 1857 179 hsl 128 17 0 1 0 0 empty empty empty -2 -8 0 10 #191919 #e1e1e1 #e1e1e1 0 1;
#X obj 1543 -322 cnv 15 897 422 empty empty TOUCHPADS\ NOTES 20 12 0 14 #626262 #ffffff 0;
#X obj 2197 570 catch~ \$0-mix;
#X obj 2006 261 line~;
#X obj 2009 171 hsl 128 17 0 1 0 0 empty empty empty -2 -8 0 10 #191919 #e1e1e1 #e1e1e1 0 1;
#X obj 2152 265 line~;
#X obj 2155 179 hsl 128 17 0 1 0 0 empty empty empty -2 -8 0 10 #191919 #e1e1e1 #e1e1e1 0 1;
#X obj 2306 261 line~;
#X obj 2309 176 hsl 128 17 0 1 0 0 empty empty empty -2 -8 0 10 #191919 #e1e1e1 #e1e1e1 0 1;
#X obj 1563 261 line~;
#X obj 1569 177 hsl 128 17 0 1 0 0 empty empty empty -2 -8 0 10 #191919 #e1e1e1 #e1e1e1 0 1;
#X obj 1706 204 r knob1 @hv_param;
#X obj 1854 208 r knob2 @hv_param;
#X obj 1563 205 r knob0 @hv_param;
#X obj 2006 205 r knob3 @hv_param;
#X obj 2152 208 r knob4 @hv_param;
#X obj 2306 205 r knob5 @hv_param;
#X obj 1563 368 notein;
#X text 1563 152 osc1 vol, f 19;
#X text 1706 152 osc1 drift, f 19;
#X text 1854 152 osc2 vol, f 19;
#X text 2006 152 osc2 drift, f 19;
#X text 2152 152 osc3 vol, f 19;
#X text 2306 152 osc3 drift, f 19;
#X msg 1563 234 \$1 20;
#X msg 1706 233 \$1 200;
#X msg 1854 237 \$1 20;
#X msg 2006 234 \$1 200;
#X msg 2152 237 \$1 20;
#X msg 2306 234 \$1 200;
#X obj 1706 293 send~ drift1;
#X obj 1563 293 send~ vol1;
#X obj 1854 293 send~ vol2;
#X obj 2006 293 send~ drift2;
#X obj 2152 293 send~ vol3;
#X obj 2306 293 send~ drift3;
#X obj 1625 368 polytouchin;
#X obj 1563 505 pack f f f;
#X obj 1557 -259 change;
#X obj 1590 -230 sel 0 1;
#X obj 1557 -291 r mpr121_driver_ch3 @hv_param;
#X obj 1618 -265 tgl 25 0 empty empty empty 17 7 0 10 #191919 #ffffff #ffffff 0 1;
#X obj 1774 -259 change;
#X obj 1835 -265 tgl 25 0 empty empty empty 17 7 0 10 #191919 #ffffff #ffffff 0 1;
#X obj 1774 -291 r mpr121_driver_ch4 @hv_param;
#X obj 1998 -259 change;
#X obj 2059 -265 tgl 25 0 empty empty empty 17 7 0 10 #191919 #ffffff #ffffff 0 1;
#X obj 1998 -291 r mpr121_driver_ch5 @hv_param;
#X obj 2214 -259 change;
#X obj 2275 -265 tgl 25 0 empty empty empty 17 7 0 10 #191919 #ffffff #ffffff 0 1;
#X obj 2214 -291 r mpr121_driver_ch6 @hv_param;
#X obj 1559 -60 change;
#X obj 1620 -66 tgl 25 0 empty empty empty 17 7 0 10 #191919 #ffffff #ffffff 0 1;
#X obj 1776 -60 change;
#X obj 1837 -66 tgl 25 0 empty empty empty 17 7 0 10 #191919 #ffffff #ffffff 0 1;
#X obj 2000 -60 change;
#X obj 2061 -66 tgl 25 0 empty empty empty 17 7 0 10 #191919 #ffffff #ffffff 0 1;
#X obj 1559 -92 r mpr121_driver_ch7 @hv_param;
#X obj 1776 -92 r mpr121_driver_ch8 @hv_param;
#X obj 2000 -92 r mpr121_driver_ch9 @hv_param;
#X text 1563 344 midi input, f 19;
#X obj 2197 721 dac~;
#X obj 2306 650 line~;
#X obj 2309 570 hsl 128 17 0 1 0 0 empty empty empty -2 -8 0 10 #191919 #e1e1e1 #e1e1e1 0 1;
#X msg 2306 622 \$1 20;
#X text 2191 537 vol, f 38;
#X obj 2197 680 *~;
#X obj 2306 593 r faderleft @hv_param;
#X msg 1557 -200 53;
#X msg 1774 -200 55;
#X msg 1998 -201 56;
#X msg 2214 -201 58;
#X msg 1559 0 60;
#X msg 1776 0 61;
#X msg 2000 0 63;
#N canvas 0 50 450 300 3oscsynth 0;
#X obj 335 141 inlet;
#X obj 335 553 throw~ \$0-mix;
#X obj 335 393 +~;
#X obj 335 427 hv.osc~ saw;
#X obj 393 314 r~ drift1;
#X obj 393 349 *~ 5;
#X obj 400 455 r~ vol1;
#X obj 335 522 *~;
#X obj 478 553 throw~ \$0-mix;
#X obj 478 393 +~;
#X obj 478 427 hv.osc~ saw;
#X obj 507 349 *~ 5;
#X obj 478 515 *~;
#X obj 507 314 r~ drift2;
#X obj 543 455 r~ vol2;
#X obj 618 553 throw~ \$0-mix;
#X obj 618 393 +~;
#X obj 618 427 hv.osc~ saw;
#X obj 629 349 *~ 5;
#X obj 618 515 *~;
#X obj 629 314 r~ drift3;
#X obj 664 452 r~ vol3;
#X obj 335 339 *~ 0.5;
#X obj 335 178 unpack f f f;
#X obj 335 247 sig~;
#X obj 335 215 mtof;
#X obj 413 215 sig~;
#X obj 335 455 *~ 0.2;
#X obj 478 455 *~ 0.2;
#X obj 618 452 *~ 0.2;
#X obj 467 141 inlet;
#X obj 335 489 *~;
#X obj 478 489 *~;
#X obj 413 247 /~ 127;
#X obj 618 489 *~;
#X connect 0 0 23 0;
#X connect 2 0 3 0;
#X connect 3 0 27 0;
#X connect 4 0 5 0;
#X connect 5 0 2 1;
#X connect 6 0 7 1;
#X connect 7 0 1 0;
#X connect 9 0 10 0;
#X connect 10 0 28 0;
#X connect 11 0 9 1;
#X connect 12 0 8 0;
#X connect 13 0 11 0;
#X connect 14 0 12 1;
#X connect 16 0 17 0;
#X connect 17 0 29 0;
#X connect 18 0 16 1;
#X connect 19 0 15 0;
#X connect 20 0 18 0;
#X connect 21 0 19 1;
#X connect 22 0 2 0;
#X connect 23 0 25 0;
#X connect 23 1 26 0;
#X connect 24 0 22 0;
#X connect 24 0 9 0;
#X connect 24 0 16 0;
#X connect 25 0 24 0;
#X connect 26 0 33 0;
#X connect 27 0 31 0;
#X connect 28 0 32 0;
#X connect 29 0 34 0;
#X connect 30 0 26 0;
#X connect 31 0 7 0;
#X connect 32 0 12 0;
#X connect 33 0 31 1;
#X connect 33 0 32 1;
#X connect 33 0 34 1;
#X connect 34 0 19 0;
#X restore 1563 569 pd 3oscsynth;
#X obj 1259 179 r mpr121_driver_ch1 @hv_param;
#X obj 1259 223 change;
#X obj 1259 252 sel 0 1;
#X obj 1320 217 tgl 25 0 empty empty empty 17 7 0 10 #191919 #ffffff #ffffff 0 1;
#X msg 1261 280 0;
#X msg 1292 280 1;
#X obj 1259 336 f;
#X obj 1563 538 route 1 2 3 4 5 6 7 8;
#X obj 1563 478 poly 8;
#N canvas 0 50 450 300 3oscsynth 0;
#X obj 335 141 inlet;
#X obj 335 553 throw~ \$0-mix;
#X obj 335 393 +~;
#X obj 335 427 hv.osc~ saw;
#X obj 393 314 r~ drift1;
#X obj 393 349 *~ 5;
#X obj 400 455 r~ vol1;
#X obj 335 522 *~;
#X obj 508 553 throw~ \$0-mix;
#X obj 508 393 +~;
#X obj 508 427 hv.osc~ saw;
#X obj 537 349 *~ 5;
#X obj 508 515 *~;
#X obj 537 314 r~ drift2;
#X obj 573 455 r~ vol2;
#X obj 699 553 throw~ \$0-mix;
#X obj 699 393 +~;
#X obj 699 427 hv.osc~ saw;
#X obj 710 349 *~ 5;
#X obj 699 515 *~;
#X obj 710 314 r~ drift3;
#X obj 745 452 r~ vol3;
#X obj 335 339 *~ 0.5;
#X obj 335 178 unpack f f f;
#X obj 335 247 sig~;
#X obj 335 215 mtof;
#X obj 419 225 sig~;
#X obj 335 455 *~ 0.2;
#X obj 508 455 *~ 0.2;
#X obj 699 452 *~ 0.2;
#X obj 467 141 inlet;
#X obj 335 489 *~;
#X obj 508 489 *~;
#X obj 419 259 /~ 127;
#X obj 699 489 *~;
#X connect 0 0 23 0;
#X connect 2 0 3 0;
#X connect 3 0 27 0;
#X connect 4 0 5 0;
#X connect 5 0 2 1;
#X connect 6 0 7 1;
#X connect 7 0 1 0;
#X connect 9 0 10 0;
#X connect 10 0 28 0;
#X connect 11 0 9 1;
#X connect 12 0 8 0;
#X connect 13 0 11 0;
#X connect 14 0 12 1;
#X connect 16 0 17 0;
#X connect 17 0 29 0;
#X connect 18 0 16 1;
#X connect 19 0 15 0;
#X connect 20 0 18 0;
#X connect 21 0 19 1;
#X connect 22 0 2 0;
#X connect 23 0 25 0;
#X connect 23 1 26 0;
#X connect 24 0 22 0;
#X connect 24 0 9 0;
#X connect 24 0 16 0;
#X connect 25 0 24 0;
#X connect 26 0 33 0;
#X connect 27 0 31 0;
#X connect 28 0 32 0;
#X connect 29 0 34 0;
#X connect 30 0 26 0;
#X connect 31 0 7 0;
#X connect 32 0 12 0;
#X connect 33 0 31 1;
#X connect 33 0 32 1;
#X connect 33 0 34 1;
#X connect 34 0 19 0;
#X restore 1583 589 pd 3oscsynth;
#N canvas 0 50 450 300 3oscsynth 0;
#X obj 335 141 inlet;
#X obj 335 553 throw~ \$0-mix;
#X obj 335 393 +~;
#X obj 335 427 hv.osc~ saw;
#X obj 393 314 r~ drift1;
#X obj 393 349 *~ 5;
#X obj 400 455 r~ vol1;
#X obj 335 522 *~;
#X obj 508 553 throw~ \$0-mix;
#X obj 508 393 +~;
#X obj 508 427 hv.osc~ saw;
#X obj 537 349 *~ 5;
#X obj 508 515 *~;
#X obj 537 314 r~ drift2;
#X obj 573 455 r~ vol2;
#X obj 699 553 throw~ \$0-mix;
#X obj 699 393 +~;
#X obj 699 427 hv.osc~ saw;
#X obj 710 349 *~ 5;
#X obj 699 515 *~;
#X obj 710 314 r~ drift3;
#X obj 745 452 r~ vol3;
#X obj 335 339 *~ 0.5;
#X obj 335 178 unpack f f f;
#X obj 335 247 sig~;
#X obj 335 215 mtof;
#X obj 419 225 sig~;
#X obj 335 455 *~ 0.2;
#X obj 508 455 *~ 0.2;
#X obj 699 452 *~ 0.2;
#X obj 467 141 inlet;
#X obj 335 489 *~;
#X obj 508 489 *~;
#X obj 419 259 /~ 127;
#X obj 699 489 *~;
#X connect 0 0 23 0;
#X connect 2 0 3 0;
#X connect 3 0 27 0;
#X connect 4 0 5 0;
#X connect 5 0 2 1;
#X connect 6 0 7 1;
#X connect 7 0 1 0;
#X connect 9 0 10 0;
#X connect 10 0 28 0;
#X connect 11 0 9 1;
#X connect 12 0 8 0;
#X connect 13 0 11 0;
#X connect 14 0 12 1;
#X connect 16 0 17 0;
#X connect 17 0 29 0;
#X connect 18 0 16 1;
#X connect 19 0 15 0;
#X connect 20 0 18 0;
#X connect 21 0 19 1;
#X connect 22 0 2 0;
#X connect 23 0 25 0;
#X connect 23 1 26 0;
#X connect 24 0 22 0;
#X connect 24 0 9 0;
#X connect 24 0 16 0;
#X connect 25 0 24 0;
#X connect 26 0 33 0;
#X connect 27 0 31 0;
#X connect 28 0 32 0;
#X connect 29 0 34 0;
#X connect 30 0 26 0;
#X connect 31 0 7 0;
#X connect 32 0 12 0;
#X connect 33 0 31 1;
#X connect 33 0 32 1;
#X connect 33 0 34 1;
#X connect 34 0 19 0;
#X restore 1603 609 pd 3oscsynth;
#N canvas 0 50 450 300 3oscsynth 0;
#X obj 335 141 inlet;
#X obj 335 553 throw~ \$0-mix;
#X obj 335 393 +~;
#X obj 335 427 hv.osc~ saw;
#X obj 393 314 r~ drift1;
#X obj 393 349 *~ 5;
#X obj 400 455 r~ vol1;
#X obj 335 522 *~;
#X obj 508 553 throw~ \$0-mix;
#X obj 508 393 +~;
#X obj 508 427 hv.osc~ saw;
#X obj 537 349 *~ 5;
#X obj 508 515 *~;
#X obj 537 314 r~ drift2;
#X obj 573 455 r~ vol2;
#X obj 699 553 throw~ \$0-mix;
#X obj 699 393 +~;
#X obj 699 427 hv.osc~ saw;
#X obj 710 349 *~ 5;
#X obj 699 515 *~;
#X obj 710 314 r~ drift3;
#X obj 745 452 r~ vol3;
#X obj 335 339 *~ 0.5;
#X obj 335 178 unpack f f f;
#X obj 335 247 sig~;
#X obj 335 215 mtof;
#X obj 419 225 sig~;
#X obj 335 455 *~ 0.2;
#X obj 508 455 *~ 0.2;
#X obj 699 452 *~ 0.2;
#X obj 467 141 inlet;
#X obj 335 489 *~;
#X obj 508 489 *~;
#X obj 419 259 /~ 127;
#X obj 699 489 *~;
#X connect 0 0 23 0;
#X connect 2 0 3 0;
#X connect 3 0 27 0;
#X connect 4 0 5 0;
#X connect 5 0 2 1;
#X connect 6 0 7 1;
#X connect 7 0 1 0;
#X connect 9 0 10 0;
#X connect 10 0 28 0;
#X connect 11 0 9 1;
#X connect 12 0 8 0;
#X connect 13 0 11 0;
#X connect 14 0 12 1;
#X connect 16 0 17 0;
#X connect 17 0 29 0;
#X connect 18 0 16 1;
#X connect 19 0 15 0;
#X connect 20 0 18 0;
#X connect 21 0 19 1;
#X connect 22 0 2 0;
#X connect 23 0 25 0;
#X connect 23 1 26 0;
#X connect 24 0 22 0;
#X connect 24 0 9 0;
#X connect 24 0 16 0;
#X connect 25 0 24 0;
#X connect 26 0 33 0;
#X connect 27 0 31 0;
#X connect 28 0 32 0;
#X connect 29 0 34 0;
#X connect 30 0 26 0;
#X connect 31 0 7 0;
#X connect 32 0 12 0;
#X connect 33 0 31 1;
#X connect 33 0 32 1;
#X connect 33 0 34 1;
#X connect 34 0 19 0;
#X restore 1623 629 pd 3oscsynth;
#N canvas 0 50 450 300 3oscsynth 0;
#X obj 335 141 inlet;
#X obj 335 553 throw~ \$0-mix;
#X obj 335 393 +~;
#X obj 335 427 hv.osc~ saw;
#X obj 393 314 r~ drift1;
#X obj 393 349 *~ 5;
#X obj 400 455 r~ vol1;
#X obj 335 522 *~;
#X obj 508 553 throw~ \$0-mix;
#X obj 508 393 +~;
#X obj 508 427 hv.osc~ saw;
#X obj 537 349 *~ 5;
#X obj 508 515 *~;
#X obj 537 314 r~ drift2;
#X obj 573 455 r~ vol2;
#X obj 699 553 throw~ \$0-mix;
#X obj 699 393 +~;
#X obj 699 427 hv.osc~ saw;
#X obj 710 349 *~ 5;
#X obj 699 515 *~;
#X obj 710 314 r~ drift3;
#X obj 745 452 r~ vol3;
#X obj 335 339 *~ 0.5;
#X obj 335 178 unpack f f f;
#X obj 335 247 sig~;
#X obj 335 215 mtof;
#X obj 419 225 sig~;
#X obj 335 455 *~ 0.2;
#X obj 508 455 *~ 0.2;
#X obj 699 452 *~ 0.2;
#X obj 467 141 inlet;
#X obj 335 489 *~;
#X obj 508 489 *~;
#X obj 419 259 /~ 127;
#X obj 699 489 *~;
#X connect 0 0 23 0;
#X connect 2 0 3 0;
#X connect 3 0 27 0;
#X connect 4 0 5 0;
#X connect 5 0 2 1;
#X connect 6 0 7 1;
#X connect 7 0 1 0;
#X connect 9 0 10 0;
#X connect 10 0 28 0;
#X connect 11 0 9 1;
#X connect 12 0 8 0;
#X connect 13 0 11 0;
#X connect 14 0 12 1;
#X connect 16 0 17 0;
#X connect 17 0 29 0;
#X connect 18 0 16 1;
#X connect 19 0 15 0;
#X connect 20 0 18 0;
#X connect 21 0 19 1;
#X connect 22 0 2 0;
#X connect 23 0 25 0;
#X connect 23 1 26 0;
#X connect 24 0 22 0;
#X connect 24 0 9 0;
#X connect 24 0 16 0;
#X connect 25 0 24 0;
#X connect 26 0 33 0;
#X connect 27 0 31 0;
#X connect 28 0 32 0;
#X connect 29 0 34 0;
#X connect 30 0 26 0;
#X connect 31 0 7 0;
#X connect 32 0 12 0;
#X connect 33 0 31 1;
#X connect 33 0 32 1;
#X connect 33 0 34 1;
#X connect 34 0 19 0;
#X restore 1643 649 pd 3oscsynth;
#N canvas 0 50 450 300 3oscsynth 0;
#X obj 335 141 inlet;
#X obj 335 553 throw~ \$0-mix;
#X obj 335 393 +~;
#X obj 335 427 hv.osc~ saw;
#X obj 393 314 r~ drift1;
#X obj 393 349 *~ 5;
#X obj 400 455 r~ vol1;
#X obj 335 522 *~;
#X obj 508 553 throw~ \$0-mix;
#X obj 508 393 +~;
#X obj 508 427 hv.osc~ saw;
#X obj 537 349 *~ 5;
#X obj 508 515 *~;
#X obj 537 314 r~ drift2;
#X obj 573 455 r~ vol2;
#X obj 699 553 throw~ \$0-mix;
#X obj 699 393 +~;
#X obj 699 427 hv.osc~ saw;
#X obj 710 349 *~ 5;
#X obj 699 515 *~;
#X obj 710 314 r~ drift3;
#X obj 745 452 r~ vol3;
#X obj 335 339 *~ 0.5;
#X obj 335 178 unpack f f f;
#X obj 335 247 sig~;
#X obj 335 215 mtof;
#X obj 419 225 sig~;
#X obj 335 455 *~ 0.2;
#X obj 508 455 *~ 0.2;
#X obj 699 452 *~ 0.2;
#X obj 467 141 inlet;
#X obj 335 489 *~;
#X obj 508 489 *~;
#X obj 419 259 /~ 127;
#X obj 699 489 *~;
#X connect 0 0 23 0;
#X connect 2 0 3 0;
#X connect 3 0 27 0;
#X connect 4 0 5 0;
#X connect 5 0 2 1;
#X connect 6 0 7 1;
#X connect 7 0 1 0;
#X connect 9 0 10 0;
#X connect 10 0 28 0;
#X connect 11 0 9 1;
#X connect 12 0 8 0;
#X connect 13 0 11 0;
#X connect 14 0 12 1;
#X connect 16 0 17 0;
#X connect 17 0 29 0;
#X connect 18 0 16 1;
#X connect 19 0 15 0;
#X connect 20 0 18 0;
#X connect 21 0 19 1;
#X connect 22 0 2 0;
#X connect 23 0 25 0;
#X connect 23 1 26 0;
#X connect 24 0 22 0;
#X connect 24 0 9 0;
#X connect 24 0 16 0;
#X connect 25 0 24 0;
#X connect 26 0 33 0;
#X connect 27 0 31 0;
#X connect 28 0 32 0;
#X connect 29 0 34 0;
#X connect 30 0 26 0;
#X connect 31 0 7 0;
#X connect 32 0 12 0;
#X connect 33 0 31 1;
#X connect 33 0 32 1;
#X connect 33 0 34 1;
#X connect 34 0 19 0;
#X restore 1663 669 pd 3oscsynth;
#N canvas 0 50 450 300 3oscsynth 0;
#X obj 335 141 inlet;
#X obj 335 553 throw~ \$0-mix;
#X obj 335 393 +~;
#X obj 335 427 hv.osc~ saw;
#X obj 393 314 r~ drift1;
#X obj 393 349 *~ 5;
#X obj 400 455 r~ vol1;
#X obj 335 522 *~;
#X obj 508 553 throw~ \$0-mix;
#X obj 508 393 +~;
#X obj 508 427 hv.osc~ saw;
#X obj 537 349 *~ 5;
#X obj 508 515 *~;
#X obj 537 314 r~ drift2;
#X obj 573 455 r~ vol2;
#X obj 699 553 throw~ \$0-mix;
#X obj 699 393 +~;
#X obj 699 427 hv.osc~ saw;
#X obj 710 349 *~ 5;
#X obj 699 515 *~;
#X obj 710 314 r~ drift3;
#X obj 745 452 r~ vol3;
#X obj 335 339 *~ 0.5;
#X obj 335 178 unpack f f f;
#X obj 335 247 sig~;
#X obj 335 215 mtof;
#X obj 419 225 sig~;
#X obj 335 455 *~ 0.2;
#X obj 508 455 *~ 0.2;
#X obj 699 452 *~ 0.2;
#X obj 467 141 inlet;
#X obj 335 489 *~;
#X obj 508 489 *~;
#X obj 419 259 /~ 127;
#X obj 699 489 *~;
#X connect 0 0 23 0;
#X connect 2 0 3 0;
#X connect 3 0 27 0;
#X connect 4 0 5 0;
#X connect 5 0 2 1;
#X connect 6 0 7 1;
#X connect 7 0 1 0;
#X connect 9 0 10 0;
#X connect 10 0 28 0;
#X connect 11 0 9 1;
#X connect 12 0 8 0;
#X connect 13 0 11 0;
#X connect 14 0 12 1;
#X connect 16 0 17 0;
#X connect 17 0 29 0;
#X connect 18 0 16 1;
#X connect 19 0 15 0;
#X connect 20 0 18 0;
#X connect 21 0 19 1;
#X connect 22 0 2 0;
#X connect 23 0 25 0;
#X connect 23 1 26 0;
#X connect 24 0 22 0;
#X connect 24 0 9 0;
#X connect 24 0 16 0;
#X connect 25 0 24 0;
#X connect 26 0 33 0;
#X connect 27 0 31 0;
#X connect 28 0 32 0;
#X connect 29 0 34 0;
#X connect 30 0 26 0;
#X connect 31 0 7 0;
#X connect 32 0 12 0;
#X connect 33 0 31 1;
#X connect 33 0 32 1;
#X connect 33 0 34 1;
#X connect 34 0 19 0;
#X restore 1683 689 pd 3oscsynth;
#N canvas 0 50 450 300 3oscsynth 0;
#X obj 335 141 inlet;
#X obj 335 553 throw~ \$0-mix;
#X obj 335 393 +~;
#X obj 335 427 hv.osc~ saw;
#X obj 393 314 r~ drift1;
#X obj 393 349 *~ 5;
#X obj 400 455 r~ vol1;
#X obj 335 522 *~;
#X obj 508 553 throw~ \$0-mix;
#X obj 508 393 +~;
#X obj 508 427 hv.osc~ saw;
#X obj 537 349 *~ 5;
#X obj 508 515 *~;
#X obj 537 314 r~ drift2;
#X obj 573 455 r~ vol2;
#X obj 699 553 throw~ \$0-mix;
#X obj 699 393 +~;
#X obj 699 427 hv.osc~ saw;
#X obj 710 349 *~ 5;
#X obj 699 515 *~;
#X obj 710 314 r~ drift3;
#X obj 745 452 r~ vol3;
#X obj 335 339 *~ 0.5;
#X obj 335 178 unpack f f f;
#X obj 335 247 sig~;
#X obj 335 215 mtof;
#X obj 419 225 sig~;
#X obj 335 455 *~ 0.2;
#X obj 508 455 *~ 0.2;
#X obj 699 452 *~ 0.2;
#X obj 467 141 inlet;
#X obj 335 489 *~;
#X obj 508 489 *~;
#X obj 419 259 /~ 127;
#X obj 699 489 *~;
#X connect 0 0 23 0;
#X connect 2 0 3 0;
#X connect 3 0 27 0;
#X connect 4 0 5 0;
#X connect 5 0 2 1;
#X connect 6 0 7 1;
#X connect 7 0 1 0;
#X connect 9 0 10 0;
#X connect 10 0 28 0;
#X connect 11 0 9 1;
#X connect 12 0 8 0;
#X connect 13 0 11 0;
#X connect 14 0 12 1;
#X connect 16 0 17 0;
#X connect 17 0 29 0;
#X connect 18 0 16 1;
#X connect 19 0 15 0;
#X connect 20 0 18 0;
#X connect 21 0 19 1;
#X connect 22 0 2 0;
#X connect 23 0 25 0;
#X connect 23 1 26 0;
#X connect 24 0 22 0;
#X connect 24 0 9 0;
#X connect 24 0 16 0;
#X connect 25 0 24 0;
#X connect 26 0 33 0;
#X connect 27 0 31 0;
#X connect 28 0 32 0;
#X connect 29 0 34 0;
#X connect 30 0 26 0;
#X connect 31 0 7 0;
#X connect 32 0 12 0;
#X connect 33 0 31 1;
#X connect 33 0 32 1;
#X connect 33 0 34 1;
#X connect 34 0 19 0;
#X restore 1703 709 pd 3oscsynth;
#X text 1741 344 touchpad notes input, f 19;
#X obj 1563 398 pack f f;
#X obj 1563 444 unpack f f;
#X obj 1741 368 r touchnote;
#X obj 1557 -166 pack f f;
#X obj 1557 -137 s touchnote;
#X msg 1614 -200 99;
#X msg 1592 -200 0;
#X obj 1809 -230 sel 0 1;
#X obj 1776 -166 pack f f;
#X obj 1776 -137 s touchnote;
#X msg 1833 -200 99;
#X msg 1811 -200 0;
#X obj 2031 -231 sel 0 1;
#X obj 1998 -167 pack f f;
#X obj 1998 -138 s touchnote;
#X msg 2055 -201 99;
#X msg 2033 -201 0;
#X obj 2247 -231 sel 0 1;
#X obj 2214 -167 pack f f;
#X obj 2214 -138 s touchnote;
#X msg 2271 -201 99;
#X msg 2249 -201 0;
#X obj 1592 -30 sel 0 1;
#X obj 1559 34 pack f f;
#X obj 1559 63 s touchnote;
#X msg 1616 0 99;
#X msg 1594 0 0;
#X obj 1809 -30 sel 0 1;
#X obj 1776 34 pack f f;
#X obj 1776 63 s touchnote;
#X msg 1833 0 99;
#X msg 1811 0 0;
#X obj 2033 -30 sel 0 1;
#X obj 2000 34 pack f f;
#X obj 2000 63 s touchnote;
#X msg 2057 0 99;
#X msg 2035 0 0;
#X connect 1 0 34 0;
#X connect 2 0 29 0;
#X connect 3 0 36 0;
#X connect 4 0 30 0;
#X connect 6 0 70 0;
#X connect 7 0 37 0;
#X connect 8 0 31 0;
#X connect 9 0 38 0;
#X connect 10 0 32 0;
#X connect 11 0 39 0;
#X connect 12 0 33 0;
#X connect 13 0 35 0;
#X connect 14 0 28 0;
#X connect 15 0 29 0;
#X connect 16 0 30 0;
#X connect 17 0 28 0;
#X connect 18 0 31 0;
#X connect 19 0 32 0;
#X connect 20 0 33 0;
#X connect 21 0 97 0;
#X connect 21 1 97 1;
#X connect 28 0 13 0;
#X connect 29 0 1 0;
#X connect 30 0 3 0;
#X connect 31 0 7 0;
#X connect 32 0 9 0;
#X connect 33 0 11 0;
#X connect 41 0 87 0;
#X connect 42 0 43 0;
#X connect 43 0 103 0;
#X connect 43 0 72 0;
#X connect 43 1 102 0;
#X connect 43 1 72 0;
#X connect 44 0 42 0;
#X connect 45 0 42 0;
#X connect 46 0 104 0;
#X connect 47 0 46 0;
#X connect 48 0 46 0;
#X connect 49 0 109 0;
#X connect 50 0 49 0;
#X connect 51 0 49 0;
#X connect 52 0 114 0;
#X connect 53 0 52 0;
#X connect 54 0 52 0;
#X connect 55 0 119 0;
#X connect 56 0 55 0;
#X connect 57 0 124 0;
#X connect 58 0 57 0;
#X connect 59 0 129 0;
#X connect 60 0 59 0;
#X connect 61 0 55 0;
#X connect 62 0 57 0;
#X connect 63 0 59 0;
#X connect 66 0 70 1;
#X connect 67 0 68 0;
#X connect 68 0 66 0;
#X connect 70 0 65 0;
#X connect 70 0 65 1;
#X connect 71 0 68 0;
#X connect 72 0 100 0;
#X connect 73 0 105 0;
#X connect 74 0 110 0;
#X connect 75 0 115 0;
#X connect 76 0 120 0;
#X connect 77 0 125 0;
#X connect 78 0 130 0;
#X connect 80 0 81 0;
#X connect 81 0 82 0;
#X connect 82 0 84 0;
#X connect 82 1 85 0;
#X connect 83 0 81 0;
#X connect 84 0 86 0;
#X connect 85 0 86 0;
#X connect 87 0 79 0;
#X connect 87 1 89 0;
#X connect 87 2 90 0;
#X connect 87 3 91 0;
#X connect 87 4 92 0;
#X connect 87 5 93 0;
#X connect 87 6 94 0;
#X connect 87 7 95 0;
#X connect 88 0 41 0;
#X connect 88 1 41 1;
#X connect 88 2 41 2;
#X connect 97 0 98 0;
#X connect 98 0 88 0;
#X connect 98 1 88 1;
#X connect 99 0 98 0;
#X connect 100 0 101 0;
#X connect 102 0 100 1;
#X connect 103 0 100 1;
#X connect 104 0 108 0;
#X connect 104 0 73 0;
#X connect 104 1 107 0;
#X connect 104 1 73 0;
#X connect 105 0 106 0;
#X connect 107 0 105 1;
#X connect 108 0 105 1;
#X connect 109 0 113 0;
#X connect 109 0 74 0;
#X connect 109 1 112 0;
#X connect 109 1 74 0;
#X connect 110 0 111 0;
#X connect 112 0 110 1;
#X connect 113 0 110 1;
#X connect 114 0 118 0;
#X connect 114 0 75 0;
#X connect 114 1 117 0;
#X connect 114 1 75 0;
#X connect 115 0 116 0;
#X connect 117 0 115 1;
#X connect 118 0 115 1;
#X connect 119 0 123 0;
#X connect 119 0 76 0;
#X connect 119 1 122 0;
#X connect 119 1 76 0;
#X connect 120 0 121 0;
#X connect 122 0 120 1;
#X connect 123 0 120 1;
#X connect 124 0 128 0;
#X connect 124 0 77 0;
#X connect 124 1 127 0;
#X connect 124 1 77 0;
#X connect 125 0 126 0;
#X connect 127 0 125 1;
#X connect 128 0 125 1;
#X connect 129 0 133 0;
#X connect 129 0 78 0;
#X connect 129 1 132 0;
#X connect 129 1 78 0;
#X connect 130 0 131 0;
#X connect 132 0 130 1;
#X connect 133 0 130 1;
