#N canvas 827 239 734 565 12;
#N canvas 0 0 450 250 (subpatch) 0;
#X array sample1 48000 float 2;
#X coords 0 1 48000 -1 337 141 1;
#X restore 425 515 graph;
#X obj 425 445 tabread4~ sample1;
#X obj 623 477 tabwrite~ sample1;
#X msg 623 351 start;
#X msg 670 351 stop;
#X obj 623 297 t b b;
#X obj 425 253 tgl 25 0 empty empty empty 17 7 0 10 #191919 #e1e1e1 #e1e1e1 0 1;
#X obj 425 477 throw~ out;
#X obj 425 157 tgl 25 0 empty empty empty 17 7 0 10 #191919 #ffffff #ffffff 0 1;
#X obj 425 127 change;
#X obj 478 221 r modtoggle;
#X obj 425 221 spigot;
#X obj 425 97 r mpr121_driver_ch3 @hv_param;
#X obj 699 157 r recordingswitch;
#X obj 734 351 r~ recorder;
#X obj 734 378 *~;
#X obj 745 326 sig~;
#X obj 748 259 sel 1;
#X msg 751 297 1;
#X msg 773 297 0;
#X obj 748 223 spigot;
#X obj 425 297 sel 1 0;
#X obj 658 223 > 1;
#X obj 623 157 r recbang;
#X msg 626 192 1;
#X obj 623 223 +;
#X obj 699 223 sel 1;
#X obj 751 477 throw~ out;
#X obj 261 190 hsl 128 17 0 1 0 0 empty empty empty -2 -8 0 10 #191919 #e1e1e1 #e1e1e1 0 1;
#X msg 258 238 \$1 20;
#X obj 258 212 r knob1 @hv_param;
#X obj 258 267 line;
#X obj 258 292 * 5000;
#X obj 691 451 line~;
#X msg 670 407 0 10;
#X obj 670 326 del 1000;
#X obj 670 378 del 990;
#X obj 653 451 *~;
#X msg 635 407 1 10;
#X obj 642 97 r pad3;
#X obj 425 391 hv.vline~;
#X obj 425 334 f;
#X msg 425 369 0 \, 0 5 \, 0 0 5 \, 48000 \$1 5;
#X obj 258 326 loadbang;
#X msg 258 352 1000;
#X connect 1 0 7 0;
#X connect 3 0 2 0;
#X connect 4 0 2 0;
#X connect 5 0 3 0;
#X connect 5 0 38 0;
#X connect 5 1 35 0;
#X connect 5 1 36 0;
#X connect 6 0 21 0;
#X connect 8 0 11 0;
#X connect 8 0 25 1;
#X connect 8 0 20 0;
#X connect 9 0 8 0;
#X connect 10 0 11 1;
#X connect 11 0 6 0;
#X connect 12 0 9 0;
#X connect 13 0 20 1;
#X connect 14 0 15 0;
#X connect 15 0 37 0;
#X connect 15 0 27 0;
#X connect 16 0 15 1;
#X connect 17 0 18 0;
#X connect 17 1 19 0;
#X connect 18 0 16 0;
#X connect 19 0 16 0;
#X connect 20 0 17 0;
#X connect 21 0 41 0;
#X connect 22 0 26 0;
#X connect 23 0 24 0;
#X connect 24 0 25 0;
#X connect 25 0 22 0;
#X connect 26 0 5 0;
#X connect 28 0 29 0;
#X connect 29 0 31 0;
#X connect 30 0 29 0;
#X connect 31 0 32 0;
#X connect 32 0 41 1;
#X connect 33 0 37 1;
#X connect 34 0 33 0;
#X connect 35 0 4 0;
#X connect 36 0 34 0;
#X connect 37 0 2 0;
#X connect 38 0 33 0;
#X connect 39 0 21 0;
#X connect 40 0 1 0;
#X connect 41 0 42 0;
#X connect 42 0 40 0;
#X connect 43 0 44 0;
#X connect 44 0 41 1;
