#N canvas 827 239 734 565 12;
#X msg 481 293 \$1 10;
#X obj 484 262 hsl 128 17 0 1 0 0 empty empty empty -2 -8 0 10 #191919 #ffffff #ffffff 0 1;
#X obj 481 226 r knob0 @hv_param;
#X obj 481 324 line;
#X obj 217 237 midirealtimein;
#X floatatom 217 263 5 0 0 0 - - - 0;
#X obj 217 290 select 248 250 252;
#X obj 250 320 bng 25 250 50 0 empty empty empty 17 7 0 10 #191919 #ffffff #ffffff;
#X obj 284 351 bng 25 250 50 0 empty empty empty 17 7 0 10 #191919 #ffffff #ffffff;
#X text 277 318 play;
#X text 309 356 stop;
#X obj 217 433 bng 25 250 50 0 empty empty empty 17 7 0 10 #191919 #ffffff #ffffff;
#X msg 253 384 1;
#X msg 287 384 0;
#X text 240 415 tempo pulse;
#X obj 267 433 tgl 25 0 empty empty empty 17 7 0 10 #191919 #e1e1e1 #e1e1e1 0 1;
#X obj 218 472 spigot;
#X obj 325 384 s setzero;
#X msg 870 866 0;
#X msg 840 866 1;
#X obj 840 916 s daisyled @hv_param;
#X obj 838 771 r clock_devision_frommidi;
#X obj 1003 916 s gate_out @hv_param;
#X obj 870 815 del 10;
#X obj 481 353 * 6;
#X obj 481 710 s seqtime;
#X obj 481 386 moses 1;
#X obj 515 422 moses 2;
#X obj 551 457 moses 3;
#X obj 481 662 change;
#X msg 481 599 1;
#X msg 516 599 2;
#X msg 552 599 3;
#X obj 660 556 moses 6;
#X msg 661 599 6;
#X obj 624 524 moses 5;
#X msg 625 599 5;
#X obj 587 493 moses 4;
#X msg 588 599 4;
#X obj 217 556 s clock_devision_frommidi;
#X obj 217 688 midiout;
#X obj 217 646 midiin;
#X connect 0 0 3 0;
#X connect 1 0 0 0;
#X connect 2 0 0 0;
#X connect 3 0 24 0;
#X connect 4 0 5 0;
#X connect 5 0 6 0;
#X connect 6 0 11 0;
#X connect 6 1 7 0;
#X connect 6 2 8 0;
#X connect 7 0 12 0;
#X connect 8 0 13 0;
#X connect 11 0 16 0;
#X connect 12 0 15 0;
#X connect 13 0 15 0;
#X connect 13 0 17 0;
#X connect 13 0 39 0;
#X connect 15 0 16 1;
#X connect 16 0 39 0;
#X connect 18 0 20 0;
#X connect 18 0 22 0;
#X connect 19 0 20 0;
#X connect 19 0 22 0;
#X connect 21 0 19 0;
#X connect 21 0 23 0;
#X connect 23 0 18 0;
#X connect 24 0 26 0;
#X connect 26 0 30 0;
#X connect 26 1 27 0;
#X connect 27 0 31 0;
#X connect 27 1 28 0;
#X connect 28 0 32 0;
#X connect 28 1 37 0;
#X connect 29 0 25 0;
#X connect 30 0 29 0;
#X connect 31 0 29 0;
#X connect 32 0 29 0;
#X connect 33 0 34 0;
#X connect 34 0 29 0;
#X connect 35 0 36 0;
#X connect 35 1 33 0;
#X connect 36 0 29 0;
#X connect 37 0 38 0;
#X connect 37 1 35 0;
#X connect 38 0 29 0;
#X connect 41 0 40 0;
#X connect 41 1 40 1;
