#N canvas 827 239 734 565 12;
#X msg 838 287 \$1 10;
#X obj 841 256 hsl 128 17 0 1 0 0 empty empty empty -2 -8 0 10 #191919 #ffffff #ffffff 0 1;
#X obj 838 227 r knob0 @hv_param;
#X obj 838 318 line;
#X obj 217 237 midirealtimein;
#X floatatom 217 263 5 0 0 0 - - - 0;
#X obj 217 290 select 248 250 252;
#X obj 250 320 bng 25 250 50 0 empty empty empty 17 7 0 10 #191919 #ffffff #ffffff;
#X obj 284 351 bng 25 250 50 0 empty empty empty 17 7 0 10 #191919 #ffffff #ffffff;
#X text 277 318 play;
#X text 309 356 stop;
#X obj 217 433 bng 25 250 50 0 empty empty empty 17 7 0 10 #191919 #ffffff #ffffff;
#X msg 253 384 1;
#X msg 287 384 0;
#X text 240 415 tempo pulse;
#X obj 267 433 tgl 25 0 empty empty empty 17 7 0 10 #191919 #e1e1e1 #e1e1e1 0 1;
#X obj 552 319 + 1;
#X obj 631 413 + 1;
#X floatatom 631 442 5 0 0 0 - - - 0;
#X obj 507 319 i;
#X obj 676 413 + 1;
#X floatatom 676 442 5 0 0 0 - - - 0;
#X obj 725 413 + 1;
#X floatatom 725 442 5 0 0 0 - - - 0;
#X obj 441 524 spigot;
#X obj 483 563 spigot;
#X obj 528 600 spigot;
#X obj 577 637 spigot;
#X obj 626 672 spigot;
#X obj 218 472 spigot;
#X obj 266 504 r seqtime;
#X obj 589 413 + 1;
#X obj 589 387 % 24;
#X obj 631 387 % 48;
#X obj 676 387 % 96;
#X obj 725 387 % 192;
#X obj 589 472 sel 24;
#X obj 631 472 sel 48;
#X obj 676 472 sel 96;
#X obj 725 472 sel 192;
#X msg 410 524 1;
#X msg 382 524 0;
#X msg 410 563 1;
#X msg 382 563 0;
#X msg 410 600 1;
#X msg 382 600 0;
#X msg 410 637 1;
#X msg 382 637 0;
#X msg 410 672 1;
#X msg 382 672 0;
#X floatatom 589 442 5 0 0 0 - - - 0;
#X obj 544 413 + 1;
#X floatatom 544 442 5 0 0 0 - - - 0;
#X obj 544 387 % 12;
#X obj 544 472 sel 12;
#X obj 441 771 s clock_devision_frommidi;
#X obj 492 413 + 1;
#X floatatom 492 442 5 0 0 0 - - - 0;
#X obj 492 387 % 6;
#X obj 492 472 sel 6;
#X obj 691 704 spigot;
#X msg 410 704 1;
#X msg 382 704 0;
#X obj 325 384 s setzero;
#X obj 441 413 + 1;
#X floatatom 441 442 5 0 0 0 - - - 0;
#X obj 441 387 % 1;
#X obj 441 472 sel 1;
#X obj 725 737 spigot;
#X msg 410 737 1;
#X msg 382 737 0;
#X obj 266 533 sel 6 5 4 3 2 1 0;
#X msg 870 866 0;
#X msg 840 866 1;
#X obj 840 916 s daisyled @hv_param;
#X obj 838 771 r clock_devision_frommidi;
#X obj 1003 916 s gate_out @hv_param;
#X obj 870 815 del 10;
#X obj 838 347 * 6;
#X obj 838 704 s seqtime;
#X obj 838 380 moses 1;
#X obj 872 416 moses 2;
#X obj 908 451 moses 3;
#X obj 838 656 change;
#X msg 838 593 1;
#X msg 873 593 2;
#X msg 909 593 3;
#X obj 1017 550 moses 6;
#X msg 1018 593 6;
#X obj 981 518 moses 5;
#X msg 982 593 5;
#X obj 944 487 moses 4;
#X msg 945 593 4;
#X connect 0 0 3 0;
#X connect 1 0 0 0;
#X connect 2 0 0 0;
#X connect 3 0 78 0;
#X connect 4 0 5 0;
#X connect 5 0 6 0;
#X connect 6 0 11 0;
#X connect 6 1 7 0;
#X connect 6 2 8 0;
#X connect 7 0 12 0;
#X connect 8 0 13 0;
#X connect 11 0 29 0;
#X connect 12 0 15 0;
#X connect 13 0 15 0;
#X connect 13 0 19 0;
#X connect 13 0 63 0;
#X connect 15 0 29 1;
#X connect 16 0 19 1;
#X connect 17 0 18 0;
#X connect 18 0 37 0;
#X connect 19 0 16 0;
#X connect 19 0 33 0;
#X connect 19 0 34 0;
#X connect 19 0 35 0;
#X connect 19 0 32 0;
#X connect 19 0 53 0;
#X connect 19 0 58 0;
#X connect 19 0 66 0;
#X connect 20 0 21 0;
#X connect 21 0 38 0;
#X connect 22 0 23 0;
#X connect 23 0 39 0;
#X connect 24 0 55 0;
#X connect 25 0 55 0;
#X connect 26 0 55 0;
#X connect 27 0 55 0;
#X connect 28 0 55 0;
#X connect 29 0 19 0;
#X connect 30 0 71 0;
#X connect 31 0 50 0;
#X connect 32 0 31 0;
#X connect 33 0 17 0;
#X connect 34 0 20 0;
#X connect 35 0 22 0;
#X connect 36 0 27 0;
#X connect 37 0 28 0;
#X connect 38 0 60 0;
#X connect 39 0 68 0;
#X connect 40 0 24 1;
#X connect 41 0 25 1;
#X connect 41 0 26 1;
#X connect 41 0 27 1;
#X connect 41 0 28 1;
#X connect 42 0 25 1;
#X connect 43 0 24 1;
#X connect 43 0 28 1;
#X connect 43 0 26 1;
#X connect 43 0 27 1;
#X connect 43 0 60 1;
#X connect 43 0 68 1;
#X connect 44 0 26 1;
#X connect 45 0 25 1;
#X connect 45 0 27 1;
#X connect 45 0 28 1;
#X connect 45 0 24 1;
#X connect 45 0 60 1;
#X connect 45 0 68 1;
#X connect 46 0 27 1;
#X connect 47 0 28 1;
#X connect 47 0 26 1;
#X connect 47 0 25 1;
#X connect 47 0 24 1;
#X connect 47 0 60 1;
#X connect 47 0 68 1;
#X connect 48 0 28 1;
#X connect 49 0 27 1;
#X connect 49 0 26 1;
#X connect 49 0 25 1;
#X connect 49 0 24 1;
#X connect 49 0 60 1;
#X connect 49 0 68 1;
#X connect 50 0 36 0;
#X connect 51 0 52 0;
#X connect 52 0 54 0;
#X connect 53 0 51 0;
#X connect 54 0 26 0;
#X connect 56 0 57 0;
#X connect 57 0 59 0;
#X connect 58 0 56 0;
#X connect 59 0 25 0;
#X connect 60 0 55 0;
#X connect 61 0 60 1;
#X connect 62 0 28 1;
#X connect 62 0 27 1;
#X connect 62 0 26 1;
#X connect 62 0 25 1;
#X connect 62 0 24 1;
#X connect 62 0 68 1;
#X connect 64 0 65 0;
#X connect 65 0 67 0;
#X connect 66 0 64 0;
#X connect 67 0 24 0;
#X connect 68 0 55 0;
#X connect 69 0 68 1;
#X connect 70 0 60 1;
#X connect 70 0 28 1;
#X connect 70 0 27 1;
#X connect 70 0 26 1;
#X connect 70 0 25 1;
#X connect 70 0 24 1;
#X connect 71 0 40 0;
#X connect 71 0 41 0;
#X connect 71 1 42 0;
#X connect 71 1 43 0;
#X connect 71 2 44 0;
#X connect 71 2 45 0;
#X connect 71 3 46 0;
#X connect 71 3 47 0;
#X connect 71 4 48 0;
#X connect 71 4 49 0;
#X connect 71 5 61 0;
#X connect 71 5 62 0;
#X connect 71 6 69 0;
#X connect 71 6 70 0;
#X connect 72 0 74 0;
#X connect 72 0 76 0;
#X connect 73 0 74 0;
#X connect 73 0 76 0;
#X connect 75 0 73 0;
#X connect 75 0 77 0;
#X connect 77 0 72 0;
#X connect 78 0 80 0;
#X connect 80 0 84 0;
#X connect 80 1 81 0;
#X connect 81 0 85 0;
#X connect 81 1 82 0;
#X connect 82 0 86 0;
#X connect 82 1 91 0;
#X connect 83 0 79 0;
#X connect 84 0 83 0;
#X connect 85 0 83 0;
#X connect 86 0 83 0;
#X connect 87 0 88 0;
#X connect 88 0 83 0;
#X connect 89 0 90 0;
#X connect 89 1 87 0;
#X connect 90 0 83 0;
#X connect 91 0 92 0;
#X connect 91 1 89 0;
#X connect 92 0 83 0;
