#N canvas 827 239 734 565 12;
#X obj 354 236 hv.osc~ sine;
#X obj 381 85 hsl 99 17 0 1 0 0 empty empty empty -2 -8 0 10 #191919 #e1e1e1 #e1e1e1 0 1;
#X obj 354 199 sig~;
#X obj 354 350 dac~;
#X obj 354 56 r knob0 @hv_param;
#X obj 354 141 line;
#X msg 354 113 \$1 20;
#X obj 354 167 * 110;
#X obj 354 312 *~;
#X obj 540 85 hsl 99 17 0 1 0 0 empty empty empty -2 -8 0 10 #191919 #e1e1e1 #e1e1e1 0 1;
#X obj 513 141 line;
#X obj 513 199 sig~;
#X msg 513 113 \$1 100;
#X obj 513 56 r knob1 @hv_param;
#X connect 0 0 8 0;
#X connect 1 0 6 0;
#X connect 2 0 0 0;
#X connect 4 0 6 0;
#X connect 5 0 7 0;
#X connect 6 0 5 0;
#X connect 7 0 2 0;
#X connect 8 0 3 0;
#X connect 8 0 3 1;
#X connect 9 0 12 0;
#X connect 10 0 11 0;
#X connect 11 0 8 1;
#X connect 12 0 10 0;
#X connect 13 0 12 0;
