#N canvas 827 239 734 565 12;
#X obj 58 264 r~ pad_midi_note;
#X obj 58 312 s~ write_index;
#X obj 203 538 tabwrite~ array_feedback;
#X obj 28 538 s~ feedback_param;
#N canvas 0 0 450 250 (subpatch) 0;
#X array array_sine2 7 float 2;
#X coords 0 1 7 0 211 63 1;
#X restore 454 371 graph;
#N canvas 0 0 450 250 (subpatch) 0;
#X array array_feedback 88 float 2;
#X coords 0 1 88 0 211 63 1;
#X restore 454 127 graph;
#N canvas 0 0 450 250 (subpatch) 0;
#X array array_sine1 7 float 2;
#X coords 0 1 7 0 211 63 1;
#X restore 454 209 graph;
#N canvas 0 0 450 250 (subpatch) 0;
#X array array_mod 7 float 2;
#X coords 0 1 7 0 211 63 1;
#X restore 454 291 graph;
#X obj 331 119 tgl 25 0 empty empty empty 17 7 0 10 #191919 #e1e1e1 #e1e1e1 0 1;
#X obj -181 196 hsl 128 17 0 1 0 0 empty empty empty -2 -8 0 10 #191919 #ffffff #ffffff 0 1;
#X msg -215 221 \$1 20;
#X obj -215 248 line~;
#X obj -215 327 mtof~;
#X obj -215 299 *~ 127;
#X obj -215 174 r knob0 @hv_param;
#X obj 365 146 metro 200;
#X obj 365 119 loadbang;
#X obj 365 174 s bang;
#X obj 203 505 r~ write_feedback;
#X obj 112 438 send~ write_feedback;
#X obj 547 652 tabwrite array_sine1;
#X floatatom 396 641 6 0 0 0 - - - 0;
#X obj 28 510 tabread~ array_feedback;
#X obj 311 438 r~ write_feedback;
#X obj 547 598 snapshot~;
#X floatatom 547 624 6 0 0 0 - - - 0;
#X obj 567 565 r bang;
#X obj 396 598 tabread~ array_sine1;
#X obj 396 570 r pad;
#X obj 650 624 r pad;
#X connect 8 0 15 0;
#X connect 9 0 10 0;
#X connect 10 0 11 0;
#X connect 11 0 13 0;
#X connect 11 0 19 0;
#X connect 13 0 12 0;
#X connect 14 0 10 0;
#X connect 15 0 17 0;
#X connect 16 0 15 0;
#X connect 18 0 2 0;
#X connect 22 0 3 0;
#X connect 23 0 24 0;
#X connect 24 0 25 0;
#X connect 24 0 20 0;
#X connect 26 0 24 0;
#X connect 27 0 21 0;
#X connect 28 0 27 0;
#X connect 29 0 20 1;
