#N canvas 827 239 734 565 12;
#X obj 235 574 *~;
#X obj 79 628 *~;
#X obj 79 542 hv.osc~ saw;
#X obj 79 39 notein;
#X obj 79 481 mtof;
#X obj 79 670 dac~;
#X obj 182 125 sel 0;
#X obj 182 90 moses 0.01;
#X obj 235 542 line~;
#X obj 79 514 sig~;
#X obj 235 125 / 127;
#X obj 235 359 pack;
#X msg 235 475 \$1 \$2;
#X obj 293 189 line~;
#X msg 293 164 \$1 10;
#X obj 293 219 *~ 3000;
#X obj 293 262 snapshot~;
#X obj 361 238 metro 10;
#X obj 373 203 loadbang, f 9;
#X obj 293 297 change;
#X msg 363 297 5;
#X obj 447 447 pack;
#X msg 447 480 \$1 \$2;
#X obj 465 117 r knob1 @hv_param;
#X obj 465 189 line~;
#X msg 465 164 \$1 10;
#X obj 465 219 *~ 3000;
#X obj 465 262 snapshot~;
#X obj 533 238 metro 10;
#X obj 545 203 loadbang, f 9;
#X obj 465 297 change;
#X msg 535 297 5;
#X msg 184 405 0;
#X obj 293 117 r knob0 @hv_param;
#X text 296 89 attack;
#X text 465 89 decay;
#X connect 0 0 1 1;
#X connect 1 0 5 0;
#X connect 1 0 5 1;
#X connect 2 0 1 0;
#X connect 3 0 4 0;
#X connect 3 1 7 0;
#X connect 4 0 9 0;
#X connect 6 0 32 0;
#X connect 7 0 6 0;
#X connect 7 1 10 0;
#X connect 8 0 0 0;
#X connect 8 0 0 1;
#X connect 9 0 2 0;
#X connect 10 0 11 0;
#X connect 11 0 12 0;
#X connect 12 0 8 0;
#X connect 13 0 15 0;
#X connect 14 0 13 0;
#X connect 15 0 16 0;
#X connect 16 0 19 0;
#X connect 17 0 16 0;
#X connect 18 0 17 0;
#X connect 18 0 20 0;
#X connect 19 0 11 1;
#X connect 20 0 11 1;
#X connect 21 0 22 0;
#X connect 22 0 8 0;
#X connect 23 0 25 0;
#X connect 24 0 26 0;
#X connect 25 0 24 0;
#X connect 26 0 27 0;
#X connect 27 0 30 0;
#X connect 28 0 27 0;
#X connect 29 0 28 0;
#X connect 29 0 31 0;
#X connect 30 0 21 1;
#X connect 31 0 21 1;
#X connect 32 0 21 0;
#X connect 33 0 14 0;
