#N canvas 827 239 734 565 12;
#X obj 100 85 tgl 25 0 empty empty empty 17 7 0 10 #191919 #ffffff #ffffff 0 1;
#X obj 19 49 change;
#X obj 19 85 tgl 25 0 empty empty empty 17 7 0 10 #191919 #ffffff #ffffff 0 1;
#X obj 53 85 sel 1;
#X obj 19 19 r mpr121_driver_ch0 @hv_param;
#X obj 100 125 s ledswitch;
#X obj 19 167 r ledswitch;
#X obj 19 221 sel 1 0;
#X msg 76 338 0;
#X msg 22 338 1;
#X obj 19 304 del 5;
#X msg 148 338 1;
#X msg 218 338 0;
#X msg 290 338 1;
#X msg 365 338 0;
#X obj 287 304 del 1000;
#X obj 363 304 del 1250;
#X obj 74 304 del 350;
#X obj 145 304 del 600;
#X obj 216 304 del 800;
#X obj 19 427 s daisyled @hv_param;
#X connect 0 0 5 0;
#X connect 1 0 2 0;
#X connect 2 0 3 0;
#X connect 3 0 0 0;
#X connect 4 0 1 0;
#X connect 6 0 7 0;
#X connect 7 0 10 0;
#X connect 7 0 15 0;
#X connect 7 0 16 0;
#X connect 7 0 17 0;
#X connect 7 0 18 0;
#X connect 7 0 19 0;
#X connect 7 1 10 0;
#X connect 7 1 17 0;
#X connect 8 0 20 0;
#X connect 9 0 20 0;
#X connect 10 0 9 0;
#X connect 11 0 20 0;
#X connect 12 0 20 0;
#X connect 13 0 20 0;
#X connect 14 0 20 0;
#X connect 15 0 13 0;
#X connect 16 0 14 0;
#X connect 17 0 8 0;
#X connect 18 0 11 0;
#X connect 19 0 12 0;
