#N canvas 733 172 450 300 dronevoice 1;
#X obj 370 233 +~;
#X obj 370 131 phasor~ 400;
#X obj 474 131 osc~ 50;
#X obj 474 204 *~;
#X obj 59 99 loadbang;
#X msg 59 131 0.5;
#X text 379 95 carrier;
#X text 466 95 modulator;
#X obj 370 266 cos~;
#X obj 220 395 *~;
#X obj 370 41 *~;
#X obj 59 570 hv.osc~ sine;
#X obj 59 486 +~;
#X obj 59 619 *~ 0.5;
#X obj 219 619 *~ 0.5;
#X obj 379 -11 *~ 5;
#X obj 409 350 osc~ 50;
#X obj 478 387 *~;
#X obj 69 404 *~ 3;
#X obj 59 525 *~ 2.02;
#X obj 639 24 hv.osc~ sine;
#X obj 639 -5 *~ 5;
#X obj 639 48 *~ -1;
#X obj 639 78 +~ 1;
#X obj 639 111 *~ 0.5;
#X obj 557 204 +~;
#X obj 634 197 *~;
#X obj 409 525 +~;
#X obj 219 570 hv.osc~ sine;
#X obj 409 570 hv.osc~ sine;
#X obj 409 321 *~ 0.5;
#X obj 478 423 *~ -1;
#X obj 478 453 +~ 1;
#X obj 478 486 *~ 0.5;
#X obj 409 647 clip~ -0.95 0.95;
#X obj 219 647 clip~ -0.95 0.95;
#X obj 59 651 clip~ -0.95 0.95;
#X obj 409 486 *~ 0.24;
#X obj 379 -41 r~ carry;
#X obj 557 -41 r~ indy;
#X obj 639 -39 r~ modspeed;
#X obj 744 -39 r~ modamount;
#X obj 59 -221 inlet;
#X obj 59 -41 sig~;
#X obj 59 -82 mtof;
#X obj 137 -41 /~ 127;
#X obj 59 27 *~;
#X obj 59 699 *~;
#X obj 219 699 *~;
#X obj 409 699 *~;
#X obj 59 746 throw~ \$0-osc1;
#X obj 219 746 throw~ \$0-osc2;
#X obj 409 746 throw~ \$0-osc3;
#X obj 137 -96 *~ 110;
#X obj 259 -261 r~ pitchmult;
#X obj 220 71 +~;
#X obj -61 58 r~ drift;
#X obj -61 235 *~;
#X obj -41 172 *~ -1;
#X obj -41 199 +~ 1;
#X obj -33 99 /~ 2.2;
#X obj 293 -96 r~ pitcher;
#X obj 259 -4 +~;
#X msg 79 -156 \$1 20, f 9;
#X obj 79 -129 line~;
#X msg -115 -180 1, f 4;
#X msg -199 -180 1, f 4;
#X obj -186 -104 +;
#X obj -186 -61 sel 2;
#X msg -186 2 1, f 4;
#X msg -234 -180 0, f 4;
#X obj -234 -275 r dronevel;
#X obj 59 -184 unpack f f f f;
#X obj -186 140 line~;
#X msg -186 110 \$1 10;
#X msg -148 -180 0, f 4;
#X obj -234 -212 sel 0 1;
#X obj -148 -212 sel 0 5;
#X obj 420 41 r~ carmult;
#X obj 409 188 *~;
#X obj 517 321 *~;
#X obj 639 150 *~;
#X msg -148 2 0, f 6;
#X floatatom -234 -149 5 0 0 0 - - - 0;
#X floatatom -148 -149 5 0 0 0 - - - 0;
#X floatatom -185 67 3 0 0 0 - - - 16;
#X connect 0 0 8 0;
#X connect 1 0 79 0;
#X connect 2 0 3 0;
#X connect 3 0 0 1;
#X connect 4 0 5 0;
#X connect 5 0 16 1;
#X connect 5 0 29 1;
#X connect 5 0 28 1;
#X connect 5 0 11 1;
#X connect 8 0 18 0;
#X connect 8 0 9 1;
#X connect 9 0 37 0;
#X connect 9 0 28 0;
#X connect 9 0 12 0;
#X connect 10 0 1 0;
#X connect 11 0 13 0;
#X connect 12 0 19 0;
#X connect 13 0 36 0;
#X connect 14 0 35 0;
#X connect 15 0 10 1;
#X connect 16 0 17 0;
#X connect 17 0 31 0;
#X connect 18 0 12 1;
#X connect 19 0 11 0;
#X connect 20 0 22 0;
#X connect 21 0 20 0;
#X connect 22 0 23 0;
#X connect 23 0 24 0;
#X connect 24 0 81 0;
#X connect 25 0 3 1;
#X connect 25 0 80 0;
#X connect 26 0 25 1;
#X connect 27 0 29 0;
#X connect 28 0 14 0;
#X connect 29 0 34 0;
#X connect 30 0 16 0;
#X connect 31 0 32 0;
#X connect 32 0 33 0;
#X connect 33 0 27 1;
#X connect 34 0 49 0;
#X connect 35 0 48 0;
#X connect 36 0 47 0;
#X connect 37 0 27 0;
#X connect 38 0 15 0;
#X connect 39 0 25 0;
#X connect 40 0 21 0;
#X connect 41 0 26 1;
#X connect 42 0 72 0;
#X connect 43 0 46 0;
#X connect 44 0 43 0;
#X connect 45 0 47 1;
#X connect 45 0 48 1;
#X connect 45 0 49 1;
#X connect 46 0 60 0;
#X connect 46 0 62 0;
#X connect 47 0 50 0;
#X connect 48 0 51 0;
#X connect 49 0 52 0;
#X connect 53 0 45 0;
#X connect 54 0 46 1;
#X connect 55 0 9 0;
#X connect 55 0 30 0;
#X connect 55 0 2 0;
#X connect 55 0 10 0;
#X connect 56 0 57 0;
#X connect 57 0 55 1;
#X connect 58 0 59 0;
#X connect 59 0 57 1;
#X connect 60 0 58 0;
#X connect 61 0 62 1;
#X connect 62 0 55 0;
#X connect 63 0 64 0;
#X connect 64 0 45 0;
#X connect 65 0 84 0;
#X connect 66 0 83 0;
#X connect 67 0 68 0;
#X connect 68 0 69 0;
#X connect 68 1 82 0;
#X connect 69 0 85 0;
#X connect 70 0 83 0;
#X connect 71 0 76 0;
#X connect 72 0 44 0;
#X connect 72 1 63 0;
#X connect 72 2 77 0;
#X connect 73 0 53 0;
#X connect 74 0 73 0;
#X connect 75 0 84 0;
#X connect 76 0 70 0;
#X connect 76 1 66 0;
#X connect 77 0 75 0;
#X connect 77 1 65 0;
#X connect 78 0 79 1;
#X connect 78 0 80 1;
#X connect 78 0 81 1;
#X connect 79 0 0 0;
#X connect 80 0 17 1;
#X connect 81 0 26 0;
#X connect 82 0 85 0;
#X connect 83 0 67 0;
#X connect 84 0 67 1;
#X connect 85 0 74 0;
