#N canvas 827 239 734 565 12;
#X obj 1477 -511 cnv 15 1278 698 empty empty TOUCHPADS 20 12 0 14 #626262 #ffffff 0;
#X obj 319 261 r~ feedback;
#X obj 484 302 hsl 128 17 0 1 0 0 empty empty empty -2 -8 0 10 #191919 #ffffff #ffffff 0 1;
#X msg 439 325 \$1 20;
#X obj 439 352 line~;
#X obj 439 408 mtof~;
#X obj 319 439 *~;
#X obj 439 380 *~ 127;
#X obj 462 480 hsl 128 17 0 1 0 0 empty empty empty -2 -8 0 10 #191919 #ffffff #ffffff 0 1;
#X obj 439 459 r knob1 @hv_param;
#X msg 439 506 \$1 20;
#X obj 439 533 line~;
#X obj 439 589 mtof~;
#X obj 439 561 *~ 127;
#X obj 319 643 +~;
#X obj 319 684 osc~ 200;
#X obj 798 164 hsl 128 17 0 1 0 0 empty empty empty -2 -8 0 10 #191919 #ffffff #ffffff 0 1;
#X msg 774 271 \$1 20;
#X obj 774 302 line~;
#X obj 774 386 mtof~;
#X obj 654 439 *~;
#X obj 774 358 *~ 127;
#X obj 654 743 +~;
#X obj 654 784 osc~ 200;
#X obj 679 819 send~ feedback;
#X obj 654 906 *~ 0.5;
#X obj 654 1094 dac~;
#X obj 802 880 hsl 128 17 0 1 0 0 empty empty empty -2 -8 0 10 #191919 #ffffff #ffffff 0 1;
#X msg 779 906 \$1 20;
#X obj 779 933 line~;
#X obj 654 1009 *~;
#X obj 1089 864 *~;
#X obj 1301 420 sel 0;
#X obj 1139 352 moses 0.01;
#X obj 1089 832 line~;
#X obj 1089 449 / 127;
#X obj 1089 762 pack;
#X msg 1089 791 \$1 \$2;
#X obj 1133 581 line~;
#X msg 1133 556 \$1 10;
#X obj 1133 654 snapshot~;
#X obj 1201 630 metro 10;
#X obj 1213 595 loadbang, f 9;
#X obj 1133 689 change;
#X msg 1203 689 5;
#X obj 1299 762 pack;
#X msg 1299 791 \$1 \$2;
#X obj 1337 581 line~;
#X msg 1337 556 \$1 10;
#X obj 1337 654 snapshot~;
#X obj 1405 630 metro 10;
#X obj 1417 595 loadbang, f 9;
#X obj 1337 689 change;
#X msg 1407 689 5;
#X msg 1301 449 0;
#X text 1136 481 attack;
#X text 1337 481 decay;
#X obj 1133 611 *~ 100;
#X obj 1337 611 *~ 200;
#X obj 654 950 *~;
#X obj 1162 533 hsl 128 17 0 1 0 0 empty empty empty -2 -8 0 10 #191919 #ffffff #ffffff 0 1;
#X obj 1364 533 hsl 128 17 0 1 0 0 empty empty empty -2 -8 0 10 #191919 #ffffff #ffffff 0 1;
#X obj 1199 196 bng 25 250 50 0 empty empty empty 17 7 0 10 #191919 #ffffff #ffffff;
#X msg 1201 291 0;
#X obj 1199 263 del;
#X obj 842 239 random 1000;
#X obj 842 302 *~ 0.001;
#X obj 842 271 sig~;
#X obj 598 138 bng 25 250 50 0 empty empty empty 17 7 0 10 #191919 #ffffff #ffffff;
#X obj 439 278 r knob0 @hv_param;
#X obj 779 859 r faderleft @hv_param;
#X obj 772 143 r knob2 @hv_param;
#X obj 1133 509 r knob4 @hv_param;
#X obj 1337 509 r knob5 @hv_param;
#X obj 2333 6 change;
#X obj 2543 6 change;
#X obj 2469 -37 ==;
#X obj 2469 6 change;
#X obj 2469 -74 t b f;
#X obj 2333 -122 r toggle2down_press @hv_param;
#X obj 2543 -122 r toggle2up_press @hv_param;
#X obj 2374 -37 tgl 25 0 empty empty empty 17 7 0 10 #191919 #ffffff #ffffff 0 1;
#X obj 1939 -368 sel 0 1;
#X msg 1941 -337 0;
#X obj 1939 -405 tgl 25 0 empty empty empty 17 7 0 10 #191919 #ffffff #ffffff 0 1;
#X obj 1939 -430 change;
#X obj 1125 -85 notein;
#X obj 1125 29 sig~;
#X msg 1521 -759 36;
#X msg 1541 -739 38;
#X msg 1561 -719 42;
#X msg 1581 -699 46;
#X msg 1601 -679 48;
#X msg 1621 -659 49;
#X msg 1641 -639 51;
#X msg 1397 -600 36;
#X msg 1428 -600 37;
#X msg 1460 -600 38;
#X msg 1498 -600 39;
#X msg 1530 -600 40;
#X msg 1563 -600 41;
#X msg 1595 -600 42;
#X obj 1953 -284 s padnote;
#X obj 1939 -260 s padoff;
#X obj 1219 -85 r padnote;
#X obj 1199 155 r padoff;
#X obj 1719 -368 sel 0 1;
#X msg 1721 -337 0;
#X obj 1719 -405 tgl 25 0 empty empty empty 17 7 0 10 #191919 #ffffff #ffffff 0 1;
#X obj 1719 -430 change;
#X obj 1733 -284 s padnote;
#X obj 1719 -260 s padoff;
#X obj 1499 -461 r mpr121_driver_ch3 @hv_param;
#X obj 1499 -368 sel 0 1;
#X msg 1501 -337 0;
#X obj 1499 -405 tgl 25 0 empty empty empty 17 7 0 10 #191919 #ffffff #ffffff 0 1;
#X obj 1499 -430 change;
#X obj 1513 -284 s padnote;
#X msg 1513 -311 36;
#X obj 1499 -260 s padoff;
#X obj 1719 -461 r mpr121_driver_ch4 @hv_param;
#X obj 1939 -461 r mpr121_driver_ch5 @hv_param;
#X msg 1733 -311 37;
#X msg 1953 -311 38;
#X obj 584 101 sel 0 1;
#X obj 584 64 tgl 25 0 empty empty empty 17 7 0 10 #191919 #ffffff #ffffff 0 1;
#X obj 584 39 change;
#X obj 2388 -368 sel 0 1;
#X msg 2390 -337 0;
#X obj 2388 -405 tgl 25 0 empty empty empty 17 7 0 10 #191919 #ffffff #ffffff 0 1;
#X obj 2388 -430 change;
#X obj 2402 -284 s padnote;
#X obj 2388 -260 s padoff;
#X obj 2168 -368 sel 0 1;
#X msg 2170 -337 0;
#X obj 2168 -405 tgl 25 0 empty empty empty 17 7 0 10 #191919 #ffffff #ffffff 0 1;
#X obj 2168 -430 change;
#X obj 2182 -284 s padnote;
#X obj 2168 -260 s padoff;
#X obj 2168 -461 r mpr121_driver_ch6 @hv_param;
#X obj 2388 -461 r mpr121_driver_ch7 @hv_param;
#X msg 2182 -311 39;
#X msg 2402 -311 40;
#X obj 2059 -108 sel 0 1;
#X msg 2061 -77 0;
#X obj 2059 -145 tgl 25 0 empty empty empty 17 7 0 10 #191919 #ffffff #ffffff 0 1;
#X obj 2059 -170 change;
#X obj 2073 -24 s padnote;
#X obj 2059 0 s padoff;
#X obj 1839 -108 sel 0 1;
#X msg 1841 -77 0;
#X obj 1839 -145 tgl 25 0 empty empty empty 17 7 0 10 #191919 #ffffff #ffffff 0 1;
#X obj 1839 -170 change;
#X obj 1853 -24 s padnote;
#X obj 1839 0 s padoff;
#X obj 1839 -201 r mpr121_driver_ch8 @hv_param;
#X msg 1853 -51 41;
#X msg 2073 -51 42;
#X obj 2059 -201 r mpr121_driver_ch9 @hv_param;
#X msg 1219 87 100;
#X obj 1181 8 +;
#X obj 1301 -2 f;
#X obj 1346 -85 r noterange;
#X obj 1301 -52 bng 25 250 50 0 empty empty empty 17 7 0 10 #191919 #ffffff #ffffff;
#X obj 2450 134 s noterange;
#X msg 2333 42 0, f 9;
#X msg 2543 42 14, f 9;
#X obj 2225 -55 loadbang;
#X obj 1125 87 /~ 127;
#X obj 654 1055 hv.compressor~ 60 2;
#X obj 772 214 sel 0;
#X msg 774 239 0;
#X obj 774 331 +~;
#X obj 772 187 moses 0.001;
#X obj 797 460 hsl 128 17 0 1 0 0 empty empty empty -2 -8 0 10 #191919 #ffffff #ffffff 0 1;
#X msg 776 567 \$1 20;
#X obj 776 598 line~;
#X obj 776 722 mtof~;
#X obj 844 535 random 1000;
#X obj 844 598 *~ 0.001;
#X obj 844 567 sig~;
#X obj 774 510 sel 0;
#X msg 776 535 0;
#X obj 776 627 +~;
#X obj 774 483 moses 0.001;
#X obj 776 694 *~ 64;
#X obj 774 439 r knob3 @hv_param;
#X obj 776 666 +~;
#X obj 913 598 sig~;
#X obj 381 138 bng 25 250 50 0 empty empty empty 17 7 0 10 #191919 #ffffff #ffffff;
#X obj 367 101 sel 0 1;
#X obj 367 64 tgl 25 0 empty empty empty 17 7 0 10 #191919 #ffffff #ffffff 0 1;
#X obj 367 39 change;
#X obj 367 8 r mpr121_driver_ch0 @hv_param;
#X obj 584 8 r mpr121_driver_ch2 @hv_param;
#X obj 651 1636 f;
#X text 413 683 sine osc 1;
#X text 732 783 sine osc 2;
#X text 1051 883 sine osc 2;
#X text 799 818 send feedback to FModulate osc1;
#X text 937 142 osc 1 modulates osc 2;
#X obj 504 408 send~ Afreqval;
#X obj 504 589 send~ Bfreqval;
#X obj 833 386 send~ Cfreqval;
#X obj 835 722 send~ Dfreqval;
#X obj 662 1534 r~ Afreqval;
#X obj 881 1534 r~ Cfreqval;
#X obj 770 1534 r~ Bfreqval;
#X obj 987 1534 r~ Dfreqval;
#X obj 662 1588 snapshot~;
#X obj 606 1165 tgl 19 0 empty empty empty 17 7 0 10 #dfdfdf #000000 #000000 0 1;
#X floatatom 637 1495 5 0 0 0 - - - 0;
#X obj 859 1476 bng 19 250 50 0 empty empty empty 17 7 0 10 #dfdfdf #000000 #000000;
#X obj 658 1435 bng 19 250 50 0 empty empty empty 17 7 0 10 #dfdfdf #000000 #000000;
#X obj 603 1406 metro 1 120 permin, f 19;
#X msg 637 1355 tempo \$1 permin;
#X obj 637 1467 timer;
#X obj 660 1221 hsl 128 17 0 1 0 0 empty empty empty -2 -8 0 10 #191919 #ffffff #ffffff 0 1;
#X msg 637 1247 \$1 20;
#X obj 637 1316 * 180;
#X obj 637 1279 line;
#X obj 856 1410 >=;
#X msg 869 1356 4;
#X obj 856 1445 sel 1;
#X msg 909 1356 8;
#X text 802 1199 tempo fader right;
#X text 646 1164 sequencer on / off;
#X msg 950 1356 16;
#X text 908 1409 sequence step lenght;
#X text 2479 -153 touchpads notes range;
#X msg 2469 42 7, f 9;
#X obj 1120 1260 change;
#X obj 1330 1260 change;
#X obj 1256 1217 ==;
#X obj 1256 1260 change;
#X obj 1256 1180 t b f;
#X obj 1161 1217 tgl 25 0 empty empty empty 17 7 0 10 #191919 #ffffff #ffffff 0 1;
#X obj 1012 1199 loadbang;
#X obj 1120 1132 r toggle1left_press @hv_param;
#X obj 1330 1132 r toggle1right_press @hv_param;
#X text 1266 1101 seq step length toggle;
#X obj 334 937 bng 25 250 50 0 empty empty empty 17 7 0 10 #191919 #ffffff #ffffff;
#X obj 339 840 tgl 25 0 empty empty empty 17 7 0 10 #191919 #ffffff #ffffff 0 1;
#X obj 339 815 change;
#X obj 339 784 r mpr121_driver_ch11 @hv_param;
#X obj 334 981 s recbang;
#X obj 687 1560 r recbang;
#X obj 596 1663 bang;
#X obj 761 1636 f;
#X obj 772 1588 snapshot~;
#X obj 797 1560 r recbang;
#X obj 596 1769 bang;
#X obj 872 1636 f;
#X obj 883 1588 snapshot~;
#X obj 908 1560 r recbang;
#X obj 983 1636 f;
#X obj 994 1588 snapshot~;
#X obj 1019 1560 r recbang;
#X obj 644 1738 f;
#X obj 754 1738 f;
#X obj 865 1738 f;
#X obj 976 1738 f;
#X obj 332 1923 pack f f f f;
#X obj 219 1974 print;
#X obj 596 1599 == 1;
#X obj 596 1630 sel 1;
#X obj 596 1736 sel 1;
#X obj 596 1705 == 2;
#X obj 761 1663 s Bfv;
#X obj 872 1663 s Cfv;
#X obj 983 1663 s Dfv;
#X obj 754 1769 s Bfv;
#X obj 865 1769 s Cfv;
#X obj 976 1769 s Dfv;
#X obj 288 1884 r Afv;
#X obj 331 1884 r Bfv;
#X obj 376 1884 r Cfv;
#X obj 418 1884 r Dfv;
#X obj 594 1875 bang;
#X obj 655 1844 f;
#X obj 765 1844 f;
#X obj 876 1844 f;
#X obj 987 1844 f;
#X obj 594 1842 sel 1;
#X obj 765 1875 s Bfv;
#X obj 876 1875 s Cfv;
#X obj 987 1875 s Dfv;
#X obj 594 1811 == 3;
#X obj 594 1980 bang;
#X obj 655 1949 f;
#X obj 765 1949 f;
#X obj 876 1949 f;
#X obj 987 1949 f;
#X obj 594 1947 sel 1;
#X obj 765 1980 s Bfv;
#X obj 876 1980 s Cfv;
#X obj 987 1980 s Dfv;
#X obj 594 1916 == 4;
#X obj 637 1200 r faderright @hv_param;
#X obj 262 576 r Bfv;
#X obj 664 352 r Cfv;
#X obj 688 610 r Dfv;
#X obj 262 399 sig~;
#X obj 262 602 sig~;
#X obj 664 378 sig~;
#X obj 688 636 sig~;
#X obj 339 576 +~;
#X obj 339 610 *~ 0.5;
#X obj 700 434 +~;
#X obj 700 468 *~ 0.5;
#X obj 688 668 +~;
#X obj 688 702 *~ 0.5;
#X obj 334 895 metro 300;
#X obj 1260 87 r seqstepon;
#X obj 1260 155 r seqstepoff;
#X obj 441 1406 s seqstepon;
#X obj 441 1474 s seqstepoff;
#X obj 504 668 bng 88 250 50 0 empty empty empty 17 7 0 10 #191919 #ffffff #ffffff;
#X obj 651 1663 s Afv1;
#X obj 644 1769 s Afv2;
#X obj 655 1875 s Afv3;
#X obj 655 1980 s Afv4;
#X obj 164 299 r Afv1;
#X obj 164 341 r Afv2;
#X obj 164 378 r Afv3;
#X obj 164 415 r Afv4;
#X connect 1 0 6 0;
#X connect 2 0 3 0;
#X connect 3 0 4 0;
#X connect 4 0 7 0;
#X connect 5 0 201 0;
#X connect 6 0 14 0;
#X connect 7 0 5 0;
#X connect 8 0 10 0;
#X connect 9 0 10 0;
#X connect 10 0 11 0;
#X connect 11 0 13 0;
#X connect 12 0 202 0;
#X connect 12 0 306 1;
#X connect 13 0 12 0;
#X connect 14 0 15 0;
#X connect 15 0 20 0;
#X connect 16 0 173 0;
#X connect 17 0 18 0;
#X connect 18 0 172 0;
#X connect 19 0 203 0;
#X connect 19 0 308 1;
#X connect 20 0 22 0;
#X connect 21 0 19 0;
#X connect 22 0 23 0;
#X connect 23 0 24 0;
#X connect 23 0 25 0;
#X connect 25 0 59 0;
#X connect 27 0 28 0;
#X connect 28 0 29 0;
#X connect 29 0 30 1;
#X connect 30 0 169 0;
#X connect 31 0 59 1;
#X connect 32 0 54 0;
#X connect 33 0 32 0;
#X connect 33 1 35 0;
#X connect 34 0 31 0;
#X connect 34 0 31 1;
#X connect 35 0 36 0;
#X connect 36 0 37 0;
#X connect 37 0 34 0;
#X connect 38 0 57 0;
#X connect 39 0 38 0;
#X connect 40 0 43 0;
#X connect 41 0 40 0;
#X connect 42 0 41 0;
#X connect 42 0 44 0;
#X connect 43 0 36 1;
#X connect 44 0 36 1;
#X connect 45 0 46 0;
#X connect 46 0 34 0;
#X connect 47 0 58 0;
#X connect 48 0 47 0;
#X connect 49 0 52 0;
#X connect 50 0 49 0;
#X connect 51 0 50 0;
#X connect 51 0 53 0;
#X connect 52 0 45 1;
#X connect 52 0 64 1;
#X connect 53 0 45 1;
#X connect 54 0 45 0;
#X connect 57 0 40 0;
#X connect 58 0 49 0;
#X connect 59 0 30 0;
#X connect 60 0 39 0;
#X connect 61 0 48 0;
#X connect 62 0 64 0;
#X connect 63 0 33 0;
#X connect 64 0 63 0;
#X connect 65 0 67 0;
#X connect 66 0 172 1;
#X connect 67 0 66 0;
#X connect 68 0 178 0;
#X connect 69 0 3 0;
#X connect 70 0 28 0;
#X connect 71 0 173 0;
#X connect 72 0 39 0;
#X connect 73 0 48 0;
#X connect 74 0 165 0;
#X connect 75 0 166 0;
#X connect 76 0 77 0;
#X connect 77 0 230 0;
#X connect 78 0 76 0;
#X connect 78 1 76 1;
#X connect 79 0 76 0;
#X connect 79 0 74 0;
#X connect 80 0 78 0;
#X connect 80 0 75 0;
#X connect 81 0 74 0;
#X connect 82 0 83 0;
#X connect 82 1 123 0;
#X connect 83 0 103 0;
#X connect 84 0 82 0;
#X connect 85 0 84 0;
#X connect 86 0 87 0;
#X connect 86 1 33 0;
#X connect 87 0 168 0;
#X connect 104 0 163 0;
#X connect 104 0 159 0;
#X connect 104 0 160 0;
#X connect 105 0 62 0;
#X connect 106 0 107 0;
#X connect 106 1 122 0;
#X connect 107 0 111 0;
#X connect 108 0 106 0;
#X connect 109 0 108 0;
#X connect 112 0 116 0;
#X connect 113 0 114 0;
#X connect 113 1 118 0;
#X connect 114 0 119 0;
#X connect 115 0 113 0;
#X connect 116 0 115 0;
#X connect 118 0 117 0;
#X connect 120 0 109 0;
#X connect 121 0 85 0;
#X connect 122 0 110 0;
#X connect 123 0 102 0;
#X connect 124 1 68 0;
#X connect 125 0 124 0;
#X connect 126 0 125 0;
#X connect 127 0 128 0;
#X connect 127 1 142 0;
#X connect 128 0 132 0;
#X connect 129 0 127 0;
#X connect 130 0 129 0;
#X connect 133 0 134 0;
#X connect 133 1 141 0;
#X connect 134 0 138 0;
#X connect 135 0 133 0;
#X connect 136 0 135 0;
#X connect 139 0 136 0;
#X connect 140 0 130 0;
#X connect 141 0 137 0;
#X connect 142 0 131 0;
#X connect 143 0 144 0;
#X connect 143 1 157 0;
#X connect 144 0 148 0;
#X connect 145 0 143 0;
#X connect 146 0 145 0;
#X connect 149 0 150 0;
#X connect 149 1 156 0;
#X connect 150 0 154 0;
#X connect 151 0 149 0;
#X connect 152 0 151 0;
#X connect 155 0 152 0;
#X connect 156 0 153 0;
#X connect 157 0 147 0;
#X connect 158 0 146 0;
#X connect 159 0 33 0;
#X connect 160 0 87 0;
#X connect 161 0 160 1;
#X connect 162 0 161 1;
#X connect 162 0 161 0;
#X connect 163 0 161 0;
#X connect 163 0 160 0;
#X connect 165 0 164 0;
#X connect 166 0 164 0;
#X connect 167 0 165 0;
#X connect 168 0 187 1;
#X connect 169 0 26 0;
#X connect 169 0 26 1;
#X connect 170 0 171 0;
#X connect 171 0 67 0;
#X connect 172 0 21 0;
#X connect 173 0 170 0;
#X connect 173 1 17 0;
#X connect 174 0 184 0;
#X connect 175 0 176 0;
#X connect 176 0 183 0;
#X connect 177 0 204 0;
#X connect 177 0 310 1;
#X connect 178 0 180 0;
#X connect 179 0 183 1;
#X connect 180 0 179 0;
#X connect 181 0 182 0;
#X connect 182 0 180 0;
#X connect 182 0 188 0;
#X connect 183 0 187 0;
#X connect 184 0 181 0;
#X connect 184 1 175 0;
#X connect 185 0 177 0;
#X connect 186 0 184 0;
#X connect 187 0 185 0;
#X connect 188 0 183 0;
#X connect 189 0 65 0;
#X connect 190 1 189 0;
#X connect 191 0 190 0;
#X connect 192 0 191 0;
#X connect 193 0 192 0;
#X connect 194 0 126 0;
#X connect 195 0 318 0;
#X connect 205 0 209 0;
#X connect 206 0 253 0;
#X connect 207 0 249 0;
#X connect 208 0 256 0;
#X connect 209 0 195 1;
#X connect 209 0 258 1;
#X connect 209 0 279 1;
#X connect 209 0 289 1;
#X connect 209 0 195 0;
#X connect 209 0 258 0;
#X connect 209 0 279 0;
#X connect 209 0 289 0;
#X connect 210 0 214 0;
#X connect 211 0 264 0;
#X connect 211 0 267 0;
#X connect 211 0 287 0;
#X connect 211 0 297 0;
#X connect 212 0 216 0;
#X connect 213 0 216 1;
#X connect 213 0 315 0;
#X connect 213 0 316 0;
#X connect 214 0 213 0;
#X connect 215 0 214 0;
#X connect 215 0 216 0;
#X connect 216 0 211 0;
#X connect 216 0 221 0;
#X connect 217 0 218 0;
#X connect 218 0 220 0;
#X connect 219 0 215 0;
#X connect 220 0 219 0;
#X connect 221 0 223 0;
#X connect 222 0 221 1;
#X connect 223 0 212 0;
#X connect 224 0 221 1;
#X connect 227 0 221 1;
#X connect 230 0 164 0;
#X connect 231 0 222 0;
#X connect 232 0 227 0;
#X connect 233 0 234 0;
#X connect 234 0 224 0;
#X connect 235 0 233 0;
#X connect 235 1 233 1;
#X connect 236 0 231 0;
#X connect 237 0 222 0;
#X connect 238 0 233 0;
#X connect 238 0 231 0;
#X connect 239 0 235 0;
#X connect 239 0 232 0;
#X connect 241 0 245 0;
#X connect 242 0 312 0;
#X connect 243 0 242 0;
#X connect 244 0 243 0;
#X connect 246 0 209 0;
#X connect 247 0 195 0;
#X connect 247 0 248 0;
#X connect 247 0 252 0;
#X connect 247 0 255 0;
#X connect 248 0 268 0;
#X connect 249 0 248 1;
#X connect 249 0 259 1;
#X connect 249 0 280 1;
#X connect 249 0 290 1;
#X connect 250 0 249 0;
#X connect 251 0 259 0;
#X connect 251 0 260 0;
#X connect 251 0 261 0;
#X connect 251 0 258 0;
#X connect 252 0 269 0;
#X connect 253 0 252 1;
#X connect 253 0 260 1;
#X connect 253 0 281 1;
#X connect 253 0 291 1;
#X connect 254 0 253 0;
#X connect 255 0 270 0;
#X connect 256 0 255 1;
#X connect 256 0 261 1;
#X connect 256 0 282 1;
#X connect 256 0 292 1;
#X connect 257 0 256 0;
#X connect 258 0 319 0;
#X connect 259 0 271 0;
#X connect 260 0 272 0;
#X connect 261 0 273 0;
#X connect 262 0 263 0;
#X connect 264 0 265 0;
#X connect 265 0 247 0;
#X connect 266 0 251 0;
#X connect 267 0 266 0;
#X connect 274 0 262 0;
#X connect 275 0 262 1;
#X connect 276 0 262 2;
#X connect 277 0 262 3;
#X connect 278 0 280 0;
#X connect 278 0 281 0;
#X connect 278 0 282 0;
#X connect 278 0 279 0;
#X connect 279 0 320 0;
#X connect 280 0 284 0;
#X connect 281 0 285 0;
#X connect 282 0 286 0;
#X connect 283 0 278 0;
#X connect 287 0 283 0;
#X connect 288 0 290 0;
#X connect 288 0 291 0;
#X connect 288 0 292 0;
#X connect 288 0 289 0;
#X connect 289 0 321 0;
#X connect 290 0 294 0;
#X connect 291 0 295 0;
#X connect 292 0 296 0;
#X connect 293 0 288 0;
#X connect 297 0 293 0;
#X connect 298 0 218 0;
#X connect 299 0 303 0;
#X connect 300 0 304 0;
#X connect 301 0 305 0;
#X connect 302 0 6 1;
#X connect 303 0 306 0;
#X connect 304 0 308 0;
#X connect 305 0 310 0;
#X connect 306 0 307 0;
#X connect 307 0 14 1;
#X connect 308 0 309 0;
#X connect 309 0 20 1;
#X connect 310 0 311 0;
#X connect 311 0 22 1;
#X connect 312 0 241 0;
#X connect 313 0 159 0;
#X connect 314 0 62 0;
#X connect 317 0 242 0;
#X connect 322 0 302 0;
#X connect 323 0 302 0;
#X connect 324 0 302 0;
#X connect 325 0 302 0;
