#N canvas 827 239 734 565 12;
#X obj 319 261 r~ feedback;
#X obj 462 299 hsl 128 17 0 1 0 0 empty empty empty -2 -8 0 10 #191919 #ffffff #ffffff 0 1;
#X msg 439 325 \$1 20;
#X obj 439 352 line~;
#X obj 439 408 mtof~;
#X obj 319 439 *~;
#X obj 439 380 *~ 127;
#X obj 462 480 hsl 128 17 0 1 0 0 empty empty empty -2 -8 0 10 #191919 #ffffff #ffffff 0 1;
#X obj 439 459 r knob1 @hv_param;
#X msg 439 506 \$1 20;
#X obj 439 533 line~;
#X obj 439 589 mtof~;
#X obj 439 561 *~ 127;
#X obj 319 643 +~;
#X obj 319 684 osc~ 200;
#X obj 797 299 hsl 128 17 0 1 0 0 empty empty empty -2 -8 0 10 #191919 #ffffff #ffffff 0 1;
#X msg 774 325 \$1 20;
#X obj 774 352 line~;
#X obj 774 408 mtof~;
#X obj 654 439 *~;
#X obj 774 380 *~ 127;
#X obj 797 480 hsl 128 17 0 1 0 0 empty empty empty -2 -8 0 10 #191919 #ffffff #ffffff 0 1;
#X msg 774 506 \$1 20;
#X obj 774 533 line~;
#X obj 774 589 mtof~;
#X obj 774 561 *~ 127;
#X obj 654 643 +~;
#X obj 654 684 osc~ 200;
#X obj 679 719 send~ feedback;
#X obj 654 806 *~ 0.5;
#X obj 654 945 dac~;
#X obj 802 780 hsl 128 17 0 1 0 0 empty empty empty -2 -8 0 10 #191919 #ffffff #ffffff 0 1;
#X msg 779 806 \$1 20;
#X obj 779 833 line~;
#X obj 654 909 *~;
#X obj 654 767 hv.tanh~;
#X obj 1089 864 *~;
#X obj 1301 420 sel 0;
#X obj 1175 380 moses 0.01;
#X obj 1089 832 line~;
#X obj 1089 449 / 127;
#X obj 1089 762 pack;
#X msg 1089 791 \$1 \$2;
#X obj 1133 581 line~;
#X msg 1133 556 \$1 10;
#X obj 1133 654 snapshot~;
#X obj 1201 630 metro 10;
#X obj 1213 595 loadbang, f 9;
#X obj 1133 689 change;
#X msg 1203 689 5;
#X obj 1299 762 pack;
#X msg 1299 791 \$1 \$2;
#X obj 1337 581 line~;
#X msg 1337 556 \$1 10;
#X obj 1337 654 snapshot~;
#X obj 1405 630 metro 10;
#X obj 1417 595 loadbang, f 9;
#X obj 1337 689 change;
#X msg 1407 689 5;
#X msg 1301 449 0;
#X text 1136 481 attack;
#X text 1337 481 decay;
#X obj 1133 611 *~ 100;
#X obj 1337 611 *~ 200;
#X obj 654 850 *~;
#X obj 1162 533 hsl 128 17 0 1 0 0 empty empty empty -2 -8 0 10 #191919 #ffffff #ffffff 0 1;
#X obj 1364 533 hsl 128 17 0 1 0 0 empty empty empty -2 -8 0 10 #191919 #ffffff #ffffff 0 1;
#X obj 1139 196 bng 25 250 50 0 empty empty empty 17 7 0 10 #191919 #ffffff #ffffff;
#X msg 1201 337 0;
#X msg 1139 291 200;
#X obj 1199 291 del;
#X obj 855 343 random 1000;
#X obj 855 408 *~ 0.001;
#X obj 855 377 sig~;
#X obj 855 509 random 1000;
#X obj 855 574 *~ 0.001;
#X obj 855 543 sig~;
#X obj 1039 196 bng 25 250 50 0 empty empty empty 17 7 0 10 #191919 #ffffff #ffffff;
#X obj 439 278 r knob0 @hv_param;
#X obj 779 759 r faderleft @hv_param;
#X obj 774 278 r knob2 @hv_param;
#X obj 774 459 r knob3 @hv_param;
#X obj 1133 509 r knob4 @hv_param;
#X obj 1337 509 r knob5 @hv_param;
#X msg 1719 563 \$1 20, f 9;
#X msg 1929 563 \$1 20, f 9;
#X obj 1719 527 change;
#X obj 1929 527 change;
#X obj 1855 484 ==;
#X obj 1855 527 change;
#X obj 1855 447 t b f;
#X msg 1855 563 \$1 20, f 9;
#X obj 1719 606 line~;
#X obj 1855 606 line~;
#X obj 1929 606 line~;
#X obj 1855 727 s~ rightswitch;
#X obj 1719 399 r toggle2down_press @hv_param;
#X obj 1929 399 r toggle2up_press @hv_param;
#X text 1865 368 touchpads gain multiplier;
#X obj 1760 484 tgl 25 0 empty empty empty 17 7 0 10 #191919 #ffffff #ffffff 0 1;
#X obj 1855 652 *~ 0.4;
#X obj 1929 652 *~ 0.8;
#X obj 1719 652 *~ 0.02;
#X obj 1477 -511 cnv 15 1278 698 empty empty TOUCHPADS\ gain 20 12 0 14 #626262 #ffffff 0;
#X obj 1496 -477 r mpr121_driver_ch3 @hv_param;
#X obj 1718 -477 r mpr121_driver_ch4 @hv_param;
#X obj 1945 -477 r mpr121_driver_ch5 @hv_param;
#X obj 1496 -154 r mpr121_driver_ch6 @hv_param;
#X obj 1718 -154 r mpr121_driver_ch7 @hv_param;
#X obj 2178 -477 r mpr121_driver_ch8 @hv_param;
#X obj 1945 -154 r mpr121_driver_ch9 @hv_param;
#X obj 1496 -384 sel 0 1;
#X msg 1498 -353 0;
#X obj 1496 -421 tgl 25 0 empty empty empty 17 7 0 10 #191919 #ffffff #ffffff 0 1;
#X obj 1496 -446 change;
#X msg 1525 -353 0.2;
#X obj 1567 -353 r padstiming;
#X obj 1496 -324 pack f f;
#X obj 1718 -384 sel 0 1;
#X msg 1720 -353 0;
#X obj 1718 -421 tgl 25 0 empty empty empty 17 7 0 10 #191919 #ffffff #ffffff 0 1;
#X obj 1718 -446 change;
#X obj 1789 -353 r padstiming;
#X obj 1718 -324 pack f f;
#X obj 1945 -384 sel 0 1;
#X msg 1947 -353 0;
#X obj 1945 -421 tgl 25 0 empty empty empty 17 7 0 10 #191919 #ffffff #ffffff 0 1;
#X obj 1945 -446 change;
#X obj 2016 -353 r padstiming;
#X obj 1945 -324 pack f f;
#X obj 1496 -61 sel 0 1;
#X msg 1498 -30 0;
#X obj 1496 -98 tgl 25 0 empty empty empty 17 7 0 10 #191919 #ffffff #ffffff 0 1;
#X obj 1496 -123 change;
#X obj 1567 -30 r padstiming;
#X obj 1496 -1 pack f f;
#X obj 1718 -61 sel 0 1;
#X msg 1720 -30 0;
#X obj 1718 -98 tgl 25 0 empty empty empty 17 7 0 10 #191919 #ffffff #ffffff 0 1;
#X obj 1718 -123 change;
#X obj 1787 -30 r padstiming;
#X obj 1718 -1 pack f f;
#X obj 2178 -384 sel 0 1;
#X msg 2180 -353 0;
#X obj 2178 -420 tgl 25 0 empty empty empty 17 7 0 10 #191919 #ffffff #ffffff 0 1;
#X obj 2178 -445 change;
#X obj 2249 -353 r padstiming;
#X obj 2178 -324 pack f f;
#X obj 1945 -60 sel 0 1;
#X msg 1947 -29 0;
#X obj 1945 -97 tgl 25 0 empty empty empty 17 7 0 10 #191919 #ffffff #ffffff 0 1;
#X obj 1945 -122 change;
#X obj 2016 -29 r padstiming;
#X obj 1945 0 pack f f;
#X msg 1974 -29 0.8;
#X obj 1496 -242 s~ mix;
#X obj 1718 -242 s~ mix;
#X obj 1945 -242 s~ mix;
#X obj 2178 -242 s~ mix;
#X obj 2178 -269 line~;
#X obj 1945 55 line~;
#X obj 1718 -269 line~;
#X obj 1496 -269 line~;
#X obj 1945 -269 line~;
#X obj 1496 54 line~;
#X obj 1718 54 line~;
#X msg 1496 -296 \$1 \$2, f 9;
#X msg 1718 -296 \$1 \$2, f 9;
#X msg 1945 -296 \$1 \$2, f 9;
#X msg 1496 27 \$1 \$2, f 9;
#X msg 1718 27 \$1 \$2, f 9;
#X msg 1945 28 \$1 \$2, f 9;
#X msg 2178 -296 \$1 \$2, f 9;
#X msg 1747 -353 0.35;
#X msg 1974 -353 0.65;
#X msg 2207 -353 0.85;
#X msg 1525 -30 0.15;
#X msg 1747 -30 0.25;
#X obj 1496 81 s~ gainpads;
#X obj 1718 81 s~ gainpads;
#X obj 1945 82 s~ gainpads;
#X connect 0 0 5 0;
#X connect 1 0 2 0;
#X connect 2 0 3 0;
#X connect 3 0 6 0;
#X connect 4 0 5 1;
#X connect 5 0 13 0;
#X connect 6 0 4 0;
#X connect 7 0 9 0;
#X connect 8 0 9 0;
#X connect 9 0 10 0;
#X connect 10 0 12 0;
#X connect 11 0 13 1;
#X connect 12 0 11 0;
#X connect 13 0 14 0;
#X connect 14 0 19 0;
#X connect 15 0 16 0;
#X connect 16 0 17 0;
#X connect 17 0 20 0;
#X connect 18 0 19 1;
#X connect 19 0 26 0;
#X connect 20 0 18 0;
#X connect 21 0 22 0;
#X connect 22 0 23 0;
#X connect 23 0 25 0;
#X connect 24 0 26 1;
#X connect 25 0 24 0;
#X connect 26 0 27 0;
#X connect 27 0 28 0;
#X connect 27 0 35 0;
#X connect 29 0 64 0;
#X connect 31 0 32 0;
#X connect 32 0 33 0;
#X connect 33 0 34 1;
#X connect 34 0 30 1;
#X connect 34 0 30 0;
#X connect 35 0 29 0;
#X connect 36 0 64 1;
#X connect 37 0 59 0;
#X connect 38 0 37 0;
#X connect 38 1 40 0;
#X connect 39 0 36 0;
#X connect 39 0 36 1;
#X connect 40 0 41 0;
#X connect 41 0 42 0;
#X connect 42 0 39 0;
#X connect 43 0 62 0;
#X connect 44 0 43 0;
#X connect 45 0 48 0;
#X connect 46 0 45 0;
#X connect 47 0 46 0;
#X connect 47 0 49 0;
#X connect 48 0 41 1;
#X connect 49 0 41 1;
#X connect 50 0 51 0;
#X connect 51 0 39 0;
#X connect 52 0 63 0;
#X connect 53 0 52 0;
#X connect 54 0 57 0;
#X connect 55 0 54 0;
#X connect 56 0 55 0;
#X connect 56 0 58 0;
#X connect 57 0 50 1;
#X connect 57 0 70 1;
#X connect 58 0 50 1;
#X connect 59 0 50 0;
#X connect 62 0 45 0;
#X connect 63 0 54 0;
#X connect 64 0 34 0;
#X connect 65 0 44 0;
#X connect 66 0 53 0;
#X connect 67 0 70 0;
#X connect 67 0 69 0;
#X connect 68 0 38 0;
#X connect 69 0 38 0;
#X connect 70 0 68 0;
#X connect 71 0 73 0;
#X connect 72 0 20 0;
#X connect 73 0 72 0;
#X connect 74 0 76 0;
#X connect 75 0 25 0;
#X connect 76 0 75 0;
#X connect 77 0 71 0;
#X connect 77 0 74 0;
#X connect 78 0 2 0;
#X connect 79 0 32 0;
#X connect 80 0 16 0;
#X connect 81 0 22 0;
#X connect 82 0 44 0;
#X connect 83 0 53 0;
#X connect 84 0 92 0;
#X connect 85 0 94 0;
#X connect 86 0 84 0;
#X connect 87 0 85 0;
#X connect 88 0 89 0;
#X connect 89 0 91 0;
#X connect 90 0 88 0;
#X connect 90 1 88 1;
#X connect 91 0 93 0;
#X connect 92 0 102 0;
#X connect 93 0 100 0;
#X connect 94 0 101 0;
#X connect 96 0 88 0;
#X connect 96 0 86 0;
#X connect 97 0 90 0;
#X connect 97 0 87 0;
#X connect 99 0 86 0;
#X connect 100 0 95 0;
#X connect 101 0 95 0;
#X connect 102 0 95 0;
#X connect 104 0 114 0;
#X connect 105 0 121 0;
#X connect 106 0 127 0;
#X connect 107 0 133 0;
#X connect 108 0 139 0;
#X connect 109 0 145 0;
#X connect 110 0 151 0;
#X connect 111 0 112 0;
#X connect 111 1 115 0;
#X connect 111 1 67 0;
#X connect 112 0 117 0;
#X connect 113 0 111 0;
#X connect 114 0 113 0;
#X connect 115 0 117 0;
#X connect 116 0 117 1;
#X connect 117 0 166 0;
#X connect 118 0 119 0;
#X connect 118 1 173 0;
#X connect 119 0 123 0;
#X connect 120 0 118 0;
#X connect 120 0 77 0;
#X connect 121 0 120 0;
#X connect 122 0 123 1;
#X connect 123 0 167 0;
#X connect 124 0 125 0;
#X connect 124 1 174 0;
#X connect 125 0 129 0;
#X connect 126 0 124 0;
#X connect 127 0 126 0;
#X connect 128 0 129 1;
#X connect 129 0 168 0;
#X connect 130 0 131 0;
#X connect 130 1 176 0;
#X connect 131 0 135 0;
#X connect 132 0 130 0;
#X connect 133 0 132 0;
#X connect 134 0 135 1;
#X connect 135 0 169 0;
#X connect 136 0 137 0;
#X connect 136 1 177 0;
#X connect 137 0 141 0;
#X connect 138 0 136 0;
#X connect 139 0 138 0;
#X connect 140 0 141 1;
#X connect 141 0 170 0;
#X connect 142 0 143 0;
#X connect 142 1 175 0;
#X connect 143 0 147 0;
#X connect 144 0 142 0;
#X connect 145 0 144 0;
#X connect 146 0 147 1;
#X connect 147 0 172 0;
#X connect 148 0 149 0;
#X connect 148 1 154 0;
#X connect 149 0 153 0;
#X connect 150 0 148 0;
#X connect 151 0 150 0;
#X connect 152 0 153 1;
#X connect 153 0 171 0;
#X connect 154 0 153 0;
#X connect 159 0 158 0;
#X connect 160 0 180 0;
#X connect 161 0 156 0;
#X connect 162 0 155 0;
#X connect 163 0 157 0;
#X connect 164 0 178 0;
#X connect 165 0 179 0;
#X connect 166 0 162 0;
#X connect 167 0 161 0;
#X connect 168 0 163 0;
#X connect 169 0 164 0;
#X connect 170 0 165 0;
#X connect 171 0 160 0;
#X connect 172 0 159 0;
#X connect 173 0 123 0;
#X connect 174 0 129 0;
#X connect 175 0 147 0;
#X connect 176 0 135 0;
#X connect 177 0 141 0;
