#N canvas 827 239 734 565 12;
#X obj 449 624 s gate_out @hv_param;
#X msg 528 385 \$1 10;
#X obj 531 354 hsl 128 17 0 1 0 0 empty empty empty -2 -8 0 10 #191919 #ffffff #ffffff 0 1;
#X obj 449 470 metro;
#X obj 449 406 loadbang;
#X obj 528 315 r knob0 @hv_param;
#X obj 382 462 bng 25 250 50 0 empty empty empty 17 7 0 10 #191919 #e1e1e1 #e1e1e1;
#X obj 748 470 bng 25 250 50 0 empty empty empty 17 7 0 10 #191919 #e1e1e1 #e1e1e1;
#X obj 848 530 hv.lfo pulse;
#X obj 528 416 line;
#X obj 528 445 * 1000;
#X obj 528 470 / 48;
#X msg 452 557 1;
#X msg 482 557 0;
#X obj 745 624 s gate_out @hv_param;
#X msg 777 560 0;
#X msg 748 560 1;
#X obj 775 530 del 10;
#X obj 482 518 del 10;
#X obj 880 347 + 1;
#X obj 823 347 i;
#X obj 823 407 % 2;
#X obj 823 459 sel 1;
#X connect 1 0 9 0;
#X connect 2 0 1 0;
#X connect 3 0 12 0;
#X connect 3 0 18 0;
#X connect 4 0 3 0;
#X connect 5 0 1 0;
#X connect 6 0 3 0;
#X connect 9 0 10 0;
#X connect 10 0 11 0;
#X connect 11 0 3 1;
#X connect 12 0 0 0;
#X connect 13 0 0 0;
#X connect 15 0 14 0;
#X connect 16 0 14 0;
#X connect 17 0 15 0;
#X connect 18 0 13 0;
#X connect 19 0 20 1;
#X connect 20 0 19 0;
#X connect 20 0 21 0;
#X connect 21 0 22 0;
