#N canvas 827 239 527 327 12;
#X obj 1362 807 cnv 15 518 648 empty empty Volume\ out 20 12 0 14 #626262 #ffffff 0;
#X obj 634 -318 cnv 15 894 222 empty empty knobs 20 12 0 14 #626262 #ffffff 0;
#X obj 1375 1392 dac~;
#X obj 986 -168 line~;
#X msg 986 -200 \$1 10;
#X obj 652 -261 hsl 128 17 0 1 0 0 empty empty empty -2 -8 0 10 #191919 #e1e1e1 #e1e1e1 0 1;
#X obj 649 -168 line~;
#X msg 649 -200 \$1 10;
#X obj 811 -261 hsl 128 17 0 1 0 0 empty empty empty -2 -8 0 10 #191919 #e1e1e1 #e1e1e1 0 1;
#X obj 808 -168 line~;
#X msg 808 -200 \$1 10;
#X obj 1145 -267 hsl 128 17 0 1 0 0 empty empty empty -2 -8 0 10 #191919 #e1e1e1 #e1e1e1 0 1;
#X obj 1142 -168 line~;
#X msg 1142 -200 \$1 10;
#X obj 1305 -262 hsl 128 17 0 1 0 0 empty empty empty -2 -8 0 10 #191919 #e1e1e1 #e1e1e1 0 1;
#X obj 1302 -202 line~;
#X msg 1302 -227 \$1 10;
#X obj 1739 881 hsl 128 17 0 1 0 0 empty empty empty -2 -8 0 10 #191919 #e1e1e1 #e1e1e1 0 1;
#X obj 1830 952 line~;
#X msg 1719 914 \$1 10;
#X obj 1719 1006 *~;
#X obj 1653 952 line~;
#X obj 1541 1006 *~;
#X obj 1403 881 hsl 128 17 0 1 0 0 empty empty empty -2 -8 0 10 #191919 #e1e1e1 #e1e1e1 0 1;
#X obj 1480 952 line~;
#X msg 1378 914 \$1 10;
#X obj 1378 1006 *~;
#X obj 649 -228 * 440;
#X obj 649 -291 r knob0 @hv_param;
#X obj 808 -291 r knob1 @hv_param;
#X obj 989 -267 hsl 128 17 0 1 0 0 empty empty empty -2 -8 0 10 #191919 #e1e1e1 #e1e1e1 0 1;
#X obj 986 -291 r knob2 @hv_param;
#X obj 1147 -291 r knob3 @hv_param;
#X obj 1302 -291 r knob4 @hv_param;
#X obj 1380 1092 clip~ -0.95 0.95;
#X obj 1719 1092 clip~ -0.95 0.95;
#X obj 1380 1039 *~ 0.5;
#X obj 1541 1039 *~ 0.5;
#X obj 1380 1067 +~;
#X obj 1380 1142 +~;
#X obj 1455 1168 hsl 128 17 0 1 0 0 empty empty empty -2 -8 0 10 #191919 #e1e1e1 #e1e1e1 0 1;
#X obj 1452 1223 line~;
#X msg 1452 1195 \$1 10;
#X obj 1452 1141 r knob5 @hv_param;
#X obj 454 812 cnv 15 429 464 empty empty NOTE\ FREQUENCIES\ -\ F-MINOR 20 12 0 14 #626262 #ffffff 0;
#X msg 464 1036 \$1 20, f 9;
#X msg 674 1037 \$1 20, f 9;
#X obj 464 1001 change;
#X obj 674 1001 change;
#X obj 600 958 ==;
#X obj 600 1001 change;
#X obj 600 921 t b f;
#X msg 600 1037 \$1 20, f 9;
#X obj 464 1072 line~;
#X obj 600 1072 line~;
#X obj 674 1072 line~;
#X obj 600 1112 *~ 2;
#X obj 464 873 r toggle2down_press @hv_param;
#X obj 674 873 r toggle2up_press @hv_param;
#X text 476 839 Octave switcher by division:, f 37;
#X obj 692 1121 random 1000;
#X obj 692 1150 * 0.001;
#X obj 791 1103 bng 25 250 50 0 empty empty empty 17 7 0 10 #191919 #ffffff #ffffff;
#X obj 750 1150 random 2;
#X obj 692 1176 +;
#X obj 512 1138 *~;
#X obj 1375 1350 clip~ -0.5 0.5;
#X obj 1375 1308 hv.lop~;
#X obj 1375 1275 hv.lop~;
#X obj 634 -72 cnv 15 897 866 empty empty TOUCHPADS\ NOTES 20 12 0 14 #626262 #ffffff 0;
#X obj 650 307 r mpr121_driver_ch3 @hv_param;
#X obj 865 307 r mpr121_driver_ch4 @hv_param;
#X obj 1089 307 r mpr121_driver_ch5 @hv_param;
#X obj 1306 307 r mpr121_driver_ch6 @hv_param;
#X obj 650 552 r mpr121_driver_ch7 @hv_param;
#X obj 867 552 r mpr121_driver_ch8 @hv_param;
#X obj 1091 552 r mpr121_driver_ch9 @hv_param;
#X obj 661 -10 notein;
#X text 661 -45 midi input, f 19;
#X obj 661 167 route 1 2 3 4 5 6 7 8;
#X text 737 -11 touchpad notes input, f 19;
#X obj 661 33 pack f f;
#X obj 1049 -234 loadbang;
#X msg 1014 -234 0.5;
#X obj 649 -132 s~ pitcher;
#X obj 808 -132 s~ carry;
#X obj 986 -132 s~ indy;
#X obj 1142 -132 s~ modspeed;
#X obj 1302 -132 s~ modamount;
#X obj 1378 952 catch~ \$0-osc1;
#X obj 1541 952 catch~ \$0-osc2;
#X obj 1719 952 catch~ \$0-osc3;
#X obj 737 33 r touchnote;
#X obj 570 1236 s~ pitchmult;
#X obj 1452 1250 *~ 3000;
#X obj 1302 178 line~;
#X obj 1302 64 change;
#X obj 1302 92 sel 1;
#X obj 1302 119 tgl 25 0 empty empty empty 17 7 0 10 #191919 #e1e1e1 #e1e1e1 0 1;
#X obj 1302 33 r mpr121_driver_ch1 @hv_param;
#X obj 1302 217 s~ drift;
#X text 1302 -1 pitchdrift on/off;
#X obj 901 811 cnv 15 447 542 empty empty osc\ carrier\ modulator\ halving 20 12 0 14 #626262 #ffffff 0;
#X msg 931 1036 \$1 20, f 9;
#X msg 1141 1037 \$1 20, f 9;
#X obj 931 1001 change;
#X obj 1141 1001 change;
#X obj 1067 958 ==;
#X obj 1067 1001 change;
#X obj 1067 921 t b f;
#X msg 1067 1037 \$1 20, f 9;
#X obj 931 1072 line~;
#X obj 1067 1072 line~;
#X obj 1141 1072 line~;
#X obj 1159 1121 random 1000;
#X obj 1159 1150 * 0.001;
#X obj 1258 1103 bng 25 250 50 0 empty empty empty 17 7 0 10 #191919 #ffffff #ffffff;
#X obj 1217 1150 random 2;
#X obj 1159 1176 +;
#X obj 979 1138 *~;
#X text 943 839 switcher by division:, f 37;
#X obj 1067 1112 *~ 0.5;
#X obj 910 1175 hv.osc~ saw;
#X obj 943 1236 hv.osc~ sine;
#X obj 910 1283 *~;
#X obj 943 1205 *~ 1.33;
#X obj 931 873 r toggle1left_press @hv_param;
#X obj 1141 873 r toggle1right_press @hv_param;
#X msg 1302 152 \$1 1500;
#X obj 1067 1326 s~ carmult;
#X obj 865 376 change;
#X obj 865 400 sel 0 1;
#X obj 865 524 s touchnote;
#X msg 922 458 99;
#X msg 900 458 0;
#X msg 865 458 55;
#X obj 1544 -72 cnv 15 394 584 empty empty latching\ double\ function\ faders 20 12 0 14 #626262 #ffffff 0;
#X obj 1721 87 i;
#X obj 1768 87 + 1;
#X obj 1721 119 % 2;
#X obj 1561 -39 r faderleft @hv_param;
#X obj 1562 155 latch 0, f 9;
#X obj 1642 155 latch 1, f 8;
#X obj 1562 187 s faderleftlatch0;
#X obj 1721 -10 change;
#X obj 1721 18 sel 1;
#X obj 1721 45 tgl 25 0 empty empty empty 17 7 0 10 #191919 #e1e1e1 #e1e1e1 0 1;
#X obj 1725 364 i;
#X obj 1772 364 + 1;
#X obj 1725 396 % 2;
#X obj 1725 267 change;
#X obj 1725 295 sel 1;
#X obj 1725 322 tgl 25 0 empty empty empty 17 7 0 10 #191919 #e1e1e1 #e1e1e1 0 1;
#X obj 1565 238 r faderright @hv_param;
#X obj 1566 470 s faderrightlatch0;
#X obj 1687 470 s faderrightlatch1;
#X obj 1566 432 latch 0, f 9;
#X obj 1646 432 latch 1, f 8;
#X obj 1680 187 s faderleftlatch1;
#X obj 1810 -10 loadbang;
#X obj 1813 267 loadbang;
#X obj 1378 841 r faderleftlatch0;
#X obj 1719 841 r faderrightlatch0;
#X obj 1721 -41 r mpr121_driver_ch0 @hv_param;
#X obj 1725 236 r mpr121_driver_ch2 @hv_param;
#N canvas 733 172 450 300 notsosimplesynth 0;
#X obj 370 233 +~;
#X obj 370 131 phasor~ 400;
#X obj 474 131 osc~ 50;
#X obj 474 204 *~;
#X obj 59 99 loadbang;
#X msg 59 131 0.5;
#X text 379 95 carrier;
#X text 466 95 modulator;
#X obj 370 266 cos~;
#X obj 220 395 *~;
#X obj 370 41 *~;
#X obj 59 570 hv.osc~ sine;
#X obj 59 486 +~;
#X obj 59 619 *~ 0.5;
#X obj 219 619 *~ 0.5;
#X obj 379 -11 *~ 5;
#X obj 409 350 osc~ 50;
#X obj 478 387 *~;
#X obj 69 404 *~ 3;
#X obj 59 525 *~ 2.02;
#X obj 639 24 hv.osc~ sine;
#X obj 639 -5 *~ 5;
#X obj 639 48 *~ -1;
#X obj 639 78 +~ 1;
#X obj 639 111 *~ 0.5;
#X obj 557 204 +~;
#X obj 634 197 *~;
#X obj 409 525 +~;
#X obj 219 570 hv.osc~ sine;
#X obj 409 570 hv.osc~ sine;
#X obj 409 321 *~ 0.5;
#X obj 478 423 *~ -1;
#X obj 478 453 +~ 1;
#X obj 478 486 *~ 0.5;
#X obj 409 647 clip~ -0.95 0.95;
#X obj 219 647 clip~ -0.95 0.95;
#X obj 59 651 clip~ -0.95 0.95;
#X obj 409 486 *~ 0.24;
#X obj 379 -41 r~ carry;
#X obj 557 -41 r~ indy;
#X obj 639 -39 r~ modspeed;
#X obj 744 -39 r~ modamount;
#X obj 17 -82 sig~;
#X obj 17 -14 *~;
#X obj 59 699 *~;
#X obj 219 699 *~;
#X obj 409 699 *~;
#X obj 59 746 throw~ \$0-osc1;
#X obj 219 746 throw~ \$0-osc2;
#X obj 409 746 throw~ \$0-osc3;
#X obj 28 -41 r~ pitchmult;
#X obj 220 71 +~;
#X obj -61 -41 r~ drift;
#X obj -61 235 *~;
#X obj -41 172 *~ -1;
#X obj -41 199 +~ 1;
#X obj -33 99 /~ 2.2;
#X obj 268 -41 r~ pitcher;
#X obj 34 48 +~;
#X obj 462 -41 r~ carmult;
#X obj 409 188 *~;
#X obj 517 321 *~;
#X obj 639 150 *~;
#X obj 17 -146 mtof;
#X obj 63 -277 sel 0;
#X obj 63 -310 moses 0.01;
#X obj 116 -146 line~;
#X obj 116 -277 / 127;
#X obj 116 -218 pack;
#X msg 116 -185 \$1 \$2;
#X obj 184 -220 pack;
#X msg 184 -187 \$1 \$2;
#X msg 65 -244 0;
#X obj 131 -244 r attack;
#X obj 199 -246 r decay;
#X obj 17 -375 inlet;
#X obj 17 -341 unpack f f;
#X obj 178 -82 *~ 1;
#X connect 0 0 8 0;
#X connect 1 0 60 0;
#X connect 2 0 3 0;
#X connect 3 0 0 1;
#X connect 4 0 5 0;
#X connect 5 0 16 1;
#X connect 5 0 29 1;
#X connect 5 0 28 1;
#X connect 5 0 11 1;
#X connect 8 0 18 0;
#X connect 8 0 9 1;
#X connect 9 0 37 0;
#X connect 9 0 28 0;
#X connect 9 0 12 0;
#X connect 10 0 1 0;
#X connect 11 0 13 0;
#X connect 12 0 19 0;
#X connect 13 0 36 0;
#X connect 14 0 35 0;
#X connect 15 0 10 1;
#X connect 16 0 17 0;
#X connect 17 0 31 0;
#X connect 18 0 12 1;
#X connect 19 0 11 0;
#X connect 20 0 22 0;
#X connect 21 0 20 0;
#X connect 22 0 23 0;
#X connect 23 0 24 0;
#X connect 24 0 62 0;
#X connect 25 0 3 1;
#X connect 25 0 61 0;
#X connect 26 0 25 1;
#X connect 27 0 29 0;
#X connect 28 0 14 0;
#X connect 29 0 34 0;
#X connect 30 0 16 0;
#X connect 31 0 32 0;
#X connect 32 0 33 0;
#X connect 33 0 27 1;
#X connect 34 0 46 0;
#X connect 35 0 45 0;
#X connect 36 0 44 0;
#X connect 37 0 27 0;
#X connect 38 0 15 0;
#X connect 39 0 25 0;
#X connect 40 0 21 0;
#X connect 41 0 26 1;
#X connect 42 0 43 0;
#X connect 43 0 56 0;
#X connect 43 0 58 0;
#X connect 44 0 47 0;
#X connect 45 0 48 0;
#X connect 46 0 49 0;
#X connect 50 0 43 1;
#X connect 51 0 9 0;
#X connect 51 0 30 0;
#X connect 51 0 2 0;
#X connect 51 0 10 0;
#X connect 52 0 53 0;
#X connect 53 0 51 1;
#X connect 54 0 55 0;
#X connect 55 0 53 1;
#X connect 56 0 54 0;
#X connect 57 0 58 1;
#X connect 58 0 51 0;
#X connect 59 0 60 1;
#X connect 59 0 61 1;
#X connect 59 0 62 1;
#X connect 60 0 0 0;
#X connect 61 0 17 1;
#X connect 62 0 26 0;
#X connect 63 0 42 0;
#X connect 64 0 72 0;
#X connect 65 0 64 0;
#X connect 65 1 67 0;
#X connect 66 0 77 0;
#X connect 67 0 68 0;
#X connect 68 0 69 0;
#X connect 69 0 66 0;
#X connect 70 0 71 0;
#X connect 71 0 66 0;
#X connect 72 0 70 0;
#X connect 73 0 68 1;
#X connect 74 0 70 1;
#X connect 75 0 76 0;
#X connect 76 0 63 0;
#X connect 76 1 65 0;
#X connect 77 0 44 1;
#X connect 77 0 45 1;
#X connect 77 0 46 1;
#X restore 661 194 pd notsosimplesynth;
#X msg 1813 18 1;
#X msg 1816 295 1;
#X obj 661 66 unpack f f;
#X obj 661 127 pack f f f;
#X obj 970 19 r faderleftlatch1;
#X obj 1142 19 r faderrightlatch1;
#X obj 1584 841 loadbang;
#X msg 1584 873 0.5;
#X obj 865 487 pack f f;
#X obj 650 407 sel 0 1;
#X obj 650 524 s touchnote;
#X msg 707 465 99;
#X msg 685 465 0;
#X obj 650 494 pack f f;
#X msg 650 465 53;
#X obj 650 378 change;
#X obj 1089 378 change;
#X obj 1089 402 sel 0 1;
#X obj 1089 519 s touchnote;
#X msg 1146 460 99;
#X msg 1124 460 0;
#X obj 1089 489 pack f f;
#X msg 1089 460 56;
#X obj 1306 378 change;
#X obj 1306 402 sel 0 1;
#X obj 1306 519 s touchnote;
#X msg 1363 460 99;
#X msg 1341 460 0;
#X obj 1306 489 pack f f;
#X msg 1306 460 58;
#X obj 650 647 sel 0 1;
#X obj 650 764 s touchnote;
#X msg 707 705 99;
#X msg 685 705 0;
#X obj 650 734 pack f f;
#X obj 650 618 change;
#X msg 650 705 60;
#X obj 867 647 sel 0 1;
#X obj 867 764 s touchnote;
#X msg 924 705 99;
#X msg 902 705 0;
#X obj 867 734 pack f f;
#X obj 867 618 change;
#X msg 867 705 61;
#X obj 1091 647 sel 0 1;
#X obj 1091 764 s touchnote;
#X msg 1148 705 99;
#X msg 1126 705 0;
#X obj 1091 734 pack f f;
#X obj 1091 618 change;
#X msg 1091 705 63;
#X obj 970 77 line~;
#X msg 970 52 \$1 10;
#X obj 970 107 *~ 3000;
#X obj 970 150 snapshot~;
#X obj 970 185 change;
#X msg 1040 185 5;
#X obj 1142 77 line~;
#X msg 1142 52 \$1 10;
#X obj 1142 107 *~ 3000;
#X obj 1142 150 snapshot~;
#X obj 1060 88 metro 10;
#X obj 1060 60 loadbang, f 9;
#X obj 1142 185 change;
#X text 975 -4 attack;
#X text 1142 -4 decay;
#X msg 1212 185 200;
#X obj 970 244 s attack;
#X obj 1142 244 s decay;
#X obj 1604 1221 adc~ 1;
#X obj 865 338 tgl 25 0 empty empty empty 17 7 0 10 #191919 #ffffff #ffffff 0 1;
#X obj 703 434 t b b;
#X obj 650 434 t b b;
#X obj 865 427 t b b;
#X obj 918 427 t b b;
#X obj 650 338 tgl 25 0 empty empty empty 17 7 0 10 #191919 #ffffff #ffffff 0 1;
#X obj 1089 338 tgl 25 0 empty empty empty 17 7 0 10 #191919 #ffffff #ffffff 0 1;
#X obj 1089 427 t b b;
#X obj 1142 427 t b b;
#X obj 1306 427 t b b;
#X obj 1359 427 t b b;
#X obj 703 675 t b b;
#X obj 650 675 t b b;
#X obj 920 675 t b b;
#X obj 867 675 t b b;
#X obj 1144 675 t b b;
#X obj 1091 675 t b b;
#X obj 1306 338 tgl 25 0 empty empty empty 17 7 0 10 #191919 #ffffff #ffffff 0 1;
#X obj 650 582 tgl 25 0 empty empty empty 17 7 0 10 #191919 #ffffff #ffffff 0 1;
#X obj 867 582 tgl 25 0 empty empty empty 17 7 0 10 #191919 #ffffff #ffffff 0 1;
#X obj 1091 582 tgl 25 0 empty empty empty 17 7 0 10 #191919 #ffffff #ffffff 0 1;
#X obj 661 100 poly 2 1;
#N canvas 733 172 450 300 notsosimplesynth 0;
#X obj 370 233 +~;
#X obj 370 131 phasor~ 400;
#X obj 474 131 osc~ 50;
#X obj 474 204 *~;
#X obj 59 99 loadbang;
#X msg 59 131 0.5;
#X text 379 95 carrier;
#X text 466 95 modulator;
#X obj 370 266 cos~;
#X obj 220 395 *~;
#X obj 370 41 *~;
#X obj 59 570 hv.osc~ sine;
#X obj 59 486 +~;
#X obj 59 619 *~ 0.5;
#X obj 219 619 *~ 0.5;
#X obj 379 -11 *~ 5;
#X obj 409 350 osc~ 50;
#X obj 478 387 *~;
#X obj 69 404 *~ 3;
#X obj 59 525 *~ 2.02;
#X obj 639 24 hv.osc~ sine;
#X obj 639 -5 *~ 5;
#X obj 639 48 *~ -1;
#X obj 639 78 +~ 1;
#X obj 639 111 *~ 0.5;
#X obj 557 204 +~;
#X obj 634 197 *~;
#X obj 409 525 +~;
#X obj 219 570 hv.osc~ sine;
#X obj 409 570 hv.osc~ sine;
#X obj 409 321 *~ 0.5;
#X obj 478 423 *~ -1;
#X obj 478 453 +~ 1;
#X obj 478 486 *~ 0.5;
#X obj 409 647 clip~ -0.95 0.95;
#X obj 219 647 clip~ -0.95 0.95;
#X obj 59 651 clip~ -0.95 0.95;
#X obj 409 486 *~ 0.24;
#X obj 379 -41 r~ carry;
#X obj 557 -41 r~ indy;
#X obj 639 -39 r~ modspeed;
#X obj 744 -39 r~ modamount;
#X obj 17 -82 sig~;
#X obj 17 -14 *~;
#X obj 59 699 *~;
#X obj 219 699 *~;
#X obj 409 699 *~;
#X obj 59 746 throw~ \$0-osc1;
#X obj 219 746 throw~ \$0-osc2;
#X obj 409 746 throw~ \$0-osc3;
#X obj 28 -41 r~ pitchmult;
#X obj 220 71 +~;
#X obj -61 -41 r~ drift;
#X obj -61 235 *~;
#X obj -41 172 *~ -1;
#X obj -41 199 +~ 1;
#X obj -33 99 /~ 2.2;
#X obj 268 -41 r~ pitcher;
#X obj 34 48 +~;
#X obj 462 -41 r~ carmult;
#X obj 409 188 *~;
#X obj 517 321 *~;
#X obj 639 150 *~;
#X obj 17 -146 mtof;
#X obj 63 -277 sel 0;
#X obj 63 -310 moses 0.01;
#X obj 116 -146 line~;
#X obj 116 -277 / 127;
#X obj 116 -218 pack;
#X msg 116 -185 \$1 \$2;
#X obj 184 -220 pack;
#X msg 184 -187 \$1 \$2;
#X msg 65 -244 0;
#X obj 131 -244 r attack;
#X obj 199 -246 r decay;
#X obj 17 -375 inlet;
#X obj 17 -341 unpack f f;
#X obj 178 -82 *~ 1;
#X connect 0 0 8 0;
#X connect 1 0 60 0;
#X connect 2 0 3 0;
#X connect 3 0 0 1;
#X connect 4 0 5 0;
#X connect 5 0 16 1;
#X connect 5 0 29 1;
#X connect 5 0 28 1;
#X connect 5 0 11 1;
#X connect 8 0 18 0;
#X connect 8 0 9 1;
#X connect 9 0 37 0;
#X connect 9 0 28 0;
#X connect 9 0 12 0;
#X connect 10 0 1 0;
#X connect 11 0 13 0;
#X connect 12 0 19 0;
#X connect 13 0 36 0;
#X connect 14 0 35 0;
#X connect 15 0 10 1;
#X connect 16 0 17 0;
#X connect 17 0 31 0;
#X connect 18 0 12 1;
#X connect 19 0 11 0;
#X connect 20 0 22 0;
#X connect 21 0 20 0;
#X connect 22 0 23 0;
#X connect 23 0 24 0;
#X connect 24 0 62 0;
#X connect 25 0 3 1;
#X connect 25 0 61 0;
#X connect 26 0 25 1;
#X connect 27 0 29 0;
#X connect 28 0 14 0;
#X connect 29 0 34 0;
#X connect 30 0 16 0;
#X connect 31 0 32 0;
#X connect 32 0 33 0;
#X connect 33 0 27 1;
#X connect 34 0 46 0;
#X connect 35 0 45 0;
#X connect 36 0 44 0;
#X connect 37 0 27 0;
#X connect 38 0 15 0;
#X connect 39 0 25 0;
#X connect 40 0 21 0;
#X connect 41 0 26 1;
#X connect 42 0 43 0;
#X connect 43 0 56 0;
#X connect 43 0 58 0;
#X connect 44 0 47 0;
#X connect 45 0 48 0;
#X connect 46 0 49 0;
#X connect 50 0 43 1;
#X connect 51 0 9 0;
#X connect 51 0 30 0;
#X connect 51 0 2 0;
#X connect 51 0 10 0;
#X connect 52 0 53 0;
#X connect 53 0 51 1;
#X connect 54 0 55 0;
#X connect 55 0 53 1;
#X connect 56 0 54 0;
#X connect 57 0 58 1;
#X connect 58 0 51 0;
#X connect 59 0 60 1;
#X connect 59 0 61 1;
#X connect 59 0 62 1;
#X connect 60 0 0 0;
#X connect 61 0 17 1;
#X connect 62 0 26 0;
#X connect 63 0 42 0;
#X connect 64 0 72 0;
#X connect 65 0 64 0;
#X connect 65 1 67 0;
#X connect 66 0 77 0;
#X connect 67 0 68 0;
#X connect 68 0 69 0;
#X connect 69 0 66 0;
#X connect 70 0 71 0;
#X connect 71 0 66 0;
#X connect 72 0 70 0;
#X connect 73 0 68 1;
#X connect 74 0 70 1;
#X connect 75 0 76 0;
#X connect 76 0 63 0;
#X connect 76 1 65 0;
#X connect 77 0 44 1;
#X connect 77 0 45 1;
#X connect 77 0 46 1;
#X restore 681 214 pd notsosimplesynth;
#X connect 3 0 86 0;
#X connect 4 0 3 0;
#X connect 5 0 27 0;
#X connect 6 0 84 0;
#X connect 7 0 6 0;
#X connect 8 0 10 0;
#X connect 9 0 85 0;
#X connect 10 0 9 0;
#X connect 11 0 13 0;
#X connect 12 0 87 0;
#X connect 13 0 12 0;
#X connect 14 0 16 0;
#X connect 15 0 88 0;
#X connect 16 0 15 0;
#X connect 17 0 19 0;
#X connect 18 0 20 1;
#X connect 19 0 18 0;
#X connect 20 0 35 0;
#X connect 21 0 22 1;
#X connect 22 0 37 0;
#X connect 23 0 25 0;
#X connect 24 0 26 1;
#X connect 25 0 24 0;
#X connect 25 0 21 0;
#X connect 26 0 36 0;
#X connect 27 0 7 0;
#X connect 28 0 27 0;
#X connect 29 0 10 0;
#X connect 30 0 4 0;
#X connect 31 0 4 0;
#X connect 32 0 13 0;
#X connect 33 0 16 0;
#X connect 34 0 39 0;
#X connect 35 0 39 1;
#X connect 36 0 38 0;
#X connect 37 0 38 1;
#X connect 38 0 34 0;
#X connect 39 0 68 0;
#X connect 40 0 42 0;
#X connect 41 0 94 0;
#X connect 42 0 41 0;
#X connect 43 0 42 0;
#X connect 45 0 53 0;
#X connect 45 0 62 0;
#X connect 46 0 55 0;
#X connect 47 0 45 0;
#X connect 48 0 46 0;
#X connect 49 0 50 0;
#X connect 50 0 52 0;
#X connect 51 0 49 0;
#X connect 51 1 49 1;
#X connect 52 0 54 0;
#X connect 53 0 65 0;
#X connect 54 0 56 0;
#X connect 55 0 93 0;
#X connect 56 0 93 0;
#X connect 57 0 49 0;
#X connect 57 0 47 0;
#X connect 58 0 51 0;
#X connect 58 0 48 0;
#X connect 60 0 61 0;
#X connect 61 0 64 0;
#X connect 62 0 60 0;
#X connect 62 0 63 0;
#X connect 63 0 64 1;
#X connect 64 0 65 1;
#X connect 65 0 93 0;
#X connect 66 0 2 0;
#X connect 66 0 2 1;
#X connect 67 0 66 0;
#X connect 68 0 67 0;
#X connect 70 0 241 0;
#X connect 71 0 236 0;
#X connect 72 0 242 0;
#X connect 73 0 253 0;
#X connect 74 0 254 0;
#X connect 75 0 255 0;
#X connect 76 0 256 0;
#X connect 77 0 81 0;
#X connect 77 1 81 1;
#X connect 79 0 165 0;
#X connect 79 1 258 0;
#X connect 81 0 168 0;
#X connect 82 0 83 0;
#X connect 83 0 4 0;
#X connect 89 0 26 0;
#X connect 90 0 22 0;
#X connect 91 0 20 0;
#X connect 92 0 168 0;
#X connect 94 0 67 1;
#X connect 94 0 68 1;
#X connect 95 0 100 0;
#X connect 96 0 97 0;
#X connect 97 0 98 0;
#X connect 98 0 128 0;
#X connect 99 0 96 0;
#X connect 103 0 111 0;
#X connect 103 0 116 0;
#X connect 104 0 113 0;
#X connect 105 0 103 0;
#X connect 106 0 104 0;
#X connect 107 0 108 0;
#X connect 108 0 110 0;
#X connect 109 0 107 0;
#X connect 109 1 107 1;
#X connect 110 0 112 0;
#X connect 111 0 119 0;
#X connect 112 0 121 0;
#X connect 113 0 129 0;
#X connect 114 0 115 0;
#X connect 115 0 118 0;
#X connect 116 0 114 0;
#X connect 116 0 117 0;
#X connect 117 0 118 1;
#X connect 118 0 119 1;
#X connect 119 0 122 0;
#X connect 119 0 125 0;
#X connect 121 0 129 0;
#X connect 122 0 124 0;
#X connect 123 0 124 1;
#X connect 124 0 129 0;
#X connect 125 0 123 0;
#X connect 126 0 107 0;
#X connect 126 0 105 0;
#X connect 127 0 109 0;
#X connect 127 0 106 0;
#X connect 128 0 95 0;
#X connect 130 0 131 0;
#X connect 131 0 239 0;
#X connect 131 1 240 0;
#X connect 133 0 174 1;
#X connect 134 0 174 1;
#X connect 135 0 174 0;
#X connect 137 0 139 0;
#X connect 137 0 138 0;
#X connect 138 0 137 1;
#X connect 139 0 141 1;
#X connect 139 0 142 1;
#X connect 140 0 141 0;
#X connect 140 0 142 0;
#X connect 141 0 143 0;
#X connect 142 0 158 0;
#X connect 144 0 145 0;
#X connect 145 0 146 0;
#X connect 146 0 137 0;
#X connect 147 0 149 0;
#X connect 147 0 148 0;
#X connect 148 0 147 1;
#X connect 149 0 156 1;
#X connect 149 0 157 1;
#X connect 150 0 151 0;
#X connect 151 0 152 0;
#X connect 152 0 147 0;
#X connect 153 0 156 0;
#X connect 153 0 157 0;
#X connect 156 0 154 0;
#X connect 157 0 155 0;
#X connect 159 0 166 0;
#X connect 160 0 167 0;
#X connect 161 0 25 0;
#X connect 162 0 19 0;
#X connect 163 0 144 0;
#X connect 164 0 150 0;
#X connect 168 0 257 0;
#X connect 168 1 257 1;
#X connect 169 0 79 0;
#X connect 170 0 218 0;
#X connect 171 0 224 0;
#X connect 172 0 173 0;
#X connect 173 0 25 0;
#X connect 173 0 19 0;
#X connect 174 0 132 0;
#X connect 175 0 238 0;
#X connect 175 1 237 0;
#X connect 177 0 179 1;
#X connect 178 0 179 1;
#X connect 179 0 176 0;
#X connect 180 0 179 0;
#X connect 181 0 175 0;
#X connect 182 0 183 0;
#X connect 183 0 243 0;
#X connect 183 1 244 0;
#X connect 185 0 187 1;
#X connect 186 0 187 1;
#X connect 187 0 184 0;
#X connect 188 0 187 0;
#X connect 189 0 190 0;
#X connect 190 0 245 0;
#X connect 190 1 246 0;
#X connect 192 0 194 1;
#X connect 193 0 194 1;
#X connect 194 0 191 0;
#X connect 195 0 194 0;
#X connect 196 0 248 0;
#X connect 196 1 247 0;
#X connect 198 0 200 1;
#X connect 199 0 200 1;
#X connect 200 0 197 0;
#X connect 201 0 196 0;
#X connect 202 0 200 0;
#X connect 203 0 250 0;
#X connect 203 1 249 0;
#X connect 205 0 207 1;
#X connect 206 0 207 1;
#X connect 207 0 204 0;
#X connect 208 0 203 0;
#X connect 209 0 207 0;
#X connect 210 0 252 0;
#X connect 210 1 251 0;
#X connect 212 0 214 1;
#X connect 213 0 214 1;
#X connect 214 0 211 0;
#X connect 215 0 210 0;
#X connect 216 0 214 0;
#X connect 217 0 219 0;
#X connect 218 0 217 0;
#X connect 219 0 220 0;
#X connect 220 0 221 0;
#X connect 221 0 233 0;
#X connect 222 0 233 0;
#X connect 223 0 225 0;
#X connect 224 0 223 0;
#X connect 225 0 226 0;
#X connect 226 0 229 0;
#X connect 227 0 226 0;
#X connect 227 0 220 0;
#X connect 228 0 227 0;
#X connect 228 0 232 0;
#X connect 228 0 222 0;
#X connect 229 0 234 0;
#X connect 232 0 234 0;
#X connect 235 0 68 0;
#X connect 236 0 130 0;
#X connect 237 0 180 0;
#X connect 237 1 177 0;
#X connect 238 0 180 0;
#X connect 238 1 178 0;
#X connect 239 0 135 0;
#X connect 239 1 134 0;
#X connect 240 0 135 0;
#X connect 240 1 133 0;
#X connect 241 0 181 0;
#X connect 242 0 182 0;
#X connect 243 0 188 0;
#X connect 243 1 186 0;
#X connect 244 0 188 0;
#X connect 244 1 185 0;
#X connect 245 0 195 0;
#X connect 245 1 193 0;
#X connect 246 0 195 0;
#X connect 246 1 192 0;
#X connect 247 0 202 0;
#X connect 247 1 198 0;
#X connect 248 0 202 0;
#X connect 248 1 199 0;
#X connect 249 0 209 0;
#X connect 249 1 205 0;
#X connect 250 0 209 0;
#X connect 250 1 206 0;
#X connect 251 0 216 0;
#X connect 251 1 212 0;
#X connect 252 0 216 0;
#X connect 252 1 213 0;
#X connect 253 0 189 0;
#X connect 254 0 201 0;
#X connect 255 0 208 0;
#X connect 256 0 215 0;
#X connect 257 0 169 0;
#X connect 257 1 169 1;
#X connect 257 2 169 2;
