#N canvas 827 239 527 327 12;
#X obj 1315 33 cnv 15 969 423 empty empty TOUCHPADS\ NOTES 20 12 0 14 #626262 #ffffff 0;
#X obj -88 -228 cnv 15 1308 1548 empty empty TOUCHPADS\ NOTES 20 12 0 14 #626262 #ffffff 0;
#X obj 179 1542 dac~;
#X obj 370 233 +~;
#X obj 370 131 phasor~ 400;
#X obj 474 131 osc~ 50;
#X obj 474 266 *~;
#X obj 557 222 line~;
#X msg 557 189 \$1 10;
#X obj 76 -78 loadbang;
#X msg 76 -46 0.5;
#X text 359 98 carrier;
#X text 466 96 modulator;
#X text 557 96 index;
#X obj 370 266 cos~;
#X obj 308 404 *~;
#X obj 370 41 *~;
#X obj 223 -139 hsl 128 17 0 1 0 0 empty empty empty -2 -8 0 10 #191919 #e1e1e1 #e1e1e1 0 1;
#X obj 220 -46 line~;
#X msg 220 -78 \$1 10;
#X obj 382 -139 hsl 128 17 0 1 0 0 empty empty empty -2 -8 0 10 #191919 #e1e1e1 #e1e1e1 0 1;
#X obj 379 -46 line~;
#X msg 379 -78 \$1 10;
#X obj 59 570 hv.osc~ sine;
#X obj 59 486 +~;
#X obj 59 619 *~ 0.5;
#X obj 219 619 *~ 0.5;
#X obj 379 -11 *~ 5;
#X text 1130 331 carrier;
#X obj 409 350 osc~ 50;
#X obj 478 387 *~;
#X obj 69 404 *~ 3;
#X obj 59 525 *~ 2.02;
#X obj 709 117 hv.osc~ sine;
#X obj 712 13 hsl 128 17 0 1 0 0 empty empty empty -2 -8 0 10 #191919 #e1e1e1 #e1e1e1 0 1;
#X obj 709 62 line~;
#X msg 709 37 \$1 10;
#X obj 709 88 *~ 5;
#X obj 709 141 *~ -1;
#X obj 709 171 +~ 1;
#X obj 709 204 *~ 0.5;
#X obj 810 70 hsl 128 17 0 1 0 0 empty empty empty -2 -8 0 10 #191919 #e1e1e1 #e1e1e1 0 1;
#X obj 807 130 line~;
#X msg 807 105 \$1 10;
#X obj 557 266 +~;
#X obj 709 232 *~;
#X obj 409 525 +~;
#X obj 342 884 hsl 128 17 0 1 0 0 empty empty empty -2 -8 0 10 #191919 #e1e1e1 #e1e1e1 0 1;
#X obj 386 947 line~;
#X msg 339 909 \$1 10;
#X obj 59 678 s~ osc1;
#X obj 219 678 s~ osc2;
#X obj 409 678 s~ osc3;
#X obj 329 947 r~ osc3;
#X obj 329 981 *~;
#X obj 236 947 line~;
#X obj 179 981 *~;
#X obj 179 947 r~ osc2;
#X obj 71 875 hsl 128 17 0 1 0 0 empty empty empty -2 -8 0 10 #191919 #e1e1e1 #e1e1e1 0 1;
#X obj 96 947 line~;
#X msg 39 909 \$1 10;
#X obj 39 981 *~;
#X obj 39 947 r~ osc1;
#X obj 219 570 hv.osc~ sine;
#X obj 409 570 hv.osc~ sine;
#X obj 409 321 *~ 0.5;
#X obj 220 -106 * 440;
#X obj 39 843 r faderleft @hv_param;
#X obj 339 849 r faderright @hv_param;
#X obj 220 -169 r knob0 @hv_param;
#X obj 379 -169 r knob1 @hv_param;
#X obj 560 144 hsl 128 17 0 1 0 0 empty empty empty -2 -8 0 10 #191919 #e1e1e1 #e1e1e1 0 1;
#X obj 557 120 r knob2 @hv_param;
#X obj 714 -11 r knob3 @hv_param;
#X obj 807 41 r knob4 @hv_param;
#X obj 478 423 *~ -1;
#X obj 478 453 +~ 1;
#X obj 478 486 *~ 0.5;
#X obj 409 647 clip~ -0.95 0.95;
#X obj 219 647 clip~ -0.95 0.95;
#X obj 59 651 clip~ -0.95 0.95;
#X obj 41 1087 clip~ -0.95 0.95;
#X obj 329 1027 clip~ -0.95 0.95;
#X obj 41 1014 *~ 0.5;
#X obj 179 1014 *~ 0.5;
#X obj 41 1052 +~;
#X obj 179 1123 +~;
#X text 1130 98 modulator;
#X obj 321 1275 hsl 128 17 0 1 0 0 empty empty empty -2 -8 0 10 #191919 #e1e1e1 #e1e1e1 0 1;
#X obj 318 1330 line~;
#X msg 318 1302 \$1 10;
#X obj 318 1248 r knob5 @hv_param;
#X obj 318 1359 *~ -1;
#X obj 318 1389 +~ 1;
#X obj 409 486 *~ 0.24;
#X obj 1315 486 cnv 15 969 665 empty empty NOTE\ FREQUENCIES\ -\ F-MINOR 20 12 0 14 #626262 #ffffff 0;
#X msg 1442 570 174.61;
#X msg 1501 570 196;
#X msg 1550 570 207.65;
#X msg 1619 570 233.08;
#X msg 1690 570 261.63;
#X msg 1760 570 277.18;
#X msg 1825 570 311.18;
#X msg 1892 570 349.23;
#X text 1529 634 174.61 \, 196 \, 207.65 \, 233.08 \, 261.63 \, 277.18 \, 311.13 \, 349.23 } // F minor F3 \, G3 \, G#3 \, A#3 \, C4 \, C#4 \, D#4 \, F4;
#X obj 1386 119 change;
#X obj 1386 214 line~;
#X obj 1386 156 sel 0 1;
#X msg 1386 184 0 500;
#X msg 1437 184 1 10;
#X obj 1386 93 r mpr121_driver_ch3 @hv_param;
#X obj 1598 119 change;
#X obj 1598 214 line~;
#X obj 1598 156 sel 0 1;
#X msg 1598 184 0 500;
#X msg 1649 184 1 10;
#X obj 1598 93 r mpr121_driver_ch4 @hv_param;
#X obj 1816 119 change;
#X obj 1816 214 line~;
#X obj 1816 156 sel 0 1;
#X msg 1816 184 0 500;
#X msg 1867 184 1 10;
#X obj 1816 93 r mpr121_driver_ch5 @hv_param;
#X obj 2031 119 change;
#X obj 2031 214 line~;
#X obj 2031 156 sel 0 1;
#X msg 2031 184 0 500;
#X msg 2082 184 1 10;
#X obj 2031 93 r mpr121_driver_ch6 @hv_param;
#X obj 1386 309 change;
#X obj 1386 404 line~;
#X obj 1386 346 sel 0 1;
#X msg 1386 374 0 500;
#X msg 1437 374 1 10;
#X obj 1598 309 change;
#X obj 1598 404 line~;
#X obj 1598 346 sel 0 1;
#X msg 1598 374 0 500;
#X msg 1649 374 1 10;
#X obj 1816 309 change;
#X obj 1816 404 line~;
#X obj 1816 346 sel 0 1;
#X msg 1816 374 0 500;
#X msg 1867 374 1 10;
#X obj 1386 283 r mpr121_driver_ch7 @hv_param;
#X obj 1598 283 r mpr121_driver_ch8 @hv_param;
#X obj 1816 283 r mpr121_driver_ch9 @hv_param;
#X obj 1992 573 clip~ 0 1;
#X obj 1992 624 s~ vol;
#X obj 1442 623 f;
#X msg 1873 905 \$1 20, f 9;
#X msg 2083 906 \$1 20, f 9;
#X obj 1873 870 change;
#X obj 2083 870 change;
#X obj 2009 827 ==;
#X obj 2009 870 change;
#X obj 2009 790 t b f;
#X msg 2009 906 \$1 20, f 9;
#X obj 1958 1117 s~ pitchfreq;
#X obj 1442 649 sig~;
#X obj 1873 941 line~;
#X obj 2009 941 line~;
#X obj 2083 941 line~;
#X obj 1958 1083 /~;
#X obj 2009 981 *~ 2;
#X obj 1873 742 r toggle2down_press @hv_param;
#X obj 2083 742 r toggle2up_press @hv_param;
#X text 1885 708 Octave switcher by division:, f 37;
#X obj 1324 688 cnv 15 542 414 empty empty 3.275V\ CV\ pitch\ -\ OMX-27 20 12 0 14 #7c7c7c #ffffff 0;
#X obj 1705 973 line~;
#X obj 1705 869 sel 0 1;
#X msg 1705 905 1 10;
#X obj 1331 893 sig~ 2;
#X obj 1331 916 pow~;
#X text 1376 915 CV to Freq;
#X msg 1352 775 \$1 10;
#X obj 1352 801 line~;
#X obj 1352 741 r cv_1 @hv_param;
#X obj 1352 851 *~ 3.275;
#X obj 1331 959 *~ 261.63;
#X obj 1705 741 r gate_in_1 @hv_param;
#X obj 1496 1062 +~;
#X text 1705 707 CV Gate;
#X text 1352 707 CV pitch;
#X text 1496 707 Touchpads / CV pitch switch;
#X obj 1705 772 change;
#X obj 1496 886 line~;
#X obj 1540 1016 *~;
#X obj 1496 921 *~ -1;
#X obj 1496 948 +~ 1;
#X obj 1496 1016 *~;
#X msg 1496 860 \$1 100;
#X obj 1496 772 change;
#X obj 1496 800 sel 1;
#X obj 1496 827 tgl 25 0 empty empty empty 17 7 0 10 #191919 #e1e1e1 #e1e1e1 0 1;
#X obj 1496 741 r mpr121_driver_ch1 @hv_param;
#X text 1409 1015 inlet CV Pitch;
#X text 1581 1015 inlet touch pitch;
#X text 1368 984 lower OMX-27 pitch range;
#X msg 1753 905 0 200;
#X obj 1331 1000 /~ 2;
#X obj 1 -112 r~ pitchfreq;
#X obj 603 1063 r~ vol;
#X obj 515 1137 +~;
#X obj 533 1029 line~;
#X obj 603 1137 *~;
#X obj 559 1063 *~ -1;
#X obj 559 1090 +~ 1;
#X msg 533 1003 \$1 100;
#X obj 533 915 change;
#X obj 533 943 sel 1;
#X obj 533 970 tgl 25 0 empty empty empty 17 7 0 10 #191919 #e1e1e1 #e1e1e1 0 1;
#X text 533 850 volume drone on/off;
#X obj 179 1219 *~;
#X obj 533 884 r mpr121_driver_ch10 @hv_param;
#X obj -76 120 +~;
#X obj -76 2 line~;
#X obj 1 88 *~;
#X obj 21 25 *~ -1;
#X obj 21 52 +~ 1;
#X msg -76 -24 \$1 100;
#X obj -76 -112 change;
#X obj -76 -84 sel 1;
#X obj -76 -57 tgl 25 0 empty empty empty 17 7 0 10 #191919 #e1e1e1 #e1e1e1 0 1;
#X obj -76 -143 r mpr121_driver_ch11 @hv_param;
#X text -76 -177 pitchfreq multiplier on/off;
#X obj 220 13 +~;
#X obj 2101 1199 print;
#X obj 2101 990 random 1000;
#X obj 2101 1019 * 0.001;
#X obj 2200 972 bng 25 250 50 0 empty empty empty 17 7 0 10 #191919 #ffffff #ffffff;
#X obj 2159 1019 random 2;
#X obj 2101 1045 +;
#X obj 1921 1007 *~;
#X obj 179 1489 clip~ -0.5 0.5;
#X obj 179 1441 hv.lop~;
#X obj 179 1408 hv.lop~;
#X obj 318 1417 *~ 30000;
#X connect 3 0 14 0;
#X connect 4 0 3 0;
#X connect 5 0 6 0;
#X connect 6 0 3 1;
#X connect 7 0 44 0;
#X connect 8 0 7 0;
#X connect 9 0 10 0;
#X connect 10 0 8 0;
#X connect 10 0 29 1;
#X connect 10 0 64 1;
#X connect 10 0 63 1;
#X connect 10 0 23 1;
#X connect 14 0 15 1;
#X connect 14 0 31 0;
#X connect 15 0 94 0;
#X connect 15 0 63 0;
#X connect 15 0 24 0;
#X connect 16 0 4 0;
#X connect 17 0 66 0;
#X connect 18 0 226 0;
#X connect 19 0 18 0;
#X connect 20 0 22 0;
#X connect 21 0 27 0;
#X connect 22 0 21 0;
#X connect 23 0 25 0;
#X connect 24 0 32 0;
#X connect 25 0 80 0;
#X connect 26 0 79 0;
#X connect 27 0 16 1;
#X connect 29 0 30 0;
#X connect 30 0 75 0;
#X connect 31 0 24 1;
#X connect 32 0 23 0;
#X connect 33 0 38 0;
#X connect 34 0 36 0;
#X connect 35 0 37 0;
#X connect 36 0 35 0;
#X connect 37 0 33 0;
#X connect 38 0 39 0;
#X connect 39 0 40 0;
#X connect 40 0 45 0;
#X connect 41 0 43 0;
#X connect 42 0 45 1;
#X connect 43 0 42 0;
#X connect 44 0 6 1;
#X connect 44 0 30 1;
#X connect 45 0 44 1;
#X connect 46 0 64 0;
#X connect 47 0 49 0;
#X connect 48 0 54 1;
#X connect 49 0 48 0;
#X connect 53 0 54 0;
#X connect 54 0 82 0;
#X connect 55 0 56 1;
#X connect 56 0 84 0;
#X connect 57 0 56 0;
#X connect 58 0 60 0;
#X connect 59 0 61 1;
#X connect 60 0 59 0;
#X connect 60 0 55 0;
#X connect 61 0 83 0;
#X connect 62 0 61 0;
#X connect 63 0 26 0;
#X connect 64 0 78 0;
#X connect 65 0 29 0;
#X connect 66 0 19 0;
#X connect 67 0 60 0;
#X connect 68 0 49 0;
#X connect 69 0 66 0;
#X connect 70 0 22 0;
#X connect 71 0 8 0;
#X connect 72 0 8 0;
#X connect 73 0 36 0;
#X connect 74 0 43 0;
#X connect 75 0 76 0;
#X connect 76 0 77 0;
#X connect 77 0 46 1;
#X connect 78 0 52 0;
#X connect 79 0 51 0;
#X connect 80 0 50 0;
#X connect 81 0 86 0;
#X connect 82 0 86 1;
#X connect 83 0 85 0;
#X connect 84 0 85 1;
#X connect 85 0 81 0;
#X connect 86 0 213 0;
#X connect 88 0 90 0;
#X connect 89 0 92 0;
#X connect 90 0 89 0;
#X connect 91 0 90 0;
#X connect 92 0 93 0;
#X connect 93 0 237 0;
#X connect 94 0 46 0;
#X connect 96 0 149 0;
#X connect 97 0 149 0;
#X connect 98 0 149 0;
#X connect 99 0 149 0;
#X connect 100 0 149 0;
#X connect 101 0 149 0;
#X connect 102 0 149 0;
#X connect 103 0 149 0;
#X connect 105 0 107 0;
#X connect 106 0 147 0;
#X connect 107 0 108 0;
#X connect 107 1 109 0;
#X connect 107 1 96 0;
#X connect 108 0 106 0;
#X connect 109 0 106 0;
#X connect 110 0 105 0;
#X connect 111 0 113 0;
#X connect 112 0 147 0;
#X connect 113 0 114 0;
#X connect 113 1 115 0;
#X connect 113 1 97 0;
#X connect 114 0 112 0;
#X connect 115 0 112 0;
#X connect 116 0 111 0;
#X connect 117 0 119 0;
#X connect 118 0 147 0;
#X connect 119 0 120 0;
#X connect 119 1 121 0;
#X connect 119 1 98 0;
#X connect 120 0 118 0;
#X connect 121 0 118 0;
#X connect 122 0 117 0;
#X connect 123 0 125 0;
#X connect 124 0 147 0;
#X connect 125 0 126 0;
#X connect 125 1 127 0;
#X connect 125 1 99 0;
#X connect 126 0 124 0;
#X connect 127 0 124 0;
#X connect 128 0 123 0;
#X connect 129 0 131 0;
#X connect 130 0 147 0;
#X connect 131 0 132 0;
#X connect 131 1 133 0;
#X connect 131 1 100 0;
#X connect 132 0 130 0;
#X connect 133 0 130 0;
#X connect 134 0 136 0;
#X connect 135 0 147 0;
#X connect 136 0 137 0;
#X connect 136 1 138 0;
#X connect 136 1 101 0;
#X connect 137 0 135 0;
#X connect 138 0 135 0;
#X connect 139 0 141 0;
#X connect 140 0 147 0;
#X connect 141 0 142 0;
#X connect 141 1 143 0;
#X connect 141 1 102 0;
#X connect 142 0 140 0;
#X connect 143 0 140 0;
#X connect 144 0 129 0;
#X connect 145 0 134 0;
#X connect 146 0 139 0;
#X connect 147 0 148 0;
#X connect 149 0 159 0;
#X connect 150 0 160 0;
#X connect 150 0 230 0;
#X connect 151 0 162 0;
#X connect 152 0 150 0;
#X connect 153 0 151 0;
#X connect 154 0 155 0;
#X connect 155 0 157 0;
#X connect 156 0 154 0;
#X connect 156 1 154 1;
#X connect 157 0 161 0;
#X connect 159 0 187 0;
#X connect 160 0 233 0;
#X connect 161 0 164 0;
#X connect 162 0 163 1;
#X connect 163 0 158 0;
#X connect 164 0 163 1;
#X connect 165 0 154 0;
#X connect 165 0 152 0;
#X connect 166 0 156 0;
#X connect 166 0 153 0;
#X connect 169 0 147 0;
#X connect 170 0 171 0;
#X connect 170 1 199 0;
#X connect 171 0 169 0;
#X connect 172 0 173 0;
#X connect 173 0 179 0;
#X connect 175 0 176 0;
#X connect 176 0 178 0;
#X connect 177 0 175 0;
#X connect 178 0 173 1;
#X connect 179 0 200 0;
#X connect 180 0 185 0;
#X connect 181 0 163 0;
#X connect 185 0 170 0;
#X connect 186 0 188 0;
#X connect 186 0 190 1;
#X connect 187 0 181 1;
#X connect 188 0 189 0;
#X connect 189 0 187 1;
#X connect 190 0 181 0;
#X connect 191 0 186 0;
#X connect 192 0 193 0;
#X connect 193 0 194 0;
#X connect 194 0 191 0;
#X connect 195 0 192 0;
#X connect 199 0 169 0;
#X connect 201 0 217 0;
#X connect 202 0 205 0;
#X connect 203 0 213 1;
#X connect 204 0 206 0;
#X connect 204 0 203 0;
#X connect 205 0 203 1;
#X connect 206 0 207 0;
#X connect 207 0 205 1;
#X connect 208 0 204 0;
#X connect 209 0 210 0;
#X connect 210 0 211 0;
#X connect 211 0 208 0;
#X connect 213 0 236 0;
#X connect 214 0 209 0;
#X connect 215 0 226 1;
#X connect 216 0 218 0;
#X connect 216 0 215 0;
#X connect 217 0 215 1;
#X connect 218 0 219 0;
#X connect 219 0 217 1;
#X connect 220 0 216 0;
#X connect 221 0 222 0;
#X connect 222 0 223 0;
#X connect 223 0 220 0;
#X connect 224 0 221 0;
#X connect 226 0 15 0;
#X connect 226 0 65 0;
#X connect 226 0 5 0;
#X connect 226 0 16 0;
#X connect 228 0 229 0;
#X connect 229 0 232 0;
#X connect 230 0 228 0;
#X connect 230 0 231 0;
#X connect 231 0 232 1;
#X connect 232 0 233 1;
#X connect 232 0 227 0;
#X connect 233 0 163 1;
#X connect 234 0 2 0;
#X connect 234 0 2 1;
#X connect 235 0 234 0;
#X connect 236 0 235 0;
#X connect 237 0 235 1;
#X connect 237 0 236 1;
