#N canvas 827 239 734 565 12;
#X obj 461 399 dac~;
#X obj 1046 399 *~;
#X obj 844 -118 line~;
#X msg 844 -147 \$1 20;
#X obj 461 295 *~;
#X obj 558 285 line~;
#X msg 558 256 \$1 20;
#X obj 1002 157 hv.pinknoise~;
#X obj 461 38 osc~ 80;
#X msg 461 -178 65.41;
#X msg 514 -178 73.42;
#X msg 567 -178 77.78;
#X msg 624 -178 87.31;
#X msg 675 -178 98;
#X msg 712 -178 103.83;
#X msg 773 -178 116.54;
#X obj 461 -399 moses 1;
#X obj 495 -368 moses 2;
#X obj 531 -339 moses 3;
#X obj 461 -123 change;
#X obj 461 -428 * 7;
#X obj 567 -306 moses 4;
#X obj 604 -277 moses 5;
#X obj 639 -247 moses 6;
#X obj 675 -219 moses 7;
#X obj 461 -466 r knob4 @hv_param;
#X obj 461 2 line~;
#X obj 833 119 *~;
#X obj 898 3 *~ 0.01;
#X obj 724 -539 hsl 128 17 0 1 0 0 empty empty empty -2 -8 0 10 #191919 #ffffff #ffffff 0 1;
#X obj 586 221 hsl 128 17 0 1 0 0 empty empty empty -2 -8 0 10 #191919 #ffffff #ffffff 0 1;
#X obj 1168 -278 tgl 15 0 empty empty empty 17 7 0 10 #fcfcfc #000000 #000000 0 1;
#X obj 1164 -330 loadbang;
#X obj 1164 -178 hv.drunk 100 6;
#X obj 960 -135 t b;
#X obj 461 119 +~;
#X obj 898 50 *~;
#X obj 898 110 osc~;
#X obj 987 -77 -~ 1;
#X obj 987 -45 *~ -1;
#X msg 461 -27 \$1 200;
#X obj 898 135 +~ 0.22;
#X obj 898 82 *~;
#X obj 1092 38 *~;
#X obj 1164 -80 sig~;
#X obj 1164 -251 metro;
#X obj 844 -192 f;
#X obj 1053 -77 - 1;
#X obj 1053 -45 * -1;
#X obj 1193 2 line~;
#X msg 1193 -27 \$1 2000;
#X obj 1056 352 line~;
#X msg 1056 323 \$1 2000;
#X obj 1056 291 snapshot~;
#X obj 1056 227 metro;
#X obj 1239 233 loadbang;
#X obj 461 182 *~;
#X obj 685 38 hsl 128 17 0 1 0 0 empty empty empty -2 -8 0 10 #191919 #ffffff #ffffff 0 1;
#X obj 638 127 *~;
#X obj 521 -58 * 1;
#X obj 266 -98 tgl 25 0 empty empty empty 17 7 0 10 #191919 #ffffff #ffffff 0 1;
#X obj 266 -33 tgl 25 0 empty empty empty 17 7 0 10 #191919 #ffffff #ffffff 0 1;
#X obj 266 -64 select 1;
#X obj 266 2 select 0 1;
#X msg 269 38 1;
#X obj 244 157 spigot;
#X obj 244 119 * 2;
#X msg 299 38 0;
#X obj 340 157 spigot;
#X msg 354 116 1;
#X msg 384 116 0;
#X obj 456 -84 f;
#X obj 1258 -278 * 5000;
#X obj 649 97 line~;
#X msg 649 68 \$1 20;
#X text 1380 -420 C 65.41 Hz D 73.42 Hz D# 77.78 Hz F 87.31 Hz G 98 Hz G# 103.83 Hz A# 116.54 Hz;
#X obj 649 18 r knob0 @hv_param;
#X obj 558 197 r knob1 @hv_param;
#X obj 266 -135 r toggle2down @hv_param;
#X connect 1 0 27 0;
#X connect 2 0 38 0;
#X connect 2 0 27 1;
#X connect 3 0 34 0;
#X connect 3 0 2 0;
#X connect 4 0 0 0;
#X connect 4 0 0 1;
#X connect 5 0 4 1;
#X connect 6 0 5 0;
#X connect 7 0 1 0;
#X connect 8 0 35 0;
#X connect 9 0 19 0;
#X connect 10 0 19 0;
#X connect 11 0 19 0;
#X connect 12 0 19 0;
#X connect 13 0 19 0;
#X connect 14 0 19 0;
#X connect 15 0 19 0;
#X connect 16 0 9 0;
#X connect 16 1 17 0;
#X connect 17 0 10 0;
#X connect 17 1 18 0;
#X connect 18 0 11 0;
#X connect 18 1 21 0;
#X connect 19 0 71 0;
#X connect 19 0 71 1;
#X connect 20 0 16 0;
#X connect 21 0 12 0;
#X connect 21 1 22 0;
#X connect 22 0 13 0;
#X connect 22 1 23 0;
#X connect 23 0 14 0;
#X connect 23 1 24 0;
#X connect 24 0 15 0;
#X connect 25 0 20 0;
#X connect 25 0 46 0;
#X connect 26 0 8 0;
#X connect 26 0 28 0;
#X connect 27 0 58 0;
#X connect 28 0 36 0;
#X connect 28 0 43 0;
#X connect 29 0 20 0;
#X connect 29 0 46 0;
#X connect 30 0 6 0;
#X connect 31 0 45 0;
#X connect 31 0 54 0;
#X connect 32 0 31 0;
#X connect 33 0 50 0;
#X connect 34 0 45 0;
#X connect 35 0 56 0;
#X connect 36 0 42 0;
#X connect 37 0 41 0;
#X connect 38 0 39 0;
#X connect 39 0 36 1;
#X connect 40 0 26 0;
#X connect 41 0 53 0;
#X connect 41 0 56 1;
#X connect 42 0 37 0;
#X connect 43 0 42 1;
#X connect 45 0 33 0;
#X connect 46 0 3 0;
#X connect 46 0 47 0;
#X connect 47 0 48 0;
#X connect 48 0 72 0;
#X connect 49 0 43 1;
#X connect 50 0 49 0;
#X connect 51 0 1 1;
#X connect 52 0 51 0;
#X connect 53 0 52 0;
#X connect 54 0 53 0;
#X connect 56 0 4 0;
#X connect 57 0 74 0;
#X connect 58 0 35 1;
#X connect 60 0 62 0;
#X connect 61 0 63 0;
#X connect 61 0 71 0;
#X connect 62 0 61 0;
#X connect 63 0 64 0;
#X connect 63 0 70 0;
#X connect 63 1 67 0;
#X connect 63 1 69 0;
#X connect 64 0 65 1;
#X connect 65 0 40 0;
#X connect 66 0 65 0;
#X connect 67 0 65 1;
#X connect 68 0 40 0;
#X connect 69 0 68 1;
#X connect 70 0 68 1;
#X connect 71 0 66 0;
#X connect 71 0 68 0;
#X connect 72 0 45 1;
#X connect 73 0 58 1;
#X connect 74 0 73 0;
#X connect 76 0 74 0;
#X connect 77 0 6 0;
#X connect 78 0 60 0;
