#N canvas 827 239 734 565 12;
#X obj 550 208 midirealtimein;
#X floatatom 550 255 5 0 0 0 - - - 0;
#X obj 550 291 select 248 250 252;
#X obj 583 321 bng 25 250 50 0 empty empty empty 17 7 0 10 #191919 #ffffff #ffffff;
#X obj 617 352 bng 25 250 50 0 empty empty empty 17 7 0 10 #191919 #ffffff #ffffff;
#X text 610 319 play;
#X text 642 357 stop;
#X obj 550 459 bng 25 250 50 0 empty empty empty 17 7 0 10 #191919 #ffffff #ffffff;
#X msg 586 385 1;
#X msg 620 385 0;
#X text 573 416 tempo pulse;
#X obj 600 459 tgl 25 0 empty empty empty 17 7 0 10 #191919 #e1e1e1 #e1e1e1 0 1;
#X obj 813 364 + 1;
#X obj 821 456 + 1;
#X floatatom 821 485 5 0 0 0 - - - 0;
#X obj 768 364 i;
#X obj 866 456 + 1;
#X floatatom 866 485 5 0 0 0 - - - 0;
#X obj 915 456 + 1;
#X floatatom 915 485 5 0 0 0 - - - 0;
#X obj 726 780 s time_devision_formidi;
#X obj 726 560 spigot;
#X obj 768 599 spigot;
#X obj 813 636 spigot;
#X obj 862 673 spigot;
#X obj 911 708 spigot;
#X obj 551 498 spigot;
#X obj 1070 310 f;
#X obj 1149 310 f;
#X obj 1070 273 spigot;
#X obj 1149 273 spigot;
#X obj 1149 336 + 1;
#X obj 1070 336 - 1;
#X msg 1257 221 1;
#X obj 1253 165 sel 1;
#X msg 1286 221 0;
#X obj 1194 336 f;
#X obj 1269 396 s ledswitch;
#X obj 1194 396 s seqtime;
#X obj 1119 367 loadbang;
#X msg 1119 393 1;
#X obj 1269 336 sel 1 10;
#X text 1029 38 tempomultiplier;
#X obj 1269 367 del 50;
#X obj 1253 122 tgl 25 0 empty empty empty 17 7 0 10 #191919 #ffffff #ffffff 0 1;
#X obj 1253 97 change;
#X obj 1253 66 r mpr121_driver_ch11 @hv_param;
#X obj 1029 122 tgl 25 0 empty empty empty 17 7 0 10 #191919 #ffffff #ffffff 0 1;
#X obj 1029 97 change;
#X obj 1070 128 sel 1;
#X obj 1029 221 tgl 25 0 empty empty empty 17 7 0 10 #191919 #ffffff #ffffff 0 1;
#X obj 1029 196 change;
#X obj 1070 227 sel 1;
#X obj 112 678 osc~ 110;
#X obj 399 728 hv.vline~;
#X obj 399 766 *~;
#X obj 354 798 *~;
#X obj 365 398 r time_devision_formidi;
#X msg 399 695 1 100 \, 0 200;
#X obj 355 875 dac~;
#X obj 112 636 mtof~;
#X obj 112 553 notein;
#X obj 112 597 sig~;
#X obj 365 560 line~;
#X msg 433 498 0 100;
#X msg 365 498 1 50;
#X obj 551 540 r seqtime;
#X obj 779 456 + 1;
#X obj 779 430 % 24;
#X obj 821 430 % 48;
#X obj 866 430 % 96;
#X obj 915 430 % 192;
#X obj 779 515 sel 24;
#X obj 821 515 sel 48;
#X obj 866 515 sel 96;
#X obj 915 515 sel 192;
#X msg 695 560 1;
#X msg 667 560 0;
#X msg 695 599 1;
#X msg 667 599 0;
#X msg 695 636 1;
#X msg 667 636 0;
#X msg 695 673 1;
#X msg 667 673 0;
#X msg 695 708 1;
#X msg 667 708 0;
#X obj 433 447 del 60;
#X obj 1194 310 clip 1 5;
#X floatatom 779 485 5 0 0 0 - - - 0;
#X obj 1029 165 r mpr121_driver_ch8 @hv_param;
#X obj 1029 66 r mpr121_driver_ch9 @hv_param;
#X obj 551 569 sel 4 3 2 1 0;
#X obj 734 456 + 1;
#X floatatom 734 485 5 0 0 0 - - - 0;
#X obj 734 430 % 12;
#X obj 734 515 sel 12;
#X connect 0 0 1 0;
#X connect 1 0 2 0;
#X connect 2 0 7 0;
#X connect 2 1 3 0;
#X connect 2 2 4 0;
#X connect 3 0 8 0;
#X connect 4 0 9 0;
#X connect 7 0 26 0;
#X connect 8 0 11 0;
#X connect 9 0 11 0;
#X connect 11 0 26 1;
#X connect 12 0 15 1;
#X connect 13 0 14 0;
#X connect 14 0 73 0;
#X connect 15 0 12 0;
#X connect 15 0 69 0;
#X connect 15 0 70 0;
#X connect 15 0 71 0;
#X connect 15 0 68 0;
#X connect 15 0 94 0;
#X connect 16 0 17 0;
#X connect 17 0 74 0;
#X connect 18 0 19 0;
#X connect 19 0 75 0;
#X connect 21 0 20 0;
#X connect 22 0 20 0;
#X connect 23 0 20 0;
#X connect 24 0 20 0;
#X connect 25 0 20 0;
#X connect 26 0 15 0;
#X connect 27 0 32 0;
#X connect 28 0 31 0;
#X connect 29 0 27 0;
#X connect 30 0 28 0;
#X connect 31 0 87 0;
#X connect 32 0 87 0;
#X connect 33 0 29 1;
#X connect 33 0 30 1;
#X connect 34 0 33 0;
#X connect 34 1 35 0;
#X connect 35 0 29 1;
#X connect 35 0 30 1;
#X connect 36 0 41 0;
#X connect 36 0 38 0;
#X connect 39 0 40 0;
#X connect 40 0 38 0;
#X connect 41 0 43 0;
#X connect 41 1 43 0;
#X connect 43 0 37 0;
#X connect 44 0 34 0;
#X connect 45 0 44 0;
#X connect 46 0 45 0;
#X connect 47 0 49 0;
#X connect 48 0 47 0;
#X connect 49 0 30 0;
#X connect 50 0 52 0;
#X connect 51 0 50 0;
#X connect 52 0 29 0;
#X connect 53 0 56 0;
#X connect 54 0 55 0;
#X connect 54 0 55 1;
#X connect 56 0 59 0;
#X connect 56 0 59 1;
#X connect 57 0 65 0;
#X connect 57 0 86 0;
#X connect 58 0 54 0;
#X connect 60 0 53 0;
#X connect 61 0 62 0;
#X connect 62 0 60 0;
#X connect 63 0 56 1;
#X connect 64 0 63 0;
#X connect 65 0 63 0;
#X connect 66 0 91 0;
#X connect 67 0 88 0;
#X connect 68 0 67 0;
#X connect 69 0 13 0;
#X connect 70 0 16 0;
#X connect 71 0 18 0;
#X connect 72 0 22 0;
#X connect 73 0 23 0;
#X connect 74 0 24 0;
#X connect 75 0 25 0;
#X connect 76 0 21 1;
#X connect 77 0 22 1;
#X connect 77 0 23 1;
#X connect 77 0 24 1;
#X connect 77 0 25 1;
#X connect 78 0 22 1;
#X connect 79 0 21 1;
#X connect 79 0 25 1;
#X connect 79 0 23 1;
#X connect 79 0 24 1;
#X connect 80 0 23 1;
#X connect 81 0 22 1;
#X connect 81 0 24 1;
#X connect 81 0 25 1;
#X connect 81 0 21 1;
#X connect 82 0 24 1;
#X connect 83 0 25 1;
#X connect 83 0 23 1;
#X connect 83 0 22 1;
#X connect 83 0 21 1;
#X connect 84 0 25 1;
#X connect 85 0 24 1;
#X connect 85 0 23 1;
#X connect 85 0 22 1;
#X connect 85 0 21 1;
#X connect 86 0 64 0;
#X connect 87 0 27 1;
#X connect 87 0 28 1;
#X connect 87 0 36 0;
#X connect 88 0 72 0;
#X connect 89 0 51 0;
#X connect 90 0 48 0;
#X connect 91 0 76 0;
#X connect 91 0 77 0;
#X connect 91 1 78 0;
#X connect 91 1 79 0;
#X connect 91 2 80 0;
#X connect 91 2 81 0;
#X connect 91 3 82 0;
#X connect 91 3 83 0;
#X connect 91 4 84 0;
#X connect 91 4 85 0;
#X connect 92 0 93 0;
#X connect 93 0 95 0;
#X connect 94 0 92 0;
#X connect 95 0 21 0;
