#N canvas 827 239 734 565 12;
#X obj 1232 378 cnv 15 518 648 empty empty Volume\ out 20 12 0 14 #626262 #ffffff 0;
#X obj 1245 963 dac~;
#X obj 1273 452 hsl 128 17 0 1 0 0 empty empty empty -2 -8 0 10 #191919 #e1e1e1 #e1e1e1 0 1;
#X obj 1350 523 line~;
#X msg 1248 485 \$1 10;
#X obj 1248 577 *~;
#X obj 1250 663 clip~ -0.95 0.95;
#X obj 1250 610 *~ 0.5;
#X obj 1325 739 hsl 128 17 0 1 0 0 empty empty empty -2 -8 0 10 #191919 #e1e1e1 #e1e1e1 0 1;
#X obj 1322 794 line~;
#X msg 1322 766 \$1 10;
#X obj 1322 712 r knob5 @hv_param;
#X obj 839 598 r mpr121_driver_ch3 @hv_param;
#X obj 1059 392 r touchnote;
#X obj 1454 412 loadbang;
#X msg 1454 444 0.5;
#X obj 839 698 sel 0 1;
#X obj 839 815 s touchnote;
#X obj 839 669 change;
#X obj 839 629 tgl 25 0 empty empty empty 17 7 0 10 #191919 #ffffff #ffffff 0 1;
#X obj 1248 412 r faderleft @hv_param;
#X obj 839 457 midiin;
#X obj 839 511 midiout;
#X obj 1250 887 *~;
#X obj 1059 743 clip~ -0.95 0.95;
#X obj 1059 540 sig~;
#X obj 1059 791 *~;
#X obj 1124 644 line~;
#X obj 1124 540 / 127;
#X obj 1059 502 unpack f f;
#X obj 1059 704 osc~;
#X msg 1124 580 \$1 100;
#X msg 839 738 53 0;
#X msg 889 738 53 99;
#X obj 1059 838 throw~ osc1;
#X obj 1248 523 catch~ osc1;
#X obj 1145 392 notein;
#X obj 1059 644 mtof~;
#X obj 1145 421 pack f f;
#X connect 2 0 4 0;
#X connect 3 0 5 1;
#X connect 4 0 3 0;
#X connect 5 0 7 0;
#X connect 6 0 23 0;
#X connect 7 0 6 0;
#X connect 8 0 10 0;
#X connect 9 0 23 1;
#X connect 10 0 9 0;
#X connect 11 0 10 0;
#X connect 12 0 19 0;
#X connect 13 0 29 0;
#X connect 14 0 15 0;
#X connect 15 0 4 0;
#X connect 16 0 32 0;
#X connect 16 1 33 0;
#X connect 18 0 16 0;
#X connect 19 0 18 0;
#X connect 20 0 4 0;
#X connect 21 0 22 0;
#X connect 21 1 22 1;
#X connect 23 0 1 0;
#X connect 23 0 1 1;
#X connect 24 0 26 0;
#X connect 25 0 37 0;
#X connect 26 0 34 0;
#X connect 27 0 26 1;
#X connect 28 0 31 0;
#X connect 29 0 25 0;
#X connect 29 1 28 0;
#X connect 30 0 24 0;
#X connect 31 0 27 0;
#X connect 32 0 17 0;
#X connect 33 0 17 0;
#X connect 35 0 5 0;
#X connect 36 0 38 0;
#X connect 36 1 38 1;
#X connect 37 0 30 0;
#X connect 38 0 29 0;
