#N canvas 827 239 734 565 12;
#X obj 317 547 send~ feedback;
#X obj 317 384 r~ feedback;
#X obj 317 518 *~ 0.75;
#X obj 167 245 noise~;
#X obj 99 626 dac~;
#X obj 230 221 line~;
#X obj 285 419 delwrite~ delas 2000;
#X obj 285 485 delread~ delas 500;
#X obj 517 363 hsl 128 17 0 1 0 0 empty empty empty -2 -8 0 10 #191919 #ffffff #ffffff 0 1;
#X msg 494 389 \$1 20;
#X obj 494 342 r faderleft @hv_param;
#X obj 46 385 hsl 128 17 0 1 0 0 empty empty empty -2 -8 0 10 #191919 #ffffff #ffffff 0 1;
#X msg 23 411 \$1 20;
#X obj 23 364 r faderright @hv_param;
#X obj 494 419 line;
#X obj 494 449 * 2000;
#X obj 104 572 *~;
#X obj 37 472 line~;
#X obj 216 115 sel 0 1;
#X obj 216 78 tgl 25 0 empty empty empty 17 7 0 10 #191919 #ffffff #ffffff 0 1;
#X obj 216 53 change;
#X obj 219 349 +~;
#X obj 167 283 *~;
#X obj 450 221 line~;
#X msg 506 184 0 100;
#X obj 436 115 sel 0 1;
#X obj 436 78 tgl 25 0 empty empty empty 17 7 0 10 #191919 #ffffff #ffffff 0 1;
#X obj 436 53 change;
#X obj 436 22 r mpr121_driver_ch6 @hv_param;
#X obj 387 283 *~;
#X obj 387 245 hv.pinknoise~;
#X obj 216 22 r mpr121_driver_ch4 @hv_param;
#X msg 450 184 1 10;
#X obj -130 -38 + 1;
#X obj -175 -38 i;
#X obj -175 19 + 1;
#X floatatom -175 48 5 0 0 0 - - - 0;
#X msg 229 184 1 5;
#X obj -175 125 del 10;
#X obj 635 480 hsl 128 17 0 1 0 0 empty empty empty -2 -8 0 10 #191919 #ffffff #ffffff 0 1;
#X msg 612 506 \$1 20;
#X obj 612 459 r knob1 @hv_param;
#X obj 186 532 *~;
#X obj 612 536 line~;
#X msg 285 184 0 10;
#X obj -175 -92 r gate_in_trig @hv_param;
#X obj -175 -7 % 3;
#X obj -175 78 sel 3;
#X connect 1 0 6 0;
#X connect 2 0 0 0;
#X connect 3 0 22 0;
#X connect 5 0 22 1;
#X connect 7 0 2 0;
#X connect 7 0 42 0;
#X connect 8 0 9 0;
#X connect 9 0 14 0;
#X connect 10 0 9 0;
#X connect 11 0 12 0;
#X connect 12 0 17 0;
#X connect 13 0 12 0;
#X connect 14 0 15 0;
#X connect 15 0 7 0;
#X connect 16 0 4 0;
#X connect 16 0 4 1;
#X connect 17 0 16 1;
#X connect 18 0 44 0;
#X connect 18 1 37 0;
#X connect 19 0 18 0;
#X connect 20 0 19 0;
#X connect 21 0 6 0;
#X connect 21 0 16 0;
#X connect 22 0 21 0;
#X connect 23 0 29 1;
#X connect 24 0 23 0;
#X connect 25 0 24 0;
#X connect 25 1 32 0;
#X connect 26 0 25 0;
#X connect 27 0 26 0;
#X connect 28 0 27 0;
#X connect 29 0 21 1;
#X connect 30 0 29 0;
#X connect 31 0 20 0;
#X connect 32 0 23 0;
#X connect 33 0 34 1;
#X connect 34 0 33 0;
#X connect 34 0 46 0;
#X connect 35 0 36 0;
#X connect 36 0 47 0;
#X connect 37 0 5 0;
#X connect 38 0 44 0;
#X connect 39 0 40 0;
#X connect 40 0 43 0;
#X connect 41 0 40 0;
#X connect 42 0 16 0;
#X connect 43 0 42 1;
#X connect 44 0 5 0;
#X connect 45 0 34 0;
#X connect 46 0 35 0;
#X connect 47 0 37 0;
#X connect 47 0 38 0;
