#N canvas 827 239 734 565 12;
#X obj 20 840 dac~;
#X obj 20 793 *~;
#N canvas 0 0 450 250 (subpatch) 0;
#X array sample1 48000 float 2;
#X coords 0 1 48000 -1 337 141 1;
#X restore 804 420 graph;
#X obj 66 793 line~;
#X obj 238 734 hsl 128 17 0 1 0 0 empty empty empty -2 -8 0 10 #191919 #e1e1e1 #e1e1e1 0 1;
#X obj 804 350 tabread4~ sample1;
#X obj 27 52 adc~;
#X obj 81 141 line~;
#X obj 73 308 env~;
#X obj 73 398 sel 1;
#X obj 73 356 > 70;
#X msg 81 108 \$1 20;
#X obj 84 52 hsl 128 17 0 1 0 0 empty empty empty -2 -8 0 10 #191919 #e1e1e1 #e1e1e1 0 1;
#X obj 70 210 *~;
#X obj 81 178 *~ 3;
#X obj 1002 382 tabwrite~ sample1;
#X msg 1002 256 start;
#X msg 1049 256 stop;
#X obj 1002 202 t b b;
#X obj 70 248 *~;
#X obj 115 248 sig~;
#X msg 146 620 0;
#X msg 116 620 1;
#X obj 116 670 s daisyled @hv_param;
#X obj 144 598 del 50;
#X obj 73 459 timer;
#X obj 116 509 sel 1;
#X obj 116 557 t b b b b;
#X obj 126 423 bng 25 250 50 0 empty empty empty 17 7 0 10 #191919 #e1e1e1 #e1e1e1;
#X obj 804 158 tgl 25 0 empty empty empty 17 7 0 10 #191919 #e1e1e1 #e1e1e1 0 1;
#X obj 804 382 throw~ out;
#X obj 20 741 catch~ out;
#X obj 126 306 send~ recorder;
#X obj 12 606 s recbang;
#X msg 214 216 0;
#X msg 189 216 1;
#X obj 377 -198 r mpr121_driver_ch10 @hv_param;
#X obj 377 -171 change;
#X obj 804 62 tgl 25 0 empty empty empty 17 7 0 10 #191919 #ffffff #ffffff 0 1;
#X obj 804 32 change;
#X obj 857 126 r modtoggle;
#X obj 804 126 spigot;
#N canvas 733 172 450 300 modpad_disabler 0;
#X obj 43 138 s modtoggle;
#X obj 78 46 loadbang;
#X msg 46 108 1;
#X obj 43 46 tgl 25 0 empty empty empty 17 7 0 10 #191919 #e1e1e1 #e1e1e1 0 1;
#X obj 43 78 sel 0 1;
#X msg 78 108 0;
#X obj 43 16 inlet;
#X connect 1 0 2 0;
#X connect 2 0 0 0;
#X connect 3 0 4 0;
#X connect 4 0 2 0;
#X connect 4 1 5 0;
#X connect 5 0 0 0;
#X connect 6 0 3 0;
#X restore 485 -75 pd modpad_disabler;
#X obj 804 2 r mpr121_driver_ch3 @hv_param;
#X obj 81 82 r knob0 @hv_param;
#X text 81 26 recording level;
#X obj 499 -55 s recordingswitch;
#X obj 377 -106 tgl 25 0 empty empty empty 17 7 0 10 #191919 #ffffff #ffffff 0 1;
#X obj 447 -106 tgl 25 0 empty empty empty 17 7 0 10 #191919 #ffffff #ffffff 0 1;
#X obj 407 -106 sel 1;
#X obj 214 141 r recordingswitch;
#X obj 1078 62 r recordingswitch;
#X msg 65 1099 0;
#X msg 23 1099 1;
#X obj 20 1065 del 5;
#X msg 127 1099 1;
#X msg 186 1099 0;
#X msg 245 1099 1;
#X msg 303 1099 0;
#X obj 23 1168 s daisyled @hv_param;
#X text 20 904 long led sequence;
#X obj 63 1065 del 300;
#X obj 124 1065 del 400;
#X obj 184 1065 del 500;
#X obj 242 1065 del 600;
#X obj 301 1065 del 700;
#X obj 20 928 r ledswitchrecon;
#X obj 20 982 bng 25 250 50 0 empty empty empty 17 7 0 10 #191919 #e1e1e1 #e1e1e1;
#X obj 167 928 del 1000;
#X obj 167 988 spigot;
#X obj 221 982 r ledswitchreconloop;
#X obj 221 1013 sel 0;
#X obj 167 955 metro 900;
#X obj 514 -35 s ledswitchreconloop;
#X obj 214 173 sel 1;
#X obj 1113 256 r~ recorder;
#X obj 1113 283 *~;
#X obj 1124 231 sig~;
#X obj 1127 164 sel 1;
#X msg 1130 202 1;
#X msg 1152 202 0;
#X obj 1127 128 spigot;
#X msg 235 792 \$1 20;
#X obj 235 766 r faderleft @hv_param;
#X obj 804 202 sel 1 0;
#X obj 116 459 > 1000;
#X obj 1037 128 > 1;
#X obj 1002 62 r recbang;
#X msg 1005 97 1;
#X obj 1002 128 +;
#X obj 1078 128 sel 1;
#N canvas 0 0 450 250 (subpatch) 0;
#X array sample2 48000 float 2;
#X coords 0 1 48000 -1 337 141 1;
#X restore 1496 420 graph;
#X msg 1694 271 start;
#X msg 1741 271 stop;
#X obj 1694 202 t b b;
#X obj 1496 300 line~;
#X msg 1377 191 48000 1000;
#X obj 1496 158 tgl 25 0 empty empty empty 17 7 0 10 #191919 #e1e1e1 #e1e1e1 0 1;
#X obj 1496 382 throw~ out;
#X obj 1496 17 tgl 25 0 empty empty empty 17 7 0 10 #191919 #ffffff #ffffff 0 1;
#X obj 1496 -13 change;
#X obj 1549 126 r modtoggle;
#X obj 1496 126 spigot;
#X obj 1770 62 r recordingswitch;
#X obj 1805 271 r~ recorder;
#X obj 1805 300 *~;
#X obj 1816 231 sig~;
#X obj 1819 164 sel 1;
#X msg 1822 202 1;
#X msg 1844 202 0;
#X obj 1819 128 spigot;
#X obj 1630 327 line~;
#X obj 1496 356 *~;
#X obj 1577 271 del 20;
#X msg 1534 271 1 50;
#X msg 1630 271 0 50;
#X obj 1496 191 sel 1 0;
#X obj 1584 231 del 60;
#X msg 1638 231 0 0;
#X obj 1741 231 del 1000;
#X obj 1729 128 > 1;
#X obj 1694 62 r recbang;
#X msg 1697 97 1;
#X obj 1694 128 +;
#X obj 1770 128 sel 1;
#X obj 1496 -43 r mpr121_driver_ch4 @hv_param;
#X obj 1496 327 tabread4~ sample2;
#X obj 1694 382 tabwrite~ sample2;
#N canvas 0 0 450 250 (subpatch) 0;
#X array sample3 48000 float 2;
#X coords 0 1 48000 -1 337 141 1;
#X restore 2149 420 graph;
#X msg 2347 271 start;
#X msg 2394 271 stop;
#X obj 2347 202 t b b;
#X obj 2149 300 line~;
#X msg 2000 327 48000 1000;
#X obj 2149 158 tgl 25 0 empty empty empty 17 7 0 10 #191919 #e1e1e1 #e1e1e1 0 1;
#X obj 2149 382 throw~ out;
#X obj 2149 62 tgl 25 0 empty empty empty 17 7 0 10 #191919 #ffffff #ffffff 0 1;
#X obj 2149 32 change;
#X obj 2202 126 r modtoggle;
#X obj 2149 126 spigot;
#X obj 2423 62 r recordingswitch;
#X obj 2458 271 r~ recorder;
#X obj 2458 300 *~;
#X obj 2469 231 sig~;
#X obj 2472 164 sel 1;
#X msg 2475 202 1;
#X msg 2497 202 0;
#X obj 2472 128 spigot;
#X obj 2278 327 line~;
#X obj 2149 356 *~;
#X obj 2230 271 del 20;
#X msg 2187 271 1 50;
#X msg 2283 271 0 50;
#X obj 2149 202 sel 1 0;
#X obj 2237 231 del 60;
#X msg 2291 231 0 0;
#X obj 2394 231 del 1000;
#X obj 2382 128 > 1;
#X obj 2347 62 r recbang;
#X msg 2350 97 1;
#X obj 2347 128 +;
#X obj 2423 128 sel 1;
#X obj 2149 2 r mpr121_driver_ch5 @hv_param;
#X obj 2149 327 tabread4~ sample3;
#X obj 2347 327 tabwrite~ sample3;
#N canvas 0 0 450 250 (subpatch) 0;
#X array sample4 48000 float 2;
#X coords 0 1 48000 -1 337 141 1;
#X restore 2781 420 graph;
#X msg 2979 271 start;
#X msg 3026 271 stop;
#X obj 2979 202 t b b;
#X obj 2781 300 line~;
#X obj 2781 158 tgl 25 0 empty empty empty 17 7 0 10 #191919 #e1e1e1 #e1e1e1 0 1;
#X obj 2781 382 throw~ out;
#X obj 2781 62 tgl 25 0 empty empty empty 17 7 0 10 #191919 #ffffff #ffffff 0 1;
#X obj 2781 32 change;
#X obj 2834 126 r modtoggle;
#X obj 2781 126 spigot;
#X obj 3055 62 r recordingswitch;
#X obj 3090 271 r~ recorder;
#X obj 3090 300 *~;
#X obj 3101 231 sig~;
#X obj 3104 164 sel 1;
#X msg 3107 202 1;
#X msg 3129 202 0;
#X obj 3104 128 spigot;
#X obj 2910 327 line~;
#X obj 2781 356 *~;
#X obj 2862 271 del 20;
#X msg 2819 271 1 50;
#X msg 2915 271 0 50;
#X obj 2781 202 sel 1 0;
#X obj 2869 231 del 60;
#X msg 2923 231 0 0;
#X obj 3026 231 del 1000;
#X obj 3014 128 > 1;
#X obj 2979 62 r recbang;
#X msg 2982 97 1;
#X obj 2979 128 +;
#X obj 3055 128 sel 1;
#X obj 2781 2 r mpr121_driver_ch6 @hv_param;
#X obj 2781 327 tabread4~ sample4;
#X obj 2979 327 tabwrite~ sample4;
#X obj 485 -106 t f f f;
#X obj 1130 382 throw~ out;
#X obj 1805 407 throw~ out;
#X obj 2458 356 throw~ out;
#X obj 3090 356 throw~ out;
#X obj 640 95 hsl 128 17 0 1 0 0 empty empty empty -2 -8 0 10 #191919 #e1e1e1 #e1e1e1 0 1;
#X msg 637 143 \$1 20;
#X obj 637 117 r knob1 @hv_param;
#X obj 637 172 line;
#X obj 637 197 * 5000;
#X obj 1332 62 hsl 128 17 0 1 0 0 empty empty empty -2 -8 0 10 #191919 #e1e1e1 #e1e1e1 0 1;
#X msg 1329 110 \$1 20;
#X obj 1329 139 line;
#X msg 1300 234 48000;
#X obj 1300 283 pack f f;
#X obj 1329 164 * 5000;
#X text 1311 309 1000 is 1:1 speed;
#X obj 1329 84 r knob2 @hv_param;
#X obj 2002 62 hsl 128 17 0 1 0 0 empty empty empty -2 -8 0 10 #191919 #e1e1e1 #e1e1e1 0 1;
#X msg 1999 110 \$1 20;
#X obj 1999 139 line;
#X msg 1979 191 48000;
#X obj 1979 241 pack f f;
#X obj 1999 164 * 5000;
#X text 1979 266 1000 is 1:1 speed;
#X obj 1999 84 r knob3 @hv_param;
#X obj 2640 126 hsl 128 17 0 1 0 0 empty empty empty -2 -8 0 10 #191919 #e1e1e1 #e1e1e1 0 1;
#X msg 2637 174 \$1 20;
#X obj 2637 203 line;
#X msg 2617 255 48000;
#X obj 2617 305 pack f f;
#X obj 2637 228 * 5000;
#X text 2617 330 1000 is 1:1 speed;
#X obj 2637 148 r knob4 @hv_param;
#X obj 1070 356 line~;
#X msg 1049 312 0 10;
#X obj 1049 231 del 1000;
#X obj 1049 283 del 990;
#X obj 1032 356 *~;
#X msg 1014 312 1 10;
#X obj 1028 654 loadbang;
#X obj 914 951 sel 0 1 2 3 4 5 6 7;
#X obj 914 1003 bng 25 250 50 0 empty empty empty 17 7 0 10 #191919 #e1e1e1 #e1e1e1;
#X obj 945 1003 bng 25 250 50 0 empty empty empty 17 7 0 10 #191919 #e1e1e1 #e1e1e1;
#X obj 976 1003 bng 25 250 50 0 empty empty empty 17 7 0 10 #191919 #e1e1e1 #e1e1e1;
#X obj 1007 1003 bng 25 250 50 0 empty empty empty 17 7 0 10 #191919 #e1e1e1 #e1e1e1;
#X obj 1170 974 bng 25 250 50 0 empty empty empty 17 7 0 10 #191919 #e1e1e1 #e1e1e1;
#X obj 1201 974 bng 25 250 50 0 empty empty empty 17 7 0 10 #191919 #e1e1e1 #e1e1e1;
#X obj 1232 974 bng 25 250 50 0 empty empty empty 17 7 0 10 #191919 #e1e1e1 #e1e1e1;
#X obj 1263 974 bng 25 250 50 0 empty empty empty 17 7 0 10 #191919 #e1e1e1 #e1e1e1;
#X obj 1021 2 r pad3;
#X obj 914 1125 s pad3;
#X msg 917 1063 1;
#X msg 947 1084 0;
#X obj 945 1063 del 100;
#X msg 1010 1063 1;
#X msg 1040 1084 0;
#X obj 1038 1063 del 100;
#X obj 1007 1125 s pad4;
#X obj 1078 752 i;
#X obj 1128 752 + 1;
#X obj 1078 810 sel 0;
#X obj 1078 781 % 8;
#X text 1118 781 <- Number of Steps;
#X obj 1078 841 bng 25 250 50 0 empty empty empty 17 7 0 10 #191919 #e1e1e1 #e1e1e1;
#X obj 1028 915 random 7;
#X msg 1118 915 seed \$1;
#X obj 1118 886 int;
#X msg 1103 1063 1;
#X msg 1133 1084 0;
#X obj 1131 1063 del 100;
#X obj 1100 1125 s pad5;
#X msg 1195 1063 1;
#X msg 1225 1084 0;
#X obj 1223 1063 del 100;
#X obj 1192 1125 s pad6;
#X obj 1713 2 r pad4;
#X obj 2249 300 sig~ 10;
#X obj 2878 294 sig~ 10;
#X obj 2394 2 r pad5;
#X obj 3075 2 r pad6;
#X obj 1266 669 hsl 128 17 0 1 0 0 empty empty empty -2 -8 0 10 #191919 #e1e1e1 #e1e1e1 0 1;
#X msg 1263 723 \$1 20;
#X obj 1263 700 r knob5 @hv_param;
#X obj 1263 772 * 1000;
#X obj 1263 749 line;
#X obj 821 804 tgl 25 0 empty empty empty 17 7 0 10 #191919 #ffffff #ffffff 0 1;
#X obj 891 804 tgl 25 0 empty empty empty 17 7 0 10 #191919 #ffffff #ffffff 0 1;
#X obj 851 804 sel 1;
#X obj 821 772 change;
#X text 821 710 internal sequencer on / off;
#X obj 1194 830 hsl 128 17 0 1 0 0 empty empty empty -2 -8 0 10 #191919 #e1e1e1 #e1e1e1 0 1;
#X msg 1191 888 \$1 20;
#X obj 1191 914 * 2000;
#X obj 1191 862 r faderright @hv_param;
#X obj 821 741 r mpr121_driver_ch11 @hv_param;
#X msg 681 926 0;
#X msg 639 926 1;
#X obj 636 892 del 5;
#X obj 639 995 s daisyled @hv_param;
#X obj 804 296 hv.vline~;
#X obj 804 239 f;
#X msg 804 274 0 \, 0 5 \, 0 0 5 \, 48000 \$1 5;
#X obj 637 231 loadbang;
#X msg 637 257 1000;
#X obj 1028 711 metro 200;
#X msg 1030 680 0;
#X obj 679 892 del 20;
#X obj 1263 798 + 50;
#X obj 1497 231 t b b;
#X obj 1540 231 t b b;
#X obj 1990 505 line~;
#X obj 1886 513 *~;
#X obj 2042 596 print;
#X obj 1939 624 snapshot~;
#X obj 1866 621 metro;
#X obj 1886 565 bng 25 250 50 0 empty empty empty 17 7 0 10 #191919 #e1e1e1 #e1e1e1;
#X msg 1927 459 1 10;
#X msg 1982 459 0 100;
#X obj 1597 300 sig~ 1;
#X obj 1982 407 del 888;
#X connect 1 0 0 0;
#X connect 1 0 0 1;
#X connect 3 0 1 1;
#X connect 4 0 82 0;
#X connect 5 0 30 0;
#X connect 6 0 13 0;
#X connect 6 1 13 0;
#X connect 7 0 14 0;
#X connect 8 0 10 0;
#X connect 9 0 28 0;
#X connect 10 0 9 0;
#X connect 11 0 7 0;
#X connect 12 0 11 0;
#X connect 13 0 19 0;
#X connect 14 0 13 1;
#X connect 16 0 15 0;
#X connect 17 0 15 0;
#X connect 18 0 16 0;
#X connect 18 0 240 0;
#X connect 18 1 237 0;
#X connect 18 1 238 0;
#X connect 19 0 8 0;
#X connect 19 0 32 0;
#X connect 20 0 19 1;
#X connect 21 0 23 0;
#X connect 22 0 23 0;
#X connect 24 0 21 0;
#X connect 25 0 85 0;
#X connect 26 0 27 0;
#X connect 27 0 33 0;
#X connect 27 1 25 0;
#X connect 27 2 22 0;
#X connect 27 3 24 0;
#X connect 28 0 25 1;
#X connect 29 0 84 0;
#X connect 31 0 1 0;
#X connect 34 0 20 0;
#X connect 35 0 20 0;
#X connect 36 0 37 0;
#X connect 37 0 47 0;
#X connect 38 0 41 0;
#X connect 38 0 89 1;
#X connect 38 0 81 0;
#X connect 39 0 38 0;
#X connect 40 0 41 1;
#X connect 41 0 29 0;
#X connect 43 0 39 0;
#X connect 44 0 11 0;
#X connect 47 0 49 0;
#X connect 48 0 201 0;
#X connect 49 0 48 0;
#X connect 50 0 74 0;
#X connect 51 0 81 1;
#X connect 52 0 59 0;
#X connect 53 0 59 0;
#X connect 54 0 53 0;
#X connect 55 0 59 0;
#X connect 56 0 59 0;
#X connect 57 0 59 0;
#X connect 58 0 59 0;
#X connect 61 0 52 0;
#X connect 62 0 55 0;
#X connect 63 0 56 0;
#X connect 64 0 57 0;
#X connect 65 0 58 0;
#X connect 66 0 67 0;
#X connect 67 0 54 0;
#X connect 67 0 61 0;
#X connect 67 0 62 0;
#X connect 67 0 63 0;
#X connect 67 0 64 0;
#X connect 67 0 65 0;
#X connect 67 0 68 0;
#X connect 68 0 72 0;
#X connect 69 0 67 0;
#X connect 70 0 69 1;
#X connect 70 0 71 0;
#X connect 71 0 63 0;
#X connect 71 0 72 0;
#X connect 72 0 69 0;
#X connect 74 0 35 0;
#X connect 74 1 34 0;
#X connect 75 0 76 0;
#X connect 76 0 239 0;
#X connect 76 0 202 0;
#X connect 77 0 76 1;
#X connect 78 0 79 0;
#X connect 78 1 80 0;
#X connect 79 0 77 0;
#X connect 80 0 77 0;
#X connect 81 0 78 0;
#X connect 82 0 3 0;
#X connect 83 0 82 0;
#X connect 84 0 302 0;
#X connect 85 0 26 0;
#X connect 86 0 90 0;
#X connect 87 0 88 0;
#X connect 88 0 89 0;
#X connect 89 0 86 0;
#X connect 90 0 18 0;
#X connect 92 0 127 0;
#X connect 92 0 318 0;
#X connect 93 0 127 0;
#X connect 94 0 92 0;
#X connect 94 1 119 0;
#X connect 94 1 321 0;
#X connect 95 0 126 0;
#X connect 97 0 116 0;
#X connect 99 0 110 0;
#X connect 99 0 123 1;
#X connect 99 0 102 0;
#X connect 100 0 99 0;
#X connect 101 0 102 1;
#X connect 102 0 97 0;
#X connect 103 0 110 1;
#X connect 104 0 105 0;
#X connect 105 0 203 0;
#X connect 105 0 313 0;
#X connect 106 0 105 1;
#X connect 107 0 108 0;
#X connect 107 1 109 0;
#X connect 108 0 106 0;
#X connect 109 0 106 0;
#X connect 110 0 107 0;
#X connect 111 0 112 1;
#X connect 112 0 98 0;
#X connect 113 0 115 0;
#X connect 114 0 111 0;
#X connect 115 0 111 0;
#X connect 116 0 310 0;
#X connect 116 0 114 0 32.................e....XB...vG....l....zC....;
#X connect 116 1 311 0;
#X connect 117 0 118 0;
#X connect 118 0 95 0;
#X connect 119 0 93 0;
#X connect 120 0 124 0;
#X connect 121 0 122 0;
#X connect 122 0 123 0;
#X connect 123 0 120 0;
#X connect 124 0 94 0;
#X connect 125 0 100 0;
#X connect 126 0 112 0;
#X connect 129 0 164 0;
#X connect 130 0 164 0;
#X connect 131 0 129 0;
#X connect 131 1 156 0;
#X connect 132 0 163 0;
#X connect 134 0 153 0;
#X connect 136 0 139 0;
#X connect 136 0 160 1;
#X connect 136 0 147 0;
#X connect 137 0 136 0;
#X connect 138 0 139 1;
#X connect 139 0 134 0;
#X connect 140 0 147 1;
#X connect 141 0 142 0;
#X connect 142 0 164 0;
#X connect 142 0 204 0;
#X connect 143 0 142 1;
#X connect 144 0 145 0;
#X connect 144 1 146 0;
#X connect 145 0 143 0;
#X connect 146 0 143 0;
#X connect 147 0 144 0;
#X connect 148 0 149 1;
#X connect 149 0 135 0;
#X connect 150 0 152 0;
#X connect 151 0 148 0;
#X connect 152 0 148 0;
#X connect 153 0 151 0;
#X connect 153 0 222 0;
#X connect 153 0 223 0;
#X connect 153 1 154 0;
#X connect 153 1 150 0;
#X connect 154 0 155 0;
#X connect 155 0 132 0;
#X connect 156 0 130 0;
#X connect 157 0 161 0;
#X connect 158 0 159 0;
#X connect 159 0 160 0;
#X connect 160 0 157 0;
#X connect 161 0 131 0;
#X connect 162 0 137 0;
#X connect 163 0 149 0;
#X connect 166 0 200 0;
#X connect 167 0 200 0;
#X connect 168 0 166 0;
#X connect 168 1 192 0;
#X connect 169 0 199 0;
#X connect 170 0 189 0;
#X connect 172 0 175 0;
#X connect 172 0 196 1;
#X connect 172 0 183 0;
#X connect 173 0 172 0;
#X connect 174 0 175 1;
#X connect 175 0 170 0;
#X connect 176 0 183 1;
#X connect 177 0 178 0;
#X connect 178 0 200 0;
#X connect 178 0 205 0;
#X connect 179 0 178 1;
#X connect 180 0 181 0;
#X connect 180 1 182 0;
#X connect 181 0 179 0;
#X connect 182 0 179 0;
#X connect 183 0 180 0;
#X connect 184 0 185 1;
#X connect 185 0 171 0;
#X connect 186 0 188 0;
#X connect 187 0 184 0;
#X connect 188 0 184 0;
#X connect 189 0 187 0;
#X connect 189 0 230 0;
#X connect 189 1 190 0;
#X connect 189 1 186 0;
#X connect 190 0 191 0;
#X connect 191 0 169 0;
#X connect 192 0 167 0;
#X connect 193 0 197 0;
#X connect 194 0 195 0;
#X connect 195 0 196 0;
#X connect 196 0 193 0;
#X connect 197 0 168 0;
#X connect 198 0 173 0;
#X connect 199 0 185 0;
#X connect 201 0 42 0;
#X connect 201 1 46 0;
#X connect 201 2 73 0;
#X connect 206 0 207 0;
#X connect 207 0 209 0;
#X connect 208 0 207 0;
#X connect 209 0 210 0;
#X connect 210 0 302 1;
#X connect 211 0 212 0;
#X connect 212 0 213 0;
#X connect 213 0 216 0;
#X connect 214 0 215 0;
#X connect 215 0 95 0;
#X connect 216 0 215 1;
#X connect 218 0 212 0;
#X connect 219 0 220 0;
#X connect 220 0 221 0;
#X connect 221 0 224 0;
#X connect 222 0 223 0;
#X connect 223 0 132 0;
#X connect 224 0 223 1;
#X connect 226 0 220 0;
#X connect 227 0 228 0;
#X connect 228 0 229 0;
#X connect 229 0 232 0;
#X connect 230 0 231 0;
#X connect 231 0 169 0;
#X connect 232 0 231 1;
#X connect 234 0 228 0;
#X connect 235 0 239 1;
#X connect 236 0 235 0;
#X connect 237 0 17 0;
#X connect 238 0 236 0;
#X connect 239 0 15 0;
#X connect 240 0 235 0;
#X connect 241 0 307 0;
#X connect 242 0 243 0;
#X connect 242 1 244 0;
#X connect 242 2 245 0;
#X connect 242 3 246 0;
#X connect 242 4 247 0;
#X connect 242 4 243 0;
#X connect 242 5 248 0;
#X connect 242 5 244 0;
#X connect 242 6 249 0;
#X connect 242 6 245 0;
#X connect 242 7 250 0;
#X connect 242 7 246 0;
#X connect 243 0 253 0;
#X connect 243 0 255 0;
#X connect 244 0 256 0;
#X connect 244 0 258 0;
#X connect 245 0 269 0;
#X connect 245 0 271 0;
#X connect 246 0 273 0;
#X connect 246 0 275 0;
#X connect 251 0 84 0;
#X connect 253 0 252 0;
#X connect 254 0 252 0;
#X connect 255 0 254 0;
#X connect 256 0 259 0;
#X connect 257 0 259 0;
#X connect 258 0 257 0;
#X connect 260 0 261 0;
#X connect 260 0 263 0;
#X connect 261 0 260 1;
#X connect 262 0 265 0;
#X connect 263 0 262 0;
#X connect 265 0 268 0;
#X connect 266 0 242 0;
#X connect 267 0 266 0;
#X connect 268 0 267 0;
#X connect 269 0 272 0;
#X connect 270 0 272 0;
#X connect 271 0 270 0;
#X connect 273 0 276 0;
#X connect 274 0 276 0;
#X connect 275 0 274 0;
#X connect 277 0 116 0;
#X connect 278 0 163 1;
#X connect 279 0 199 1;
#X connect 280 0 153 0;
#X connect 281 0 189 0;
#X connect 282 0 283 0;
#X connect 283 0 286 0;
#X connect 284 0 283 0;
#X connect 285 0 309 0;
#X connect 286 0 285 0;
#X connect 287 0 289 0;
#X connect 288 0 306 0;
#X connect 289 0 288 0;
#X connect 290 0 287 0;
#X connect 292 0 293 0;
#X connect 293 0 294 0;
#X connect 294 0 268 1;
#X connect 295 0 293 0;
#X connect 296 0 290 0;
#X connect 297 0 300 0;
#X connect 298 0 300 0;
#X connect 299 0 298 0;
#X connect 301 0 5 0;
#X connect 302 0 303 0;
#X connect 303 0 301 0;
#X connect 304 0 305 0;
#X connect 305 0 302 1;
#X connect 306 0 260 0;
#X connect 306 0 266 0;
#X connect 306 0 299 0;
#X connect 306 0 308 0;
#X connect 307 0 306 0;
#X connect 308 0 297 0;
#X connect 309 0 306 1;
#X connect 310 0 214 0;
#X connect 310 1 215 0;
#X connect 311 0 113 0;
#X connect 311 1 117 0;
#X connect 312 0 315 0;
#X connect 312 0 313 1;
#X connect 313 0 127 0;
#X connect 315 0 314 0;
#X connect 316 0 315 0;
#X connect 317 0 316 0;
#X connect 318 0 312 0;
#X connect 319 0 312 0;
#X connect 320 0 126 1;
#X connect 321 0 319 0;
