#N canvas 827 239 734 565 12;
#X obj 174 223 osc~ 220;
#X msg 185 281 \$1 20;
#X obj 185 307 line~;
#X obj 174 345 *~;
#X obj 99 439 dac~;
#X obj -11 107 adc~;
#X obj -11 199 *~;
#X msg 39 133 \$1 20;
#X obj 39 159 line~;
#X obj 29 199 *~;
#X obj 39 107 r knob1 @hv_param;
#X obj 185 255 r knob0 @hv_param;
#X obj 335 256 change;
#X obj 335 223 r toggle1left_press @hv_param;
#X obj 335 284 sel 0 1;
#X msg 368 316 1;
#X msg 337 316 0;
#X msg 335 355 \$1 20;
#X obj 335 381 line~;
#X obj 174 394 *~;
#X connect 0 0 3 0;
#X connect 1 0 2 0;
#X connect 2 0 3 1;
#X connect 3 0 19 0;
#X connect 5 0 6 0;
#X connect 5 1 9 0;
#X connect 6 0 4 0;
#X connect 7 0 8 0;
#X connect 8 0 9 1;
#X connect 8 0 6 1;
#X connect 9 0 4 1;
#X connect 10 0 7 0;
#X connect 11 0 1 0;
#X connect 12 0 14 0;
#X connect 13 0 12 0;
#X connect 14 0 16 0;
#X connect 14 1 15 0;
#X connect 15 0 17 0;
#X connect 16 0 17 0;
#X connect 17 0 18 0;
#X connect 18 0 19 1;
#X connect 19 0 4 0;
#X connect 19 0 4 1;
