#N canvas 827 239 734 565 12;
#X msg 292 220 \$1 20;
#X obj -11 246 dac~;
#X obj -11 107 adc~;
#X obj -11 199 *~;
#X msg 39 133 \$1 20;
#X obj 39 159 line~;
#X obj 29 199 *~;
#X obj -11 348 r button_press @hv_param;
#X obj -11 462 s gate_out_1 @hv_param;
#X obj 245 520 s gate_out_2 @hv_param;
#X text -7 313 start stop;
#X obj 292 259 line;
#X obj 70 423 tgl 25 0 empty empty empty 17 7 0 10 #191919 #ffffff #ffffff 0 1;
#X obj -11 387 change;
#X obj -11 423 tgl 25 0 empty empty empty 17 7 0 10 #191919 #ffffff #ffffff 0 1;
#X obj 23 423 sel 1;
#X obj -11 492 s daisyled @hv_param;
#X msg 313 492 0;
#X msg 248 472 1;
#X obj 313 462 del 10;
#X obj 292 329 * 1000;
#X obj 518 201 hsl 128 17 0 1 0 0 empty empty empty -2 -8 0 10 #191919 #ffffff #ffffff 0 1;
#X obj 245 437 metro 50;
#X obj 198 409 bang;
#X obj 39 93 r knob1 @hv_param;
#X obj 292 194 r knob0@hv_param;
#X obj 245 387 loadbang;
#X obj 240 361 change;
#X connect 0 0 11 0;
#X connect 2 0 3 0;
#X connect 2 1 6 0;
#X connect 3 0 1 0;
#X connect 4 0 5 0;
#X connect 5 0 6 1;
#X connect 5 0 3 1;
#X connect 6 0 1 1;
#X connect 7 0 13 0;
#X connect 11 0 20 0;
#X connect 12 0 8 0;
#X connect 12 0 16 0;
#X connect 13 0 14 0;
#X connect 14 0 15 0;
#X connect 15 0 12 0;
#X connect 17 0 9 0;
#X connect 18 0 9 0;
#X connect 19 0 17 0;
#X connect 20 0 22 1;
#X connect 20 0 27 0;
#X connect 21 0 11 0;
#X connect 22 0 18 0;
#X connect 22 0 19 0;
#X connect 23 0 22 0;
#X connect 24 0 4 0;
#X connect 25 0 0 0;
#X connect 26 0 22 0;
#X connect 27 0 23 0;
