#N canvas 827 239 734 565 12;
#X obj 838 58 adc~;
#X obj 392 112 spigot;
#X msg 577 112 1;
#X obj 574 79 sel 1;
#X msg 606 112 0;
#X obj 615 79 tgl 25 0 empty empty empty 17 7 0 10 #191919 #ffffff #ffffff 0 1;
#X obj 392 178 f;
#X obj 560 245 s ledswitch;
#X obj 417 207 loadbang;
#X obj 560 207 del 50;
#X obj 560 143 sel 1 2;
#X msg 394 207 0;
#X obj 615 49 r mpr121_driver_ch11 @hv_param;
#X obj 392 49 r mpr121_driver_ch10 @hv_param;
#X obj 333 79 tgl 25 0 empty empty empty 17 7 0 10 #191919 #ffffff #ffffff 0 1;
#X obj 426 143 tgl 25 0 empty empty empty 17 7 0 10 #191919 #e1e1e1 #e1e1e1 0 1;
#X obj 392 143 bng 25 250 50 0 empty empty empty 17 7 0 10 #191919 #e1e1e1 #e1e1e1;
#X obj 333 112 sel 1;
#X obj 329 228 s audiooutgate;
#X obj 902 117 line~;
#X obj 902 58 r audiooutgate;
#X msg 902 84 \$1 100;
#X obj 838 161 *~;
#X obj 874 161 *~;
#X obj 576 700 timer;
#X obj 621 606 + 1;
#X obj 576 606 i;
#X obj 576 529 bng 48 250 50 0 empty empty empty 17 7 0 10 #191919 #e1e1e1 #e1e1e1;
#X msg 541 606 0;
#X obj 650 729 print;
#X obj 627 700 * 0.1;
#X obj 627 774 s ext_tempo;
#X obj 392 342 spigot;
#X msg 542 342 1;
#X obj 539 309 sel 1;
#X msg 571 342 0;
#X obj 615 309 tgl 25 0 empty empty empty 17 7 0 10 #191919 #ffffff #ffffff 0 1;
#X obj 392 408 f;
#X obj 542 437 s ledswitch;
#X obj 430 437 loadbang;
#X obj 542 408 del 50;
#X obj 542 373 sel 1 2;
#X msg 405 437 0;
#X obj 615 279 r mpr121_driver_ch11 @hv_param;
#X obj 430 373 tgl 25 0 empty empty empty 17 7 0 10 #191919 #e1e1e1 #e1e1e1 0 1;
#X obj 392 373 bng 25 250 50 0 empty empty empty 17 7 0 10 #191919 #e1e1e1 #e1e1e1;
#X obj 306 342 sel 1;
#X obj 392 462 s ext_tempo_tru;
#X obj 914 222 r ext_tempo_tru;
#X obj 904 295 *~;
#X obj 914 261 sig~;
#X msg 715 594 0;
#X msg 685 594 1;
#X obj 685 644 s daisyled @hv_param;
#X obj 713 572 del 50;
#X obj 903 196 *~ 0.9;
#X obj 890 485 timer;
#X obj 874 575 sel 1;
#X obj 874 623 t b b;
#X obj 874 676 bng 25 250 50 0 empty empty empty 17 7 0 10 #191919 #e1e1e1 #e1e1e1;
#X obj 906 324 env~;
#X obj 935 676 print;
#X obj 906 450 bng 25 250 50 0 empty empty empty 17 7 0 10 #191919 #e1e1e1 #e1e1e1;
#X obj 906 414 sel 1;
#X obj 392 279 r mpr121_driver_ch5 @hv_param;
#X obj 1049 295 r faderright @hv_param;
#X obj 1049 324 change;
#X msg 1049 385 \$1 10;
#X obj 1049 425 line;
#X obj 1049 352 * 100;
#X obj 306 309 tgl 25 0 empty empty empty 17 7 0 10 #191919 #ffffff #ffffff 0 1;
#X obj 874 530 > 300;
#X obj 113 606 noise~;
#X obj 113 729 dac~;
#X obj 193 562 line~;
#X obj 113 653 *~;
#X obj 175 397 r ext_tempo;
#X obj 237 423 bng 48 250 50 0 empty empty empty 17 7 0 10 #191919 #e1e1e1 #e1e1e1;
#X obj 216 506 del 10;
#X msg 123 506 1 10;
#X msg 164 506 0 100;
#X obj 906 385 > 70;
#X obj 576 641 sel 11 1 0;
#X obj 154 451 metro 500;
#X obj 838 222 dac~;
#X obj 193 606 *~ 0.1;
#X obj 155 310 tgl 25 0 empty empty empty 17 7 0 10 #191919 #e1e1e1 #e1e1e1 0 1;
#X obj 1412 49 adc~;
#X obj 1476 108 line~;
#X obj 1476 49 r audiooutgate;
#X msg 1476 75 \$1 100;
#X obj 1412 149 *~;
#X obj 1456 149 *~;
#X obj 1412 284 dac~;
#X obj 1886 613 s ext_tempo;
#X obj 1488 213 r ext_tempo_tru;
#X obj 1478 286 *~;
#X obj 1488 252 sig~;
#X msg 1478 707 0;
#X msg 1448 707 1;
#X obj 1448 757 s daisyled @hv_param;
#X obj 1476 685 del 50;
#X obj 1477 187 *~ 0.9;
#X obj 1464 506 timer;
#X obj 1448 596 sel 1;
#X obj 1480 345 env~;
#X obj 1480 471 bng 25 250 50 0 empty empty empty 17 7 0 10 #191919 #e1e1e1 #e1e1e1;
#X obj 1480 435 sel 1;
#X obj 1448 551 > 300;
#X obj 1480 393 > 70;
#X obj 1606 130 mod 4;
#X obj 1651 94 + 1;
#X obj 1606 94 i;
#X obj 1703 88 bng 25 250 50 0 empty empty empty 17 7 0 10 #191919 #e1e1e1 #e1e1e1;
#X obj 1617 177 sel 0 1 2 3;
#X obj 1590 321 timer;
#X obj 1559 398 nbx 4 18 -1e+37 1e+37 0 0 empty empty empty 0 -8 0 10 #191919 #e1e1e1 #e1e1e1 0 256;
#X obj 1645 435 f;
#X obj 1645 390 spigot;
#X msg 1645 357 1;
#X msg 1671 357 0;
#X floatatom 1645 479 5 0 0 0 - - - 0;
#X obj 1716 219 t b b b b;
#X obj 1806 219 t b b b b;
#X obj 1890 219 t b b b b;
#X obj 1715 435 f;
#X obj 1715 390 spigot;
#X msg 1719 357 1;
#X msg 1741 357 0;
#X floatatom 1715 479 5 0 0 0 - - - 0;
#X obj 1805 435 f;
#X obj 1805 390 spigot;
#X msg 1809 357 1;
#X msg 1831 357 0;
#X floatatom 1805 479 5 0 0 0 - - - 0;
#X obj 1886 435 f;
#X obj 1886 390 spigot;
#X msg 1890 357 1;
#X msg 1912 357 0;
#X floatatom 1886 479 5 0 0 0 - - - 0;
#X obj 1635 219 t b b b b;
#X obj 1645 519 +;
#X obj 1715 519 +;
#X obj 1805 519 +;
#X floatatom 1805 564 4 0 0 0 - - - 16;
#X obj 1886 519 * 0.25;
#X floatatom 1886 556 4 0 0 0 - - - 24;
#X obj 1448 644 t b b b b;
#X obj 2035 272 spigot;
#X msg 2220 272 1;
#X obj 2217 239 sel 1;
#X msg 2249 272 0;
#X obj 2258 239 tgl 25 0 empty empty empty 17 7 0 10 #191919 #ffffff #ffffff 0 1;
#X obj 2035 338 f;
#X obj 2203 405 s ledswitch;
#X obj 2060 367 loadbang;
#X obj 2203 367 del 50;
#X obj 2203 303 sel 1 2;
#X msg 2037 367 0;
#X obj 2258 209 r mpr121_driver_ch11 @hv_param;
#X obj 2035 209 r mpr121_driver_ch10 @hv_param;
#X obj 2035 239 tgl 25 0 empty empty empty 17 7 0 10 #191919 #ffffff #ffffff 0 1;
#X obj 2069 303 tgl 25 0 empty empty empty 17 7 0 10 #191919 #e1e1e1 #e1e1e1 0 1;
#X obj 2035 303 bng 25 250 50 0 empty empty empty 17 7 0 10 #191919 #e1e1e1 #e1e1e1;
#X obj 2069 239 sel 1;
#X obj 2035 389 s audiooutgate;
#X obj 2035 502 spigot;
#X msg 2185 502 1;
#X obj 2182 469 sel 1;
#X msg 2214 502 0;
#X obj 2223 469 tgl 25 0 empty empty empty 17 7 0 10 #191919 #ffffff #ffffff 0 1;
#X obj 2035 568 f;
#X obj 2185 597 s ledswitch;
#X obj 2073 597 loadbang;
#X obj 2185 568 del 50;
#X obj 2185 533 sel 1 2;
#X msg 2048 597 0;
#X obj 2223 439 r mpr121_driver_ch11 @hv_param;
#X obj 2073 533 tgl 25 0 empty empty empty 17 7 0 10 #191919 #e1e1e1 #e1e1e1 0 1;
#X obj 2035 533 bng 25 250 50 0 empty empty empty 17 7 0 10 #191919 #e1e1e1 #e1e1e1;
#X obj 2035 469 sel 1;
#X obj 2035 439 r ext_tempo_sw;
#X obj 2035 622 s ext_tempo_tru;
#X obj 359 1094 r~ feedback;
#X obj 218 1182 hsl 162 19 0 2000 0 0 empty empty Delay\ time -2 -10 0 12 #fcfcfc #000000 #000000 0 1;
#X obj 215 1234 pack f 50;
#X obj 215 1273 line~;
#X obj 214 1509 s~ feedback;
#X obj 354 1509 *~;
#X obj 504 1509 *~;
#X obj 416 1293 vsl 15 128 0 1 0 0 empty empty empty 0 -9 0 10 #fcfcfc #000000 #000000 0 1;
#X obj 453 1424 - 1;
#X floatatom 453 1482 5 0 0 0 - - - 0;
#X obj 453 1454 * -1;
#X floatatom 414 1482 5 0 0 0 - - - 0;
#X obj 413 1576 +~;
#X text 430 1251 Mix;
#X text 453 1275 Wet;
#X text 457 1383 Dry;
#X obj 354 1213 r Knob2 @hv_param;
#X obj 268 1370 r Knob1 @hv_param;
#X obj 413 1631 dac~;
#X obj 214 1433 *~ 0.6;
#X obj 1160 1132 timer;
#X obj 1139 1086 bng 25 250 50 0 empty empty empty 17 7 0 10 #e4e4e4 #4d4d4d #373737;
#X floatatom 1160 1179 15 0 0 0 - - - 16;
#X obj 1310 1179 + 1;
#X floatatom 1301 1232 14 0 0 0 - - - 16;
#X msg 1266 1117 1;
#X obj 1160 1247 /;
#X floatatom 1160 1290 16 0 0 0 - - - 16;
#X msg 1324 1117 0;
#X obj 1214 1065 t f b b;
#X obj 1030 1220 t f f;
#X obj 1030 1271 -;
#X obj 1030 1312 f;
#X obj 1030 1349 abs;
#X obj 1030 1430 moses 2000;
#X obj 1277 1555 s led1 @hv_param;
#X obj 1324 1464 metro;
#X msg 1276 1408 0;
#X obj 1243 1012 r Button1 @hv_param;
#X floatatom 1030 1389 8 0 0 0 - - - 12;
#X obj 1194 1011 bng 25 250 50 0 empty empty empty 17 7 0 10 #e4e4e4 #4d4d4d #373737;
#X floatatom 215 1125 7 0 0 0 - - - 16;
#X obj 215 1331 vd~ tapdelay;
#X obj 359 1146 delwrite~ tapdelay 2000;
#X obj 743 1302 / 2;
#X floatatom 743 1348 10 0 0 0 - - - 16;
#X obj 750 1464 metro;
#X obj 750 1508 tgl 25 0 empty empty empty 17 7 0 10 #e4e4e4 #4d4d4d #373737 0 1;
#X obj 750 1555 s led2 @hv_param;
#X obj 678 1011 bng 25 250 50 0 empty empty empty 17 7 0 10 #e4e4e4 #4d4d4d #373737;
#X obj 504 1062 adc~;
#X obj 737 1054 t b b;
#X obj 830 1029 r Button2 @hv_param;
#X floatatom 743 1230 11 0 0 0 - - - 12;
#X obj 743 1188 float;
#X obj 650 1113 + 1;
#X floatatom 650 1152 5 0 0 0 - - - 12;
#X msg 650 1075 1;
#X obj 650 1188 % 3;
#X floatatom 650 1227 5 0 0 0 - - - 12;
#X obj 650 1263 + 1;
#X floatatom 650 1302 5 0 0 0 - - - 12;
#X msg 1324 1508 1;
#X text 1288 1292 Tap avg in ms;
#X text 593 1011 Subdivision;
#X text 1115 1011 Tap tempo;
#X text 290 1011 Delay with feedback;
#X obj 1163 1510 f;
#X text 125 877 DenisC DenisC motekulo0562 \; shared this from a pedal they made: https://github.com/motekulo/daisyPodal/blob/main/patches/pd/tap_tempo_delay.pd;
#X connect 0 0 22 0;
#X connect 0 0 55 0;
#X connect 0 1 55 0;
#X connect 0 1 23 0;
#X connect 1 0 16 0;
#X connect 2 0 1 1;
#X connect 3 0 2 0;
#X connect 3 1 4 0;
#X connect 4 0 1 1;
#X connect 5 0 3 0;
#X connect 6 0 10 0;
#X connect 6 0 18 0;
#X connect 8 0 11 0;
#X connect 9 0 7 0;
#X connect 10 0 9 0;
#X connect 10 1 9 0;
#X connect 11 0 18 0;
#X connect 12 0 5 0;
#X connect 13 0 14 0;
#X connect 14 0 17 0;
#X connect 15 0 6 0;
#X connect 16 0 15 0;
#X connect 17 0 1 0;
#X connect 19 0 22 1;
#X connect 19 0 23 1;
#X connect 20 0 21 0;
#X connect 21 0 19 0;
#X connect 22 0 84 0;
#X connect 23 0 84 1;
#X connect 24 0 30 0;
#X connect 25 0 26 1;
#X connect 26 0 25 0;
#X connect 26 0 82 0;
#X connect 27 0 26 0;
#X connect 27 0 52 0;
#X connect 27 0 54 0;
#X connect 28 0 26 0;
#X connect 30 0 29 0;
#X connect 30 0 31 0;
#X connect 32 0 45 0;
#X connect 33 0 32 1;
#X connect 34 0 33 0;
#X connect 34 1 35 0;
#X connect 35 0 32 1;
#X connect 36 0 34 0;
#X connect 37 0 47 0;
#X connect 37 0 41 0;
#X connect 39 0 42 0;
#X connect 40 0 38 0;
#X connect 41 0 40 0;
#X connect 41 1 40 0;
#X connect 42 0 47 0;
#X connect 43 0 36 0;
#X connect 44 0 37 0;
#X connect 45 0 44 0;
#X connect 46 0 32 0;
#X connect 48 0 50 0;
#X connect 49 0 60 0;
#X connect 50 0 49 1;
#X connect 51 0 53 0;
#X connect 52 0 53 0;
#X connect 54 0 51 0;
#X connect 55 0 49 0;
#X connect 56 0 71 0;
#X connect 57 0 58 0;
#X connect 58 0 59 0;
#X connect 58 0 27 0;
#X connect 58 1 56 0;
#X connect 59 0 61 0;
#X connect 60 0 81 0;
#X connect 62 0 56 1;
#X connect 63 0 62 0;
#X connect 64 0 70 0;
#X connect 65 0 66 0;
#X connect 66 0 69 0;
#X connect 67 0 68 0;
#X connect 69 0 67 0;
#X connect 70 0 46 0;
#X connect 71 0 57 0;
#X connect 72 0 75 0;
#X connect 74 0 85 0;
#X connect 75 0 73 0;
#X connect 75 0 73 1;
#X connect 76 0 83 1;
#X connect 78 0 80 0;
#X connect 79 0 74 0;
#X connect 80 0 74 0;
#X connect 81 0 63 0;
#X connect 82 0 24 1;
#X connect 82 0 28 0;
#X connect 82 1 24 0;
#X connect 83 0 78 0;
#X connect 83 0 79 0;
#X connect 85 0 75 1;
#X connect 86 0 83 0;
#X connect 87 0 91 0;
#X connect 87 0 102 0;
#X connect 87 1 92 0;
#X connect 87 1 102 0;
#X connect 88 0 91 1;
#X connect 88 0 92 1;
#X connect 89 0 90 0;
#X connect 90 0 88 0;
#X connect 91 0 93 0;
#X connect 92 0 93 1;
#X connect 95 0 97 0;
#X connect 96 0 105 0;
#X connect 97 0 96 1;
#X connect 98 0 100 0;
#X connect 99 0 100 0;
#X connect 101 0 98 0;
#X connect 102 0 96 0;
#X connect 103 0 108 0;
#X connect 104 0 147 0;
#X connect 105 0 109 0;
#X connect 106 0 103 1;
#X connect 107 0 106 0;
#X connect 108 0 104 0;
#X connect 109 0 107 0;
#X connect 110 0 114 0;
#X connect 111 0 112 1;
#X connect 112 0 111 0;
#X connect 112 0 110 0;
#X connect 113 0 112 0;
#X connect 114 0 140 0;
#X connect 114 1 122 0;
#X connect 114 2 123 0;
#X connect 114 3 124 0;
#X connect 115 0 116 0;
#X connect 115 0 126 0;
#X connect 115 0 131 0;
#X connect 115 0 136 0;
#X connect 115 0 118 0;
#X connect 117 0 121 0;
#X connect 118 0 117 0;
#X connect 119 0 118 1;
#X connect 120 0 118 1;
#X connect 121 0 141 0;
#X connect 122 0 115 0;
#X connect 122 1 115 1;
#X connect 122 2 127 0;
#X connect 122 3 120 0;
#X connect 122 3 133 0;
#X connect 122 3 138 0;
#X connect 123 0 115 0;
#X connect 123 1 115 1;
#X connect 123 2 132 0;
#X connect 123 3 138 0;
#X connect 123 3 128 0;
#X connect 123 3 120 0;
#X connect 124 0 115 0;
#X connect 124 1 115 1;
#X connect 124 2 137 0;
#X connect 124 3 133 0;
#X connect 124 3 128 0;
#X connect 124 3 120 0;
#X connect 125 0 129 0;
#X connect 126 0 125 0;
#X connect 127 0 126 1;
#X connect 128 0 126 1;
#X connect 129 0 141 1;
#X connect 130 0 134 0;
#X connect 131 0 130 0;
#X connect 132 0 131 1;
#X connect 133 0 131 1;
#X connect 134 0 142 1;
#X connect 135 0 139 0;
#X connect 136 0 135 0;
#X connect 137 0 136 1;
#X connect 138 0 136 1;
#X connect 139 0 143 1;
#X connect 140 0 115 0;
#X connect 140 1 115 1;
#X connect 140 2 119 0;
#X connect 140 3 138 0;
#X connect 140 3 133 0;
#X connect 140 3 128 0;
#X connect 141 0 142 0;
#X connect 142 0 143 0;
#X connect 143 0 145 0;
#X connect 143 0 144 0;
#X connect 145 0 146 0;
#X connect 146 0 94 0;
#X connect 147 0 112 0;
#X connect 147 1 103 0;
#X connect 147 2 99 0;
#X connect 147 3 101 0;
#X connect 148 0 163 0;
#X connect 149 0 148 1;
#X connect 150 0 149 0;
#X connect 150 1 151 0;
#X connect 151 0 148 1;
#X connect 152 0 150 0;
#X connect 153 0 157 0;
#X connect 153 0 165 0;
#X connect 155 0 158 0;
#X connect 156 0 154 0;
#X connect 157 0 156 0;
#X connect 157 1 156 0;
#X connect 158 0 165 0;
#X connect 159 0 152 0;
#X connect 160 0 161 0;
#X connect 161 0 164 0;
#X connect 162 0 153 0;
#X connect 163 0 162 0;
#X connect 164 0 148 0;
#X connect 166 0 179 0;
#X connect 167 0 166 1;
#X connect 168 0 167 0;
#X connect 168 1 169 0;
#X connect 169 0 166 1;
#X connect 170 0 168 0;
#X connect 171 0 182 0;
#X connect 171 0 175 0;
#X connect 173 0 176 0;
#X connect 174 0 172 0;
#X connect 175 0 174 0;
#X connect 175 1 174 0;
#X connect 176 0 182 0;
#X connect 177 0 170 0;
#X connect 178 0 171 0;
#X connect 179 0 178 0;
#X connect 180 0 166 0;
#X connect 181 0 180 0;
#X connect 183 0 226 0;
#X connect 184 0 185 0;
#X connect 185 0 186 0;
#X connect 186 0 225 0;
#X connect 188 0 195 0;
#X connect 189 0 195 1;
#X connect 190 0 191 0;
#X connect 190 0 194 0;
#X connect 191 0 193 0;
#X connect 192 0 189 1;
#X connect 193 0 192 0;
#X connect 194 0 188 1;
#X connect 195 0 201 0;
#X connect 195 0 201 1;
#X connect 199 0 190 0;
#X connect 200 0 202 1;
#X connect 202 0 187 0;
#X connect 203 0 205 0;
#X connect 204 0 203 0;
#X connect 204 0 211 0;
#X connect 204 0 219 0 32.................QD...jM...PDA...YC...fZ....;
#X connect 205 0 209 0;
#X connect 205 0 213 0;
#X connect 206 0 207 0;
#X connect 207 0 209 1;
#X connect 207 0 206 1 48.................V....rF...fE....qA...P5+++OE....j9+++SA...fs++++;
#X connect 208 0 206 0;
#X connect 209 0 210 0;
#X connect 210 0 219 1 32.................t....rM...fK....aC...7M....;
#X connect 210 0 237 1;
#X connect 210 0 224 0;
#X connect 210 0 250 0;
#X connect 211 0 207 0;
#X connect 211 0 206 1;
#X connect 212 1 203 1;
#X connect 212 2 208 0;
#X connect 213 0 214 1;
#X connect 213 1 214 0;
#X connect 214 0 215 0;
#X connect 215 0 216 0;
#X connect 216 0 222 0;
#X connect 217 1 204 0 48.................J....PA...fB....T.....m++++U....v4+++eE...fe9+++;
#X connect 219 0 245 0;
#X connect 220 0 219 0 32......................7D.........OA...z.....;
#X connect 221 0 212 0;
#X connect 222 0 217 0;
#X connect 223 0 212 0;
#X connect 224 0 184 0;
#X connect 225 0 188 0;
#X connect 225 0 202 0;
#X connect 227 0 228 0;
#X connect 228 0 229 1;
#X connect 228 0 229 0;
#X connect 228 0 224 0;
#X connect 229 0 230 0;
#X connect 230 0 231 0;
#X connect 232 0 234 0;
#X connect 232 0 240 0;
#X connect 233 0 189 0;
#X connect 233 0 226 0;
#X connect 234 0 237 0;
#X connect 234 1 240 0;
#X connect 235 0 234 0;
#X connect 236 0 227 0;
#X connect 237 0 236 0;
#X connect 238 0 239 0;
#X connect 239 0 238 1 48.................J....zB...fB....s....b7+++uA....G++++a.....y++++;
#X connect 239 0 241 0;
#X connect 240 0 238 0;
#X connect 241 0 242 0;
#X connect 242 0 243 0;
#X connect 243 0 244 0;
#X connect 244 0 227 1;
#X connect 245 0 218 0;
