#N canvas 827 239 734 565 12;
#X obj 26 265 r~ feedback;
#X obj 169 303 hsl 128 17 0 1 0 0 empty empty empty -2 -8 0 10 #191919 #ffffff #ffffff 0 1;
#X msg 146 329 \$1 20;
#X obj 146 356 line~;
#X obj 146 412 mtof~;
#X obj 26 443 *~;
#X obj 146 384 *~ 127;
#X obj 169 484 hsl 128 17 0 1 0 0 empty empty empty -2 -8 0 10 #191919 #ffffff #ffffff 0 1;
#X obj 146 463 r knob1 @hv_param;
#X msg 146 510 \$1 20;
#X obj 146 537 line~;
#X obj 146 593 mtof~;
#X obj 146 565 *~ 127;
#X obj 26 647 +~;
#X obj 26 688 osc~ 200;
#X obj 427 168 hsl 128 17 0 1 0 0 empty empty empty -2 -8 0 10 #191919 #ffffff #ffffff 0 1;
#X msg 406 275 \$1 20;
#X obj 406 306 line~;
#X obj 406 390 mtof~;
#X obj 361 443 *~;
#X obj 406 362 *~ 127;
#X obj 361 747 +~;
#X obj 361 788 osc~ 200;
#X obj 386 823 send~ feedback;
#X obj 73 880 *~ 0.5;
#X obj 73 1042 dac~;
#X obj 262 945 hsl 128 17 0 1 0 0 empty empty empty -2 -8 0 10 #191919 #ffffff #ffffff 0 1;
#X msg 239 971 \$1 20;
#X obj 239 998 line~;
#X obj 73 957 *~;
#X obj 596 868 *~;
#X obj 808 424 sel 0;
#X obj 646 356 moses 0.01;
#X obj 596 836 line~;
#X obj 596 453 / 127;
#X obj 596 766 pack;
#X msg 596 795 \$1 \$2;
#X obj 640 585 line~;
#X msg 640 560 \$1 10;
#X obj 640 658 snapshot~;
#X obj 708 634 metro 10;
#X obj 720 599 loadbang, f 9;
#X obj 640 693 change;
#X msg 710 693 5;
#X obj 806 766 pack;
#X msg 806 795 \$1 \$2;
#X obj 844 585 line~;
#X msg 844 560 \$1 10;
#X obj 844 658 snapshot~;
#X obj 912 634 metro 10;
#X obj 924 599 loadbang, f 9;
#X obj 844 693 change;
#X msg 914 693 5;
#X msg 808 453 0;
#X text 643 485 attack;
#X text 844 485 decay;
#X obj 640 615 *~ 100;
#X obj 844 615 *~ 200;
#X obj 73 924 *~;
#X obj 669 537 hsl 128 17 0 1 0 0 empty empty empty -2 -8 0 10 #191919 #ffffff #ffffff 0 1;
#X obj 871 537 hsl 128 17 0 1 0 0 empty empty empty -2 -8 0 10 #191919 #ffffff #ffffff 0 1;
#X obj 706 250 bng 25 250 50 0 empty empty empty 17 7 0 10 #191919 #ffffff #ffffff;
#X msg 708 320 0;
#X obj 706 292 del;
#X obj 474 243 random 1000;
#X obj 474 306 *~ 0.001;
#X obj 474 275 sig~;
#X obj 230 167 bng 25 250 50 0 empty empty empty 17 7 0 10 #191919 #ffffff #ffffff;
#X obj 146 282 r knob0 @hv_param;
#X obj 239 924 r faderleft @hv_param;
#X obj 404 147 r knob2 @hv_param;
#X obj 640 513 r knob4 @hv_param;
#X obj 844 513 r knob5 @hv_param;
#X obj 1019 14 cnv 15 1116 540 empty empty TOUCHPADS\ gain 20 12 0 14 #626262 #ffffff 0;
#X obj 1481 157 sel 0 1;
#X msg 1483 188 0;
#X obj 1481 120 tgl 25 0 empty empty empty 17 7 0 10 #191919 #ffffff #ffffff 0 1;
#X obj 1481 95 change;
#X obj 632 19 notein;
#X obj 632 133 sig~;
#X obj 1495 241 s padnote;
#X obj 1481 265 s padoff;
#X obj 726 19 r padnote;
#X obj 706 209 r padoff;
#X obj 1261 157 sel 0 1;
#X msg 1263 188 0;
#X obj 1261 120 tgl 25 0 empty empty empty 17 7 0 10 #191919 #ffffff #ffffff 0 1;
#X obj 1261 95 change;
#X obj 1275 241 s padnote;
#X obj 1261 265 s padoff;
#X obj 1041 64 r mpr121_driver_ch3 @hv_param;
#X obj 1041 157 sel 0 1;
#X msg 1043 188 0;
#X obj 1041 120 tgl 25 0 empty empty empty 17 7 0 10 #191919 #ffffff #ffffff 0 1;
#X obj 1041 95 change;
#X obj 1055 241 s padnote;
#X msg 1055 214 36;
#X obj 1041 265 s padoff;
#X obj 1261 64 r mpr121_driver_ch4 @hv_param;
#X obj 1481 64 r mpr121_driver_ch5 @hv_param;
#X msg 1275 214 37;
#X msg 1495 214 38;
#X obj 216 130 sel 0 1;
#X obj 216 93 tgl 25 0 empty empty empty 17 7 0 10 #191919 #ffffff #ffffff 0 1;
#X obj 216 68 change;
#X obj 1930 157 sel 0 1;
#X msg 1932 188 0;
#X obj 1930 120 tgl 25 0 empty empty empty 17 7 0 10 #191919 #ffffff #ffffff 0 1;
#X obj 1930 95 change;
#X obj 1944 241 s padnote;
#X obj 1930 265 s padoff;
#X obj 1710 157 sel 0 1;
#X msg 1712 188 0;
#X obj 1710 120 tgl 25 0 empty empty empty 17 7 0 10 #191919 #ffffff #ffffff 0 1;
#X obj 1710 95 change;
#X obj 1724 241 s padnote;
#X obj 1710 265 s padoff;
#X obj 1710 64 r mpr121_driver_ch6 @hv_param;
#X obj 1930 64 r mpr121_driver_ch7 @hv_param;
#X msg 1724 214 39;
#X msg 1944 214 40;
#X obj 1601 417 sel 0 1;
#X msg 1603 448 0;
#X obj 1601 380 tgl 25 0 empty empty empty 17 7 0 10 #191919 #ffffff #ffffff 0 1;
#X obj 1601 355 change;
#X obj 1615 501 s padnote;
#X obj 1601 525 s padoff;
#X obj 1381 417 sel 0 1;
#X msg 1383 448 0;
#X obj 1381 380 tgl 25 0 empty empty empty 17 7 0 10 #191919 #ffffff #ffffff 0 1;
#X obj 1381 355 change;
#X obj 1395 501 s padnote;
#X obj 1381 525 s padoff;
#X obj 1381 324 r mpr121_driver_ch8 @hv_param;
#X msg 1395 474 41;
#X msg 1615 474 42;
#X obj 1601 324 r mpr121_driver_ch9 @hv_param;
#X msg 726 166 100;
#X obj 688 112 +;
#X obj 808 102 f;
#X obj 853 19 r noterange;
#X obj 808 52 bng 25 250 50 0 empty empty empty 17 7 0 10 #191919 #ffffff #ffffff;
#X obj 632 166 /~ 127;
#X obj 73 1003 hv.compressor~ 60 2;
#X obj 404 218 sel 0;
#X msg 406 243 0;
#X obj 406 335 +~;
#X obj 404 191 moses 0.001;
#X obj 429 464 hsl 128 17 0 1 0 0 empty empty empty -2 -8 0 10 #191919 #ffffff #ffffff 0 1;
#X msg 408 571 \$1 20;
#X obj 408 602 line~;
#X obj 408 731 mtof~;
#X obj 476 539 random 1000;
#X obj 476 602 *~ 0.001;
#X obj 476 571 sig~;
#X obj 406 514 sel 0;
#X msg 408 539 0;
#X obj 408 631 +~;
#X obj 406 487 moses 0.001;
#X obj 408 703 *~ 64;
#X obj 406 443 r knob3 @hv_param;
#X obj 408 670 +~;
#X obj 547 602 sig~;
#X obj 13 167 bng 25 250 50 0 empty empty empty 17 7 0 10 #191919 #ffffff #ffffff;
#X obj -1 130 sel 0 1;
#X obj -1 93 tgl 25 0 empty empty empty 17 7 0 10 #191919 #ffffff #ffffff 0 1;
#X obj -1 68 change;
#X obj -1 37 r mpr121_driver_ch0 @hv_param;
#X obj 216 37 r mpr121_driver_ch2 @hv_param;
#X msg 1123 791 0;
#X msg 1069 791 1;
#X msg 1195 791 1;
#X msg 1265 791 0;
#X obj 1066 880 s daisyled @hv_param;
#X text 1066 596 short led sequence;
#X obj 1121 757 del 300;
#X obj 1192 757 del 400;
#X obj 1263 757 del 500;
#X obj 1066 757 del 5;
#X obj 1066 620 r ledswitchshort;
#X obj 1066 674 bng 25 250 50 0 empty empty empty 17 7 0 10 #191919 #e1e1e1 #e1e1e1;
#X obj 69 133 s ledswitchshort;
#X obj 286 130 s ledswitchshort;
#X text 145 6 random knob 2 and 3;
#X connect 0 0 5 0;
#X connect 1 0 2 0;
#X connect 2 0 3 0;
#X connect 3 0 6 0;
#X connect 4 0 5 1;
#X connect 5 0 13 0;
#X connect 6 0 4 0;
#X connect 7 0 9 0;
#X connect 8 0 9 0;
#X connect 9 0 10 0;
#X connect 10 0 12 0;
#X connect 11 0 13 1;
#X connect 12 0 11 0;
#X connect 13 0 14 0;
#X connect 14 0 19 0;
#X connect 15 0 147 0;
#X connect 16 0 17 0;
#X connect 17 0 146 0;
#X connect 18 0 19 1;
#X connect 19 0 21 0;
#X connect 20 0 18 0;
#X connect 21 0 22 0;
#X connect 22 0 23 0;
#X connect 22 0 24 0;
#X connect 24 0 58 0;
#X connect 26 0 27 0;
#X connect 27 0 28 0;
#X connect 28 0 29 1;
#X connect 29 0 143 0;
#X connect 30 0 58 1;
#X connect 31 0 53 0;
#X connect 32 0 31 0;
#X connect 32 1 34 0;
#X connect 33 0 30 0;
#X connect 33 0 30 1;
#X connect 34 0 35 0;
#X connect 35 0 36 0;
#X connect 36 0 33 0;
#X connect 37 0 56 0;
#X connect 38 0 37 0;
#X connect 39 0 42 0;
#X connect 40 0 39 0;
#X connect 41 0 40 0;
#X connect 41 0 43 0;
#X connect 42 0 35 1;
#X connect 43 0 35 1;
#X connect 44 0 45 0;
#X connect 45 0 33 0;
#X connect 46 0 57 0;
#X connect 47 0 46 0;
#X connect 48 0 51 0;
#X connect 49 0 48 0;
#X connect 50 0 49 0;
#X connect 50 0 52 0;
#X connect 51 0 44 1;
#X connect 51 0 63 1;
#X connect 52 0 44 1;
#X connect 53 0 44 0;
#X connect 56 0 39 0;
#X connect 57 0 48 0;
#X connect 58 0 29 0;
#X connect 59 0 38 0;
#X connect 60 0 47 0;
#X connect 61 0 63 0;
#X connect 62 0 32 0;
#X connect 63 0 62 0;
#X connect 64 0 66 0;
#X connect 65 0 146 1;
#X connect 66 0 65 0;
#X connect 67 0 152 0;
#X connect 67 0 182 0;
#X connect 68 0 2 0;
#X connect 69 0 27 0;
#X connect 70 0 147 0;
#X connect 71 0 38 0;
#X connect 72 0 47 0;
#X connect 74 0 75 0;
#X connect 74 1 101 0;
#X connect 75 0 81 0;
#X connect 76 0 74 0;
#X connect 77 0 76 0;
#X connect 78 0 79 0;
#X connect 78 1 32 0;
#X connect 79 0 142 0;
#X connect 82 0 141 0;
#X connect 82 0 137 0;
#X connect 82 0 138 0;
#X connect 83 0 61 0;
#X connect 84 0 85 0;
#X connect 84 1 100 0;
#X connect 85 0 89 0;
#X connect 86 0 84 0;
#X connect 87 0 86 0;
#X connect 90 0 94 0;
#X connect 91 0 92 0;
#X connect 91 1 96 0;
#X connect 92 0 97 0;
#X connect 93 0 91 0;
#X connect 94 0 93 0;
#X connect 96 0 95 0;
#X connect 98 0 87 0;
#X connect 99 0 77 0;
#X connect 100 0 88 0;
#X connect 101 0 80 0;
#X connect 102 1 67 0;
#X connect 103 0 102 0;
#X connect 104 0 103 0;
#X connect 105 0 106 0;
#X connect 105 1 120 0;
#X connect 106 0 110 0;
#X connect 107 0 105 0;
#X connect 108 0 107 0;
#X connect 111 0 112 0;
#X connect 111 1 119 0;
#X connect 112 0 116 0;
#X connect 113 0 111 0;
#X connect 114 0 113 0;
#X connect 117 0 114 0;
#X connect 118 0 108 0;
#X connect 119 0 115 0;
#X connect 120 0 109 0;
#X connect 121 0 122 0;
#X connect 121 1 135 0;
#X connect 122 0 126 0;
#X connect 123 0 121 0;
#X connect 124 0 123 0;
#X connect 127 0 128 0;
#X connect 127 1 134 0;
#X connect 128 0 132 0;
#X connect 129 0 127 0;
#X connect 130 0 129 0;
#X connect 133 0 130 0;
#X connect 134 0 131 0;
#X connect 135 0 125 0;
#X connect 136 0 124 0;
#X connect 137 0 32 0;
#X connect 138 0 79 0;
#X connect 139 0 138 1;
#X connect 140 0 139 1;
#X connect 140 0 139 0;
#X connect 141 0 139 0;
#X connect 141 0 138 0;
#X connect 142 0 161 1;
#X connect 143 0 25 0;
#X connect 143 0 25 1;
#X connect 144 0 145 0;
#X connect 145 0 66 0;
#X connect 146 0 20 0;
#X connect 147 0 144 0;
#X connect 147 1 16 0;
#X connect 148 0 158 0;
#X connect 149 0 150 0;
#X connect 150 0 157 0;
#X connect 151 0 21 1;
#X connect 152 0 154 0;
#X connect 153 0 157 1;
#X connect 154 0 153 0;
#X connect 155 0 156 0;
#X connect 156 0 154 0;
#X connect 156 0 162 0;
#X connect 157 0 161 0;
#X connect 158 0 155 0;
#X connect 158 1 149 0;
#X connect 159 0 151 0;
#X connect 160 0 158 0;
#X connect 161 0 159 0;
#X connect 162 0 157 0;
#X connect 163 0 64 0;
#X connect 163 0 181 0;
#X connect 164 1 163 0;
#X connect 165 0 164 0;
#X connect 166 0 165 0;
#X connect 167 0 166 0;
#X connect 168 0 104 0;
#X connect 169 0 173 0;
#X connect 170 0 173 0;
#X connect 171 0 173 0;
#X connect 172 0 173 0;
#X connect 175 0 169 0;
#X connect 176 0 171 0;
#X connect 177 0 172 0;
#X connect 178 0 170 0;
#X connect 179 0 180 0;
#X connect 180 0 178 0;
#X connect 180 0 175 0;
#X connect 180 0 176 0;
#X connect 180 0 177 0;
