#N canvas 827 239 734 565 12;
#X obj 1477 -511 cnv 15 1278 698 empty empty TOUCHPADS 20 12 0 14 #626262 #ffffff 0;
#X obj 319 261 r~ feedback;
#X obj 319 439 *~;
#X obj 507 483 hsl 128 17 0 1 0 0 empty empty empty -2 -8 0 10 #191919 #ffffff #ffffff 0 1;
#X obj 439 459 r knob1 @hv_param;
#X msg 439 506 \$1 20;
#X obj 439 533 line~;
#X obj 439 589 mtof~;
#X obj 439 561 *~ 127;
#X obj 319 643 +~;
#X obj 319 684 osc~ 200;
#X obj 798 164 hsl 128 17 0 1 0 0 empty empty empty -2 -8 0 10 #191919 #ffffff #ffffff 0 1;
#X msg 774 271 \$1 20;
#X obj 774 302 line~;
#X obj 774 386 mtof~;
#X obj 654 439 *~;
#X obj 774 358 *~ 127;
#X obj 654 743 +~;
#X obj 654 784 osc~ 200;
#X obj 679 819 send~ feedback;
#X obj 654 906 *~ 0.5;
#X obj 654 1094 dac~;
#X obj 802 880 hsl 128 17 0 1 0 0 empty empty empty -2 -8 0 10 #191919 #ffffff #ffffff 0 1;
#X msg 779 906 \$1 20;
#X obj 779 933 line~;
#X obj 654 1009 *~;
#X obj 1089 864 *~;
#X obj 1301 420 sel 0;
#X obj 1139 352 moses 0.01;
#X obj 1089 832 line~;
#X obj 1089 449 / 127;
#X obj 1089 762 pack;
#X msg 1089 791 \$1 \$2;
#X obj 1133 581 line~;
#X msg 1133 556 \$1 10;
#X obj 1133 654 snapshot~;
#X obj 1201 630 metro 10;
#X obj 1213 595 loadbang, f 9;
#X obj 1133 689 change;
#X msg 1203 689 5;
#X obj 1299 762 pack;
#X msg 1299 791 \$1 \$2;
#X obj 1337 581 line~;
#X msg 1337 556 \$1 10;
#X obj 1337 654 snapshot~;
#X obj 1405 630 metro 10;
#X obj 1417 595 loadbang, f 9;
#X obj 1337 689 change;
#X msg 1407 689 5;
#X msg 1301 449 0;
#X text 1136 481 attack;
#X text 1337 481 decay;
#X obj 1133 611 *~ 100;
#X obj 1337 611 *~ 200;
#X obj 654 950 *~;
#X obj 1162 533 hsl 128 17 0 1 0 0 empty empty empty -2 -8 0 10 #191919 #ffffff #ffffff 0 1;
#X obj 1364 533 hsl 128 17 0 1 0 0 empty empty empty -2 -8 0 10 #191919 #ffffff #ffffff 0 1;
#X obj 1199 194 bng 25 250 50 0 empty empty empty 17 7 0 10 #191919 #ffffff #ffffff;
#X msg 1201 291 0;
#X obj 1199 263 del;
#X obj 842 239 random 1000;
#X obj 842 302 *~ 0.001;
#X obj 842 271 sig~;
#X obj 225 732 bng 25 250 50 0 empty empty empty 17 7 0 10 #191919 #ffffff #ffffff;
#X obj 779 859 r faderleft @hv_param;
#X obj 772 143 r knob2 @hv_param;
#X obj 1133 509 r knob4 @hv_param;
#X obj 1337 509 r knob5 @hv_param;
#X obj 2333 6 change;
#X obj 2543 6 change;
#X obj 2469 -37 ==;
#X obj 2469 6 change;
#X obj 2469 -74 t b f;
#X obj 2333 -122 r toggle2down_press @hv_param;
#X obj 2543 -122 r toggle2up_press @hv_param;
#X obj 2374 -37 tgl 25 0 empty empty empty 17 7 0 10 #191919 #ffffff #ffffff 0 1;
#X obj 1939 -368 sel 0 1;
#X msg 1941 -337 0;
#X obj 1939 -405 tgl 25 0 empty empty empty 17 7 0 10 #191919 #ffffff #ffffff 0 1;
#X obj 1939 -430 change;
#X obj 1125 -85 notein;
#X obj 1125 29 sig~;
#X msg 1521 -759 36;
#X msg 1541 -739 38;
#X msg 1561 -719 42;
#X msg 1581 -699 46;
#X msg 1601 -679 48;
#X msg 1621 -659 49;
#X msg 1641 -639 51;
#X msg 1397 -600 36;
#X msg 1428 -600 37;
#X msg 1460 -600 38;
#X msg 1498 -600 39;
#X msg 1530 -600 40;
#X msg 1563 -600 41;
#X msg 1595 -600 42;
#X obj 1953 -284 s padnote;
#X obj 1939 -260 s padoff;
#X obj 1219 -85 r padnote;
#X obj 1199 155 r padoff;
#X obj 1719 -368 sel 0 1;
#X msg 1721 -337 0;
#X obj 1719 -405 tgl 25 0 empty empty empty 17 7 0 10 #191919 #ffffff #ffffff 0 1;
#X obj 1719 -430 change;
#X obj 1733 -284 s padnote;
#X obj 1719 -260 s padoff;
#X obj 1499 -461 r mpr121_driver_ch3 @hv_param;
#X obj 1499 -368 sel 0 1;
#X msg 1501 -337 0;
#X obj 1499 -405 tgl 25 0 empty empty empty 17 7 0 10 #191919 #ffffff #ffffff 0 1;
#X obj 1499 -430 change;
#X obj 1513 -284 s padnote;
#X msg 1513 -311 36;
#X obj 1499 -260 s padoff;
#X obj 1719 -461 r mpr121_driver_ch4 @hv_param;
#X obj 1939 -461 r mpr121_driver_ch5 @hv_param;
#X msg 1733 -311 37;
#X msg 1953 -311 38;
#X obj 278 180 sel 0 1;
#X obj 278 143 tgl 25 0 empty empty empty 17 7 0 10 #191919 #ffffff #ffffff 0 1;
#X obj 278 118 change;
#X obj 2388 -368 sel 0 1;
#X msg 2390 -337 0;
#X obj 2388 -405 tgl 25 0 empty empty empty 17 7 0 10 #191919 #ffffff #ffffff 0 1;
#X obj 2388 -430 change;
#X obj 2402 -284 s padnote;
#X obj 2388 -260 s padoff;
#X obj 2168 -368 sel 0 1;
#X msg 2170 -337 0;
#X obj 2168 -405 tgl 25 0 empty empty empty 17 7 0 10 #191919 #ffffff #ffffff 0 1;
#X obj 2168 -430 change;
#X obj 2182 -284 s padnote;
#X obj 2168 -260 s padoff;
#X obj 2168 -461 r mpr121_driver_ch6 @hv_param;
#X obj 2388 -461 r mpr121_driver_ch7 @hv_param;
#X msg 2182 -311 39;
#X msg 2402 -311 40;
#X obj 2059 -108 sel 0 1;
#X msg 2061 -77 0;
#X obj 2059 -145 tgl 25 0 empty empty empty 17 7 0 10 #191919 #ffffff #ffffff 0 1;
#X obj 2059 -170 change;
#X obj 2073 -24 s padnote;
#X obj 2059 0 s padoff;
#X obj 1839 -108 sel 0 1;
#X msg 1841 -77 0;
#X obj 1839 -145 tgl 25 0 empty empty empty 17 7 0 10 #191919 #ffffff #ffffff 0 1;
#X obj 1839 -170 change;
#X obj 1853 -24 s padnote;
#X obj 1839 0 s padoff;
#X obj 1839 -201 r mpr121_driver_ch8 @hv_param;
#X msg 1853 -51 41;
#X msg 2073 -51 42;
#X obj 2059 -201 r mpr121_driver_ch9 @hv_param;
#X msg 1219 87 100;
#X obj 1181 8 +;
#X obj 1301 -2 f;
#X obj 1346 -85 r noterange;
#X obj 1301 -52 bng 25 250 50 0 empty empty empty 17 7 0 10 #191919 #ffffff #ffffff;
#X obj 2450 134 s noterange;
#X msg 2333 42 0, f 9;
#X msg 2543 42 14, f 9;
#X obj 2225 -55 loadbang;
#X obj 1125 87 /~ 127;
#X obj 654 1055 hv.compressor~ 60 2;
#X obj 772 214 sel 0;
#X msg 774 239 0;
#X obj 774 331 +~;
#X obj 772 187 moses 0.001;
#X obj 777 459 hsl 128 17 0 1 0 0 empty empty empty -2 -8 0 10 #191919 #ffffff #ffffff 0 1;
#X msg 776 567 \$1 20;
#X obj 776 598 line~;
#X obj 776 722 mtof~;
#X obj 844 535 random 1000;
#X obj 844 598 *~ 0.001;
#X obj 844 567 sig~;
#X obj 774 510 sel 0;
#X msg 776 535 0;
#X obj 776 627 +~;
#X obj 774 483 moses 0.001;
#X obj 776 694 *~ 64;
#X obj 774 439 r knob3 @hv_param;
#X obj 776 666 +~;
#X obj 913 598 sig~;
#X obj 148 732 bng 25 250 50 0 empty empty empty 17 7 0 10 #191919 #ffffff #ffffff;
#X obj 61 180 sel 0 1;
#X obj 61 143 tgl 25 0 empty empty empty 17 7 0 10 #191919 #ffffff #ffffff 0 1;
#X obj 61 118 change;
#X obj 61 87 r mpr121_driver_ch0 @hv_param;
#X obj 278 87 r mpr121_driver_ch2 @hv_param;
#X text 413 683 sine osc 1;
#X text 732 783 sine osc 2;
#X text 799 818 send feedback to FModulate osc1;
#X text 937 142 osc 1 modulates osc 2;
#X obj 504 589 send~ Bfreqval;
#X obj 833 386 send~ Cfreqval;
#X obj 835 722 send~ Dfreqval;
#X obj 497 1262 tgl 19 0 empty empty empty 17 7 0 10 #dfdfdf #000000 #000000 0 1;
#X obj 859 1476 bng 19 250 50 0 empty empty empty 17 7 0 10 #dfdfdf #000000 #000000;
#X obj 658 1435 bng 19 250 50 0 empty empty empty 17 7 0 10 #dfdfdf #000000 #000000;
#X obj 603 1406 metro 1 120 permin, f 19;
#X msg 637 1355 tempo \$1 permin;
#X obj 637 1467 timer;
#X obj 660 1221 hsl 128 17 0 1 0 0 empty empty empty -2 -8 0 10 #191919 #ffffff #ffffff 0 1;
#X msg 637 1247 \$1 20;
#X obj 637 1316 * 180;
#X obj 637 1279 line;
#X obj 856 1410 >=;
#X msg 869 1356 4;
#X obj 856 1445 sel 1;
#X text 637 1167 tempo fader right;
#X text 413 1167 sequencer on / off;
#X msg 950 1356 16;
#X text 908 1409 sequence step lenght;
#X text 2479 -153 touchpads notes range;
#X msg 2469 42 7, f 9;
#X obj 1120 1260 change;
#X obj 1330 1260 change;
#X obj 1256 1217 ==;
#X obj 1256 1260 change;
#X obj 1256 1180 t b f;
#X obj 1161 1217 tgl 25 0 empty empty empty 17 7 0 10 #191919 #ffffff #ffffff 0 1;
#X obj 1012 1199 loadbang;
#X obj 1120 1132 r toggle1left_press @hv_param;
#X obj 1330 1132 r toggle1right_press @hv_param;
#X text 1266 1101 seq step length toggle;
#X obj 339 840 tgl 25 0 empty empty empty 17 7 0 10 #191919 #ffffff #ffffff 0 1;
#X obj 339 815 change;
#X obj 339 784 r mpr121_driver_ch11 @hv_param;
#X obj 339 994 s recbang;
#X obj 637 1200 r faderright @hv_param;
#X obj 1260 87 r seqstepon;
#X obj 1260 155 r seqstepoff;
#X obj 441 1406 s seqstepon;
#X obj 441 1528 s seqstepoff;
#X obj 242 826 bng 55 250 50 0 empty empty empty 17 7 0 10 #501a1a #ffffff #ffffff;
#X msg 909 1356 6;
#X obj 413 1256 tgl 25 0 empty empty empty 17 7 0 10 #191919 #ffffff #ffffff 0 1;
#X obj 413 1231 change;
#X obj 413 1200 r mpr121_driver_ch10 @hv_param;
#X obj 454 1262 sel 1;
#X floatatom 585 1471 5 0 0 0 - - - 0;
#X obj 585 1502 s step;
#X obj 354 567 r~ Bfv;
#X obj 695 415 r~ Cfv;
#X obj 695 703 r~ Dfv;
#X obj 242 895 tgl 55 0 empty empty empty 17 7 0 10 #191919 #ffffff #ffffff 0 1;
#X obj -342 673 samphold~;
#X obj -138 732 send~ Cfv;
#X obj -38 732 send~ Dfv;
#X obj -243 673 samphold~;
#X obj -138 673 samphold~;
#X obj -38 673 samphold~;
#X obj -342 639 r~ Afreqval;
#X obj -138 639 r~ Cfreqval;
#X obj -243 639 r~ Bfreqval;
#X obj -38 639 r~ Dfreqval;
#X obj -403 704 sel 1;
#X obj -342 704 samphold~;
#X obj -243 704 samphold~;
#X obj -138 704 samphold~;
#X obj -38 704 samphold~;
#X obj -494 673 r recbang;
#X obj -494 704 sel 1;
#X obj -243 732 send~ Bfv;
#X obj -403 639 r step;
#X msg -494 732 reset;
#X msg -403 732 reset;
#X obj -403 673 == 3;
#X obj -342 541 samphold~;
#X obj -138 600 send~ Cfv;
#X obj -38 600 send~ Dfv;
#X obj -243 541 samphold~;
#X obj -138 541 samphold~;
#X obj -38 541 samphold~;
#X obj -342 507 r~ Afreqval;
#X obj -138 507 r~ Cfreqval;
#X obj -243 507 r~ Bfreqval;
#X obj -38 507 r~ Dfreqval;
#X obj -403 572 sel 1;
#X obj -342 572 samphold~;
#X obj -243 572 samphold~;
#X obj -138 572 samphold~;
#X obj -38 572 samphold~;
#X obj -494 541 r recbang;
#X obj -494 572 sel 1;
#X obj -243 600 send~ Bfv;
#X obj -403 507 r step;
#X msg -494 600 reset;
#X msg -403 600 reset;
#X obj -342 400 samphold~;
#X obj -138 459 send~ Cfv;
#X obj -38 459 send~ Dfv;
#X obj -243 400 samphold~;
#X obj -138 400 samphold~;
#X obj -38 400 samphold~;
#X obj -342 366 r~ Afreqval;
#X obj -138 366 r~ Cfreqval;
#X obj -243 366 r~ Bfreqval;
#X obj -38 366 r~ Dfreqval;
#X obj -403 431 sel 1;
#X obj -342 431 samphold~;
#X obj -243 431 samphold~;
#X obj -138 431 samphold~;
#X obj -38 431 samphold~;
#X obj -494 400 r recbang;
#X obj -494 431 sel 1;
#X obj -243 459 send~ Bfv;
#X obj -403 366 r step;
#X msg -494 459 reset;
#X msg -403 459 reset;
#X obj -403 400 == 1;
#X obj -403 541 == 2;
#X text 182 844 rec on;
#X text 182 913 seq on;
#X obj -342 459 send~ Afv1;
#X obj -342 600 send~ Afv2;
#X obj -342 732 send~ Afv3;
#X obj 354 302 r~ Afv1;
#X obj 354 338 r~ Afv2;
#X obj 357 366 r~ Afv3;
#X obj 357 402 r~ Afv4;
#X obj 441 1492 del 100;
#X obj -567 1164 samphold~;
#X obj -650 1109 r~ Afreqval;
#X obj -470 1109 sel 1;
#X obj -470 1221 samphold~;
#X obj -567 1050 r recbang;
#X obj -567 1081 sel 1;
#X obj -470 1078 == 4;
#X obj -470 1044 r step;
#X msg -567 1109 reset;
#X msg -470 1164 reset;
#X obj -470 1293 send~ Afv4;
#X obj -136 1058 hsl 128 17 0 1 0 0 empty empty empty -2 -8 0 10 #191919 #ffffff #ffffff 0 1;
#X msg -187 1081 \$1 20;
#X obj -187 1108 line~;
#X obj -187 1164 mtof~;
#X obj -187 1136 *~ 127;
#X obj -187 1034 r knob0 @hv_param;
#X obj -187 1198 send~ Afreqval;
#X obj -280 1349 snapshot~;
#X obj -280 1247 tgl 25 0 empty empty empty 17 7 0 10 #191919 #e1e1e1 #e1e1e1 0 1;
#X obj -280 1279 metro 10;
#X obj -280 1377 print;
#X obj 339 906 metro 10;
#X msg 342 941 1;
#X connect 1 0 2 0;
#X connect 2 0 9 0;
#X connect 3 0 5 0;
#X connect 4 0 5 0;
#X connect 5 0 6 0;
#X connect 6 0 8 0;
#X connect 7 0 193 0;
#X connect 8 0 7 0;
#X connect 9 0 10 0;
#X connect 10 0 15 0;
#X connect 11 0 167 0;
#X connect 12 0 13 0;
#X connect 13 0 166 0;
#X connect 14 0 194 0;
#X connect 15 0 17 0;
#X connect 16 0 14 0;
#X connect 17 0 18 0;
#X connect 18 0 19 0;
#X connect 18 0 20 0;
#X connect 20 0 54 0;
#X connect 22 0 23 0;
#X connect 23 0 24 0;
#X connect 24 0 25 1;
#X connect 25 0 163 0;
#X connect 26 0 54 1;
#X connect 27 0 49 0;
#X connect 28 0 27 0;
#X connect 28 1 30 0;
#X connect 29 0 26 0;
#X connect 29 0 26 1;
#X connect 30 0 31 0;
#X connect 31 0 32 0;
#X connect 32 0 29 0;
#X connect 33 0 52 0;
#X connect 34 0 33 0;
#X connect 35 0 38 0;
#X connect 36 0 35 0;
#X connect 37 0 36 0;
#X connect 37 0 39 0;
#X connect 38 0 31 1;
#X connect 39 0 31 1;
#X connect 40 0 41 0;
#X connect 41 0 29 0;
#X connect 42 0 53 0;
#X connect 43 0 42 0;
#X connect 44 0 47 0;
#X connect 45 0 44 0;
#X connect 46 0 45 0;
#X connect 46 0 48 0;
#X connect 47 0 40 1;
#X connect 47 0 59 1;
#X connect 48 0 40 1;
#X connect 49 0 40 0;
#X connect 52 0 35 0;
#X connect 53 0 44 0;
#X connect 54 0 25 0;
#X connect 55 0 34 0;
#X connect 56 0 43 0;
#X connect 57 0 59 0;
#X connect 58 0 28 0;
#X connect 59 0 58 0;
#X connect 60 0 62 0;
#X connect 61 0 166 1;
#X connect 62 0 61 0;
#X connect 63 0 172 0;
#X connect 64 0 23 0;
#X connect 65 0 167 0;
#X connect 66 0 34 0;
#X connect 67 0 43 0;
#X connect 68 0 159 0;
#X connect 69 0 160 0;
#X connect 70 0 71 0;
#X connect 71 0 214 0;
#X connect 72 0 70 0;
#X connect 72 1 70 1;
#X connect 73 0 70 0;
#X connect 73 0 68 0;
#X connect 74 0 72 0;
#X connect 74 0 69 0;
#X connect 75 0 68 0;
#X connect 76 0 77 0;
#X connect 76 1 117 0;
#X connect 77 0 97 0;
#X connect 78 0 76 0;
#X connect 79 0 78 0;
#X connect 80 0 81 0;
#X connect 80 1 28 0;
#X connect 81 0 162 0;
#X connect 98 0 157 0;
#X connect 98 0 153 0;
#X connect 98 0 154 0;
#X connect 99 0 57 0;
#X connect 100 0 101 0;
#X connect 100 1 116 0;
#X connect 101 0 105 0;
#X connect 102 0 100 0;
#X connect 103 0 102 0;
#X connect 106 0 110 0;
#X connect 107 0 108 0;
#X connect 107 1 112 0;
#X connect 108 0 113 0;
#X connect 109 0 107 0;
#X connect 110 0 109 0;
#X connect 112 0 111 0;
#X connect 114 0 103 0;
#X connect 115 0 79 0;
#X connect 116 0 104 0;
#X connect 117 0 96 0;
#X connect 118 1 63 0;
#X connect 119 0 118 0;
#X connect 120 0 119 0;
#X connect 121 0 122 0;
#X connect 121 1 136 0;
#X connect 122 0 126 0;
#X connect 123 0 121 0;
#X connect 124 0 123 0;
#X connect 127 0 128 0;
#X connect 127 1 135 0;
#X connect 128 0 132 0;
#X connect 129 0 127 0;
#X connect 130 0 129 0;
#X connect 133 0 130 0;
#X connect 134 0 124 0;
#X connect 135 0 131 0;
#X connect 136 0 125 0;
#X connect 137 0 138 0;
#X connect 137 1 151 0;
#X connect 138 0 142 0;
#X connect 139 0 137 0;
#X connect 140 0 139 0;
#X connect 143 0 144 0;
#X connect 143 1 150 0;
#X connect 144 0 148 0;
#X connect 145 0 143 0;
#X connect 146 0 145 0;
#X connect 149 0 146 0;
#X connect 150 0 147 0;
#X connect 151 0 141 0;
#X connect 152 0 140 0;
#X connect 153 0 28 0;
#X connect 154 0 81 0;
#X connect 155 0 154 1;
#X connect 156 0 155 1;
#X connect 156 0 155 0;
#X connect 157 0 155 0;
#X connect 157 0 154 0;
#X connect 159 0 158 0;
#X connect 160 0 158 0;
#X connect 161 0 159 0;
#X connect 162 0 181 1;
#X connect 163 0 21 0;
#X connect 163 0 21 1;
#X connect 164 0 165 0;
#X connect 165 0 62 0;
#X connect 166 0 16 0;
#X connect 167 0 164 0;
#X connect 167 1 12 0;
#X connect 168 0 178 0;
#X connect 169 0 170 0;
#X connect 170 0 177 0;
#X connect 171 0 195 0;
#X connect 172 0 174 0;
#X connect 173 0 177 1;
#X connect 174 0 173 0;
#X connect 175 0 176 0;
#X connect 176 0 174 0;
#X connect 176 0 182 0;
#X connect 177 0 181 0;
#X connect 178 0 175 0;
#X connect 178 1 169 0;
#X connect 179 0 171 0;
#X connect 180 0 178 0;
#X connect 181 0 179 0;
#X connect 182 0 177 0;
#X connect 183 0 60 0;
#X connect 184 1 183 0;
#X connect 185 0 184 0;
#X connect 186 0 185 0;
#X connect 187 0 186 0;
#X connect 188 0 120 0;
#X connect 196 0 199 0;
#X connect 197 0 201 0;
#X connect 198 0 201 1;
#X connect 198 0 232 0;
#X connect 198 0 321 0;
#X connect 199 0 198 0;
#X connect 200 0 199 0;
#X connect 200 0 201 0;
#X connect 201 0 206 0;
#X connect 201 0 240 0;
#X connect 202 0 203 0;
#X connect 203 0 205 0;
#X connect 204 0 200 0;
#X connect 205 0 204 0;
#X connect 206 0 208 0;
#X connect 207 0 206 1;
#X connect 208 0 197 0;
#X connect 211 0 206 1;
#X connect 214 0 158 0;
#X connect 215 0 207 0;
#X connect 216 0 211 0;
#X connect 217 0 218 0;
#X connect 218 0 235 0;
#X connect 219 0 217 0;
#X connect 219 1 217 1;
#X connect 220 0 215 0;
#X connect 221 0 207 0;
#X connect 222 0 217 0;
#X connect 222 0 215 0;
#X connect 223 0 219 0;
#X connect 223 0 216 0;
#X connect 225 0 344 0;
#X connect 226 0 225 0;
#X connect 227 0 226 0;
#X connect 229 0 203 0;
#X connect 230 0 153 0;
#X connect 231 0 57 0;
#X connect 234 0 225 0;
#X connect 235 0 206 1;
#X connect 236 0 239 0;
#X connect 237 0 236 0;
#X connect 238 0 237 0;
#X connect 239 0 196 0;
#X connect 240 0 241 0;
#X connect 242 0 9 1;
#X connect 243 0 15 1;
#X connect 244 0 17 1;
#X connect 245 0 199 0;
#X connect 246 0 257 0;
#X connect 249 0 258 0;
#X connect 250 0 259 0;
#X connect 251 0 260 0;
#X connect 252 0 246 0;
#X connect 253 0 250 0;
#X connect 254 0 249 0;
#X connect 255 0 251 0;
#X connect 256 0 266 0;
#X connect 257 0 316 0;
#X connect 258 0 263 0;
#X connect 259 0 247 0;
#X connect 260 0 248 0;
#X connect 261 0 262 0;
#X connect 262 0 265 0;
#X connect 264 0 267 0;
#X connect 265 0 246 0;
#X connect 265 0 249 0;
#X connect 265 0 250 0;
#X connect 265 0 251 0;
#X connect 266 0 257 0;
#X connect 266 0 258 0;
#X connect 266 0 259 0;
#X connect 266 0 260 0;
#X connect 267 0 256 0;
#X connect 268 0 279 0;
#X connect 271 0 280 0;
#X connect 272 0 281 0;
#X connect 273 0 282 0;
#X connect 274 0 268 0;
#X connect 275 0 272 0;
#X connect 276 0 271 0;
#X connect 277 0 273 0;
#X connect 278 0 288 0;
#X connect 279 0 315 0;
#X connect 280 0 285 0;
#X connect 281 0 269 0;
#X connect 282 0 270 0;
#X connect 283 0 284 0;
#X connect 284 0 287 0;
#X connect 286 0 311 0;
#X connect 287 0 268 0;
#X connect 287 0 271 0;
#X connect 287 0 272 0;
#X connect 287 0 273 0;
#X connect 288 0 279 0;
#X connect 288 0 280 0;
#X connect 288 0 281 0;
#X connect 288 0 282 0;
#X connect 289 0 300 0;
#X connect 292 0 301 0;
#X connect 293 0 302 0;
#X connect 294 0 303 0;
#X connect 295 0 289 0;
#X connect 296 0 293 0;
#X connect 297 0 292 0;
#X connect 298 0 294 0;
#X connect 299 0 309 0;
#X connect 300 0 314 0;
#X connect 301 0 306 0;
#X connect 302 0 290 0;
#X connect 303 0 291 0;
#X connect 304 0 305 0;
#X connect 305 0 308 0;
#X connect 307 0 310 0;
#X connect 308 0 289 0;
#X connect 308 0 292 0;
#X connect 308 0 293 0;
#X connect 308 0 294 0;
#X connect 309 0 300 0;
#X connect 309 0 301 0;
#X connect 309 0 302 0;
#X connect 309 0 303 0;
#X connect 310 0 299 0;
#X connect 311 0 278 0;
#X connect 317 0 2 1;
#X connect 318 0 2 1;
#X connect 319 0 2 1;
#X connect 320 0 2 1;
#X connect 321 0 233 0;
#X connect 322 0 325 0;
#X connect 323 0 322 0;
#X connect 324 0 331 0;
#X connect 325 0 332 0;
#X connect 325 0 340 0;
#X connect 326 0 327 0;
#X connect 327 0 330 0;
#X connect 328 0 324 0;
#X connect 329 0 328 0;
#X connect 330 0 322 0;
#X connect 331 0 325 0;
#X connect 333 0 334 0;
#X connect 334 0 335 0;
#X connect 335 0 337 0;
#X connect 336 0 339 0;
#X connect 337 0 336 0;
#X connect 338 0 334 0;
#X connect 340 0 343 0;
#X connect 341 0 342 0;
#X connect 342 0 340 0;
#X connect 344 0 345 0;
#X connect 345 0 228 0;
