#N canvas 827 239 734 565 12;
#X obj 2963 978 cnv 15 231 324 empty empty TOUCHPAD\ envelope\ timing 20 12 0 14 #626262 #ffffff 0;
#X obj 670 2279 dac~;
#X obj 955 1894 hsl 116 17 0 1 0 0 empty empty empty -2 -8 0 10 #191919 #e1e1e1 #e1e1e1 0 1;
#X obj 924 1960 line~;
#X msg 924 1928 \$1 20;
#X obj 738 2236 *~;
#X obj 737 1033 hv.filter~ lowpass;
#X obj 738 1485 *~;
#X obj 396 1018 hsl 121 19 0 1 0 0 empty empty empty -2 -8 0 10 #191919 #e1e1e1 #e1e1e1 0 1;
#X msg 371 1057 \$1 20;
#X obj 371 1089 line~;
#X obj 738 1513 hip~ 20;
#X obj 909 893 loadbang;
#X msg 838 1066 1;
#X msg 828 1008 0.5;
#X obj 976 893 bng 19 250 50 0 empty empty empty 17 7 0 10 #191919 #ffffff #ffffff;
#X obj 783 1066 * 200;
#X obj 782 929 * 2000;
#X text 371 979 gain / drive;
#X obj 371 1146 +~ 2;
#X obj 738 1099 hv.filter~ highpass;
#X obj 782 959 + 4000;
#X obj 782 988 - 2000;
#X obj 371 1001 r knob0 @hv_param;
#X obj 283 1585 *~;
#X obj 371 1118 *~ 100;
#X obj 211 1189 hv.drunk 100 7;
#X obj 211 1334 osc~;
#X obj 283 1239 loadbang;
#X obj 355 1239 bng 25 250 50 0 empty empty empty 17 7 0 10 #191919 #ffffff #ffffff;
#X obj 738 861 +~;
#X obj 400 1379 hsl 121 19 0 1 0 0 empty empty empty -2 -8 0 10 #191919 #e1e1e1 #e1e1e1 0 1;
#X msg 366 1411 \$1 20;
#X obj 366 1439 line~;
#X obj 366 1355 r knob5 @hv_param;
#X obj 613 2236 *~;
#X obj 612 1033 hv.filter~ lowpass;
#X obj 613 1485 *~;
#X obj 613 1513 hip~ 20;
#X obj 613 1099 hv.filter~ highpass;
#X obj 613 861 +~;
#X obj 431 1585 *~;
#X obj 283 1621 hip~ 20;
#X obj 431 1621 hip~ 20;
#X text 366 1333 delfeedback;
#X obj 366 1583 tgl 25 0 empty empty empty 17 7 0 10 #191919 #ffffff #ffffff 0 1;
#X obj 366 1546 change;
#X msg 366 1621 clear;
#X obj 166 1149 hsl 121 19 0 1 0 0 empty empty empty -2 -8 0 10 #191919 #e1e1e1 #e1e1e1 0 1;
#X msg 140 1184 \$1 20;
#X obj 140 1216 line~;
#X obj 140 1128 r knob4 @hv_param;
#X obj 464 2161 *~;
#X obj 515 2161 *~;
#X obj 358 1922 *~ -1;
#X obj 358 1954 +~ 1;
#X obj 924 1869 r faderleft @hv_param;
#X obj 613 2135 *~;
#X obj 738 2135 *~;
#X obj 382 1820 hsl 121 19 0 1 0 0 empty empty empty -2 -8 0 10 #191919 #e1e1e1 #e1e1e1 0 1;
#X msg 358 1853 \$1 20;
#X obj 358 1885 line~;
#X obj 358 1797 r knob2 @hv_param;
#X text 358 1775 dry/wet;
#X text 1012 1846 end vol;
#X msg 1379 743 \$1 20, f 9;
#X msg 1589 641 \$1 20, f 9;
#X obj 1379 605 change;
#X obj 1589 605 change;
#X obj 1515 562 ==;
#X obj 1515 605 change;
#X obj 1515 525 t b f;
#X msg 1515 641 \$1 20, f 9;
#X obj 1515 684 line~;
#X obj 1589 684 line~;
#X obj 1379 477 r toggle1left_press @hv_param;
#X obj 1589 477 r toggle1right_press @hv_param;
#X obj 1515 805 s~ leftswitch;
#X obj 942 1538 hsl 121 19 0 1 0 0 empty empty empty -2 -8 0 10 #191919 #e1e1e1 #e1e1e1 0 1;
#X msg 924 1568 \$1 20;
#X obj 924 1600 line~;
#X obj 968 447 r~ leftswitch;
#X obj 924 1512 r knob3 @hv_param;
#X obj 613 1678 *~;
#X obj 738 1678 *~;
#X obj 454 1117 *~ -100;
#X obj 454 1146 +~ 200;
#X obj 454 1174 *~ 0.1;
#X obj 565 472 adc~;
#X msg 1664 1943 \$1 20, f 9;
#X msg 1874 1943 \$1 20, f 9;
#X obj 1664 1907 change;
#X obj 1874 1907 change;
#X obj 1800 1864 ==;
#X obj 1800 1907 change;
#X obj 1800 1827 t b f;
#X msg 1800 1943 \$1 20, f 9;
#X obj 1664 1986 line~;
#X obj 1800 1986 line~;
#X obj 1874 1986 line~;
#X obj 1800 2107 s~ rightswitch;
#X obj 968 673 *~;
#X obj 775 800 lop~ 2000;
#X obj 626 800 lop~ 2000;
#X obj 1664 1779 r toggle2down_press @hv_param;
#X obj 1874 1779 r toggle2up_press @hv_param;
#X obj 211 1496 s~ lfomod;
#X obj 1020 472 r~ lfomod;
#X obj 775 665 *~;
#X obj 724 665 *~;
#X obj 1379 633 sel 0 1;
#X obj 1409 702 s stopdelmod;
#X obj 1048 531 r stopdelmod;
#X obj 1048 572 sig~;
#X obj 1020 595 *~;
#X msg 1437 665 1;
#X msg 1411 665 0;
#X text 1525 447 del multiplier;
#X obj 613 1763 hv.filter~ lowpass;
#X obj 738 1763 hv.filter~ lowpass;
#X obj 924 1660 snapshot~;
#X msg 924 1694 \$1 100;
#X obj 924 1726 line;
#X obj 924 1629 *~ 10000;
#X text 924 1490 filter;
#X obj 613 1726 *~ 0.2;
#X obj 738 1726 *~ 0.2;
#X obj 626 773 *~ 0.4;
#X obj 775 773 *~ 0.4;
#X obj 1020 635 osc~;
#X obj 613 1826 *~ 0.1;
#X obj 738 1826 *~ 0.1;
#X obj 1660 1009 cnv 15 1278 698 empty empty TOUCHPADS\ gain 20 12 0 14 #626262 #ffffff 0;
#X obj 1679 1043 r mpr121_driver_ch3 @hv_param;
#X obj 1901 1043 r mpr121_driver_ch4 @hv_param;
#X obj 2149 1196 r mpr121_driver_ch5 @hv_param;
#X obj 2480 1043 r mpr121_driver_ch6 @hv_param;
#X obj 2718 1043 r mpr121_driver_ch7 @hv_param;
#X obj 1768 1368 r mpr121_driver_ch8 @hv_param;
#X obj 2555 1366 r mpr121_driver_ch9 @hv_param;
#X obj 1679 1136 sel 0 1;
#X msg 1681 1167 0;
#X obj 1679 1099 tgl 25 0 empty empty empty 17 7 0 10 #191919 #ffffff #ffffff 0 1;
#X obj 1679 1074 change;
#X obj 2978 1114 sel 0 1;
#X obj 2978 1049 change;
#X obj 2978 1079 tgl 25 0 empty empty empty 17 7 0 10 #191919 #ffffff #ffffff 0 1;
#X obj 2978 1019 r mpr121_driver_ch0 @hv_param;
#X obj 2966 1359 metro 20;
#X obj 2966 1387 hv.drunk 1000 77;
#X obj 2966 1425 / 1000;
#X msg 3011 1223 1000;
#X obj 2966 1321 loadbang;
#X obj 2966 1459 spigot;
#X msg 2966 1490 \$1 20, f 9;
#X obj 3135 1494 sel 0 1;
#X obj 3135 1351 change;
#X obj 3135 1459 tgl 25 0 empty empty empty 17 7 0 10 #191919 #ffffff #ffffff 0 1;
#X msg 3137 1571 0;
#X msg 3168 1571 1;
#X obj 1462 587 tgl 25 0 empty empty empty 17 7 0 10 #191919 #ffffff #ffffff 0 1;
#X obj 626 697 *~ 100;
#X obj 775 697 *~ 100;
#X obj 1705 1864 tgl 25 0 empty empty empty 17 7 0 10 #191919 #ffffff #ffffff 0 1;
#X obj 2978 1264 s padstiming;
#X obj 1750 1167 r padstiming;
#X obj 1679 1196 pack f f;
#X msg 2978 1223 10;
#X obj 3135 1321 r mpr121_driver_ch2 @hv_param;
#X obj 1901 1136 sel 0 1;
#X msg 1903 1167 0;
#X obj 1901 1099 tgl 25 0 empty empty empty 17 7 0 10 #191919 #ffffff #ffffff 0 1;
#X obj 1901 1074 change;
#X obj 1972 1167 r padstiming;
#X obj 1901 1196 pack f f;
#X obj 2158 1367 sel 0 1;
#X msg 2160 1398 0;
#X obj 2149 1252 tgl 25 0 empty empty empty 17 7 0 10 #191919 #ffffff #ffffff 0 1;
#X obj 2149 1227 change;
#X obj 2229 1398 r padstiming;
#X obj 2158 1427 pack f f;
#X obj 2480 1136 sel 0 1;
#X msg 2482 1167 0;
#X obj 2480 1099 tgl 25 0 empty empty empty 17 7 0 10 #191919 #ffffff #ffffff 0 1;
#X obj 2480 1074 change;
#X obj 2551 1167 r padstiming;
#X obj 2480 1196 pack f f;
#X obj 2718 1136 sel 0 1;
#X msg 2720 1167 0;
#X obj 2718 1099 tgl 25 0 empty empty empty 17 7 0 10 #191919 #ffffff #ffffff 0 1;
#X obj 2718 1074 change;
#X obj 2787 1167 r padstiming;
#X obj 2718 1196 pack f f;
#X obj 1768 1461 sel 0 1;
#X msg 1770 1492 0;
#X obj 1768 1425 tgl 25 0 empty empty empty 17 7 0 10 #191919 #ffffff #ffffff 0 1;
#X obj 1768 1400 change;
#X obj 1839 1492 r padstiming;
#X obj 1768 1521 pack f f;
#X obj 2555 1460 sel 0 1;
#X msg 2557 1491 0;
#X obj 2555 1423 tgl 25 0 empty empty empty 17 7 0 10 #191919 #ffffff #ffffff 0 1;
#X obj 2555 1398 change;
#X obj 2626 1491 r padstiming;
#X obj 2555 1520 pack f f;
#X obj 2967 1594 sig~;
#X obj 2968 1627 s~ randomizer;
#X obj 146 673 r~ randomizer;
#X obj 1768 1576 line~;
#X obj 2555 1575 line~;
#X obj 1901 1251 line~;
#X obj 1679 1251 line~;
#X obj 2158 1482 line~;
#X obj 2480 1251 line~;
#X obj 2718 1251 line~;
#X msg 1679 1224 \$1 \$2, f 9;
#X msg 1901 1224 \$1 \$2, f 9;
#X msg 2158 1455 \$1 \$2, f 9;
#X msg 2480 1224 \$1 \$2, f 9;
#X msg 2718 1224 \$1 \$2, f 9;
#X msg 2555 1548 \$1 \$2, f 9;
#X msg 1768 1549 \$1 \$2, f 9;
#X obj 2966 1527 line 20;
#X obj 1379 774 line~;
#X obj 2978 1149 tgl 25 0 empty empty empty 17 7 0 10 #191919 #ffffff #ffffff 0 1;
#X obj 283 1271 metro 1;
#X obj 211 1305 *~;
#X obj 2978 1186 sel 0 1;
#X obj 2967 1561 * 0.5;
#X obj 146 704 *~ 0.1;
#X obj 146 734 +~ 0.2;
#X obj 146 766 -~ 0.1;
#X obj 211 918 line~;
#X obj 211 821 snapshot~;
#X obj 211 789 metro 1;
#X obj 211 757 loadbang;
#X obj 251 714 bng 25 250 50 0 empty empty empty 17 7 0 10 #191919 #ffffff #ffffff;
#X msg 211 887 \$1 500;
#X obj 211 1245 line~;
#X obj 211 1278 /~ 100;
#X obj 211 1358 +~ 1;
#X text 140 1106 delfeedback modulation lfo;
#X obj 1515 730 *~ 0.5;
#X obj 240 562 tgl 25 0 empty empty empty 17 7 0 10 #191919 #ffffff #ffffff 0 1;
#X obj 211 853 spigot;
#X msg 161 632 0;
#X obj 159 604 sel 0;
#X text 159 473 randomizer main switch;
#X obj 1166 369 r~ randomizer;
#X obj 1166 400 *~ 0.1;
#X obj 1166 430 +~ 0.2;
#X obj 1166 462 -~ 0.1;
#X obj 1229 569 snapshot~;
#X obj 1229 537 metro 1;
#X obj 1229 505 loadbang;
#X obj 1269 462 bng 25 250 50 0 empty empty empty 17 7 0 10 #191919 #ffffff #ffffff;
#X obj 1229 596 spigot;
#X obj 1020 513 +~;
#X obj 1229 660 line~;
#X msg 1229 628 \$1 20;
#X obj 3135 1422 sel 0 1;
#X obj 3135 1387 tgl 25 0 empty empty empty 17 7 0 10 #191919 #ffffff #ffffff 0 1;
#X obj 159 526 change;
#X obj 159 562 tgl 25 0 empty empty empty 17 7 0 10 #191919 #ffffff #ffffff 0 1;
#X obj 1589 730 *~ 70;
#X obj 366 1468 +~;
#X obj 211 1467 *~;
#X msg 1678 605 1;
#X obj 283 1663 delwrite~ del-l 100;
#X obj 431 1663 delwrite~ del-r 100;
#X obj 626 750 delread4~ del-l 7000;
#X obj 775 750 delread4~ del-r 7000;
#X obj 968 750 +~;
#X msg 211 1216 \$1 20;
#X obj 211 1382 *~ 0.5;
#X obj 1004 1629 bang~;
#X obj 193 562 sel 1;
#X msg 1217 1070 feedfwd \$1;
#X msg 1217 1138 indelay \$1;
#X text 1309 1069 Feedforward amount (0...0.999);
#X text 1309 1103 Feedback amount (0...0.999);
#X msg 1217 1104 feedback \$1;
#X text 1309 1171 Input delay time (0...50ms);
#X msg 1217 1206 slide \$1;
#X text 1309 1205 Delay update interpolation time (0...1000ms);
#X text 1309 1137 Output delay time (0...50ms);
#X msg 1217 1172 outdelay \$1;
#X obj 1130 1246 hv.comb~;
#X obj 1045 1246 hv.comb~;
#X obj 1065 1070 random 1000;
#X obj 1161 1070 / 1000;
#X obj 1065 1104 random 1000;
#X obj 1161 1104 / 1000;
#X obj 1065 1138 random 50;
#X obj 1065 1172 random 50;
#X obj 1065 1206 random 1000;
#X obj 1166 930 tgl 25 0 empty empty empty 17 7 0 10 #191919 #ffffff #ffffff 0 1;
#X obj 1166 894 change;
#X obj 1166 861 r mpr121_driver_ch1 @hv_param;
#X obj 1166 974 sel 1;
#X obj 1244 815 loadbang;
#X obj 1244 930 tgl 25 0 empty empty empty 17 7 0 10 #191919 #ffffff #ffffff 0 1;
#X obj 1197 930 sel 1;
#X obj 616 1392 *~;
#X obj 662 1392 *~;
#X obj 640 1285 *~ -1;
#X obj 640 1317 +~ 1;
#X obj 716 1392 *~;
#X obj 758 1392 *~;
#X msg 758 1214 \$1 20;
#X obj 758 1246 line~;
#X msg 1246 1006 0;
#X msg 1217 1006 1;
#X obj 1756 676 r ledswitch;
#X msg 1813 847 0;
#X msg 1759 847 1;
#X obj 1756 813 del 5;
#X msg 1885 847 1;
#X msg 1955 847 0;
#X msg 2027 847 1;
#X msg 2102 847 0;
#X obj 2024 813 del 1000;
#X obj 2100 813 del 1250;
#X obj 1811 813 del 350;
#X obj 1882 813 del 600;
#X obj 1953 813 del 800;
#X obj 1756 936 s daisyled @hv_param;
#X obj 276 562 s ledswitch;
#X obj 1303 930 s ledswitch;
#X obj 3057 1157 s ledswitch;
#X obj 3218 1494 s ledswitch;
#X obj 738 1566 hv.tanh~;
#X obj 613 1559 hv.tanh~;
#X obj 613 1797 hv.tanh~;
#X obj 738 1797 hv.tanh~;
#X obj 494 1546 s ledswitch;
#X obj 441 1546 sel 1;
#X obj 146 800 *~ 5;
#X obj 1166 495 *~ 5;
#X obj 3057 1182 s customled1;
#X obj 3218 1459 s customled3;
#X obj 1303 960 s customled2;
#X msg 2266 847 0;
#X msg 2212 847 1;
#X obj 2209 813 del 5;
#X msg 2338 847 1;
#X msg 2408 847 0;
#X msg 2480 847 1;
#X msg 2555 847 0;
#X obj 2477 813 del 1000;
#X obj 2553 813 del 1250;
#X obj 2264 813 del 350;
#X obj 2335 813 del 600;
#X obj 2406 813 del 800;
#X obj 2209 676 r customled1;
#X msg 2693 847 0;
#X msg 2639 847 1;
#X obj 2636 813 del 5;
#X msg 2765 847 1;
#X msg 2835 847 0;
#X msg 2907 847 1;
#X msg 2982 847 0;
#X obj 2904 813 del 1000;
#X obj 2980 813 del 1250;
#X obj 2691 813 del 350;
#X obj 2762 813 del 600;
#X obj 2833 813 del 800;
#X obj 2636 676 r customled2;
#X obj 3053 730 sel 1 0;
#X msg 3110 847 0;
#X msg 3056 847 1;
#X obj 3053 813 del 5;
#X msg 3182 847 1;
#X msg 3252 847 0;
#X msg 3324 847 1;
#X msg 3399 847 0;
#X obj 3321 813 del 1000;
#X obj 3397 813 del 1250;
#X obj 3108 813 del 350;
#X obj 3179 813 del 600;
#X obj 3250 813 del 800;
#X obj 3053 936 s led3 @hv_param;
#X obj 3053 676 r customled3;
#X obj 2209 936 s led2 @hv_param;
#X obj 2636 936 s led1 @hv_param;
#X obj 2209 730 sel 1 0;
#X obj 1736 1099 s daisyled @hv_param;
#X obj 1959 1099 s daisyled @hv_param;
#X obj 2207 1254 s daisyled @hv_param;
#X obj 1824 1428 s daisyled @hv_param;
#X obj 2612 1423 s daisyled @hv_param;
#X obj 2775 1100 s daisyled @hv_param;
#X obj 2537 1099 s daisyled @hv_param;
#X obj 2636 730 sel 1 0;
#X obj 1756 730 sel 1 0;
#X text 3415 2059 val sent to knob 1 pre-gain filter: val range 0-1, f 27;
#X text 3201 2064 val sent to fader right timing feedback val range 0-1, f 26;
#X obj 3415 2041 s ranseqfilt;
#X obj 3201 2041 s ranseqtime;
#X obj 3455 1571 bng 24 250 50 0 empty empty empty 17 7 0 10 #8eb4bb #000000 #000000;
#X obj 3416 1571 bng 24 250 50 0 empty empty empty 17 7 0 10 #8eb4bb #000000 #000000;
#X obj 211 948 clip~ 0 1;
#X obj 3416 1527 sel 0 1 2 3;
#X msg 2187 1398 0;
#X obj 1678 1282 s~ filterpad;
#X obj 1901 1282 s~ filterpad;
#X obj 2158 1517 s~ filterpad;
#X obj 1768 1606 s~ filterpad;
#X obj 2480 1282 s~ filterpad;
#X obj 2718 1282 s~ filterpad;
#X obj 2555 1606 s~ filterpad;
#X obj 1760 1282 s~ timedelpad;
#X obj 1983 1282 s~ timedelpad;
#X obj 2240 1517 s~ timedelpad;
#X obj 1848 1606 s~ timedelpad;
#X obj 2561 1282 s~ timedelpad;
#X obj 2799 1282 s~ timedelpad;
#X obj 2636 1606 s~ timedelpad;
#X obj 2602 1842 r~ timedelpad;
#X text 1810 1748 touchpads multiplier;
#X obj 2303 2006 r~ rightswitch;
#X text 2610 1817 val -3 to +3;
#X obj 366 1513 r mpr121_driver_ch11 @hv_param;
#X obj 159 496 r mpr121_driver_ch10 @hv_param;
#X obj 410 587 s customled3;
#X obj 410 531 s customled1;
#X obj 410 562 s customled2;
#X obj 838 893 r prefilter;
#X obj 751 481 r~ delaytimemod;
#X obj 2539 1768 hsl 121 19 0 1 0 0 empty empty empty -2 -8 0 10 #191919 #e1e1e1 #e1e1e1 0 1;
#X obj 2513 1738 r faderright @hv_param;
#X obj 2164 2139 s prefilter;
#X obj 2514 2139 s~ delaytimemod;
#X msg 2514 1811 \$1 20;
#X obj 2514 1842 line~;
#X obj 2716 1795 r ranseqtime;
#X text 2271 1823 val -3 to +3;
#X obj 2189 1768 hsl 121 19 0 1 0 0 empty empty empty -2 -8 0 10 #191919 #e1e1e1 #e1e1e1 0 1;
#X msg 2164 1814 \$1 20;
#X obj 2164 1845 line~;
#X obj 2164 1738 r knob1 @hv_param;
#X obj 2271 1845 r~ filterpad;
#X obj 2188 2078 bang~;
#X obj 2164 2108 snapshot~;
#X obj 2362 1799 r ranseqfilt;
#X obj 2514 2006 *~;
#X obj 2164 2006 *~;
#X obj 2514 1962 +~;
#X obj 2164 1962 +~;
#X msg 1708 1167 -0.33;
#X msg 1930 1167 -0.16;
#X msg 2509 1167 0.16;
#X msg 2747 1167 0.33;
#X msg 2584 1491 0.66;
#X msg 1797 1492 -0.66;
#X obj 1800 2032 *~ 0.5;
#X obj 1664 2032 *~ 0.25;
#X obj 3201 1952 spigot;
#X obj 3415 1952 spigot;
#X msg 3322 1987 1;
#X obj 2602 1929 +~;
#X obj 2602 1955 *~ 0.5;
#X obj 2271 1922 +~;
#X obj 2271 1948 *~ 0.5;
#X obj 2164 2051 clip~ 0 1;
#X obj 2514 2092 clip~ 0 1;
#X obj 3416 1494 random 4;
#X obj 3458 1314 i;
#X obj 3498 1314 + 1;
#X obj 3458 1372 sel 0;
#X obj 3458 1343 % 8;
#X text 3498 1343 <- Number of Steps;
#X obj 3416 1278 metro 1000;
#X msg 3458 1459 seed \$1;
#X obj 3458 1441 f;
#X obj 3469 1406 random 78;
#X obj 3630 1775 random 4;
#X msg 3630 1738 seed \$1;
#X obj 3630 1720 f;
#X obj 3641 1685 random 1578;
#X obj 3494 1571 bng 24 250 50 0 empty empty empty 17 7 0 10 #8eb4bb #000000 #000000;
#X obj 2716 1929 line~;
#X msg 2716 1897 \$1 \$2;
#X obj 2716 1825 pack;
#X msg 3630 1838 100;
#X msg 3667 1838 1000;
#X obj 3630 1805 sel 0 1 2 3;
#X msg 3704 1838 10;
#X msg 3735 1838 50;
#X obj 3415 1775 random 4;
#X msg 3439 1738 seed \$1;
#X obj 3439 1714 f;
#X obj 3445 1685 random 1578;
#X obj 3415 1805 sel 0 1 2 3;
#X msg 3415 1838 0.2;
#X msg 3452 1838 0.8;
#X msg 3489 1838 0.4;
#X msg 3528 1838 0.6;
#X obj 3630 1882 s transseqtime;
#X obj 2754 1825 r transseqtime;
#X obj 3780 1882 s transseqfilt;
#X msg 3817 1842 1000;
#X msg 3780 1842 200;
#X msg 3854 1842 60;
#X msg 3889 1842 12;
#X obj 3201 1768 random 4;
#X msg 3201 1738 seed \$1;
#X obj 3201 1714 f;
#X obj 3201 1795 sel 0 1 2 3;
#X msg 3201 1838 0.2;
#X msg 3238 1838 0.8;
#X msg 3275 1838 0.4;
#X msg 3314 1838 0.6;
#X obj 3212 1685 random 8974;
#X obj 3528 1571 bng 24 250 50 0 empty empty empty 17 7 0 10 #8eb4bb #000000 #000000;
#X obj 2362 1896 line~;
#X msg 2362 1864 \$1 \$2;
#X obj 2362 1832 pack;
#X obj 2408 1832 r transseqfilt;
#X obj 2277 1295 s 0padtemporando;
#X obj 613 1907 hv.compressor2~ 60 2;
#X obj 2333 1320 s 0padpressed;
#X obj 1949 1492 s compr_down;
#X obj 2728 1491 s compr_up;
#X msg 733 1875 threshold \$1;
#X msg 820 1875 ratio 2;
#X obj 820 1841 r comp_thresh;
#X obj 1178 1792 r compr_down;
#X obj 1280 1790 r compr_up;
#X obj 1178 1855 bang;
#X obj 1280 1855 bang;
#X obj 1261 1952 f;
#X obj 1340 1952 f;
#X obj 1261 1915 spigot;
#X obj 1340 1915 spigot;
#X obj 1340 1978 + 1;
#X obj 1261 1978 - 1;
#X obj 1178 1821 bng 25 250 50 0 empty empty empty 17 7 0 10 #191919 #ffffff #ffffff;
#X obj 1280 1821 bng 25 250 50 0 empty empty empty 17 7 0 10 #191919 #ffffff #ffffff;
#X obj 1401 1790 r 0padpressed;
#X msg 1404 1850 1;
#X obj 1401 1821 sel 1;
#X msg 1433 1850 0;
#X obj 1503 1790 tgl 25 0 empty empty empty 17 7 0 10 #191919 #ffffff #ffffff 0 1;
#X obj 1385 1978 f;
#X obj 1385 2070 s comp_thresh;
#X obj 1385 2034 * 10;
#X obj 1385 1952 clip 0 10;
#X obj 1473 1901 sel 0 10;
#X obj 1473 2024 s ledswitch;
#X obj 1473 2001 s customled1;
#X obj 1473 1976 s customled2;
#X obj 1473 1949 s customled3;
#X obj 2825 1136 s seqtemp_up;
#X obj 1768 1136 s seqtemp_down;
#X obj 3469 1182 r seqtime;
#X obj 3489 769 bang;
#X obj 3580 769 bang;
#X obj 3561 866 f;
#X obj 3640 866 f;
#X obj 3561 829 spigot;
#X obj 3640 829 spigot;
#X obj 3640 892 + 1;
#X obj 3561 892 - 1;
#X obj 3489 735 bng 25 250 50 0 empty empty empty 17 7 0 10 #191919 #ffffff #ffffff;
#X obj 3580 735 bng 25 250 50 0 empty empty empty 17 7 0 10 #191919 #ffffff #ffffff;
#X obj 3701 704 r 0padpressed;
#X msg 3704 764 1;
#X obj 3701 735 sel 1;
#X msg 3733 764 0;
#X obj 3803 704 tgl 25 0 empty empty empty 17 7 0 10 #191919 #ffffff #ffffff 0 1;
#X obj 3685 892 f;
#X obj 3685 930 * 10;
#X obj 3773 938 s ledswitch;
#X obj 3773 915 s customled1;
#X obj 3773 890 s customled2;
#X obj 3773 863 s customled3;
#X obj 3586 674 r seqtemp_down;
#X obj 3489 674 r seqtemp_up;
#X obj 3685 1019 s seqtime;
#X obj 3685 866 clip 1 100;
#X obj 3722 960 loadbang;
#X msg 3722 986 300;
#X obj 3823 799 sel 0 1000;
#X obj 571 2085 *~;
#X obj 675 2085 *~;
#X obj 51 2923 send~ distortion_noise;
#X obj 582 2035 r~ distortion_noise;
#X obj 1949 1461 s distnoise_min;
#X obj 2728 1460 s distnoise_plus;
#X obj 3222 1394 s channel2noise;
#X obj 231 2274 r channel2noise;
#X obj 4 2274 r distnoise_min;
#X obj 110 2274 r distnoise_plus;
#X obj 8 2381 bang;
#X obj 110 2381 bang;
#X obj 91 2478 f;
#X obj 170 2478 f;
#X obj 91 2441 spigot;
#X obj 170 2441 spigot;
#X obj 170 2504 + 1;
#X obj 91 2504 - 1;
#X obj 8 2347 bng 25 250 50 0 empty empty empty 17 7 0 10 #191919 #ffffff #ffffff;
#X obj 110 2347 bng 25 250 50 0 empty empty empty 17 7 0 10 #191919 #ffffff #ffffff;
#X msg 234 2376 1;
#X obj 231 2347 sel 1;
#X msg 263 2376 0;
#X obj 333 2316 tgl 25 0 empty empty empty 17 7 0 10 #191919 #ffffff #ffffff 0 1;
#X obj 215 2504 f;
#X obj 412 2561 s ledswitch;
#X obj 412 2538 s customled1;
#X obj 412 2513 s customled2;
#X obj 412 2494 s customled3;
#X obj 51 2836 line~;
#X msg 8 2738 1 100;
#X obj 215 2478 clip 0 3;
#X obj 344 2866 line~;
#X msg 346 2737 0;
#X obj 550 2613 bng 25 250 50 0 empty empty empty 17 7 0 10 #191919 #e1e1e1 #e1e1e1;
#X msg 369 2737 1;
#X obj 366 2711 del 50;
#X obj 346 2655 sel 0 1 2 3 4;
#X msg 399 2737 0;
#X msg 422 2737 1;
#X obj 419 2711 del 17;
#X obj 467 2711 del 17;
#X msg 470 2737 0.7;
#X msg 447 2737 0.2;
#X obj 522 2737 random 10;
#X obj 605 2698 + 10;
#X obj 605 2673 random 20;
#X msg 458 2851 0.5;
#X obj 632 2852 hv.pinknoise~;
#X obj 632 2897 *~;
#X obj 640 2825 line~;
#X msg 344 2790 \$1 5;
#X obj 605 2646 metro 113;
#X obj 484 2825 del 10;
#X msg 486 2851 0;
#X msg 524 2613 0;
#X obj 458 2777 sel 0;
#X obj 344 2934 +~;
#X obj 458 2885 f;
#X obj 548 2885 f;
#X msg 458 2951 \$1 \$2;
#X obj 548 2855 + 5;
#X obj 458 2917 pack f f;
#X obj 548 2825 random 20;
#X obj 632 2923 *~ 0.5;
#X msg 213 2711 0.33;
#X msg 255 2711 0.66;
#X obj 282 2441 sel 0 1 2 3;
#X msg 295 2711 1;
#X obj 173 2886 *~;
#X obj 183 2851 sig~;
#X msg 188 2711 0;
#X obj 282 2388 loadbang;
#X msg 284 2412 0;
#X obj 8 2777 spigot;
#X msg 61 2738 1;
#X obj 183 2801 spigot;
#X msg 84 2738 0;
#X msg 287 2770 1;
#X msg 51 2801 0 100;
#X obj 522 2709 metro 100;
#X obj 908 2875 *~;
#X obj 908 2918 dac~;
#X obj 1210 2562 hv.osc~ square;
#X obj 1210 2525 sig~;
#X msg 1179 2487 2.3;
#X obj 1126 2866 snapshot~;
#X obj 1119 2721 loadbang;
#X obj 1087 2715 bng 25 250 50 0 empty empty empty 17 7 0 10 #191919 #e1e1e1 #e1e1e1;
#X obj 1222 2937 print;
#X obj 1496 2968;
#X obj 1438 2968 +~ 1;
#X obj 1438 3002 *~ 0.5;
#X obj 1573 2968 +~ 1;
#X obj 1573 3002 *~ 0.5;
#X msg 1064 2721 0;
#X obj 1062 2937 line~;
#X obj 1119 2748 metro 10;
#X obj 1313 3035 +~;
#X obj 1019 3071 hv.envfollow~;
#X obj 1449 2562 hv.osc~ square;
#X obj 1473 2498 sig~;
#X obj 1449 2525 hv.gt~;
#X msg 1473 2466 0.95;
#X obj 1313 3071 clip~ 0 1;
#X msg 1062 2901 \$1 10;
#X obj 1324 3002 hv.gt~;
#X obj 1325 2429 random 100;
#X obj 1438 3035 snapshot~;
#X obj 1325 2472 sig~;
#X obj 1325 2694 hv.osc~ square;
#X obj 1183 2429 sel 0 1 2 3;
#X obj 1544 2487 snapshot~;
#X obj 1449 2441 noise~;
#X obj 1300 2927 metro 10;
#X msg 1544 2513 0;
#X obj 1394 2480 * 0.1;
#X msg 1219 2487 0.27;
#X obj 908 2805 osc~ 440;
#X obj 1544 2466 metro 579;
#X obj 1325 2506 *~ 0.1;
#X connect 2 0 4 0;
#X connect 3 0 5 1;
#X connect 3 0 35 1;
#X connect 4 0 3 0;
#X connect 5 0 1 1;
#X connect 6 0 20 0;
#X connect 7 0 11 0;
#X connect 8 0 9 0;
#X connect 9 0 10 0;
#X connect 10 0 25 0;
#X connect 10 0 85 0;
#X connect 11 0 331 0;
#X connect 12 0 13 0;
#X connect 12 0 14 0;
#X connect 13 0 20 2;
#X connect 13 0 39 2;
#X connect 14 0 36 2;
#X connect 14 0 6 2;
#X connect 15 0 14 0;
#X connect 15 0 13 0;
#X connect 16 0 20 1;
#X connect 16 0 39 1;
#X connect 17 0 21 0;
#X connect 19 0 7 1;
#X connect 19 0 37 1;
#X connect 20 0 287 0;
#X connect 20 0 304 0;
#X connect 21 0 22 0;
#X connect 22 0 36 1;
#X connect 22 0 6 1;
#X connect 23 0 9 0;
#X connect 24 0 42 0;
#X connect 25 0 19 0;
#X connect 26 0 273 0;
#X connect 27 0 240 0;
#X connect 28 0 225 0;
#X connect 29 0 225 0;
#X connect 30 0 6 0;
#X connect 31 0 32 0;
#X connect 32 0 33 0;
#X connect 33 0 265 0;
#X connect 34 0 32 0;
#X connect 35 0 1 0;
#X connect 36 0 39 0;
#X connect 37 0 38 0;
#X connect 38 0 332 0;
#X connect 39 0 288 0;
#X connect 39 0 303 0;
#X connect 40 0 36 0;
#X connect 41 0 43 0;
#X connect 42 0 268 0;
#X connect 43 0 269 0;
#X connect 45 0 47 0;
#X connect 45 0 336 0;
#X connect 46 0 45 0;
#X connect 47 0 268 0;
#X connect 47 0 269 0;
#X connect 48 0 49 0;
#X connect 49 0 50 0;
#X connect 50 0 226 1;
#X connect 50 0 266 1;
#X connect 51 0 49 0;
#X connect 52 0 35 0;
#X connect 53 0 5 0;
#X connect 54 0 55 0;
#X connect 55 0 52 1;
#X connect 55 0 53 1;
#X connect 56 0 4 0;
#X connect 57 0 35 0;
#X connect 58 0 5 0;
#X connect 59 0 60 0;
#X connect 60 0 61 0;
#X connect 61 0 54 0;
#X connect 61 0 584 0;
#X connect 61 0 585 0;
#X connect 62 0 60 0;
#X connect 65 0 223 0;
#X connect 66 0 74 0;
#X connect 67 0 110 0;
#X connect 68 0 66 0;
#X connect 69 0 70 0;
#X connect 70 0 72 0;
#X connect 71 0 69 0;
#X connect 71 1 69 1;
#X connect 72 0 73 0;
#X connect 73 0 242 0;
#X connect 74 0 264 0;
#X connect 75 0 69 0;
#X connect 75 0 67 0;
#X connect 76 0 71 0;
#X connect 76 0 68 0;
#X connect 78 0 79 0;
#X connect 79 0 80 0;
#X connect 80 0 123 0;
#X connect 81 0 101 0;
#X connect 82 0 79 0;
#X connect 83 0 125 0;
#X connect 84 0 126 0;
#X connect 85 0 86 0;
#X connect 86 0 87 0;
#X connect 87 0 83 1;
#X connect 87 0 84 1;
#X connect 88 0 40 0;
#X connect 88 0 52 0;
#X connect 88 1 53 0;
#X connect 88 1 30 0;
#X connect 89 0 97 0;
#X connect 90 0 99 0;
#X connect 91 0 89 0;
#X connect 92 0 90 0;
#X connect 93 0 94 0;
#X connect 94 0 96 0;
#X connect 95 0 93 0;
#X connect 95 1 93 1;
#X connect 96 0 98 0;
#X connect 97 0 456 0;
#X connect 98 0 455 0;
#X connect 99 0 100 0;
#X connect 101 0 109 1;
#X connect 101 0 272 0;
#X connect 102 0 30 1;
#X connect 103 0 40 1;
#X connect 104 0 93 0;
#X connect 104 0 91 0;
#X connect 105 0 95 0;
#X connect 105 0 92 0;
#X connect 107 0 257 0;
#X connect 108 0 162 0;
#X connect 109 0 161 0;
#X connect 110 0 116 0;
#X connect 110 1 115 0;
#X connect 112 0 113 0;
#X connect 113 0 114 1;
#X connect 114 0 129 0;
#X connect 114 0 272 1;
#X connect 115 0 65 0;
#X connect 115 0 111 0;
#X connect 116 0 65 0;
#X connect 116 0 111 0;
#X connect 118 0 333 0;
#X connect 119 0 334 0;
#X connect 120 0 121 0;
#X connect 121 0 122 0;
#X connect 122 0 118 1;
#X connect 122 0 119 1;
#X connect 123 0 120 0;
#X connect 125 0 118 0;
#X connect 126 0 119 0;
#X connect 127 0 103 0;
#X connect 128 0 102 0;
#X connect 129 0 101 1;
#X connect 130 0 520 0;
#X connect 131 0 520 1;
#X connect 133 0 143 0;
#X connect 134 0 172 0;
#X connect 135 0 178 0;
#X connect 136 0 184 0;
#X connect 137 0 190 0;
#X connect 138 0 196 0;
#X connect 139 0 202 0;
#X connect 140 0 141 0;
#X connect 140 1 449 0;
#X connect 141 0 166 0;
#X connect 142 0 140 0;
#X connect 142 0 386 0;
#X connect 142 0 554 0;
#X connect 143 0 142 0;
#X connect 144 1 224 0;
#X connect 145 0 146 0;
#X connect 146 0 144 0;
#X connect 147 0 145 0;
#X connect 148 0 149 0;
#X connect 149 0 150 0;
#X connect 150 0 153 0;
#X connect 151 0 164 0;
#X connect 152 0 148 0;
#X connect 153 0 154 0;
#X connect 154 0 222 0;
#X connect 155 0 158 0;
#X connect 155 1 472 0;
#X connect 155 1 475 0;
#X connect 155 1 479 0;
#X connect 155 1 478 0;
#X connect 155 1 492 0;
#X connect 155 1 491 0;
#X connect 155 1 513 0;
#X connect 155 1 507 0;
#X connect 155 1 159 0;
#X connect 156 0 261 0;
#X connect 157 0 155 0;
#X connect 157 0 330 0;
#X connect 157 0 340 0;
#X connect 158 0 153 1;
#X connect 158 0 154 0;
#X connect 158 0 457 1;
#X connect 158 0 458 1;
#X connect 158 0 459 0;
#X connect 158 0 472 0;
#X connect 159 0 153 1;
#X connect 159 0 457 1;
#X connect 159 0 458 1;
#X connect 160 0 67 0;
#X connect 161 0 270 0;
#X connect 162 0 271 0;
#X connect 163 0 91 0;
#X connect 165 0 166 1;
#X connect 166 0 215 0;
#X connect 167 0 164 0;
#X connect 168 0 156 0;
#X connect 169 0 170 0;
#X connect 169 1 450 0;
#X connect 170 0 174 0;
#X connect 171 0 169 0;
#X connect 171 0 387 0;
#X connect 172 0 171 0;
#X connect 173 0 174 1;
#X connect 174 0 216 0;
#X connect 175 0 176 0;
#X connect 175 1 403 0;
#X connect 176 0 180 0;
#X connect 177 0 388 0;
#X connect 177 0 519 0;
#X connect 177 0 521 0;
#X connect 178 0 177 0;
#X connect 179 0 180 1;
#X connect 180 0 217 0;
#X connect 181 0 182 0;
#X connect 181 1 451 0;
#X connect 182 0 186 0;
#X connect 183 0 181 0;
#X connect 183 0 392 0;
#X connect 184 0 183 0;
#X connect 185 0 186 1;
#X connect 186 0 218 0;
#X connect 187 0 188 0;
#X connect 187 1 452 0;
#X connect 188 0 192 0;
#X connect 189 0 187 0;
#X connect 189 0 391 0;
#X connect 189 0 553 0;
#X connect 190 0 189 0;
#X connect 191 0 192 1;
#X connect 192 0 219 0;
#X connect 193 0 194 0;
#X connect 193 0 522 0;
#X connect 193 1 454 0;
#X connect 194 0 198 0;
#X connect 195 0 193 0;
#X connect 195 0 389 0;
#X connect 195 0 588 0;
#X connect 196 0 195 0;
#X connect 197 0 198 1;
#X connect 198 0 221 0;
#X connect 199 0 200 0;
#X connect 199 1 453 0;
#X connect 200 0 204 0;
#X connect 201 0 199 0;
#X connect 201 0 390 0;
#X connect 201 0 523 0;
#X connect 201 0 589 0;
#X connect 202 0 201 0;
#X connect 203 0 204 1;
#X connect 204 0 220 0;
#X connect 205 0 206 0;
#X connect 207 0 229 0;
#X connect 208 0 407 0;
#X connect 208 0 414 0;
#X connect 209 0 410 0;
#X connect 209 0 417 0;
#X connect 210 0 405 0;
#X connect 210 0 412 0;
#X connect 211 0 404 0;
#X connect 211 0 411 0;
#X connect 212 0 406 0;
#X connect 212 0 413 0;
#X connect 213 0 408 0;
#X connect 213 0 415 0;
#X connect 214 0 409 0;
#X connect 214 0 416 0;
#X connect 215 0 211 0;
#X connect 216 0 210 0;
#X connect 217 0 212 0;
#X connect 218 0 213 0;
#X connect 219 0 214 0;
#X connect 220 0 209 0;
#X connect 221 0 208 0;
#X connect 222 0 228 0;
#X connect 223 0 77 0;
#X connect 224 0 227 0;
#X connect 224 0 339 0;
#X connect 224 0 329 0;
#X connect 225 0 26 0;
#X connect 226 0 27 0;
#X connect 227 0 167 0;
#X connect 227 1 151 0;
#X connect 228 0 205 0;
#X connect 229 0 230 0;
#X connect 230 0 231 0;
#X connect 231 0 337 0;
#X connect 232 0 401 0;
#X connect 233 0 244 0;
#X connect 234 0 233 0;
#X connect 235 0 234 0;
#X connect 236 0 234 0;
#X connect 237 0 232 0;
#X connect 238 0 239 0;
#X connect 239 0 226 0;
#X connect 240 0 274 0;
#X connect 242 0 77 0;
#X connect 243 0 244 1;
#X connect 243 0 256 1;
#X connect 243 0 246 0;
#X connect 243 0 327 0;
#X connect 243 0 425 0;
#X connect 243 0 426 0;
#X connect 243 0 424 0;
#X connect 244 0 237 0;
#X connect 245 0 259 0;
#X connect 245 0 237 0;
#X connect 246 0 245 0;
#X connect 248 0 249 0;
#X connect 249 0 250 0;
#X connect 250 0 251 0;
#X connect 251 0 338 0;
#X connect 252 0 256 0;
#X connect 253 0 252 0;
#X connect 254 0 253 0;
#X connect 255 0 253 0;
#X connect 256 0 259 0;
#X connect 257 0 114 0;
#X connect 258 0 257 1;
#X connect 259 0 258 0;
#X connect 260 1 157 0;
#X connect 261 0 260 0;
#X connect 261 0 590 0;
#X connect 262 0 263 0;
#X connect 263 0 276 0;
#X connect 264 0 77 0;
#X connect 265 0 24 1;
#X connect 265 0 41 1;
#X connect 266 0 106 0;
#X connect 266 0 265 1;
#X connect 267 0 66 0;
#X connect 270 0 127 0;
#X connect 271 0 128 0;
#X connect 272 0 108 1;
#X connect 273 0 238 0;
#X connect 274 0 266 0;
#X connect 275 0 120 0;
#X connect 276 0 243 0;
#X connect 277 0 287 1;
#X connect 277 0 288 1;
#X connect 278 0 287 1;
#X connect 278 0 288 1;
#X connect 281 0 287 1;
#X connect 281 0 288 1;
#X connect 283 0 287 1;
#X connect 283 0 288 1;
#X connect 286 0 287 1;
#X connect 286 0 288 1;
#X connect 287 0 308 0;
#X connect 288 0 307 0;
#X connect 289 0 290 0;
#X connect 290 0 277 0;
#X connect 291 0 292 0;
#X connect 292 0 281 0;
#X connect 293 0 278 0;
#X connect 294 0 286 0;
#X connect 295 0 283 0;
#X connect 296 0 302 0;
#X connect 297 0 296 0;
#X connect 298 0 297 0;
#X connect 299 0 289 0;
#X connect 299 0 291 0;
#X connect 299 0 293 0;
#X connect 299 0 294 0;
#X connect 299 0 295 0;
#X connect 299 0 312 0;
#X connect 299 1 311 0;
#X connect 301 0 299 0;
#X connect 301 0 328 0;
#X connect 301 0 341 0;
#X connect 302 0 301 0;
#X connect 303 0 37 0;
#X connect 304 0 7 0;
#X connect 305 0 306 0;
#X connect 306 0 303 1;
#X connect 306 0 304 1;
#X connect 307 0 37 0;
#X connect 308 0 7 0;
#X connect 309 0 310 0;
#X connect 310 0 308 1;
#X connect 310 0 305 0;
#X connect 310 0 307 1;
#X connect 311 0 309 0;
#X connect 312 0 309 0;
#X connect 313 0 394 0;
#X connect 314 0 326 0;
#X connect 315 0 326 0;
#X connect 316 0 315 0;
#X connect 317 0 326 0;
#X connect 318 0 326 0;
#X connect 319 0 326 0;
#X connect 320 0 326 0;
#X connect 321 0 319 0;
#X connect 322 0 320 0;
#X connect 323 0 314 0;
#X connect 324 0 317 0;
#X connect 325 0 318 0;
#X connect 331 0 84 0;
#X connect 331 0 41 0;
#X connect 332 0 83 0;
#X connect 332 0 24 0;
#X connect 333 0 130 0;
#X connect 334 0 131 0;
#X connect 336 0 335 0;
#X connect 337 0 233 0;
#X connect 338 0 252 0;
#X connect 342 0 383 0;
#X connect 343 0 383 0;
#X connect 344 0 343 0;
#X connect 345 0 383 0;
#X connect 346 0 383 0;
#X connect 347 0 383 0;
#X connect 348 0 383 0;
#X connect 349 0 347 0;
#X connect 350 0 348 0;
#X connect 351 0 342 0;
#X connect 352 0 345 0;
#X connect 353 0 346 0;
#X connect 354 0 385 0;
#X connect 355 0 384 0;
#X connect 356 0 384 0;
#X connect 357 0 356 0;
#X connect 358 0 384 0;
#X connect 359 0 384 0;
#X connect 360 0 384 0;
#X connect 361 0 384 0;
#X connect 362 0 360 0;
#X connect 363 0 361 0;
#X connect 364 0 355 0;
#X connect 365 0 358 0;
#X connect 366 0 359 0;
#X connect 367 0 393 0;
#X connect 368 0 371 0;
#X connect 368 0 376 0;
#X connect 368 0 378 0;
#X connect 368 0 379 0;
#X connect 368 0 380 0;
#X connect 368 0 377 0;
#X connect 368 1 371 0;
#X connect 368 1 378 0;
#X connect 369 0 381 0;
#X connect 370 0 381 0;
#X connect 371 0 370 0;
#X connect 372 0 381 0;
#X connect 373 0 381 0;
#X connect 374 0 381 0;
#X connect 375 0 381 0;
#X connect 376 0 374 0;
#X connect 377 0 375 0;
#X connect 378 0 369 0;
#X connect 379 0 372 0;
#X connect 380 0 373 0;
#X connect 382 0 368 0;
#X connect 385 0 344 0;
#X connect 385 0 349 0;
#X connect 385 0 351 0;
#X connect 385 0 352 0;
#X connect 385 0 353 0;
#X connect 385 0 350 0;
#X connect 385 1 344 0;
#X connect 385 1 351 0;
#X connect 393 0 357 0;
#X connect 393 0 362 0;
#X connect 393 0 364 0;
#X connect 393 0 365 0;
#X connect 393 0 366 0;
#X connect 393 0 363 0;
#X connect 393 1 357 0;
#X connect 393 1 364 0;
#X connect 394 0 316 0;
#X connect 394 0 321 0;
#X connect 394 0 323 0;
#X connect 394 0 324 0;
#X connect 394 0 325 0;
#X connect 394 0 322 0;
#X connect 394 1 316 0;
#X connect 394 1 323 0;
#X connect 399 0 476 0;
#X connect 399 0 489 0;
#X connect 399 0 505 0;
#X connect 400 0 489 0;
#X connect 400 0 476 0;
#X connect 401 0 25 0;
#X connect 401 0 85 0;
#X connect 402 0 400 0;
#X connect 402 1 399 0;
#X connect 402 2 480 0;
#X connect 402 3 514 0;
#X connect 403 0 180 0;
#X connect 418 0 460 0;
#X connect 420 0 446 1;
#X connect 420 0 445 1;
#X connect 422 0 46 0;
#X connect 423 0 262 0;
#X connect 427 0 17 0;
#X connect 427 0 16 0;
#X connect 428 0 109 0;
#X connect 428 0 108 0;
#X connect 429 0 433 0;
#X connect 430 0 433 0;
#X connect 433 0 434 0;
#X connect 434 0 447 0;
#X connect 435 0 483 0;
#X connect 437 0 438 0;
#X connect 438 0 439 0;
#X connect 439 0 448 0;
#X connect 440 0 438 0;
#X connect 441 0 462 0;
#X connect 442 0 443 0;
#X connect 443 0 431 0;
#X connect 444 0 517 0;
#X connect 445 0 465 0;
#X connect 446 0 464 0;
#X connect 447 0 445 0;
#X connect 448 0 446 0;
#X connect 449 0 166 0;
#X connect 450 0 174 0;
#X connect 451 0 186 0;
#X connect 452 0 192 0;
#X connect 453 0 204 0;
#X connect 454 0 198 0;
#X connect 455 0 100 0;
#X connect 456 0 100 0;
#X connect 457 0 398 0;
#X connect 458 0 397 0;
#X connect 459 0 398 0;
#X connect 459 0 397 0;
#X connect 459 0 498 0;
#X connect 459 0 500 0;
#X connect 460 0 461 0;
#X connect 461 0 447 1;
#X connect 462 0 463 0;
#X connect 463 0 448 1;
#X connect 464 0 443 0;
#X connect 465 0 432 0;
#X connect 466 0 402 0;
#X connect 467 0 470 0;
#X connect 467 0 468 0;
#X connect 468 0 467 1;
#X connect 469 0 474 0;
#X connect 470 0 469 0;
#X connect 472 0 467 0;
#X connect 472 0 466 0;
#X connect 473 0 466 0;
#X connect 474 0 473 0;
#X connect 475 0 474 1;
#X connect 476 0 486 0;
#X connect 477 0 476 0;
#X connect 478 0 477 0;
#X connect 479 0 478 1;
#X connect 480 0 476 0;
#X connect 480 0 505 0;
#X connect 481 0 460 1;
#X connect 482 0 481 0;
#X connect 483 0 482 0;
#X connect 484 0 498 0;
#X connect 485 0 498 0;
#X connect 486 0 484 0;
#X connect 486 0 503 0;
#X connect 486 1 485 0;
#X connect 486 1 501 0;
#X connect 486 2 487 0;
#X connect 486 2 504 0;
#X connect 486 3 502 0;
#X connect 486 3 488 0;
#X connect 487 0 498 0;
#X connect 488 0 498 0;
#X connect 489 0 493 0;
#X connect 490 0 489 0;
#X connect 491 0 490 0;
#X connect 492 0 491 1;
#X connect 493 0 494 0;
#X connect 493 1 495 0;
#X connect 493 2 496 0;
#X connect 493 3 497 0;
#X connect 494 0 458 0;
#X connect 495 0 458 0;
#X connect 496 0 458 0;
#X connect 497 0 458 0;
#X connect 499 0 483 1;
#X connect 501 0 500 0;
#X connect 502 0 500 0;
#X connect 503 0 500 0;
#X connect 504 0 500 0;
#X connect 505 0 508 0;
#X connect 506 0 505 0;
#X connect 507 0 506 0;
#X connect 508 0 509 0;
#X connect 508 1 510 0;
#X connect 508 2 511 0;
#X connect 508 3 512 0;
#X connect 509 0 457 0;
#X connect 510 0 457 0;
#X connect 511 0 457 0;
#X connect 512 0 457 0;
#X connect 513 0 507 1;
#X connect 514 0 476 0;
#X connect 514 0 489 0;
#X connect 515 0 462 1;
#X connect 516 0 515 0;
#X connect 517 0 516 0;
#X connect 518 0 517 1;
#X connect 520 0 57 0;
#X connect 520 1 58 0;
#X connect 524 0 520 2;
#X connect 525 0 520 2;
#X connect 526 0 524 0;
#X connect 526 0 525 0;
#X connect 527 0 537 0;
#X connect 528 0 538 0;
#X connect 529 0 533 0;
#X connect 530 0 534 0;
#X connect 531 0 536 0;
#X connect 532 0 535 0;
#X connect 533 0 531 0;
#X connect 534 0 532 0;
#X connect 535 0 547 0;
#X connect 536 0 547 0;
#X connect 537 0 529 0;
#X connect 538 0 530 0;
#X connect 539 0 541 0;
#X connect 540 0 533 1;
#X connect 540 0 534 1;
#X connect 541 0 540 0;
#X connect 541 1 542 0;
#X connect 542 0 533 1;
#X connect 542 0 534 1;
#X connect 543 0 541 0;
#X connect 544 0 546 0;
#X connect 544 0 548 0;
#X connect 546 0 545 0;
#X connect 547 0 544 0;
#X connect 547 0 531 1;
#X connect 547 0 532 1;
#X connect 548 0 551 0;
#X connect 548 0 550 0;
#X connect 548 0 549 0;
#X connect 548 0 552 0;
#X connect 548 1 550 0;
#X connect 548 1 549 0;
#X connect 548 1 552 0;
#X connect 555 0 472 1;
#X connect 556 0 560 0;
#X connect 557 0 561 0;
#X connect 558 0 563 0;
#X connect 559 0 562 0;
#X connect 560 0 558 0;
#X connect 561 0 559 0;
#X connect 562 0 580 0;
#X connect 563 0 580 0;
#X connect 564 0 556 0;
#X connect 565 0 557 0;
#X connect 566 0 568 0;
#X connect 567 0 560 1;
#X connect 567 0 561 1;
#X connect 568 0 567 0;
#X connect 568 1 569 0;
#X connect 569 0 560 1;
#X connect 569 0 561 1;
#X connect 570 0 568 0;
#X connect 571 0 572 0;
#X connect 571 0 583 0;
#X connect 572 0 579 0;
#X connect 577 0 565 0;
#X connect 578 0 564 0;
#X connect 580 0 571 0;
#X connect 580 0 558 1;
#X connect 580 0 559 1;
#X connect 581 0 582 0;
#X connect 582 0 579 0;
#X connect 583 0 575 0;
#X connect 583 0 574 0;
#X connect 583 0 573 0;
#X connect 583 0 576 0;
#X connect 583 1 574 0;
#X connect 583 1 573 0;
#X connect 583 1 576 0;
#X connect 584 0 57 1;
#X connect 585 0 58 1;
#X connect 587 0 584 1;
#X connect 587 0 585 1;
#X connect 591 0 605 0;
#X connect 592 0 602 0;
#X connect 593 0 603 0;
#X connect 594 0 598 0;
#X connect 595 0 599 0;
#X connect 596 0 601 0;
#X connect 597 0 600 0;
#X connect 598 0 596 0;
#X connect 599 0 597 0;
#X connect 600 0 615 0;
#X connect 601 0 615 0;
#X connect 602 0 594 0;
#X connect 603 0 595 0;
#X connect 604 0 598 1;
#X connect 604 0 599 1;
#X connect 605 0 604 0;
#X connect 605 1 606 0;
#X connect 606 0 598 1;
#X connect 606 0 599 1;
#X connect 607 0 605 0;
#X connect 608 0 651 0;
#X connect 613 0 586 0;
#X connect 614 0 658 0;
#X connect 615 0 608 0;
#X connect 615 0 596 1;
#X connect 615 0 597 1;
#X connect 616 0 641 0;
#X connect 617 0 635 0;
#X connect 617 0 640 0;
#X connect 618 0 636 0;
#X connect 618 0 664 0;
#X connect 619 0 635 0;
#X connect 620 0 619 0;
#X connect 621 0 617 0;
#X connect 621 0 620 0;
#X connect 621 1 622 0;
#X connect 621 1 624 0;
#X connect 621 2 627 0;
#X connect 621 2 625 0;
#X connect 622 0 635 0;
#X connect 623 0 635 0;
#X connect 624 0 623 0;
#X connect 625 0 626 0;
#X connect 626 0 635 0;
#X connect 627 0 635 0;
#X connect 628 0 621 0;
#X connect 629 0 664 1;
#X connect 630 0 629 0;
#X connect 631 0 642 0;
#X connect 632 0 633 0;
#X connect 633 0 648 0;
#X connect 634 0 633 1;
#X connect 635 0 616 0;
#X connect 636 0 630 0;
#X connect 637 0 638 0;
#X connect 638 0 642 0;
#X connect 639 0 636 0;
#X connect 639 0 664 0;
#X connect 640 0 637 0;
#X connect 640 0 631 0;
#X connect 640 0 647 0;
#X connect 641 0 653 0;
#X connect 642 0 646 0;
#X connect 643 0 646 1;
#X connect 644 0 634 0;
#X connect 645 0 643 0;
#X connect 646 0 644 0;
#X connect 647 0 645 0;
#X connect 648 0 641 1;
#X connect 649 0 660 0;
#X connect 649 0 662 0;
#X connect 650 0 660 0;
#X connect 650 0 662 0;
#X connect 651 0 611 0;
#X connect 651 0 610 0;
#X connect 651 0 609 0;
#X connect 651 0 639 0;
#X connect 651 0 659 0;
#X connect 651 0 661 0;
#X connect 651 0 655 0;
#X connect 651 0 612 0;
#X connect 651 0 614 0;
#X connect 651 1 610 0;
#X connect 651 1 609 0;
#X connect 651 1 649 0;
#X connect 651 1 612 0;
#X connect 651 2 618 0;
#X connect 651 2 650 0;
#X connect 651 3 618 0;
#X connect 651 3 652 0;
#X connect 652 0 660 0;
#X connect 652 0 662 0;
#X connect 653 0 586 0;
#X connect 654 0 653 1;
#X connect 655 0 660 0;
#X connect 656 0 657 0;
#X connect 657 0 651 0;
#X connect 658 0 613 0;
#X connect 659 0 658 1;
#X connect 660 0 654 0;
#X connect 661 0 660 1;
#X connect 661 0 654 0;
#X connect 662 0 660 1;
#X connect 662 0 663 0;
#X connect 663 0 613 0;
#X connect 664 0 628 0;
#X connect 665 0 666 0;
#X connect 665 0 666 1;
#X connect 667 0 670 0;
#X connect 668 0 667 0;
#X connect 669 0 668 0;
#X connect 670 0 689 0;
#X connect 670 0 673 0;
#X connect 671 0 681 0;
#X connect 672 0 681 0;
#X connect 672 0 703 0;
#X connect 675 0 676 0;
#X connect 677 0 678 0;
#X connect 679 0 681 0;
#X connect 679 0 689 0;
#X connect 679 0 703 0;
#X connect 681 0 670 0;
#X connect 681 0 691 0;
#X connect 682 0 688 0;
#X connect 685 0 686 1;
#X connect 686 0 696 0;
#X connect 686 0 684 0;
#X connect 687 0 685 0;
#X connect 689 0 680 0;
#X connect 691 0 693 0;
#X connect 691 0 700 0;
#X connect 693 0 704 0;
#X connect 695 0 669 0;
#X connect 695 1 701 0;
#X connect 696 0 699 0;
#X connect 697 0 686 0;
#X connect 700 0 695 0;
#X connect 701 0 668 0;
#X connect 702 0 665 0;
#X connect 703 0 696 0;
#X connect 704 0 694 0;
