#N canvas 827 239 734 565 12;
#X obj 669 2072 dac~;
#X obj 863 1888 hsl 116 17 0 1 0 0 empty empty empty -2 -8 0 10 #191919 #e1e1e1 #e1e1e1 0 1;
#X obj 832 1954 line~;
#X msg 832 1922 \$1 20;
#X obj 737 2029 *~;
#X obj 739 1005 hv.filter~ lowpass;
#X obj 904 924 hsl 121 19 0 1 0 0 empty empty empty -2 -8 0 10 #191919 #e1e1e1 #e1e1e1 0 1;
#X msg 878 960 \$1 20;
#X obj 878 993 line;
#X obj 738 1485 *~;
#X obj 363 997 hsl 121 19 0 1 0 0 empty empty empty -2 -8 0 10 #191919 #e1e1e1 #e1e1e1 0 1;
#X msg 338 1036 \$1 20;
#X obj 338 1068 line~;
#X obj 738 1513 hip~ 20;
#X obj 891 1041 loadbang;
#X msg 839 1051 1;
#X msg 830 980 0.5;
#X obj 954 1041 bng 19 250 50 0 empty empty empty 17 7 0 10 #191919 #ffffff #ffffff;
#X obj 784 1051 * 200;
#X obj 784 901 * 2000;
#X text 338 958 gain / drive;
#X obj 338 1125 +~ 2;
#X obj 739 1084 hv.filter~ highpass;
#X obj 784 931 + 4000;
#X obj 784 960 - 2000;
#X obj 338 980 r knob0 @hv_param;
#X obj 878 901 r knob1 @hv_param;
#X obj 283 1585 *~;
#X obj 338 1097 *~ 100;
#X obj 135 1146 hv.drunk 100 7;
#X obj 135 1291 osc~;
#X obj 207 1196 loadbang;
#X obj 279 1196 bng 25 250 50 0 empty empty empty 17 7 0 10 #191919 #ffffff #ffffff;
#X obj 738 878 +~;
#X obj 400 1379 hsl 121 19 0 1 0 0 empty empty empty -2 -8 0 10 #191919 #e1e1e1 #e1e1e1 0 1;
#X msg 366 1411 \$1 20;
#X obj 366 1439 line~;
#X obj 366 1355 r knob5 @hv_param;
#X obj 612 2029 *~;
#X obj 614 1005 hv.filter~ lowpass;
#X obj 613 1485 *~;
#X obj 613 1513 hip~ 20;
#X obj 614 1084 hv.filter~ highpass;
#X obj 613 878 +~;
#X obj 431 1585 *~;
#X obj 755 497 hsl 116 17 0 1 0 0 empty empty empty -2 -8 0 10 #191919 #e1e1e1 #e1e1e1 0 1;
#X obj 724 563 line~;
#X msg 724 531 \$1 20;
#X obj 283 1621 hip~ 20;
#X obj 431 1621 hip~ 20;
#X text 366 1333 delfeedback;
#X obj 366 1583 tgl 25 0 empty empty empty 17 7 0 10 #191919 #ffffff #ffffff 0 1;
#X obj 366 1546 change;
#X msg 366 1621 clear;
#X obj 90 1106 hsl 121 19 0 1 0 0 empty empty empty -2 -8 0 10 #191919 #e1e1e1 #e1e1e1 0 1;
#X msg 64 1141 \$1 20;
#X obj 64 1173 line~;
#X obj 64 1085 r knob4 @hv_param;
#X obj 463 1954 *~;
#X obj 514 1954 *~;
#X obj 345 1913 *~ -1;
#X obj 345 1945 +~ 1;
#X obj 832 1863 r faderleft @hv_param;
#X obj 724 472 r faderright @hv_param;
#X obj 612 1954 *~;
#X obj 737 1954 *~;
#X obj 376 1763 hsl 121 19 0 1 0 0 empty empty empty -2 -8 0 10 #191919 #e1e1e1 #e1e1e1 0 1;
#X msg 345 1796 \$1 20;
#X obj 345 1828 line~;
#X obj 345 1740 r knob2 @hv_param;
#X text 345 1718 dry/wet;
#X text 920 1840 end vol;
#X msg 1379 743 \$1 20, f 9;
#X msg 1589 641 \$1 20, f 9;
#X obj 1379 605 change;
#X obj 1589 605 change;
#X obj 1515 562 ==;
#X obj 1515 605 change;
#X obj 1515 525 t b f;
#X msg 1515 641 \$1 20, f 9;
#X obj 1515 684 line~;
#X obj 1589 684 line~;
#X obj 1379 477 r toggle1left_press @hv_param;
#X obj 1589 477 r toggle1right_press @hv_param;
#X obj 1515 805 s~ leftswitch;
#X obj 942 1538 hsl 121 19 0 1 0 0 empty empty empty -2 -8 0 10 #191919 #e1e1e1 #e1e1e1 0 1;
#X msg 924 1568 \$1 20;
#X obj 924 1600 line~;
#X obj 968 447 r~ leftswitch;
#X obj 924 1512 r knob3 @hv_param;
#X obj 613 1678 *~;
#X obj 738 1678 *~;
#X obj 395 1097 *~ -100;
#X obj 395 1126 +~ 200;
#X obj 395 1154 *~ 0.1;
#X obj 565 472 adc~;
#X msg 1182 1663 \$1 20, f 9;
#X msg 1392 1663 \$1 20, f 9;
#X obj 1182 1627 change;
#X obj 1392 1627 change;
#X obj 1318 1584 ==;
#X obj 1318 1627 change;
#X obj 1318 1547 t b f;
#X msg 1318 1663 \$1 20, f 9;
#X obj 1182 1706 line~;
#X obj 1318 1706 line~;
#X obj 1392 1706 line~;
#X obj 1318 1827 s~ rightswitch;
#X obj 968 673 *~;
#X obj 775 800 lop~ 2000;
#X obj 626 800 lop~ 2000;
#X obj 1182 1499 r toggle2down_press @hv_param;
#X obj 1392 1499 r toggle2up_press @hv_param;
#X obj 135 1453 s~ lfomod;
#X obj 1020 472 r~ lfomod;
#X obj 775 665 *~;
#X obj 724 665 *~;
#X obj 1379 633 sel 0 1;
#X obj 1409 702 s stopdelmod;
#X obj 1048 531 r stopdelmod;
#X obj 1048 572 sig~;
#X obj 1020 595 *~;
#X msg 1437 665 1;
#X msg 1411 665 0;
#X text 1525 447 del multiplier;
#X obj 613 1763 hv.filter~ lowpass;
#X obj 738 1763 hv.filter~ lowpass;
#X obj 924 1660 snapshot~;
#X msg 924 1694 \$1 100;
#X obj 924 1726 line;
#X obj 924 1629 *~ 10000;
#X text 924 1490 filter;
#X obj 613 1726 *~ 0.2;
#X obj 738 1726 *~ 0.2;
#X obj 626 773 *~ 0.4;
#X obj 775 773 *~ 0.4;
#X obj 1020 635 osc~;
#X obj 613 1826 *~ 0.1;
#X obj 738 1826 *~ 0.1;
#X obj 1660 1009 cnv 15 1278 698 empty empty TOUCHPADS\ gain 20 12 0 14 #626262 #ffffff 0;
#X obj 1679 1043 r mpr121_driver_ch3 @hv_param;
#X obj 1901 1043 r mpr121_driver_ch4 @hv_param;
#X obj 2128 1043 r mpr121_driver_ch5 @hv_param;
#X obj 1679 1366 r mpr121_driver_ch6 @hv_param;
#X obj 1901 1366 r mpr121_driver_ch7 @hv_param;
#X obj 2361 1043 r mpr121_driver_ch8 @hv_param;
#X obj 2128 1366 r mpr121_driver_ch9 @hv_param;
#X obj 1679 1136 sel 0 1;
#X msg 1681 1167 0;
#X obj 1679 1099 tgl 25 0 empty empty empty 17 7 0 10 #191919 #ffffff #ffffff 0 1;
#X obj 1679 1074 change;
#X obj 2465 1423 sel 0 1;
#X obj 2465 1358 change;
#X obj 2465 1388 tgl 25 0 empty empty empty 17 7 0 10 #191919 #ffffff #ffffff 0 1;
#X obj 2465 1328 r mpr121_driver_ch0 @hv_param;
#X obj 2686 1366 metro 20;
#X obj 2686 1394 hv.drunk 1000 77;
#X obj 2686 1432 / 1000;
#X msg 2498 1532 1000;
#X obj 2686 1328 loadbang;
#X obj 2686 1466 spigot;
#X msg 2686 1497 \$1 20, f 9;
#X obj 366 1513 r mpr121_driver_ch10 @hv_param;
#X obj 2855 1501 sel 0 1;
#X obj 2855 1358 change;
#X obj 2855 1466 tgl 25 0 empty empty empty 17 7 0 10 #191919 #ffffff #ffffff 0 1;
#X msg 2857 1537 0;
#X msg 2888 1537 1;
#X obj 1462 587 tgl 25 0 empty empty empty 17 7 0 10 #191919 #ffffff #ffffff 0 1;
#X obj 626 697 *~ 100;
#X obj 775 697 *~ 100;
#X text 1328 1468 touchpads gain multiplier;
#X obj 1223 1584 tgl 25 0 empty empty empty 17 7 0 10 #191919 #ffffff #ffffff 0 1;
#X obj 1318 1752 *~ 0.4;
#X obj 1392 1752 *~ 0.8;
#X msg 1708 1167 0.2;
#X obj 2464 1587 s padstiming;
#X obj 1750 1167 r padstiming;
#X obj 1679 1196 pack f f;
#X msg 2465 1532 10;
#X obj 2855 1328 r mpr121_driver_ch2 @hv_param;
#X obj 1901 1136 sel 0 1;
#X msg 1903 1167 0;
#X obj 1901 1099 tgl 25 0 empty empty empty 17 7 0 10 #191919 #ffffff #ffffff 0 1;
#X obj 1901 1074 change;
#X obj 1972 1167 r padstiming;
#X obj 1901 1196 pack f f;
#X obj 2128 1136 sel 0 1;
#X msg 2130 1167 0;
#X obj 2128 1099 tgl 25 0 empty empty empty 17 7 0 10 #191919 #ffffff #ffffff 0 1;
#X obj 2128 1074 change;
#X obj 2199 1167 r padstiming;
#X obj 2128 1196 pack f f;
#X obj 1679 1459 sel 0 1;
#X msg 1681 1490 0;
#X obj 1679 1422 tgl 25 0 empty empty empty 17 7 0 10 #191919 #ffffff #ffffff 0 1;
#X obj 1679 1397 change;
#X obj 1750 1490 r padstiming;
#X obj 1679 1519 pack f f;
#X obj 1901 1459 sel 0 1;
#X msg 1903 1490 0;
#X obj 1901 1422 tgl 25 0 empty empty empty 17 7 0 10 #191919 #ffffff #ffffff 0 1;
#X obj 1901 1397 change;
#X obj 1970 1490 r padstiming;
#X obj 1901 1519 pack f f;
#X obj 2361 1136 sel 0 1;
#X msg 2363 1167 0;
#X obj 2361 1100 tgl 25 0 empty empty empty 17 7 0 10 #191919 #ffffff #ffffff 0 1;
#X obj 2361 1075 change;
#X obj 2432 1167 r padstiming;
#X obj 2361 1196 pack f f;
#X obj 2128 1460 sel 0 1;
#X msg 2130 1491 0;
#X obj 2128 1423 tgl 25 0 empty empty empty 17 7 0 10 #191919 #ffffff #ffffff 0 1;
#X obj 2128 1398 change;
#X obj 2199 1491 r padstiming;
#X obj 2128 1520 pack f f;
#X msg 2157 1491 0.8;
#X obj 1679 1278 s~ mix;
#X obj 2686 1601 sig~;
#X obj 2686 1670 s~ randomizer;
#X obj 237 714 r~ mix;
#X obj 290 673 r~ randomizer;
#X obj 237 926 +~;
#X obj 1901 1278 s~ mix;
#X obj 2128 1278 s~ mix;
#X obj 2361 1278 s~ mix;
#X obj 2361 1251 line~;
#X obj 2128 1575 line~;
#X obj 1901 1251 line~;
#X obj 1679 1251 line~;
#X obj 2128 1251 line~;
#X obj 1679 1574 line~;
#X obj 1901 1574 line~;
#X msg 1679 1224 \$1 \$2, f 9;
#X msg 1901 1224 \$1 \$2, f 9;
#X msg 2128 1224 \$1 \$2, f 9;
#X msg 1679 1547 \$1 \$2, f 9;
#X msg 1901 1547 \$1 \$2, f 9;
#X msg 2128 1548 \$1 \$2, f 9;
#X msg 2361 1224 \$1 \$2, f 9;
#X obj 2686 1534 line 20;
#X obj 1182 1752 *~ 0.02;
#X obj 1379 774 line~;
#X obj 2465 1458 tgl 25 0 empty empty empty 17 7 0 10 #191919 #ffffff #ffffff 0 1;
#X obj 245 841 r~ rightswitch;
#X obj 237 887 *~;
#X obj 207 1228 metro 1;
#X obj 135 1262 *~;
#X obj 2465 1495 sel 0 1;
#X obj 2686 1568 * 0.5;
#X obj 290 704 *~ 0.1;
#X obj 290 734 +~ 0.2;
#X obj 290 766 -~ 0.1;
#X obj 355 919 line~;
#X obj 355 821 snapshot~;
#X obj 355 789 metro 1;
#X obj 355 757 loadbang;
#X obj 395 714 bng 25 250 50 0 empty empty empty 17 7 0 10 #191919 #ffffff #ffffff;
#X msg 355 887 \$1 500;
#X obj 135 1202 line~;
#X obj 135 1235 /~ 100;
#X obj 135 1315 +~ 1;
#X text 64 1063 delfeedback modulation lfo;
#X obj 1515 730 *~ 0.5;
#X obj 386 545 tgl 25 0 empty empty empty 17 7 0 10 #191919 #ffffff #ffffff 0 1;
#X obj 305 479 r mpr121_driver_ch11 @hv_param;
#X obj 355 853 spigot;
#X msg 307 615 0;
#X obj 305 587 sel 0;
#X text 305 456 randomizer main switch;
#X obj 1166 369 r~ randomizer;
#X obj 1166 400 *~ 0.1;
#X obj 1166 430 +~ 0.2;
#X obj 1166 462 -~ 0.1;
#X obj 1229 569 snapshot~;
#X obj 1229 537 metro 1;
#X obj 1229 505 loadbang;
#X obj 1269 462 bng 25 250 50 0 empty empty empty 17 7 0 10 #191919 #ffffff #ffffff;
#X obj 1229 596 spigot;
#X obj 1020 513 +~;
#X obj 1229 660 line~;
#X msg 1229 628 \$1 20;
#X obj 2855 1429 sel 0 1;
#X obj 2855 1394 tgl 25 0 empty empty empty 17 7 0 10 #191919 #ffffff #ffffff 0 1;
#X obj 305 509 change;
#X obj 305 545 tgl 25 0 empty empty empty 17 7 0 10 #191919 #ffffff #ffffff 0 1;
#X obj 1589 730 *~ 70;
#X obj 366 1468 +~;
#X obj 135 1424 *~;
#X msg 1678 605 1;
#X obj 283 1663 delwrite~ del-l 100;
#X obj 431 1663 delwrite~ del-r 100;
#X obj 626 750 delread4~ del-l 7000;
#X obj 775 750 delread4~ del-r 7000;
#X obj 968 811 +~;
#X msg 135 1173 \$1 20;
#X obj 135 1339 *~ 0.5;
#X obj 1004 1629 bang~;
#X obj 339 545 sel 1;
#X msg 1217 1070 feedfwd \$1;
#X msg 1217 1138 indelay \$1;
#X text 1309 1069 Feedforward amount (0...0.999);
#X text 1309 1103 Feedback amount (0...0.999);
#X msg 1217 1104 feedback \$1;
#X text 1309 1171 Input delay time (0...50ms);
#X msg 1217 1206 slide \$1;
#X text 1309 1205 Delay update interpolation time (0...1000ms);
#X text 1309 1137 Output delay time (0...50ms);
#X msg 1217 1172 outdelay \$1;
#X obj 1130 1246 hv.comb~;
#X obj 1045 1246 hv.comb~;
#X obj 1065 1070 random 1000;
#X obj 1161 1070 / 1000;
#X obj 1065 1104 random 1000;
#X obj 1161 1104 / 1000;
#X obj 1065 1138 random 50;
#X obj 1065 1172 random 50;
#X obj 1065 1206 random 1000;
#X obj 1166 930 tgl 25 0 empty empty empty 17 7 0 10 #191919 #ffffff #ffffff 0 1;
#X obj 1166 894 change;
#X obj 1166 861 r mpr121_driver_ch1 @hv_param;
#X obj 1166 974 sel 1;
#X obj 1232 894 loadbang;
#X obj 1244 930 tgl 25 0 empty empty empty 17 7 0 10 #191919 #ffffff #ffffff 0 1;
#X obj 1197 930 sel 1;
#X obj 616 1392 *~;
#X obj 662 1392 *~;
#X obj 640 1285 *~ -1;
#X obj 640 1317 +~ 1;
#X obj 716 1392 *~;
#X obj 758 1392 *~;
#X msg 758 1214 \$1 20;
#X obj 758 1246 line~;
#X msg 1246 1006 0;
#X msg 1217 1006 1;
#X obj -1 597 min~;
#X obj 649 1621 hv.tanh~;
#X obj -1 531 max~;
#X obj 18 492 sig~ -20;
#X obj 15 561 sig~ 20;
#X obj 25 656 lop~ 10;
#X obj -1 699 -~;
#X obj 1975 662 r ledswitch;
#X obj 1975 716 sel 1 0;
#X msg 2032 833 0;
#X msg 1978 833 1;
#X obj 1975 799 del 5;
#X msg 2104 833 1;
#X msg 2174 833 0;
#X msg 2246 833 1;
#X msg 2321 833 0;
#X obj 2243 799 del 1000;
#X obj 2319 799 del 1250;
#X obj 2030 799 del 350;
#X obj 2101 799 del 600;
#X obj 2172 799 del 800;
#X obj 1975 922 s daisyled @hv_param;
#X obj 422 545 s ledswitch;
#X obj 1303 930 s ledswitch;
#X obj 2544 1466 s ledswitch;
#X obj 2938 1501 s ledswitch;
#X obj 764 1600 clip~ -0.7 0.7;
#X obj 738 1566 hv.tanh~;
#X obj 613 1559 hv.tanh~;
#X obj 613 1797 hv.tanh~;
#X obj 738 1797 hv.tanh~;
#X obj 494 1546 s ledswitch;
#X obj 441 1546 sel 1;
#X obj 292 811 *~ 5;
#X obj 1166 495 *~ 5;
#X msg 1930 1167 0.35;
#X msg 2157 1167 0.65;
#X msg 2390 1167 0.85;
#X msg 1708 1490 0.15;
#X msg 1930 1490 0.25;
#X obj 1679 1601 s~ gainpads;
#X obj 1901 1601 s~ gainpads;
#X obj 2128 1602 s~ gainpads;
#X obj 249 1740 r~ gainpads;
#X obj 253 1865 +~;
#X obj 2544 1491 s customled1;
#X obj 2938 1466 s customled3;
#X obj 1303 960 s customled2;
#X msg 2485 833 0;
#X msg 2431 833 1;
#X obj 2428 799 del 5;
#X msg 2557 833 1;
#X msg 2627 833 0;
#X msg 2699 833 1;
#X msg 2774 833 0;
#X obj 2696 799 del 1000;
#X obj 2772 799 del 1250;
#X obj 2483 799 del 350;
#X obj 2554 799 del 600;
#X obj 2625 799 del 800;
#X obj 2428 662 r customled1;
#X msg 2912 833 0;
#X msg 2858 833 1;
#X obj 2855 799 del 5;
#X msg 2984 833 1;
#X msg 3054 833 0;
#X msg 3126 833 1;
#X msg 3201 833 0;
#X obj 3123 799 del 1000;
#X obj 3199 799 del 1250;
#X obj 2910 799 del 350;
#X obj 2981 799 del 600;
#X obj 3052 799 del 800;
#X obj 2855 662 r customled2;
#X obj 3272 716 sel 1 0;
#X msg 3329 833 0;
#X msg 3275 833 1;
#X obj 3272 799 del 5;
#X msg 3401 833 1;
#X msg 3471 833 0;
#X msg 3543 833 1;
#X msg 3618 833 0;
#X obj 3540 799 del 1000;
#X obj 3616 799 del 1250;
#X obj 3327 799 del 350;
#X obj 3398 799 del 600;
#X obj 3469 799 del 800;
#X obj 3272 922 s led3 @hv_param;
#X obj 3272 662 r customled3;
#X obj 2428 922 s led2 @hv_param;
#X obj 2855 922 s led1 @hv_param;
#X obj 2428 716 sel 0 1;
#X obj 2855 716 sel 0 1;
#X connect 1 0 3 0;
#X connect 2 0 4 1;
#X connect 2 0 38 1;
#X connect 3 0 2 0;
#X connect 4 0 0 1;
#X connect 5 0 22 0;
#X connect 6 0 7 0;
#X connect 7 0 8 0;
#X connect 8 0 19 0;
#X connect 8 0 18 0;
#X connect 9 0 13 0;
#X connect 10 0 11 0;
#X connect 11 0 12 0;
#X connect 12 0 28 0;
#X connect 12 0 92 0;
#X connect 13 0 363 0;
#X connect 14 0 16 0;
#X connect 14 0 15 0;
#X connect 15 0 22 2;
#X connect 15 0 42 2;
#X connect 16 0 5 2;
#X connect 16 0 39 2;
#X connect 17 0 16 0;
#X connect 17 0 15 0;
#X connect 18 0 22 1;
#X connect 18 0 42 1;
#X connect 19 0 23 0;
#X connect 21 0 9 1;
#X connect 21 0 40 1;
#X connect 22 0 310 0;
#X connect 22 0 327 0;
#X connect 23 0 24 0;
#X connect 24 0 5 1;
#X connect 24 0 39 1;
#X connect 25 0 11 0;
#X connect 26 0 7 0;
#X connect 27 0 48 0;
#X connect 28 0 21 0;
#X connect 29 0 296 0;
#X connect 30 0 262 0;
#X connect 31 0 247 0;
#X connect 32 0 247 0;
#X connect 33 0 5 0;
#X connect 34 0 35 0;
#X connect 35 0 36 0;
#X connect 36 0 288 0;
#X connect 37 0 35 0;
#X connect 38 0 0 0;
#X connect 39 0 42 0;
#X connect 40 0 41 0;
#X connect 41 0 364 0;
#X connect 42 0 311 0;
#X connect 42 0 326 0;
#X connect 43 0 39 0;
#X connect 44 0 49 0;
#X connect 45 0 47 0;
#X connect 46 0 115 0;
#X connect 46 0 116 0;
#X connect 47 0 46 0;
#X connect 48 0 291 0;
#X connect 49 0 292 0;
#X connect 51 0 53 0;
#X connect 51 0 368 0;
#X connect 52 0 51 0;
#X connect 53 0 291 0;
#X connect 53 0 292 0;
#X connect 54 0 55 0;
#X connect 55 0 56 0;
#X connect 56 0 248 1;
#X connect 56 0 289 1;
#X connect 57 0 55 0;
#X connect 58 0 38 0;
#X connect 59 0 4 0;
#X connect 60 0 61 0;
#X connect 61 0 58 1;
#X connect 61 0 59 1;
#X connect 62 0 3 0;
#X connect 63 0 47 0;
#X connect 64 0 38 0;
#X connect 65 0 4 0;
#X connect 66 0 67 0;
#X connect 67 0 68 0;
#X connect 68 0 380 1;
#X connect 69 0 67 0;
#X connect 72 0 243 0;
#X connect 73 0 81 0;
#X connect 74 0 117 0;
#X connect 75 0 73 0;
#X connect 76 0 77 0;
#X connect 77 0 79 0;
#X connect 78 0 76 0;
#X connect 78 1 76 1;
#X connect 79 0 80 0;
#X connect 80 0 264 0;
#X connect 81 0 287 0;
#X connect 82 0 76 0;
#X connect 82 0 74 0;
#X connect 83 0 78 0;
#X connect 83 0 75 0;
#X connect 85 0 86 0;
#X connect 86 0 87 0;
#X connect 87 0 130 0;
#X connect 88 0 108 0;
#X connect 89 0 86 0;
#X connect 90 0 132 0;
#X connect 91 0 133 0;
#X connect 92 0 93 0;
#X connect 93 0 94 0;
#X connect 94 0 90 1;
#X connect 94 0 91 1;
#X connect 95 0 43 0;
#X connect 95 0 58 0;
#X connect 95 1 33 0;
#X connect 95 1 59 0;
#X connect 96 0 104 0;
#X connect 97 0 106 0;
#X connect 98 0 96 0;
#X connect 99 0 97 0;
#X connect 100 0 101 0;
#X connect 101 0 103 0;
#X connect 102 0 100 0;
#X connect 102 1 100 1;
#X connect 103 0 105 0;
#X connect 104 0 242 0;
#X connect 105 0 173 0;
#X connect 106 0 174 0;
#X connect 108 0 116 1;
#X connect 108 0 295 0;
#X connect 109 0 33 1;
#X connect 110 0 43 1;
#X connect 111 0 100 0;
#X connect 111 0 98 0;
#X connect 112 0 102 0;
#X connect 112 0 99 0;
#X connect 114 0 280 0;
#X connect 115 0 170 0;
#X connect 116 0 169 0;
#X connect 117 0 123 0;
#X connect 117 1 122 0;
#X connect 119 0 120 0;
#X connect 120 0 121 1;
#X connect 121 0 136 0;
#X connect 121 0 295 1;
#X connect 122 0 72 0;
#X connect 122 0 118 0;
#X connect 123 0 72 0;
#X connect 123 0 118 0;
#X connect 125 0 365 0;
#X connect 126 0 366 0;
#X connect 127 0 128 0;
#X connect 128 0 129 0;
#X connect 129 0 125 1;
#X connect 129 0 126 1;
#X connect 130 0 127 0;
#X connect 132 0 125 0;
#X connect 133 0 126 0;
#X connect 134 0 110 0;
#X connect 135 0 109 0;
#X connect 136 0 108 1;
#X connect 137 0 64 0;
#X connect 138 0 65 0;
#X connect 140 0 150 0;
#X connect 141 0 184 0;
#X connect 142 0 190 0;
#X connect 143 0 196 0;
#X connect 144 0 202 0;
#X connect 145 0 208 0;
#X connect 146 0 214 0;
#X connect 147 0 148 0;
#X connect 147 1 175 0;
#X connect 148 0 178 0;
#X connect 149 0 147 0;
#X connect 150 0 149 0;
#X connect 151 1 244 0;
#X connect 152 0 153 0;
#X connect 153 0 151 0;
#X connect 154 0 152 0;
#X connect 155 0 156 0;
#X connect 156 0 157 0;
#X connect 157 0 160 0;
#X connect 158 0 176 0;
#X connect 159 0 155 0;
#X connect 160 0 161 0;
#X connect 161 0 241 0;
#X connect 162 0 52 0;
#X connect 163 0 166 0;
#X connect 163 1 167 0;
#X connect 164 0 284 0;
#X connect 165 0 163 0;
#X connect 165 0 361 0;
#X connect 165 0 382 0;
#X connect 166 0 160 1;
#X connect 166 0 161 0;
#X connect 167 0 160 1;
#X connect 168 0 74 0;
#X connect 169 0 293 0;
#X connect 170 0 294 0;
#X connect 172 0 98 0;
#X connect 173 0 107 0;
#X connect 174 0 107 0;
#X connect 175 0 178 0;
#X connect 177 0 178 1;
#X connect 178 0 234 0;
#X connect 179 0 176 0;
#X connect 180 0 164 0;
#X connect 181 0 182 0;
#X connect 181 1 371 0;
#X connect 182 0 186 0;
#X connect 183 0 181 0;
#X connect 184 0 183 0;
#X connect 185 0 186 1;
#X connect 186 0 235 0;
#X connect 187 0 188 0;
#X connect 187 1 372 0;
#X connect 188 0 192 0;
#X connect 189 0 187 0;
#X connect 190 0 189 0;
#X connect 191 0 192 1;
#X connect 192 0 236 0;
#X connect 193 0 194 0;
#X connect 193 1 374 0;
#X connect 194 0 198 0;
#X connect 195 0 193 0;
#X connect 196 0 195 0;
#X connect 197 0 198 1;
#X connect 198 0 237 0;
#X connect 199 0 200 0;
#X connect 199 1 375 0;
#X connect 200 0 204 0;
#X connect 201 0 199 0;
#X connect 202 0 201 0;
#X connect 203 0 204 1;
#X connect 204 0 238 0;
#X connect 205 0 206 0;
#X connect 205 1 373 0;
#X connect 206 0 210 0;
#X connect 207 0 205 0;
#X connect 208 0 207 0;
#X connect 209 0 210 1;
#X connect 210 0 240 0;
#X connect 211 0 212 0;
#X connect 211 1 217 0;
#X connect 212 0 216 0;
#X connect 213 0 211 0;
#X connect 214 0 213 0;
#X connect 215 0 216 1;
#X connect 216 0 239 0;
#X connect 217 0 216 0;
#X connect 219 0 220 0;
#X connect 221 0 246 0;
#X connect 222 0 251 0;
#X connect 223 0 28 0;
#X connect 223 0 92 0;
#X connect 227 0 226 0;
#X connect 228 0 378 0;
#X connect 229 0 224 0;
#X connect 230 0 218 0;
#X connect 231 0 225 0;
#X connect 232 0 376 0;
#X connect 233 0 377 0;
#X connect 234 0 230 0;
#X connect 235 0 229 0;
#X connect 236 0 231 0;
#X connect 237 0 232 0;
#X connect 238 0 233 0;
#X connect 239 0 228 0;
#X connect 240 0 227 0;
#X connect 241 0 250 0;
#X connect 242 0 107 0;
#X connect 243 0 84 0;
#X connect 244 0 249 0;
#X connect 244 0 381 0;
#X connect 244 0 360 0;
#X connect 245 0 246 1;
#X connect 246 0 223 0;
#X connect 247 0 29 0;
#X connect 248 0 30 0;
#X connect 249 0 179 0;
#X connect 249 1 158 0;
#X connect 250 0 219 0;
#X connect 251 0 252 0;
#X connect 252 0 253 0;
#X connect 253 0 369 0;
#X connect 254 0 223 1;
#X connect 255 0 267 0;
#X connect 256 0 255 0;
#X connect 257 0 256 0;
#X connect 258 0 256 0;
#X connect 259 0 254 0;
#X connect 260 0 261 0;
#X connect 261 0 248 0;
#X connect 262 0 297 0;
#X connect 264 0 84 0;
#X connect 265 0 267 1;
#X connect 265 0 279 1;
#X connect 265 0 269 0;
#X connect 265 0 358 0;
#X connect 266 0 285 0;
#X connect 267 0 259 0;
#X connect 268 0 259 0;
#X connect 268 0 282 0;
#X connect 269 0 268 0;
#X connect 271 0 272 0;
#X connect 272 0 273 0;
#X connect 273 0 274 0;
#X connect 274 0 370 0;
#X connect 275 0 279 0;
#X connect 276 0 275 0;
#X connect 277 0 276 0;
#X connect 278 0 276 0;
#X connect 279 0 282 0;
#X connect 280 0 121 0;
#X connect 281 0 280 1;
#X connect 282 0 281 0;
#X connect 283 1 165 0;
#X connect 284 0 283 0;
#X connect 285 0 286 0;
#X connect 286 0 299 0;
#X connect 287 0 84 0;
#X connect 288 0 27 1;
#X connect 288 0 44 1;
#X connect 289 0 113 0;
#X connect 289 0 288 1;
#X connect 290 0 73 0;
#X connect 293 0 134 0;
#X connect 294 0 135 0;
#X connect 295 0 115 1;
#X connect 296 0 260 0;
#X connect 297 0 289 0;
#X connect 298 0 127 0;
#X connect 299 0 265 0;
#X connect 300 0 310 1;
#X connect 300 0 311 1;
#X connect 301 0 310 1;
#X connect 301 0 311 1;
#X connect 304 0 310 1;
#X connect 304 0 311 1;
#X connect 306 0 310 1;
#X connect 306 0 311 1;
#X connect 309 0 310 1;
#X connect 309 0 311 1;
#X connect 310 0 331 0;
#X connect 311 0 330 0;
#X connect 312 0 313 0;
#X connect 313 0 300 0;
#X connect 314 0 315 0;
#X connect 315 0 304 0;
#X connect 316 0 301 0;
#X connect 317 0 309 0;
#X connect 318 0 306 0;
#X connect 319 0 325 0;
#X connect 320 0 319 0;
#X connect 321 0 320 0;
#X connect 322 0 312 0;
#X connect 322 0 314 0;
#X connect 322 0 316 0;
#X connect 322 0 317 0;
#X connect 322 0 318 0;
#X connect 322 0 335 0;
#X connect 322 1 334 0;
#X connect 324 0 322 0;
#X connect 324 0 359 0;
#X connect 324 0 383 0;
#X connect 325 0 324 0;
#X connect 326 0 40 0;
#X connect 327 0 9 0;
#X connect 328 0 329 0;
#X connect 329 0 326 1;
#X connect 329 0 327 1;
#X connect 330 0 40 0;
#X connect 331 0 9 0;
#X connect 332 0 333 0;
#X connect 333 0 331 1;
#X connect 333 0 328 0;
#X connect 333 0 330 1;
#X connect 334 0 332 0;
#X connect 335 0 332 0;
#X connect 336 0 341 0;
#X connect 336 0 342 0;
#X connect 338 0 336 0;
#X connect 339 0 338 1;
#X connect 340 0 336 1;
#X connect 341 0 342 1;
#X connect 343 0 344 0;
#X connect 344 0 347 0;
#X connect 344 0 352 0;
#X connect 344 0 354 0;
#X connect 344 0 355 0;
#X connect 344 0 356 0;
#X connect 344 0 353 0;
#X connect 344 1 347 0;
#X connect 344 1 354 0;
#X connect 345 0 357 0;
#X connect 346 0 357 0;
#X connect 347 0 346 0;
#X connect 348 0 357 0;
#X connect 349 0 357 0;
#X connect 350 0 357 0;
#X connect 351 0 357 0;
#X connect 352 0 350 0;
#X connect 353 0 351 0;
#X connect 354 0 345 0;
#X connect 355 0 348 0;
#X connect 356 0 349 0;
#X connect 363 0 91 0;
#X connect 363 0 44 0;
#X connect 364 0 90 0;
#X connect 364 0 27 0;
#X connect 365 0 137 0;
#X connect 366 0 138 0;
#X connect 368 0 367 0;
#X connect 369 0 255 0;
#X connect 370 0 275 0;
#X connect 371 0 186 0;
#X connect 372 0 192 0;
#X connect 373 0 210 0;
#X connect 374 0 198 0;
#X connect 375 0 204 0;
#X connect 379 0 380 0;
#X connect 380 0 60 0;
#X connect 380 0 64 1;
#X connect 380 0 65 1;
#X connect 384 0 425 0;
#X connect 385 0 425 0;
#X connect 386 0 385 0;
#X connect 387 0 425 0;
#X connect 388 0 425 0;
#X connect 389 0 425 0;
#X connect 390 0 425 0;
#X connect 391 0 389 0;
#X connect 392 0 390 0;
#X connect 393 0 384 0;
#X connect 394 0 387 0;
#X connect 395 0 388 0;
#X connect 396 0 427 0;
#X connect 397 0 426 0;
#X connect 398 0 426 0;
#X connect 399 0 398 0;
#X connect 400 0 426 0;
#X connect 401 0 426 0;
#X connect 402 0 426 0;
#X connect 403 0 426 0;
#X connect 404 0 402 0;
#X connect 405 0 403 0;
#X connect 406 0 397 0;
#X connect 407 0 400 0;
#X connect 408 0 401 0;
#X connect 409 0 428 0;
#X connect 410 0 413 0;
#X connect 410 0 418 0;
#X connect 410 0 420 0;
#X connect 410 0 421 0;
#X connect 410 0 422 0;
#X connect 410 0 419 0;
#X connect 410 1 413 0;
#X connect 410 1 420 0;
#X connect 411 0 423 0;
#X connect 412 0 423 0;
#X connect 413 0 412 0;
#X connect 414 0 423 0;
#X connect 415 0 423 0;
#X connect 416 0 423 0;
#X connect 417 0 423 0;
#X connect 418 0 416 0;
#X connect 419 0 417 0;
#X connect 420 0 411 0;
#X connect 421 0 414 0;
#X connect 422 0 415 0;
#X connect 424 0 410 0;
#X connect 427 0 386 0;
#X connect 427 0 391 0;
#X connect 427 0 393 0;
#X connect 427 0 394 0;
#X connect 427 0 395 0;
#X connect 427 0 392 0;
#X connect 427 1 386 0;
#X connect 427 1 393 0;
#X connect 428 0 399 0;
#X connect 428 0 404 0;
#X connect 428 0 406 0;
#X connect 428 0 407 0;
#X connect 428 0 408 0;
#X connect 428 0 405 0;
#X connect 428 1 399 0;
#X connect 428 1 406 0;
