#N canvas 827 239 734 565 12;
#X obj 1575 709 r~ feedback;
#X obj 1575 792 *~;
#X obj 535 297 hsl 128 17 0 1 0 0 empty empty empty -2 -8 0 10 #191919 #ffffff #ffffff 0 1;
#X obj 532 322 r knob1 @hv_param;
#X msg 532 369 \$1 20;
#X obj 532 396 line~;
#X obj 1576 1023 +~;
#X obj 1576 1064 osc~ 200;
#X obj 871 297 hsl 128 17 0 1 0 0 empty empty empty -2 -8 0 10 #191919 #ffffff #ffffff 0 1;
#X msg 875 365 \$1 20;
#X obj 875 396 line~;
#X obj 1768 922 *~;
#X obj 1768 1023 +~;
#X obj 1768 1064 osc~ 200;
#X obj 1793 1099 send~ feedback;
#X obj 1768 1160 *~ 0.5;
#X obj 2177 1852 hsl 128 17 0 1 0 0 empty empty empty -2 -8 0 10 #191919 #ffffff #ffffff 0 1;
#X msg 2154 1878 \$1 20;
#X obj 2154 1905 line~;
#X obj 2070 1933 *~;
#X obj 2304 777 sel 0;
#X obj 2094 777 / 127;
#X obj 2136 901 line~;
#X msg 2136 876 \$1 10;
#X obj 2136 1012 snapshot~;
#X obj 2229 988 metro 10;
#X obj 2241 953 loadbang, f 9;
#X obj 2136 1047 change;
#X msg 2243 1047 5;
#X obj 2454 908 line~;
#X msg 2454 877 \$1 10;
#X obj 2454 1047 snapshot~;
#X obj 2559 960 metro 10;
#X obj 2559 933 loadbang, f 9;
#X msg 2561 1013 5;
#X text 2135 777 attack;
#X text 2452 770 decay;
#X obj 1768 1197 *~;
#X obj 2160 829 hsl 128 17 0 1 0 0 empty empty empty -2 -8 0 10 #191919 #ffffff #ffffff 0 1;
#X obj 2482 822 hsl 128 17 0 1 0 0 empty empty empty -2 -8 0 10 #191919 #ffffff #ffffff 0 1;
#X obj 2092 664 bng 25 250 50 0 empty empty empty 17 7 0 10 #191919 #ffffff #ffffff;
#X msg 2094 735 0;
#X obj 2154 1831 r faderleft @hv_param;
#X obj 873 322 r knob2 @hv_param;
#X obj 2132 805 r knob4 @hv_param;
#X obj 2452 798 r knob5 @hv_param;
#X obj 2175 600 notein;
#X obj 2269 625 r padnote;
#X obj 2092 625 r padoff;
#X msg 2269 698 100;
#X obj 1245 297 hsl 128 17 0 1 0 0 empty empty empty -2 -8 0 10 #191919 #ffffff #ffffff 0 1;
#X msg 1244 365 \$1 20;
#X obj 1244 396 line~;
#X obj 1242 322 r knob3 @hv_param;
#X text 1657 1063 sine osc 1;
#X text 1838 1063 sine osc 2;
#X text 1694 1131 send feedback to FModulate osc1;
#X text 1832 708 osc 1 modulates osc 2;
#X obj 532 429 send~ Bfreqval;
#X obj 875 429 send~ Cfreqval;
#X obj 1244 429 send~ Dfreqval;
#X obj 147 1925 change;
#X obj 357 1925 change;
#X obj 283 1882 ==;
#X obj 283 1925 change;
#X obj 283 1845 t b f;
#X obj 147 1797 r toggle1left_press @hv_param;
#X obj 357 1797 r toggle1right_press @hv_param;
#X text 293 1765 seq step length toggle;
#X obj 1814 615 r~ Cfv;
#X obj 161 297 hsl 128 17 0 1 0 0 empty empty empty -2 -8 0 10 #191919 #ffffff #ffffff 0 1;
#X msg 158 369 \$1 20;
#X obj 158 396 line~;
#X obj 158 322 r knob0 @hv_param;
#X obj 158 429 send~ Afreqval;
#X text 1657 718 feedback;
#X obj 2070 1831 catch~ fm;
#X obj 1768 1239 throw~ fm;
#X obj 72 1230 s randostep;
#X obj 805 2084 s probably;
#X obj 805 1949 change;
#X obj 1015 1949 change;
#X obj 941 1906 ==;
#X obj 941 1949 change;
#X obj 941 1869 t b f;
#X obj 805 1821 r toggle2down_press @hv_param;
#X obj 1015 1821 r toggle2up_press @hv_param;
#X obj 72 1183 tgl 25 0 empty empty empty 17 7 0 10 #191919 #ffffff #ffffff 0 1;
#X obj 72 1158 change;
#X obj 72 1127 r mpr121_driver_ch0 @hv_param;
#X obj 174 2084 s seqlength;
#X obj -2 1047 s rec_onoff;
#X obj -2 1014 bng 25 250 50 0 empty empty empty 17 7 0 10 #191919 #e1e1e1 #e1e1e1;
#X obj 158 681 send~ Afv;
#X obj 532 681 send~ Bfv;
#X obj 333 568 r~ Afreqval;
#X obj 677 568 r~ Bfreqval;
#X obj 719 596 r rec_onoff;
#X obj 1488 254 midiin;
#X obj 1488 305 midiout;
#X obj 626 1325 r step;
#X obj 626 1381 bng 25 250 50 0 empty empty empty 17 7 0 10 #191919 #e1e1e1 #e1e1e1;
#X obj 626 1351 sel 1;
#X msg 630 1527 36;
#X msg 655 1527 37;
#X msg 687 1527 38;
#X msg 712 1527 39;
#X msg 744 1527 40;
#X msg 774 1527 41;
#X msg 799 1527 42;
#X obj 627 1640 s padnote;
#X obj 630 1453 random 7;
#X obj 630 1422 r randostep;
#X obj 706 1581 f;
#X obj 626 1581 spigot;
#X msg 808 2037 1;
#X msg 943 2037 2;
#X msg 1017 2037 5;
#N canvas 733 172 450 300 random_step_prob 0;
#X obj 690 2273 tgl 26 0 empty empty empty 17 7 0 10 #191919 #e1e1e1 #e1e1e1 0 1;
#X obj 681 2008 r probably;
#X obj 661 2131 random;
#X obj 732 2131 sel 1;
#X obj 618 1984 r randostep;
#X msg 732 2098 2;
#X msg 748 2173 0;
#X msg 720 2173 1;
#X obj 720 2229 t f f f;
#X obj 618 2098 spigot;
#X msg 644 2071 0;
#X msg 683 2173 1;
#X msg 670 2071 1;
#X obj 681 2035 sel 1 2 5;
#X msg 764 2098 5;
#X obj 720 2280 outlet;
#X connect 1 0 13 0;
#X connect 2 0 3 0;
#X connect 3 0 7 0;
#X connect 3 1 6 0;
#X connect 4 0 9 0;
#X connect 5 0 2 1;
#X connect 6 0 8 0;
#X connect 7 0 8 0;
#X connect 8 0 0 0;
#X connect 8 0 15 0;
#X connect 8 1 0 0;
#X connect 8 1 15 0;
#X connect 8 2 0 0;
#X connect 8 2 15 0;
#X connect 9 0 2 0;
#X connect 10 0 9 1;
#X connect 11 0 8 0;
#X connect 12 0 9 1;
#X connect 13 0 11 0;
#X connect 13 0 10 0;
#X connect 13 1 5 0;
#X connect 13 1 12 0;
#X connect 13 2 14 0;
#X connect 13 2 12 0;
#X connect 14 0 2 1;
#X restore 663 1387 pd random_step_prob;
#X obj 774 1422 tgl 25 0 empty empty empty 17 7 0 10 #191919 #e1e1e1 #e1e1e1 0 1;
#X obj 842 1325 r step;
#X obj 842 1381 bng 25 250 50 0 empty empty empty 17 7 0 10 #191919 #e1e1e1 #e1e1e1;
#X msg 846 1527 36;
#X msg 871 1527 37;
#X msg 903 1527 38;
#X msg 928 1527 39;
#X msg 960 1527 40;
#X msg 990 1527 41;
#X msg 1015 1527 42;
#X obj 846 1453 random 7;
#X obj 846 1422 r randostep;
#X obj 922 1581 f;
#X obj 842 1581 spigot;
#N canvas 733 172 450 300 random_step_prob 0;
#X obj 690 2273 tgl 26 0 empty empty empty 17 7 0 10 #191919 #e1e1e1 #e1e1e1 0 1;
#X obj 681 2008 r probably;
#X obj 661 2131 random;
#X obj 732 2131 sel 1;
#X obj 618 1984 r randostep;
#X msg 732 2098 2;
#X msg 748 2173 0;
#X msg 720 2173 1;
#X obj 720 2229 t f f f;
#X obj 618 2098 spigot;
#X msg 644 2071 0;
#X msg 683 2173 1;
#X msg 670 2071 1;
#X obj 681 2035 sel 1 2 5;
#X msg 764 2098 5;
#X obj 720 2280 outlet;
#X connect 1 0 13 0;
#X connect 2 0 3 0;
#X connect 3 0 7 0;
#X connect 3 1 6 0;
#X connect 4 0 9 0;
#X connect 5 0 2 1;
#X connect 6 0 8 0;
#X connect 7 0 8 0;
#X connect 8 0 0 0;
#X connect 8 0 15 0;
#X connect 8 1 0 0;
#X connect 8 1 15 0;
#X connect 8 2 0 0;
#X connect 8 2 15 0;
#X connect 9 0 2 0;
#X connect 10 0 9 1;
#X connect 11 0 8 0;
#X connect 12 0 9 1;
#X connect 13 0 11 0;
#X connect 13 0 10 0;
#X connect 13 1 5 0;
#X connect 13 1 12 0;
#X connect 13 2 14 0;
#X connect 13 2 12 0;
#X connect 14 0 2 1;
#X restore 879 1387 pd random_step_prob;
#X obj 990 1422 tgl 25 0 empty empty empty 17 7 0 10 #191919 #e1e1e1 #e1e1e1 0 1;
#X obj 1061 1325 r step;
#X obj 1061 1381 bng 25 250 50 0 empty empty empty 17 7 0 10 #191919 #e1e1e1 #e1e1e1;
#X msg 1065 1527 36;
#X msg 1090 1527 37;
#X msg 1122 1527 38;
#X msg 1147 1527 39;
#X msg 1179 1527 40;
#X msg 1209 1527 41;
#X msg 1234 1527 42;
#X obj 1065 1453 random 7;
#X obj 1065 1422 r randostep;
#X obj 1141 1581 f;
#X obj 1061 1581 spigot;
#X obj 1280 1325 r step;
#X obj 1280 1381 bng 25 250 50 0 empty empty empty 17 7 0 10 #191919 #e1e1e1 #e1e1e1;
#X msg 1284 1527 36;
#X msg 1309 1527 37;
#X msg 1341 1527 38;
#X msg 1366 1527 39;
#X msg 1398 1527 40;
#X msg 1428 1527 41;
#X msg 1453 1527 42;
#X obj 1284 1453 random 7;
#X obj 1284 1422 r randostep;
#X obj 1360 1581 f;
#X obj 1280 1581 spigot;
#X obj 1499 1325 r step;
#X obj 1499 1381 bng 25 250 50 0 empty empty empty 17 7 0 10 #191919 #e1e1e1 #e1e1e1;
#X msg 1503 1527 36;
#X msg 1528 1527 37;
#X msg 1560 1527 38;
#X msg 1585 1527 39;
#X msg 1617 1527 40;
#X msg 1647 1527 41;
#X msg 1672 1527 42;
#X obj 1503 1453 random 7;
#X obj 1503 1422 r randostep;
#X obj 1579 1581 f;
#X obj 1499 1581 spigot;
#X obj 1718 1325 r step;
#X obj 1718 1381 bng 25 250 50 0 empty empty empty 17 7 0 10 #191919 #e1e1e1 #e1e1e1;
#X msg 1722 1527 36;
#X msg 1747 1527 37;
#X msg 1779 1527 38;
#X msg 1804 1527 39;
#X msg 1836 1527 40;
#X msg 1866 1527 41;
#X msg 1891 1527 42;
#X obj 1722 1453 random 7;
#X obj 1722 1422 r randostep;
#X obj 1798 1581 f;
#X obj 1718 1581 spigot;
#X obj 842 1351 sel 2;
#X obj 1061 1351 sel 3;
#X obj 1280 1351 sel 4;
#X obj 1499 1351 sel 5;
#X obj 1718 1351 sel 6;
#N canvas 733 172 450 300 random_step_prob 0;
#X obj 690 2273 tgl 26 0 empty empty empty 17 7 0 10 #191919 #e1e1e1 #e1e1e1 0 1;
#X obj 681 2008 r probably;
#X obj 661 2131 random;
#X obj 732 2131 sel 1;
#X obj 618 1984 r randostep;
#X msg 732 2098 2;
#X msg 748 2173 0;
#X msg 720 2173 1;
#X obj 720 2229 t f f f;
#X obj 618 2098 spigot;
#X msg 644 2071 0;
#X msg 683 2173 1;
#X msg 670 2071 1;
#X obj 681 2035 sel 1 2 5;
#X msg 764 2098 5;
#X obj 720 2280 outlet;
#X connect 1 0 13 0;
#X connect 2 0 3 0;
#X connect 3 0 7 0;
#X connect 3 1 6 0;
#X connect 4 0 9 0;
#X connect 5 0 2 1;
#X connect 6 0 8 0;
#X connect 7 0 8 0;
#X connect 8 0 0 0;
#X connect 8 0 15 0;
#X connect 8 1 0 0;
#X connect 8 1 15 0;
#X connect 8 2 0 0;
#X connect 8 2 15 0;
#X connect 9 0 2 0;
#X connect 10 0 9 1;
#X connect 11 0 8 0;
#X connect 12 0 9 1;
#X connect 13 0 11 0;
#X connect 13 0 10 0;
#X connect 13 1 5 0;
#X connect 13 1 12 0;
#X connect 13 2 14 0;
#X connect 13 2 12 0;
#X connect 14 0 2 1;
#X restore 1110 1381 pd random_step_prob;
#X obj 1221 1416 tgl 25 0 empty empty empty 17 7 0 10 #191919 #e1e1e1 #e1e1e1 0 1;
#N canvas 733 172 450 300 random_step_prob 0;
#X obj 690 2273 tgl 26 0 empty empty empty 17 7 0 10 #191919 #e1e1e1 #e1e1e1 0 1;
#X obj 681 2008 r probably;
#X obj 661 2131 random;
#X obj 732 2131 sel 1;
#X obj 618 1984 r randostep;
#X msg 732 2098 2;
#X msg 748 2173 0;
#X msg 720 2173 1;
#X obj 720 2229 t f f f;
#X obj 618 2098 spigot;
#X msg 644 2071 0;
#X msg 683 2173 1;
#X msg 670 2071 1;
#X obj 681 2035 sel 1 2 5;
#X msg 764 2098 5;
#X obj 720 2280 outlet;
#X connect 1 0 13 0;
#X connect 2 0 3 0;
#X connect 3 0 7 0;
#X connect 3 1 6 0;
#X connect 4 0 9 0;
#X connect 5 0 2 1;
#X connect 6 0 8 0;
#X connect 7 0 8 0;
#X connect 8 0 0 0;
#X connect 8 0 15 0;
#X connect 8 1 0 0;
#X connect 8 1 15 0;
#X connect 8 2 0 0;
#X connect 8 2 15 0;
#X connect 9 0 2 0;
#X connect 10 0 9 1;
#X connect 11 0 8 0;
#X connect 12 0 9 1;
#X connect 13 0 11 0;
#X connect 13 0 10 0;
#X connect 13 1 5 0;
#X connect 13 1 12 0;
#X connect 13 2 14 0;
#X connect 13 2 12 0;
#X connect 14 0 2 1;
#X restore 1317 1387 pd random_step_prob;
#X obj 1428 1422 tgl 25 0 empty empty empty 17 7 0 10 #191919 #e1e1e1 #e1e1e1 0 1;
#N canvas 733 172 450 300 random_step_prob 0;
#X obj 690 2273 tgl 26 0 empty empty empty 17 7 0 10 #191919 #e1e1e1 #e1e1e1 0 1;
#X obj 681 2008 r probably;
#X obj 661 2131 random;
#X obj 732 2131 sel 1;
#X obj 618 1984 r randostep;
#X msg 732 2098 2;
#X msg 748 2173 0;
#X msg 720 2173 1;
#X obj 720 2229 t f f f;
#X obj 618 2098 spigot;
#X msg 644 2071 0;
#X msg 683 2173 1;
#X msg 670 2071 1;
#X obj 681 2035 sel 1 2 5;
#X msg 764 2098 5;
#X obj 720 2280 outlet;
#X connect 1 0 13 0;
#X connect 2 0 3 0;
#X connect 3 0 7 0;
#X connect 3 1 6 0;
#X connect 4 0 9 0;
#X connect 5 0 2 1;
#X connect 6 0 8 0;
#X connect 7 0 8 0;
#X connect 8 0 0 0;
#X connect 8 0 15 0;
#X connect 8 1 0 0;
#X connect 8 1 15 0;
#X connect 8 2 0 0;
#X connect 8 2 15 0;
#X connect 9 0 2 0;
#X connect 10 0 9 1;
#X connect 11 0 8 0;
#X connect 12 0 9 1;
#X connect 13 0 11 0;
#X connect 13 0 10 0;
#X connect 13 1 5 0;
#X connect 13 1 12 0;
#X connect 13 2 14 0;
#X connect 13 2 12 0;
#X connect 14 0 2 1;
#X restore 1546 1387 pd random_step_prob;
#X obj 1657 1422 tgl 25 0 empty empty empty 17 7 0 10 #191919 #e1e1e1 #e1e1e1 0 1;
#N canvas 733 172 450 300 random_step_prob 0;
#X obj 690 2273 tgl 26 0 empty empty empty 17 7 0 10 #191919 #e1e1e1 #e1e1e1 0 1;
#X obj 681 2008 r probably;
#X obj 661 2131 random;
#X obj 732 2131 sel 1;
#X obj 618 1984 r randostep;
#X msg 732 2098 2;
#X msg 748 2173 0;
#X msg 720 2173 1;
#X obj 720 2229 t f f f;
#X obj 618 2098 spigot;
#X msg 644 2071 0;
#X msg 683 2173 1;
#X msg 670 2071 1;
#X obj 681 2035 sel 1 2 5;
#X msg 764 2098 5;
#X obj 720 2280 outlet;
#X connect 1 0 13 0;
#X connect 2 0 3 0;
#X connect 3 0 7 0;
#X connect 3 1 6 0;
#X connect 4 0 9 0;
#X connect 5 0 2 1;
#X connect 6 0 8 0;
#X connect 7 0 8 0;
#X connect 8 0 0 0;
#X connect 8 0 15 0;
#X connect 8 1 0 0;
#X connect 8 1 15 0;
#X connect 8 2 0 0;
#X connect 8 2 15 0;
#X connect 9 0 2 0;
#X connect 10 0 9 1;
#X connect 11 0 8 0;
#X connect 12 0 9 1;
#X connect 13 0 11 0;
#X connect 13 0 10 0;
#X connect 13 1 5 0;
#X connect 13 1 12 0;
#X connect 13 2 14 0;
#X connect 13 2 12 0;
#X connect 14 0 2 1;
#X restore 1765 1387 pd random_step_prob;
#X obj 1876 1422 tgl 25 0 empty empty empty 17 7 0 10 #191919 #e1e1e1 #e1e1e1 0 1;
#X obj 108 1189 sel 1;
#X text 876 1788 stepsequencer chance;
#X obj 2414 664 r rand_attack;
#X obj 2689 664 r rand_decay;
#X obj 723 1749 s rand_decay;
#X obj 627 1698 random 100;
#X obj 627 1724 f;
#X obj 689 1661 r random-ad;
#X obj 627 1749 s rand_attack;
#X obj 723 1698 random 100;
#X obj 723 1724 f;
#X obj 706 1612 t f b b;
#X obj 843 1640 s padnote;
#X obj 939 1749 s rand_decay;
#X obj 843 1698 random 100;
#X obj 843 1724 f;
#X obj 905 1661 r random-ad;
#X obj 843 1749 s rand_attack;
#X obj 939 1698 random 100;
#X obj 939 1724 f;
#X obj 922 1612 t f b b;
#X obj 1062 1640 s padnote;
#X obj 1158 1749 s rand_decay;
#X obj 1062 1698 random 100;
#X obj 1062 1724 f;
#X obj 1124 1661 r random-ad;
#X obj 1062 1749 s rand_attack;
#X obj 1158 1698 random 100;
#X obj 1158 1724 f;
#X obj 1141 1612 t f b b;
#X obj 1281 1640 s padnote;
#X obj 1377 1749 s rand_decay;
#X obj 1281 1698 random 100;
#X obj 1281 1724 f;
#X obj 1343 1661 r random-ad;
#X obj 1281 1749 s rand_attack;
#X obj 1377 1698 random 100;
#X obj 1377 1724 f;
#X obj 1360 1612 t f b b;
#X obj 1500 1640 s padnote;
#X obj 1596 1749 s rand_decay;
#X obj 1500 1698 random 100;
#X obj 1500 1724 f;
#X obj 1562 1661 r random-ad;
#X obj 1500 1749 s rand_attack;
#X obj 1596 1698 random 100;
#X obj 1596 1724 f;
#X obj 1579 1612 t f b b;
#X obj 1719 1640 s padnote;
#X obj 1815 1749 s rand_decay;
#X obj 1719 1698 random 100;
#X obj 1719 1724 f;
#X obj 1749 1661 r random-ad;
#X obj 1719 1749 s rand_attack;
#X obj 1815 1698 random 100;
#X obj 1815 1724 f;
#X obj 1798 1612 t f b b;
#X msg 1327 2015 0;
#X msg 1285 2015 1;
#X obj 1282 1981 del 5;
#X msg 1389 2015 1;
#X msg 1448 2015 0;
#X msg 1507 2015 1;
#X msg 1565 2015 0;
#X obj 1285 2084 s daisyled @hv_param;
#X text 1282 1820 long led sequence;
#X msg 1745 2015 0;
#X msg 1691 2015 1;
#X msg 1817 2015 1;
#X msg 1887 2015 0;
#X obj 1685 2084 s daisyled @hv_param;
#X text 1688 1820 short led sequence;
#X obj 1743 1981 del 300;
#X obj 1814 1981 del 400;
#X obj 1885 1981 del 500;
#X obj 1688 1981 del 5;
#X obj 1325 1981 del 300;
#X obj 1386 1981 del 400;
#X obj 1446 1981 del 500;
#X obj 1504 1981 del 600;
#X obj 1563 1981 del 700;
#X obj 1282 1844 r ledswitchrecon;
#X obj 1688 1844 r ledswitchshort;
#X obj 128 1070 s ledswitchshort;
#X obj 86 1045 s ledswitchrecon;
#X obj 165 1189 s ledswitchshort;
#X obj 85 953 sel 1 0;
#X obj 1282 1898 bng 25 250 50 0 empty empty empty 17 7 0 10 #191919 #e1e1e1 #e1e1e1;
#X obj 1688 1898 bng 25 250 50 0 empty empty empty 17 7 0 10 #191919 #e1e1e1 #e1e1e1;
#X obj 1429 1844 del 1000;
#X obj 1429 1904 spigot;
#X obj 1483 1898 r ledswitchreconloop;
#X obj 135 1014 s ledswitchreconloop;
#X obj 1483 1929 sel 0;
#X obj 1429 1871 metro 900;
#X msg 0 953 0;
#X obj -2 986 metro;
#X obj 158 571 r padnote;
#N canvas 0 0 450 250 (subpatch) 0;
#X array array_feedback 88 float 3;
#A 0 0.64 0.16 0.285714 0.18 0.43 0.12 0.238095 0.238095 0.91 0.86 0.13 0.29 0.93 0.45 0.7 0.79 0.18 0.5 0.14 0.42 0.33 0.84 0.98 0.63 0.5 0.32 0.8 0.57 0.75 0.49 0.27 0.38 0.58 0.37 0.08 0.39 0.39 0.15 0.164092 0.873016 0.98 0.626373 0.857512 0.7 0.05 0.58 0.96 0.75 0.62 0.2 0.53 0.888889 0.62 0.11 0.08 0.18 0.26 0.49 0.25 0.83 0.6 0.08 0.63 0.18 0.857143 0.904762 0.72 0.58 0.58 0.37 0.92 0.68 0.77 0.17 0.52 0.67 0.75 0.89 0.7 0.53 0.91 0.29 0.47 0.23 0.4 0.11 0.7 0.99;
#X coords 0 1 88 0 329 63 1;
#X restore 158 489 graph;
#N canvas 0 0 450 250 (subpatch) 0;
#X array array_sine1 88 float 3;
#A 0 76 0.54 0.74 0.92 0.57 0.76 0.27 0.57 0.51 0.35 0.17 0.33 0.15 0.66 0.73 0.43 0.18 0.62 0.89 0.4 0.78 0.41 0.22 0.29 0.15 0.25 0.87 0.91 0.92 0.11 0.61 0.06 0.72 0.43 0.79 0.78 0.6 0.9 0.307719 0.56 0.55 0.236588 0.281043 0.6 0.96 0.47 0.57 0.09375 0.14 0.63 0.82 0.14 0.75 0.52 0.28 0.62 0.33 0.94 0.42 0.8 0.79 0.31 0.19 0.87 0.83 0.42 0.95 0.15 0.51 0.13 0.55 0.26 0.67 0.16 0.21 0.42 0.45 0.78 0.59 0.65 0.75 0.57 0.72 0.01 0.74 0.13 0.01 0.84;
#X coords 0 1 88 0 294 64 1;
#X restore 532 489 graph;
#N canvas 0 0 450 250 (subpatch) 0;
#X array array_mod 88 float 3;
#A 0 1 0.35 0.48 0.57 0.97 0.09375 0.75 0.22 0.24 0.27 0.53 0.83 0.56 0.33 0 0.46 0.25 0.47 0.03 0.01 0.2 0.75 0.14 0.44 0.32 0.82 0.48 0.98 0.171875 0.58 0.84 0.42 0.66 0.97 0.59 0.27 0.15 0.67 0.184614 0.06 0.32 0.398003 0.202428 0.54 0.44 0.93 0.93 0.94 0.71 0.22 0.78 0.15 0.76 0.77 0.53 0.04 0.08 0.05 0.9 0.6 0.59 0.67 0.08 0.25 0.03 0.14 0.77 0.04 0.52 0.61 0.12 0.89 0 0.58 0.73 0.81 0.74 0.65 0.64 0.16 0.79 0.23 0.32 0.87 0.51 0.33 0.63 0.69;
#X coords 0 1 88 0 329 64 1;
#X restore 868 489 graph;
#X obj 677 654 tabwrite array_sine1;
#X obj 677 624 snapshot~;
#X obj 758 624 r padnote;
#X obj 532 594 r padnote;
#X obj 333 654 tabwrite array_feedback;
#X obj 388 594 r rec_onoff;
#X obj 333 624 snapshot~;
#X obj 419 624 r padnote;
#X obj 1429 596 r rec_onoff;
#X obj 868 594 r padnote;
#N canvas 0 0 450 250 (subpatch) 0;
#X array array_sine2 88 float 3;
#A 0 0.23 0.12 0.49 0.91 0.94 0.15 0.43 0.77 0.32 0.24 0.68 0.16 0.94 0.84 0.12 0.16 0.35 0.46 0.84 0.69 0.16 0.5 0.08 0.76 0.54 0.92 0.29 0.74 0.68 0.99 0.05 0.5 0.3 0.05 0.09 0.74 0.14 0.2 0 0.17 0.42 0.631151 0.213328 0.78 0.32 0.53 0.92 0.02 0.5 0.47 0.59 0.1 0.55 0.46 0.7 0.17 0.51 0.55 0.51 0.6 0.3 0.97 0.26 0.18 0.27 0.87 0.23 0.36 0.61 0.08 0.7 0.5 0.93 0.8 0.92 0.09 0.63 0.36 0.12 0.99 0.5 0.97 0.48 0.67 0.11 0.41 0.1 0.44;
#X coords 0 1 88 0 292 63 1;
#X restore 1244 489 graph;
#X obj 1387 624 snapshot~;
#X obj 1468 624 r padnote;
#X obj 1242 594 r padnote;
#X obj 1098 594 r rec_onoff;
#X obj 1043 624 snapshot~;
#X obj 1129 624 r padnote;
#X obj 868 681 send~ Cfv;
#X obj 1043 568 r~ Cfreqval;
#X obj 1242 681 send~ Dfv;
#X obj 1387 568 r~ Dfreqval;
#X obj 1043 654 tabwrite array_mod;
#X obj 1387 654 tabwrite array_sine2;
#X obj 1628 792 mtof~;
#X obj 1628 767 *~ 127;
#X obj 2175 664 s padnote;
#X obj 1812 1023 mtof~;
#X obj 1812 995 *~ 64;
#X obj 1779 759 mtof~;
#X obj 1779 734 *~ 127;
#X obj 1633 988 mtof~;
#X obj 1633 960 *~ 127;
#X obj 2092 707 del 0;
#X obj 2121 1190 hv.vline~;
#X obj 720 1640 s seqoff;
#X obj 922 1640 s seqoff;
#X obj 1141 1640 s seqoff;
#X obj 1360 1640 s seqoff;
#X obj 1579 1640 s seqoff;
#X obj 1812 1640 s seqoff;
#X obj 2628 664 r seqoff;
#X obj 2355 1149 f;
#X obj 2454 1135 change;
#X msg 2304 1180 0;
#X obj 2121 1156 pack;
#X obj 2302 1211 pack;
#X obj 2454 989 *~ 1000;
#X obj 2136 979 *~ 1000;
#X obj 1772 568 r~ Cfreqval;
#X obj 1914 335 tgl 25 0 empty empty empty 17 7 0 10 #191919 #ffffff #ffffff 0 1;
#X obj 1914 310 change;
#X obj 2001 335 tgl 25 0 empty empty empty 17 7 0 10 #191919 #ffffff #ffffff 0 1;
#X obj 1949 341 sel 1;
#X obj 2015 411 s ledswitchshort;
#X obj 2001 361 sel 1 0;
#X obj 1914 280 r mpr121_driver_ch1 @hv_param;
#X obj 2045 335 s arraybypass;
#X obj 2232 431 *~ -1;
#X obj 2232 451 +~ 1;
#X obj 2169 399 r arraybypass;
#X obj 2169 532 send~ array_on;
#X obj 2232 483 send~ array_off;
#X obj 1788 589 r~ array_off;
#X obj 1825 643 r~ array_on;
#X obj 1814 672 *~;
#X obj 1777 672 *~;
#X obj 2169 462 line~;
#X msg 2169 431 \$1 200;
#X obj 1639 589 r~ array_off;
#X obj 1676 643 r~ array_on;
#X obj 1665 672 *~;
#X obj 1628 672 *~;
#X obj 1623 568 r~ Afreqval;
#X obj 1665 615 r~ Afv;
#X obj 1644 850 r~ array_off;
#X obj 1681 902 r~ array_on;
#X obj 1670 933 *~;
#X obj 1633 933 *~;
#X obj 1628 829 r~ Bfreqval;
#X obj 1670 876 r~ Bfv;
#X obj 1823 850 r~ array_off;
#X obj 1860 901 r~ array_on;
#X obj 1849 933 *~;
#X obj 1812 933 *~;
#X obj 1812 782 r~ Dfreqval;
#X obj 1849 876 r~ Dfv;
#X obj 2304 1149 del 2;
#X obj 2189 722 moses 0.01;
#X obj 158 624 tabread array_feedback;
#X obj 158 654 sig~;
#X obj 532 624 tabread array_sine1;
#X obj 532 654 sig~;
#X obj 868 654 sig~;
#X obj 1242 654 sig~;
#X obj 868 624 tabread array_mod;
#X obj 1242 624 tabread array_sine2;
#X obj 2643 1149 del 200;
#X obj 2508 664 r sequencer_is_on;
#X obj 2213 876 spigot;
#X obj 2201 1143 +;
#X obj 671 1724 * 10;
#X obj 766 1724 * 10;
#X obj 887 1724 * 10;
#X obj 982 1724 * 10;
#X obj 1106 1724 * 10;
#X obj 1201 1724 * 10;
#X obj 1325 1724 * 10;
#X obj 1420 1724 * 10;
#X obj 1544 1724 * 10;
#X obj 1639 1724 * 10;
#X obj 1763 1724 * 10;
#X obj 1858 1724 * 10;
#X obj 2454 1087 +;
#X obj 2559 858 spigot;
#X obj 2508 688 sel 1 0;
#X msg 2474 722 0;
#X obj 1922 988 sig~;
#X obj 1922 933 r padnote;
#X obj 1922 959 * 0.01;
#X obj 1812 967 +~;
#X obj 1987 1325 r step;
#X obj 1987 1381 bng 25 250 50 0 empty empty empty 17 7 0 10 #191919 #e1e1e1 #e1e1e1;
#X msg 1991 1527 36;
#X msg 2016 1527 37;
#X msg 2048 1527 38;
#X msg 2073 1527 39;
#X msg 2105 1527 40;
#X msg 2135 1527 41;
#X msg 2160 1527 42;
#X obj 1991 1453 random 7;
#X obj 1991 1422 r randostep;
#X obj 2067 1581 f;
#X obj 1987 1581 spigot;
#X obj 2206 1325 r step;
#X obj 2206 1381 bng 25 250 50 0 empty empty empty 17 7 0 10 #191919 #e1e1e1 #e1e1e1;
#X msg 2210 1527 36;
#X msg 2235 1527 37;
#X msg 2267 1527 38;
#X msg 2292 1527 39;
#X msg 2324 1527 40;
#X msg 2354 1527 41;
#X msg 2379 1527 42;
#X obj 2210 1453 random 7;
#X obj 2210 1422 r randostep;
#X obj 2286 1581 f;
#X obj 2206 1581 spigot;
#N canvas 733 172 450 300 random_step_prob 0;
#X obj 690 2273 tgl 26 0 empty empty empty 17 7 0 10 #191919 #e1e1e1 #e1e1e1 0 1;
#X obj 681 2008 r probably;
#X obj 661 2131 random;
#X obj 732 2131 sel 1;
#X obj 618 1984 r randostep;
#X msg 732 2098 2;
#X msg 748 2173 0;
#X msg 720 2173 1;
#X obj 720 2229 t f f f;
#X obj 618 2098 spigot;
#X msg 644 2071 0;
#X msg 683 2173 1;
#X msg 670 2071 1;
#X obj 681 2035 sel 1 2 5;
#X msg 764 2098 5;
#X obj 720 2280 outlet;
#X connect 1 0 13 0;
#X connect 2 0 3 0;
#X connect 3 0 7 0;
#X connect 3 1 6 0;
#X connect 4 0 9 0;
#X connect 5 0 2 1;
#X connect 6 0 8 0;
#X connect 7 0 8 0;
#X connect 8 0 0 0;
#X connect 8 0 15 0;
#X connect 8 1 0 0;
#X connect 8 1 15 0;
#X connect 8 2 0 0;
#X connect 8 2 15 0;
#X connect 9 0 2 0;
#X connect 10 0 9 1;
#X connect 11 0 8 0;
#X connect 12 0 9 1;
#X connect 13 0 11 0;
#X connect 13 0 10 0;
#X connect 13 1 5 0;
#X connect 13 1 12 0;
#X connect 13 2 14 0;
#X connect 13 2 12 0;
#X connect 14 0 2 1;
#X restore 2034 1387 pd random_step_prob;
#X obj 2145 1422 tgl 25 0 empty empty empty 17 7 0 10 #191919 #e1e1e1 #e1e1e1 0 1;
#N canvas 733 172 450 300 random_step_prob 0;
#X obj 690 2273 tgl 26 0 empty empty empty 17 7 0 10 #191919 #e1e1e1 #e1e1e1 0 1;
#X obj 681 2008 r probably;
#X obj 661 2131 random;
#X obj 732 2131 sel 1;
#X obj 618 1984 r randostep;
#X msg 732 2098 2;
#X msg 748 2173 0;
#X msg 720 2173 1;
#X obj 720 2229 t f f f;
#X obj 618 2098 spigot;
#X msg 644 2071 0;
#X msg 683 2173 1;
#X msg 670 2071 1;
#X obj 681 2035 sel 1 2 5;
#X msg 764 2098 5;
#X obj 720 2280 outlet;
#X connect 1 0 13 0;
#X connect 2 0 3 0;
#X connect 3 0 7 0;
#X connect 3 1 6 0;
#X connect 4 0 9 0;
#X connect 5 0 2 1;
#X connect 6 0 8 0;
#X connect 7 0 8 0;
#X connect 8 0 0 0;
#X connect 8 0 15 0;
#X connect 8 1 0 0;
#X connect 8 1 15 0;
#X connect 8 2 0 0;
#X connect 8 2 15 0;
#X connect 9 0 2 0;
#X connect 10 0 9 1;
#X connect 11 0 8 0;
#X connect 12 0 9 1;
#X connect 13 0 11 0;
#X connect 13 0 10 0;
#X connect 13 1 5 0;
#X connect 13 1 12 0;
#X connect 13 2 14 0;
#X connect 13 2 12 0;
#X connect 14 0 2 1;
#X restore 2253 1387 pd random_step_prob;
#X obj 2364 1422 tgl 25 0 empty empty empty 17 7 0 10 #191919 #e1e1e1 #e1e1e1 0 1;
#X obj 1988 1640 s padnote;
#X obj 2084 1749 s rand_decay;
#X obj 1988 1698 random 100;
#X obj 1988 1724 f;
#X obj 2050 1661 r random-ad;
#X obj 1988 1749 s rand_attack;
#X obj 2084 1698 random 100;
#X obj 2084 1724 f;
#X obj 2067 1612 t f b b;
#X obj 2207 1640 s padnote;
#X obj 2303 1749 s rand_decay;
#X obj 2207 1698 random 100;
#X obj 2207 1724 f;
#X obj 2237 1661 r random-ad;
#X obj 2207 1749 s rand_attack;
#X obj 2303 1698 random 100;
#X obj 2303 1724 f;
#X obj 2286 1612 t f b b;
#X obj 2067 1640 s seqoff;
#X obj 2300 1640 s seqoff;
#X obj 2032 1724 * 10;
#X obj 2127 1724 * 10;
#X obj 2251 1724 * 10;
#X obj 2346 1724 * 10;
#X obj 1987 1351 sel 7;
#X obj 2206 1351 sel 8;
#X obj 2001 387 s ledswitchrecon;
#X msg 2436 722 1;
#X obj 2121 1228 *~;
#X obj 2454 933 *~ 0.98;
#X obj 2454 960 +~ 0.02;
#X msg 285 2020 4;
#X obj 147 1965 sel 1;
#X obj 283 1965 sel 1;
#X obj 357 1965 sel 1;
#X obj 805 1993 sel 1;
#X obj 941 1993 sel 1;
#X obj 1015 1993 sel 1;
#X obj 2136 926 *~ 0.99;
#X obj 2136 953 +~ 0.01;
#X obj 2210 1487 sel 0 1 2 3 4 5 6;
#X obj 1991 1487 sel 0 1 2 3 4 5 6;
#X obj 1722 1487 sel 0 1 2 3 4 5 6;
#X obj 1503 1487 sel 0 1 2 3 4 5 6;
#X obj 1284 1487 sel 0 1 2 3 4 5 6;
#X obj 1065 1487 sel 0 1 2 3 4 5 6;
#X obj 846 1487 sel 0 1 2 3 4 5 6;
#X obj 630 1487 sel 0 1 2 3 4 5 6;
#X obj 2070 2037 clip~ -0.95 0.95;
#X obj 159 261 tabwrite array_feedback;
#X obj 314 261 tabwrite array_sine1;
#X obj 443 261 tabwrite array_mod;
#X obj 569 261 tabwrite array_sine2;
#X obj 1914 431 s bypasspressed;
#X obj 159 99 bang;
#X obj 212 126 spigot;
#X obj 159 65 bng 25 250 50 0 empty empty empty 17 7 0 10 #191919 #ffffff #ffffff;
#X msg 283 94 1;
#X obj 280 65 sel 1;
#X msg 312 94 0;
#X obj 412 33 tgl 25 0 empty empty empty 17 7 0 10 #191919 #ffffff #ffffff 0 1;
#X obj 159 33 r randarray;
#X obj 280 33 r bypasspressed;
#X text 205 0 write random array;
#X obj 159 199 random 100;
#X obj 159 229 * 0.01;
#X obj 314 199 random 100;
#X obj 314 229 * 0.01;
#X obj 443 199 random 100;
#X obj 443 229 * 0.01;
#X obj 569 199 random 100;
#X obj 569 229 * 0.01;
#X obj 515 71 + 1;
#X obj 458 126 + 1;
#X obj 458 71 i;
#X obj 458 99 % 88;
#X obj 458 33 metro 2;
#X obj 515 126 sel 88;
#X msg 517 160 0;
#X obj 525 33 bng 25 250 50 0 empty empty empty 17 7 0 10 #191919 #e1e1e1 #e1e1e1;
#X obj 396 160 t f b;
#X obj 2070 2002 hv.compressor~ 60 2;
#X obj 2070 1964 *~ 0.5;
#X obj 2143 277 spigot;
#X msg 2210 232 1;
#X obj 2207 203 sel 1;
#X msg 2239 232 0;
#X obj 2264 197 tgl 25 0 empty empty empty 17 7 0 10 #191919 #ffffff #ffffff 0 1;
#X obj 2143 305 metro 2;
#X text 2079 127 animate between simple and array synth;
#X obj 2056 168 r animate_P7;
#X obj 2056 232 tgl 25 0 empty empty empty 17 7 0 10 #191919 #ffffff #ffffff 0 1;
#X obj 2143 232 tgl 25 0 empty empty empty 17 7 0 10 #191919 #ffffff #ffffff 0 1;
#X obj 2097 232 sel 1;
#X obj 2207 168 r bypasspressed;
#X obj 2223 272 r basetempo;
#X obj 2223 305 * 0.1;
#X obj 2332 336 del 100;
#X obj 2388 336 del 20;
#X msg 2172 366 1;
#X msg 2201 366 0;
#X msg 2232 366 0.7;
#X obj 2267 305 random 4;
#X obj 2340 305 sel 0 1 2 3 4;
#X obj 3268 1498 tgl 19 0 empty empty empty 17 7 0 10 #dfdfdf #000000 #000000 0 1;
#X text 3504 1263 tempo fader right;
#X obj 3300 1498 s sequencer_is_on;
#X msg 3312 1742 0;
#X msg 3282 1742 1;
#X obj 3282 1792 s daisyled @hv_param;
#X obj 3265 1656 sel 0 1;
#X obj 3312 1691 del 50;
#X obj 3448 1590 metro;
#X obj 3530 1313 hsl 128 17 0 1 0 0 empty empty empty -2 -8 0 10 #191919 #ffffff #ffffff 0 1;
#X msg 3504 1339 \$1 20;
#X obj 3504 1371 line;
#X obj 3504 1292 r faderright @hv_param;
#X obj 3448 1831 s step;
#X obj 3448 1613 bng 25 250 50 0 empty empty empty 17 7 0 10 #191919 #e1e1e1 #e1e1e1;
#X obj 3505 1691 + 1;
#X obj 3448 1777 + 1;
#X floatatom 3448 1806 5 0 0 0 - - - 0;
#X obj 3505 1726 r seqlength;
#X obj 3504 1397 * 1000;
#X obj 3448 1751 % \$1;
#X obj 3448 1691 i;
#X obj 3578 1544 r seqtime;
#X obj 3560 1616 /;
#X obj 3346 1421 s seqpadpressed;
#X obj 3560 1656 s basetempo;
#X obj 3578 1571 t f b;
#X obj 2800 2065 f;
#X obj 2879 2065 f;
#X obj 2800 2028 spigot;
#X obj 2879 2028 spigot;
#X obj 2879 2091 + 1;
#X obj 2800 2091 - 1;
#X msg 3015 2001 1;
#X obj 3012 1947 sel 1;
#X msg 3044 2001 0;
#X obj 3097 1947 tgl 25 0 empty empty empty 17 7 0 10 #191919 #ffffff #ffffff 0 1;
#X obj 2924 2135 f;
#X obj 2999 2207 s ledswitch;
#X obj 2897 1911 r seqtemp_down;
#X obj 2800 1911 r seqtemp_up;
#X obj 2924 2207 s seqtime;
#X obj 2848 2181 loadbang;
#X msg 2848 2207 1;
#X text 2845 1879 tempomultiplier;
#X obj 2999 2169 del 50;
#X obj 3012 1911 r seqpadpressed;
#X obj 2889 1949 sel 1;
#X obj 2800 1949 sel 1;
#X obj 2951 1949 bng 25 250 50 0 empty empty empty 17 7 0 10 #191919 #ffffff #ffffff;
#X obj 2865 1949 bng 25 250 50 0 empty empty empty 17 7 0 10 #191919 #ffffff #ffffff;
#X obj 3234 786 f;
#X obj 3313 786 f;
#X obj 3314 749 spigot;
#X obj 3393 749 spigot;
#X obj 3313 812 + 1;
#X obj 3234 812 - 1;
#X msg 3457 734 1;
#X obj 3454 705 sel 1;
#X msg 3486 734 0;
#X obj 3476 674 tgl 25 0 empty empty empty 17 7 0 10 #191919 #ffffff #ffffff 0 1;
#X obj 3358 832 f;
#X obj 3433 910 s ledswitch;
#X obj 3283 856 loadbang;
#X msg 3283 882 1;
#X obj 3433 882 del 50;
#X obj 3454 644 r seqpadpressed;
#X text 3234 619 temposcrewer;
#X obj 3329 910 s temposcrew;
#X obj 2943 832 r basetempo;
#X obj 2878 620 r temposcrew;
#X obj 2920 919 metro;
#X msg 2923 1170 1;
#X msg 2948 1170 2;
#X msg 2980 1170 3;
#X msg 3005 1170 4;
#X msg 3037 1170 5;
#X msg 3067 1170 6;
#X msg 3092 1170 7;
#X msg 3123 1170 8;
#X msg 2913 704 3;
#X msg 2966 732 0.5;
#X obj 2958 871 *;
#X msg 3022 757 0.33;
#X obj 3234 644 r screw_up;
#X obj 3339 644 r screw_down;
#X obj 2920 1031 random 7;
#X obj 2920 1129 sel 0 1 2 3 4 5 6 7;
#X msg 3125 781 100;
#X msg 2936 704 10;
#X msg 3068 757 50;
#X msg 2997 732 25;
#X obj 2920 1221 s step;
#X msg 2876 832 0;
#X msg 3161 802 0.1;
#X msg 3193 802 30;
#X obj 3433 856 sel 0 5;
#X obj 2874 802 loadbang;
#X obj 2876 768 sel 0;
#X msg 2907 832 1;
#X obj 2878 655 t f b;
#X obj 2922 655 sel 1 2 3 4 5 6;
#X obj 3433 798 clip 1 6;
#X msg 3093 781 0.15;
#X obj 2920 1083 spigot;
#X obj 3043 919 + 1;
#X obj 2986 1005 + 1;
#X obj 2986 919 i;
#X obj 2986 979 % 5;
#X msg 3002 1079 1;
#X msg 3034 1079 0;
#X obj 3058 1031 sel 4;
#X obj 3331 686 sel 1;
#X obj 3234 686 sel 1;
#X obj 3404 686 bng 25 250 50 0 empty empty empty 17 7 0 10 #191919 #ffffff #ffffff;
#X obj 3297 680 bng 25 250 50 0 empty empty empty 17 7 0 10 #191919 #ffffff #ffffff;
#X obj 2621 1314 midirealtimein;
#X floatatom 2621 1340 5 0 0 0 - - - 0;
#X obj 2621 1367 select 248 250 252;
#X obj 2654 1397 bng 25 250 50 0 empty empty empty 17 7 0 10 #191919 #ffffff #ffffff;
#X obj 2688 1428 bng 25 250 50 0 empty empty empty 17 7 0 10 #191919 #ffffff #ffffff;
#X text 2681 1395 play;
#X text 2713 1433 stop;
#X obj 2621 1510 bng 25 250 50 0 empty empty empty 17 7 0 10 #191919 #ffffff #ffffff;
#X msg 2657 1461 1;
#X msg 2691 1461 0;
#X text 2644 1492 tempo pulse;
#X obj 2671 1510 tgl 25 0 empty empty empty 17 7 0 10 #191919 #e1e1e1 #e1e1e1 0 1;
#X obj 2956 1396 + 1;
#X obj 3035 1490 + 1;
#X floatatom 3035 1519 5 0 0 0 - - - 0;
#X obj 2911 1396 i;
#X obj 3080 1490 + 1;
#X floatatom 3080 1519 5 0 0 0 - - - 0;
#X obj 3129 1490 + 1;
#X floatatom 3129 1519 5 0 0 0 - - - 0;
#X obj 2845 1601 spigot;
#X obj 2887 1640 spigot;
#X obj 2932 1677 spigot;
#X obj 2981 1714 spigot;
#X obj 3030 1749 spigot;
#X obj 2622 1549 spigot;
#X obj 2670 1581 r seqtime;
#X obj 2993 1490 + 1;
#X obj 2993 1464 % 24;
#X obj 3035 1464 % 48;
#X obj 3080 1464 % 96;
#X obj 3129 1464 % 192;
#X obj 2993 1549 sel 24;
#X obj 3035 1549 sel 48;
#X obj 3080 1549 sel 96;
#X obj 3129 1549 sel 192;
#X msg 2814 1601 1;
#X msg 2786 1601 0;
#X msg 2814 1640 1;
#X msg 2786 1640 0;
#X msg 2814 1677 1;
#X msg 2786 1677 0;
#X msg 2814 1714 1;
#X msg 2786 1714 0;
#X msg 2814 1749 1;
#X msg 2786 1749 0;
#X floatatom 2993 1519 5 0 0 0 - - - 0;
#X obj 2948 1490 + 1;
#X floatatom 2948 1519 5 0 0 0 - - - 0;
#X obj 2948 1464 % 12;
#X obj 2948 1549 sel 12;
#X obj 2845 1848 s clock_devision_frommidi;
#X obj 3185 1586 r clock_devision_frommidi;
#X obj 3265 1434 spigot;
#X msg 3292 1389 1;
#X obj 3289 1360 sel 1;
#X msg 3321 1389 0;
#X obj 3346 1354 tgl 25 0 empty empty empty 17 7 0 10 #191919 #ffffff #ffffff 0 1;
#X obj 3195 1389 tgl 25 0 empty empty empty 17 7 0 10 #191919 #ffffff #ffffff 0 1;
#X obj 3265 1389 tgl 25 0 empty empty empty 17 7 0 10 #191919 #ffffff #ffffff 0 1;
#X obj 3225 1389 sel 1;
#X obj 3195 1294 r seqcombo;
#X obj 3292 1325 change;
#X obj 3292 1294 r mpr121_driver_ch11 @hv_param;
#X text 3292 1263 internal sequencer on / off;
#X obj 2999 2124 sel 1 6;
#X obj 2924 2065 clip 1 6;
#X obj 2896 1490 + 1;
#X floatatom 2896 1519 5 0 0 0 - - - 0;
#X obj 2896 1464 % 6;
#X obj 2896 1549 sel 6;
#X obj 3095 1781 spigot;
#X msg 2814 1781 1;
#X msg 2786 1781 0;
#X obj 2729 1461 s setzero;
#X obj 3560 1691 r setzero;
#X obj 143 1500 f;
#X obj 222 1500 f;
#X obj 143 1463 spigot;
#X obj 222 1463 spigot;
#X obj 222 1526 + 1;
#X obj 143 1526 - 1;
#X msg 286 1425 1;
#X obj 283 1396 sel 1;
#X msg 315 1425 0;
#X obj 343 1365 tgl 25 0 empty empty empty 17 7 0 10 #191919 #ffffff #ffffff 0 1;
#X obj 267 1546 f;
#X obj 356 1623 s ledswitch;
#X obj 166 1656 loadbang;
#X obj 356 1595 del 50;
#X obj 180 1377 sel 1;
#X obj 87 1377 sel 1;
#X obj 252 1377 bng 25 250 50 0 empty empty empty 17 7 0 10 #191919 #ffffff #ffffff;
#X obj 154 1377 bng 25 250 50 0 empty empty empty 17 7 0 10 #191919 #ffffff #ffffff;
#X obj 147 1337 r ad_on;
#X obj 130 1624 s random-ad;
#X obj 222 1337 r ad_off;
#X obj 283 1368 change;
#X obj 283 1337 r mpr121_driver_ch2 @hv_param;
#X text 239 1296 ad randomizer;
#X obj 130 1590 bng 25 250 50 0 empty empty empty 17 7 0 10 #191919 #e1e1e1 #e1e1e1;
#X msg 3279 686 1;
#X msg 3375 686 1;
#X msg 2927 1958 1;
#X msg 2835 1949 1;
#X msg 222 1377 1;
#X msg 128 1377 1;
#X obj 356 1511 clip 1 3;
#X obj 356 1569 sel 1 3;
#X obj 267 1624 sel 1 2 3;
#X obj 2700 634 r rand_dec_tgl;
#X obj 2425 634 r rand_att_tgl;
#X obj 2414 688 *;
#X obj 2689 688 *;
#X obj 231 1713 s rand_dec_tgl;
#X obj 338 1713 s rand_att_tgl;
#X msg 233 1656 0;
#X msg 257 1656 0.1;
#X msg 287 1656 1;
#X obj 2213 908 * 0.99;
#X obj 2213 935 + 0.01;
#X obj 2522 908 * 0.98;
#X obj 2522 935 + 0.02;
#X obj 2526 2002 f;
#X obj 2605 2002 f;
#X obj 2526 1965 spigot;
#X obj 2605 1965 spigot;
#X obj 2605 2028 + 1;
#X obj 2526 2028 - 1;
#X msg 2653 1965 1;
#X obj 2650 1911 sel 1;
#X msg 2682 1965 0;
#X obj 2691 1911 tgl 25 0 empty empty empty 17 7 0 10 #191919 #ffffff #ffffff 0 1;
#X obj 2563 2054 f;
#X obj 2638 2157 s ledswitch;
#X obj 2487 2131 loadbang;
#X obj 2638 2119 del 50;
#X obj 2560 1917 sel 1;
#X obj 2471 1917 sel 1;
#X obj 2622 1917 bng 25 250 50 0 empty empty empty 17 7 0 10 #191919 #ffffff #ffffff;
#X obj 2536 1917 bng 25 250 50 0 empty empty empty 17 7 0 10 #191919 #ffffff #ffffff;
#X msg 2598 1926 1;
#X msg 2506 1917 1;
#X text 2516 1847 stereo panner;
#X obj 2471 1879 r pan_more;
#X obj 2568 1879 r pan_less;
#X obj 2563 2157 s panner;
#X obj 2650 2002 clip 1 3;
#X obj 2638 2054 sel 1 3;
#X obj 382 1402 s chan2pan;
#X obj 2650 1875 r chan2pan;
#X obj 2395 1872 r step;
#X obj 2395 1904 bng 25 250 50 0 empty empty empty 17 7 0 10 #191919 #e1e1e1 #e1e1e1;
#X obj 2245 1943 r panner;
#X obj 2395 1958 random 100;
#X obj 2313 1958 random 100;
#X obj 2395 1984 * 0.01;
#X msg 2189 2219 \$1 \$2;
#X obj 2291 2157 spigot;
#X obj 2395 2157 spigot;
#X obj 2070 2364 *~;
#X obj 2135 2291 *~ -1;
#X obj 2135 2323 +~ 1;
#X obj 2189 2364 *~;
#X obj 2135 2254 line~;
#X obj 2189 2157 spigot;
#X msg 2221 2107 1;
#X msg 2245 2107 0;
#X msg 2318 2107 1;
#X msg 2342 2107 0;
#X msg 2422 2107 1;
#X msg 2446 2107 0;
#X msg 2189 2082 0.5 10;
#X msg 2291 2082 \$1 \$2;
#X obj 2291 2053 pack f f;
#X msg 2395 2082 \$1 \$2;
#X obj 2291 2028 clip 0.2 0.8;
#X obj 2395 2053 pack f f;
#X obj 2245 1984 sel 3 2 1;
#X obj 2045 298 loadbang;
#X msg 2437 2403 feedfwd \$1;
#X msg 2437 2471 indelay \$1;
#X text 2529 2402 Feedforward amount (0...0.999);
#X text 2529 2436 Feedback amount (0...0.999);
#X msg 2437 2437 feedback \$1;
#X text 2529 2504 Input delay time (0...50ms);
#X msg 2437 2539 slide \$1;
#X text 2529 2538 Delay update interpolation time (0...1000ms);
#X text 2529 2470 Output delay time (0...50ms);
#X msg 2437 2505 outdelay \$1;
#X obj 2350 2579 hv.comb~;
#X obj 2265 2579 hv.comb~;
#X obj 2285 2403 random 1000;
#X obj 2381 2403 / 1000;
#X obj 2285 2437 random 1000;
#X obj 2381 2437 / 1000;
#X obj 2285 2471 random 50;
#X obj 2285 2505 random 50;
#X obj 2285 2539 random 1000;
#X obj 2053 2621 *~;
#X obj 2099 2621 *~;
#X obj 2077 2514 *~ -1;
#X obj 2077 2546 +~ 1;
#X obj 2153 2621 *~;
#X obj 2195 2621 *~;
#X msg 2195 2443 \$1 20;
#X obj 2195 2475 line~;
#X msg 2400 2362 0;
#X msg 2431 2362 1;
#X obj 2053 2667 dac~;
#X obj 2904 2439 spigot;
#X obj 2959 2439 spigot;
#X msg 3047 2424 1;
#X obj 3044 2370 sel 1;
#X msg 3076 2424 0;
#X obj 3085 2370 tgl 25 0 empty empty empty 17 7 0 10 #191919 #ffffff #ffffff 0 1;
#X obj 2899 2525 f;
#X obj 3030 2579 s ledswitch;
#X obj 2817 2525 loadbang;
#X obj 3030 2541 del 50;
#X obj 2921 2372 sel 1;
#X obj 2832 2372 sel 1;
#X obj 2983 2372 bng 25 250 50 0 empty empty empty 17 7 0 10 #191919 #ffffff #ffffff;
#X obj 2897 2372 bng 25 250 50 0 empty empty empty 17 7 0 10 #191919 #ffffff #ffffff;
#X msg 2959 2381 1;
#X msg 2867 2372 1;
#X obj 3044 2334 r chan2pan;
#X obj 2921 2334 r combplus;
#X obj 2832 2334 r combmin;
#X obj 2899 2572 s combamount;
#X obj 2331 2321 sel 1 2 3;
#X obj 2331 2287 r combamount;
#X obj 2331 2359 tgl 25 0 empty empty empty 17 7 0 10 #191919 #e1e1e1 #e1e1e1 0 1;
#X obj 2414 2321 sel 0 1;
#X msg 2907 2476 1;
#X msg 2961 2476 2;
#X obj 3030 2476 sel 1 2;
#X text 2877 2301 combfilter;
#X msg 2820 2556 0;
#X obj 2911 1348 r gate_in_trig @hv_param;
#X obj 2845 1490 + 1;
#X floatatom 2845 1519 5 0 0 0 - - - 0;
#X obj 2845 1464 % 1;
#X obj 2845 1549 sel 1;
#X obj 3129 1814 spigot;
#X msg 2814 1814 1;
#X msg 2786 1814 0;
#X obj 2670 1610 sel 6 5 4 3 2 1 0;
#X obj 85 924 spigot;
#X msg 112 879 1;
#X obj 109 850 sel 1;
#X msg 141 879 0;
#X obj 166 844 tgl 25 0 empty empty empty 17 7 0 10 #191919 #ffffff #ffffff 0 1;
#X obj 15 879 tgl 25 0 empty empty empty 17 7 0 10 #191919 #ffffff #ffffff 0 1;
#X obj 85 879 tgl 25 0 empty empty empty 17 7 0 10 #191919 #ffffff #ffffff 0 1;
#X obj 45 879 sel 1;
#X obj 112 815 change;
#X obj 15 784 r reccombo;
#X obj 112 784 r mpr121_driver_ch10 @hv_param;
#X text 112 753 recording array on / off;
#X obj 165 1230 loadbang;
#X msg 2487 2157 3;
#X obj 3589 1445 r ext_tempo;
#X obj 3633 1881 adc~;
#X obj 3162 2155 spigot;
#X msg 3388 2187 1;
#X obj 3385 2155 sel 1;
#X msg 3417 2187 0;
#X obj 3385 2118 tgl 25 0 empty empty empty 17 7 0 10 #191919 #ffffff #ffffff 0 1;
#X obj 3162 2262 f;
#X obj 3330 2329 s ledswitch;
#X obj 3211 2262 loadbang;
#X obj 3330 2291 del 50;
#X obj 3330 2227 sel 1 2;
#X msg 3213 2291 0;
#X obj 3385 2038 r mpr121_driver_ch11 @hv_param;
#X obj 3162 2038 r mpr121_driver_ch10 @hv_param;
#X obj 3162 2118 tgl 25 0 empty empty empty 17 7 0 10 #191919 #ffffff #ffffff 0 1;
#X obj 3162 2221 tgl 25 0 empty empty empty 17 7 0 10 #191919 #e1e1e1 #e1e1e1 0 1;
#X obj 3162 2329 s audiooutgate;
#X obj 3697 1940 line~;
#X obj 3697 1881 r audiooutgate;
#X obj 3633 1981 *~;
#X obj 3677 1981 *~;
#X obj 3633 2116 dac~;
#X obj 3896 2425 s ext_tempo;
#X obj 3385 2363 r mpr121_driver_ch11 @hv_param;
#X obj 3709 2045 r ext_tempo_tru;
#X obj 3699 2118 *~;
#X obj 3709 2084 sig~;
#X msg 3699 2539 0;
#X msg 3669 2539 1;
#X obj 3669 2589 s daisyled @hv_param;
#X obj 3697 2517 del 50;
#X obj 3698 2019 *~ 0.9;
#X obj 3685 2338 timer;
#X obj 3669 2428 sel 1;
#X obj 3701 2177 env~;
#X obj 3701 2303 bng 25 250 50 0 empty empty empty 17 7 0 10 #191919 #e1e1e1 #e1e1e1;
#X obj 3701 2267 sel 1;
#X obj 3669 2383 > 300;
#X obj 3701 2225 > 70;
#X msg 149 2020 2;
#X msg 359 2020 8;
#X obj 3669 2476 t b b b b;
#X obj 3578 1472 f;
#X obj 3896 2219 timer;
#X obj 3875 2173 bng 25 250 50 0 empty empty empty 17 7 0 10 #e4e4e4 #4d4d4d #373737;
#X floatatom 3896 2266 8 0 0 0 - - - 16;
#X obj 3999 2267 + 1;
#X floatatom 3990 2320 7 0 0 0 - - - 16;
#X msg 4002 2204 1;
#X obj 3896 2334 /;
#X floatatom 3896 2377 8 0 0 0 - - - 16;
#X msg 4060 2204 0;
#X obj 3766 2307 t f f;
#X obj 3766 2358 -;
#X obj 3766 2399 f;
#X obj 3766 2436 abs;
#X obj 3766 2517 moses 2000;
#X floatatom 3766 2476 8 0 0 0 - - - 12;
#X obj 4037 2113 bng 25 250 50 0 empty empty empty 17 7 0 10 #e4e4e4 #4d4d4d #373737;
#X text 4016 2377 Tap avg in ms;
#X obj 3560 1517 f;
#X obj 4037 2152 t b b b;
#X obj 4066 2425 s tapbang;
#X obj 3578 1417 r tapbang;
#X obj 3504 1425 change;
#X obj 3162 2187 sel 1;
#X obj 3162 2363 r mpr121_driver_ch5 @hv_param;
#X obj 3162 2639 s ext_tempo_tru;
#X obj 3162 2465 spigot;
#X msg 3388 2497 1;
#X obj 3385 2465 sel 1;
#X msg 3417 2497 0;
#X obj 3385 2428 tgl 25 0 empty empty empty 17 7 0 10 #191919 #ffffff #ffffff 0 1;
#X obj 3162 2572 f;
#X obj 3330 2639 s ledswitch;
#X obj 3211 2572 loadbang;
#X obj 3330 2601 del 50;
#X obj 3330 2537 sel 1 2;
#X msg 3213 2601 0;
#X obj 3162 2428 tgl 25 0 empty empty empty 17 7 0 10 #191919 #ffffff #ffffff 0 1;
#X obj 3162 2531 tgl 25 0 empty empty empty 17 7 0 10 #191919 #e1e1e1 #e1e1e1 0 1;
#X obj 3162 2497 sel 1;
#X msg 3697 1907 \$1 20;
#X obj 3504 1458 moses 50;
#X obj 814 865 sel 0 1;
#X msg 816 896 0;
#X obj 814 784 tgl 25 0 empty empty empty 17 7 0 10 #191919 #ffffff #ffffff 0 1;
#X obj 814 759 change;
#X obj 828 949 s padnote;
#X obj 814 973 s padoff;
#X obj 594 865 sel 0 1;
#X msg 596 896 0;
#X obj 594 784 tgl 25 0 empty empty empty 17 7 0 10 #191919 #ffffff #ffffff 0 1;
#X obj 594 759 change;
#X obj 608 949 s padnote;
#X obj 594 973 s padoff;
#X obj 374 728 r mpr121_driver_ch3 @hv_param;
#X obj 374 865 sel 0 1;
#X msg 376 896 0;
#X obj 374 784 tgl 25 0 empty empty empty 17 7 0 10 #191919 #ffffff #ffffff 0 1;
#X obj 374 759 change;
#X obj 388 949 s padnote;
#X msg 388 922 36;
#X obj 374 973 s padoff;
#X obj 594 728 r mpr121_driver_ch4 @hv_param;
#X obj 814 728 r mpr121_driver_ch5 @hv_param;
#X msg 608 922 37;
#X msg 828 922 38;
#X obj 1263 865 sel 0 1;
#X msg 1265 896 0;
#X obj 1263 784 tgl 25 0 empty empty empty 17 7 0 10 #191919 #ffffff #ffffff 0 1;
#X obj 1263 759 change;
#X obj 1277 949 s padnote;
#X obj 1263 973 s padoff;
#X obj 1043 865 sel 0 1;
#X msg 1045 896 0;
#X obj 1043 784 tgl 25 0 empty empty empty 17 7 0 10 #191919 #ffffff #ffffff 0 1;
#X obj 1043 759 change;
#X obj 1057 949 s padnote;
#X obj 1043 973 s padoff;
#X obj 1043 728 r mpr121_driver_ch6 @hv_param;
#X obj 1263 728 r mpr121_driver_ch7 @hv_param;
#X msg 1057 916 39;
#X msg 1277 922 40;
#X obj 918 1162 sel 0 1;
#X msg 920 1193 0;
#X obj 918 1074 tgl 25 0 empty empty empty 17 7 0 10 #191919 #ffffff #ffffff 0 1;
#X obj 918 1049 change;
#X obj 932 1246 s padnote;
#X obj 918 1270 s padoff;
#X obj 698 1162 sel 0 1;
#X msg 700 1193 0;
#X obj 698 1074 tgl 25 0 empty empty empty 17 7 0 10 #191919 #ffffff #ffffff 0 1;
#X obj 698 1049 change;
#X obj 712 1246 s padnote;
#X obj 698 1270 s padoff;
#X obj 698 1018 r mpr121_driver_ch8 @hv_param;
#X msg 712 1219 41;
#X msg 932 1219 42;
#X obj 918 1018 r mpr121_driver_ch9 @hv_param;
#X obj 805 1049 s seqtemp_up;
#X obj 1007 1049 s seqtemp_down;
#X obj 1120 759 s screw_down;
#X obj 704 759 s screw_up;
#X obj 484 784 s randarray;
#X obj 1380 784 s animate_P7;
#X obj 805 1074 s ad_on;
#X obj 1007 1074 s ad_off;
#X obj 1380 811 s pan_more;
#X obj 484 811 s pan_less;
#X obj 704 784 s combmin;
#X obj 1120 784 s combplus;
#X obj 1380 759 s seqcombo;
#X obj 484 759 s reccombo;
#X obj 909 759 s ext_tempo_sw;
#X obj 397 811 r modtoggle;
#X obj 374 837 spigot;
#X obj 617 811 r modtoggle;
#X obj 594 837 spigot;
#X obj 837 811 r modtoggle;
#X obj 814 837 spigot;
#X obj 1066 811 r modtoggle;
#X obj 1043 837 spigot;
#X obj 1286 811 r modtoggle;
#X obj 1263 837 spigot;
#X obj 721 1107 r modtoggle;
#X obj 698 1133 spigot;
#X obj 941 1107 r modtoggle;
#X obj 918 1133 spigot;
#X text 3851 2098 Tap tempo from audio;
#N canvas 733 172 450 300 modpad_disabler 0;
#X obj 43 138 s modtoggle;
#X obj 78 46 loadbang;
#X msg 46 108 1;
#X obj 43 46 tgl 25 0 empty empty empty 17 7 0 10 #191919 #e1e1e1 #e1e1e1 0 1;
#X obj 43 78 sel 0 1;
#X msg 78 108 0;
#X obj 43 16 inlet;
#X connect 1 0 2 0;
#X connect 2 0 0 0;
#X connect 3 0 4 0;
#X connect 4 0 2 0;
#X connect 4 1 5 0;
#X connect 5 0 0 0;
#X connect 6 0 3 0;
#X restore 143 1158 pd modpad_disabler;
#N canvas 733 172 450 300 modpad_disabler 0;
#X obj 43 138 s modtoggle;
#X obj 78 46 loadbang;
#X msg 46 108 1;
#X obj 43 46 tgl 25 0 empty empty empty 17 7 0 10 #191919 #e1e1e1 #e1e1e1 0 1;
#X obj 43 78 sel 0 1;
#X msg 78 108 0;
#X obj 43 16 inlet;
#X connect 1 0 2 0;
#X connect 2 0 0 0;
#X connect 3 0 4 0;
#X connect 4 0 2 0;
#X connect 4 1 5 0;
#X connect 5 0 0 0;
#X connect 6 0 3 0;
#X restore 1914 462 pd modpad_disabler;
#N canvas 733 172 450 300 modpad_disabler 0;
#X obj 43 138 s modtoggle;
#X obj 78 46 loadbang;
#X msg 46 108 1;
#X obj 43 46 tgl 25 0 empty empty empty 17 7 0 10 #191919 #e1e1e1 #e1e1e1 0 1;
#X obj 43 78 sel 0 1;
#X msg 78 108 0;
#X obj 43 16 inlet;
#X connect 1 0 2 0;
#X connect 2 0 0 0;
#X connect 3 0 4 0;
#X connect 4 0 2 0;
#X connect 4 1 5 0;
#X connect 5 0 0 0;
#X connect 6 0 3 0;
#X restore 382 1365 pd modpad_disabler;
#N canvas 733 172 450 300 modpad_disabler 0;
#X obj 43 138 s modtoggle;
#X obj 78 46 loadbang;
#X msg 46 108 1;
#X obj 43 46 tgl 25 0 empty empty empty 17 7 0 10 #191919 #e1e1e1 #e1e1e1 0 1;
#X obj 43 78 sel 0 1;
#X msg 78 108 0;
#X obj 43 16 inlet;
#X connect 1 0 2 0;
#X connect 2 0 0 0;
#X connect 3 0 4 0;
#X connect 4 0 2 0;
#X connect 4 1 5 0;
#X connect 5 0 0 0;
#X connect 6 0 3 0;
#X restore 3232 2065 pd modpad_disabler;
#X obj 3162 2065 change;
#N canvas 733 172 450 300 modpad_disabler 0;
#X obj 43 138 s modtoggle;
#X obj 78 46 loadbang;
#X msg 46 108 1;
#X obj 43 46 tgl 25 0 empty empty empty 17 7 0 10 #191919 #e1e1e1 #e1e1e1 0 1;
#X obj 43 78 sel 0 1;
#X msg 78 108 0;
#X obj 43 16 inlet;
#X connect 1 0 2 0;
#X connect 2 0 0 0;
#X connect 3 0 4 0;
#X connect 4 0 2 0;
#X connect 4 1 5 0;
#X connect 5 0 0 0;
#X connect 6 0 3 0;
#X restore 3455 2065 pd modpad_disabler;
#X obj 3385 2065 change;
#X obj 3162 2393 change;
#X obj 3385 2393 change;
#X connect 0 0 1 0;
#X connect 1 0 6 0;
#X connect 2 0 4 0;
#X connect 3 0 4 0;
#X connect 4 0 5 0;
#X connect 5 0 58 0;
#X connect 6 0 7 0;
#X connect 7 0 11 0;
#X connect 8 0 9 0;
#X connect 9 0 10 0;
#X connect 10 0 59 0;
#X connect 11 0 12 0;
#X connect 12 0 13 0;
#X connect 13 0 14 0;
#X connect 13 0 15 0;
#X connect 15 0 37 0;
#X connect 16 0 17 0;
#X connect 17 0 18 0;
#X connect 18 0 19 1;
#X connect 19 0 533 0;
#X connect 20 0 387 0;
#X connect 20 0 342 0;
#X connect 21 0 345 0;
#X connect 22 0 489 0;
#X connect 23 0 22 0;
#X connect 24 0 27 0;
#X connect 25 0 24 0;
#X connect 26 0 25 0;
#X connect 26 0 28 0;
#X connect 27 0 400 0;
#X connect 29 0 480 0;
#X connect 30 0 29 0;
#X connect 31 0 413 0;
#X connect 32 0 31 0;
#X connect 33 0 32 0;
#X connect 33 0 34 0;
#X connect 37 0 77 0;
#X connect 38 0 23 0;
#X connect 39 0 30 0;
#X connect 40 0 333 0;
#X connect 41 0 388 0;
#X connect 42 0 17 0;
#X connect 43 0 9 0;
#X connect 44 0 23 0;
#X connect 45 0 30 0;
#X connect 46 0 326 0;
#X connect 46 1 388 0;
#X connect 47 0 49 0;
#X connect 48 0 40 0;
#X connect 49 0 388 0;
#X connect 50 0 51 0;
#X connect 51 0 52 0;
#X connect 52 0 60 0;
#X connect 53 0 51 0;
#X connect 61 0 483 0;
#X connect 62 0 485 0;
#X connect 63 0 64 0;
#X connect 64 0 484 0;
#X connect 65 0 63 0;
#X connect 65 1 63 1;
#X connect 66 0 63 0;
#X connect 66 0 61 0;
#X connect 67 0 65 0;
#X connect 67 0 62 0;
#X connect 69 0 365 0;
#X connect 70 0 71 0;
#X connect 71 0 72 0;
#X connect 72 0 74 0;
#X connect 73 0 71 0;
#X connect 76 0 19 0;
#X connect 80 0 486 0;
#X connect 81 0 488 0;
#X connect 82 0 83 0;
#X connect 83 0 487 0;
#X connect 84 0 82 0;
#X connect 84 1 82 1;
#X connect 85 0 82 0;
#X connect 85 0 80 0;
#X connect 86 0 84 0;
#X connect 86 0 81 0;
#X connect 87 0 200 0;
#X connect 88 0 87 0;
#X connect 88 0 1104 0;
#X connect 89 0 88 0;
#X connect 92 0 91 0;
#X connect 95 0 307 0;
#X connect 96 0 302 0;
#X connect 97 0 302 0;
#X connect 100 0 102 0;
#X connect 101 0 114 0;
#X connect 102 0 101 0;
#X connect 103 0 113 1;
#X connect 104 0 113 1;
#X connect 105 0 113 1;
#X connect 106 0 113 1;
#X connect 107 0 113 1;
#X connect 108 0 113 1;
#X connect 109 0 113 1;
#X connect 111 0 498 0;
#X connect 112 0 111 0;
#X connect 113 0 211 0;
#X connect 114 0 113 0;
#X connect 115 0 79 0;
#X connect 116 0 79 0;
#X connect 117 0 79 0;
#X connect 118 0 114 1;
#X connect 118 0 119 0;
#X connect 120 0 187 0;
#X connect 121 0 132 0;
#X connect 122 0 131 1;
#X connect 123 0 131 1;
#X connect 124 0 131 1;
#X connect 125 0 131 1;
#X connect 126 0 131 1;
#X connect 127 0 131 1;
#X connect 128 0 131 1;
#X connect 129 0 497 0;
#X connect 130 0 129 0;
#X connect 131 0 220 0;
#X connect 132 0 131 0;
#X connect 133 0 132 1;
#X connect 133 0 134 0;
#X connect 135 0 188 0;
#X connect 136 0 147 0;
#X connect 137 0 146 1;
#X connect 138 0 146 1;
#X connect 139 0 146 1;
#X connect 140 0 146 1;
#X connect 141 0 146 1;
#X connect 142 0 146 1;
#X connect 143 0 146 1;
#X connect 144 0 496 0;
#X connect 145 0 144 0;
#X connect 146 0 229 0;
#X connect 147 0 146 0;
#X connect 148 0 189 0;
#X connect 149 0 160 0;
#X connect 150 0 159 1;
#X connect 151 0 159 1;
#X connect 152 0 159 1;
#X connect 153 0 159 1;
#X connect 154 0 159 1;
#X connect 155 0 159 1;
#X connect 156 0 159 1;
#X connect 157 0 495 0;
#X connect 158 0 157 0;
#X connect 159 0 238 0;
#X connect 160 0 159 0;
#X connect 161 0 190 0;
#X connect 162 0 173 0;
#X connect 163 0 172 1;
#X connect 164 0 172 1;
#X connect 165 0 172 1;
#X connect 166 0 172 1;
#X connect 167 0 172 1;
#X connect 168 0 172 1;
#X connect 169 0 172 1;
#X connect 170 0 494 0;
#X connect 171 0 170 0;
#X connect 172 0 247 0;
#X connect 173 0 172 0;
#X connect 174 0 191 0;
#X connect 175 0 186 0;
#X connect 176 0 185 1;
#X connect 177 0 185 1;
#X connect 178 0 185 1;
#X connect 179 0 185 1;
#X connect 180 0 185 1;
#X connect 181 0 185 1;
#X connect 182 0 185 1;
#X connect 183 0 493 0;
#X connect 184 0 183 0;
#X connect 185 0 256 0;
#X connect 186 0 185 0;
#X connect 187 0 121 0;
#X connect 188 0 136 0;
#X connect 189 0 149 0;
#X connect 190 0 162 0;
#X connect 191 0 175 0;
#X connect 192 0 193 0;
#X connect 192 0 147 1;
#X connect 194 0 195 0;
#X connect 194 0 160 1;
#X connect 196 0 197 0;
#X connect 196 0 173 1;
#X connect 198 0 199 0;
#X connect 198 0 186 1;
#X connect 200 0 285 0;
#X connect 200 0 78 0;
#X connect 202 0 783 0;
#X connect 203 0 784 0;
#X connect 205 0 401 0;
#X connect 206 0 208 0;
#X connect 207 0 209 0;
#X connect 207 0 205 0;
#X connect 209 0 402 0;
#X connect 210 0 204 0;
#X connect 211 0 110 0;
#X connect 211 1 335 0;
#X connect 211 2 210 0;
#X connect 211 2 206 0;
#X connect 214 0 403 0;
#X connect 215 0 217 0;
#X connect 216 0 218 0;
#X connect 216 0 214 0;
#X connect 218 0 404 0;
#X connect 219 0 213 0;
#X connect 220 0 212 0;
#X connect 220 1 336 0;
#X connect 220 2 219 0;
#X connect 220 2 215 0;
#X connect 223 0 405 0;
#X connect 224 0 226 0;
#X connect 225 0 227 0;
#X connect 225 0 223 0;
#X connect 227 0 406 0;
#X connect 228 0 222 0;
#X connect 229 0 221 0;
#X connect 229 1 337 0;
#X connect 229 2 228 0;
#X connect 229 2 224 0;
#X connect 232 0 407 0;
#X connect 233 0 235 0;
#X connect 234 0 236 0;
#X connect 234 0 232 0;
#X connect 236 0 408 0;
#X connect 237 0 231 0;
#X connect 238 0 230 0;
#X connect 238 1 338 0;
#X connect 238 2 237 0;
#X connect 238 2 233 0;
#X connect 241 0 409 0;
#X connect 242 0 244 0;
#X connect 243 0 245 0;
#X connect 243 0 241 0;
#X connect 245 0 410 0;
#X connect 246 0 240 0;
#X connect 247 0 239 0;
#X connect 247 1 339 0;
#X connect 247 2 246 0;
#X connect 247 2 242 0;
#X connect 250 0 411 0;
#X connect 251 0 253 0;
#X connect 252 0 250 0;
#X connect 252 0 254 0;
#X connect 254 0 412 0;
#X connect 255 0 249 0;
#X connect 256 0 248 0;
#X connect 256 1 340 0;
#X connect 256 2 251 0;
#X connect 256 2 255 0;
#X connect 257 0 264 0;
#X connect 258 0 264 0;
#X connect 259 0 258 0;
#X connect 260 0 264 0;
#X connect 261 0 264 0;
#X connect 262 0 264 0;
#X connect 263 0 264 0;
#X connect 266 0 270 0;
#X connect 267 0 270 0;
#X connect 268 0 270 0;
#X connect 269 0 270 0;
#X connect 272 0 266 0;
#X connect 273 0 268 0;
#X connect 274 0 269 0;
#X connect 275 0 267 0;
#X connect 276 0 257 0;
#X connect 277 0 260 0;
#X connect 278 0 261 0;
#X connect 279 0 262 0;
#X connect 280 0 263 0;
#X connect 281 0 287 0;
#X connect 282 0 288 0;
#X connect 286 0 284 0;
#X connect 286 0 296 0;
#X connect 286 1 283 0;
#X connect 286 1 295 0;
#X connect 287 0 259 0;
#X connect 287 0 276 0;
#X connect 287 0 277 0;
#X connect 287 0 278 0;
#X connect 287 0 279 0;
#X connect 287 0 280 0;
#X connect 287 0 289 0;
#X connect 288 0 275 0;
#X connect 288 0 272 0;
#X connect 288 0 273 0;
#X connect 288 0 274 0;
#X connect 289 0 294 0;
#X connect 290 0 287 0;
#X connect 291 0 290 1;
#X connect 291 0 293 0;
#X connect 293 0 278 0;
#X connect 293 0 294 0;
#X connect 294 0 290 0;
#X connect 295 0 296 0;
#X connect 296 0 92 0;
#X connect 297 0 389 0;
#X connect 302 0 301 0;
#X connect 303 0 301 1;
#X connect 304 0 391 0;
#X connect 306 0 307 0;
#X connect 307 0 305 0;
#X connect 308 0 305 1;
#X connect 309 0 312 0;
#X connect 310 0 395 0;
#X connect 312 0 323 0;
#X connect 313 0 323 1;
#X connect 314 0 396 0;
#X connect 315 0 316 0;
#X connect 316 0 322 0;
#X connect 317 0 322 1;
#X connect 319 0 316 0;
#X connect 321 0 312 0;
#X connect 324 0 1 1;
#X connect 325 0 324 0;
#X connect 327 0 12 1;
#X connect 328 0 327 0;
#X connect 329 0 11 1;
#X connect 330 0 329 0;
#X connect 331 0 6 1;
#X connect 332 0 331 0;
#X connect 333 0 41 0;
#X connect 334 0 479 0;
#X connect 334 0 479 1;
#X connect 341 0 342 0;
#X connect 341 0 397 0;
#X connect 342 0 346 1;
#X connect 343 0 342 1;
#X connect 343 0 397 1;
#X connect 344 0 346 0;
#X connect 345 0 334 0;
#X connect 346 0 334 0;
#X connect 347 0 31 0;
#X connect 348 0 24 0;
#X connect 349 0 366 0;
#X connect 350 0 353 0;
#X connect 350 0 504 0;
#X connect 351 0 350 0;
#X connect 351 0 1105 0;
#X connect 352 0 357 0;
#X connect 352 0 355 0;
#X connect 353 0 352 0;
#X connect 355 0 477 0;
#X connect 355 1 354 0;
#X connect 356 0 351 0;
#X connect 358 0 359 0;
#X connect 359 0 362 0;
#X connect 360 0 368 0;
#X connect 363 0 366 1;
#X connect 364 0 365 1;
#X connect 365 0 330 0;
#X connect 366 0 330 0;
#X connect 367 0 358 0;
#X connect 367 0 361 0;
#X connect 368 0 367 0;
#X connect 369 0 372 1;
#X connect 370 0 371 1;
#X connect 371 0 325 0;
#X connect 372 0 325 0;
#X connect 373 0 372 0;
#X connect 374 0 371 0;
#X connect 375 0 378 1;
#X connect 376 0 377 1;
#X connect 377 0 332 0;
#X connect 378 0 332 0;
#X connect 379 0 378 0;
#X connect 380 0 377 0;
#X connect 381 0 384 1;
#X connect 382 0 383 1;
#X connect 383 0 420 0;
#X connect 384 0 420 0;
#X connect 385 0 384 0;
#X connect 386 0 383 0;
#X connect 387 0 344 0;
#X connect 388 0 20 0;
#X connect 388 1 21 0;
#X connect 389 0 390 0;
#X connect 390 0 93 0;
#X connect 391 0 392 0;
#X connect 392 0 94 0;
#X connect 393 0 318 0;
#X connect 394 0 320 0;
#X connect 395 0 393 0;
#X connect 396 0 394 0;
#X connect 397 0 346 0;
#X connect 398 0 415 0;
#X connect 399 0 790 0;
#X connect 400 0 345 1;
#X connect 401 0 206 1;
#X connect 402 0 210 1;
#X connect 403 0 215 1;
#X connect 404 0 219 1;
#X connect 405 0 224 1;
#X connect 406 0 228 1;
#X connect 407 0 233 1;
#X connect 408 0 237 1;
#X connect 409 0 242 1;
#X connect 410 0 246 1;
#X connect 411 0 251 1;
#X connect 412 0 255 1;
#X connect 413 0 343 0;
#X connect 414 0 792 0;
#X connect 415 0 478 0;
#X connect 415 1 400 0;
#X connect 415 1 416 0;
#X connect 416 0 399 1;
#X connect 416 0 413 1;
#X connect 416 0 414 1;
#X connect 417 0 420 1;
#X connect 418 0 419 0;
#X connect 419 0 417 0;
#X connect 420 0 328 0;
#X connect 421 0 475 0;
#X connect 422 0 433 0;
#X connect 423 0 432 1;
#X connect 424 0 432 1;
#X connect 425 0 432 1;
#X connect 426 0 432 1;
#X connect 427 0 432 1;
#X connect 428 0 432 1;
#X connect 429 0 432 1;
#X connect 430 0 492 0;
#X connect 431 0 430 0;
#X connect 432 0 459 0;
#X connect 433 0 432 0;
#X connect 434 0 476 0;
#X connect 435 0 446 0;
#X connect 436 0 445 1;
#X connect 437 0 445 1;
#X connect 438 0 445 1;
#X connect 439 0 445 1;
#X connect 440 0 445 1;
#X connect 441 0 445 1;
#X connect 442 0 445 1;
#X connect 443 0 491 0;
#X connect 444 0 443 0;
#X connect 445 0 468 0;
#X connect 446 0 445 0;
#X connect 447 0 448 0;
#X connect 447 0 433 1;
#X connect 449 0 450 0;
#X connect 449 0 446 1;
#X connect 453 0 471 0;
#X connect 454 0 456 0;
#X connect 455 0 457 0;
#X connect 455 0 453 0;
#X connect 457 0 472 0;
#X connect 458 0 452 0;
#X connect 459 0 451 0;
#X connect 459 1 469 0;
#X connect 459 2 458 0;
#X connect 459 2 454 0;
#X connect 462 0 473 0;
#X connect 463 0 465 0;
#X connect 464 0 462 0;
#X connect 464 0 466 0;
#X connect 466 0 474 0;
#X connect 467 0 461 0;
#X connect 468 0 460 0;
#X connect 468 1 470 0;
#X connect 468 2 463 0;
#X connect 468 2 467 0;
#X connect 471 0 454 1;
#X connect 472 0 458 1;
#X connect 473 0 463 1;
#X connect 474 0 467 1;
#X connect 475 0 422 0;
#X connect 476 0 435 0;
#X connect 478 0 399 1;
#X connect 478 0 414 1;
#X connect 479 0 37 1;
#X connect 480 0 481 0;
#X connect 481 0 347 0;
#X connect 482 0 90 0;
#X connect 483 0 973 0;
#X connect 484 0 482 0;
#X connect 485 0 974 0;
#X connect 486 0 115 0;
#X connect 487 0 116 0;
#X connect 488 0 117 0;
#X connect 489 0 490 0;
#X connect 490 0 348 0;
#X connect 491 0 436 0;
#X connect 491 1 437 0;
#X connect 491 2 438 0;
#X connect 491 3 439 0;
#X connect 491 4 440 0;
#X connect 491 5 441 0;
#X connect 491 6 442 0;
#X connect 492 0 423 0;
#X connect 492 1 424 0;
#X connect 492 2 425 0;
#X connect 492 3 426 0;
#X connect 492 4 427 0;
#X connect 492 5 428 0;
#X connect 492 6 429 0;
#X connect 493 0 176 0;
#X connect 493 1 177 0;
#X connect 493 2 178 0;
#X connect 493 3 179 0;
#X connect 493 4 180 0;
#X connect 493 5 181 0;
#X connect 493 6 182 0;
#X connect 494 0 163 0;
#X connect 494 1 164 0;
#X connect 494 2 165 0;
#X connect 494 3 166 0;
#X connect 494 4 167 0;
#X connect 494 5 168 0;
#X connect 494 6 169 0;
#X connect 495 0 150 0;
#X connect 495 1 151 0;
#X connect 495 2 152 0;
#X connect 495 3 153 0;
#X connect 495 4 154 0;
#X connect 495 5 155 0;
#X connect 495 6 156 0;
#X connect 496 0 137 0;
#X connect 496 1 138 0;
#X connect 496 2 139 0;
#X connect 496 3 140 0;
#X connect 496 4 141 0;
#X connect 496 5 142 0;
#X connect 496 6 143 0;
#X connect 497 0 122 0;
#X connect 497 1 123 0;
#X connect 497 2 124 0;
#X connect 497 3 125 0;
#X connect 497 4 126 0;
#X connect 497 5 127 0;
#X connect 497 6 128 0;
#X connect 498 0 103 0;
#X connect 498 1 104 0;
#X connect 498 2 105 0;
#X connect 498 3 106 0;
#X connect 498 4 107 0;
#X connect 498 5 108 0;
#X connect 498 6 109 0;
#X connect 499 0 831 0;
#X connect 499 0 834 0;
#X connect 505 0 506 0;
#X connect 506 0 527 0;
#X connect 507 0 505 0;
#X connect 508 0 506 1;
#X connect 509 0 508 0;
#X connect 509 1 510 0;
#X connect 510 0 506 1;
#X connect 511 0 509 0;
#X connect 512 0 507 0;
#X connect 513 0 509 0;
#X connect 515 0 516 0;
#X connect 516 0 500 0;
#X connect 517 0 518 0;
#X connect 518 0 501 0;
#X connect 519 0 520 0;
#X connect 520 0 502 0;
#X connect 521 0 522 0;
#X connect 522 0 503 0;
#X connect 523 0 525 1;
#X connect 524 0 528 0;
#X connect 524 0 531 0;
#X connect 525 0 523 0;
#X connect 525 0 526 0;
#X connect 526 0 524 0;
#X connect 527 0 525 0;
#X connect 528 0 529 0;
#X connect 529 0 527 0;
#X connect 530 0 527 0;
#X connect 531 0 503 1;
#X connect 531 0 502 1;
#X connect 531 0 501 1;
#X connect 531 0 500 1;
#X connect 531 1 521 0;
#X connect 531 1 519 0;
#X connect 531 1 517 0;
#X connect 531 1 515 0;
#X connect 532 0 499 0;
#X connect 533 0 532 0;
#X connect 534 0 539 0;
#X connect 535 0 534 1;
#X connect 536 0 535 0;
#X connect 536 1 537 0;
#X connect 537 0 534 1;
#X connect 538 0 536 0;
#X connect 539 0 553 0;
#X connect 541 0 542 0;
#X connect 542 0 544 0;
#X connect 543 0 534 0;
#X connect 544 0 543 0;
#X connect 545 0 538 0;
#X connect 546 0 547 0;
#X connect 547 0 539 1;
#X connect 548 0 550 0;
#X connect 549 0 552 0;
#X connect 550 0 368 0;
#X connect 551 0 368 0;
#X connect 552 0 368 0;
#X connect 553 0 554 0;
#X connect 554 1 550 0;
#X connect 554 2 548 0;
#X connect 554 3 549 0;
#X connect 554 4 551 0;
#X connect 555 0 563 0;
#X connect 555 0 557 0;
#X connect 555 0 561 0;
#X connect 558 0 560 0;
#X connect 559 0 560 0;
#X connect 561 0 562 0;
#X connect 561 1 559 0;
#X connect 562 0 558 0;
#X connect 563 0 569 0;
#X connect 564 0 565 0;
#X connect 565 0 566 0;
#X connect 566 0 574 0;
#X connect 567 0 565 0;
#X connect 569 0 559 0;
#X connect 569 0 562 0;
#X connect 569 0 576 0;
#X connect 570 0 576 1;
#X connect 571 0 572 0;
#X connect 572 0 568 0;
#X connect 573 0 575 1;
#X connect 574 0 998 0;
#X connect 575 0 571 0;
#X connect 576 0 570 0;
#X connect 576 0 575 0;
#X connect 577 0 581 0;
#X connect 578 0 563 1;
#X connect 578 0 580 0;
#X connect 581 0 578 1;
#X connect 581 1 578 0;
#X connect 582 0 587 0;
#X connect 583 0 586 0;
#X connect 584 0 582 0;
#X connect 585 0 583 0;
#X connect 586 0 737 0;
#X connect 587 0 737 0;
#X connect 588 0 585 1;
#X connect 588 0 584 1;
#X connect 589 0 588 0;
#X connect 589 1 590 0;
#X connect 590 0 585 1;
#X connect 590 0 584 1;
#X connect 591 0 589 0;
#X connect 592 0 596 0;
#X connect 592 0 736 0;
#X connect 594 0 602 0;
#X connect 595 0 603 0;
#X connect 597 0 598 0;
#X connect 598 0 596 0;
#X connect 600 0 593 0;
#X connect 601 0 589 0;
#X connect 602 0 585 0;
#X connect 603 0 584 0;
#X connect 604 0 774 0;
#X connect 605 0 775 0;
#X connect 606 0 611 0;
#X connect 607 0 610 0;
#X connect 608 0 606 0;
#X connect 609 0 607 0;
#X connect 610 0 657 0;
#X connect 611 0 657 0;
#X connect 612 0 608 1;
#X connect 612 0 609 1;
#X connect 613 0 612 0;
#X connect 613 1 614 0;
#X connect 614 0 608 1;
#X connect 614 0 609 1;
#X connect 615 0 613 0;
#X connect 616 0 651 0;
#X connect 616 0 623 0;
#X connect 618 0 619 0;
#X connect 619 0 623 0;
#X connect 620 0 617 0;
#X connect 621 0 613 0;
#X connect 624 0 637 0;
#X connect 625 0 655 0;
#X connect 626 0 641 0;
#X connect 626 0 662 0;
#X connect 627 0 647 0;
#X connect 628 0 647 0;
#X connect 629 0 647 0;
#X connect 630 0 647 0;
#X connect 631 0 647 0;
#X connect 632 0 647 0;
#X connect 633 0 647 0;
#X connect 634 0 647 0;
#X connect 635 0 637 1;
#X connect 636 0 637 1;
#X connect 637 0 626 1;
#X connect 638 0 637 1;
#X connect 639 0 668 0;
#X connect 640 0 667 0;
#X connect 641 0 659 0;
#X connect 642 0 627 0;
#X connect 642 1 628 0;
#X connect 642 2 629 0;
#X connect 642 3 630 0;
#X connect 642 4 631 0;
#X connect 642 5 632 0;
#X connect 642 6 633 0;
#X connect 642 7 634 0;
#X connect 643 0 641 1;
#X connect 644 0 641 1;
#X connect 645 0 641 1;
#X connect 646 0 641 1;
#X connect 648 0 626 0;
#X connect 648 0 659 1;
#X connect 649 0 637 1;
#X connect 650 0 641 1;
#X connect 651 0 620 0;
#X connect 651 1 620 0;
#X connect 652 0 648 0;
#X connect 653 0 648 0;
#X connect 653 1 654 0;
#X connect 654 0 626 0;
#X connect 655 0 653 0;
#X connect 655 0 656 0;
#X connect 655 1 637 0;
#X connect 656 0 648 0;
#X connect 656 1 635 0;
#X connect 656 1 644 0;
#X connect 656 2 636 0;
#X connect 656 2 646 0;
#X connect 656 3 638 0;
#X connect 656 3 645 0;
#X connect 656 4 658 0;
#X connect 656 4 643 0;
#X connect 656 5 649 0;
#X connect 656 5 650 0;
#X connect 657 0 606 1;
#X connect 657 0 607 1;
#X connect 657 0 616 0;
#X connect 658 0 637 1;
#X connect 659 0 642 0;
#X connect 660 0 662 1;
#X connect 661 0 666 0;
#X connect 662 0 660 0;
#X connect 662 0 663 0;
#X connect 663 0 661 0;
#X connect 664 0 659 1;
#X connect 665 0 659 1;
#X connect 666 0 664 0;
#X connect 666 1 665 0;
#X connect 667 0 609 0;
#X connect 668 0 608 0;
#X connect 669 0 773 0;
#X connect 670 0 772 0;
#X connect 671 0 672 0;
#X connect 672 0 673 0;
#X connect 673 0 678 0;
#X connect 673 1 674 0;
#X connect 673 2 675 0;
#X connect 674 0 679 0;
#X connect 675 0 680 0;
#X connect 678 0 696 0;
#X connect 679 0 682 0;
#X connect 680 0 682 0;
#X connect 680 0 686 0;
#X connect 680 0 745 0;
#X connect 682 0 696 1;
#X connect 683 0 686 1;
#X connect 684 0 685 0;
#X connect 685 0 704 0;
#X connect 686 0 683 0;
#X connect 686 0 700 0;
#X connect 686 0 701 0;
#X connect 686 0 702 0;
#X connect 686 0 699 0;
#X connect 686 0 720 0;
#X connect 686 0 740 0;
#X connect 686 0 913 0;
#X connect 687 0 688 0;
#X connect 688 0 705 0;
#X connect 689 0 690 0;
#X connect 690 0 706 0;
#X connect 691 0 722 0;
#X connect 692 0 722 0;
#X connect 693 0 722 0;
#X connect 694 0 722 0;
#X connect 695 0 722 0;
#X connect 696 0 686 0;
#X connect 697 0 918 0;
#X connect 698 0 717 0;
#X connect 699 0 698 0;
#X connect 700 0 684 0;
#X connect 701 0 687 0;
#X connect 702 0 689 0;
#X connect 703 0 694 0;
#X connect 704 0 695 0;
#X connect 705 0 742 0;
#X connect 706 0 915 0;
#X connect 707 0 691 1;
#X connect 708 0 692 1;
#X connect 708 0 693 1;
#X connect 708 0 694 1;
#X connect 708 0 695 1;
#X connect 709 0 692 1;
#X connect 710 0 691 1;
#X connect 710 0 695 1;
#X connect 710 0 693 1;
#X connect 710 0 694 1;
#X connect 710 0 742 1;
#X connect 710 0 915 1;
#X connect 711 0 693 1;
#X connect 712 0 692 1;
#X connect 712 0 694 1;
#X connect 712 0 695 1;
#X connect 712 0 691 1;
#X connect 712 0 742 1;
#X connect 712 0 915 1;
#X connect 713 0 694 1;
#X connect 714 0 695 1;
#X connect 714 0 693 1;
#X connect 714 0 692 1;
#X connect 714 0 691 1;
#X connect 714 0 742 1;
#X connect 714 0 915 1;
#X connect 715 0 695 1;
#X connect 716 0 694 1;
#X connect 716 0 693 1;
#X connect 716 0 692 1;
#X connect 716 0 691 1;
#X connect 716 0 742 1;
#X connect 716 0 915 1;
#X connect 717 0 703 0;
#X connect 718 0 719 0;
#X connect 719 0 721 0;
#X connect 720 0 718 0;
#X connect 721 0 693 0;
#X connect 723 0 569 0;
#X connect 724 0 555 0;
#X connect 725 0 724 1;
#X connect 726 0 725 0;
#X connect 726 1 727 0;
#X connect 727 0 724 1;
#X connect 728 0 726 0;
#X connect 728 0 579 0;
#X connect 729 0 731 0;
#X connect 730 0 724 0;
#X connect 731 0 730 0;
#X connect 732 0 729 0;
#X connect 733 0 728 0;
#X connect 734 0 733 0;
#X connect 736 0 600 0;
#X connect 736 1 600 0;
#X connect 737 0 582 1;
#X connect 737 0 583 1;
#X connect 737 0 592 0;
#X connect 738 0 739 0;
#X connect 739 0 741 0;
#X connect 740 0 738 0;
#X connect 741 0 692 0;
#X connect 742 0 722 0;
#X connect 743 0 742 1;
#X connect 744 0 695 1;
#X connect 744 0 694 1;
#X connect 744 0 693 1;
#X connect 744 0 692 1;
#X connect 744 0 691 1;
#X connect 744 0 915 1;
#X connect 746 0 576 0;
#X connect 747 0 752 0;
#X connect 748 0 751 0;
#X connect 749 0 747 0;
#X connect 750 0 748 0;
#X connect 751 0 778 0;
#X connect 752 0 778 0;
#X connect 753 0 749 1;
#X connect 753 0 750 1;
#X connect 754 0 753 0;
#X connect 754 1 755 0;
#X connect 755 0 749 1;
#X connect 755 0 750 1;
#X connect 756 0 754 0;
#X connect 756 0 820 0;
#X connect 757 0 779 0;
#X connect 757 0 771 0;
#X connect 757 0 780 0;
#X connect 759 0 787 0;
#X connect 760 0 758 0;
#X connect 761 0 750 0;
#X connect 762 0 749 0;
#X connect 763 0 776 0;
#X connect 764 0 777 0;
#X connect 765 0 762 0;
#X connect 767 0 761 0;
#X connect 768 0 756 0;
#X connect 768 0 1106 0;
#X connect 769 0 768 0;
#X connect 771 0 766 0;
#X connect 772 0 668 0;
#X connect 773 0 667 0;
#X connect 774 0 602 0;
#X connect 775 0 603 0;
#X connect 776 0 761 0;
#X connect 777 0 762 0;
#X connect 778 0 747 1;
#X connect 778 0 748 1;
#X connect 778 0 757 0;
#X connect 779 0 760 0;
#X connect 779 1 760 0;
#X connect 780 0 787 0;
#X connect 780 1 788 0;
#X connect 780 2 789 0;
#X connect 781 0 784 1;
#X connect 782 0 783 1;
#X connect 783 0 399 0;
#X connect 784 0 414 0;
#X connect 787 0 785 0;
#X connect 787 0 786 0;
#X connect 788 0 785 0;
#X connect 788 0 786 0;
#X connect 789 0 785 0;
#X connect 789 0 786 0;
#X connect 790 0 791 0;
#X connect 791 0 400 1;
#X connect 792 0 793 0;
#X connect 793 0 413 1;
#X connect 794 0 799 0;
#X connect 795 0 798 0;
#X connect 796 0 794 0;
#X connect 797 0 795 0;
#X connect 798 0 818 0;
#X connect 799 0 818 0;
#X connect 800 0 796 1;
#X connect 800 0 797 1;
#X connect 801 0 800 0;
#X connect 801 1 802 0;
#X connect 802 0 796 1;
#X connect 802 0 797 1;
#X connect 803 0 801 0;
#X connect 804 0 817 0;
#X connect 804 0 819 0;
#X connect 806 0 932 0;
#X connect 807 0 805 0;
#X connect 808 0 797 0;
#X connect 809 0 796 0;
#X connect 810 0 812 0;
#X connect 811 0 813 0;
#X connect 812 0 808 0;
#X connect 813 0 809 0;
#X connect 815 0 809 0;
#X connect 816 0 808 0;
#X connect 818 0 794 1;
#X connect 818 0 795 1;
#X connect 818 0 804 0;
#X connect 819 0 807 0;
#X connect 819 1 807 0;
#X connect 821 0 803 0;
#X connect 822 0 823 0;
#X connect 823 0 825 0;
#X connect 823 0 826 0;
#X connect 824 0 849 0;
#X connect 825 0 827 0;
#X connect 826 0 845 1;
#X connect 826 0 848 1;
#X connect 827 0 847 0;
#X connect 827 0 848 0;
#X connect 828 0 835 0;
#X connect 829 0 828 0;
#X connect 830 0 828 0;
#X connect 831 0 874 0;
#X connect 831 0 870 0;
#X connect 831 0 862 0;
#X connect 832 0 833 0;
#X connect 833 0 831 1;
#X connect 834 0 875 0;
#X connect 834 0 871 0;
#X connect 834 0 861 0;
#X connect 835 0 832 0;
#X connect 835 0 834 1;
#X connect 836 0 828 0;
#X connect 837 0 836 1;
#X connect 838 0 829 1;
#X connect 838 0 830 1;
#X connect 839 0 829 1;
#X connect 840 0 836 1;
#X connect 840 0 830 1;
#X connect 841 0 830 1;
#X connect 842 0 829 1;
#X connect 842 0 836 1;
#X connect 843 0 836 0;
#X connect 844 0 829 0;
#X connect 845 0 844 0;
#X connect 846 0 830 0;
#X connect 847 0 845 0;
#X connect 848 0 846 0;
#X connect 849 0 837 0;
#X connect 849 0 838 0;
#X connect 849 0 843 0;
#X connect 849 1 840 0;
#X connect 849 1 839 0;
#X connect 849 2 841 0;
#X connect 849 2 842 0;
#X connect 850 0 352 0;
#X connect 851 0 862 1;
#X connect 851 0 861 1;
#X connect 852 0 862 1;
#X connect 852 0 861 1;
#X connect 855 0 862 1;
#X connect 855 0 861 1;
#X connect 857 0 862 1;
#X connect 857 0 861 1;
#X connect 860 0 862 1;
#X connect 860 0 861 1;
#X connect 861 0 875 0;
#X connect 862 0 874 0;
#X connect 863 0 864 0;
#X connect 864 0 851 0;
#X connect 865 0 866 0;
#X connect 866 0 855 0;
#X connect 867 0 852 0;
#X connect 868 0 860 0;
#X connect 869 0 857 0;
#X connect 870 0 880 0;
#X connect 871 0 880 1;
#X connect 872 0 873 0;
#X connect 873 0 870 1;
#X connect 873 0 871 1;
#X connect 874 0 880 0;
#X connect 875 0 880 1;
#X connect 876 0 877 0;
#X connect 877 0 875 1;
#X connect 877 0 872 0;
#X connect 877 0 874 1;
#X connect 878 0 876 0;
#X connect 879 0 876 0;
#X connect 881 0 905 0;
#X connect 882 0 906 0;
#X connect 883 0 881 1;
#X connect 883 0 882 1;
#X connect 884 0 883 0;
#X connect 884 1 885 0;
#X connect 885 0 881 1;
#X connect 885 0 882 1;
#X connect 886 0 884 0;
#X connect 887 0 907 0;
#X connect 887 0 900 0;
#X connect 889 0 909 0;
#X connect 890 0 888 0;
#X connect 891 0 882 0;
#X connect 892 0 881 0;
#X connect 893 0 895 0;
#X connect 894 0 896 0;
#X connect 895 0 891 0;
#X connect 896 0 892 0;
#X connect 897 0 886 0;
#X connect 898 0 891 0;
#X connect 899 0 892 0;
#X connect 901 0 903 0;
#X connect 901 1 863 0;
#X connect 901 1 865 0;
#X connect 901 1 867 0;
#X connect 901 1 868 0;
#X connect 901 1 869 0;
#X connect 902 0 901 0;
#X connect 903 0 904 0;
#X connect 904 0 878 0;
#X connect 904 1 879 0;
#X connect 905 0 887 0;
#X connect 906 0 887 0;
#X connect 907 0 890 0;
#X connect 907 1 890 0;
#X connect 909 0 900 0;
#X connect 910 0 686 0;
#X connect 911 0 912 0;
#X connect 912 0 914 0;
#X connect 913 0 911 0;
#X connect 914 0 691 0;
#X connect 915 0 722 0;
#X connect 916 0 915 1;
#X connect 917 0 742 1;
#X connect 917 0 695 1;
#X connect 917 0 694 1;
#X connect 917 0 693 1;
#X connect 917 0 692 1;
#X connect 917 0 691 1;
#X connect 918 0 707 0;
#X connect 918 0 708 0;
#X connect 918 1 709 0;
#X connect 918 1 710 0;
#X connect 918 2 711 0;
#X connect 918 2 712 0;
#X connect 918 3 713 0;
#X connect 918 3 714 0;
#X connect 918 4 715 0;
#X connect 918 4 716 0;
#X connect 918 5 743 0;
#X connect 918 5 744 0;
#X connect 918 6 916 0;
#X connect 918 6 917 0;
#X connect 919 0 292 0;
#X connect 919 0 286 0;
#X connect 920 0 919 1;
#X connect 921 0 920 0;
#X connect 921 1 922 0;
#X connect 922 0 919 1;
#X connect 923 0 921 0;
#X connect 924 0 926 0;
#X connect 925 0 919 0;
#X connect 926 0 925 0;
#X connect 927 0 923 0;
#X connect 928 0 924 0;
#X connect 929 0 927 0;
#X connect 931 0 78 0;
#X connect 932 0 817 0;
#X connect 933 0 976 1;
#X connect 934 0 953 0;
#X connect 934 0 965 0;
#X connect 934 1 954 0;
#X connect 934 1 965 0;
#X connect 935 0 999 0;
#X connect 936 0 935 1;
#X connect 937 0 936 0;
#X connect 937 1 938 0;
#X connect 938 0 935 1;
#X connect 939 0 937 0;
#X connect 940 0 944 0;
#X connect 940 0 950 0;
#X connect 942 0 945 0;
#X connect 943 0 941 0;
#X connect 944 0 943 0;
#X connect 944 1 943 0;
#X connect 945 0 950 0;
#X connect 946 0 1110 0;
#X connect 947 0 1108 0;
#X connect 948 0 935 0;
#X connect 949 0 940 0;
#X connect 951 0 953 1;
#X connect 951 0 954 1;
#X connect 952 0 1016 0;
#X connect 953 0 955 0;
#X connect 954 0 955 1;
#X connect 957 0 1112 0;
#X connect 958 0 960 0;
#X connect 959 0 968 0;
#X connect 960 0 959 1;
#X connect 961 0 963 0;
#X connect 962 0 963 0;
#X connect 964 0 961 0;
#X connect 965 0 959 0;
#X connect 966 0 971 0;
#X connect 967 0 975 0;
#X connect 968 0 972 0;
#X connect 969 0 966 1;
#X connect 970 0 969 0;
#X connect 971 0 967 0;
#X connect 972 0 970 0;
#X connect 973 0 90 0;
#X connect 974 0 90 0;
#X connect 975 0 992 0;
#X connect 975 1 966 0;
#X connect 975 2 962 0;
#X connect 975 3 964 0;
#X connect 976 0 994 0;
#X connect 977 0 979 0;
#X connect 978 0 977 0;
#X connect 978 0 985 0;
#X connect 979 0 983 0;
#X connect 979 0 986 0;
#X connect 980 0 981 0;
#X connect 981 0 983 1;
#X connect 981 0 980 1 48.................V....rF...fE....qA...P5+++OE....j9+++SA...fs++++;
#X connect 982 0 980 0;
#X connect 983 0 984 0;
#X connect 984 0 956 0;
#X connect 985 0 980 1;
#X connect 985 0 981 0;
#X connect 986 0 987 1;
#X connect 986 1 987 0;
#X connect 987 0 988 0;
#X connect 988 0 989 0;
#X connect 989 0 991 0;
#X connect 990 1 978 0 48.................J....PA...fB....T.....m+++eL....v4+++GC...fk9+++;
#X connect 991 0 990 0;
#X connect 992 0 995 0;
#X connect 994 0 578 0;
#X connect 995 0 977 1;
#X connect 995 1 982 0;
#X connect 995 2 996 0;
#X connect 997 0 976 0;
#X connect 998 0 1017 0;
#X connect 999 0 949 0;
#X connect 1000 0 1111 0;
#X connect 1002 0 1015 0;
#X connect 1003 0 1002 1;
#X connect 1004 0 1003 0;
#X connect 1004 1 1005 0;
#X connect 1005 0 1002 1;
#X connect 1006 0 1004 0;
#X connect 1007 0 1011 0;
#X connect 1007 0 1001 0;
#X connect 1009 0 1012 0;
#X connect 1010 0 1008 0;
#X connect 1011 0 1010 0;
#X connect 1011 1 1010 0;
#X connect 1012 0 1001 0;
#X connect 1013 0 1002 0;
#X connect 1014 0 1007 0;
#X connect 1015 0 1014 0;
#X connect 1016 0 951 0;
#X connect 1017 1 994 0;
#X connect 1018 0 1019 0;
#X connect 1018 1 1041 0;
#X connect 1019 0 1023 0;
#X connect 1020 0 1094 0;
#X connect 1020 0 1088 0;
#X connect 1021 0 1020 0;
#X connect 1024 0 1025 0;
#X connect 1024 1 1040 0;
#X connect 1025 0 1029 0;
#X connect 1026 0 1077 0;
#X connect 1026 0 1092 0;
#X connect 1026 0 1084 0;
#X connect 1027 0 1026 0;
#X connect 1030 0 1034 0;
#X connect 1031 0 1032 0;
#X connect 1031 1 1036 0;
#X connect 1032 0 1037 0;
#X connect 1033 0 1083 0;
#X connect 1033 0 1090 0;
#X connect 1033 0 1087 0;
#X connect 1033 0 1078 0;
#X connect 1034 0 1033 0;
#X connect 1036 0 1035 0;
#X connect 1038 0 1027 0;
#X connect 1039 0 1021 0;
#X connect 1040 0 1028 0;
#X connect 1041 0 1022 0;
#X connect 1042 0 1043 0;
#X connect 1042 1 1057 0;
#X connect 1043 0 1047 0;
#X connect 1044 0 1098 0;
#X connect 1044 0 1086 0;
#X connect 1044 0 1079 0;
#X connect 1044 0 1082 0;
#X connect 1045 0 1044 0;
#X connect 1048 0 1049 0;
#X connect 1048 1 1056 0;
#X connect 1049 0 1053 0;
#X connect 1050 0 1096 0;
#X connect 1050 0 1076 0;
#X connect 1050 0 1085 0;
#X connect 1051 0 1050 0;
#X connect 1054 0 1051 0;
#X connect 1055 0 1045 0;
#X connect 1056 0 1052 0;
#X connect 1057 0 1046 0;
#X connect 1058 0 1059 0;
#X connect 1058 1 1072 0;
#X connect 1059 0 1063 0;
#X connect 1060 0 1102 0;
#X connect 1060 0 1075 0;
#X connect 1060 0 1081 0;
#X connect 1061 0 1060 0;
#X connect 1064 0 1065 0;
#X connect 1064 1 1071 0;
#X connect 1065 0 1069 0;
#X connect 1066 0 1100 0;
#X connect 1066 0 1074 0;
#X connect 1066 0 1080 0;
#X connect 1067 0 1066 0;
#X connect 1070 0 1067 0;
#X connect 1071 0 1068 0;
#X connect 1072 0 1062 0;
#X connect 1073 0 1061 0;
#X connect 1089 0 1090 1;
#X connect 1090 0 1031 0;
#X connect 1091 0 1092 1;
#X connect 1092 0 1024 0;
#X connect 1093 0 1094 1;
#X connect 1094 0 1018 0;
#X connect 1095 0 1096 1;
#X connect 1096 0 1048 0;
#X connect 1097 0 1098 1;
#X connect 1098 0 1042 0;
#X connect 1099 0 1100 1;
#X connect 1100 0 1064 0;
#X connect 1101 0 1102 1;
#X connect 1102 0 1058 0;
#X connect 1108 0 948 0;
#X connect 1108 0 1107 0;
#X connect 1110 0 1109 0;
#X connect 1110 0 939 0;
#X connect 1111 0 1013 0;
#X connect 1112 0 1006 0;
