#N canvas 827 239 734 565 12;
#X obj 319 261 r~ feedback;
#X obj 462 299 hsl 128 17 0 1 0 0 empty empty empty -2 -8 0 10 #191919 #ffffff #ffffff 0 1;
#X msg 439 325 \$1 20;
#X obj 439 352 line~;
#X obj 439 408 mtof~;
#X obj 319 439 *~;
#X obj 439 380 *~ 127;
#X obj 462 480 hsl 128 17 0 1 0 0 empty empty empty -2 -8 0 10 #191919 #ffffff #ffffff 0 1;
#X obj 439 459 r knob1 @hv_param;
#X msg 439 506 \$1 20;
#X obj 439 533 line~;
#X obj 439 589 mtof~;
#X obj 439 561 *~ 127;
#X obj 319 643 +~;
#X obj 319 684 osc~ 200;
#X obj 795 164 hsl 128 17 0 1 0 0 empty empty empty -2 -8 0 10 #191919 #ffffff #ffffff 0 1;
#X msg 774 271 \$1 20;
#X obj 774 302 line~;
#X obj 774 386 mtof~;
#X obj 654 439 *~;
#X obj 774 358 *~ 127;
#X obj 654 743 +~;
#X obj 654 784 osc~ 200;
#X obj 679 819 send~ feedback;
#X obj 654 906 *~ 0.5;
#X obj 654 1094 dac~;
#X obj 802 880 hsl 128 17 0 1 0 0 empty empty empty -2 -8 0 10 #191919 #ffffff #ffffff 0 1;
#X msg 779 906 \$1 20;
#X obj 779 933 line~;
#X obj 654 1009 *~;
#X obj 1089 864 *~;
#X obj 1301 420 sel 0;
#X obj 1139 352 moses 0.01;
#X obj 1089 832 line~;
#X obj 1089 449 / 127;
#X obj 1089 762 pack;
#X msg 1089 791 \$1 \$2;
#X obj 1133 581 line~;
#X msg 1133 556 \$1 10;
#X obj 1133 654 snapshot~;
#X obj 1201 630 metro 10;
#X obj 1213 595 loadbang, f 9;
#X obj 1133 689 change;
#X msg 1203 689 5;
#X obj 1299 762 pack;
#X msg 1299 791 \$1 \$2;
#X obj 1337 581 line~;
#X msg 1337 556 \$1 10;
#X obj 1337 654 snapshot~;
#X obj 1405 630 metro 10;
#X obj 1417 595 loadbang, f 9;
#X obj 1337 689 change;
#X msg 1407 689 5;
#X msg 1301 449 0;
#X text 1136 481 attack;
#X text 1337 481 decay;
#X obj 1133 611 *~ 100;
#X obj 1337 611 *~ 200;
#X obj 654 950 *~;
#X obj 1162 533 hsl 128 17 0 1 0 0 empty empty empty -2 -8 0 10 #191919 #ffffff #ffffff 0 1;
#X obj 1364 533 hsl 128 17 0 1 0 0 empty empty empty -2 -8 0 10 #191919 #ffffff #ffffff 0 1;
#X obj 1199 196 bng 25 250 50 0 empty empty empty 17 7 0 10 #191919 #ffffff #ffffff;
#X msg 1201 291 0;
#X obj 1199 263 del;
#X obj 842 239 random 1000;
#X obj 842 302 *~ 0.001;
#X obj 842 271 sig~;
#X obj 598 138 bng 25 250 50 0 empty empty empty 17 7 0 10 #191919 #ffffff #ffffff;
#X obj 439 278 r knob0 @hv_param;
#X obj 779 859 r faderleft @hv_param;
#X obj 772 143 r knob2 @hv_param;
#X obj 1133 509 r knob4 @hv_param;
#X obj 1337 509 r knob5 @hv_param;
#X obj 2279 507 change;
#X obj 2489 507 change;
#X obj 2415 464 ==;
#X obj 2415 507 change;
#X obj 2415 427 t b f;
#X obj 2279 379 r toggle2down_press @hv_param;
#X obj 2489 379 r toggle2up_press @hv_param;
#X text 2425 348 touchpads gain multiplier;
#X obj 2320 464 tgl 25 0 empty empty empty 17 7 0 10 #191919 #ffffff #ffffff 0 1;
#X obj 1477 -511 cnv 15 1278 698 empty empty TOUCHPADS\ gain 20 12 0 14 #626262 #ffffff 0;
#X obj 1939 -368 sel 0 1;
#X msg 1941 -337 0;
#X obj 1939 -405 tgl 25 0 empty empty empty 17 7 0 10 #191919 #ffffff #ffffff 0 1;
#X obj 1939 -430 change;
#X obj 1125 -160 notein;
#X obj 1125 -46 sig~;
#X msg 959 -861 36;
#X msg 979 -841 38;
#X msg 999 -821 42;
#X msg 1019 -801 46;
#X msg 1039 -781 48;
#X msg 1059 -761 49;
#X msg 1079 -741 51;
#X msg 835 -702 36;
#X msg 866 -702 37;
#X msg 898 -702 38;
#X msg 936 -702 39;
#X msg 968 -702 40;
#X msg 1001 -702 41;
#X msg 1033 -702 42;
#X obj 1953 -284 s padnote;
#X obj 1939 -260 s padoff;
#X obj 1219 -160 r padnote;
#X obj 1199 155 r padoff;
#X obj 1719 -368 sel 0 1;
#X msg 1721 -337 0;
#X obj 1719 -405 tgl 25 0 empty empty empty 17 7 0 10 #191919 #ffffff #ffffff 0 1;
#X obj 1719 -430 change;
#X obj 1733 -284 s padnote;
#X obj 1719 -260 s padoff;
#X obj 1499 -461 r mpr121_driver_ch3 @hv_param;
#X obj 1499 -368 sel 0 1;
#X msg 1501 -337 0;
#X obj 1499 -405 tgl 25 0 empty empty empty 17 7 0 10 #191919 #ffffff #ffffff 0 1;
#X obj 1499 -430 change;
#X obj 1513 -284 s padnote;
#X msg 1513 -311 36;
#X obj 1499 -260 s padoff;
#X obj 1719 -461 r mpr121_driver_ch4 @hv_param;
#X obj 1939 -461 r mpr121_driver_ch5 @hv_param;
#X msg 1733 -311 37;
#X msg 1953 -311 38;
#X obj 584 101 sel 0 1;
#X obj 584 64 tgl 25 0 empty empty empty 17 7 0 10 #191919 #ffffff #ffffff 0 1;
#X obj 584 39 change;
#X obj 2388 -368 sel 0 1;
#X msg 2390 -337 0;
#X obj 2388 -405 tgl 25 0 empty empty empty 17 7 0 10 #191919 #ffffff #ffffff 0 1;
#X obj 2388 -430 change;
#X obj 2402 -284 s padnote;
#X obj 2388 -260 s padoff;
#X obj 2168 -368 sel 0 1;
#X msg 2170 -337 0;
#X obj 2168 -405 tgl 25 0 empty empty empty 17 7 0 10 #191919 #ffffff #ffffff 0 1;
#X obj 2168 -430 change;
#X obj 2182 -284 s padnote;
#X obj 2168 -260 s padoff;
#X obj 2168 -461 r mpr121_driver_ch6 @hv_param;
#X obj 2388 -461 r mpr121_driver_ch7 @hv_param;
#X msg 2182 -311 39;
#X msg 2402 -311 40;
#X obj 2059 -108 sel 0 1;
#X msg 2061 -77 0;
#X obj 2059 -145 tgl 25 0 empty empty empty 17 7 0 10 #191919 #ffffff #ffffff 0 1;
#X obj 2059 -170 change;
#X obj 2073 -24 s padnote;
#X obj 2059 0 s padoff;
#X obj 1839 -108 sel 0 1;
#X msg 1841 -77 0;
#X obj 1839 -145 tgl 25 0 empty empty empty 17 7 0 10 #191919 #ffffff #ffffff 0 1;
#X obj 1839 -170 change;
#X obj 1853 -24 s padnote;
#X obj 1839 0 s padoff;
#X obj 1839 -201 r mpr121_driver_ch8 @hv_param;
#X msg 1853 -51 41;
#X msg 2073 -51 42;
#X obj 2059 -201 r mpr121_driver_ch9 @hv_param;
#X msg 1219 37 100;
#X obj 1181 -67 +;
#X obj 1301 -77 f;
#X obj 1346 -160 r noterange;
#X obj 1301 -127 bng 25 250 50 0 empty empty empty 17 7 0 10 #191919 #ffffff #ffffff;
#X obj 2396 635 s noterange;
#X msg 2279 543 0, f 9;
#X msg 2489 543 14, f 9;
#X obj 2171 446 loadbang;
#X obj 1125 37 /~ 127;
#X obj 654 1055 hv.compressor~ 60 2;
#X obj 772 214 sel 0;
#X msg 774 239 0;
#X obj 774 331 +~;
#X obj 772 187 moses 0.001;
#X msg 2415 543 -14, f 9;
#X obj 797 460 hsl 128 17 0 1 0 0 empty empty empty -2 -8 0 10 #191919 #ffffff #ffffff 0 1;
#X msg 776 567 \$1 20;
#X obj 776 598 line~;
#X obj 776 727 mtof~;
#X obj 844 535 random 1000;
#X obj 844 598 *~ 0.001;
#X obj 844 567 sig~;
#X obj 774 510 sel 0;
#X msg 776 535 0;
#X obj 776 627 +~;
#X obj 774 483 moses 0.001;
#X obj 776 699 *~ 64;
#X obj 774 439 r knob3 @hv_param;
#X obj 776 666 +~;
#X obj 915 598 sig~;
#X obj 381 138 bng 25 250 50 0 empty empty empty 17 7 0 10 #191919 #ffffff #ffffff;
#X obj 367 101 sel 0 1;
#X obj 367 64 tgl 25 0 empty empty empty 17 7 0 10 #191919 #ffffff #ffffff 0 1;
#X obj 367 39 change;
#X obj 367 8 r mpr121_driver_ch0 @hv_param;
#X obj 584 8 r mpr121_driver_ch2 @hv_param;
#X connect 0 0 5 0;
#X connect 1 0 2 0;
#X connect 2 0 3 0;
#X connect 3 0 6 0;
#X connect 4 0 5 1;
#X connect 5 0 13 0;
#X connect 6 0 4 0;
#X connect 7 0 9 0;
#X connect 8 0 9 0;
#X connect 9 0 10 0;
#X connect 10 0 12 0;
#X connect 11 0 13 1;
#X connect 12 0 11 0;
#X connect 13 0 14 0;
#X connect 14 0 19 0;
#X connect 15 0 174 0;
#X connect 16 0 17 0;
#X connect 17 0 173 0;
#X connect 18 0 19 1;
#X connect 19 0 21 0;
#X connect 20 0 18 0;
#X connect 21 0 22 0;
#X connect 22 0 23 0;
#X connect 22 0 24 0;
#X connect 24 0 58 0;
#X connect 26 0 27 0;
#X connect 27 0 28 0;
#X connect 28 0 29 1;
#X connect 29 0 170 0;
#X connect 30 0 58 1;
#X connect 31 0 53 0;
#X connect 32 0 31 0;
#X connect 32 1 34 0;
#X connect 33 0 30 0;
#X connect 33 0 30 1;
#X connect 34 0 35 0;
#X connect 35 0 36 0;
#X connect 36 0 33 0;
#X connect 37 0 56 0;
#X connect 38 0 37 0;
#X connect 39 0 42 0;
#X connect 40 0 39 0;
#X connect 41 0 40 0;
#X connect 41 0 43 0;
#X connect 42 0 35 1;
#X connect 43 0 35 1;
#X connect 44 0 45 0;
#X connect 45 0 33 0;
#X connect 46 0 57 0;
#X connect 47 0 46 0;
#X connect 48 0 51 0;
#X connect 49 0 48 0;
#X connect 50 0 49 0;
#X connect 50 0 52 0;
#X connect 51 0 44 1;
#X connect 51 0 63 1;
#X connect 52 0 44 1;
#X connect 53 0 44 0;
#X connect 56 0 39 0;
#X connect 57 0 48 0;
#X connect 58 0 29 0;
#X connect 59 0 38 0;
#X connect 60 0 47 0;
#X connect 61 0 63 0;
#X connect 62 0 32 0;
#X connect 63 0 62 0;
#X connect 64 0 66 0;
#X connect 65 0 173 1;
#X connect 66 0 65 0;
#X connect 67 0 180 0;
#X connect 68 0 2 0;
#X connect 69 0 27 0;
#X connect 70 0 174 0;
#X connect 71 0 38 0;
#X connect 72 0 47 0;
#X connect 73 0 166 0;
#X connect 74 0 167 0;
#X connect 75 0 76 0;
#X connect 76 0 175 0;
#X connect 77 0 75 0;
#X connect 77 1 75 1;
#X connect 78 0 75 0;
#X connect 78 0 73 0;
#X connect 79 0 77 0;
#X connect 79 0 74 0;
#X connect 81 0 73 0;
#X connect 83 0 84 0;
#X connect 83 1 124 0;
#X connect 84 0 104 0;
#X connect 85 0 83 0;
#X connect 86 0 85 0;
#X connect 87 0 88 0;
#X connect 87 1 32 0;
#X connect 88 0 169 0;
#X connect 105 0 164 0;
#X connect 105 0 160 0;
#X connect 105 0 161 0;
#X connect 106 0 61 0;
#X connect 107 0 108 0;
#X connect 107 1 123 0;
#X connect 108 0 112 0;
#X connect 109 0 107 0;
#X connect 110 0 109 0;
#X connect 113 0 117 0;
#X connect 114 0 115 0;
#X connect 114 1 119 0;
#X connect 115 0 120 0;
#X connect 116 0 114 0;
#X connect 117 0 116 0;
#X connect 119 0 118 0;
#X connect 121 0 110 0;
#X connect 122 0 86 0;
#X connect 123 0 111 0;
#X connect 124 0 103 0;
#X connect 125 1 67 0;
#X connect 126 0 125 0;
#X connect 127 0 126 0;
#X connect 128 0 129 0;
#X connect 128 1 143 0;
#X connect 129 0 133 0;
#X connect 130 0 128 0;
#X connect 131 0 130 0;
#X connect 134 0 135 0;
#X connect 134 1 142 0;
#X connect 135 0 139 0;
#X connect 136 0 134 0;
#X connect 137 0 136 0;
#X connect 140 0 137 0;
#X connect 141 0 131 0;
#X connect 142 0 138 0;
#X connect 143 0 132 0;
#X connect 144 0 145 0;
#X connect 144 1 158 0;
#X connect 145 0 149 0;
#X connect 146 0 144 0;
#X connect 147 0 146 0;
#X connect 150 0 151 0;
#X connect 150 1 157 0;
#X connect 151 0 155 0;
#X connect 152 0 150 0;
#X connect 153 0 152 0;
#X connect 156 0 153 0;
#X connect 157 0 154 0;
#X connect 158 0 148 0;
#X connect 159 0 147 0;
#X connect 160 0 32 0;
#X connect 161 0 88 0;
#X connect 162 0 161 1;
#X connect 163 0 162 1;
#X connect 163 0 162 0;
#X connect 164 0 162 0;
#X connect 164 0 161 0;
#X connect 166 0 165 0;
#X connect 167 0 165 0;
#X connect 168 0 166 0;
#X connect 169 0 189 1;
#X connect 170 0 25 0;
#X connect 170 0 25 1;
#X connect 171 0 172 0;
#X connect 172 0 66 0;
#X connect 173 0 20 0;
#X connect 174 0 171 0;
#X connect 174 1 16 0;
#X connect 175 0 165 0;
#X connect 176 0 186 0;
#X connect 177 0 178 0;
#X connect 178 0 185 0;
#X connect 179 0 21 1;
#X connect 180 0 182 0;
#X connect 181 0 185 1;
#X connect 182 0 181 0;
#X connect 183 0 184 0;
#X connect 184 0 182 0;
#X connect 184 0 190 0;
#X connect 185 0 189 0;
#X connect 186 0 183 0;
#X connect 186 1 177 0;
#X connect 187 0 179 0;
#X connect 188 0 186 0;
#X connect 189 0 187 0;
#X connect 190 0 185 0;
#X connect 191 0 64 0;
#X connect 192 1 191 0;
#X connect 193 0 192 0;
#X connect 194 0 193 0;
#X connect 195 0 194 0;
#X connect 196 0 127 0;
