#N canvas 827 239 734 565 12;
#X obj 1440 1167 r~ feedback;
#X obj 1440 1240 *~;
#X obj 1418 805 hsl 128 17 0 1 0 0 empty empty empty -2 -8 0 10 #191919 #ffffff #ffffff 0 1;
#X obj 1350 781 r knob1 @hv_param;
#X msg 1350 828 \$1 20;
#X obj 1350 855 line~;
#X obj 1350 911 mtof~;
#X obj 1350 883 *~ 127;
#X obj 1440 1318 +~;
#X obj 1440 1359 osc~ 200;
#X obj 1614 802 hsl 128 17 0 1 0 0 empty empty empty -2 -8 0 10 #191919 #ffffff #ffffff 0 1;
#X msg 1590 909 \$1 20;
#X obj 1590 940 line~;
#X obj 1590 1024 mtof~;
#X obj 1634 1240 *~;
#X obj 1590 996 *~ 127;
#X obj 1634 1318 +~;
#X obj 1634 1359 osc~ 200;
#X obj 1659 1394 send~ feedback;
#X obj 1634 1476 *~ 0.5;
#X obj 1634 1805 dac~;
#X obj 1741 1657 hsl 128 17 0 1 0 0 empty empty empty -2 -8 0 10 #191919 #ffffff #ffffff 0 1;
#X msg 1718 1683 \$1 20;
#X obj 1718 1710 line~;
#X obj 1634 1738 *~;
#X obj 2069 1591 *~;
#X obj 2281 1084 sel 0;
#X obj 2164 1025 moses 0.01;
#X obj 2069 1559 line~;
#X obj 2069 1113 / 127;
#X obj 2069 1498 pack;
#X msg 2069 1527 \$1 \$2;
#X obj 2113 1245 line~;
#X msg 2113 1220 \$1 10;
#X obj 2113 1318 snapshot~;
#X obj 2181 1294 metro 10;
#X obj 2193 1259 loadbang, f 9;
#X obj 2113 1353 change;
#X msg 2195 1353 5;
#X obj 2295 1498 pack;
#X msg 2295 1527 \$1 \$2;
#X obj 2317 1245 line~;
#X msg 2317 1220 \$1 10;
#X obj 2317 1318 snapshot~;
#X obj 2385 1294 metro 10;
#X obj 2398 1259 loadbang, f 9;
#X obj 2317 1353 change;
#X msg 2400 1353 5;
#X msg 2281 1113 0;
#X text 2116 1145 attack;
#X text 2317 1145 decay;
#X obj 2113 1275 *~ 100;
#X obj 2317 1275 *~ 200;
#X obj 1634 1520 *~;
#X obj 2142 1197 hsl 128 17 0 1 0 0 empty empty empty -2 -8 0 10 #191919 #ffffff #ffffff 0 1;
#X obj 2344 1197 hsl 128 17 0 1 0 0 empty empty empty -2 -8 0 10 #191919 #ffffff #ffffff 0 1;
#X obj 2224 867 bng 25 250 50 0 empty empty empty 17 7 0 10 #191919 #ffffff #ffffff;
#X msg 2226 964 0;
#X obj 2224 936 del;
#X obj 1645 745 random 1000;
#X obj 1634 940 *~ 0.001;
#X obj 1646 909 sig~;
#X obj 1718 1636 r faderleft @hv_param;
#X obj 1588 781 r knob2 @hv_param;
#X obj 2113 1173 r knob4 @hv_param;
#X obj 2317 1173 r knob5 @hv_param;
#X obj 508 215 sel 0 1;
#X msg 510 246 0;
#X obj 508 178 tgl 25 0 empty empty empty 17 7 0 10 #191919 #ffffff #ffffff 0 1;
#X obj 508 153 change;
#X obj 2150 588 notein;
#X obj 2150 702 sig~;
#X obj 522 299 s padnote;
#X obj 508 323 s padoff;
#X obj 2244 588 r padnote;
#X obj 2224 828 r padoff;
#X obj 288 215 sel 0 1;
#X msg 290 246 0;
#X obj 288 178 tgl 25 0 empty empty empty 17 7 0 10 #191919 #ffffff #ffffff 0 1;
#X obj 288 153 change;
#X obj 302 299 s padnote;
#X obj 288 323 s padoff;
#X obj 68 122 r mpr121_driver_ch3 @hv_param;
#X obj 68 215 sel 0 1;
#X msg 70 246 0;
#X obj 68 178 tgl 25 0 empty empty empty 17 7 0 10 #191919 #ffffff #ffffff 0 1;
#X obj 68 153 change;
#X obj 82 299 s padnote;
#X msg 82 272 36;
#X obj 68 323 s padoff;
#X obj 288 122 r mpr121_driver_ch4 @hv_param;
#X obj 508 122 r mpr121_driver_ch5 @hv_param;
#X msg 302 272 37;
#X msg 522 272 38;
#X obj 957 215 sel 0 1;
#X msg 959 246 0;
#X obj 957 178 tgl 25 0 empty empty empty 17 7 0 10 #191919 #ffffff #ffffff 0 1;
#X obj 957 153 change;
#X obj 971 299 s padnote;
#X obj 957 323 s padoff;
#X obj 737 215 sel 0 1;
#X msg 739 246 0;
#X obj 737 178 tgl 25 0 empty empty empty 17 7 0 10 #191919 #ffffff #ffffff 0 1;
#X obj 737 153 change;
#X obj 751 299 s padnote;
#X obj 737 323 s padoff;
#X obj 737 122 r mpr121_driver_ch6 @hv_param;
#X obj 957 122 r mpr121_driver_ch7 @hv_param;
#X msg 751 272 39;
#X msg 971 272 40;
#X obj 628 475 sel 0 1;
#X msg 630 506 0;
#X obj 628 438 tgl 25 0 empty empty empty 17 7 0 10 #191919 #ffffff #ffffff 0 1;
#X obj 628 413 change;
#X obj 642 559 s padnote;
#X obj 628 583 s padoff;
#X obj 408 475 sel 0 1;
#X msg 410 506 0;
#X obj 408 438 tgl 25 0 empty empty empty 17 7 0 10 #191919 #ffffff #ffffff 0 1;
#X obj 408 413 change;
#X obj 422 559 s padnote;
#X obj 408 583 s padoff;
#X obj 408 382 r mpr121_driver_ch8 @hv_param;
#X msg 422 532 41;
#X msg 642 532 42;
#X obj 628 382 r mpr121_driver_ch9 @hv_param;
#X msg 2244 760 100;
#X obj 2206 681 +;
#X obj 2326 671 f;
#X obj 2371 588 r noterange;
#X obj 2326 621 bng 25 250 50 0 empty empty empty 17 7 0 10 #191919 #ffffff #ffffff;
#X obj 2150 760 /~ 127;
#X obj 1634 1766 hv.compressor~ 60 2;
#X obj 1588 852 sel 0;
#X msg 1590 877 0;
#X obj 1590 969 +~;
#X obj 1588 825 moses 0.001;
#X obj 1816 802 hsl 128 17 0 1 0 0 empty empty empty -2 -8 0 10 #191919 #ffffff #ffffff 0 1;
#X msg 1790 909 \$1 20;
#X obj 1790 940 line~;
#X obj 1790 1064 mtof~;
#X obj 1859 745 random 1000;
#X obj 1858 940 *~ 0.001;
#X obj 1859 909 sig~;
#X obj 1788 852 sel 0;
#X msg 1790 877 0;
#X obj 1790 969 +~;
#X obj 1788 825 moses 0.001;
#X obj 1790 1036 *~ 64;
#X obj 1788 781 r knob3 @hv_param;
#X obj 1790 1008 +~;
#X obj 1933 940 sig~;
#X obj 1645 709 bng 25 250 50 0 empty empty empty 17 7 0 10 #191919 #ffffff #ffffff;
#X obj 1631 678 sel 0 1;
#X obj 1631 641 tgl 25 0 empty empty empty 17 7 0 10 #191919 #ffffff #ffffff 0 1;
#X obj 1631 616 change;
#X text 1521 1358 sine osc 1;
#X text 1704 1358 sine osc 2;
#X text 1560 1426 send feedback to FModulate osc1;
#X text 1699 1200 osc 1 modulates osc 2;
#X obj 1350 1094 send~ Bfreqval;
#X obj 1590 1094 send~ Cfreqval;
#X obj 1790 1094 send~ Dfreqval;
#X obj 1079 1545 tgl 19 0 empty empty empty 17 7 0 10 #dfdfdf #000000 #000000 0 1;
#X msg 1282 391 4;
#X text 1245 1591 tempo fader right;
#X text 995 1450 sequencer on / off;
#X msg 1363 391 16;
#X obj 1389 296 change;
#X obj 1599 296 change;
#X obj 1525 253 ==;
#X obj 1525 296 change;
#X obj 1525 216 t b f;
#X obj 1430 253 tgl 25 0 empty empty empty 17 7 0 10 #191919 #ffffff #ffffff 0 1;
#X obj 1281 235 loadbang;
#X obj 1389 168 r toggle1left_press @hv_param;
#X obj 1599 168 r toggle1right_press @hv_param;
#X text 1535 136 seq step length toggle;
#X obj 1193 1334 tgl 25 0 empty empty empty 17 7 0 10 #191919 #ffffff #ffffff 0 1;
#X obj 1193 1309 change;
#X obj 1193 1278 r mpr121_driver_ch11 @hv_param;
#X obj 1193 1448 s recbang;
#X obj 2285 760 r seqstepon;
#X obj 2285 828 r seqstepoff;
#X msg 1322 391 6;
#X obj 995 1539 tgl 25 0 empty empty empty 17 7 0 10 #191919 #ffffff #ffffff 0 1;
#X obj 995 1514 change;
#X obj 995 1483 r mpr121_driver_ch10 @hv_param;
#X obj 1036 1545 sel 1;
#X obj 1451 1275 r~ Bfv;
#X obj 1645 1201 r~ Cfv;
#X obj 1645 1275 r~ Dfv;
#X obj 1185 805 hsl 128 17 0 1 0 0 empty empty empty -2 -8 0 10 #191919 #ffffff #ffffff 0 1;
#X msg 1134 828 \$1 20;
#X obj 1134 855 line~;
#X obj 1134 996 mtof~;
#X obj 1134 940 *~ 127;
#X obj 1134 781 r knob0 @hv_param;
#X obj 1134 1094 send~ Afreqval;
#X msg 1227 1398 1;
#X obj 1451 1201 r~ Afv;
#X obj 2150 792 send~ notemidi;
#X text 1513 1200 feedback;
#X obj 1634 1636 catch~ fm;
#X obj 1634 1561 throw~ fm;
#X obj 1182 828 r stepA;
#X obj 1415 828 r stepB;
#X obj 1680 825 r stepC;
#X obj 1883 825 r stepD;
#X obj 163 1236 r step;
#X obj 163 1273 sel 1;
#X obj 163 1305 bng 25 250 50 0 empty empty empty 17 7 0 10 #191919 #e1e1e1 #e1e1e1;
#X obj 163 1346 spigot;
#X obj 186 1305 tgl 25 0 empty empty empty 17 7 0 10 #191919 #e1e1e1 #e1e1e1 0 1;
#X obj 233 1273 sel 1;
#X obj 233 1305 bng 25 250 50 0 empty empty empty 17 7 0 10 #191919 #e1e1e1 #e1e1e1;
#X obj 233 1346 spigot;
#X obj 256 1305 tgl 25 0 empty empty empty 17 7 0 10 #191919 #e1e1e1 #e1e1e1 0 1;
#X obj 1158 715 random 1000;
#X obj 1158 745 * 0.001;
#X obj 1350 715 random 1000;
#X obj 1350 745 * 0.001;
#X obj 233 1236 r recbang;
#X obj 214 1037 r probably;
#X obj 164 1159 random;
#X obj 183 1204 sel 1;
#X obj 164 1010 r randostep;
#X obj 256 1159 random;
#X obj 256 1192 sel 1;
#X obj 256 1010 r randorec;
#X msg 216 1126 0;
#X msg 248 1126 2;
#X obj 214 1064 sel 0 1 2 3;
#X msg 280 1126 3;
#X msg 228 1098 0;
#X obj 254 1098 del 50;
#X obj 1859 996 r~ notemidi;
#X obj 361 1236 r step;
#X obj 361 1305 bng 25 250 50 0 empty empty empty 17 7 0 10 #191919 #e1e1e1 #e1e1e1;
#X obj 361 1346 spigot;
#X obj 392 1305 tgl 25 0 empty empty empty 17 7 0 10 #191919 #e1e1e1 #e1e1e1 0 1;
#X obj 431 1273 sel 1;
#X obj 431 1305 bng 25 250 50 0 empty empty empty 17 7 0 10 #191919 #e1e1e1 #e1e1e1;
#X obj 431 1346 spigot;
#X obj 454 1305 tgl 25 0 empty empty empty 17 7 0 10 #191919 #e1e1e1 #e1e1e1 0 1;
#X obj 431 1236 r recbang;
#X obj 412 1037 r probably;
#X obj 362 1159 random;
#X obj 381 1204 sel 1;
#X obj 362 1010 r randostep;
#X obj 454 1159 random;
#X obj 454 1192 sel 1;
#X obj 454 1010 r randorec;
#X msg 414 1126 0;
#X msg 446 1126 2;
#X obj 412 1064 sel 0 1 2 3;
#X msg 478 1126 3;
#X msg 426 1098 0;
#X obj 452 1098 del 50;
#X obj 557 1236 r step;
#X obj 557 1305 bng 25 250 50 0 empty empty empty 17 7 0 10 #191919 #e1e1e1 #e1e1e1;
#X obj 557 1346 spigot;
#X obj 580 1305 tgl 25 0 empty empty empty 17 7 0 10 #191919 #e1e1e1 #e1e1e1 0 1;
#X obj 627 1273 sel 1;
#X obj 627 1305 bng 25 250 50 0 empty empty empty 17 7 0 10 #191919 #e1e1e1 #e1e1e1;
#X obj 627 1346 spigot;
#X obj 650 1305 tgl 25 0 empty empty empty 17 7 0 10 #191919 #e1e1e1 #e1e1e1 0 1;
#X obj 627 1236 r recbang;
#X obj 608 1037 r probably;
#X obj 558 1159 random;
#X obj 577 1204 sel 1;
#X obj 558 1010 r randostep;
#X obj 650 1159 random;
#X obj 650 1192 sel 1;
#X obj 650 1010 r randorec;
#X msg 610 1126 0;
#X msg 642 1126 2;
#X obj 608 1064 sel 0 1 2 3;
#X msg 674 1126 3;
#X msg 622 1098 0;
#X obj 648 1098 del 50;
#X obj 754 1236 r step;
#X obj 754 1305 bng 25 250 50 0 empty empty empty 17 7 0 10 #191919 #e1e1e1 #e1e1e1;
#X obj 754 1346 spigot;
#X obj 777 1305 tgl 25 0 empty empty empty 17 7 0 10 #191919 #e1e1e1 #e1e1e1 0 1;
#X obj 824 1273 sel 1;
#X obj 824 1305 bng 25 250 50 0 empty empty empty 17 7 0 10 #191919 #e1e1e1 #e1e1e1;
#X obj 824 1346 spigot;
#X obj 847 1305 tgl 25 0 empty empty empty 17 7 0 10 #191919 #e1e1e1 #e1e1e1 0 1;
#X obj 824 1236 r recbang;
#X obj 805 1037 r probably;
#X obj 755 1159 random;
#X obj 774 1204 sel 1;
#X obj 755 1010 r randostep;
#X obj 847 1159 random;
#X obj 847 1192 sel 1;
#X obj 847 1010 r randorec;
#X msg 807 1126 0;
#X msg 839 1126 2;
#X obj 805 1064 sel 0 1 2 3;
#X msg 871 1126 3;
#X msg 819 1098 0;
#X obj 845 1098 del 50;
#X obj 361 1273 sel 2;
#X obj 557 1273 sel 3;
#X obj 754 1273 sel 4;
#X obj 102 811 bng 25 250 50 0 empty empty empty 17 7 0 10 #191919 #e1e1e1 #e1e1e1;
#X obj 102 851 s randostep;
#X obj 332 851 s randorec;
#X obj 332 811 bng 25 250 50 0 empty empty empty 17 7 0 10 #191919 #e1e1e1 #e1e1e1;
#X obj 2088 457 s probably;
#X msg 2123 397 1;
#X msg 2090 397 0;
#X msg 2160 397 2;
#X msg 2194 397 3;
#X obj 1839 297 change;
#X obj 2049 297 change;
#X obj 1975 254 ==;
#X obj 1975 297 change;
#X obj 1975 217 t b f;
#X obj 1839 169 r toggle2down_press @hv_param;
#X obj 2049 169 r toggle2up_press @hv_param;
#X obj 1880 254 tgl 25 0 empty empty empty 17 7 0 10 #191919 #ffffff #ffffff 0 1;
#X obj 1958 457 s noterange;
#X msg 1839 333 0, f 9;
#X msg 2049 333 14, f 9;
#X obj 1903 139 loadbang;
#X text 1985 138 touchpads notes range;
#X msg 1975 333 7, f 9;
#X obj 1631 585 r mpr121_driver_ch1 @hv_param;
#X obj 88 765 sel 0 1;
#X obj 88 728 tgl 25 0 empty empty empty 17 7 0 10 #191919 #ffffff #ffffff 0 1;
#X obj 88 703 change;
#X obj 318 765 sel 0 1;
#X obj 318 728 tgl 25 0 empty empty empty 17 7 0 10 #191919 #ffffff #ffffff 0 1;
#X obj 318 703 change;
#X obj 318 672 r mpr121_driver_ch2 @hv_param;
#X obj 88 672 r mpr121_driver_ch0 @hv_param;
#X obj 871 841 sig~;
#X obj 871 871 send~ Dfv;
#X obj 210 1480 r~ Afreqval;
#X obj 163 1378 bng 25 250 50 0 empty empty empty 17 7 0 10 #191919 #e1e1e1 #e1e1e1;
#X obj 233 1378 bng 25 250 50 0 empty empty empty 17 7 0 10 #191919 #e1e1e1 #e1e1e1;
#X obj 186 1413 s seqstepon;
#X obj 186 1443 s seqstepoff;
#X obj 210 1510 snapshot~;
#X obj 175 1539 f;
#X obj 210 1657 snapshot~;
#X obj 175 1687 f;
#X obj 210 1628 r~ Bfreqval;
#X obj 210 1810 snapshot~;
#X obj 175 1840 f;
#X obj 210 1781 r~ Cfreqval;
#X obj 210 1954 snapshot~;
#X obj 175 1984 f;
#X obj 210 1925 r~ Dfreqval;
#X obj 175 2014 spigot;
#X obj 175 1869 spigot;
#X obj 175 1716 spigot;
#X obj 175 1568 spigot;
#X obj 229 1539 del 50;
#X msg 229 1568 0;
#X msg 256 1568 1;
#X msg 237 1714 0;
#X msg 262 1714 1;
#X msg 237 1867 0;
#X msg 262 1867 1;
#X msg 237 2014 0;
#X msg 262 2014 1;
#X obj 175 1598 s Afreqstep1;
#X obj 175 1746 s Bfreqstep1;
#X obj 175 1899 s Cfreqstep1;
#X obj 175 2044 s Dfreqstep1;
#X obj 871 715 r Dfreqstep1;
#X obj 871 746 r Dfreqstep2;
#X obj 871 778 r Dfreqstep3;
#X obj 871 807 r Dfreqstep4;
#X obj 773 841 sig~;
#X obj 773 715 r Cfreqstep1;
#X obj 773 746 r Cfreqstep2;
#X obj 773 778 r Cfreqstep3;
#X obj 773 807 r Cfreqstep4;
#X obj 679 841 sig~;
#X obj 581 841 sig~;
#X obj 773 871 send~ Cfv;
#X obj 581 871 send~ Afv;
#X obj 679 871 send~ Bfv;
#X obj 581 715 r Afreqstep1;
#X obj 581 746 r Afreqstep2;
#X obj 581 778 r Afreqstep3;
#X obj 581 807 r Afreqstep4;
#X obj 679 715 r Bfreqstep1;
#X obj 679 746 r Bfreqstep2;
#X obj 679 778 r Bfreqstep3;
#X obj 679 807 r Bfreqstep4;
#X obj 235 1687 del 50;
#X obj 235 1840 del 50;
#X obj 235 1984 del 50;
#X obj 412 1480 r~ Afreqval;
#X obj 361 1378 bng 25 250 50 0 empty empty empty 17 7 0 10 #191919 #e1e1e1 #e1e1e1;
#X obj 431 1378 bng 25 250 50 0 empty empty empty 17 7 0 10 #191919 #e1e1e1 #e1e1e1;
#X obj 384 1413 s seqstepon;
#X obj 384 1443 s seqstepoff;
#X obj 412 1510 snapshot~;
#X obj 377 1539 f;
#X obj 412 1657 snapshot~;
#X obj 377 1687 f;
#X obj 412 1628 r~ Bfreqval;
#X obj 412 1810 snapshot~;
#X obj 377 1840 f;
#X obj 412 1781 r~ Cfreqval;
#X obj 412 1954 snapshot~;
#X obj 377 1984 f;
#X obj 412 1925 r~ Dfreqval;
#X obj 377 2014 spigot;
#X obj 377 1869 spigot;
#X obj 377 1716 spigot;
#X obj 377 1568 spigot;
#X obj 431 1539 del 50;
#X msg 431 1568 0;
#X msg 458 1568 1;
#X msg 439 1714 0;
#X msg 464 1714 1;
#X msg 439 1867 0;
#X msg 464 1867 1;
#X msg 439 2014 0;
#X msg 464 2014 1;
#X obj 437 1687 del 50;
#X obj 437 1840 del 50;
#X obj 437 1984 del 50;
#X obj 610 1480 r~ Afreqval;
#X obj 559 1378 bng 25 250 50 0 empty empty empty 17 7 0 10 #191919 #e1e1e1 #e1e1e1;
#X obj 629 1378 bng 25 250 50 0 empty empty empty 17 7 0 10 #191919 #e1e1e1 #e1e1e1;
#X obj 582 1413 s seqstepon;
#X obj 582 1443 s seqstepoff;
#X obj 610 1510 snapshot~;
#X obj 575 1539 f;
#X obj 610 1657 snapshot~;
#X obj 575 1687 f;
#X obj 610 1628 r~ Bfreqval;
#X obj 610 1810 snapshot~;
#X obj 575 1840 f;
#X obj 610 1781 r~ Cfreqval;
#X obj 610 1954 snapshot~;
#X obj 575 1984 f;
#X obj 610 1925 r~ Dfreqval;
#X obj 575 2014 spigot;
#X obj 575 1869 spigot;
#X obj 575 1716 spigot;
#X obj 575 1568 spigot;
#X obj 629 1539 del 50;
#X msg 629 1568 0;
#X msg 656 1568 1;
#X msg 637 1714 0;
#X msg 662 1714 1;
#X msg 637 1867 0;
#X msg 662 1867 1;
#X msg 637 2014 0;
#X msg 662 2014 1;
#X obj 635 1687 del 50;
#X obj 635 1840 del 50;
#X obj 635 1984 del 50;
#X obj 808 1480 r~ Afreqval;
#X obj 757 1378 bng 25 250 50 0 empty empty empty 17 7 0 10 #191919 #e1e1e1 #e1e1e1;
#X obj 827 1378 bng 25 250 50 0 empty empty empty 17 7 0 10 #191919 #e1e1e1 #e1e1e1;
#X obj 780 1413 s seqstepon;
#X obj 780 1443 s seqstepoff;
#X obj 808 1510 snapshot~;
#X obj 773 1539 f;
#X obj 808 1657 snapshot~;
#X obj 773 1687 f;
#X obj 808 1628 r~ Bfreqval;
#X obj 808 1810 snapshot~;
#X obj 773 1840 f;
#X obj 808 1781 r~ Cfreqval;
#X obj 808 1954 snapshot~;
#X obj 773 1984 f;
#X obj 808 1925 r~ Dfreqval;
#X obj 773 2014 spigot;
#X obj 773 1869 spigot;
#X obj 773 1716 spigot;
#X obj 773 1568 spigot;
#X obj 827 1539 del 50;
#X msg 827 1568 0;
#X msg 854 1568 1;
#X msg 835 1714 0;
#X msg 860 1714 1;
#X msg 835 1867 0;
#X msg 860 1867 1;
#X msg 835 2014 0;
#X msg 860 2014 1;
#X obj 773 2044 s Dfreqstep1;
#X obj 833 1687 del 50;
#X obj 833 1840 del 50;
#X obj 833 1984 del 50;
#X obj 377 1598 s Afreqstep2;
#X obj 377 1746 s Bfreqstep2;
#X obj 377 1899 s Cfreqstep2;
#X obj 377 2044 s Dfreqstep2;
#X obj 575 2044 s Dfreqstep3;
#X obj 575 1899 s Cfreqstep3;
#X obj 575 1746 s Bfreqstep3;
#X obj 575 1598 s Afreqstep3;
#X obj 773 1598 s Afreqstep4;
#X obj 773 1746 s Bfreqstep4;
#X obj 773 1899 s Cfreqstep4;
#X obj 2479 1275 s decayrec;
#X obj 2479 1250 line;
#X obj 1111 1545 s sequencer_is_on;
#X msg 1168 1954 0;
#X msg 1115 1954 1;
#X obj 1086 1991 s daisyled @hv_param;
#X obj 1115 1891 sel 0 1;
#X obj 1168 1928 del 50;
#X obj 1245 1790 metro;
#X obj 1268 1640 hsl 128 17 0 1 0 0 empty empty empty -2 -8 0 10 #191919 #ffffff #ffffff 0 1;
#X msg 1245 1666 \$1 20;
#X obj 1245 1698 line;
#X obj 1245 1619 r faderright @hv_param;
#X floatatom 1245 1891 5 0 0 0 - - - 0;
#X obj 1245 1998 s step;
#X obj 1245 1824 bng 25 250 50 0 empty empty empty 17 7 0 10 #191919 #e1e1e1 #e1e1e1;
#X obj 1245 1856 int 1;
#X obj 1302 1856 + 1;
#X obj 1245 1916 % 4;
#X obj 1245 1942 + 1;
#X floatatom 1245 1971 5 0 0 0 - - - 0;
#X obj 1296 446 f;
#X obj 1302 1891 r seqlength;
#X obj 1296 477 s seqlength;
#X obj 1245 1735 * 1000;
#X obj 1224 1373 metro 10;
#X connect 0 0 1 0;
#X connect 1 0 8 0;
#X connect 2 0 4 0;
#X connect 3 0 4 0;
#X connect 4 0 5 0;
#X connect 5 0 7 0;
#X connect 6 0 160 0;
#X connect 7 0 6 0;
#X connect 8 0 9 0;
#X connect 9 0 14 0;
#X connect 10 0 136 0;
#X connect 11 0 12 0;
#X connect 12 0 135 0;
#X connect 13 0 161 0;
#X connect 14 0 16 0;
#X connect 15 0 13 0;
#X connect 16 0 17 0;
#X connect 17 0 18 0;
#X connect 17 0 19 0;
#X connect 19 0 53 0;
#X connect 21 0 22 0;
#X connect 22 0 23 0;
#X connect 23 0 24 1;
#X connect 24 0 132 0;
#X connect 25 0 53 1;
#X connect 26 0 48 0;
#X connect 27 0 26 0;
#X connect 27 1 29 0;
#X connect 28 0 25 0;
#X connect 28 0 25 1;
#X connect 29 0 30 0;
#X connect 30 0 31 0;
#X connect 31 0 28 0;
#X connect 32 0 51 0;
#X connect 33 0 32 0;
#X connect 34 0 37 0;
#X connect 35 0 34 0;
#X connect 36 0 35 0;
#X connect 36 0 38 0;
#X connect 37 0 30 1;
#X connect 38 0 30 1;
#X connect 39 0 40 0;
#X connect 40 0 28 0;
#X connect 41 0 52 0;
#X connect 42 0 41 0;
#X connect 42 0 507 0;
#X connect 43 0 46 0;
#X connect 44 0 43 0;
#X connect 45 0 44 0;
#X connect 45 0 47 0;
#X connect 46 0 58 1;
#X connect 46 0 39 1;
#X connect 47 0 39 1;
#X connect 48 0 39 0;
#X connect 51 0 34 0;
#X connect 52 0 43 0;
#X connect 53 0 204 0;
#X connect 54 0 33 0;
#X connect 55 0 42 0;
#X connect 56 0 58 0;
#X connect 57 0 27 0;
#X connect 58 0 57 0;
#X connect 59 0 61 0;
#X connect 60 0 135 1;
#X connect 61 0 60 0;
#X connect 62 0 22 0;
#X connect 63 0 136 0;
#X connect 64 0 33 0;
#X connect 65 0 42 0;
#X connect 66 0 67 0;
#X connect 66 1 93 0;
#X connect 67 0 73 0;
#X connect 68 0 66 0;
#X connect 69 0 68 0;
#X connect 70 0 71 0;
#X connect 70 1 27 0;
#X connect 71 0 131 0;
#X connect 74 0 130 0;
#X connect 74 0 126 0;
#X connect 74 0 127 0;
#X connect 75 0 56 0;
#X connect 76 0 77 0;
#X connect 76 1 92 0;
#X connect 77 0 81 0;
#X connect 78 0 76 0;
#X connect 79 0 78 0;
#X connect 82 0 86 0;
#X connect 83 0 84 0;
#X connect 83 1 88 0;
#X connect 84 0 89 0;
#X connect 85 0 83 0;
#X connect 86 0 85 0;
#X connect 88 0 87 0;
#X connect 90 0 79 0;
#X connect 91 0 69 0;
#X connect 92 0 80 0;
#X connect 93 0 72 0;
#X connect 94 0 95 0;
#X connect 94 1 109 0;
#X connect 95 0 99 0;
#X connect 96 0 94 0;
#X connect 97 0 96 0;
#X connect 100 0 101 0;
#X connect 100 1 108 0;
#X connect 101 0 105 0;
#X connect 102 0 100 0;
#X connect 103 0 102 0;
#X connect 106 0 103 0;
#X connect 107 0 97 0;
#X connect 108 0 104 0;
#X connect 109 0 98 0;
#X connect 110 0 111 0;
#X connect 110 1 124 0;
#X connect 111 0 115 0;
#X connect 112 0 110 0;
#X connect 113 0 112 0;
#X connect 116 0 117 0;
#X connect 116 1 123 0;
#X connect 117 0 121 0;
#X connect 118 0 116 0;
#X connect 119 0 118 0;
#X connect 122 0 119 0;
#X connect 123 0 120 0;
#X connect 124 0 114 0;
#X connect 125 0 113 0;
#X connect 126 0 27 0;
#X connect 127 0 71 0;
#X connect 128 0 127 1;
#X connect 129 0 128 1;
#X connect 129 0 128 0;
#X connect 130 0 128 0;
#X connect 130 0 127 0;
#X connect 131 0 201 0;
#X connect 132 0 20 0;
#X connect 132 0 20 1;
#X connect 133 0 134 0;
#X connect 134 0 61 0;
#X connect 135 0 15 0;
#X connect 136 0 133 0;
#X connect 136 1 11 0;
#X connect 137 0 147 0;
#X connect 138 0 139 0;
#X connect 139 0 146 0;
#X connect 140 0 162 0;
#X connect 141 0 143 0;
#X connect 142 0 146 1;
#X connect 143 0 142 0;
#X connect 144 0 145 0;
#X connect 145 0 143 0;
#X connect 145 0 151 0;
#X connect 146 0 150 0;
#X connect 147 0 144 0;
#X connect 147 1 138 0;
#X connect 148 0 140 0;
#X connect 149 0 147 0;
#X connect 150 0 148 0;
#X connect 151 0 146 0;
#X connect 152 0 59 0;
#X connect 152 0 220 0;
#X connect 152 0 218 0;
#X connect 152 0 141 0;
#X connect 153 1 152 0;
#X connect 154 0 153 0;
#X connect 155 0 154 0;
#X connect 163 0 508 0;
#X connect 163 0 514 0;
#X connect 163 0 512 0;
#X connect 164 0 527 0;
#X connect 167 0 527 0;
#X connect 168 0 164 0;
#X connect 169 0 167 0;
#X connect 170 0 171 0;
#X connect 171 0 184 0;
#X connect 172 0 170 0;
#X connect 172 1 170 1;
#X connect 173 0 168 0;
#X connect 174 0 164 0;
#X connect 175 0 170 0;
#X connect 175 0 168 0;
#X connect 176 0 172 0;
#X connect 176 0 169 0;
#X connect 178 0 181 0;
#X connect 179 0 178 0;
#X connect 180 0 179 0;
#X connect 182 0 126 0;
#X connect 183 0 56 0;
#X connect 184 0 527 0;
#X connect 185 0 188 0;
#X connect 186 0 185 0;
#X connect 187 0 186 0;
#X connect 188 0 163 0;
#X connect 189 0 8 1;
#X connect 190 0 14 1;
#X connect 191 0 16 1;
#X connect 192 0 193 0;
#X connect 193 0 194 0;
#X connect 194 0 196 0;
#X connect 195 0 198 0;
#X connect 196 0 195 0;
#X connect 197 0 193 0;
#X connect 200 0 1 1;
#X connect 203 0 24 0;
#X connect 205 0 193 0;
#X connect 206 0 4 0;
#X connect 207 0 136 0;
#X connect 208 0 147 0;
#X connect 209 0 210 0;
#X connect 210 0 211 0;
#X connect 211 0 212 0;
#X connect 212 0 341 0;
#X connect 213 0 212 1;
#X connect 214 0 215 0;
#X connect 215 0 216 0;
#X connect 216 0 342 0;
#X connect 217 0 216 1;
#X connect 218 0 219 0;
#X connect 219 0 193 0;
#X connect 220 0 221 0;
#X connect 221 0 4 0;
#X connect 222 0 214 0;
#X connect 223 0 232 0;
#X connect 224 0 225 0;
#X connect 225 0 213 0;
#X connect 226 0 224 0;
#X connect 227 0 228 0;
#X connect 228 0 217 0;
#X connect 229 0 227 0;
#X connect 230 0 217 0;
#X connect 230 0 213 0;
#X connect 231 0 227 1;
#X connect 231 0 224 1;
#X connect 232 0 230 0;
#X connect 232 1 234 0;
#X connect 232 1 235 0;
#X connect 232 2 231 0;
#X connect 232 3 233 0;
#X connect 233 0 227 1;
#X connect 233 0 224 1;
#X connect 234 0 213 0;
#X connect 234 0 217 0;
#X connect 235 0 213 0;
#X connect 235 0 217 0;
#X connect 236 0 150 1;
#X connect 237 0 303 0;
#X connect 238 0 239 0;
#X connect 239 0 399 0;
#X connect 240 0 239 1;
#X connect 241 0 242 0;
#X connect 242 0 243 0;
#X connect 243 0 400 0;
#X connect 244 0 243 1;
#X connect 245 0 241 0;
#X connect 246 0 255 0;
#X connect 247 0 248 0;
#X connect 248 0 240 0;
#X connect 249 0 247 0;
#X connect 250 0 251 0;
#X connect 251 0 244 0;
#X connect 252 0 250 0;
#X connect 253 0 244 0;
#X connect 253 0 240 0;
#X connect 254 0 250 1;
#X connect 254 0 247 1;
#X connect 255 0 253 0;
#X connect 255 1 257 0;
#X connect 255 1 258 0;
#X connect 255 2 254 0;
#X connect 255 3 256 0;
#X connect 256 0 250 1;
#X connect 256 0 247 1;
#X connect 257 0 244 0;
#X connect 257 0 240 0;
#X connect 258 0 244 0;
#X connect 258 0 240 0;
#X connect 259 0 304 0;
#X connect 260 0 261 0;
#X connect 261 0 431 0;
#X connect 262 0 261 1;
#X connect 263 0 264 0;
#X connect 264 0 265 0;
#X connect 265 0 432 0;
#X connect 266 0 265 1;
#X connect 267 0 263 0;
#X connect 268 0 277 0;
#X connect 269 0 270 0;
#X connect 270 0 262 0;
#X connect 271 0 269 0;
#X connect 272 0 273 0;
#X connect 273 0 266 0;
#X connect 274 0 272 0;
#X connect 275 0 266 0;
#X connect 275 0 262 0;
#X connect 276 0 272 1;
#X connect 276 0 269 1;
#X connect 277 0 275 0;
#X connect 277 1 279 0;
#X connect 277 1 280 0;
#X connect 277 2 276 0;
#X connect 277 3 278 0;
#X connect 278 0 272 1;
#X connect 278 0 269 1;
#X connect 279 0 262 0;
#X connect 279 0 266 0;
#X connect 280 0 262 0;
#X connect 280 0 266 0;
#X connect 281 0 305 0;
#X connect 282 0 283 0;
#X connect 283 0 463 0;
#X connect 284 0 283 1;
#X connect 285 0 286 0;
#X connect 286 0 287 0;
#X connect 287 0 464 0;
#X connect 288 0 287 1;
#X connect 289 0 285 0;
#X connect 290 0 299 0;
#X connect 291 0 292 0;
#X connect 292 0 284 0;
#X connect 293 0 291 0;
#X connect 294 0 295 0;
#X connect 295 0 288 0;
#X connect 296 0 294 0;
#X connect 297 0 288 0;
#X connect 297 0 284 0;
#X connect 298 0 294 1;
#X connect 298 0 291 1;
#X connect 299 0 297 0;
#X connect 299 1 301 0;
#X connect 299 1 302 0;
#X connect 299 2 298 0;
#X connect 299 3 300 0;
#X connect 300 0 294 1;
#X connect 300 0 291 1;
#X connect 301 0 284 0;
#X connect 301 0 288 0;
#X connect 302 0 284 0;
#X connect 302 0 288 0;
#X connect 303 0 238 0;
#X connect 304 0 260 0;
#X connect 305 0 282 0;
#X connect 306 0 307 0;
#X connect 309 0 308 0;
#X connect 311 0 310 0;
#X connect 312 0 310 0;
#X connect 313 0 310 0;
#X connect 314 0 310 0;
#X connect 315 0 324 0;
#X connect 315 0 312 0;
#X connect 316 0 325 0;
#X connect 316 0 313 0;
#X connect 317 0 318 0;
#X connect 318 0 328 0;
#X connect 318 0 311 0;
#X connect 319 0 317 0;
#X connect 319 1 317 1;
#X connect 320 0 317 0;
#X connect 320 0 315 0;
#X connect 321 0 319 0;
#X connect 321 0 316 0;
#X connect 322 0 315 0;
#X connect 324 0 323 0;
#X connect 325 0 323 0;
#X connect 326 0 324 0;
#X connect 328 0 323 0;
#X connect 329 0 155 0;
#X connect 330 1 306 0;
#X connect 331 0 330 0;
#X connect 332 0 331 0;
#X connect 333 1 309 0;
#X connect 334 0 333 0;
#X connect 335 0 334 0;
#X connect 336 0 335 0;
#X connect 337 0 332 0;
#X connect 338 0 339 0;
#X connect 340 0 345 0;
#X connect 341 0 344 0;
#X connect 341 0 343 0;
#X connect 341 0 351 0;
#X connect 341 0 362 0;
#X connect 341 0 364 0;
#X connect 341 0 348 0;
#X connect 341 0 366 0;
#X connect 341 0 354 0;
#X connect 341 0 360 0;
#X connect 341 0 395 0;
#X connect 341 0 396 0;
#X connect 341 0 397 0;
#X connect 341 0 368 0;
#X connect 341 0 346 0;
#X connect 342 0 345 0;
#X connect 342 0 347 0;
#X connect 342 0 353 0;
#X connect 342 0 350 0;
#X connect 345 0 346 0;
#X connect 345 0 346 1;
#X connect 346 0 359 0;
#X connect 347 0 348 0;
#X connect 347 0 348 1;
#X connect 348 0 358 0;
#X connect 349 0 347 0;
#X connect 350 0 351 1;
#X connect 350 0 351 0;
#X connect 351 0 357 0;
#X connect 352 0 350 0;
#X connect 353 0 354 0;
#X connect 353 0 354 1;
#X connect 354 0 356 0;
#X connect 355 0 353 0;
#X connect 356 0 372 0;
#X connect 357 0 371 0;
#X connect 358 0 370 0;
#X connect 359 0 369 0;
#X connect 360 0 361 0;
#X connect 361 0 359 1;
#X connect 362 0 359 1;
#X connect 363 0 358 1;
#X connect 364 0 358 1;
#X connect 365 0 357 1;
#X connect 366 0 357 1;
#X connect 367 0 356 1;
#X connect 368 0 356 1;
#X connect 373 0 338 0;
#X connect 374 0 338 0;
#X connect 375 0 338 0;
#X connect 376 0 338 0;
#X connect 377 0 384 0;
#X connect 378 0 377 0;
#X connect 379 0 377 0;
#X connect 380 0 377 0;
#X connect 381 0 377 0;
#X connect 382 0 386 0;
#X connect 383 0 385 0;
#X connect 387 0 383 0;
#X connect 388 0 383 0;
#X connect 389 0 383 0;
#X connect 390 0 383 0;
#X connect 391 0 382 0;
#X connect 392 0 382 0;
#X connect 393 0 382 0;
#X connect 394 0 382 0;
#X connect 395 0 363 0;
#X connect 396 0 365 0;
#X connect 397 0 367 0;
#X connect 398 0 403 0;
#X connect 399 0 402 0;
#X connect 399 0 401 0;
#X connect 399 0 409 0;
#X connect 399 0 420 0;
#X connect 399 0 422 0;
#X connect 399 0 406 0;
#X connect 399 0 424 0;
#X connect 399 0 412 0;
#X connect 399 0 418 0;
#X connect 399 0 427 0;
#X connect 399 0 428 0;
#X connect 399 0 429 0;
#X connect 399 0 426 0;
#X connect 399 0 404 0;
#X connect 400 0 403 0;
#X connect 400 0 405 0;
#X connect 400 0 411 0;
#X connect 400 0 408 0;
#X connect 403 0 404 0;
#X connect 403 0 404 1;
#X connect 404 0 417 0;
#X connect 405 0 406 0;
#X connect 405 0 406 1;
#X connect 406 0 416 0;
#X connect 407 0 405 0;
#X connect 408 0 409 1;
#X connect 408 0 409 0;
#X connect 409 0 415 0;
#X connect 410 0 408 0;
#X connect 411 0 412 0;
#X connect 411 0 412 1;
#X connect 412 0 414 0;
#X connect 413 0 411 0;
#X connect 414 0 498 0;
#X connect 415 0 497 0;
#X connect 416 0 496 0;
#X connect 417 0 495 0;
#X connect 418 0 419 0;
#X connect 419 0 417 1;
#X connect 420 0 417 1;
#X connect 421 0 416 1;
#X connect 422 0 416 1;
#X connect 423 0 415 1;
#X connect 424 0 415 1;
#X connect 425 0 414 1;
#X connect 426 0 414 1;
#X connect 427 0 421 0;
#X connect 428 0 423 0;
#X connect 429 0 425 0;
#X connect 430 0 435 0;
#X connect 431 0 436 0;
#X connect 431 0 434 0;
#X connect 431 0 433 0;
#X connect 431 0 441 0;
#X connect 431 0 452 0;
#X connect 431 0 454 0;
#X connect 431 0 438 0;
#X connect 431 0 456 0;
#X connect 431 0 444 0;
#X connect 431 0 450 0;
#X connect 431 0 459 0;
#X connect 431 0 460 0;
#X connect 431 0 461 0;
#X connect 431 0 458 0;
#X connect 432 0 435 0;
#X connect 432 0 437 0;
#X connect 432 0 443 0;
#X connect 432 0 440 0;
#X connect 435 0 436 0;
#X connect 435 0 436 1;
#X connect 436 0 449 0;
#X connect 437 0 438 0;
#X connect 437 0 438 1;
#X connect 438 0 448 0;
#X connect 439 0 437 0;
#X connect 440 0 441 1;
#X connect 440 0 441 0;
#X connect 441 0 447 0;
#X connect 442 0 440 0;
#X connect 443 0 444 0;
#X connect 443 0 444 1;
#X connect 444 0 446 0;
#X connect 445 0 443 0;
#X connect 446 0 499 0;
#X connect 447 0 500 0;
#X connect 448 0 501 0;
#X connect 449 0 502 0;
#X connect 450 0 451 0;
#X connect 451 0 449 1;
#X connect 452 0 449 1;
#X connect 453 0 448 1;
#X connect 454 0 448 1;
#X connect 455 0 447 1;
#X connect 456 0 447 1;
#X connect 457 0 446 1;
#X connect 458 0 446 1;
#X connect 459 0 453 0;
#X connect 460 0 455 0;
#X connect 461 0 457 0;
#X connect 462 0 467 0;
#X connect 463 0 468 0;
#X connect 463 0 466 0;
#X connect 463 0 465 0;
#X connect 463 0 473 0;
#X connect 463 0 484 0;
#X connect 463 0 486 0;
#X connect 463 0 470 0;
#X connect 463 0 488 0;
#X connect 463 0 476 0;
#X connect 463 0 482 0;
#X connect 463 0 492 0;
#X connect 463 0 493 0;
#X connect 463 0 494 0;
#X connect 463 0 490 0;
#X connect 464 0 467 0;
#X connect 464 0 469 0;
#X connect 464 0 475 0;
#X connect 464 0 472 0;
#X connect 467 0 468 0;
#X connect 467 0 468 1;
#X connect 468 0 481 0;
#X connect 469 0 470 0;
#X connect 469 0 470 1;
#X connect 470 0 480 0;
#X connect 471 0 469 0;
#X connect 472 0 473 1;
#X connect 472 0 473 0;
#X connect 473 0 479 0;
#X connect 474 0 472 0;
#X connect 475 0 476 0;
#X connect 475 0 476 1;
#X connect 476 0 478 0;
#X connect 477 0 475 0;
#X connect 478 0 491 0;
#X connect 479 0 505 0;
#X connect 480 0 504 0;
#X connect 481 0 503 0;
#X connect 482 0 483 0;
#X connect 483 0 481 1;
#X connect 484 0 481 1;
#X connect 485 0 480 1;
#X connect 486 0 480 1;
#X connect 487 0 479 1;
#X connect 488 0 479 1;
#X connect 489 0 478 1;
#X connect 490 0 478 1;
#X connect 492 0 485 0;
#X connect 493 0 487 0;
#X connect 494 0 489 0;
#X connect 507 0 506 0;
#X connect 509 0 511 0;
#X connect 510 0 511 0;
#X connect 512 0 513 0;
#X connect 512 1 510 0;
#X connect 513 0 509 0;
#X connect 514 0 521 0;
#X connect 515 0 516 0;
#X connect 516 0 517 0;
#X connect 517 0 530 0;
#X connect 518 0 516 0;
#X connect 519 0 524 0;
#X connect 521 0 522 0;
#X connect 521 0 513 0;
#X connect 521 0 510 0;
#X connect 522 0 523 0;
#X connect 522 0 519 0;
#X connect 523 0 522 1;
#X connect 524 0 525 0;
#X connect 525 0 526 0;
#X connect 526 0 520 0;
#X connect 527 0 529 0;
#X connect 528 0 524 1;
#X connect 530 0 514 1;
#X connect 531 0 199 0;
