#N canvas 827 239 734 565 12;
#X obj 365 518 dac~;
#X obj 330 419 osc~ 220;
#X obj 406 419 osc~ 110;
#X obj 515 334 sig~;
#X obj 406 449 *~;
#X obj 515 226 hv.lfo square;
#X obj 422 126 loadbang;
#X msg 389 178 2;
#X msg 422 178 0;
#X obj 515 295 line;
#X obj 231 334 sig~;
#X obj 231 226 hv.lfo square;
#X obj 231 295 line;
#X obj 330 449 *~;
#X obj 375 126 bng 25 250 50 0 empty empty empty 17 7 0 10 #191919 #e1e1e1 #e1e1e1;
#X msg 455 178 0.5;
#X msg 351 178 3;
#X msg 231 252 \$1 500;
#X msg 515 252 \$1 500;
#X connect 1 0 13 0;
#X connect 2 0 4 0;
#X connect 3 0 4 1;
#X connect 4 0 0 1;
#X connect 5 0 18 0;
#X connect 6 0 7 0;
#X connect 6 0 8 0;
#X connect 6 0 16 0;
#X connect 6 0 15 0;
#X connect 7 0 5 0;
#X connect 8 0 5 1;
#X connect 9 0 3 0;
#X connect 10 0 13 1;
#X connect 11 0 17 0;
#X connect 12 0 10 0;
#X connect 13 0 0 0;
#X connect 14 0 7 0;
#X connect 14 0 8 0;
#X connect 14 0 16 0;
#X connect 14 0 15 0;
#X connect 15 0 11 1;
#X connect 16 0 11 0;
#X connect 17 0 12 0;
#X connect 18 0 9 0;
