#N canvas 827 239 734 565 12;
#X obj 231 295 dac~;
#X obj 160 176 osc~ 220;
#X obj 171 64 r knob0 @hv_param;
#X obj 160 231 *~;
#X obj 315 231 *~;
#X obj 315 176 osc~ 110;
#X obj 326 125 line~;
#X msg 326 96 \$1 20;
#X obj 171 125 line~;
#X msg 171 96 \$1 20;
#X obj 326 64 r knob1 @hv_param;
#X connect 1 0 3 0;
#X connect 2 0 9 0;
#X connect 3 0 0 0;
#X connect 4 0 0 1;
#X connect 5 0 4 0;
#X connect 6 0 4 1;
#X connect 7 0 6 0;
#X connect 8 0 3 1;
#X connect 9 0 8 0;
#X connect 10 0 7 0;
