#N canvas 827 239 734 565 12;
#X obj 267 337 *~;
#X obj 278 197 line~;
#X msg 278 168 \$1 20;
#X obj 546 657 change;
#X obj 537 861 *~;
#X obj 546 718 line~;
#X obj 546 627 r mpr121_driver_ch0 @hv_param;
#X obj 627 718 mtof;
#X obj 627 657 loadbang;
#X obj 537 828 osc~;
#X obj 267 262 r~ mix;
#X obj 537 897 s~ mix;
#X msg 546 687 \$1 50;
#X obj 627 752 sig~;
#X text 546 598 C minor: 11 notes: 60 \, 62 \, 64 \, 65 \, 67 \, 69 \, 71 \, 72 \, 74 \, 76 \, 77;
#X msg 627 687 60;
#X obj 781 657 change;
#X obj 772 861 *~;
#X obj 781 718 line~;
#X obj 862 718 mtof;
#X obj 862 657 loadbang;
#X obj 772 828 osc~;
#X obj 772 897 s~ mix;
#X msg 781 687 \$1 50;
#X obj 862 752 sig~;
#X msg 862 687 62;
#X obj 781 627 r mpr121_driver_ch1 @hv_param;
#X obj 992 657 change;
#X obj 983 861 *~;
#X obj 992 718 line~;
#X obj 1073 718 mtof;
#X obj 1073 657 loadbang;
#X obj 983 828 osc~;
#X obj 983 897 s~ mix;
#X msg 992 687 \$1 50;
#X obj 1073 752 sig~;
#X obj 992 627 r mpr121_driver_ch2 @hv_param;
#X msg 1073 687 64;
#X obj 1215 657 change;
#X obj 1206 861 *~;
#X obj 1215 718 line~;
#X obj 1296 718 mtof;
#X obj 1296 657 loadbang;
#X obj 1206 828 osc~;
#X obj 1206 897 s~ mix;
#X msg 1215 687 \$1 50;
#X obj 1296 752 sig~;
#X obj 1215 627 r mpr121_driver_ch3 @hv_param;
#X msg 1296 687 65;
#X obj 1430 657 change;
#X obj 1421 861 *~;
#X obj 1430 718 line~;
#X obj 1511 718 mtof;
#X obj 1511 657 loadbang;
#X obj 1421 828 osc~;
#X obj 1421 897 s~ mix;
#X msg 1430 687 \$1 50;
#X obj 1511 752 sig~;
#X msg 1511 687 67;
#X obj 1430 627 r mpr121_driver_ch4 @hv_param;
#X obj 1651 657 change;
#X obj 1642 861 *~;
#X obj 1651 718 line~;
#X obj 1732 718 mtof;
#X obj 1732 657 loadbang;
#X obj 1642 828 osc~;
#X obj 1642 897 s~ mix;
#X msg 1651 687 \$1 50;
#X obj 1732 752 sig~;
#X obj 1651 627 r mpr121_driver_ch5 @hv_param;
#X msg 1732 687 69;
#X obj 545 989 change;
#X obj 533 1215 *~;
#X obj 545 1050 line~;
#X obj 626 1050 mtof;
#X obj 626 989 loadbang;
#X obj 533 1182 osc~;
#X obj 533 1251 s~ mix;
#X msg 545 1019 \$1 50;
#X obj 626 1084 sig~;
#X obj 545 959 r mpr121_driver_ch6 @hv_param;
#X msg 626 1019 71;
#X obj 780 989 change;
#X obj 772 1215 *~;
#X obj 780 1050 line~;
#X obj 861 1050 mtof;
#X obj 861 989 loadbang;
#X obj 772 1182 osc~;
#X obj 772 1251 s~ mix;
#X msg 780 1019 \$1 50;
#X obj 861 1084 sig~;
#X obj 780 959 r mpr121_driver_ch7 @hv_param;
#X obj 72 165 r ledswitch;
#X obj 72 197 sel 1 0;
#X msg 104 241 0;
#X msg 75 241 1;
#X obj 72 319 s daisyled @hv_param;
#X obj 606 897 s ledswitch;
#X obj 841 897 s ledswitch;
#X obj 1049 897 s ledswitch;
#X obj 1275 897 s ledswitch;
#X obj 1501 897 s ledswitch;
#X obj 1727 897 s ledswitch;
#X obj 625 1251 s ledswitch;
#X obj 841 1251 s ledswitch;
#X msg 861 1019 72;
#X obj 1015 989 change;
#X obj 1006 1215 *~;
#X obj 1015 1050 line~;
#X obj 1096 1050 mtof;
#X obj 1096 989 loadbang;
#X obj 1006 1182 osc~;
#X obj 1006 1251 s~ mix;
#X msg 1015 1019 \$1 50;
#X obj 1096 1084 sig~;
#X obj 1075 1251 s ledswitch;
#X obj 1015 959 r mpr121_driver_ch8 @hv_param;
#X msg 1096 1019 74;
#X obj 1231 989 change;
#X obj 1220 1215 *~;
#X obj 1231 1050 line~;
#X obj 1312 1050 mtof;
#X obj 1312 989 loadbang;
#X obj 1220 1182 osc~;
#X obj 1220 1251 s~ mix;
#X msg 1231 1019 \$1 50;
#X obj 1312 1084 sig~;
#X obj 1289 1251 s ledswitch;
#X obj 1231 959 r mpr121_driver_ch9 @hv_param;
#X msg 1312 1019 76;
#X obj 1449 989 change;
#X obj 1437 1215 *~;
#X obj 1449 1050 line~;
#X obj 1530 1050 mtof;
#X obj 1530 989 loadbang;
#X obj 1437 1182 osc~;
#X obj 1437 1251 s~ mix;
#X msg 1449 1019 \$1 50;
#X obj 1530 1084 sig~;
#X obj 1506 1251 s ledswitch;
#X msg 1530 1019 76;
#X obj 1449 959 r mpr121_driver_ch10 @hv_param;
#X obj 1669 989 change;
#X obj 1656 1215 *~;
#X obj 1669 1050 line~;
#X obj 1750 1050 mtof;
#X obj 1750 989 loadbang;
#X obj 1656 1182 osc~;
#X obj 1656 1251 s~ mix;
#X msg 1669 1019 \$1 50;
#X obj 1750 1084 sig~;
#X obj 1725 1251 s ledswitch;
#X obj 1669 959 r mpr121_driver_ch11 @hv_param;
#X msg 1750 1019 79;
#X msg 1574 331 \$1 20, f 9;
#X msg 1784 331 \$1 20, f 9;
#X obj 1574 295 change;
#X obj 1784 295 change;
#X obj 1710 252 ==;
#X obj 1710 295 change;
#X obj 1710 215 t b f;
#X msg 1710 331 \$1 20, f 9;
#X obj 1574 374 line~;
#X obj 1710 374 line~;
#X obj 1784 374 line~;
#X obj 1681 503 s~ rightswitch;
#X obj 1574 167 r toggle2down_press @hv_param;
#X obj 1784 167 r toggle2up_press @hv_param;
#X text 1574 112 touchpads note multiplier;
#X obj 1574 420 *~ 0.5;
#X obj 1710 420 *~ 1;
#X obj 627 796 r~ rightswitch;
#X obj 537 796 *~;
#X obj 862 796 r~ rightswitch;
#X obj 772 796 *~;
#X obj 1073 796 r~ rightswitch;
#X obj 983 796 *~;
#X obj 1296 796 r~ rightswitch;
#X obj 1206 796 *~;
#X obj 1511 796 r~ rightswitch;
#X obj 1421 796 *~;
#X obj 1732 796 r~ rightswitch;
#X obj 1642 796 *~;
#X obj 626 1143 r~ rightswitch;
#X obj 533 1143 *~;
#X obj 865 1143 r~ rightswitch;
#X obj 772 1143 *~;
#X obj 1099 1143 r~ rightswitch;
#X obj 1006 1143 *~;
#X obj 1313 1143 r~ rightswitch;
#X obj 1220 1143 *~;
#X obj 1530 1143 r~ rightswitch;
#X obj 1437 1143 *~;
#X obj 1750 1143 r~ rightswitch;
#X obj 1656 1143 *~;
#X msg 1072 289 \$1 20, f 9;
#X msg 1282 289 \$1 20, f 9;
#X obj 1072 253 change;
#X obj 1282 253 change;
#X obj 1208 210 ==;
#X obj 1208 253 change;
#X obj 1208 173 t b f;
#X msg 1208 289 \$1 20, f 9;
#X obj 1072 332 line~;
#X obj 1208 332 line~;
#X obj 1282 332 line~;
#X obj 1208 490 *~ 1;
#X obj 1208 574 s~ leftswitch;
#X obj 1072 125 r toggle1left_press @hv_param;
#X obj 1282 125 r toggle1right_press @hv_param;
#X obj 278 136 r knob0 @hv_param;
#X text 242 110 pad osc volume;
#X text 75 110 light up user led when pressing touchpads, f 19;
#X obj 55 762 *~;
#X obj 66 688 line~;
#X msg 66 659 \$1 20;
#X obj 459 323 *~;
#X obj 470 226 line~;
#X msg 470 197 \$1 20;
#X obj 665 505 dac~;
#X obj 663 323 *~;
#X obj 674 226 line~;
#X msg 674 197 \$1 20;
#X obj 674 165 r faderright @hv_param;
#X obj 470 165 r faderleft @hv_param;
#X obj 506 323 *~;
#X obj 435 281 adc~;
#X obj 267 501 s~ voloutmono;
#X obj 639 281 r~ voloutmono;
#X obj 741 323 *~;
#X obj 833 323 *~;
#X obj 741 281 r~ voloutleft;
#X obj 833 281 r~ voloutright;
#X obj 459 382 s~ voloutleft;
#X obj 506 355 s~ voloutright;
#X text 435 110 volume in control;
#X obj 66 627 r knob1 @hv_param;
#X obj 55 726 noise~;
#X obj 375 688 line~;
#X msg 375 659 \$1 20;
#X obj 236 688 line~;
#X msg 236 659 \$1 20;
#X obj 225 805 *~;
#X obj 236 742 phasor~;
#X obj 225 768 hv.pinknoise~;
#X obj 833 424 line~;
#X msg 833 395 \$1 20;
#X obj 833 363 r knob5 @hv_param;
#X obj 833 453 *~ 5000;
#X text 642 110 volume out control + lowpass;
#X obj 236 713 *~ 10;
#X obj 286 366 r~ leftswitch;
#X obj 267 395 *~;
#X obj 375 627 r knob3 @hv_param;
#X obj 236 627 r knob2 @hv_param;
#X obj 225 840 *~;
#X obj 1379 300 line~;
#X msg 1379 274 \$1 20;
#X obj 1379 249 r knob4 @hv_param;
#X obj 1379 355 hv.osc~ square;
#X obj 1379 389 *~ 2;
#X obj 1379 422 -~ 1;
#X obj 1379 327 *~ 100;
#X obj 1784 420 *~ 2;
#X obj 1103 399 *~ 2;
#X obj 1103 432 -~ 1;
#X obj 665 418 hv.lop~;
#X obj 730 418 hv.lop~;
#X obj 665 460 clip~ -0.9 0.9;
#X obj 713 483 clip~ -0.9 0.9;
#X text 1072 70 toggle the LFO for the pads oscillators;
#X obj 1282 490 *~;
#X obj 1072 490 *~;
#X obj 1014 384 hv.gte~;
#X obj 1282 389 hv.gte~;
#X obj 1444 521 line~;
#X obj 1444 466 snapshot~;
#X obj 1444 432 bang~;
#X obj 1103 365 hv.osc~ sine;
#X obj 267 296 *~ 0.5;
#X obj 278 223 *~ 2;
#X obj 66 840 r~ leftswitch;
#X obj 55 874 *~;
#X obj 225 874 *~;
#X msg 1444 492 \$1 2;
#X obj 55 916 s~ noise1;
#X obj 225 916 s~ noise2;
#X obj 325 429 r~ noise1;
#X obj 394 429 r~ noise2;
#X obj 325 460 *~;
#X obj 394 460 *~;
#X obj 351 296 hv.gte~;
#X obj 382 248 sig~ 0.001;
#X text 57 598 noise 1;
#X text 236 598 noise 2;
#X connect 0 0 252 0;
#X connect 1 0 280 0;
#X connect 2 0 1 0;
#X connect 3 0 12 0;
#X connect 3 0 97 0;
#X connect 4 0 11 0;
#X connect 5 0 4 1;
#X connect 6 0 3 0;
#X connect 7 0 13 0;
#X connect 8 0 15 0;
#X connect 9 0 4 0;
#X connect 10 0 279 0;
#X connect 10 0 291 0;
#X connect 12 0 5 0;
#X connect 13 0 172 0;
#X connect 15 0 7 0;
#X connect 16 0 23 0;
#X connect 16 0 98 0;
#X connect 17 0 22 0;
#X connect 18 0 17 1;
#X connect 19 0 24 0;
#X connect 20 0 25 0;
#X connect 21 0 17 0;
#X connect 23 0 18 0;
#X connect 24 0 174 0;
#X connect 25 0 19 0;
#X connect 26 0 16 0;
#X connect 27 0 34 0;
#X connect 27 0 99 0;
#X connect 28 0 33 0;
#X connect 29 0 28 1;
#X connect 30 0 35 0;
#X connect 31 0 37 0;
#X connect 32 0 28 0;
#X connect 34 0 29 0;
#X connect 35 0 176 0;
#X connect 36 0 27 0;
#X connect 37 0 30 0;
#X connect 38 0 45 0;
#X connect 38 0 100 0;
#X connect 39 0 44 0;
#X connect 40 0 39 1;
#X connect 41 0 46 0;
#X connect 42 0 48 0;
#X connect 43 0 39 0;
#X connect 45 0 40 0;
#X connect 46 0 178 0;
#X connect 47 0 38 0;
#X connect 48 0 41 0;
#X connect 49 0 56 0;
#X connect 49 0 101 0;
#X connect 50 0 55 0;
#X connect 51 0 50 1;
#X connect 52 0 57 0;
#X connect 53 0 58 0;
#X connect 54 0 50 0;
#X connect 56 0 51 0;
#X connect 57 0 180 0;
#X connect 58 0 52 0;
#X connect 59 0 49 0;
#X connect 60 0 67 0;
#X connect 60 0 102 0;
#X connect 61 0 66 0;
#X connect 62 0 61 1;
#X connect 63 0 68 0;
#X connect 64 0 70 0;
#X connect 65 0 61 0;
#X connect 67 0 62 0;
#X connect 68 0 182 0;
#X connect 69 0 60 0;
#X connect 70 0 63 0;
#X connect 71 0 78 0;
#X connect 71 0 103 0;
#X connect 72 0 77 0;
#X connect 73 0 72 1;
#X connect 74 0 79 0;
#X connect 75 0 81 0;
#X connect 76 0 72 0;
#X connect 78 0 73 0;
#X connect 79 0 184 0;
#X connect 80 0 71 0;
#X connect 81 0 74 0;
#X connect 82 0 89 0;
#X connect 82 0 104 0;
#X connect 83 0 88 0;
#X connect 84 0 83 1;
#X connect 85 0 90 0;
#X connect 86 0 105 0;
#X connect 87 0 83 0;
#X connect 89 0 84 0;
#X connect 90 0 186 0;
#X connect 91 0 82 0;
#X connect 92 0 93 0;
#X connect 93 0 95 0;
#X connect 93 1 94 0;
#X connect 94 0 96 0;
#X connect 95 0 96 0;
#X connect 105 0 85 0;
#X connect 106 0 113 0;
#X connect 106 0 115 0;
#X connect 107 0 112 0;
#X connect 108 0 107 1;
#X connect 109 0 114 0;
#X connect 110 0 117 0;
#X connect 111 0 107 0;
#X connect 113 0 108 0;
#X connect 114 0 188 0;
#X connect 116 0 106 0;
#X connect 117 0 109 0;
#X connect 118 0 125 0;
#X connect 118 0 127 0;
#X connect 119 0 124 0;
#X connect 120 0 119 1;
#X connect 121 0 126 0;
#X connect 122 0 129 0;
#X connect 123 0 119 0;
#X connect 125 0 120 0;
#X connect 126 0 190 0;
#X connect 128 0 118 0;
#X connect 129 0 121 0;
#X connect 130 0 137 0;
#X connect 130 0 139 0;
#X connect 131 0 136 0;
#X connect 132 0 131 1;
#X connect 133 0 138 0;
#X connect 134 0 140 0;
#X connect 135 0 131 0;
#X connect 137 0 132 0;
#X connect 138 0 192 0;
#X connect 140 0 133 0;
#X connect 141 0 130 0;
#X connect 142 0 149 0;
#X connect 142 0 151 0;
#X connect 143 0 148 0;
#X connect 144 0 143 1;
#X connect 145 0 150 0;
#X connect 146 0 153 0;
#X connect 147 0 143 0;
#X connect 149 0 144 0;
#X connect 150 0 194 0;
#X connect 152 0 142 0;
#X connect 153 0 145 0;
#X connect 154 0 162 0;
#X connect 155 0 164 0;
#X connect 156 0 154 0;
#X connect 157 0 155 0;
#X connect 158 0 159 0;
#X connect 159 0 161 0;
#X connect 160 0 158 0;
#X connect 160 1 158 1;
#X connect 161 0 163 0;
#X connect 162 0 169 0;
#X connect 163 0 170 0;
#X connect 164 0 263 0;
#X connect 166 0 158 0;
#X connect 166 0 156 0;
#X connect 167 0 160 0;
#X connect 167 0 157 0;
#X connect 169 0 165 0;
#X connect 170 0 165 0;
#X connect 171 0 172 1;
#X connect 172 0 9 0;
#X connect 173 0 174 1;
#X connect 174 0 21 0;
#X connect 175 0 176 1;
#X connect 176 0 32 0;
#X connect 177 0 178 1;
#X connect 178 0 43 0;
#X connect 179 0 180 1;
#X connect 180 0 54 0;
#X connect 181 0 182 1;
#X connect 182 0 65 0;
#X connect 183 0 184 1;
#X connect 184 0 76 0;
#X connect 185 0 186 1;
#X connect 186 0 87 0;
#X connect 187 0 188 1;
#X connect 188 0 111 0;
#X connect 189 0 190 1;
#X connect 190 0 123 0;
#X connect 191 0 192 1;
#X connect 192 0 135 0;
#X connect 193 0 194 1;
#X connect 194 0 147 0;
#X connect 195 0 203 0;
#X connect 196 0 205 0;
#X connect 197 0 195 0;
#X connect 198 0 196 0;
#X connect 199 0 200 0;
#X connect 200 0 202 0;
#X connect 201 0 199 0;
#X connect 201 1 199 1;
#X connect 202 0 204 0;
#X connect 203 0 273 0;
#X connect 203 0 274 1;
#X connect 204 0 206 0;
#X connect 204 0 273 1;
#X connect 204 0 274 1;
#X connect 205 0 273 1;
#X connect 205 0 274 0;
#X connect 206 0 207 0;
#X connect 208 0 199 0;
#X connect 208 0 197 0;
#X connect 209 0 201 0;
#X connect 209 0 198 0;
#X connect 210 0 2 0;
#X connect 213 0 282 0;
#X connect 214 0 213 1;
#X connect 215 0 214 0;
#X connect 216 0 233 0;
#X connect 217 0 216 1;
#X connect 217 0 225 1;
#X connect 218 0 217 0;
#X connect 220 0 266 0;
#X connect 220 0 267 0;
#X connect 221 0 220 1;
#X connect 221 0 229 1;
#X connect 221 0 230 1;
#X connect 222 0 221 0;
#X connect 223 0 222 0;
#X connect 224 0 218 0;
#X connect 225 0 234 0;
#X connect 226 0 216 0;
#X connect 226 1 225 0;
#X connect 228 0 220 0;
#X connect 229 0 266 0;
#X connect 230 0 267 0;
#X connect 231 0 229 0;
#X connect 232 0 230 0;
#X connect 236 0 215 0;
#X connect 237 0 213 0;
#X connect 238 0 255 1;
#X connect 239 0 238 0;
#X connect 240 0 250 0;
#X connect 241 0 240 0;
#X connect 242 0 255 0;
#X connect 243 0 242 1;
#X connect 244 0 242 0;
#X connect 245 0 248 0;
#X connect 246 0 245 0;
#X connect 247 0 246 0;
#X connect 248 0 266 1;
#X connect 248 0 267 1;
#X connect 250 0 243 0;
#X connect 251 0 252 1;
#X connect 252 0 227 0;
#X connect 253 0 239 0;
#X connect 254 0 241 0;
#X connect 255 0 283 0;
#X connect 256 0 262 0;
#X connect 257 0 256 0;
#X connect 258 0 257 0;
#X connect 259 0 260 0;
#X connect 260 0 261 0;
#X connect 261 0 276 0;
#X connect 262 0 259 0;
#X connect 262 0 278 0;
#X connect 263 0 165 0;
#X connect 264 0 265 0;
#X connect 265 0 272 0;
#X connect 266 0 268 0;
#X connect 267 0 269 0;
#X connect 268 0 219 0;
#X connect 269 0 219 1;
#X connect 271 0 207 0;
#X connect 272 0 207 0;
#X connect 273 0 272 1;
#X connect 274 0 271 1;
#X connect 275 0 271 0;
#X connect 276 0 284 0;
#X connect 277 0 276 0;
#X connect 278 0 264 0;
#X connect 279 0 0 0;
#X connect 280 0 0 1;
#X connect 281 0 282 1;
#X connect 281 0 283 1;
#X connect 282 0 285 0;
#X connect 283 0 286 0;
#X connect 284 0 275 0;
#X connect 287 0 289 0;
#X connect 288 0 290 0;
#X connect 289 0 227 0;
#X connect 290 0 227 0;
#X connect 291 0 289 1;
#X connect 291 0 290 1;
#X connect 292 0 291 1;
