#N canvas 827 239 734 565 12;
#X obj 58 -53 dac~;
#X obj 58 -100 *~;
#X obj 69 -206 line~;
#X msg 69 -235 \$1 20;
#X obj 69 -267 r knob1 @hv_param;
#X obj 20 41 change;
#X obj 11 205 *~;
#X obj 20 102 line~;
#X obj 20 11 r mpr121_driver_ch0 @hv_param;
#X obj 101 102 mtof;
#X obj 101 41 loadbang;
#X obj 11 172 osc~;
#X obj 34 -142 r~ mix;
#X obj 11 241 s~ mix;
#X msg 20 71 \$1 50;
#X obj 101 136 sig~;
#X text 20 -18 C minor: 11 notes: 60 \, 62 \, 64 \, 65 \, 67 \, 69 \, 71 \, 72 \, 74 \, 76 \, 77;
#X msg 101 71 60;
#X obj 255 41 change;
#X obj 246 205 *~;
#X obj 255 102 line~;
#X obj 336 102 mtof;
#X obj 336 41 loadbang;
#X obj 246 172 osc~;
#X obj 246 241 s~ mix;
#X msg 255 71 \$1 50;
#X obj 336 136 sig~;
#X msg 336 71 62;
#X obj 255 11 r mpr121_driver_ch1 @hv_param;
#X obj 466 41 change;
#X obj 457 205 *~;
#X obj 466 102 line~;
#X obj 547 102 mtof;
#X obj 547 41 loadbang;
#X obj 457 172 osc~;
#X obj 457 241 s~ mix;
#X msg 466 71 \$1 50;
#X obj 547 136 sig~;
#X obj 466 11 r mpr121_driver_ch2 @hv_param;
#X msg 547 71 64;
#X obj 689 41 change;
#X obj 680 205 *~;
#X obj 689 102 line~;
#X obj 770 102 mtof;
#X obj 770 41 loadbang;
#X obj 680 172 osc~;
#X obj 680 241 s~ mix;
#X msg 689 71 \$1 50;
#X obj 770 136 sig~;
#X obj 689 11 r mpr121_driver_ch3 @hv_param;
#X msg 770 71 65;
#X obj 904 41 change;
#X obj 895 205 *~;
#X obj 904 102 line~;
#X obj 985 102 mtof;
#X obj 985 41 loadbang;
#X obj 895 172 osc~;
#X obj 895 241 s~ mix;
#X msg 904 71 \$1 50;
#X obj 985 136 sig~;
#X msg 985 71 67;
#X obj 904 11 r mpr121_driver_ch4 @hv_param;
#X obj 1125 41 change;
#X obj 1116 205 *~;
#X obj 1125 102 line~;
#X obj 1206 102 mtof;
#X obj 1206 41 loadbang;
#X obj 1116 172 osc~;
#X obj 1116 241 s~ mix;
#X msg 1125 71 \$1 50;
#X obj 1206 136 sig~;
#X obj 1125 11 r mpr121_driver_ch5 @hv_param;
#X msg 1206 71 69;
#X obj 11 333 change;
#X obj 2 497 *~;
#X obj 11 394 line~;
#X obj 92 394 mtof;
#X obj 92 333 loadbang;
#X obj 2 464 osc~;
#X obj 2 533 s~ mix;
#X msg 11 363 \$1 50;
#X obj 92 428 sig~;
#X obj 11 303 r mpr121_driver_ch6 @hv_param;
#X msg 92 363 71;
#X obj 246 333 change;
#X obj 237 503 *~;
#X obj 246 394 line~;
#X obj 327 394 mtof;
#X obj 327 333 loadbang;
#X obj 237 470 osc~;
#X obj 237 539 s~ mix;
#X msg 246 363 \$1 50;
#X obj 327 428 sig~;
#X obj 246 303 r mpr121_driver_ch7 @hv_param;
#X obj 195 -206 r ledswitch;
#X obj 195 -174 sel 1 0;
#X msg 227 -130 0;
#X msg 198 -130 1;
#X obj 195 -90 s daisyled @hv_param;
#X obj 80 241 s ledswitch;
#X obj 315 241 s ledswitch;
#X obj 523 241 s ledswitch;
#X obj 749 241 s ledswitch;
#X obj 975 241 s ledswitch;
#X obj 1201 241 s ledswitch;
#X obj 98 533 s ledswitch;
#X obj 306 539 s ledswitch;
#X msg 327 363 72;
#X obj 481 333 change;
#X obj 472 503 *~;
#X obj 481 394 line~;
#X obj 562 394 mtof;
#X obj 562 333 loadbang;
#X obj 472 470 osc~;
#X obj 472 539 s~ mix;
#X msg 481 363 \$1 50;
#X obj 562 428 sig~;
#X obj 541 539 s ledswitch;
#X obj 481 303 r mpr121_driver_ch8 @hv_param;
#X msg 562 363 74;
#X obj 697 333 change;
#X obj 688 503 *~;
#X obj 697 394 line~;
#X obj 778 394 mtof;
#X obj 778 333 loadbang;
#X obj 688 470 osc~;
#X obj 688 539 s~ mix;
#X msg 697 363 \$1 50;
#X obj 778 428 sig~;
#X obj 757 539 s ledswitch;
#X obj 697 303 r mpr121_driver_ch9 @hv_param;
#X msg 778 363 76;
#X obj 915 333 change;
#X obj 906 503 *~;
#X obj 915 394 line~;
#X obj 996 394 mtof;
#X obj 996 333 loadbang;
#X obj 906 470 osc~;
#X obj 906 539 s~ mix;
#X msg 915 363 \$1 50;
#X obj 996 428 sig~;
#X obj 975 539 s ledswitch;
#X msg 996 363 76;
#X obj 915 303 r mpr121_driver_ch10 @hv_param;
#X obj 1135 333 change;
#X obj 1126 503 *~;
#X obj 1135 394 line~;
#X obj 1216 394 mtof;
#X obj 1216 333 loadbang;
#X obj 1126 470 osc~;
#X obj 1126 539 s~ mix;
#X msg 1135 363 \$1 50;
#X obj 1216 428 sig~;
#X obj 1195 539 s ledswitch;
#X obj 1135 303 r mpr121_driver_ch11 @hv_param;
#X msg 1216 363 79;
#X connect 1 0 0 0;
#X connect 1 0 0 1;
#X connect 2 0 1 1;
#X connect 3 0 2 0;
#X connect 4 0 3 0;
#X connect 5 0 14 0;
#X connect 5 0 99 0;
#X connect 6 0 13 0;
#X connect 7 0 6 1;
#X connect 8 0 5 0;
#X connect 9 0 15 0;
#X connect 10 0 17 0;
#X connect 11 0 6 0;
#X connect 12 0 1 0;
#X connect 14 0 7 0;
#X connect 15 0 11 0;
#X connect 17 0 9 0;
#X connect 18 0 25 0;
#X connect 18 0 100 0;
#X connect 19 0 24 0;
#X connect 20 0 19 1;
#X connect 21 0 26 0;
#X connect 22 0 27 0;
#X connect 23 0 19 0;
#X connect 25 0 20 0;
#X connect 26 0 23 0;
#X connect 27 0 21 0;
#X connect 28 0 18 0;
#X connect 29 0 36 0;
#X connect 29 0 101 0;
#X connect 30 0 35 0;
#X connect 31 0 30 1;
#X connect 32 0 37 0;
#X connect 33 0 39 0;
#X connect 34 0 30 0;
#X connect 36 0 31 0;
#X connect 37 0 34 0;
#X connect 38 0 29 0;
#X connect 39 0 32 0;
#X connect 40 0 47 0;
#X connect 40 0 102 0;
#X connect 41 0 46 0;
#X connect 42 0 41 1;
#X connect 43 0 48 0;
#X connect 44 0 50 0;
#X connect 45 0 41 0;
#X connect 47 0 42 0;
#X connect 48 0 45 0;
#X connect 49 0 40 0;
#X connect 50 0 43 0;
#X connect 51 0 58 0;
#X connect 51 0 103 0;
#X connect 52 0 57 0;
#X connect 53 0 52 1;
#X connect 54 0 59 0;
#X connect 55 0 60 0;
#X connect 56 0 52 0;
#X connect 58 0 53 0;
#X connect 59 0 56 0;
#X connect 60 0 54 0;
#X connect 61 0 51 0;
#X connect 62 0 69 0;
#X connect 62 0 104 0;
#X connect 63 0 68 0;
#X connect 64 0 63 1;
#X connect 65 0 70 0;
#X connect 66 0 72 0;
#X connect 67 0 63 0;
#X connect 69 0 64 0;
#X connect 70 0 67 0;
#X connect 71 0 62 0;
#X connect 72 0 65 0;
#X connect 73 0 80 0;
#X connect 73 0 105 0;
#X connect 74 0 79 0;
#X connect 75 0 74 1;
#X connect 76 0 81 0;
#X connect 77 0 83 0;
#X connect 78 0 74 0;
#X connect 80 0 75 0;
#X connect 81 0 78 0;
#X connect 82 0 73 0;
#X connect 83 0 76 0;
#X connect 84 0 91 0;
#X connect 84 0 106 0;
#X connect 85 0 90 0;
#X connect 86 0 85 1;
#X connect 87 0 92 0;
#X connect 88 0 107 0;
#X connect 89 0 85 0;
#X connect 91 0 86 0;
#X connect 92 0 89 0;
#X connect 93 0 84 0;
#X connect 94 0 95 0;
#X connect 95 0 97 0;
#X connect 95 1 96 0;
#X connect 96 0 98 0;
#X connect 97 0 98 0;
#X connect 107 0 87 0;
#X connect 108 0 115 0;
#X connect 108 0 117 0;
#X connect 109 0 114 0;
#X connect 110 0 109 1;
#X connect 111 0 116 0;
#X connect 112 0 119 0;
#X connect 113 0 109 0;
#X connect 115 0 110 0;
#X connect 116 0 113 0;
#X connect 118 0 108 0;
#X connect 119 0 111 0;
#X connect 120 0 127 0;
#X connect 120 0 129 0;
#X connect 121 0 126 0;
#X connect 122 0 121 1;
#X connect 123 0 128 0;
#X connect 124 0 131 0;
#X connect 125 0 121 0;
#X connect 127 0 122 0;
#X connect 128 0 125 0;
#X connect 130 0 120 0;
#X connect 131 0 123 0;
#X connect 132 0 139 0;
#X connect 132 0 141 0;
#X connect 133 0 138 0;
#X connect 134 0 133 1;
#X connect 135 0 140 0;
#X connect 136 0 142 0;
#X connect 137 0 133 0;
#X connect 139 0 134 0;
#X connect 140 0 137 0;
#X connect 142 0 135 0;
#X connect 143 0 132 0;
#X connect 144 0 151 0;
#X connect 144 0 153 0;
#X connect 145 0 150 0;
#X connect 146 0 145 1;
#X connect 147 0 152 0;
#X connect 148 0 155 0;
#X connect 149 0 145 0;
#X connect 151 0 146 0;
#X connect 152 0 149 0;
#X connect 154 0 144 0;
#X connect 155 0 147 0;
