#N canvas 827 239 734 565 12;
#X obj 393 1604 dac~;
#X obj 415 273 hsl 128 17 0 1 0 0 empty empty empty -2 -8 0 10 #191919 #e1e1e1 #e1e1e1 0 1;
#X obj 381 339 line~;
#X msg 381 307 \$1 20;
#X obj 381 244 r faderleft @hv_param;
#X obj 620 1346 hsl 128 17 0 1 0 0 empty empty empty -2 -8 0 10 #191919 #e1e1e1 #e1e1e1 0 1;
#X obj 586 1413 line~;
#X msg 586 1381 \$1 20;
#X obj 586 1322 r faderright @hv_param;
#X obj 465 1552 *~;
#X obj 211 144 adc~;
#X obj 465 882 hv.freqshift~;
#X obj 319 882 hv.freqshift~;
#X obj 317 1545 *~;
#X obj 383 591 *~;
#X obj 772 92 hsl 128 17 0 1 0 0 empty empty empty -2 -8 0 10 #191919 #e1e1e1 #e1e1e1 0 1;
#X msg 749 183 \$1 20;
#X msg 586 183 \$1 20;
#X obj 609 92 hsl 128 17 0 1 0 0 empty empty empty -2 -8 0 10 #191919 #e1e1e1 #e1e1e1 0 1;
#X obj 586 62 r knob1 @hv_param;
#X obj 749 62 r knob2 @hv_param;
#X obj 319 1104 hv.lop~;
#X obj 465 1104 hv.lop~;
#X obj 602 933 hsl 128 17 0 1 0 0 empty empty empty -2 -8 0 10 #191919 #e1e1e1 #e1e1e1 0 1;
#X msg 579 993 \$1 20;
#X obj 579 1018 line~;
#X obj 579 1045 mtof~;
#X obj 579 965 * 127;
#X obj 749 124 * 99.9;
#X obj 749 155 + 0.1;
#X obj 66 1258 *~ -1;
#X obj 66 1297 +~ 1;
#X obj 92 1151 hsl 128 17 0 1 0 0 empty empty empty -2 -8 0 10 #191919 #e1e1e1 #e1e1e1 0 1;
#X obj 66 1220 line~;
#X msg 66 1188 \$1 20;
#X obj 317 1448 clip~ -0.9 0.9;
#X obj 465 1448 clip~ -0.9 0.9;
#X msg 844 611 \$1 20, f 9;
#X msg 1054 612 \$1 20, f 9;
#X obj 844 576 change;
#X obj 1054 576 change;
#X obj 980 533 ==;
#X obj 980 576 change;
#X obj 980 496 t b f;
#X msg 980 612 \$1 20, f 9;
#X obj 844 655 line~;
#X obj 980 655 line~;
#X obj 1054 655 line~;
#X obj 844 448 r toggle1left_press @hv_param;
#X obj 1054 448 r toggle1right_press @hv_param;
#X obj 980 776 s~ leftswitch;
#X obj 980 701 /~ 2;
#X obj 1054 701 /~ 4;
#X obj 162 1349 *~;
#X obj 259 1349 *~;
#X obj 317 1349 *~;
#X obj 465 1349 *~;
#X obj 448 558 r~ leftswitch;
#X obj 527 591 *~;
#X obj 66 1129 r knob5 @hv_param;
#X obj 579 903 r knob4 @hv_param;
#X obj 586 217 line~;
#X obj 586 292 *~;
#X obj 749 204 line~;
#X obj 586 250 phasor~;
#X obj 749 250 phasor~;
#X obj 381 408 +~;
#X obj 525 408 +~;
#X obj 586 339 *~ 110;
#X obj 602 411 hsl 128 17 0 1 0 0 empty empty empty -2 -8 0 10 #191919 #e1e1e1 #e1e1e1 0 1;
#X obj 579 381 r knob0 @hv_param;
#X msg 579 475 \$1 20;
#X obj 579 496 line~;
#X obj 579 443 * 127;
#X obj 527 531 +~;
#X obj 383 531 -~;
#X obj 319 801 hv.lop~;
#X obj 465 801 hv.lop~;
#X obj 602 641 hsl 128 17 0 1 0 0 empty empty empty -2 -8 0 10 #191919 #e1e1e1 #e1e1e1 0 1;
#X msg 579 701 \$1 20;
#X obj 579 726 line~;
#X obj 579 753 mtof~;
#X obj 579 673 * 127;
#X obj 579 611 r knob3 @hv_param;
#X text 273 143 audio in;
#X text 586 34 freqshift mod move 1;
#X text 749 34 freqshift mod move 2;
#X text 713 380 stereo shift;
#X text 383 217 freq shift 1;
#X text 579 590 lopass before freq shift;
#X text 579 881 lopass after shift;
#X text 66 1099 wet dry;
#X text 594 1296 end volume;
#X text 990 418 freq shift multiplier;
#X obj 381 370 *~ -880;
#X obj 586 144 * 99;
#X obj 1259 346 cnv 15 1804 978 empty empty TOUCHPADS\ flanger 20 12 0 14 #626262 #ffffff 0;
#X obj 1278 380 r mpr121_driver_ch3 @hv_param;
#X obj 1640 380 r mpr121_driver_ch4 @hv_param;
#X obj 1983 380 r mpr121_driver_ch5 @hv_param;
#X obj 2346 380 r mpr121_driver_ch6 @hv_param;
#X obj 2706 380 r mpr121_driver_ch7 @hv_param;
#X obj 1278 753 r mpr121_driver_ch8 @hv_param;
#X obj 1640 753 r mpr121_driver_ch9 @hv_param;
#X obj 1278 473 sel 0 1;
#X msg 1280 504 0;
#X obj 1278 436 tgl 25 0 empty empty empty 17 7 0 10 #191919 #ffffff #ffffff 0 1;
#X obj 1278 411 change;
#X obj 847 1063 hsl 128 15 -1 1 0 0 empty empty empty -2 8 0 10 #fcfcfc #000000 #000000 0 1;
#X obj 834 1147 hsl 128 15 0 20 0 0 empty empty empty -2 8 0 10 #fcfcfc #000000 #000000 0 1;
#X obj 831 1227 hsl 128 15 0 1 0 0 empty empty empty -2 8 0 10 #fcfcfc #000000 #000000 0 1;
#X obj 838 977 hsl 128 15 0 1 0 0 empty empty empty -2 8 0 10 #fcfcfc #000000 #000000 0 1;
#X msg 835 1005 mix \$1;
#X msg 835 1086 feedback \$1;
#X msg 831 1169 speed \$1;
#X msg 828 1249 intensity \$1;
#X text 921 1088 // -1..1;
#X text 893 1169 // 0..20 Hz;
#X text 907 1248 // 0..1;
#X text 433 1234 // arg \$1 delay time;
#X text 882 1004 // 0..1 (0=dry);
#X obj 319 1235 hv.flanger2~ 20;
#X obj 1278 685 s mix;
#X obj 1278 652 line;
#X obj 833 881 r mix;
#X obj 1054 985 r feedback;
#X obj 909 1121 r speed;
#X obj 893 1199 r intensity;
#X obj 2051 900 sel 0 1;
#X obj 2051 835 change;
#X obj 2051 865 tgl 25 0 empty empty empty 17 7 0 10 #191919 #ffffff #ffffff 0 1;
#X obj 2051 805 r mpr121_driver_ch0 @hv_param;
#X msg 2053 936 20;
#X obj 2053 1002 s flangertiming;
#X obj 1278 571 pack f f;
#X obj 1309 533 r flangertiming;
#X obj 2321 1279 s randomizer;
#X obj 2411 1057 metro 20;
#X obj 2411 1085 hv.drunk 1000 77;
#X obj 2411 1123 / 1000;
#X obj 2321 1225 line 100;
#X msg 2109 936 1000;
#X obj 761 977 loadbang;
#X msg 763 1005 0;
#X obj 1348 701 s feedback;
#X obj 1446 701 s speed;
#X obj 1527 701 s intensity;
#X msg 1307 504 1;
#X obj 1453 436 r randomizer;
#X obj 1397 571 * 2;
#X obj 1397 624 - 1;
#X obj 1348 624 +;
#X obj 1348 652 / 2;
#X obj 1527 624 +;
#X obj 1527 652 / 2;
#X obj 1444 624 +;
#X obj 1446 652 / 2;
#X msg 1446 571 2;
#X obj 1478 571 * 20;
#X msg 1527 571 0.1;
#X obj 1640 473 sel 0 1;
#X msg 1642 504 0;
#X obj 1640 436 tgl 25 0 empty empty empty 17 7 0 10 #191919 #ffffff #ffffff 0 1;
#X obj 1640 411 change;
#X obj 1640 685 s mix;
#X obj 1640 652 line;
#X obj 1640 571 pack f f;
#X obj 1671 533 r flangertiming;
#X obj 1710 685 s feedback;
#X obj 1808 685 s speed;
#X obj 1889 685 s intensity;
#X msg 1669 504 1;
#X obj 1815 436 r randomizer;
#X obj 1759 571 * 2;
#X obj 1759 624 - 1;
#X obj 1710 624 +;
#X obj 1710 652 / 2;
#X obj 1889 624 +;
#X obj 1889 652 / 2;
#X obj 1806 624 +;
#X obj 1808 652 / 2;
#X obj 1840 571 * 20;
#X msg 1348 571 -0.8;
#X msg 1710 571 -0.6;
#X msg 1808 571 5;
#X msg 1889 571 0.25;
#X obj 1983 473 sel 0 1;
#X msg 1985 504 0;
#X obj 1983 436 tgl 25 0 empty empty empty 17 7 0 10 #191919 #ffffff #ffffff 0 1;
#X obj 1983 411 change;
#X obj 1983 685 s mix;
#X obj 1983 652 line;
#X obj 1983 571 pack f f;
#X obj 2014 533 r flangertiming;
#X obj 2053 685 s feedback;
#X obj 2151 685 s speed;
#X obj 2232 685 s intensity;
#X msg 2012 504 1;
#X obj 2158 436 r randomizer;
#X obj 2102 571 * 2;
#X obj 2102 624 - 1;
#X obj 2053 624 +;
#X obj 2053 652 / 2;
#X obj 2232 624 +;
#X obj 2232 652 / 2;
#X obj 2149 624 +;
#X obj 2151 652 / 2;
#X obj 2183 571 * 20;
#X msg 2053 571 -0.2;
#X msg 2151 571 10;
#X msg 2232 571 0.4;
#X obj 2346 473 sel 0 1;
#X msg 2348 504 0;
#X obj 2346 436 tgl 25 0 empty empty empty 17 7 0 10 #191919 #ffffff #ffffff 0 1;
#X obj 2346 411 change;
#X obj 2346 685 s mix;
#X obj 2346 652 line;
#X obj 2346 571 pack f f;
#X obj 2377 533 r flangertiming;
#X obj 2416 685 s feedback;
#X obj 2514 685 s speed;
#X obj 2595 685 s intensity;
#X msg 2375 504 1;
#X obj 2521 436 r randomizer;
#X obj 2465 571 * 2;
#X obj 2465 624 - 1;
#X obj 2416 624 +;
#X obj 2416 652 / 2;
#X obj 2595 624 +;
#X obj 2595 652 / 2;
#X obj 2512 624 +;
#X obj 2514 652 / 2;
#X obj 2546 571 * 20;
#X msg 2514 571 15;
#X msg 2595 571 0.6;
#X obj 2706 473 sel 0 1;
#X msg 2708 504 0;
#X obj 2706 436 tgl 25 0 empty empty empty 17 7 0 10 #191919 #ffffff #ffffff 0 1;
#X obj 2706 411 change;
#X obj 2706 685 s mix;
#X obj 2706 652 line;
#X obj 2706 571 pack f f;
#X obj 2737 533 r flangertiming;
#X obj 2776 685 s feedback;
#X obj 2874 685 s speed;
#X obj 2955 685 s intensity;
#X msg 2735 504 1;
#X obj 2881 436 r randomizer;
#X obj 2825 571 * 2;
#X obj 2825 624 - 1;
#X obj 2776 624 +;
#X obj 2776 652 / 2;
#X obj 2955 624 +;
#X obj 2955 652 / 2;
#X obj 2872 624 +;
#X obj 2874 652 / 2;
#X obj 2906 571 * 20;
#X msg 2776 571 0.3;
#X msg 2874 571 17;
#X msg 2955 571 0.8;
#X obj 1278 856 sel 0 1;
#X msg 1280 887 0;
#X obj 1278 819 tgl 25 0 empty empty empty 17 7 0 10 #191919 #ffffff #ffffff 0 1;
#X obj 1278 794 change;
#X obj 1278 1063 s mix;
#X obj 1278 1030 line;
#X obj 1278 954 pack f f;
#X obj 1309 916 r flangertiming;
#X obj 1348 1063 s feedback;
#X obj 1446 1063 s speed;
#X obj 1527 1063 s intensity;
#X msg 1307 887 1;
#X obj 1453 819 r randomizer;
#X obj 1397 954 * 2;
#X obj 1397 1002 - 1;
#X obj 1348 1002 +;
#X obj 1348 1030 / 2;
#X obj 1527 1002 +;
#X obj 1527 1030 / 2;
#X obj 1444 1002 +;
#X obj 1446 1030 / 2;
#X obj 1478 954 * 20;
#X msg 2416 571 0.4;
#X msg 1348 954 0.6;
#X msg 1446 954 3;
#X msg 1527 954 0.85;
#X obj 1640 856 sel 0 1;
#X msg 1642 887 0;
#X obj 1640 819 tgl 25 0 empty empty empty 17 7 0 10 #191919 #ffffff #ffffff 0 1;
#X obj 1640 794 change;
#X obj 1640 1063 s mix;
#X obj 1640 1035 line;
#X obj 1640 954 pack f f;
#X obj 1671 916 r flangertiming;
#X obj 1710 1063 s feedback;
#X obj 1808 1063 s speed;
#X obj 1889 1063 s intensity;
#X msg 1669 887 1;
#X obj 1815 819 r randomizer;
#X obj 1759 954 * 2;
#X obj 1759 1008 - 1;
#X obj 1710 1008 +;
#X obj 1710 1035 / 2;
#X obj 1889 1008 +;
#X obj 1889 1035 / 2;
#X obj 1808 1008 +;
#X obj 1808 1035 / 2;
#X obj 1840 954 * 20;
#X msg 1710 954 0.9;
#X msg 1808 954 19;
#X msg 1889 954 0.95;
#X msg 2321 1188 \$1 20, f 9;
#X obj 2321 932 change;
#X obj 2531 932 change;
#X obj 2425 888 ==;
#X obj 2425 931 change;
#X obj 2425 851 t b f;
#X obj 2321 804 r toggle2down_press @hv_param;
#X obj 2531 804 r toggle2up_press @hv_param;
#X obj 2676 1188 hsl 128 17 0 1 0 0 empty empty empty -2 -8 0 10 #191919 #ffffff #ffffff 0 1;
#X obj 2673 1124 metro 2;
#X obj 2673 1157 snapshot~;
#X obj 2612 1072 hv.osc~ sine;
#X obj 2612 1094 +~ 1;
#X obj 2612 1123 *~ 0.5;
#X obj 2673 1091 loadbang;
#X obj 749 307 s~ knob2phasor;
#X obj 2411 1157 spigot;
#X obj 2425 967 sel 1;
#X msg 2428 996 1;
#X obj 2633 956 r~ knob2phasor;
#X obj 2612 1020 +~;
#X msg 863 142 \$1 20;
#X obj 863 163 line~;
#X obj 863 197 s~ knob2val;
#X obj 2612 931 r~ knob2val;
#X obj 2633 984 *~ 0.04;
#X msg 2452 996 0;
#X obj 2508 1157 spigot;
#X obj 2531 967 sel 1;
#X msg 2534 996 1;
#X msg 2558 996 0;
#X obj 2612 1047 *~ 1;
#X msg 2508 1188 \$1 20, f 9;
#X msg 2411 1188 \$1 20, f 9;
#X obj -19 218 hv.osc~ sine;
#X obj 33 49 hsl 128 17 0 1 0 0 empty empty empty -2 -8 0 10 #191919 #ffffff #ffffff 0 1;
#X obj 30 116 sig~;
#X msg 1156 719 1;
#X obj 30 155 *~ 440;
#X msg 2323 996 0;
#X obj 1011 1020 / 10;
#X obj 1422 436 b;
#X obj 1783 436 b;
#X obj 2131 436 b;
#X obj 2489 436 b;
#X obj 2847 436 b;
#X obj 1424 819 b;
#X obj 1785 819 b;
#X obj 833 925 / 2;
#X connect 1 0 3 0;
#X connect 2 0 94 0;
#X connect 3 0 2 0;
#X connect 4 0 3 0;
#X connect 5 0 7 0;
#X connect 6 0 9 1;
#X connect 6 0 13 1;
#X connect 7 0 6 0;
#X connect 8 0 7 0;
#X connect 9 0 0 1;
#X connect 10 0 53 0;
#X connect 10 0 76 0;
#X connect 10 1 77 0;
#X connect 10 1 54 0;
#X connect 11 0 22 0;
#X connect 12 0 21 0;
#X connect 13 0 0 0;
#X connect 14 0 12 1;
#X connect 15 0 28 0;
#X connect 15 0 332 0;
#X connect 16 0 63 0;
#X connect 17 0 61 0;
#X connect 18 0 95 0;
#X connect 19 0 95 0;
#X connect 20 0 28 0;
#X connect 20 0 332 0;
#X connect 21 0 121 0;
#X connect 22 0 121 1;
#X connect 23 0 27 0;
#X connect 24 0 25 0;
#X connect 25 0 26 0;
#X connect 26 0 22 1;
#X connect 26 0 21 1;
#X connect 27 0 24 0;
#X connect 28 0 29 0;
#X connect 29 0 16 0;
#X connect 30 0 31 0;
#X connect 31 0 54 1;
#X connect 31 0 53 1;
#X connect 32 0 34 0;
#X connect 33 0 30 0;
#X connect 33 0 56 1;
#X connect 33 0 55 1;
#X connect 34 0 33 0;
#X connect 35 0 13 0;
#X connect 36 0 9 0;
#X connect 37 0 45 0;
#X connect 38 0 47 0;
#X connect 39 0 37 0;
#X connect 40 0 38 0;
#X connect 41 0 42 0;
#X connect 42 0 44 0;
#X connect 43 0 41 0;
#X connect 43 1 41 1;
#X connect 44 0 46 0;
#X connect 45 0 50 0;
#X connect 46 0 51 0;
#X connect 47 0 52 0;
#X connect 48 0 41 0;
#X connect 48 0 39 0;
#X connect 49 0 43 0;
#X connect 49 0 40 0;
#X connect 51 0 50 0;
#X connect 52 0 50 0;
#X connect 53 0 35 0;
#X connect 54 0 36 0;
#X connect 55 0 35 0;
#X connect 56 0 36 0;
#X connect 57 0 14 1;
#X connect 57 0 58 1;
#X connect 58 0 11 1;
#X connect 59 0 34 0;
#X connect 60 0 27 0;
#X connect 61 0 64 0;
#X connect 62 0 68 0;
#X connect 63 0 65 0;
#X connect 64 0 62 0;
#X connect 65 0 62 1;
#X connect 65 0 326 0;
#X connect 66 0 75 0;
#X connect 67 0 74 0;
#X connect 68 0 66 1;
#X connect 68 0 67 1;
#X connect 69 0 73 0;
#X connect 70 0 73 0;
#X connect 71 0 72 0;
#X connect 72 0 75 1;
#X connect 72 0 74 1;
#X connect 73 0 71 0;
#X connect 74 0 58 0;
#X connect 75 0 14 0;
#X connect 76 0 12 0;
#X connect 77 0 11 0;
#X connect 78 0 82 0;
#X connect 79 0 80 0;
#X connect 80 0 81 0;
#X connect 81 0 77 1;
#X connect 81 0 76 1;
#X connect 82 0 79 0;
#X connect 83 0 82 0;
#X connect 94 0 66 0;
#X connect 94 0 67 0;
#X connect 95 0 17 0;
#X connect 97 0 107 0;
#X connect 98 0 163 0;
#X connect 99 0 189 0;
#X connect 100 0 214 0;
#X connect 101 0 238 0;
#X connect 102 0 263 0;
#X connect 103 0 289 0;
#X connect 104 0 105 0;
#X connect 104 1 147 0;
#X connect 105 0 134 0;
#X connect 106 0 104 0;
#X connect 106 0 159 0;
#X connect 106 0 157 0;
#X connect 106 0 182 0;
#X connect 106 0 352 0;
#X connect 107 0 106 0;
#X connect 108 0 113 0;
#X connect 109 0 114 0;
#X connect 110 0 115 0;
#X connect 111 0 112 0;
#X connect 112 0 121 2;
#X connect 113 0 121 2;
#X connect 114 0 121 2;
#X connect 115 0 121 2;
#X connect 121 0 55 0;
#X connect 121 1 56 0;
#X connect 123 0 122 0;
#X connect 124 0 359 0;
#X connect 125 0 351 0;
#X connect 126 0 109 0;
#X connect 127 0 110 0;
#X connect 128 0 132 0;
#X connect 128 1 141 0;
#X connect 129 0 130 0;
#X connect 130 0 128 0;
#X connect 131 0 129 0;
#X connect 132 0 133 0;
#X connect 134 0 123 0;
#X connect 135 0 134 1;
#X connect 137 0 138 0;
#X connect 138 0 139 0;
#X connect 139 0 327 0;
#X connect 140 0 136 0;
#X connect 141 0 133 0;
#X connect 142 0 143 0;
#X connect 143 0 112 0;
#X connect 143 0 113 0;
#X connect 143 0 114 0;
#X connect 143 0 115 0;
#X connect 147 0 134 0;
#X connect 148 0 158 0;
#X connect 148 0 149 0;
#X connect 148 0 153 0;
#X connect 149 0 150 0;
#X connect 150 0 151 0;
#X connect 151 0 152 0;
#X connect 152 0 144 0;
#X connect 153 0 154 0;
#X connect 154 0 146 0;
#X connect 155 0 156 0;
#X connect 156 0 145 0;
#X connect 157 0 155 1;
#X connect 158 0 155 0;
#X connect 159 0 153 1;
#X connect 160 0 161 0;
#X connect 160 1 171 0;
#X connect 161 0 166 0;
#X connect 162 0 160 0;
#X connect 162 0 185 0;
#X connect 162 0 184 0;
#X connect 162 0 183 0;
#X connect 162 0 353 0;
#X connect 163 0 162 0;
#X connect 165 0 164 0;
#X connect 166 0 165 0;
#X connect 167 0 166 1;
#X connect 171 0 166 0;
#X connect 172 0 181 0;
#X connect 172 0 173 0;
#X connect 172 0 177 0;
#X connect 173 0 174 0;
#X connect 174 0 175 0;
#X connect 175 0 176 0;
#X connect 176 0 168 0;
#X connect 177 0 178 0;
#X connect 178 0 170 0;
#X connect 179 0 180 0;
#X connect 180 0 169 0;
#X connect 181 0 179 0;
#X connect 182 0 151 1;
#X connect 183 0 175 1;
#X connect 184 0 179 1;
#X connect 185 0 177 1;
#X connect 186 0 187 0;
#X connect 186 1 197 0;
#X connect 187 0 192 0;
#X connect 188 0 186 0;
#X connect 188 0 210 0;
#X connect 188 0 209 0;
#X connect 188 0 208 0;
#X connect 188 0 354 0;
#X connect 189 0 188 0;
#X connect 191 0 190 0;
#X connect 192 0 191 0;
#X connect 193 0 192 1;
#X connect 197 0 192 0;
#X connect 198 0 207 0;
#X connect 198 0 199 0;
#X connect 198 0 203 0;
#X connect 199 0 200 0;
#X connect 200 0 201 0;
#X connect 201 0 202 0;
#X connect 202 0 194 0;
#X connect 203 0 204 0;
#X connect 204 0 196 0;
#X connect 205 0 206 0;
#X connect 206 0 195 0;
#X connect 207 0 205 0;
#X connect 208 0 201 1;
#X connect 209 0 205 1;
#X connect 210 0 203 1;
#X connect 211 0 212 0;
#X connect 211 1 222 0;
#X connect 212 0 217 0;
#X connect 213 0 211 0;
#X connect 213 0 234 0;
#X connect 213 0 233 0;
#X connect 213 0 282 0;
#X connect 213 0 355 0;
#X connect 214 0 213 0;
#X connect 216 0 215 0;
#X connect 217 0 216 0;
#X connect 218 0 217 1;
#X connect 222 0 217 0;
#X connect 223 0 232 0;
#X connect 223 0 224 0;
#X connect 223 0 228 0;
#X connect 224 0 225 0;
#X connect 225 0 226 0;
#X connect 226 0 227 0;
#X connect 227 0 219 0;
#X connect 228 0 229 0;
#X connect 229 0 221 0;
#X connect 230 0 231 0;
#X connect 231 0 220 0;
#X connect 232 0 230 0;
#X connect 233 0 230 1;
#X connect 234 0 228 1;
#X connect 235 0 236 0;
#X connect 235 1 246 0;
#X connect 236 0 241 0;
#X connect 237 0 235 0;
#X connect 237 0 259 0;
#X connect 237 0 258 0;
#X connect 237 0 257 0;
#X connect 237 0 356 0;
#X connect 238 0 237 0;
#X connect 240 0 239 0;
#X connect 241 0 240 0;
#X connect 242 0 241 1;
#X connect 246 0 241 0;
#X connect 247 0 256 0;
#X connect 247 0 248 0;
#X connect 247 0 252 0;
#X connect 248 0 249 0;
#X connect 249 0 250 0;
#X connect 250 0 251 0;
#X connect 251 0 243 0;
#X connect 252 0 253 0;
#X connect 253 0 245 0;
#X connect 254 0 255 0;
#X connect 255 0 244 0;
#X connect 256 0 254 0;
#X connect 257 0 250 1;
#X connect 258 0 254 1;
#X connect 259 0 252 1;
#X connect 260 0 261 0;
#X connect 260 1 271 0;
#X connect 261 0 266 0;
#X connect 262 0 260 0;
#X connect 262 0 285 0;
#X connect 262 0 284 0;
#X connect 262 0 283 0;
#X connect 262 0 357 0;
#X connect 263 0 262 0;
#X connect 265 0 264 0;
#X connect 266 0 265 0;
#X connect 267 0 266 1;
#X connect 271 0 266 0;
#X connect 272 0 281 0;
#X connect 272 0 273 0;
#X connect 272 0 277 0;
#X connect 273 0 274 0;
#X connect 274 0 275 0;
#X connect 275 0 276 0;
#X connect 276 0 268 0;
#X connect 277 0 278 0;
#X connect 278 0 270 0;
#X connect 279 0 280 0;
#X connect 280 0 269 0;
#X connect 281 0 279 0;
#X connect 282 0 226 1;
#X connect 283 0 275 1;
#X connect 284 0 279 1;
#X connect 285 0 277 1;
#X connect 286 0 287 0;
#X connect 286 1 297 0;
#X connect 287 0 292 0;
#X connect 288 0 286 0;
#X connect 288 0 310 0;
#X connect 288 0 309 0;
#X connect 288 0 308 0;
#X connect 288 0 358 0;
#X connect 289 0 288 0;
#X connect 291 0 290 0;
#X connect 292 0 291 0;
#X connect 293 0 292 1;
#X connect 297 0 292 0;
#X connect 298 0 307 0;
#X connect 298 0 299 0;
#X connect 298 0 303 0;
#X connect 299 0 300 0;
#X connect 300 0 301 0;
#X connect 301 0 302 0;
#X connect 302 0 294 0;
#X connect 303 0 304 0;
#X connect 304 0 296 0;
#X connect 305 0 306 0;
#X connect 306 0 295 0;
#X connect 307 0 305 0;
#X connect 308 0 301 1;
#X connect 309 0 305 1;
#X connect 310 0 303 1;
#X connect 311 0 140 0;
#X connect 312 0 350 0;
#X connect 313 0 339 0;
#X connect 313 0 339 1;
#X connect 314 0 315 0;
#X connect 315 0 328 0;
#X connect 316 0 314 0;
#X connect 316 1 314 1;
#X connect 317 0 314 0;
#X connect 317 0 312 0;
#X connect 318 0 316 0;
#X connect 318 0 313 0;
#X connect 320 0 321 0;
#X connect 321 0 338 0;
#X connect 321 0 319 0;
#X connect 322 0 323 0;
#X connect 323 0 324 0;
#X connect 324 0 321 0;
#X connect 325 0 320 0;
#X connect 325 0 137 0;
#X connect 327 0 344 0;
#X connect 328 0 329 0;
#X connect 328 1 337 0;
#X connect 329 0 327 1;
#X connect 330 0 336 0;
#X connect 331 0 342 0;
#X connect 332 0 333 0;
#X connect 333 0 334 0;
#X connect 335 0 331 0;
#X connect 336 0 331 1;
#X connect 337 0 327 1;
#X connect 338 0 343 0;
#X connect 339 0 340 0;
#X connect 339 1 341 0;
#X connect 340 0 338 1;
#X connect 341 0 338 1;
#X connect 342 0 322 0;
#X connect 343 0 140 0;
#X connect 344 0 140 0;
#X connect 346 0 347 0;
#X connect 347 0 349 0;
#X connect 348 0 44 0;
#X connect 349 0 345 0;
#X connect 350 0 311 0;
#X connect 351 0 108 0;
#X connect 352 0 151 0;
#X connect 352 0 155 0;
#X connect 352 0 153 0;
#X connect 353 0 175 0;
#X connect 353 0 179 0;
#X connect 353 0 177 0;
#X connect 354 0 201 0;
#X connect 354 0 205 0;
#X connect 354 0 203 0;
#X connect 355 0 226 0;
#X connect 355 0 230 0;
#X connect 355 0 228 0;
#X connect 356 0 250 0;
#X connect 356 0 254 0;
#X connect 356 0 252 0;
#X connect 357 0 275 0;
#X connect 357 0 279 0;
#X connect 357 0 277 0;
#X connect 358 0 301 0;
#X connect 358 0 305 0;
#X connect 358 0 303 0;
#X connect 359 0 111 0;
