#N canvas 827 239 734 565 12;
#X obj 393 1429 dac~;
#X obj 415 273 hsl 128 17 0 1 0 0 empty empty empty -2 -8 0 10 #191919 #e1e1e1 #e1e1e1 0 1;
#X obj 381 339 line~;
#X msg 381 307 \$1 20;
#X obj 381 244 r faderleft @hv_param;
#X obj 620 1171 hsl 128 17 0 1 0 0 empty empty empty -2 -8 0 10 #191919 #e1e1e1 #e1e1e1 0 1;
#X obj 586 1238 line~;
#X msg 586 1206 \$1 20;
#X obj 586 1147 r faderright @hv_param;
#X obj 465 1377 *~;
#X obj 220 144 adc~;
#X obj 465 882 hv.freqshift~;
#X obj 319 882 hv.freqshift~;
#X obj 317 1370 *~;
#X obj 383 591 *~;
#X obj 772 92 hsl 128 17 0 1 0 0 empty empty empty -2 -8 0 10 #191919 #e1e1e1 #e1e1e1 0 1;
#X msg 749 183 \$1 20;
#X msg 586 183 \$1 20;
#X obj 609 92 hsl 128 17 0 1 0 0 empty empty empty -2 -8 0 10 #191919 #e1e1e1 #e1e1e1 0 1;
#X obj 586 62 r knob1 @hv_param;
#X obj 749 62 r knob2 @hv_param;
#X obj 319 1104 hv.lop~;
#X obj 465 1104 hv.lop~;
#X obj 602 933 hsl 128 17 0 1 0 0 empty empty empty -2 -8 0 10 #191919 #e1e1e1 #e1e1e1 0 1;
#X msg 579 993 \$1 20;
#X obj 579 1018 line~;
#X obj 579 1045 mtof~;
#X obj 579 965 * 127;
#X obj 749 124 * 99.9;
#X obj 749 155 + 0.1;
#X obj 66 1083 *~ -1;
#X obj 66 1122 +~ 1;
#X obj 92 976 hsl 128 17 0 1 0 0 empty empty empty -2 -8 0 10 #191919 #e1e1e1 #e1e1e1 0 1;
#X obj 66 1045 line~;
#X msg 66 1013 \$1 20;
#X obj 317 1273 clip~ -0.9 0.9;
#X obj 465 1273 clip~ -0.9 0.9;
#X msg 844 611 \$1 20, f 9;
#X msg 1054 612 \$1 20, f 9;
#X obj 844 576 change;
#X obj 1054 576 change;
#X obj 980 533 ==;
#X obj 980 576 change;
#X obj 980 496 t b f;
#X msg 980 612 \$1 20, f 9;
#X obj 844 655 line~;
#X obj 980 655 line~;
#X obj 1054 655 line~;
#X obj 844 448 r toggle1left_press @hv_param;
#X obj 1054 448 r toggle1right_press @hv_param;
#X obj 980 776 s~ leftswitch;
#X obj 980 701 /~ 2;
#X obj 1054 701 /~ 4;
#X obj 162 1174 *~;
#X obj 259 1174 *~;
#X obj 317 1174 *~;
#X obj 465 1174 *~;
#X obj 448 558 r~ leftswitch;
#X obj 527 591 *~;
#X obj 66 954 r knob5 @hv_param;
#X obj 579 903 r knob4 @hv_param;
#X obj 586 217 line~;
#X obj 586 292 *~;
#X obj 749 204 line~;
#X obj 586 250 phasor~;
#X obj 749 250 phasor~;
#X obj 381 408 +~;
#X obj 525 408 +~;
#X obj 586 339 *~ 110;
#X obj 602 411 hsl 128 17 0 1 0 0 empty empty empty -2 -8 0 10 #191919 #e1e1e1 #e1e1e1 0 1;
#X obj 579 381 r knob0 @hv_param;
#X msg 579 475 \$1 20;
#X obj 579 496 line~;
#X obj 579 443 * 127;
#X obj 527 531 +~;
#X obj 383 531 -~;
#X obj 319 801 hv.lop~;
#X obj 465 801 hv.lop~;
#X obj 602 641 hsl 128 17 0 1 0 0 empty empty empty -2 -8 0 10 #191919 #e1e1e1 #e1e1e1 0 1;
#X msg 579 701 \$1 20;
#X obj 579 726 line~;
#X obj 579 753 mtof~;
#X obj 579 673 * 127;
#X obj 579 611 r knob3 @hv_param;
#X text 273 143 audio in;
#X text 586 34 freqshift mod move 1;
#X text 749 34 freqshift mod move 2;
#X text 713 380 stereo shift;
#X text 383 217 freq shift 1;
#X text 579 590 lopass before freq shift;
#X text 579 881 lopass after shift;
#X text 66 924 wet dry;
#X text 594 1121 end volume;
#X text 990 418 freq shift multiplier;
#X obj 381 370 *~ -880;
#X obj 586 144 * 99;
#X connect 1 0 3 0;
#X connect 2 0 94 0;
#X connect 3 0 2 0;
#X connect 4 0 3 0;
#X connect 5 0 7 0;
#X connect 6 0 9 1;
#X connect 6 0 13 1;
#X connect 7 0 6 0;
#X connect 8 0 7 0;
#X connect 9 0 0 1;
#X connect 10 0 53 0;
#X connect 10 0 76 0;
#X connect 10 1 77 0;
#X connect 10 1 54 0;
#X connect 11 0 22 0;
#X connect 12 0 21 0;
#X connect 13 0 0 0;
#X connect 14 0 12 1;
#X connect 15 0 28 0;
#X connect 16 0 63 0;
#X connect 17 0 61 0;
#X connect 18 0 95 0;
#X connect 19 0 95 0;
#X connect 20 0 28 0;
#X connect 21 0 55 0;
#X connect 22 0 56 0;
#X connect 23 0 27 0;
#X connect 24 0 25 0;
#X connect 25 0 26 0;
#X connect 26 0 22 1;
#X connect 26 0 21 1;
#X connect 27 0 24 0;
#X connect 28 0 29 0;
#X connect 29 0 16 0;
#X connect 30 0 31 0;
#X connect 31 0 54 1;
#X connect 31 0 53 1;
#X connect 32 0 34 0;
#X connect 33 0 30 0;
#X connect 33 0 56 1;
#X connect 33 0 55 1;
#X connect 34 0 33 0;
#X connect 35 0 13 0;
#X connect 36 0 9 0;
#X connect 37 0 45 0;
#X connect 38 0 47 0;
#X connect 39 0 37 0;
#X connect 40 0 38 0;
#X connect 41 0 42 0;
#X connect 42 0 44 0;
#X connect 43 0 41 0;
#X connect 43 1 41 1;
#X connect 44 0 46 0;
#X connect 45 0 50 0;
#X connect 46 0 51 0;
#X connect 47 0 52 0;
#X connect 48 0 41 0;
#X connect 48 0 39 0;
#X connect 49 0 43 0;
#X connect 49 0 40 0;
#X connect 51 0 50 0;
#X connect 52 0 50 0;
#X connect 53 0 35 0;
#X connect 54 0 36 0;
#X connect 55 0 35 0;
#X connect 56 0 36 0;
#X connect 57 0 14 1;
#X connect 57 0 58 1;
#X connect 58 0 11 1;
#X connect 59 0 34 0;
#X connect 60 0 27 0;
#X connect 61 0 64 0;
#X connect 62 0 68 0;
#X connect 63 0 65 0;
#X connect 64 0 62 0;
#X connect 65 0 62 1;
#X connect 66 0 75 0;
#X connect 67 0 74 0;
#X connect 68 0 66 1;
#X connect 68 0 67 1;
#X connect 69 0 73 0;
#X connect 70 0 73 0;
#X connect 71 0 72 0;
#X connect 72 0 75 1;
#X connect 72 0 74 1;
#X connect 73 0 71 0;
#X connect 74 0 58 0;
#X connect 75 0 14 0;
#X connect 76 0 12 0;
#X connect 77 0 11 0;
#X connect 78 0 82 0;
#X connect 79 0 80 0;
#X connect 80 0 81 0;
#X connect 81 0 77 1;
#X connect 81 0 76 1;
#X connect 82 0 79 0;
#X connect 83 0 82 0;
#X connect 94 0 66 0;
#X connect 94 0 67 0;
#X connect 95 0 17 0;
